<?xml version="1.0" encoding="utf-8" standalone="no"?>
<!DOCTYPE svg PUBLIC "-//W3C//DTD SVG 1.1//EN"
  "http://www.w3.org/Graphics/SVG/1.1/DTD/svg11.dtd">
<!-- Created with matplotlib (https://matplotlib.org/) -->
<svg height="345.6pt" version="1.1" viewBox="0 0 460.8 345.6" width="460.8pt" xmlns="http://www.w3.org/2000/svg" xmlns:xlink="http://www.w3.org/1999/xlink">
 <metadata>
  <rdf:RDF xmlns:cc="http://creativecommons.org/ns#" xmlns:dc="http://purl.org/dc/elements/1.1/" xmlns:rdf="http://www.w3.org/1999/02/22-rdf-syntax-ns#">
   <cc:Work>
    <dc:type rdf:resource="http://purl.org/dc/dcmitype/StillImage"/>
    <dc:date>2021-04-10T13:40:10.078770</dc:date>
    <dc:format>image/svg+xml</dc:format>
    <dc:creator>
     <cc:Agent>
      <dc:title>Matplotlib v3.3.3, https://matplotlib.org/</dc:title>
     </cc:Agent>
    </dc:creator>
   </cc:Work>
  </rdf:RDF>
 </metadata>
 <defs>
  <style type="text/css">*{stroke-linecap:butt;stroke-linejoin:round;}</style>
 </defs>
 <g id="figure_1">
  <g id="patch_1">
   <path d="M 0 345.6 
L 460.8 345.6 
L 460.8 0 
L 0 0 
z
" style="fill:#ffffff;"/>
  </g>
  <g id="axes_1">
   <g id="patch_2">
    <path d="M 57.6 307.584 
L 414.72 307.584 
L 414.72 41.472 
L 57.6 41.472 
z
" style="fill:#eaeaf2;"/>
   </g>
   <g id="matplotlib.axis_1">
    <g id="xtick_1">
     <g id="line2d_1">
      <path clip-path="url(#p9b3ffbff54)" d="M 74.333405 307.584 
L 74.333405 41.472 
" style="fill:none;stroke:#ffffff;stroke-linecap:round;stroke-width:0.8;"/>
     </g>
     <g id="text_1">
      <!-- 0 -->
      <g style="fill:#262626;" transform="translate(71.152155 322.182437)scale(0.1 -0.1)">
       <defs>
        <path d="M 31.78125 66.40625 
Q 24.171875 66.40625 20.328125 58.90625 
Q 16.5 51.421875 16.5 36.375 
Q 16.5 21.390625 20.328125 13.890625 
Q 24.171875 6.390625 31.78125 6.390625 
Q 39.453125 6.390625 43.28125 13.890625 
Q 47.125 21.390625 47.125 36.375 
Q 47.125 51.421875 43.28125 58.90625 
Q 39.453125 66.40625 31.78125 66.40625 
z
M 31.78125 74.21875 
Q 44.046875 74.21875 50.515625 64.515625 
Q 56.984375 54.828125 56.984375 36.375 
Q 56.984375 17.96875 50.515625 8.265625 
Q 44.046875 -1.421875 31.78125 -1.421875 
Q 19.53125 -1.421875 13.0625 8.265625 
Q 6.59375 17.96875 6.59375 36.375 
Q 6.59375 54.828125 13.0625 64.515625 
Q 19.53125 74.21875 31.78125 74.21875 
z
" id="DejaVuSans-48"/>
       </defs>
       <use xlink:href="#DejaVuSans-48"/>
      </g>
     </g>
    </g>
    <g id="xtick_2">
     <g id="line2d_2">
      <path clip-path="url(#p9b3ffbff54)" d="M 128.79526 307.584 
L 128.79526 41.472 
" style="fill:none;stroke:#ffffff;stroke-linecap:round;stroke-width:0.8;"/>
     </g>
     <g id="text_2">
      <!-- 2 -->
      <g style="fill:#262626;" transform="translate(125.61401 322.182437)scale(0.1 -0.1)">
       <defs>
        <path d="M 19.1875 8.296875 
L 53.609375 8.296875 
L 53.609375 0 
L 7.328125 0 
L 7.328125 8.296875 
Q 12.9375 14.109375 22.625 23.890625 
Q 32.328125 33.6875 34.8125 36.53125 
Q 39.546875 41.84375 41.421875 45.53125 
Q 43.3125 49.21875 43.3125 52.78125 
Q 43.3125 58.59375 39.234375 62.25 
Q 35.15625 65.921875 28.609375 65.921875 
Q 23.96875 65.921875 18.8125 64.3125 
Q 13.671875 62.703125 7.8125 59.421875 
L 7.8125 69.390625 
Q 13.765625 71.78125 18.9375 73 
Q 24.125 74.21875 28.421875 74.21875 
Q 39.75 74.21875 46.484375 68.546875 
Q 53.21875 62.890625 53.21875 53.421875 
Q 53.21875 48.921875 51.53125 44.890625 
Q 49.859375 40.875 45.40625 35.40625 
Q 44.1875 33.984375 37.640625 27.21875 
Q 31.109375 20.453125 19.1875 8.296875 
z
" id="DejaVuSans-50"/>
       </defs>
       <use xlink:href="#DejaVuSans-50"/>
      </g>
     </g>
    </g>
    <g id="xtick_3">
     <g id="line2d_3">
      <path clip-path="url(#p9b3ffbff54)" d="M 183.257115 307.584 
L 183.257115 41.472 
" style="fill:none;stroke:#ffffff;stroke-linecap:round;stroke-width:0.8;"/>
     </g>
     <g id="text_3">
      <!-- 4 -->
      <g style="fill:#262626;" transform="translate(180.075865 322.182437)scale(0.1 -0.1)">
       <defs>
        <path d="M 37.796875 64.3125 
L 12.890625 25.390625 
L 37.796875 25.390625 
z
M 35.203125 72.90625 
L 47.609375 72.90625 
L 47.609375 25.390625 
L 58.015625 25.390625 
L 58.015625 17.1875 
L 47.609375 17.1875 
L 47.609375 0 
L 37.796875 0 
L 37.796875 17.1875 
L 4.890625 17.1875 
L 4.890625 26.703125 
z
" id="DejaVuSans-52"/>
       </defs>
       <use xlink:href="#DejaVuSans-52"/>
      </g>
     </g>
    </g>
    <g id="xtick_4">
     <g id="line2d_4">
      <path clip-path="url(#p9b3ffbff54)" d="M 237.718971 307.584 
L 237.718971 41.472 
" style="fill:none;stroke:#ffffff;stroke-linecap:round;stroke-width:0.8;"/>
     </g>
     <g id="text_4">
      <!-- 6 -->
      <g style="fill:#262626;" transform="translate(234.537721 322.182437)scale(0.1 -0.1)">
       <defs>
        <path d="M 33.015625 40.375 
Q 26.375 40.375 22.484375 35.828125 
Q 18.609375 31.296875 18.609375 23.390625 
Q 18.609375 15.53125 22.484375 10.953125 
Q 26.375 6.390625 33.015625 6.390625 
Q 39.65625 6.390625 43.53125 10.953125 
Q 47.40625 15.53125 47.40625 23.390625 
Q 47.40625 31.296875 43.53125 35.828125 
Q 39.65625 40.375 33.015625 40.375 
z
M 52.59375 71.296875 
L 52.59375 62.3125 
Q 48.875 64.0625 45.09375 64.984375 
Q 41.3125 65.921875 37.59375 65.921875 
Q 27.828125 65.921875 22.671875 59.328125 
Q 17.53125 52.734375 16.796875 39.40625 
Q 19.671875 43.65625 24.015625 45.921875 
Q 28.375 48.1875 33.59375 48.1875 
Q 44.578125 48.1875 50.953125 41.515625 
Q 57.328125 34.859375 57.328125 23.390625 
Q 57.328125 12.15625 50.6875 5.359375 
Q 44.046875 -1.421875 33.015625 -1.421875 
Q 20.359375 -1.421875 13.671875 8.265625 
Q 6.984375 17.96875 6.984375 36.375 
Q 6.984375 53.65625 15.1875 63.9375 
Q 23.390625 74.21875 37.203125 74.21875 
Q 40.921875 74.21875 44.703125 73.484375 
Q 48.484375 72.75 52.59375 71.296875 
z
" id="DejaVuSans-54"/>
       </defs>
       <use xlink:href="#DejaVuSans-54"/>
      </g>
     </g>
    </g>
    <g id="xtick_5">
     <g id="line2d_5">
      <path clip-path="url(#p9b3ffbff54)" d="M 292.180826 307.584 
L 292.180826 41.472 
" style="fill:none;stroke:#ffffff;stroke-linecap:round;stroke-width:0.8;"/>
     </g>
     <g id="text_5">
      <!-- 8 -->
      <g style="fill:#262626;" transform="translate(288.999576 322.182437)scale(0.1 -0.1)">
       <defs>
        <path d="M 31.78125 34.625 
Q 24.75 34.625 20.71875 30.859375 
Q 16.703125 27.09375 16.703125 20.515625 
Q 16.703125 13.921875 20.71875 10.15625 
Q 24.75 6.390625 31.78125 6.390625 
Q 38.8125 6.390625 42.859375 10.171875 
Q 46.921875 13.96875 46.921875 20.515625 
Q 46.921875 27.09375 42.890625 30.859375 
Q 38.875 34.625 31.78125 34.625 
z
M 21.921875 38.8125 
Q 15.578125 40.375 12.03125 44.71875 
Q 8.5 49.078125 8.5 55.328125 
Q 8.5 64.0625 14.71875 69.140625 
Q 20.953125 74.21875 31.78125 74.21875 
Q 42.671875 74.21875 48.875 69.140625 
Q 55.078125 64.0625 55.078125 55.328125 
Q 55.078125 49.078125 51.53125 44.71875 
Q 48 40.375 41.703125 38.8125 
Q 48.828125 37.15625 52.796875 32.3125 
Q 56.78125 27.484375 56.78125 20.515625 
Q 56.78125 9.90625 50.3125 4.234375 
Q 43.84375 -1.421875 31.78125 -1.421875 
Q 19.734375 -1.421875 13.25 4.234375 
Q 6.78125 9.90625 6.78125 20.515625 
Q 6.78125 27.484375 10.78125 32.3125 
Q 14.796875 37.15625 21.921875 38.8125 
z
M 18.3125 54.390625 
Q 18.3125 48.734375 21.84375 45.5625 
Q 25.390625 42.390625 31.78125 42.390625 
Q 38.140625 42.390625 41.71875 45.5625 
Q 45.3125 48.734375 45.3125 54.390625 
Q 45.3125 60.0625 41.71875 63.234375 
Q 38.140625 66.40625 31.78125 66.40625 
Q 25.390625 66.40625 21.84375 63.234375 
Q 18.3125 60.0625 18.3125 54.390625 
z
" id="DejaVuSans-56"/>
       </defs>
       <use xlink:href="#DejaVuSans-56"/>
      </g>
     </g>
    </g>
    <g id="xtick_6">
     <g id="line2d_6">
      <path clip-path="url(#p9b3ffbff54)" d="M 346.642681 307.584 
L 346.642681 41.472 
" style="fill:none;stroke:#ffffff;stroke-linecap:round;stroke-width:0.8;"/>
     </g>
     <g id="text_6">
      <!-- 10 -->
      <g style="fill:#262626;" transform="translate(340.280181 322.182437)scale(0.1 -0.1)">
       <defs>
        <path d="M 12.40625 8.296875 
L 28.515625 8.296875 
L 28.515625 63.921875 
L 10.984375 60.40625 
L 10.984375 69.390625 
L 28.421875 72.90625 
L 38.28125 72.90625 
L 38.28125 8.296875 
L 54.390625 8.296875 
L 54.390625 0 
L 12.40625 0 
z
" id="DejaVuSans-49"/>
       </defs>
       <use xlink:href="#DejaVuSans-49"/>
       <use x="63.623047" xlink:href="#DejaVuSans-48"/>
      </g>
     </g>
    </g>
    <g id="xtick_7">
     <g id="line2d_7">
      <path clip-path="url(#p9b3ffbff54)" d="M 401.104536 307.584 
L 401.104536 41.472 
" style="fill:none;stroke:#ffffff;stroke-linecap:round;stroke-width:0.8;"/>
     </g>
     <g id="text_7">
      <!-- 12 -->
      <g style="fill:#262626;" transform="translate(394.742036 322.182437)scale(0.1 -0.1)">
       <use xlink:href="#DejaVuSans-49"/>
       <use x="63.623047" xlink:href="#DejaVuSans-50"/>
      </g>
     </g>
    </g>
    <g id="text_8">
     <!-- x -->
     <g style="fill:#262626;" transform="translate(233.200625 335.860562)scale(0.1 -0.1)">
      <defs>
       <path d="M 54.890625 54.6875 
L 35.109375 28.078125 
L 55.90625 0 
L 45.3125 0 
L 29.390625 21.484375 
L 13.484375 0 
L 2.875 0 
L 24.125 28.609375 
L 4.6875 54.6875 
L 15.28125 54.6875 
L 29.78125 35.203125 
L 44.28125 54.6875 
z
" id="DejaVuSans-120"/>
      </defs>
      <use xlink:href="#DejaVuSans-120"/>
     </g>
    </g>
   </g>
   <g id="matplotlib.axis_2">
    <g id="ytick_1">
     <g id="line2d_8">
      <path clip-path="url(#p9b3ffbff54)" d="M 57.6 307.584 
L 414.72 307.584 
" style="fill:none;stroke:#ffffff;stroke-linecap:round;stroke-width:0.8;"/>
     </g>
     <g id="text_9">
      <!-- 0.0 -->
      <g style="fill:#262626;" transform="translate(34.696875 311.383219)scale(0.1 -0.1)">
       <defs>
        <path d="M 10.6875 12.40625 
L 21 12.40625 
L 21 0 
L 10.6875 0 
z
" id="DejaVuSans-46"/>
       </defs>
       <use xlink:href="#DejaVuSans-48"/>
       <use x="63.623047" xlink:href="#DejaVuSans-46"/>
       <use x="95.410156" xlink:href="#DejaVuSans-48"/>
      </g>
     </g>
    </g>
    <g id="ytick_2">
     <g id="line2d_9">
      <path clip-path="url(#p9b3ffbff54)" d="M 57.6 254.888554 
L 414.72 254.888554 
" style="fill:none;stroke:#ffffff;stroke-linecap:round;stroke-width:0.8;"/>
     </g>
     <g id="text_10">
      <!-- 0.2 -->
      <g style="fill:#262626;" transform="translate(34.696875 258.687773)scale(0.1 -0.1)">
       <use xlink:href="#DejaVuSans-48"/>
       <use x="63.623047" xlink:href="#DejaVuSans-46"/>
       <use x="95.410156" xlink:href="#DejaVuSans-50"/>
      </g>
     </g>
    </g>
    <g id="ytick_3">
     <g id="line2d_10">
      <path clip-path="url(#p9b3ffbff54)" d="M 57.6 202.193109 
L 414.72 202.193109 
" style="fill:none;stroke:#ffffff;stroke-linecap:round;stroke-width:0.8;"/>
     </g>
     <g id="text_11">
      <!-- 0.4 -->
      <g style="fill:#262626;" transform="translate(34.696875 205.992328)scale(0.1 -0.1)">
       <use xlink:href="#DejaVuSans-48"/>
       <use x="63.623047" xlink:href="#DejaVuSans-46"/>
       <use x="95.410156" xlink:href="#DejaVuSans-52"/>
      </g>
     </g>
    </g>
    <g id="ytick_4">
     <g id="line2d_11">
      <path clip-path="url(#p9b3ffbff54)" d="M 57.6 149.497663 
L 414.72 149.497663 
" style="fill:none;stroke:#ffffff;stroke-linecap:round;stroke-width:0.8;"/>
     </g>
     <g id="text_12">
      <!-- 0.6 -->
      <g style="fill:#262626;" transform="translate(34.696875 153.296882)scale(0.1 -0.1)">
       <use xlink:href="#DejaVuSans-48"/>
       <use x="63.623047" xlink:href="#DejaVuSans-46"/>
       <use x="95.410156" xlink:href="#DejaVuSans-54"/>
      </g>
     </g>
    </g>
    <g id="ytick_5">
     <g id="line2d_12">
      <path clip-path="url(#p9b3ffbff54)" d="M 57.6 96.802218 
L 414.72 96.802218 
" style="fill:none;stroke:#ffffff;stroke-linecap:round;stroke-width:0.8;"/>
     </g>
     <g id="text_13">
      <!-- 0.8 -->
      <g style="fill:#262626;" transform="translate(34.696875 100.601437)scale(0.1 -0.1)">
       <use xlink:href="#DejaVuSans-48"/>
       <use x="63.623047" xlink:href="#DejaVuSans-46"/>
       <use x="95.410156" xlink:href="#DejaVuSans-56"/>
      </g>
     </g>
    </g>
    <g id="ytick_6">
     <g id="line2d_13">
      <path clip-path="url(#p9b3ffbff54)" d="M 57.6 44.106772 
L 414.72 44.106772 
" style="fill:none;stroke:#ffffff;stroke-linecap:round;stroke-width:0.8;"/>
     </g>
     <g id="text_14">
      <!-- 1.0 -->
      <g style="fill:#262626;" transform="translate(34.696875 47.905991)scale(0.1 -0.1)">
       <use xlink:href="#DejaVuSans-49"/>
       <use x="63.623047" xlink:href="#DejaVuSans-46"/>
       <use x="95.410156" xlink:href="#DejaVuSans-48"/>
      </g>
     </g>
    </g>
    <g id="text_15">
     <!-- F(x) -->
     <g style="fill:#262626;" transform="translate(28.617188 184.264719)rotate(-90)scale(0.1 -0.1)">
      <defs>
       <path d="M 9.8125 72.90625 
L 51.703125 72.90625 
L 51.703125 64.59375 
L 19.671875 64.59375 
L 19.671875 43.109375 
L 48.578125 43.109375 
L 48.578125 34.8125 
L 19.671875 34.8125 
L 19.671875 0 
L 9.8125 0 
z
" id="DejaVuSans-70"/>
       <path d="M 31 75.875 
Q 24.46875 64.65625 21.28125 53.65625 
Q 18.109375 42.671875 18.109375 31.390625 
Q 18.109375 20.125 21.3125 9.0625 
Q 24.515625 -2 31 -13.1875 
L 23.1875 -13.1875 
Q 15.875 -1.703125 12.234375 9.375 
Q 8.59375 20.453125 8.59375 31.390625 
Q 8.59375 42.28125 12.203125 53.3125 
Q 15.828125 64.359375 23.1875 75.875 
z
" id="DejaVuSans-40"/>
       <path d="M 8.015625 75.875 
L 15.828125 75.875 
Q 23.140625 64.359375 26.78125 53.3125 
Q 30.421875 42.28125 30.421875 31.390625 
Q 30.421875 20.453125 26.78125 9.375 
Q 23.140625 -1.703125 15.828125 -13.1875 
L 8.015625 -13.1875 
Q 14.5 -2 17.703125 9.0625 
Q 20.90625 20.125 20.90625 31.390625 
Q 20.90625 42.671875 17.703125 53.65625 
Q 14.5 64.65625 8.015625 75.875 
z
" id="DejaVuSans-41"/>
      </defs>
      <use xlink:href="#DejaVuSans-70"/>
      <use x="57.519531" xlink:href="#DejaVuSans-40"/>
      <use x="96.533203" xlink:href="#DejaVuSans-120"/>
      <use x="155.712891" xlink:href="#DejaVuSans-41"/>
     </g>
    </g>
   </g>
   <g id="line2d_14">
    <path clip-path="url(#p9b3ffbff54)" d="M 74.605714 307.583698 
L 74.946169 307.131508 
L 75.286624 303.615715 
L 75.627079 296.100675 
L 76.648443 262.068138 
L 78.010262 216.123991 
L 79.031626 187.236348 
L 80.05299 163.08516 
L 81.074354 142.987489 
L 82.095719 126.280594 
L 83.117083 112.395724 
L 84.138447 100.856827 
L 85.159811 91.267649 
L 86.181175 83.298769 
L 87.20254 76.676408 
L 88.223904 71.173043 
L 89.245268 66.599593 
L 90.266632 62.79893 
L 91.287997 59.640473 
L 92.649816 56.243333 
L 94.011634 53.589129 
L 95.373453 51.515386 
L 96.735272 49.895161 
L 98.097091 48.62927 
L 99.45891 47.640223 
L 101.161184 46.702295 
L 102.863458 46.013333 
L 104.906186 45.423457 
L 107.289369 44.961677 
L 110.353462 44.597414 
L 114.779374 44.326777 
L 121.588468 44.170825 
L 136.568477 44.111014 
L 291.134929 44.106772 
L 414.72 44.106772 
L 414.72 44.106772 
" style="fill:none;stroke:#1f77b4;stroke-linecap:round;stroke-width:1.5;"/>
   </g>
   <g id="line2d_15">
    <path clip-path="url(#p9b3ffbff54)" d="M 74.605714 307.584 
L 80.393445 307.489602 
L 81.414809 307.213779 
L 82.095719 306.826817 
L 82.776628 306.200559 
L 83.457538 305.269042 
L 84.138447 303.971947 
L 84.819356 302.258322 
L 85.500266 300.088875 
L 86.52163 295.925385 
L 87.542994 290.642945 
L 88.564359 284.263465 
L 89.926178 274.17834 
L 91.628451 259.420744 
L 93.67118 239.435236 
L 102.182548 153.011842 
L 104.225277 135.512277 
L 106.268005 119.992633 
L 107.970279 108.602012 
L 109.672553 98.576237 
L 111.374826 89.841597 
L 113.0771 82.30106 
L 114.779374 75.844639 
L 116.481647 70.357348 
L 118.183921 65.725041 
L 119.886195 61.83846 
L 121.588468 58.595853 
L 123.290742 55.904472 
L 124.993016 53.681239 
L 126.69529 51.852806 
L 128.397563 50.355205 
L 130.099837 49.133237 
L 132.142565 47.964772 
L 134.185294 47.057543 
L 136.568477 46.256102 
L 139.292115 45.595451 
L 142.356208 45.085731 
L 146.10121 44.688694 
L 151.208031 44.389513 
L 158.698035 44.202658 
L 172.997134 44.118219 
L 245.513994 44.106772 
L 414.72 44.106772 
L 414.72 44.106772 
" style="fill:none;stroke:#ff7f0e;stroke-linecap:round;stroke-width:1.5;"/>
   </g>
   <g id="line2d_16">
    <path clip-path="url(#p9b3ffbff54)" d="M 74.605714 307.584 
L 89.585723 307.48607 
L 91.287997 307.277173 
L 92.649816 306.92714 
L 94.011634 306.319081 
L 95.032999 305.631514 
L 96.054363 304.693575 
L 97.075727 303.458155 
L 98.097091 301.880059 
L 99.118456 299.918006 
L 100.13982 297.536391 
L 101.501639 293.660156 
L 102.863458 288.943617 
L 104.225277 283.370144 
L 105.587096 276.951492 
L 107.289369 267.800807 
L 109.332098 255.340685 
L 111.715281 239.155453 
L 114.779374 216.637094 
L 122.269378 160.877803 
L 124.993016 142.503449 
L 127.376199 127.835214 
L 129.759382 114.630811 
L 131.802111 104.518534 
L 133.844839 95.511007 
L 135.887568 87.569581 
L 137.930296 80.634173 
L 139.63257 75.569701 
L 141.334843 71.104459 
L 143.037117 67.188594 
L 144.739391 63.771834 
L 146.441665 60.804771 
L 148.143938 58.239839 
L 149.846212 56.032014 
L 151.548486 54.139287 
L 153.591214 52.229673 
L 155.633943 50.657833 
L 157.676671 49.370438 
L 159.719399 48.320955 
L 162.102583 47.343989 
L 164.826221 46.48867 
L 167.890313 45.782469 
L 171.294861 45.23191 
L 175.380317 44.797573 
L 180.827593 44.461765 
L 188.317598 44.245276 
L 201.254878 44.132423 
L 242.109447 44.106858 
L 414.72 44.106772 
L 414.72 44.106772 
" style="fill:none;stroke:#2ca02c;stroke-linecap:round;stroke-width:1.5;"/>
   </g>
   <g id="line2d_17">
    <path clip-path="url(#p9b3ffbff54)" d="M 74.605714 307.584 
L 100.820729 307.47965 
L 103.544367 307.229544 
L 105.587096 306.816659 
L 107.289369 306.231824 
L 108.651188 305.546782 
L 110.013007 304.61744 
L 111.374826 303.394063 
L 112.736645 301.826722 
L 114.098464 299.867406 
L 115.460283 297.472141 
L 116.822102 294.602954 
L 118.183921 291.229578 
L 119.54574 287.330801 
L 121.248014 281.702407 
L 122.950287 275.237561 
L 124.652561 267.963119 
L 126.69529 258.238573 
L 129.078473 245.687619 
L 131.802111 230.080751 
L 135.887568 205.120796 
L 142.696662 163.2923 
L 146.10121 143.906161 
L 148.824848 129.635582 
L 151.208031 118.194271 
L 153.591214 107.791322 
L 155.974397 98.445594 
L 158.017126 91.266648 
L 160.059854 84.830532 
L 162.102583 79.102323 
L 164.145311 74.039222 
L 166.188039 69.593168 
L 168.230768 65.713102 
L 170.273496 62.346867 
L 172.316225 59.442741 
L 174.358953 56.950623 
L 176.401682 54.822917 
L 178.44441 53.015137 
L 180.487139 51.486291 
L 182.870322 50.005607 
L 185.253505 48.801089 
L 187.977143 47.703756 
L 190.700781 46.84825 
L 193.764873 46.114191 
L 197.509876 45.466939 
L 201.935787 44.955883 
L 207.383063 44.574923 
L 214.532613 44.316007 
L 225.767619 44.162974 
L 250.620815 44.109344 
L 414.72 44.106772 
L 414.72 44.106772 
" style="fill:none;stroke:#d62728;stroke-linecap:round;stroke-width:1.5;"/>
   </g>
   <g id="line2d_18">
    <path clip-path="url(#p9b3ffbff54)" d="M 74.605714 307.584 
L 121.928923 307.478739 
L 126.01438 307.217538 
L 128.738018 306.83399 
L 131.121201 306.267882 
L 133.16393 305.541197 
L 134.866203 304.71603 
L 136.568477 303.647622 
L 138.270751 302.293231 
L 139.973024 300.609765 
L 141.675298 298.555328 
L 143.377572 296.090812 
L 145.079846 293.181475 
L 146.782119 289.798408 
L 148.484393 285.919817 
L 150.186667 281.532051 
L 152.229395 275.588543 
L 154.272124 268.914831 
L 156.655307 260.245221 
L 159.03849 250.698441 
L 161.762128 238.852279 
L 165.166675 222.936457 
L 169.933042 199.397491 
L 177.763501 160.646131 
L 181.508503 143.307865 
L 184.572595 130.099422 
L 187.296233 119.226598 
L 190.019871 109.23891 
L 192.403054 101.252065 
L 194.786238 93.972275 
L 197.169421 87.389459 
L 199.552604 81.48187 
L 201.935787 76.218537 
L 204.31897 71.561601 
L 206.361699 68.020378 
L 208.404427 64.864857 
L 210.447156 62.065718 
L 212.489884 59.593526 
L 214.873067 57.083884 
L 217.256251 54.935314 
L 219.639434 53.105629 
L 222.022617 51.55546 
L 224.4058 50.248569 
L 227.129438 49.01075 
L 229.853076 48.003854 
L 232.917169 47.099522 
L 236.321716 46.323962 
L 240.407173 45.64022 
L 245.173539 45.09266 
L 250.96127 44.674312 
L 258.451274 44.377878 
L 269.345826 44.195294 
L 290.113565 44.115991 
L 407.910905 44.106772 
L 414.72 44.106773 
L 414.72 44.106773 
" style="fill:none;stroke:#9467bd;stroke-linecap:round;stroke-width:1.5;"/>
   </g>
   <g id="line2d_19">
    <path clip-path="url(#p9b3ffbff54)" d="M 74.605714 307.584 
L 169.252132 307.478999 
L 175.380317 307.225308 
L 179.465774 306.847716 
L 182.870322 306.3138 
L 185.59396 305.681674 
L 188.317598 304.810017 
L 190.700781 303.803703 
L 192.743509 302.725638 
L 194.786238 301.418496 
L 196.828966 299.853302 
L 198.871695 298.001431 
L 200.914423 295.835388 
L 202.957151 293.329622 
L 204.99988 290.461337 
L 207.042608 287.211266 
L 209.085337 283.56438 
L 211.128065 279.510499 
L 213.511248 274.260431 
L 215.894432 268.452174 
L 218.277615 262.098776 
L 221.001253 254.201437 
L 224.065345 244.569584 
L 227.469893 233.057193 
L 231.55535 218.347063 
L 237.002625 197.767364 
L 247.556722 157.693794 
L 251.982634 141.88812 
L 255.727636 129.339754 
L 259.132184 118.713427 
L 262.196276 109.847545 
L 265.260369 101.675726 
L 267.984007 95.005956 
L 270.707645 88.894689 
L 273.431283 83.332479 
L 276.154921 78.302658 
L 278.878559 73.782689 
L 281.261742 70.224747 
L 283.644925 67.016199 
L 286.028108 64.135425 
L 288.411291 61.559991 
L 291.134929 58.961299 
L 293.858567 56.697792 
L 296.582205 54.736358 
L 299.305843 53.045162 
L 302.029481 51.59404 
L 305.093574 50.213452 
L 308.157666 49.064136 
L 311.562214 48.017902 
L 315.307216 47.10106 
L 319.392673 46.327652 
L 324.159039 45.659231 
L 329.606315 45.125527 
L 336.41541 44.698138 
L 344.926778 44.398788 
L 357.183149 44.207624 
L 379.653162 44.119377 
L 414.72 44.107141 
L 414.72 44.107141 
" style="fill:none;stroke:#8c564b;stroke-linecap:round;stroke-width:1.5;"/>
   </g>
   <g id="patch_3">
    <path d="M 57.6 307.584 
L 57.6 41.472 
" style="fill:none;stroke:#ffffff;stroke-linecap:square;stroke-linejoin:miter;stroke-width:0.8;"/>
   </g>
   <g id="patch_4">
    <path d="M 414.72 307.584 
L 414.72 41.472 
" style="fill:none;stroke:#ffffff;stroke-linecap:square;stroke-linejoin:miter;stroke-width:0.8;"/>
   </g>
   <g id="patch_5">
    <path d="M 57.6 307.584 
L 414.72 307.584 
" style="fill:none;stroke:#ffffff;stroke-linecap:square;stroke-linejoin:miter;stroke-width:0.8;"/>
   </g>
   <g id="patch_6">
    <path d="M 57.6 41.472 
L 414.72 41.472 
" style="fill:none;stroke:#ffffff;stroke-linecap:square;stroke-linejoin:miter;stroke-width:0.8;"/>
   </g>
   <g id="text_16">
    <!-- Distribution function plot of PG(h, 0) for h $\in$ (1, 4, 7, 10, 15, 25). -->
    <g style="fill:#262626;" transform="translate(89.1 35.472)scale(0.09 -0.09)">
     <defs>
      <path d="M 19.671875 64.796875 
L 19.671875 8.109375 
L 31.59375 8.109375 
Q 46.6875 8.109375 53.6875 14.9375 
Q 60.6875 21.78125 60.6875 36.53125 
Q 60.6875 51.171875 53.6875 57.984375 
Q 46.6875 64.796875 31.59375 64.796875 
z
M 9.8125 72.90625 
L 30.078125 72.90625 
Q 51.265625 72.90625 61.171875 64.09375 
Q 71.09375 55.28125 71.09375 36.53125 
Q 71.09375 17.671875 61.125 8.828125 
Q 51.171875 0 30.078125 0 
L 9.8125 0 
z
" id="DejaVuSans-68"/>
      <path d="M 9.421875 54.6875 
L 18.40625 54.6875 
L 18.40625 0 
L 9.421875 0 
z
M 9.421875 75.984375 
L 18.40625 75.984375 
L 18.40625 64.59375 
L 9.421875 64.59375 
z
" id="DejaVuSans-105"/>
      <path d="M 44.28125 53.078125 
L 44.28125 44.578125 
Q 40.484375 46.53125 36.375 47.5 
Q 32.28125 48.484375 27.875 48.484375 
Q 21.1875 48.484375 17.84375 46.4375 
Q 14.5 44.390625 14.5 40.28125 
Q 14.5 37.15625 16.890625 35.375 
Q 19.28125 33.59375 26.515625 31.984375 
L 29.59375 31.296875 
Q 39.15625 29.25 43.1875 25.515625 
Q 47.21875 21.78125 47.21875 15.09375 
Q 47.21875 7.46875 41.1875 3.015625 
Q 35.15625 -1.421875 24.609375 -1.421875 
Q 20.21875 -1.421875 15.453125 -0.5625 
Q 10.6875 0.296875 5.421875 2 
L 5.421875 11.28125 
Q 10.40625 8.6875 15.234375 7.390625 
Q 20.0625 6.109375 24.8125 6.109375 
Q 31.15625 6.109375 34.5625 8.28125 
Q 37.984375 10.453125 37.984375 14.40625 
Q 37.984375 18.0625 35.515625 20.015625 
Q 33.0625 21.96875 24.703125 23.78125 
L 21.578125 24.515625 
Q 13.234375 26.265625 9.515625 29.90625 
Q 5.8125 33.546875 5.8125 39.890625 
Q 5.8125 47.609375 11.28125 51.796875 
Q 16.75 56 26.8125 56 
Q 31.78125 56 36.171875 55.265625 
Q 40.578125 54.546875 44.28125 53.078125 
z
" id="DejaVuSans-115"/>
      <path d="M 18.3125 70.21875 
L 18.3125 54.6875 
L 36.8125 54.6875 
L 36.8125 47.703125 
L 18.3125 47.703125 
L 18.3125 18.015625 
Q 18.3125 11.328125 20.140625 9.421875 
Q 21.96875 7.515625 27.59375 7.515625 
L 36.8125 7.515625 
L 36.8125 0 
L 27.59375 0 
Q 17.1875 0 13.234375 3.875 
Q 9.28125 7.765625 9.28125 18.015625 
L 9.28125 47.703125 
L 2.6875 47.703125 
L 2.6875 54.6875 
L 9.28125 54.6875 
L 9.28125 70.21875 
z
" id="DejaVuSans-116"/>
      <path d="M 41.109375 46.296875 
Q 39.59375 47.171875 37.8125 47.578125 
Q 36.03125 48 33.890625 48 
Q 26.265625 48 22.1875 43.046875 
Q 18.109375 38.09375 18.109375 28.8125 
L 18.109375 0 
L 9.078125 0 
L 9.078125 54.6875 
L 18.109375 54.6875 
L 18.109375 46.1875 
Q 20.953125 51.171875 25.484375 53.578125 
Q 30.03125 56 36.53125 56 
Q 37.453125 56 38.578125 55.875 
Q 39.703125 55.765625 41.0625 55.515625 
z
" id="DejaVuSans-114"/>
      <path d="M 48.6875 27.296875 
Q 48.6875 37.203125 44.609375 42.84375 
Q 40.53125 48.484375 33.40625 48.484375 
Q 26.265625 48.484375 22.1875 42.84375 
Q 18.109375 37.203125 18.109375 27.296875 
Q 18.109375 17.390625 22.1875 11.75 
Q 26.265625 6.109375 33.40625 6.109375 
Q 40.53125 6.109375 44.609375 11.75 
Q 48.6875 17.390625 48.6875 27.296875 
z
M 18.109375 46.390625 
Q 20.953125 51.265625 25.265625 53.625 
Q 29.59375 56 35.59375 56 
Q 45.5625 56 51.78125 48.09375 
Q 58.015625 40.1875 58.015625 27.296875 
Q 58.015625 14.40625 51.78125 6.484375 
Q 45.5625 -1.421875 35.59375 -1.421875 
Q 29.59375 -1.421875 25.265625 0.953125 
Q 20.953125 3.328125 18.109375 8.203125 
L 18.109375 0 
L 9.078125 0 
L 9.078125 75.984375 
L 18.109375 75.984375 
z
" id="DejaVuSans-98"/>
      <path d="M 8.5 21.578125 
L 8.5 54.6875 
L 17.484375 54.6875 
L 17.484375 21.921875 
Q 17.484375 14.15625 20.5 10.265625 
Q 23.53125 6.390625 29.59375 6.390625 
Q 36.859375 6.390625 41.078125 11.03125 
Q 45.3125 15.671875 45.3125 23.6875 
L 45.3125 54.6875 
L 54.296875 54.6875 
L 54.296875 0 
L 45.3125 0 
L 45.3125 8.40625 
Q 42.046875 3.421875 37.71875 1 
Q 33.40625 -1.421875 27.6875 -1.421875 
Q 18.265625 -1.421875 13.375 4.4375 
Q 8.5 10.296875 8.5 21.578125 
z
M 31.109375 56 
z
" id="DejaVuSans-117"/>
      <path d="M 30.609375 48.390625 
Q 23.390625 48.390625 19.1875 42.75 
Q 14.984375 37.109375 14.984375 27.296875 
Q 14.984375 17.484375 19.15625 11.84375 
Q 23.34375 6.203125 30.609375 6.203125 
Q 37.796875 6.203125 41.984375 11.859375 
Q 46.1875 17.53125 46.1875 27.296875 
Q 46.1875 37.015625 41.984375 42.703125 
Q 37.796875 48.390625 30.609375 48.390625 
z
M 30.609375 56 
Q 42.328125 56 49.015625 48.375 
Q 55.71875 40.765625 55.71875 27.296875 
Q 55.71875 13.875 49.015625 6.21875 
Q 42.328125 -1.421875 30.609375 -1.421875 
Q 18.84375 -1.421875 12.171875 6.21875 
Q 5.515625 13.875 5.515625 27.296875 
Q 5.515625 40.765625 12.171875 48.375 
Q 18.84375 56 30.609375 56 
z
" id="DejaVuSans-111"/>
      <path d="M 54.890625 33.015625 
L 54.890625 0 
L 45.90625 0 
L 45.90625 32.71875 
Q 45.90625 40.484375 42.875 44.328125 
Q 39.84375 48.1875 33.796875 48.1875 
Q 26.515625 48.1875 22.3125 43.546875 
Q 18.109375 38.921875 18.109375 30.90625 
L 18.109375 0 
L 9.078125 0 
L 9.078125 54.6875 
L 18.109375 54.6875 
L 18.109375 46.1875 
Q 21.34375 51.125 25.703125 53.5625 
Q 30.078125 56 35.796875 56 
Q 45.21875 56 50.046875 50.171875 
Q 54.890625 44.34375 54.890625 33.015625 
z
" id="DejaVuSans-110"/>
      <path id="DejaVuSans-32"/>
      <path d="M 37.109375 75.984375 
L 37.109375 68.5 
L 28.515625 68.5 
Q 23.6875 68.5 21.796875 66.546875 
Q 19.921875 64.59375 19.921875 59.515625 
L 19.921875 54.6875 
L 34.71875 54.6875 
L 34.71875 47.703125 
L 19.921875 47.703125 
L 19.921875 0 
L 10.890625 0 
L 10.890625 47.703125 
L 2.296875 47.703125 
L 2.296875 54.6875 
L 10.890625 54.6875 
L 10.890625 58.5 
Q 10.890625 67.625 15.140625 71.796875 
Q 19.390625 75.984375 28.609375 75.984375 
z
" id="DejaVuSans-102"/>
      <path d="M 48.78125 52.59375 
L 48.78125 44.1875 
Q 44.96875 46.296875 41.140625 47.34375 
Q 37.3125 48.390625 33.40625 48.390625 
Q 24.65625 48.390625 19.8125 42.84375 
Q 14.984375 37.3125 14.984375 27.296875 
Q 14.984375 17.28125 19.8125 11.734375 
Q 24.65625 6.203125 33.40625 6.203125 
Q 37.3125 6.203125 41.140625 7.25 
Q 44.96875 8.296875 48.78125 10.40625 
L 48.78125 2.09375 
Q 45.015625 0.34375 40.984375 -0.53125 
Q 36.96875 -1.421875 32.421875 -1.421875 
Q 20.0625 -1.421875 12.78125 6.34375 
Q 5.515625 14.109375 5.515625 27.296875 
Q 5.515625 40.671875 12.859375 48.328125 
Q 20.21875 56 33.015625 56 
Q 37.15625 56 41.109375 55.140625 
Q 45.0625 54.296875 48.78125 52.59375 
z
" id="DejaVuSans-99"/>
      <path d="M 18.109375 8.203125 
L 18.109375 -20.796875 
L 9.078125 -20.796875 
L 9.078125 54.6875 
L 18.109375 54.6875 
L 18.109375 46.390625 
Q 20.953125 51.265625 25.265625 53.625 
Q 29.59375 56 35.59375 56 
Q 45.5625 56 51.78125 48.09375 
Q 58.015625 40.1875 58.015625 27.296875 
Q 58.015625 14.40625 51.78125 6.484375 
Q 45.5625 -1.421875 35.59375 -1.421875 
Q 29.59375 -1.421875 25.265625 0.953125 
Q 20.953125 3.328125 18.109375 8.203125 
z
M 48.6875 27.296875 
Q 48.6875 37.203125 44.609375 42.84375 
Q 40.53125 48.484375 33.40625 48.484375 
Q 26.265625 48.484375 22.1875 42.84375 
Q 18.109375 37.203125 18.109375 27.296875 
Q 18.109375 17.390625 22.1875 11.75 
Q 26.265625 6.109375 33.40625 6.109375 
Q 40.53125 6.109375 44.609375 11.75 
Q 48.6875 17.390625 48.6875 27.296875 
z
" id="DejaVuSans-112"/>
      <path d="M 9.421875 75.984375 
L 18.40625 75.984375 
L 18.40625 0 
L 9.421875 0 
z
" id="DejaVuSans-108"/>
      <path d="M 19.671875 64.796875 
L 19.671875 37.40625 
L 32.078125 37.40625 
Q 38.96875 37.40625 42.71875 40.96875 
Q 46.484375 44.53125 46.484375 51.125 
Q 46.484375 57.671875 42.71875 61.234375 
Q 38.96875 64.796875 32.078125 64.796875 
z
M 9.8125 72.90625 
L 32.078125 72.90625 
Q 44.34375 72.90625 50.609375 67.359375 
Q 56.890625 61.8125 56.890625 51.125 
Q 56.890625 40.328125 50.609375 34.8125 
Q 44.34375 29.296875 32.078125 29.296875 
L 19.671875 29.296875 
L 19.671875 0 
L 9.8125 0 
z
" id="DejaVuSans-80"/>
      <path d="M 59.515625 10.40625 
L 59.515625 29.984375 
L 43.40625 29.984375 
L 43.40625 38.09375 
L 69.28125 38.09375 
L 69.28125 6.78125 
Q 63.578125 2.734375 56.6875 0.65625 
Q 49.8125 -1.421875 42 -1.421875 
Q 24.90625 -1.421875 15.25 8.5625 
Q 5.609375 18.5625 5.609375 36.375 
Q 5.609375 54.25 15.25 64.234375 
Q 24.90625 74.21875 42 74.21875 
Q 49.125 74.21875 55.546875 72.453125 
Q 61.96875 70.703125 67.390625 67.28125 
L 67.390625 56.78125 
Q 61.921875 61.421875 55.765625 63.765625 
Q 49.609375 66.109375 42.828125 66.109375 
Q 29.4375 66.109375 22.71875 58.640625 
Q 16.015625 51.171875 16.015625 36.375 
Q 16.015625 21.625 22.71875 14.15625 
Q 29.4375 6.6875 42.828125 6.6875 
Q 48.046875 6.6875 52.140625 7.59375 
Q 56.25 8.5 59.515625 10.40625 
z
" id="DejaVuSans-71"/>
      <path d="M 54.890625 33.015625 
L 54.890625 0 
L 45.90625 0 
L 45.90625 32.71875 
Q 45.90625 40.484375 42.875 44.328125 
Q 39.84375 48.1875 33.796875 48.1875 
Q 26.515625 48.1875 22.3125 43.546875 
Q 18.109375 38.921875 18.109375 30.90625 
L 18.109375 0 
L 9.078125 0 
L 9.078125 75.984375 
L 18.109375 75.984375 
L 18.109375 46.1875 
Q 21.34375 51.125 25.703125 53.5625 
Q 30.078125 56 35.796875 56 
Q 45.21875 56 50.046875 50.171875 
Q 54.890625 44.34375 54.890625 33.015625 
z
" id="DejaVuSans-104"/>
      <path d="M 11.71875 12.40625 
L 22.015625 12.40625 
L 22.015625 4 
L 14.015625 -11.625 
L 7.71875 -11.625 
L 11.71875 4 
z
" id="DejaVuSans-44"/>
      <path d="M 16.75 30.609375 
Q 17.09375 27 20.171875 21.140625 
Q 23.78125 14.359375 30.609375 10.546875 
Q 37.3125 6.84375 44.53125 6.78125 
L 78.5625 6.78125 
L 78.5625 -0.984375 
L 44.53125 -0.984375 
Q 35.15625 -0.984375 26.484375 3.84375 
Q 17.828125 8.6875 13.1875 17.28125 
Q 8.546875 25.875 8.546875 35.015625 
Q 8.546875 44.046875 13.1875 52.640625 
Q 17.828125 61.234375 26.484375 66.109375 
Q 35.15625 71 44.53125 71 
L 78.5625 71 
L 78.5625 63.234375 
L 44.53125 63.234375 
Q 37.3125 63.1875 30.609375 59.421875 
Q 23.828125 55.5625 20.171875 48.828125 
Q 17.046875 42.96875 16.609375 38.421875 
L 78.5625 38.421875 
L 78.5625 30.609375 
z
" id="DejaVuSans-8712"/>
      <path d="M 8.203125 72.90625 
L 55.078125 72.90625 
L 55.078125 68.703125 
L 28.609375 0 
L 18.3125 0 
L 43.21875 64.59375 
L 8.203125 64.59375 
z
" id="DejaVuSans-55"/>
      <path d="M 10.796875 72.90625 
L 49.515625 72.90625 
L 49.515625 64.59375 
L 19.828125 64.59375 
L 19.828125 46.734375 
Q 21.96875 47.46875 24.109375 47.828125 
Q 26.265625 48.1875 28.421875 48.1875 
Q 40.625 48.1875 47.75 41.5 
Q 54.890625 34.8125 54.890625 23.390625 
Q 54.890625 11.625 47.5625 5.09375 
Q 40.234375 -1.421875 26.90625 -1.421875 
Q 22.3125 -1.421875 17.546875 -0.640625 
Q 12.796875 0.140625 7.71875 1.703125 
L 7.71875 11.625 
Q 12.109375 9.234375 16.796875 8.0625 
Q 21.484375 6.890625 26.703125 6.890625 
Q 35.15625 6.890625 40.078125 11.328125 
Q 45.015625 15.765625 45.015625 23.390625 
Q 45.015625 31 40.078125 35.4375 
Q 35.15625 39.890625 26.703125 39.890625 
Q 22.75 39.890625 18.8125 39.015625 
Q 14.890625 38.140625 10.796875 36.28125 
z
" id="DejaVuSans-53"/>
     </defs>
     <use transform="translate(0 0.015625)" xlink:href="#DejaVuSans-68"/>
     <use transform="translate(77.001953 0.015625)" xlink:href="#DejaVuSans-105"/>
     <use transform="translate(104.785156 0.015625)" xlink:href="#DejaVuSans-115"/>
     <use transform="translate(156.884766 0.015625)" xlink:href="#DejaVuSans-116"/>
     <use transform="translate(196.09375 0.015625)" xlink:href="#DejaVuSans-114"/>
     <use transform="translate(237.207031 0.015625)" xlink:href="#DejaVuSans-105"/>
     <use transform="translate(264.990234 0.015625)" xlink:href="#DejaVuSans-98"/>
     <use transform="translate(328.466797 0.015625)" xlink:href="#DejaVuSans-117"/>
     <use transform="translate(391.845703 0.015625)" xlink:href="#DejaVuSans-116"/>
     <use transform="translate(431.054688 0.015625)" xlink:href="#DejaVuSans-105"/>
     <use transform="translate(458.837891 0.015625)" xlink:href="#DejaVuSans-111"/>
     <use transform="translate(520.019531 0.015625)" xlink:href="#DejaVuSans-110"/>
     <use transform="translate(583.398438 0.015625)" xlink:href="#DejaVuSans-32"/>
     <use transform="translate(615.185547 0.015625)" xlink:href="#DejaVuSans-102"/>
     <use transform="translate(650.390625 0.015625)" xlink:href="#DejaVuSans-117"/>
     <use transform="translate(713.769531 0.015625)" xlink:href="#DejaVuSans-110"/>
     <use transform="translate(777.148438 0.015625)" xlink:href="#DejaVuSans-99"/>
     <use transform="translate(832.128906 0.015625)" xlink:href="#DejaVuSans-116"/>
     <use transform="translate(871.337891 0.015625)" xlink:href="#DejaVuSans-105"/>
     <use transform="translate(899.121094 0.015625)" xlink:href="#DejaVuSans-111"/>
     <use transform="translate(960.302734 0.015625)" xlink:href="#DejaVuSans-110"/>
     <use transform="translate(1023.681641 0.015625)" xlink:href="#DejaVuSans-32"/>
     <use transform="translate(1055.46875 0.015625)" xlink:href="#DejaVuSans-112"/>
     <use transform="translate(1118.945312 0.015625)" xlink:href="#DejaVuSans-108"/>
     <use transform="translate(1146.728516 0.015625)" xlink:href="#DejaVuSans-111"/>
     <use transform="translate(1207.910156 0.015625)" xlink:href="#DejaVuSans-116"/>
     <use transform="translate(1247.119141 0.015625)" xlink:href="#DejaVuSans-32"/>
     <use transform="translate(1278.90625 0.015625)" xlink:href="#DejaVuSans-111"/>
     <use transform="translate(1340.087891 0.015625)" xlink:href="#DejaVuSans-102"/>
     <use transform="translate(1375.292969 0.015625)" xlink:href="#DejaVuSans-32"/>
     <use transform="translate(1407.080078 0.015625)" xlink:href="#DejaVuSans-80"/>
     <use transform="translate(1467.382812 0.015625)" xlink:href="#DejaVuSans-71"/>
     <use transform="translate(1544.873047 0.015625)" xlink:href="#DejaVuSans-40"/>
     <use transform="translate(1583.886719 0.015625)" xlink:href="#DejaVuSans-104"/>
     <use transform="translate(1647.265625 0.015625)" xlink:href="#DejaVuSans-44"/>
     <use transform="translate(1679.052734 0.015625)" xlink:href="#DejaVuSans-32"/>
     <use transform="translate(1710.839844 0.015625)" xlink:href="#DejaVuSans-48"/>
     <use transform="translate(1774.462891 0.015625)" xlink:href="#DejaVuSans-41"/>
     <use transform="translate(1813.476562 0.015625)" xlink:href="#DejaVuSans-32"/>
     <use transform="translate(1845.263672 0.015625)" xlink:href="#DejaVuSans-102"/>
     <use transform="translate(1880.46875 0.015625)" xlink:href="#DejaVuSans-111"/>
     <use transform="translate(1941.650391 0.015625)" xlink:href="#DejaVuSans-114"/>
     <use transform="translate(1982.763672 0.015625)" xlink:href="#DejaVuSans-32"/>
     <use transform="translate(2014.550781 0.015625)" xlink:href="#DejaVuSans-104"/>
     <use transform="translate(2077.929688 0.015625)" xlink:href="#DejaVuSans-32"/>
     <use transform="translate(2129.199219 0.015625)" xlink:href="#DejaVuSans-8712"/>
     <use transform="translate(2235.791016 0.015625)" xlink:href="#DejaVuSans-32"/>
     <use transform="translate(2267.578125 0.015625)" xlink:href="#DejaVuSans-40"/>
     <use transform="translate(2306.591797 0.015625)" xlink:href="#DejaVuSans-49"/>
     <use transform="translate(2370.214844 0.015625)" xlink:href="#DejaVuSans-44"/>
     <use transform="translate(2402.001953 0.015625)" xlink:href="#DejaVuSans-32"/>
     <use transform="translate(2433.789062 0.015625)" xlink:href="#DejaVuSans-52"/>
     <use transform="translate(2497.412109 0.015625)" xlink:href="#DejaVuSans-44"/>
     <use transform="translate(2529.199219 0.015625)" xlink:href="#DejaVuSans-32"/>
     <use transform="translate(2560.986328 0.015625)" xlink:href="#DejaVuSans-55"/>
     <use transform="translate(2624.609375 0.015625)" xlink:href="#DejaVuSans-44"/>
     <use transform="translate(2656.396484 0.015625)" xlink:href="#DejaVuSans-32"/>
     <use transform="translate(2688.183594 0.015625)" xlink:href="#DejaVuSans-49"/>
     <use transform="translate(2751.806641 0.015625)" xlink:href="#DejaVuSans-48"/>
     <use transform="translate(2815.429688 0.015625)" xlink:href="#DejaVuSans-44"/>
     <use transform="translate(2847.216797 0.015625)" xlink:href="#DejaVuSans-32"/>
     <use transform="translate(2879.003906 0.015625)" xlink:href="#DejaVuSans-49"/>
     <use transform="translate(2942.626953 0.015625)" xlink:href="#DejaVuSans-53"/>
     <use transform="translate(3006.25 0.015625)" xlink:href="#DejaVuSans-44"/>
     <use transform="translate(3038.037109 0.015625)" xlink:href="#DejaVuSans-32"/>
     <use transform="translate(3069.824219 0.015625)" xlink:href="#DejaVuSans-50"/>
     <use transform="translate(3133.447266 0.015625)" xlink:href="#DejaVuSans-53"/>
     <use transform="translate(3197.070312 0.015625)" xlink:href="#DejaVuSans-41"/>
     <use transform="translate(3236.083984 0.015625)" xlink:href="#DejaVuSans-46"/>
    </g>
   </g>
   <g id="legend_1">
    <g id="patch_7">
     <path d="M 328.695 137.54075 
L 407.72 137.54075 
Q 409.72 137.54075 409.72 135.54075 
L 409.72 48.472 
Q 409.72 46.472 407.72 46.472 
L 328.695 46.472 
Q 326.695 46.472 326.695 48.472 
L 326.695 135.54075 
Q 326.695 137.54075 328.695 137.54075 
z
" style="fill:#eaeaf2;opacity:0.8;stroke:#cccccc;stroke-linejoin:miter;"/>
    </g>
    <g id="line2d_20">
     <path d="M 330.695 54.570438 
L 350.695 54.570438 
" style="fill:none;stroke:#1f77b4;stroke-linecap:round;stroke-width:1.5;"/>
    </g>
    <g id="line2d_21"/>
    <g id="text_17">
     <!-- PG(1, 0) -->
     <g style="fill:#262626;" transform="translate(358.695 58.070438)scale(0.1 -0.1)">
      <use xlink:href="#DejaVuSans-80"/>
      <use x="60.302734" xlink:href="#DejaVuSans-71"/>
      <use x="137.792969" xlink:href="#DejaVuSans-40"/>
      <use x="176.806641" xlink:href="#DejaVuSans-49"/>
      <use x="240.429688" xlink:href="#DejaVuSans-44"/>
      <use x="272.216797" xlink:href="#DejaVuSans-32"/>
      <use x="304.003906" xlink:href="#DejaVuSans-48"/>
      <use x="367.626953" xlink:href="#DejaVuSans-41"/>
     </g>
    </g>
    <g id="line2d_22">
     <path d="M 330.695 69.248563 
L 350.695 69.248563 
" style="fill:none;stroke:#ff7f0e;stroke-linecap:round;stroke-width:1.5;"/>
    </g>
    <g id="line2d_23"/>
    <g id="text_18">
     <!-- PG(4, 0) -->
     <g style="fill:#262626;" transform="translate(358.695 72.748563)scale(0.1 -0.1)">
      <use xlink:href="#DejaVuSans-80"/>
      <use x="60.302734" xlink:href="#DejaVuSans-71"/>
      <use x="137.792969" xlink:href="#DejaVuSans-40"/>
      <use x="176.806641" xlink:href="#DejaVuSans-52"/>
      <use x="240.429688" xlink:href="#DejaVuSans-44"/>
      <use x="272.216797" xlink:href="#DejaVuSans-32"/>
      <use x="304.003906" xlink:href="#DejaVuSans-48"/>
      <use x="367.626953" xlink:href="#DejaVuSans-41"/>
     </g>
    </g>
    <g id="line2d_24">
     <path d="M 330.695 83.926688 
L 350.695 83.926688 
" style="fill:none;stroke:#2ca02c;stroke-linecap:round;stroke-width:1.5;"/>
    </g>
    <g id="line2d_25"/>
    <g id="text_19">
     <!-- PG(7, 0) -->
     <g style="fill:#262626;" transform="translate(358.695 87.426688)scale(0.1 -0.1)">
      <use xlink:href="#DejaVuSans-80"/>
      <use x="60.302734" xlink:href="#DejaVuSans-71"/>
      <use x="137.792969" xlink:href="#DejaVuSans-40"/>
      <use x="176.806641" xlink:href="#DejaVuSans-55"/>
      <use x="240.429688" xlink:href="#DejaVuSans-44"/>
      <use x="272.216797" xlink:href="#DejaVuSans-32"/>
      <use x="304.003906" xlink:href="#DejaVuSans-48"/>
      <use x="367.626953" xlink:href="#DejaVuSans-41"/>
     </g>
    </g>
    <g id="line2d_26">
     <path d="M 330.695 98.604813 
L 350.695 98.604813 
" style="fill:none;stroke:#d62728;stroke-linecap:round;stroke-width:1.5;"/>
    </g>
    <g id="line2d_27"/>
    <g id="text_20">
     <!-- PG(10, 0) -->
     <g style="fill:#262626;" transform="translate(358.695 102.104813)scale(0.1 -0.1)">
      <use xlink:href="#DejaVuSans-80"/>
      <use x="60.302734" xlink:href="#DejaVuSans-71"/>
      <use x="137.792969" xlink:href="#DejaVuSans-40"/>
      <use x="176.806641" xlink:href="#DejaVuSans-49"/>
      <use x="240.429688" xlink:href="#DejaVuSans-48"/>
      <use x="304.052734" xlink:href="#DejaVuSans-44"/>
      <use x="335.839844" xlink:href="#DejaVuSans-32"/>
      <use x="367.626953" xlink:href="#DejaVuSans-48"/>
      <use x="431.25" xlink:href="#DejaVuSans-41"/>
     </g>
    </g>
    <g id="line2d_28">
     <path d="M 330.695 113.282938 
L 350.695 113.282938 
" style="fill:none;stroke:#9467bd;stroke-linecap:round;stroke-width:1.5;"/>
    </g>
    <g id="line2d_29"/>
    <g id="text_21">
     <!-- PG(15, 0) -->
     <g style="fill:#262626;" transform="translate(358.695 116.782938)scale(0.1 -0.1)">
      <use xlink:href="#DejaVuSans-80"/>
      <use x="60.302734" xlink:href="#DejaVuSans-71"/>
      <use x="137.792969" xlink:href="#DejaVuSans-40"/>
      <use x="176.806641" xlink:href="#DejaVuSans-49"/>
      <use x="240.429688" xlink:href="#DejaVuSans-53"/>
      <use x="304.052734" xlink:href="#DejaVuSans-44"/>
      <use x="335.839844" xlink:href="#DejaVuSans-32"/>
      <use x="367.626953" xlink:href="#DejaVuSans-48"/>
      <use x="431.25" xlink:href="#DejaVuSans-41"/>
     </g>
    </g>
    <g id="line2d_30">
     <path d="M 330.695 127.961063 
L 350.695 127.961063 
" style="fill:none;stroke:#8c564b;stroke-linecap:round;stroke-width:1.5;"/>
    </g>
    <g id="line2d_31"/>
    <g id="text_22">
     <!-- PG(25, 0) -->
     <g style="fill:#262626;" transform="translate(358.695 131.461063)scale(0.1 -0.1)">
      <use xlink:href="#DejaVuSans-80"/>
      <use x="60.302734" xlink:href="#DejaVuSans-71"/>
      <use x="137.792969" xlink:href="#DejaVuSans-40"/>
      <use x="176.806641" xlink:href="#DejaVuSans-50"/>
      <use x="240.429688" xlink:href="#DejaVuSans-53"/>
      <use x="304.052734" xlink:href="#DejaVuSans-44"/>
      <use x="335.839844" xlink:href="#DejaVuSans-32"/>
      <use x="367.626953" xlink:href="#DejaVuSans-48"/>
      <use x="431.25" xlink:href="#DejaVuSans-41"/>
     </g>
    </g>
   </g>
  </g>
 </g>
 <defs>
  <clipPath id="p9b3ffbff54">
   <rect height="266.112" width="357.12" x="57.6" y="41.472"/>
  </clipPath>
 </defs>
</svg>
