<?xml version="1.0" encoding="utf-8" standalone="no"?>
<!DOCTYPE svg PUBLIC "-//W3C//DTD SVG 1.1//EN"
  "http://www.w3.org/Graphics/SVG/1.1/DTD/svg11.dtd">
<!-- Created with matplotlib (https://matplotlib.org/) -->
<svg height="353.17075pt" version="1.1" viewBox="0 0 521.827575 353.17075" width="521.827575pt" xmlns="http://www.w3.org/2000/svg" xmlns:xlink="http://www.w3.org/1999/xlink">
 <metadata>
  <rdf:RDF xmlns:cc="http://creativecommons.org/ns#" xmlns:dc="http://purl.org/dc/elements/1.1/" xmlns:rdf="http://www.w3.org/1999/02/22-rdf-syntax-ns#">
   <cc:Work>
    <dc:type rdf:resource="http://purl.org/dc/dcmitype/StillImage"/>
    <dc:date>2021-04-15T18:24:09.131984</dc:date>
    <dc:format>image/svg+xml</dc:format>
    <dc:creator>
     <cc:Agent>
      <dc:title>Matplotlib v3.3.3, https://matplotlib.org/</dc:title>
     </cc:Agent>
    </dc:creator>
   </cc:Work>
  </rdf:RDF>
 </metadata>
 <defs>
  <style type="text/css">*{stroke-linecap:butt;stroke-linejoin:round;}</style>
 </defs>
 <g id="figure_1">
  <g id="patch_1">
   <path d="M 0 353.17075 
L 521.827575 353.17075 
L 521.827575 -0 
L 0 -0 
z
" style="fill:none;"/>
  </g>
  <g id="axes_1">
   <g id="patch_2">
    <path d="M 90.299813 307.872 
L 447.419813 307.872 
L 447.419813 41.76 
L 90.299813 41.76 
z
" style="fill:none;"/>
   </g>
   <g id="matplotlib.axis_1">
    <g id="xtick_1">
     <g id="line2d_1">
      <defs>
       <path d="M 0 0 
L 0 3.5 
" id="m470f544d71" style="stroke:#969696;stroke-width:0.4;"/>
      </defs>
      <g>
       <use style="fill:#969696;stroke:#969696;stroke-width:0.4;" x="145.714985" xlink:href="#m470f544d71" y="307.872"/>
      </g>
     </g>
     <g id="text_1">
      <!-- 10 -->
      <g style="fill:#969696;" transform="translate(136.807485 325.509812)scale(0.14 -0.14)">
       <defs>
        <path d="M 12.40625 8.296875 
L 28.515625 8.296875 
L 28.515625 63.921875 
L 10.984375 60.40625 
L 10.984375 69.390625 
L 28.421875 72.90625 
L 38.28125 72.90625 
L 38.28125 8.296875 
L 54.390625 8.296875 
L 54.390625 0 
L 12.40625 0 
z
" id="DejaVuSans-49"/>
        <path d="M 31.78125 66.40625 
Q 24.171875 66.40625 20.328125 58.90625 
Q 16.5 51.421875 16.5 36.375 
Q 16.5 21.390625 20.328125 13.890625 
Q 24.171875 6.390625 31.78125 6.390625 
Q 39.453125 6.390625 43.28125 13.890625 
Q 47.125 21.390625 47.125 36.375 
Q 47.125 51.421875 43.28125 58.90625 
Q 39.453125 66.40625 31.78125 66.40625 
z
M 31.78125 74.21875 
Q 44.046875 74.21875 50.515625 64.515625 
Q 56.984375 54.828125 56.984375 36.375 
Q 56.984375 17.96875 50.515625 8.265625 
Q 44.046875 -1.421875 31.78125 -1.421875 
Q 19.53125 -1.421875 13.0625 8.265625 
Q 6.59375 17.96875 6.59375 36.375 
Q 6.59375 54.828125 13.0625 64.515625 
Q 19.53125 74.21875 31.78125 74.21875 
z
" id="DejaVuSans-48"/>
       </defs>
       <use xlink:href="#DejaVuSans-49"/>
       <use x="63.623047" xlink:href="#DejaVuSans-48"/>
      </g>
     </g>
    </g>
    <g id="xtick_2">
     <g id="line2d_2">
      <g>
       <use style="fill:#969696;stroke:#969696;stroke-width:0.4;" x="207.287399" xlink:href="#m470f544d71" y="307.872"/>
      </g>
     </g>
     <g id="text_2">
      <!-- 20 -->
      <g style="fill:#969696;" transform="translate(198.379899 325.509812)scale(0.14 -0.14)">
       <defs>
        <path d="M 19.1875 8.296875 
L 53.609375 8.296875 
L 53.609375 0 
L 7.328125 0 
L 7.328125 8.296875 
Q 12.9375 14.109375 22.625 23.890625 
Q 32.328125 33.6875 34.8125 36.53125 
Q 39.546875 41.84375 41.421875 45.53125 
Q 43.3125 49.21875 43.3125 52.78125 
Q 43.3125 58.59375 39.234375 62.25 
Q 35.15625 65.921875 28.609375 65.921875 
Q 23.96875 65.921875 18.8125 64.3125 
Q 13.671875 62.703125 7.8125 59.421875 
L 7.8125 69.390625 
Q 13.765625 71.78125 18.9375 73 
Q 24.125 74.21875 28.421875 74.21875 
Q 39.75 74.21875 46.484375 68.546875 
Q 53.21875 62.890625 53.21875 53.421875 
Q 53.21875 48.921875 51.53125 44.890625 
Q 49.859375 40.875 45.40625 35.40625 
Q 44.1875 33.984375 37.640625 27.21875 
Q 31.109375 20.453125 19.1875 8.296875 
z
" id="DejaVuSans-50"/>
       </defs>
       <use xlink:href="#DejaVuSans-50"/>
       <use x="63.623047" xlink:href="#DejaVuSans-48"/>
      </g>
     </g>
    </g>
    <g id="xtick_3">
     <g id="line2d_3">
      <g>
       <use style="fill:#969696;stroke:#969696;stroke-width:0.4;" x="268.859812" xlink:href="#m470f544d71" y="307.872"/>
      </g>
     </g>
     <g id="text_3">
      <!-- 30 -->
      <g style="fill:#969696;" transform="translate(259.952312 325.509812)scale(0.14 -0.14)">
       <defs>
        <path d="M 40.578125 39.3125 
Q 47.65625 37.796875 51.625 33 
Q 55.609375 28.21875 55.609375 21.1875 
Q 55.609375 10.40625 48.1875 4.484375 
Q 40.765625 -1.421875 27.09375 -1.421875 
Q 22.515625 -1.421875 17.65625 -0.515625 
Q 12.796875 0.390625 7.625 2.203125 
L 7.625 11.71875 
Q 11.71875 9.328125 16.59375 8.109375 
Q 21.484375 6.890625 26.8125 6.890625 
Q 36.078125 6.890625 40.9375 10.546875 
Q 45.796875 14.203125 45.796875 21.1875 
Q 45.796875 27.640625 41.28125 31.265625 
Q 36.765625 34.90625 28.71875 34.90625 
L 20.21875 34.90625 
L 20.21875 43.015625 
L 29.109375 43.015625 
Q 36.375 43.015625 40.234375 45.921875 
Q 44.09375 48.828125 44.09375 54.296875 
Q 44.09375 59.90625 40.109375 62.90625 
Q 36.140625 65.921875 28.71875 65.921875 
Q 24.65625 65.921875 20.015625 65.03125 
Q 15.375 64.15625 9.8125 62.3125 
L 9.8125 71.09375 
Q 15.4375 72.65625 20.34375 73.4375 
Q 25.25 74.21875 29.59375 74.21875 
Q 40.828125 74.21875 47.359375 69.109375 
Q 53.90625 64.015625 53.90625 55.328125 
Q 53.90625 49.265625 50.4375 45.09375 
Q 46.96875 40.921875 40.578125 39.3125 
z
" id="DejaVuSans-51"/>
       </defs>
       <use xlink:href="#DejaVuSans-51"/>
       <use x="63.623047" xlink:href="#DejaVuSans-48"/>
      </g>
     </g>
    </g>
    <g id="xtick_4">
     <g id="line2d_4">
      <g>
       <use style="fill:#969696;stroke:#969696;stroke-width:0.4;" x="330.432226" xlink:href="#m470f544d71" y="307.872"/>
      </g>
     </g>
     <g id="text_4">
      <!-- 40 -->
      <g style="fill:#969696;" transform="translate(321.524726 325.509812)scale(0.14 -0.14)">
       <defs>
        <path d="M 37.796875 64.3125 
L 12.890625 25.390625 
L 37.796875 25.390625 
z
M 35.203125 72.90625 
L 47.609375 72.90625 
L 47.609375 25.390625 
L 58.015625 25.390625 
L 58.015625 17.1875 
L 47.609375 17.1875 
L 47.609375 0 
L 37.796875 0 
L 37.796875 17.1875 
L 4.890625 17.1875 
L 4.890625 26.703125 
z
" id="DejaVuSans-52"/>
       </defs>
       <use xlink:href="#DejaVuSans-52"/>
       <use x="63.623047" xlink:href="#DejaVuSans-48"/>
      </g>
     </g>
    </g>
    <g id="xtick_5">
     <g id="line2d_5">
      <g>
       <use style="fill:#969696;stroke:#969696;stroke-width:0.4;" x="392.00464" xlink:href="#m470f544d71" y="307.872"/>
      </g>
     </g>
     <g id="text_5">
      <!-- 50 -->
      <g style="fill:#969696;" transform="translate(383.09714 325.509812)scale(0.14 -0.14)">
       <defs>
        <path d="M 10.796875 72.90625 
L 49.515625 72.90625 
L 49.515625 64.59375 
L 19.828125 64.59375 
L 19.828125 46.734375 
Q 21.96875 47.46875 24.109375 47.828125 
Q 26.265625 48.1875 28.421875 48.1875 
Q 40.625 48.1875 47.75 41.5 
Q 54.890625 34.8125 54.890625 23.390625 
Q 54.890625 11.625 47.5625 5.09375 
Q 40.234375 -1.421875 26.90625 -1.421875 
Q 22.3125 -1.421875 17.546875 -0.640625 
Q 12.796875 0.140625 7.71875 1.703125 
L 7.71875 11.625 
Q 12.109375 9.234375 16.796875 8.0625 
Q 21.484375 6.890625 26.703125 6.890625 
Q 35.15625 6.890625 40.078125 11.328125 
Q 45.015625 15.765625 45.015625 23.390625 
Q 45.015625 31 40.078125 35.4375 
Q 35.15625 39.890625 26.703125 39.890625 
Q 22.75 39.890625 18.8125 39.015625 
Q 14.890625 38.140625 10.796875 36.28125 
z
" id="DejaVuSans-53"/>
       </defs>
       <use xlink:href="#DejaVuSans-53"/>
       <use x="63.623047" xlink:href="#DejaVuSans-48"/>
      </g>
     </g>
    </g>
    <g id="text_6">
     <!-- value of $h$ -->
     <g style="fill:#969696;" transform="translate(234.069812 343.059187)scale(0.14 -0.14)">
      <defs>
       <path d="M 2.984375 54.6875 
L 12.5 54.6875 
L 29.59375 8.796875 
L 46.6875 54.6875 
L 56.203125 54.6875 
L 35.6875 0 
L 23.484375 0 
z
" id="DejaVuSans-118"/>
       <path d="M 34.28125 27.484375 
Q 23.390625 27.484375 19.1875 25 
Q 14.984375 22.515625 14.984375 16.5 
Q 14.984375 11.71875 18.140625 8.90625 
Q 21.296875 6.109375 26.703125 6.109375 
Q 34.1875 6.109375 38.703125 11.40625 
Q 43.21875 16.703125 43.21875 25.484375 
L 43.21875 27.484375 
z
M 52.203125 31.203125 
L 52.203125 0 
L 43.21875 0 
L 43.21875 8.296875 
Q 40.140625 3.328125 35.546875 0.953125 
Q 30.953125 -1.421875 24.3125 -1.421875 
Q 15.921875 -1.421875 10.953125 3.296875 
Q 6 8.015625 6 15.921875 
Q 6 25.140625 12.171875 29.828125 
Q 18.359375 34.515625 30.609375 34.515625 
L 43.21875 34.515625 
L 43.21875 35.40625 
Q 43.21875 41.609375 39.140625 45 
Q 35.0625 48.390625 27.6875 48.390625 
Q 23 48.390625 18.546875 47.265625 
Q 14.109375 46.140625 10.015625 43.890625 
L 10.015625 52.203125 
Q 14.9375 54.109375 19.578125 55.046875 
Q 24.21875 56 28.609375 56 
Q 40.484375 56 46.34375 49.84375 
Q 52.203125 43.703125 52.203125 31.203125 
z
" id="DejaVuSans-97"/>
       <path d="M 9.421875 75.984375 
L 18.40625 75.984375 
L 18.40625 0 
L 9.421875 0 
z
" id="DejaVuSans-108"/>
       <path d="M 8.5 21.578125 
L 8.5 54.6875 
L 17.484375 54.6875 
L 17.484375 21.921875 
Q 17.484375 14.15625 20.5 10.265625 
Q 23.53125 6.390625 29.59375 6.390625 
Q 36.859375 6.390625 41.078125 11.03125 
Q 45.3125 15.671875 45.3125 23.6875 
L 45.3125 54.6875 
L 54.296875 54.6875 
L 54.296875 0 
L 45.3125 0 
L 45.3125 8.40625 
Q 42.046875 3.421875 37.71875 1 
Q 33.40625 -1.421875 27.6875 -1.421875 
Q 18.265625 -1.421875 13.375 4.4375 
Q 8.5 10.296875 8.5 21.578125 
z
M 31.109375 56 
z
" id="DejaVuSans-117"/>
       <path d="M 56.203125 29.59375 
L 56.203125 25.203125 
L 14.890625 25.203125 
Q 15.484375 15.921875 20.484375 11.0625 
Q 25.484375 6.203125 34.421875 6.203125 
Q 39.59375 6.203125 44.453125 7.46875 
Q 49.3125 8.734375 54.109375 11.28125 
L 54.109375 2.78125 
Q 49.265625 0.734375 44.1875 -0.34375 
Q 39.109375 -1.421875 33.890625 -1.421875 
Q 20.796875 -1.421875 13.15625 6.1875 
Q 5.515625 13.8125 5.515625 26.8125 
Q 5.515625 40.234375 12.765625 48.109375 
Q 20.015625 56 32.328125 56 
Q 43.359375 56 49.78125 48.890625 
Q 56.203125 41.796875 56.203125 29.59375 
z
M 47.21875 32.234375 
Q 47.125 39.59375 43.09375 43.984375 
Q 39.0625 48.390625 32.421875 48.390625 
Q 24.90625 48.390625 20.390625 44.140625 
Q 15.875 39.890625 15.1875 32.171875 
z
" id="DejaVuSans-101"/>
       <path id="DejaVuSans-32"/>
       <path d="M 30.609375 48.390625 
Q 23.390625 48.390625 19.1875 42.75 
Q 14.984375 37.109375 14.984375 27.296875 
Q 14.984375 17.484375 19.15625 11.84375 
Q 23.34375 6.203125 30.609375 6.203125 
Q 37.796875 6.203125 41.984375 11.859375 
Q 46.1875 17.53125 46.1875 27.296875 
Q 46.1875 37.015625 41.984375 42.703125 
Q 37.796875 48.390625 30.609375 48.390625 
z
M 30.609375 56 
Q 42.328125 56 49.015625 48.375 
Q 55.71875 40.765625 55.71875 27.296875 
Q 55.71875 13.875 49.015625 6.21875 
Q 42.328125 -1.421875 30.609375 -1.421875 
Q 18.84375 -1.421875 12.171875 6.21875 
Q 5.515625 13.875 5.515625 27.296875 
Q 5.515625 40.765625 12.171875 48.375 
Q 18.84375 56 30.609375 56 
z
" id="DejaVuSans-111"/>
       <path d="M 37.109375 75.984375 
L 37.109375 68.5 
L 28.515625 68.5 
Q 23.6875 68.5 21.796875 66.546875 
Q 19.921875 64.59375 19.921875 59.515625 
L 19.921875 54.6875 
L 34.71875 54.6875 
L 34.71875 47.703125 
L 19.921875 47.703125 
L 19.921875 0 
L 10.890625 0 
L 10.890625 47.703125 
L 2.296875 47.703125 
L 2.296875 54.6875 
L 10.890625 54.6875 
L 10.890625 58.5 
Q 10.890625 67.625 15.140625 71.796875 
Q 19.390625 75.984375 28.609375 75.984375 
z
" id="DejaVuSans-102"/>
       <path d="M 55.71875 33.015625 
L 49.3125 0 
L 40.28125 0 
L 46.6875 32.671875 
Q 47.125 34.96875 47.359375 36.71875 
Q 47.609375 38.484375 47.609375 39.5 
Q 47.609375 43.609375 45.015625 45.890625 
Q 42.4375 48.1875 37.796875 48.1875 
Q 30.5625 48.1875 25.265625 43.296875 
Q 19.96875 38.421875 18.40625 30.328125 
L 12.5 0 
L 3.515625 0 
L 18.3125 75.984375 
L 27.296875 75.984375 
L 21.484375 46.09375 
Q 24.90625 50.6875 30.21875 53.34375 
Q 35.546875 56 41.40625 56 
Q 48.640625 56 52.609375 52.09375 
Q 56.59375 48.1875 56.59375 41.109375 
Q 56.59375 39.359375 56.375 37.359375 
Q 56.15625 35.359375 55.71875 33.015625 
z
" id="DejaVuSans-Oblique-104"/>
      </defs>
      <use transform="translate(0 0.015625)" xlink:href="#DejaVuSans-118"/>
      <use transform="translate(59.179688 0.015625)" xlink:href="#DejaVuSans-97"/>
      <use transform="translate(120.458984 0.015625)" xlink:href="#DejaVuSans-108"/>
      <use transform="translate(148.242188 0.015625)" xlink:href="#DejaVuSans-117"/>
      <use transform="translate(211.621094 0.015625)" xlink:href="#DejaVuSans-101"/>
      <use transform="translate(273.144531 0.015625)" xlink:href="#DejaVuSans-32"/>
      <use transform="translate(304.931641 0.015625)" xlink:href="#DejaVuSans-111"/>
      <use transform="translate(366.113281 0.015625)" xlink:href="#DejaVuSans-102"/>
      <use transform="translate(401.318359 0.015625)" xlink:href="#DejaVuSans-32"/>
      <use transform="translate(433.105469 0.015625)" xlink:href="#DejaVuSans-Oblique-104"/>
     </g>
    </g>
   </g>
   <g id="matplotlib.axis_2">
    <g id="ytick_1">
     <g id="line2d_6">
      <path clip-path="url(#pcf53e9dfbc)" d="M 90.299813 280.854598 
L 447.419813 280.854598 
" style="fill:none;stroke:#969696;stroke-linecap:square;stroke-width:0.3;"/>
     </g>
     <g id="line2d_7">
      <defs>
       <path d="M 0 0 
L -3.5 0 
" id="mb491f75e84" style="stroke:#969696;stroke-width:0.3;"/>
      </defs>
      <g>
       <use style="fill:#969696;stroke:#969696;stroke-width:0.3;" x="90.299813" xlink:href="#mb491f75e84" y="280.854598"/>
      </g>
     </g>
     <g id="text_7">
      <!-- 20 -->
      <g style="fill:#969696;" transform="translate(65.484813 286.173504)scale(0.14 -0.14)">
       <use xlink:href="#DejaVuSans-50"/>
       <use x="63.623047" xlink:href="#DejaVuSans-48"/>
      </g>
     </g>
    </g>
    <g id="ytick_2">
     <g id="line2d_8">
      <path clip-path="url(#pcf53e9dfbc)" d="M 90.299813 247.043219 
L 447.419813 247.043219 
" style="fill:none;stroke:#969696;stroke-linecap:square;stroke-width:0.3;"/>
     </g>
     <g id="line2d_9">
      <g>
       <use style="fill:#969696;stroke:#969696;stroke-width:0.3;" x="90.299813" xlink:href="#mb491f75e84" y="247.043219"/>
      </g>
     </g>
     <g id="text_8">
      <!-- 40 -->
      <g style="fill:#969696;" transform="translate(65.484813 252.362125)scale(0.14 -0.14)">
       <use xlink:href="#DejaVuSans-52"/>
       <use x="63.623047" xlink:href="#DejaVuSans-48"/>
      </g>
     </g>
    </g>
    <g id="ytick_3">
     <g id="line2d_10">
      <path clip-path="url(#pcf53e9dfbc)" d="M 90.299813 213.23184 
L 447.419813 213.23184 
" style="fill:none;stroke:#969696;stroke-linecap:square;stroke-width:0.3;"/>
     </g>
     <g id="line2d_11">
      <g>
       <use style="fill:#969696;stroke:#969696;stroke-width:0.3;" x="90.299813" xlink:href="#mb491f75e84" y="213.23184"/>
      </g>
     </g>
     <g id="text_9">
      <!-- 60 -->
      <g style="fill:#969696;" transform="translate(65.484813 218.550746)scale(0.14 -0.14)">
       <defs>
        <path d="M 33.015625 40.375 
Q 26.375 40.375 22.484375 35.828125 
Q 18.609375 31.296875 18.609375 23.390625 
Q 18.609375 15.53125 22.484375 10.953125 
Q 26.375 6.390625 33.015625 6.390625 
Q 39.65625 6.390625 43.53125 10.953125 
Q 47.40625 15.53125 47.40625 23.390625 
Q 47.40625 31.296875 43.53125 35.828125 
Q 39.65625 40.375 33.015625 40.375 
z
M 52.59375 71.296875 
L 52.59375 62.3125 
Q 48.875 64.0625 45.09375 64.984375 
Q 41.3125 65.921875 37.59375 65.921875 
Q 27.828125 65.921875 22.671875 59.328125 
Q 17.53125 52.734375 16.796875 39.40625 
Q 19.671875 43.65625 24.015625 45.921875 
Q 28.375 48.1875 33.59375 48.1875 
Q 44.578125 48.1875 50.953125 41.515625 
Q 57.328125 34.859375 57.328125 23.390625 
Q 57.328125 12.15625 50.6875 5.359375 
Q 44.046875 -1.421875 33.015625 -1.421875 
Q 20.359375 -1.421875 13.671875 8.265625 
Q 6.984375 17.96875 6.984375 36.375 
Q 6.984375 53.65625 15.1875 63.9375 
Q 23.390625 74.21875 37.203125 74.21875 
Q 40.921875 74.21875 44.703125 73.484375 
Q 48.484375 72.75 52.59375 71.296875 
z
" id="DejaVuSans-54"/>
       </defs>
       <use xlink:href="#DejaVuSans-54"/>
       <use x="63.623047" xlink:href="#DejaVuSans-48"/>
      </g>
     </g>
    </g>
    <g id="ytick_4">
     <g id="line2d_12">
      <path clip-path="url(#pcf53e9dfbc)" d="M 90.299813 179.420461 
L 447.419813 179.420461 
" style="fill:none;stroke:#969696;stroke-linecap:square;stroke-width:0.3;"/>
     </g>
     <g id="line2d_13">
      <g>
       <use style="fill:#969696;stroke:#969696;stroke-width:0.3;" x="90.299813" xlink:href="#mb491f75e84" y="179.420461"/>
      </g>
     </g>
     <g id="text_10">
      <!-- 80 -->
      <g style="fill:#969696;" transform="translate(65.484813 184.739367)scale(0.14 -0.14)">
       <defs>
        <path d="M 31.78125 34.625 
Q 24.75 34.625 20.71875 30.859375 
Q 16.703125 27.09375 16.703125 20.515625 
Q 16.703125 13.921875 20.71875 10.15625 
Q 24.75 6.390625 31.78125 6.390625 
Q 38.8125 6.390625 42.859375 10.171875 
Q 46.921875 13.96875 46.921875 20.515625 
Q 46.921875 27.09375 42.890625 30.859375 
Q 38.875 34.625 31.78125 34.625 
z
M 21.921875 38.8125 
Q 15.578125 40.375 12.03125 44.71875 
Q 8.5 49.078125 8.5 55.328125 
Q 8.5 64.0625 14.71875 69.140625 
Q 20.953125 74.21875 31.78125 74.21875 
Q 42.671875 74.21875 48.875 69.140625 
Q 55.078125 64.0625 55.078125 55.328125 
Q 55.078125 49.078125 51.53125 44.71875 
Q 48 40.375 41.703125 38.8125 
Q 48.828125 37.15625 52.796875 32.3125 
Q 56.78125 27.484375 56.78125 20.515625 
Q 56.78125 9.90625 50.3125 4.234375 
Q 43.84375 -1.421875 31.78125 -1.421875 
Q 19.734375 -1.421875 13.25 4.234375 
Q 6.78125 9.90625 6.78125 20.515625 
Q 6.78125 27.484375 10.78125 32.3125 
Q 14.796875 37.15625 21.921875 38.8125 
z
M 18.3125 54.390625 
Q 18.3125 48.734375 21.84375 45.5625 
Q 25.390625 42.390625 31.78125 42.390625 
Q 38.140625 42.390625 41.71875 45.5625 
Q 45.3125 48.734375 45.3125 54.390625 
Q 45.3125 60.0625 41.71875 63.234375 
Q 38.140625 66.40625 31.78125 66.40625 
Q 25.390625 66.40625 21.84375 63.234375 
Q 18.3125 60.0625 18.3125 54.390625 
z
" id="DejaVuSans-56"/>
       </defs>
       <use xlink:href="#DejaVuSans-56"/>
       <use x="63.623047" xlink:href="#DejaVuSans-48"/>
      </g>
     </g>
    </g>
    <g id="ytick_5">
     <g id="line2d_14">
      <path clip-path="url(#pcf53e9dfbc)" d="M 90.299813 145.609081 
L 447.419813 145.609081 
" style="fill:none;stroke:#969696;stroke-linecap:square;stroke-width:0.3;"/>
     </g>
     <g id="line2d_15">
      <g>
       <use style="fill:#969696;stroke:#969696;stroke-width:0.3;" x="90.299813" xlink:href="#mb491f75e84" y="145.609081"/>
      </g>
     </g>
     <g id="text_11">
      <!-- 100 -->
      <g style="fill:#969696;" transform="translate(56.577312 150.927988)scale(0.14 -0.14)">
       <use xlink:href="#DejaVuSans-49"/>
       <use x="63.623047" xlink:href="#DejaVuSans-48"/>
       <use x="127.246094" xlink:href="#DejaVuSans-48"/>
      </g>
     </g>
    </g>
    <g id="ytick_6">
     <g id="line2d_16">
      <path clip-path="url(#pcf53e9dfbc)" d="M 90.299813 111.797702 
L 447.419813 111.797702 
" style="fill:none;stroke:#969696;stroke-linecap:square;stroke-width:0.3;"/>
     </g>
     <g id="line2d_17">
      <g>
       <use style="fill:#969696;stroke:#969696;stroke-width:0.3;" x="90.299813" xlink:href="#mb491f75e84" y="111.797702"/>
      </g>
     </g>
     <g id="text_12">
      <!-- 120 -->
      <g style="fill:#969696;" transform="translate(56.577312 117.116609)scale(0.14 -0.14)">
       <use xlink:href="#DejaVuSans-49"/>
       <use x="63.623047" xlink:href="#DejaVuSans-50"/>
       <use x="127.246094" xlink:href="#DejaVuSans-48"/>
      </g>
     </g>
    </g>
    <g id="ytick_7">
     <g id="line2d_18">
      <path clip-path="url(#pcf53e9dfbc)" d="M 90.299813 77.986323 
L 447.419813 77.986323 
" style="fill:none;stroke:#969696;stroke-linecap:square;stroke-width:0.3;"/>
     </g>
     <g id="line2d_19">
      <g>
       <use style="fill:#969696;stroke:#969696;stroke-width:0.3;" x="90.299813" xlink:href="#mb491f75e84" y="77.986323"/>
      </g>
     </g>
     <g id="text_13">
      <!-- 140 -->
      <g style="fill:#969696;" transform="translate(56.577312 83.305229)scale(0.14 -0.14)">
       <use xlink:href="#DejaVuSans-49"/>
       <use x="63.623047" xlink:href="#DejaVuSans-52"/>
       <use x="127.246094" xlink:href="#DejaVuSans-48"/>
      </g>
     </g>
    </g>
    <g id="ytick_8">
     <g id="line2d_20">
      <path clip-path="url(#pcf53e9dfbc)" d="M 90.299813 44.174944 
L 447.419813 44.174944 
" style="fill:none;stroke:#969696;stroke-linecap:square;stroke-width:0.3;"/>
     </g>
     <g id="line2d_21">
      <g>
       <use style="fill:#969696;stroke:#969696;stroke-width:0.3;" x="90.299813" xlink:href="#mb491f75e84" y="44.174944"/>
      </g>
     </g>
     <g id="text_14">
      <!-- 160 -->
      <g style="fill:#969696;" transform="translate(56.577312 49.49385)scale(0.14 -0.14)">
       <use xlink:href="#DejaVuSans-49"/>
       <use x="63.623047" xlink:href="#DejaVuSans-54"/>
       <use x="127.246094" xlink:href="#DejaVuSans-48"/>
      </g>
     </g>
    </g>
    <g id="text_15">
     <!-- Runtime [ms] -->
     <g style="fill:#969696;" transform="translate(7.2 38.848437)scale(0.14 -0.14)">
      <defs>
       <path d="M 44.390625 34.1875 
Q 47.5625 33.109375 50.5625 29.59375 
Q 53.5625 26.078125 56.59375 19.921875 
L 66.609375 0 
L 56 0 
L 46.6875 18.703125 
Q 43.0625 26.03125 39.671875 28.421875 
Q 36.28125 30.8125 30.421875 30.8125 
L 19.671875 30.8125 
L 19.671875 0 
L 9.8125 0 
L 9.8125 72.90625 
L 32.078125 72.90625 
Q 44.578125 72.90625 50.734375 67.671875 
Q 56.890625 62.453125 56.890625 51.90625 
Q 56.890625 45.015625 53.6875 40.46875 
Q 50.484375 35.9375 44.390625 34.1875 
z
M 19.671875 64.796875 
L 19.671875 38.921875 
L 32.078125 38.921875 
Q 39.203125 38.921875 42.84375 42.21875 
Q 46.484375 45.515625 46.484375 51.90625 
Q 46.484375 58.296875 42.84375 61.546875 
Q 39.203125 64.796875 32.078125 64.796875 
z
" id="DejaVuSans-82"/>
       <path d="M 54.890625 33.015625 
L 54.890625 0 
L 45.90625 0 
L 45.90625 32.71875 
Q 45.90625 40.484375 42.875 44.328125 
Q 39.84375 48.1875 33.796875 48.1875 
Q 26.515625 48.1875 22.3125 43.546875 
Q 18.109375 38.921875 18.109375 30.90625 
L 18.109375 0 
L 9.078125 0 
L 9.078125 54.6875 
L 18.109375 54.6875 
L 18.109375 46.1875 
Q 21.34375 51.125 25.703125 53.5625 
Q 30.078125 56 35.796875 56 
Q 45.21875 56 50.046875 50.171875 
Q 54.890625 44.34375 54.890625 33.015625 
z
" id="DejaVuSans-110"/>
       <path d="M 18.3125 70.21875 
L 18.3125 54.6875 
L 36.8125 54.6875 
L 36.8125 47.703125 
L 18.3125 47.703125 
L 18.3125 18.015625 
Q 18.3125 11.328125 20.140625 9.421875 
Q 21.96875 7.515625 27.59375 7.515625 
L 36.8125 7.515625 
L 36.8125 0 
L 27.59375 0 
Q 17.1875 0 13.234375 3.875 
Q 9.28125 7.765625 9.28125 18.015625 
L 9.28125 47.703125 
L 2.6875 47.703125 
L 2.6875 54.6875 
L 9.28125 54.6875 
L 9.28125 70.21875 
z
" id="DejaVuSans-116"/>
       <path d="M 9.421875 54.6875 
L 18.40625 54.6875 
L 18.40625 0 
L 9.421875 0 
z
M 9.421875 75.984375 
L 18.40625 75.984375 
L 18.40625 64.59375 
L 9.421875 64.59375 
z
" id="DejaVuSans-105"/>
       <path d="M 52 44.1875 
Q 55.375 50.25 60.0625 53.125 
Q 64.75 56 71.09375 56 
Q 79.640625 56 84.28125 50.015625 
Q 88.921875 44.046875 88.921875 33.015625 
L 88.921875 0 
L 79.890625 0 
L 79.890625 32.71875 
Q 79.890625 40.578125 77.09375 44.375 
Q 74.3125 48.1875 68.609375 48.1875 
Q 61.625 48.1875 57.5625 43.546875 
Q 53.515625 38.921875 53.515625 30.90625 
L 53.515625 0 
L 44.484375 0 
L 44.484375 32.71875 
Q 44.484375 40.625 41.703125 44.40625 
Q 38.921875 48.1875 33.109375 48.1875 
Q 26.21875 48.1875 22.15625 43.53125 
Q 18.109375 38.875 18.109375 30.90625 
L 18.109375 0 
L 9.078125 0 
L 9.078125 54.6875 
L 18.109375 54.6875 
L 18.109375 46.1875 
Q 21.1875 51.21875 25.484375 53.609375 
Q 29.78125 56 35.6875 56 
Q 41.65625 56 45.828125 52.96875 
Q 50 49.953125 52 44.1875 
z
" id="DejaVuSans-109"/>
       <path d="M 8.59375 75.984375 
L 29.296875 75.984375 
L 29.296875 69 
L 17.578125 69 
L 17.578125 -6.203125 
L 29.296875 -6.203125 
L 29.296875 -13.1875 
L 8.59375 -13.1875 
z
" id="DejaVuSans-91"/>
       <path d="M 44.28125 53.078125 
L 44.28125 44.578125 
Q 40.484375 46.53125 36.375 47.5 
Q 32.28125 48.484375 27.875 48.484375 
Q 21.1875 48.484375 17.84375 46.4375 
Q 14.5 44.390625 14.5 40.28125 
Q 14.5 37.15625 16.890625 35.375 
Q 19.28125 33.59375 26.515625 31.984375 
L 29.59375 31.296875 
Q 39.15625 29.25 43.1875 25.515625 
Q 47.21875 21.78125 47.21875 15.09375 
Q 47.21875 7.46875 41.1875 3.015625 
Q 35.15625 -1.421875 24.609375 -1.421875 
Q 20.21875 -1.421875 15.453125 -0.5625 
Q 10.6875 0.296875 5.421875 2 
L 5.421875 11.28125 
Q 10.40625 8.6875 15.234375 7.390625 
Q 20.0625 6.109375 24.8125 6.109375 
Q 31.15625 6.109375 34.5625 8.28125 
Q 37.984375 10.453125 37.984375 14.40625 
Q 37.984375 18.0625 35.515625 20.015625 
Q 33.0625 21.96875 24.703125 23.78125 
L 21.578125 24.515625 
Q 13.234375 26.265625 9.515625 29.90625 
Q 5.8125 33.546875 5.8125 39.890625 
Q 5.8125 47.609375 11.28125 51.796875 
Q 16.75 56 26.8125 56 
Q 31.78125 56 36.171875 55.265625 
Q 40.578125 54.546875 44.28125 53.078125 
z
" id="DejaVuSans-115"/>
       <path d="M 30.421875 75.984375 
L 30.421875 -13.1875 
L 9.71875 -13.1875 
L 9.71875 -6.203125 
L 21.390625 -6.203125 
L 21.390625 69 
L 9.71875 69 
L 9.71875 75.984375 
z
" id="DejaVuSans-93"/>
      </defs>
      <use xlink:href="#DejaVuSans-82"/>
      <use x="64.982422" xlink:href="#DejaVuSans-117"/>
      <use x="128.361328" xlink:href="#DejaVuSans-110"/>
      <use x="191.740234" xlink:href="#DejaVuSans-116"/>
      <use x="230.949219" xlink:href="#DejaVuSans-105"/>
      <use x="258.732422" xlink:href="#DejaVuSans-109"/>
      <use x="356.144531" xlink:href="#DejaVuSans-101"/>
      <use x="417.667969" xlink:href="#DejaVuSans-32"/>
      <use x="449.455078" xlink:href="#DejaVuSans-91"/>
      <use x="488.46875" xlink:href="#DejaVuSans-109"/>
      <use x="585.880859" xlink:href="#DejaVuSans-115"/>
      <use x="637.980469" xlink:href="#DejaVuSans-93"/>
     </g>
    </g>
   </g>
   <g id="line2d_22">
    <path clip-path="url(#pcf53e9dfbc)" d="M 90.299813 307.872 
L 96.457054 303.616535 
L 102.614295 299.287915 
L 108.771537 294.972249 
L 114.928778 290.703275 
L 121.086019 286.426517 
L 127.243261 282.195135 
L 133.400502 277.889242 
L 139.557744 273.668189 
L 145.714985 269.421262 
L 151.872226 265.150771 
L 158.029468 260.890624 
L 164.186709 256.561334 
L 170.34395 252.455026 
L 176.501192 248.208905 
L 182.658433 243.829993 
L 188.815675 239.743401 
L 194.972916 235.531672 
L 201.130157 231.287476 
L 207.287399 226.956112 
L 213.44464 222.720434 
L 219.601881 218.519627 
L 225.759123 214.201767 
L 231.916364 210.054928 
L 238.073606 205.865082 
L 244.230847 201.446042 
L 250.388088 197.302647 
L 256.54533 192.788043 
L 262.702571 188.732037 
L 268.859812 184.541235 
L 275.017054 180.223836 
L 281.174295 175.979896 
L 287.331537 171.813901 
L 293.488778 167.526985 
L 299.646019 163.181854 
L 305.803261 158.525147 
L 311.960502 154.254392 
L 318.117744 150.554953 
L 324.274985 145.994584 
L 330.432226 141.671721 
L 336.589468 137.755227 
L 342.746709 131.752659 
L 348.90395 129.503229 
L 355.061192 123.354418 
L 361.218433 120.63492 
L 367.375675 116.287103 
L 373.532916 111.87012 
L 379.690157 107.834718 
L 385.847399 103.84629 
L 392.00464 99.728636 
L 398.161881 95.501219 
L 404.319123 90.720955 
L 410.476364 85.043448 
L 416.633606 80.904365 
L 422.790847 78.18991 
L 428.948088 74.097942 
L 435.10533 69.775551 
L 441.262571 65.909406 
L 447.419812 59.653929 
" style="fill:none;stroke:#1f77b4;stroke-linecap:square;stroke-width:1.5;"/>
   </g>
   <g id="line2d_23">
    <path clip-path="url(#pcf53e9dfbc)" d="M 90.299813 305.440859 
L 96.457054 303.679955 
L 102.614295 302.491551 
L 108.771537 301.828395 
L 114.928778 293.826457 
L 121.086019 291.927013 
L 127.243261 290.738729 
L 133.400502 290.237012 
L 139.557744 285.437484 
L 145.714985 283.481443 
L 151.872226 282.279809 
L 158.029468 281.771025 
L 164.186709 276.9215 
L 170.34395 274.942758 
L 176.501192 273.815958 
L 182.658433 273.339377 
L 188.815675 268.474141 
L 194.972916 266.39185 
L 201.130157 265.239677 
L 207.287399 264.828622 
L 213.44464 260.107566 
L 219.601881 258.096326 
L 225.759123 257.070506 
L 231.916364 256.473515 
L 238.073606 251.777382 
L 244.230847 249.807237 
L 250.388088 248.641758 
L 256.54533 248.121839 
L 262.702571 243.436067 
L 268.859812 241.469983 
L 275.017054 240.342661 
L 281.174295 239.742152 
L 287.331537 235.060153 
L 293.488778 233.064461 
L 299.646019 231.940766 
L 305.803261 230.910633 
L 311.960502 226.539639 
L 318.117744 224.742691 
L 324.274985 223.580238 
L 330.432226 223.207392 
L 336.589468 218.437416 
L 342.746709 216.650556 
L 348.90395 215.299585 
L 355.061192 215.055791 
L 361.218433 210.186471 
L 367.375675 208.174119 
L 373.532916 206.648497 
L 379.690157 206.588049 
L 385.847399 201.862573 
L 392.00464 199.640758 
L 398.161881 198.808698 
L 404.319123 198.442759 
L 410.476364 193.305354 
L 416.633606 191.504891 
L 422.790847 190.411189 
L 428.948088 189.692143 
L 435.10533 185.115261 
L 441.262571 183.223062 
L 447.419812 181.774279 
" style="fill:none;stroke:#ff7f0e;stroke-linecap:square;stroke-width:1.5;"/>
   </g>
   <g id="line2d_24">
    <path clip-path="url(#pcf53e9dfbc)" d="M 90.299813 257.871954 
L 96.457054 257.566329 
L 102.614295 257.369546 
L 108.771537 260.701571 
L 114.928778 260.072064 
L 121.086019 260.194645 
L 127.243261 260.335115 
L 133.400502 260.727073 
L 139.557744 260.491098 
L 145.714985 260.99772 
L 151.872226 261.249695 
L 158.029468 261.386698 
L 164.186709 261.160653 
L 170.34395 261.118396 
L 176.501192 261.437075 
L 182.658433 261.914843 
L 188.815675 261.419418 
L 194.972916 261.276342 
L 201.130157 261.462349 
L 207.287399 261.338846 
L 213.44464 261.249743 
L 219.601881 261.767006 
L 225.759123 261.406252 
L 231.916364 262.157267 
L 238.073606 262.176847 
L 244.230847 262.090987 
L 250.388088 262.156956 
L 256.54533 262.004486 
L 262.702571 261.995935 
L 268.859812 262.127346 
L 275.017054 261.989588 
L 281.174295 262.263667 
L 287.331537 262.116394 
L 293.488778 261.966331 
L 299.646019 262.007816 
L 305.803261 262.040439 
L 311.960502 262.042202 
L 318.117744 261.915834 
L 324.274985 262.072862 
L 330.432226 261.987724 
L 336.589468 261.924667 
L 342.746709 262.118197 
L 348.90395 262.028722 
L 355.061192 261.974453 
L 361.218433 258.734743 
L 367.375675 258.620372 
L 373.532916 259.358696 
L 379.690157 259.50833 
L 385.847399 259.690768 
L 392.00464 262.223284 
L 398.161881 262.314847 
L 404.319123 262.561298 
L 410.476364 262.386738 
L 416.633606 262.569333 
L 422.790847 263.116489 
L 428.948088 263.331263 
L 435.10533 263.3907 
L 441.262571 263.087341 
L 447.419812 262.941429 
" style="fill:none;stroke:#2ca02c;stroke-linecap:square;stroke-width:1.5;"/>
   </g>
   <g id="line2d_25">
    <path clip-path="url(#pcf53e9dfbc)" d="M 90.299813 229.224495 
L 96.457054 41.76 
L 102.614295 44.592618 
L 108.771537 44.852646 
L 114.928778 45.926069 
L 121.086019 46.800994 
L 127.243261 47.266868 
L 133.400502 47.130033 
L 139.557744 43.437739 
L 145.714985 47.418503 
L 151.872226 47.848112 
L 158.029468 45.566544 
L 164.186709 43.1155 
L 170.34395 48.03254 
L 176.501192 46.022393 
L 182.658433 48.272778 
L 188.815675 46.366494 
L 194.972916 48.346105 
L 201.130157 48.253497 
L 207.287399 48.370311 
L 213.44464 48.521463 
L 219.601881 48.487844 
L 225.759123 46.326758 
L 231.916364 44.317173 
L 238.073606 44.191096 
L 244.230847 48.456604 
L 250.388088 48.20231 
L 256.54533 47.752687 
L 262.702571 48.599915 
L 268.859812 48.393602 
L 275.017054 48.353909 
L 281.174295 44.499312 
L 287.331537 44.612751 
L 293.488778 44.461485 
L 299.646019 44.342883 
L 305.803261 46.573437 
L 311.960502 48.657469 
L 318.117744 48.145017 
L 324.274985 48.75349 
L 330.432226 48.130404 
L 336.589468 48.280562 
L 342.746709 46.632042 
L 348.90395 46.708341 
L 355.061192 48.924498 
L 361.218433 48.631443 
L 367.375675 48.793054 
L 373.532916 49.084463 
L 379.690157 48.363146 
L 385.847399 46.76393 
L 392.00464 48.436878 
L 398.161881 46.799478 
L 404.319123 46.767709 
L 410.476364 48.33464 
L 416.633606 48.464881 
L 422.790847 47.621542 
L 428.948088 48.963996 
L 435.10533 48.441468 
L 441.262571 46.71439 
L 447.419812 48.380765 
" style="fill:none;stroke:#d62728;stroke-linecap:square;stroke-width:1.5;"/>
   </g>
   <g id="text_16">
    <!-- devroye -->
    <g style="fill:#1f77b4;" transform="translate(450.991012 64.880472)scale(0.14 -0.14)">
     <defs>
      <path d="M 45.40625 46.390625 
L 45.40625 75.984375 
L 54.390625 75.984375 
L 54.390625 0 
L 45.40625 0 
L 45.40625 8.203125 
Q 42.578125 3.328125 38.25 0.953125 
Q 33.9375 -1.421875 27.875 -1.421875 
Q 17.96875 -1.421875 11.734375 6.484375 
Q 5.515625 14.40625 5.515625 27.296875 
Q 5.515625 40.1875 11.734375 48.09375 
Q 17.96875 56 27.875 56 
Q 33.9375 56 38.25 53.625 
Q 42.578125 51.265625 45.40625 46.390625 
z
M 14.796875 27.296875 
Q 14.796875 17.390625 18.875 11.75 
Q 22.953125 6.109375 30.078125 6.109375 
Q 37.203125 6.109375 41.296875 11.75 
Q 45.40625 17.390625 45.40625 27.296875 
Q 45.40625 37.203125 41.296875 42.84375 
Q 37.203125 48.484375 30.078125 48.484375 
Q 22.953125 48.484375 18.875 42.84375 
Q 14.796875 37.203125 14.796875 27.296875 
z
" id="DejaVuSans-100"/>
      <path d="M 41.109375 46.296875 
Q 39.59375 47.171875 37.8125 47.578125 
Q 36.03125 48 33.890625 48 
Q 26.265625 48 22.1875 43.046875 
Q 18.109375 38.09375 18.109375 28.8125 
L 18.109375 0 
L 9.078125 0 
L 9.078125 54.6875 
L 18.109375 54.6875 
L 18.109375 46.1875 
Q 20.953125 51.171875 25.484375 53.578125 
Q 30.03125 56 36.53125 56 
Q 37.453125 56 38.578125 55.875 
Q 39.703125 55.765625 41.0625 55.515625 
z
" id="DejaVuSans-114"/>
      <path d="M 32.171875 -5.078125 
Q 28.375 -14.84375 24.75 -17.8125 
Q 21.140625 -20.796875 15.09375 -20.796875 
L 7.90625 -20.796875 
L 7.90625 -13.28125 
L 13.1875 -13.28125 
Q 16.890625 -13.28125 18.9375 -11.515625 
Q 21 -9.765625 23.484375 -3.21875 
L 25.09375 0.875 
L 2.984375 54.6875 
L 12.5 54.6875 
L 29.59375 11.921875 
L 46.6875 54.6875 
L 56.203125 54.6875 
z
" id="DejaVuSans-121"/>
     </defs>
     <use xlink:href="#DejaVuSans-100"/>
     <use x="63.476562" xlink:href="#DejaVuSans-101"/>
     <use x="125" xlink:href="#DejaVuSans-118"/>
     <use x="184.179688" xlink:href="#DejaVuSans-114"/>
     <use x="223.042969" xlink:href="#DejaVuSans-111"/>
     <use x="284.224609" xlink:href="#DejaVuSans-121"/>
     <use x="343.404297" xlink:href="#DejaVuSans-101"/>
    </g>
   </g>
   <g id="text_17">
    <!-- alternate -->
    <g style="fill:#ff7f0e;" transform="translate(450.991012 185.637404)scale(0.14 -0.14)">
     <use xlink:href="#DejaVuSans-97"/>
     <use x="61.279297" xlink:href="#DejaVuSans-108"/>
     <use x="89.0625" xlink:href="#DejaVuSans-116"/>
     <use x="128.271484" xlink:href="#DejaVuSans-101"/>
     <use x="189.794922" xlink:href="#DejaVuSans-114"/>
     <use x="229.158203" xlink:href="#DejaVuSans-110"/>
     <use x="292.537109" xlink:href="#DejaVuSans-97"/>
     <use x="353.816406" xlink:href="#DejaVuSans-116"/>
     <use x="393.025391" xlink:href="#DejaVuSans-101"/>
    </g>
   </g>
   <g id="text_18">
    <!-- saddle -->
    <g style="fill:#2ca02c;" transform="translate(450.991012 266.804554)scale(0.14 -0.14)">
     <use xlink:href="#DejaVuSans-115"/>
     <use x="52.099609" xlink:href="#DejaVuSans-97"/>
     <use x="113.378906" xlink:href="#DejaVuSans-100"/>
     <use x="176.855469" xlink:href="#DejaVuSans-100"/>
     <use x="240.332031" xlink:href="#DejaVuSans-108"/>
     <use x="268.115234" xlink:href="#DejaVuSans-101"/>
    </g>
   </g>
   <g id="text_19">
    <!-- gamma -->
    <g style="fill:#d62728;" transform="translate(450.991012 50.880472)scale(0.14 -0.14)">
     <defs>
      <path d="M 45.40625 27.984375 
Q 45.40625 37.75 41.375 43.109375 
Q 37.359375 48.484375 30.078125 48.484375 
Q 22.859375 48.484375 18.828125 43.109375 
Q 14.796875 37.75 14.796875 27.984375 
Q 14.796875 18.265625 18.828125 12.890625 
Q 22.859375 7.515625 30.078125 7.515625 
Q 37.359375 7.515625 41.375 12.890625 
Q 45.40625 18.265625 45.40625 27.984375 
z
M 54.390625 6.78125 
Q 54.390625 -7.171875 48.1875 -13.984375 
Q 42 -20.796875 29.203125 -20.796875 
Q 24.46875 -20.796875 20.265625 -20.09375 
Q 16.0625 -19.390625 12.109375 -17.921875 
L 12.109375 -9.1875 
Q 16.0625 -11.328125 19.921875 -12.34375 
Q 23.78125 -13.375 27.78125 -13.375 
Q 36.625 -13.375 41.015625 -8.765625 
Q 45.40625 -4.15625 45.40625 5.171875 
L 45.40625 9.625 
Q 42.625 4.78125 38.28125 2.390625 
Q 33.9375 0 27.875 0 
Q 17.828125 0 11.671875 7.65625 
Q 5.515625 15.328125 5.515625 27.984375 
Q 5.515625 40.671875 11.671875 48.328125 
Q 17.828125 56 27.875 56 
Q 33.9375 56 38.28125 53.609375 
Q 42.625 51.21875 45.40625 46.390625 
L 45.40625 54.6875 
L 54.390625 54.6875 
z
" id="DejaVuSans-103"/>
     </defs>
     <use xlink:href="#DejaVuSans-103"/>
     <use x="63.476562" xlink:href="#DejaVuSans-97"/>
     <use x="124.755859" xlink:href="#DejaVuSans-109"/>
     <use x="222.167969" xlink:href="#DejaVuSans-109"/>
     <use x="319.580078" xlink:href="#DejaVuSans-97"/>
    </g>
   </g>
  </g>
  <g id="text_20">
   <!-- Runtime comparison of methods, generating 20000 PG(h, 2.5) samples per value of $h$. -->
   <g style="fill:#969696;" transform="translate(68.024812 14.04)scale(0.09 -0.09)">
    <defs>
     <path d="M 48.78125 52.59375 
L 48.78125 44.1875 
Q 44.96875 46.296875 41.140625 47.34375 
Q 37.3125 48.390625 33.40625 48.390625 
Q 24.65625 48.390625 19.8125 42.84375 
Q 14.984375 37.3125 14.984375 27.296875 
Q 14.984375 17.28125 19.8125 11.734375 
Q 24.65625 6.203125 33.40625 6.203125 
Q 37.3125 6.203125 41.140625 7.25 
Q 44.96875 8.296875 48.78125 10.40625 
L 48.78125 2.09375 
Q 45.015625 0.34375 40.984375 -0.53125 
Q 36.96875 -1.421875 32.421875 -1.421875 
Q 20.0625 -1.421875 12.78125 6.34375 
Q 5.515625 14.109375 5.515625 27.296875 
Q 5.515625 40.671875 12.859375 48.328125 
Q 20.21875 56 33.015625 56 
Q 37.15625 56 41.109375 55.140625 
Q 45.0625 54.296875 48.78125 52.59375 
z
" id="DejaVuSans-99"/>
     <path d="M 18.109375 8.203125 
L 18.109375 -20.796875 
L 9.078125 -20.796875 
L 9.078125 54.6875 
L 18.109375 54.6875 
L 18.109375 46.390625 
Q 20.953125 51.265625 25.265625 53.625 
Q 29.59375 56 35.59375 56 
Q 45.5625 56 51.78125 48.09375 
Q 58.015625 40.1875 58.015625 27.296875 
Q 58.015625 14.40625 51.78125 6.484375 
Q 45.5625 -1.421875 35.59375 -1.421875 
Q 29.59375 -1.421875 25.265625 0.953125 
Q 20.953125 3.328125 18.109375 8.203125 
z
M 48.6875 27.296875 
Q 48.6875 37.203125 44.609375 42.84375 
Q 40.53125 48.484375 33.40625 48.484375 
Q 26.265625 48.484375 22.1875 42.84375 
Q 18.109375 37.203125 18.109375 27.296875 
Q 18.109375 17.390625 22.1875 11.75 
Q 26.265625 6.109375 33.40625 6.109375 
Q 40.53125 6.109375 44.609375 11.75 
Q 48.6875 17.390625 48.6875 27.296875 
z
" id="DejaVuSans-112"/>
     <path d="M 54.890625 33.015625 
L 54.890625 0 
L 45.90625 0 
L 45.90625 32.71875 
Q 45.90625 40.484375 42.875 44.328125 
Q 39.84375 48.1875 33.796875 48.1875 
Q 26.515625 48.1875 22.3125 43.546875 
Q 18.109375 38.921875 18.109375 30.90625 
L 18.109375 0 
L 9.078125 0 
L 9.078125 75.984375 
L 18.109375 75.984375 
L 18.109375 46.1875 
Q 21.34375 51.125 25.703125 53.5625 
Q 30.078125 56 35.796875 56 
Q 45.21875 56 50.046875 50.171875 
Q 54.890625 44.34375 54.890625 33.015625 
z
" id="DejaVuSans-104"/>
     <path d="M 11.71875 12.40625 
L 22.015625 12.40625 
L 22.015625 4 
L 14.015625 -11.625 
L 7.71875 -11.625 
L 11.71875 4 
z
" id="DejaVuSans-44"/>
     <path d="M 19.671875 64.796875 
L 19.671875 37.40625 
L 32.078125 37.40625 
Q 38.96875 37.40625 42.71875 40.96875 
Q 46.484375 44.53125 46.484375 51.125 
Q 46.484375 57.671875 42.71875 61.234375 
Q 38.96875 64.796875 32.078125 64.796875 
z
M 9.8125 72.90625 
L 32.078125 72.90625 
Q 44.34375 72.90625 50.609375 67.359375 
Q 56.890625 61.8125 56.890625 51.125 
Q 56.890625 40.328125 50.609375 34.8125 
Q 44.34375 29.296875 32.078125 29.296875 
L 19.671875 29.296875 
L 19.671875 0 
L 9.8125 0 
z
" id="DejaVuSans-80"/>
     <path d="M 59.515625 10.40625 
L 59.515625 29.984375 
L 43.40625 29.984375 
L 43.40625 38.09375 
L 69.28125 38.09375 
L 69.28125 6.78125 
Q 63.578125 2.734375 56.6875 0.65625 
Q 49.8125 -1.421875 42 -1.421875 
Q 24.90625 -1.421875 15.25 8.5625 
Q 5.609375 18.5625 5.609375 36.375 
Q 5.609375 54.25 15.25 64.234375 
Q 24.90625 74.21875 42 74.21875 
Q 49.125 74.21875 55.546875 72.453125 
Q 61.96875 70.703125 67.390625 67.28125 
L 67.390625 56.78125 
Q 61.921875 61.421875 55.765625 63.765625 
Q 49.609375 66.109375 42.828125 66.109375 
Q 29.4375 66.109375 22.71875 58.640625 
Q 16.015625 51.171875 16.015625 36.375 
Q 16.015625 21.625 22.71875 14.15625 
Q 29.4375 6.6875 42.828125 6.6875 
Q 48.046875 6.6875 52.140625 7.59375 
Q 56.25 8.5 59.515625 10.40625 
z
" id="DejaVuSans-71"/>
     <path d="M 31 75.875 
Q 24.46875 64.65625 21.28125 53.65625 
Q 18.109375 42.671875 18.109375 31.390625 
Q 18.109375 20.125 21.3125 9.0625 
Q 24.515625 -2 31 -13.1875 
L 23.1875 -13.1875 
Q 15.875 -1.703125 12.234375 9.375 
Q 8.59375 20.453125 8.59375 31.390625 
Q 8.59375 42.28125 12.203125 53.3125 
Q 15.828125 64.359375 23.1875 75.875 
z
" id="DejaVuSans-40"/>
     <path d="M 10.6875 12.40625 
L 21 12.40625 
L 21 0 
L 10.6875 0 
z
" id="DejaVuSans-46"/>
     <path d="M 8.015625 75.875 
L 15.828125 75.875 
Q 23.140625 64.359375 26.78125 53.3125 
Q 30.421875 42.28125 30.421875 31.390625 
Q 30.421875 20.453125 26.78125 9.375 
Q 23.140625 -1.703125 15.828125 -13.1875 
L 8.015625 -13.1875 
Q 14.5 -2 17.703125 9.0625 
Q 20.90625 20.125 20.90625 31.390625 
Q 20.90625 42.671875 17.703125 53.65625 
Q 14.5 64.65625 8.015625 75.875 
z
" id="DejaVuSans-41"/>
    </defs>
    <use transform="translate(0 0.015625)" xlink:href="#DejaVuSans-82"/>
    <use transform="translate(69.482422 0.015625)" xlink:href="#DejaVuSans-117"/>
    <use transform="translate(132.861328 0.015625)" xlink:href="#DejaVuSans-110"/>
    <use transform="translate(196.240234 0.015625)" xlink:href="#DejaVuSans-116"/>
    <use transform="translate(235.449219 0.015625)" xlink:href="#DejaVuSans-105"/>
    <use transform="translate(263.232422 0.015625)" xlink:href="#DejaVuSans-109"/>
    <use transform="translate(360.644531 0.015625)" xlink:href="#DejaVuSans-101"/>
    <use transform="translate(422.167969 0.015625)" xlink:href="#DejaVuSans-32"/>
    <use transform="translate(453.955078 0.015625)" xlink:href="#DejaVuSans-99"/>
    <use transform="translate(508.935547 0.015625)" xlink:href="#DejaVuSans-111"/>
    <use transform="translate(570.117188 0.015625)" xlink:href="#DejaVuSans-109"/>
    <use transform="translate(667.529297 0.015625)" xlink:href="#DejaVuSans-112"/>
    <use transform="translate(731.005859 0.015625)" xlink:href="#DejaVuSans-97"/>
    <use transform="translate(792.285156 0.015625)" xlink:href="#DejaVuSans-114"/>
    <use transform="translate(833.398438 0.015625)" xlink:href="#DejaVuSans-105"/>
    <use transform="translate(861.181641 0.015625)" xlink:href="#DejaVuSans-115"/>
    <use transform="translate(913.28125 0.015625)" xlink:href="#DejaVuSans-111"/>
    <use transform="translate(974.462891 0.015625)" xlink:href="#DejaVuSans-110"/>
    <use transform="translate(1037.841797 0.015625)" xlink:href="#DejaVuSans-32"/>
    <use transform="translate(1069.628906 0.015625)" xlink:href="#DejaVuSans-111"/>
    <use transform="translate(1130.810547 0.015625)" xlink:href="#DejaVuSans-102"/>
    <use transform="translate(1166.015625 0.015625)" xlink:href="#DejaVuSans-32"/>
    <use transform="translate(1197.802734 0.015625)" xlink:href="#DejaVuSans-109"/>
    <use transform="translate(1295.214844 0.015625)" xlink:href="#DejaVuSans-101"/>
    <use transform="translate(1356.738281 0.015625)" xlink:href="#DejaVuSans-116"/>
    <use transform="translate(1395.947266 0.015625)" xlink:href="#DejaVuSans-104"/>
    <use transform="translate(1459.326172 0.015625)" xlink:href="#DejaVuSans-111"/>
    <use transform="translate(1520.507812 0.015625)" xlink:href="#DejaVuSans-100"/>
    <use transform="translate(1583.984375 0.015625)" xlink:href="#DejaVuSans-115"/>
    <use transform="translate(1636.083984 0.015625)" xlink:href="#DejaVuSans-44"/>
    <use transform="translate(1667.871094 0.015625)" xlink:href="#DejaVuSans-32"/>
    <use transform="translate(1699.658203 0.015625)" xlink:href="#DejaVuSans-103"/>
    <use transform="translate(1763.134766 0.015625)" xlink:href="#DejaVuSans-101"/>
    <use transform="translate(1824.658203 0.015625)" xlink:href="#DejaVuSans-110"/>
    <use transform="translate(1888.037109 0.015625)" xlink:href="#DejaVuSans-101"/>
    <use transform="translate(1949.560547 0.015625)" xlink:href="#DejaVuSans-114"/>
    <use transform="translate(1990.673828 0.015625)" xlink:href="#DejaVuSans-97"/>
    <use transform="translate(2051.953125 0.015625)" xlink:href="#DejaVuSans-116"/>
    <use transform="translate(2091.162109 0.015625)" xlink:href="#DejaVuSans-105"/>
    <use transform="translate(2118.945312 0.015625)" xlink:href="#DejaVuSans-110"/>
    <use transform="translate(2182.324219 0.015625)" xlink:href="#DejaVuSans-103"/>
    <use transform="translate(2245.800781 0.015625)" xlink:href="#DejaVuSans-32"/>
    <use transform="translate(2277.587891 0.015625)" xlink:href="#DejaVuSans-50"/>
    <use transform="translate(2341.210938 0.015625)" xlink:href="#DejaVuSans-48"/>
    <use transform="translate(2404.833984 0.015625)" xlink:href="#DejaVuSans-48"/>
    <use transform="translate(2468.457031 0.015625)" xlink:href="#DejaVuSans-48"/>
    <use transform="translate(2532.080078 0.015625)" xlink:href="#DejaVuSans-48"/>
    <use transform="translate(2595.703125 0.015625)" xlink:href="#DejaVuSans-32"/>
    <use transform="translate(2627.490234 0.015625)" xlink:href="#DejaVuSans-80"/>
    <use transform="translate(2687.792969 0.015625)" xlink:href="#DejaVuSans-71"/>
    <use transform="translate(2765.283203 0.015625)" xlink:href="#DejaVuSans-40"/>
    <use transform="translate(2804.296875 0.015625)" xlink:href="#DejaVuSans-104"/>
    <use transform="translate(2867.675781 0.015625)" xlink:href="#DejaVuSans-44"/>
    <use transform="translate(2899.462891 0.015625)" xlink:href="#DejaVuSans-32"/>
    <use transform="translate(2931.25 0.015625)" xlink:href="#DejaVuSans-50"/>
    <use transform="translate(2994.873047 0.015625)" xlink:href="#DejaVuSans-46"/>
    <use transform="translate(3026.660156 0.015625)" xlink:href="#DejaVuSans-53"/>
    <use transform="translate(3090.283203 0.015625)" xlink:href="#DejaVuSans-41"/>
    <use transform="translate(3129.296875 0.015625)" xlink:href="#DejaVuSans-32"/>
    <use transform="translate(3161.083984 0.015625)" xlink:href="#DejaVuSans-115"/>
    <use transform="translate(3213.183594 0.015625)" xlink:href="#DejaVuSans-97"/>
    <use transform="translate(3274.462891 0.015625)" xlink:href="#DejaVuSans-109"/>
    <use transform="translate(3371.875 0.015625)" xlink:href="#DejaVuSans-112"/>
    <use transform="translate(3435.351562 0.015625)" xlink:href="#DejaVuSans-108"/>
    <use transform="translate(3463.134766 0.015625)" xlink:href="#DejaVuSans-101"/>
    <use transform="translate(3524.658203 0.015625)" xlink:href="#DejaVuSans-115"/>
    <use transform="translate(3576.757812 0.015625)" xlink:href="#DejaVuSans-32"/>
    <use transform="translate(3608.544922 0.015625)" xlink:href="#DejaVuSans-112"/>
    <use transform="translate(3672.021484 0.015625)" xlink:href="#DejaVuSans-101"/>
    <use transform="translate(3733.544922 0.015625)" xlink:href="#DejaVuSans-114"/>
    <use transform="translate(3774.658203 0.015625)" xlink:href="#DejaVuSans-32"/>
    <use transform="translate(3806.445312 0.015625)" xlink:href="#DejaVuSans-118"/>
    <use transform="translate(3865.625 0.015625)" xlink:href="#DejaVuSans-97"/>
    <use transform="translate(3926.904297 0.015625)" xlink:href="#DejaVuSans-108"/>
    <use transform="translate(3954.6875 0.015625)" xlink:href="#DejaVuSans-117"/>
    <use transform="translate(4018.066406 0.015625)" xlink:href="#DejaVuSans-101"/>
    <use transform="translate(4079.589844 0.015625)" xlink:href="#DejaVuSans-32"/>
    <use transform="translate(4111.376953 0.015625)" xlink:href="#DejaVuSans-111"/>
    <use transform="translate(4172.558594 0.015625)" xlink:href="#DejaVuSans-102"/>
    <use transform="translate(4207.763672 0.015625)" xlink:href="#DejaVuSans-32"/>
    <use transform="translate(4239.550781 0.015625)" xlink:href="#DejaVuSans-Oblique-104"/>
    <use transform="translate(4302.929688 0.015625)" xlink:href="#DejaVuSans-46"/>
   </g>
  </g>
 </g>
 <defs>
  <clipPath id="pcf53e9dfbc">
   <rect height="266.112" width="357.12" x="90.299813" y="41.76"/>
  </clipPath>
 </defs>
</svg>
