<?xml version="1.0" encoding="utf-8" standalone="no"?>
<!DOCTYPE svg PUBLIC "-//W3C//DTD SVG 1.1//EN"
  "http://www.w3.org/Graphics/SVG/1.1/DTD/svg11.dtd">
<!-- Created with matplotlib (https://matplotlib.org/) -->
<svg height="345.6pt" version="1.1" viewBox="0 0 460.8 345.6" width="460.8pt" xmlns="http://www.w3.org/2000/svg" xmlns:xlink="http://www.w3.org/1999/xlink">
 <metadata>
  <rdf:RDF xmlns:cc="http://creativecommons.org/ns#" xmlns:dc="http://purl.org/dc/elements/1.1/" xmlns:rdf="http://www.w3.org/1999/02/22-rdf-syntax-ns#">
   <cc:Work>
    <dc:type rdf:resource="http://purl.org/dc/dcmitype/StillImage"/>
    <dc:date>2021-01-22T13:37:53.359708</dc:date>
    <dc:format>image/svg+xml</dc:format>
    <dc:creator>
     <cc:Agent>
      <dc:title>Matplotlib v3.3.3, https://matplotlib.org/</dc:title>
     </cc:Agent>
    </dc:creator>
   </cc:Work>
  </rdf:RDF>
 </metadata>
 <defs>
  <style type="text/css">*{stroke-linecap:butt;stroke-linejoin:round;}</style>
 </defs>
 <g id="figure_1">
  <g id="patch_1">
   <path d="M 0 345.6 
L 460.8 345.6 
L 460.8 0 
L 0 0 
z
" style="fill:#ffffff;"/>
  </g>
  <g id="axes_1">
   <g id="patch_2">
    <path d="M 57.6 307.584 
L 414.72 307.584 
L 414.72 41.472 
L 57.6 41.472 
z
" style="fill:#eaeaf2;"/>
   </g>
   <g id="matplotlib.axis_1">
    <g id="xtick_1">
     <g id="line2d_1">
      <path clip-path="url(#p9dda025f07)" d="M 79.327413 307.584 
L 79.327413 41.472 
" style="fill:none;stroke:#ffffff;stroke-linecap:round;stroke-width:0.8;"/>
     </g>
     <g id="text_1">
      <!-- 0 -->
      <g style="fill:#262626;" transform="translate(76.146163 322.182437)scale(0.1 -0.1)">
       <defs>
        <path d="M 31.78125 66.40625 
Q 24.171875 66.40625 20.328125 58.90625 
Q 16.5 51.421875 16.5 36.375 
Q 16.5 21.390625 20.328125 13.890625 
Q 24.171875 6.390625 31.78125 6.390625 
Q 39.453125 6.390625 43.28125 13.890625 
Q 47.125 21.390625 47.125 36.375 
Q 47.125 51.421875 43.28125 58.90625 
Q 39.453125 66.40625 31.78125 66.40625 
z
M 31.78125 74.21875 
Q 44.046875 74.21875 50.515625 64.515625 
Q 56.984375 54.828125 56.984375 36.375 
Q 56.984375 17.96875 50.515625 8.265625 
Q 44.046875 -1.421875 31.78125 -1.421875 
Q 19.53125 -1.421875 13.0625 8.265625 
Q 6.59375 17.96875 6.59375 36.375 
Q 6.59375 54.828125 13.0625 64.515625 
Q 19.53125 74.21875 31.78125 74.21875 
z
" id="DejaVuSans-48"/>
       </defs>
       <use xlink:href="#DejaVuSans-48"/>
      </g>
     </g>
    </g>
    <g id="xtick_2">
     <g id="line2d_2">
      <path clip-path="url(#p9dda025f07)" d="M 119.871176 307.584 
L 119.871176 41.472 
" style="fill:none;stroke:#ffffff;stroke-linecap:round;stroke-width:0.8;"/>
     </g>
     <g id="text_2">
      <!-- 1 -->
      <g style="fill:#262626;" transform="translate(116.689926 322.182437)scale(0.1 -0.1)">
       <defs>
        <path d="M 12.40625 8.296875 
L 28.515625 8.296875 
L 28.515625 63.921875 
L 10.984375 60.40625 
L 10.984375 69.390625 
L 28.421875 72.90625 
L 38.28125 72.90625 
L 38.28125 8.296875 
L 54.390625 8.296875 
L 54.390625 0 
L 12.40625 0 
z
" id="DejaVuSans-49"/>
       </defs>
       <use xlink:href="#DejaVuSans-49"/>
      </g>
     </g>
    </g>
    <g id="xtick_3">
     <g id="line2d_3">
      <path clip-path="url(#p9dda025f07)" d="M 160.41494 307.584 
L 160.41494 41.472 
" style="fill:none;stroke:#ffffff;stroke-linecap:round;stroke-width:0.8;"/>
     </g>
     <g id="text_3">
      <!-- 2 -->
      <g style="fill:#262626;" transform="translate(157.23369 322.182437)scale(0.1 -0.1)">
       <defs>
        <path d="M 19.1875 8.296875 
L 53.609375 8.296875 
L 53.609375 0 
L 7.328125 0 
L 7.328125 8.296875 
Q 12.9375 14.109375 22.625 23.890625 
Q 32.328125 33.6875 34.8125 36.53125 
Q 39.546875 41.84375 41.421875 45.53125 
Q 43.3125 49.21875 43.3125 52.78125 
Q 43.3125 58.59375 39.234375 62.25 
Q 35.15625 65.921875 28.609375 65.921875 
Q 23.96875 65.921875 18.8125 64.3125 
Q 13.671875 62.703125 7.8125 59.421875 
L 7.8125 69.390625 
Q 13.765625 71.78125 18.9375 73 
Q 24.125 74.21875 28.421875 74.21875 
Q 39.75 74.21875 46.484375 68.546875 
Q 53.21875 62.890625 53.21875 53.421875 
Q 53.21875 48.921875 51.53125 44.890625 
Q 49.859375 40.875 45.40625 35.40625 
Q 44.1875 33.984375 37.640625 27.21875 
Q 31.109375 20.453125 19.1875 8.296875 
z
" id="DejaVuSans-50"/>
       </defs>
       <use xlink:href="#DejaVuSans-50"/>
      </g>
     </g>
    </g>
    <g id="xtick_4">
     <g id="line2d_4">
      <path clip-path="url(#p9dda025f07)" d="M 200.958704 307.584 
L 200.958704 41.472 
" style="fill:none;stroke:#ffffff;stroke-linecap:round;stroke-width:0.8;"/>
     </g>
     <g id="text_4">
      <!-- 3 -->
      <g style="fill:#262626;" transform="translate(197.777454 322.182437)scale(0.1 -0.1)">
       <defs>
        <path d="M 40.578125 39.3125 
Q 47.65625 37.796875 51.625 33 
Q 55.609375 28.21875 55.609375 21.1875 
Q 55.609375 10.40625 48.1875 4.484375 
Q 40.765625 -1.421875 27.09375 -1.421875 
Q 22.515625 -1.421875 17.65625 -0.515625 
Q 12.796875 0.390625 7.625 2.203125 
L 7.625 11.71875 
Q 11.71875 9.328125 16.59375 8.109375 
Q 21.484375 6.890625 26.8125 6.890625 
Q 36.078125 6.890625 40.9375 10.546875 
Q 45.796875 14.203125 45.796875 21.1875 
Q 45.796875 27.640625 41.28125 31.265625 
Q 36.765625 34.90625 28.71875 34.90625 
L 20.21875 34.90625 
L 20.21875 43.015625 
L 29.109375 43.015625 
Q 36.375 43.015625 40.234375 45.921875 
Q 44.09375 48.828125 44.09375 54.296875 
Q 44.09375 59.90625 40.109375 62.90625 
Q 36.140625 65.921875 28.71875 65.921875 
Q 24.65625 65.921875 20.015625 65.03125 
Q 15.375 64.15625 9.8125 62.3125 
L 9.8125 71.09375 
Q 15.4375 72.65625 20.34375 73.4375 
Q 25.25 74.21875 29.59375 74.21875 
Q 40.828125 74.21875 47.359375 69.109375 
Q 53.90625 64.015625 53.90625 55.328125 
Q 53.90625 49.265625 50.4375 45.09375 
Q 46.96875 40.921875 40.578125 39.3125 
z
" id="DejaVuSans-51"/>
       </defs>
       <use xlink:href="#DejaVuSans-51"/>
      </g>
     </g>
    </g>
    <g id="xtick_5">
     <g id="line2d_5">
      <path clip-path="url(#p9dda025f07)" d="M 241.502467 307.584 
L 241.502467 41.472 
" style="fill:none;stroke:#ffffff;stroke-linecap:round;stroke-width:0.8;"/>
     </g>
     <g id="text_5">
      <!-- 4 -->
      <g style="fill:#262626;" transform="translate(238.321217 322.182437)scale(0.1 -0.1)">
       <defs>
        <path d="M 37.796875 64.3125 
L 12.890625 25.390625 
L 37.796875 25.390625 
z
M 35.203125 72.90625 
L 47.609375 72.90625 
L 47.609375 25.390625 
L 58.015625 25.390625 
L 58.015625 17.1875 
L 47.609375 17.1875 
L 47.609375 0 
L 37.796875 0 
L 37.796875 17.1875 
L 4.890625 17.1875 
L 4.890625 26.703125 
z
" id="DejaVuSans-52"/>
       </defs>
       <use xlink:href="#DejaVuSans-52"/>
      </g>
     </g>
    </g>
    <g id="xtick_6">
     <g id="line2d_6">
      <path clip-path="url(#p9dda025f07)" d="M 282.046231 307.584 
L 282.046231 41.472 
" style="fill:none;stroke:#ffffff;stroke-linecap:round;stroke-width:0.8;"/>
     </g>
     <g id="text_6">
      <!-- 5 -->
      <g style="fill:#262626;" transform="translate(278.864981 322.182437)scale(0.1 -0.1)">
       <defs>
        <path d="M 10.796875 72.90625 
L 49.515625 72.90625 
L 49.515625 64.59375 
L 19.828125 64.59375 
L 19.828125 46.734375 
Q 21.96875 47.46875 24.109375 47.828125 
Q 26.265625 48.1875 28.421875 48.1875 
Q 40.625 48.1875 47.75 41.5 
Q 54.890625 34.8125 54.890625 23.390625 
Q 54.890625 11.625 47.5625 5.09375 
Q 40.234375 -1.421875 26.90625 -1.421875 
Q 22.3125 -1.421875 17.546875 -0.640625 
Q 12.796875 0.140625 7.71875 1.703125 
L 7.71875 11.625 
Q 12.109375 9.234375 16.796875 8.0625 
Q 21.484375 6.890625 26.703125 6.890625 
Q 35.15625 6.890625 40.078125 11.328125 
Q 45.015625 15.765625 45.015625 23.390625 
Q 45.015625 31 40.078125 35.4375 
Q 35.15625 39.890625 26.703125 39.890625 
Q 22.75 39.890625 18.8125 39.015625 
Q 14.890625 38.140625 10.796875 36.28125 
z
" id="DejaVuSans-53"/>
       </defs>
       <use xlink:href="#DejaVuSans-53"/>
      </g>
     </g>
    </g>
    <g id="xtick_7">
     <g id="line2d_7">
      <path clip-path="url(#p9dda025f07)" d="M 322.589994 307.584 
L 322.589994 41.472 
" style="fill:none;stroke:#ffffff;stroke-linecap:round;stroke-width:0.8;"/>
     </g>
     <g id="text_7">
      <!-- 6 -->
      <g style="fill:#262626;" transform="translate(319.408744 322.182437)scale(0.1 -0.1)">
       <defs>
        <path d="M 33.015625 40.375 
Q 26.375 40.375 22.484375 35.828125 
Q 18.609375 31.296875 18.609375 23.390625 
Q 18.609375 15.53125 22.484375 10.953125 
Q 26.375 6.390625 33.015625 6.390625 
Q 39.65625 6.390625 43.53125 10.953125 
Q 47.40625 15.53125 47.40625 23.390625 
Q 47.40625 31.296875 43.53125 35.828125 
Q 39.65625 40.375 33.015625 40.375 
z
M 52.59375 71.296875 
L 52.59375 62.3125 
Q 48.875 64.0625 45.09375 64.984375 
Q 41.3125 65.921875 37.59375 65.921875 
Q 27.828125 65.921875 22.671875 59.328125 
Q 17.53125 52.734375 16.796875 39.40625 
Q 19.671875 43.65625 24.015625 45.921875 
Q 28.375 48.1875 33.59375 48.1875 
Q 44.578125 48.1875 50.953125 41.515625 
Q 57.328125 34.859375 57.328125 23.390625 
Q 57.328125 12.15625 50.6875 5.359375 
Q 44.046875 -1.421875 33.015625 -1.421875 
Q 20.359375 -1.421875 13.671875 8.265625 
Q 6.984375 17.96875 6.984375 36.375 
Q 6.984375 53.65625 15.1875 63.9375 
Q 23.390625 74.21875 37.203125 74.21875 
Q 40.921875 74.21875 44.703125 73.484375 
Q 48.484375 72.75 52.59375 71.296875 
z
" id="DejaVuSans-54"/>
       </defs>
       <use xlink:href="#DejaVuSans-54"/>
      </g>
     </g>
    </g>
    <g id="xtick_8">
     <g id="line2d_8">
      <path clip-path="url(#p9dda025f07)" d="M 363.133758 307.584 
L 363.133758 41.472 
" style="fill:none;stroke:#ffffff;stroke-linecap:round;stroke-width:0.8;"/>
     </g>
     <g id="text_8">
      <!-- 7 -->
      <g style="fill:#262626;" transform="translate(359.952508 322.182437)scale(0.1 -0.1)">
       <defs>
        <path d="M 8.203125 72.90625 
L 55.078125 72.90625 
L 55.078125 68.703125 
L 28.609375 0 
L 18.3125 0 
L 43.21875 64.59375 
L 8.203125 64.59375 
z
" id="DejaVuSans-55"/>
       </defs>
       <use xlink:href="#DejaVuSans-55"/>
      </g>
     </g>
    </g>
    <g id="xtick_9">
     <g id="line2d_9">
      <path clip-path="url(#p9dda025f07)" d="M 403.677522 307.584 
L 403.677522 41.472 
" style="fill:none;stroke:#ffffff;stroke-linecap:round;stroke-width:0.8;"/>
     </g>
     <g id="text_9">
      <!-- 8 -->
      <g style="fill:#262626;" transform="translate(400.496272 322.182437)scale(0.1 -0.1)">
       <defs>
        <path d="M 31.78125 34.625 
Q 24.75 34.625 20.71875 30.859375 
Q 16.703125 27.09375 16.703125 20.515625 
Q 16.703125 13.921875 20.71875 10.15625 
Q 24.75 6.390625 31.78125 6.390625 
Q 38.8125 6.390625 42.859375 10.171875 
Q 46.921875 13.96875 46.921875 20.515625 
Q 46.921875 27.09375 42.890625 30.859375 
Q 38.875 34.625 31.78125 34.625 
z
M 21.921875 38.8125 
Q 15.578125 40.375 12.03125 44.71875 
Q 8.5 49.078125 8.5 55.328125 
Q 8.5 64.0625 14.71875 69.140625 
Q 20.953125 74.21875 31.78125 74.21875 
Q 42.671875 74.21875 48.875 69.140625 
Q 55.078125 64.0625 55.078125 55.328125 
Q 55.078125 49.078125 51.53125 44.71875 
Q 48 40.375 41.703125 38.8125 
Q 48.828125 37.15625 52.796875 32.3125 
Q 56.78125 27.484375 56.78125 20.515625 
Q 56.78125 9.90625 50.3125 4.234375 
Q 43.84375 -1.421875 31.78125 -1.421875 
Q 19.734375 -1.421875 13.25 4.234375 
Q 6.78125 9.90625 6.78125 20.515625 
Q 6.78125 27.484375 10.78125 32.3125 
Q 14.796875 37.15625 21.921875 38.8125 
z
M 18.3125 54.390625 
Q 18.3125 48.734375 21.84375 45.5625 
Q 25.390625 42.390625 31.78125 42.390625 
Q 38.140625 42.390625 41.71875 45.5625 
Q 45.3125 48.734375 45.3125 54.390625 
Q 45.3125 60.0625 41.71875 63.234375 
Q 38.140625 66.40625 31.78125 66.40625 
Q 25.390625 66.40625 21.84375 63.234375 
Q 18.3125 60.0625 18.3125 54.390625 
z
" id="DejaVuSans-56"/>
       </defs>
       <use xlink:href="#DejaVuSans-56"/>
      </g>
     </g>
    </g>
   </g>
   <g id="matplotlib.axis_2">
    <g id="ytick_1">
     <g id="line2d_10">
      <path clip-path="url(#p9dda025f07)" d="M 57.6 307.584 
L 414.72 307.584 
" style="fill:none;stroke:#ffffff;stroke-linecap:round;stroke-width:0.8;"/>
     </g>
     <g id="text_10">
      <!-- 0.0 -->
      <g style="fill:#262626;" transform="translate(34.696875 311.383219)scale(0.1 -0.1)">
       <defs>
        <path d="M 10.6875 12.40625 
L 21 12.40625 
L 21 0 
L 10.6875 0 
z
" id="DejaVuSans-46"/>
       </defs>
       <use xlink:href="#DejaVuSans-48"/>
       <use x="63.623047" xlink:href="#DejaVuSans-46"/>
       <use x="95.410156" xlink:href="#DejaVuSans-48"/>
      </g>
     </g>
    </g>
    <g id="ytick_2">
     <g id="line2d_11">
      <path clip-path="url(#p9dda025f07)" d="M 57.6 275.291571 
L 414.72 275.291571 
" style="fill:none;stroke:#ffffff;stroke-linecap:round;stroke-width:0.8;"/>
     </g>
     <g id="text_11">
      <!-- 0.1 -->
      <g style="fill:#262626;" transform="translate(34.696875 279.09079)scale(0.1 -0.1)">
       <use xlink:href="#DejaVuSans-48"/>
       <use x="63.623047" xlink:href="#DejaVuSans-46"/>
       <use x="95.410156" xlink:href="#DejaVuSans-49"/>
      </g>
     </g>
    </g>
    <g id="ytick_3">
     <g id="line2d_12">
      <path clip-path="url(#p9dda025f07)" d="M 57.6 242.999142 
L 414.72 242.999142 
" style="fill:none;stroke:#ffffff;stroke-linecap:round;stroke-width:0.8;"/>
     </g>
     <g id="text_12">
      <!-- 0.2 -->
      <g style="fill:#262626;" transform="translate(34.696875 246.79836)scale(0.1 -0.1)">
       <use xlink:href="#DejaVuSans-48"/>
       <use x="63.623047" xlink:href="#DejaVuSans-46"/>
       <use x="95.410156" xlink:href="#DejaVuSans-50"/>
      </g>
     </g>
    </g>
    <g id="ytick_4">
     <g id="line2d_13">
      <path clip-path="url(#p9dda025f07)" d="M 57.6 210.706712 
L 414.72 210.706712 
" style="fill:none;stroke:#ffffff;stroke-linecap:round;stroke-width:0.8;"/>
     </g>
     <g id="text_13">
      <!-- 0.3 -->
      <g style="fill:#262626;" transform="translate(34.696875 214.505931)scale(0.1 -0.1)">
       <use xlink:href="#DejaVuSans-48"/>
       <use x="63.623047" xlink:href="#DejaVuSans-46"/>
       <use x="95.410156" xlink:href="#DejaVuSans-51"/>
      </g>
     </g>
    </g>
    <g id="ytick_5">
     <g id="line2d_14">
      <path clip-path="url(#p9dda025f07)" d="M 57.6 178.414283 
L 414.72 178.414283 
" style="fill:none;stroke:#ffffff;stroke-linecap:round;stroke-width:0.8;"/>
     </g>
     <g id="text_14">
      <!-- 0.4 -->
      <g style="fill:#262626;" transform="translate(34.696875 182.213502)scale(0.1 -0.1)">
       <use xlink:href="#DejaVuSans-48"/>
       <use x="63.623047" xlink:href="#DejaVuSans-46"/>
       <use x="95.410156" xlink:href="#DejaVuSans-52"/>
      </g>
     </g>
    </g>
    <g id="ytick_6">
     <g id="line2d_15">
      <path clip-path="url(#p9dda025f07)" d="M 57.6 146.121854 
L 414.72 146.121854 
" style="fill:none;stroke:#ffffff;stroke-linecap:round;stroke-width:0.8;"/>
     </g>
     <g id="text_15">
      <!-- 0.5 -->
      <g style="fill:#262626;" transform="translate(34.696875 149.921073)scale(0.1 -0.1)">
       <use xlink:href="#DejaVuSans-48"/>
       <use x="63.623047" xlink:href="#DejaVuSans-46"/>
       <use x="95.410156" xlink:href="#DejaVuSans-53"/>
      </g>
     </g>
    </g>
    <g id="ytick_7">
     <g id="line2d_16">
      <path clip-path="url(#p9dda025f07)" d="M 57.6 113.829425 
L 414.72 113.829425 
" style="fill:none;stroke:#ffffff;stroke-linecap:round;stroke-width:0.8;"/>
     </g>
     <g id="text_16">
      <!-- 0.6 -->
      <g style="fill:#262626;" transform="translate(34.696875 117.628644)scale(0.1 -0.1)">
       <use xlink:href="#DejaVuSans-48"/>
       <use x="63.623047" xlink:href="#DejaVuSans-46"/>
       <use x="95.410156" xlink:href="#DejaVuSans-54"/>
      </g>
     </g>
    </g>
    <g id="ytick_8">
     <g id="line2d_17">
      <path clip-path="url(#p9dda025f07)" d="M 57.6 81.536996 
L 414.72 81.536996 
" style="fill:none;stroke:#ffffff;stroke-linecap:round;stroke-width:0.8;"/>
     </g>
     <g id="text_17">
      <!-- 0.7 -->
      <g style="fill:#262626;" transform="translate(34.696875 85.336214)scale(0.1 -0.1)">
       <use xlink:href="#DejaVuSans-48"/>
       <use x="63.623047" xlink:href="#DejaVuSans-46"/>
       <use x="95.410156" xlink:href="#DejaVuSans-55"/>
      </g>
     </g>
    </g>
    <g id="ytick_9">
     <g id="line2d_18">
      <path clip-path="url(#p9dda025f07)" d="M 57.6 49.244567 
L 414.72 49.244567 
" style="fill:none;stroke:#ffffff;stroke-linecap:round;stroke-width:0.8;"/>
     </g>
     <g id="text_18">
      <!-- 0.8 -->
      <g style="fill:#262626;" transform="translate(34.696875 53.043785)scale(0.1 -0.1)">
       <use xlink:href="#DejaVuSans-48"/>
       <use x="63.623047" xlink:href="#DejaVuSans-46"/>
       <use x="95.410156" xlink:href="#DejaVuSans-56"/>
      </g>
     </g>
    </g>
    <g id="text_19">
     <!-- Density -->
     <g style="fill:#262626;" transform="translate(28.617187 193.536594)rotate(-90)scale(0.1 -0.1)">
      <defs>
       <path d="M 19.671875 64.796875 
L 19.671875 8.109375 
L 31.59375 8.109375 
Q 46.6875 8.109375 53.6875 14.9375 
Q 60.6875 21.78125 60.6875 36.53125 
Q 60.6875 51.171875 53.6875 57.984375 
Q 46.6875 64.796875 31.59375 64.796875 
z
M 9.8125 72.90625 
L 30.078125 72.90625 
Q 51.265625 72.90625 61.171875 64.09375 
Q 71.09375 55.28125 71.09375 36.53125 
Q 71.09375 17.671875 61.125 8.828125 
Q 51.171875 0 30.078125 0 
L 9.8125 0 
z
" id="DejaVuSans-68"/>
       <path d="M 56.203125 29.59375 
L 56.203125 25.203125 
L 14.890625 25.203125 
Q 15.484375 15.921875 20.484375 11.0625 
Q 25.484375 6.203125 34.421875 6.203125 
Q 39.59375 6.203125 44.453125 7.46875 
Q 49.3125 8.734375 54.109375 11.28125 
L 54.109375 2.78125 
Q 49.265625 0.734375 44.1875 -0.34375 
Q 39.109375 -1.421875 33.890625 -1.421875 
Q 20.796875 -1.421875 13.15625 6.1875 
Q 5.515625 13.8125 5.515625 26.8125 
Q 5.515625 40.234375 12.765625 48.109375 
Q 20.015625 56 32.328125 56 
Q 43.359375 56 49.78125 48.890625 
Q 56.203125 41.796875 56.203125 29.59375 
z
M 47.21875 32.234375 
Q 47.125 39.59375 43.09375 43.984375 
Q 39.0625 48.390625 32.421875 48.390625 
Q 24.90625 48.390625 20.390625 44.140625 
Q 15.875 39.890625 15.1875 32.171875 
z
" id="DejaVuSans-101"/>
       <path d="M 54.890625 33.015625 
L 54.890625 0 
L 45.90625 0 
L 45.90625 32.71875 
Q 45.90625 40.484375 42.875 44.328125 
Q 39.84375 48.1875 33.796875 48.1875 
Q 26.515625 48.1875 22.3125 43.546875 
Q 18.109375 38.921875 18.109375 30.90625 
L 18.109375 0 
L 9.078125 0 
L 9.078125 54.6875 
L 18.109375 54.6875 
L 18.109375 46.1875 
Q 21.34375 51.125 25.703125 53.5625 
Q 30.078125 56 35.796875 56 
Q 45.21875 56 50.046875 50.171875 
Q 54.890625 44.34375 54.890625 33.015625 
z
" id="DejaVuSans-110"/>
       <path d="M 44.28125 53.078125 
L 44.28125 44.578125 
Q 40.484375 46.53125 36.375 47.5 
Q 32.28125 48.484375 27.875 48.484375 
Q 21.1875 48.484375 17.84375 46.4375 
Q 14.5 44.390625 14.5 40.28125 
Q 14.5 37.15625 16.890625 35.375 
Q 19.28125 33.59375 26.515625 31.984375 
L 29.59375 31.296875 
Q 39.15625 29.25 43.1875 25.515625 
Q 47.21875 21.78125 47.21875 15.09375 
Q 47.21875 7.46875 41.1875 3.015625 
Q 35.15625 -1.421875 24.609375 -1.421875 
Q 20.21875 -1.421875 15.453125 -0.5625 
Q 10.6875 0.296875 5.421875 2 
L 5.421875 11.28125 
Q 10.40625 8.6875 15.234375 7.390625 
Q 20.0625 6.109375 24.8125 6.109375 
Q 31.15625 6.109375 34.5625 8.28125 
Q 37.984375 10.453125 37.984375 14.40625 
Q 37.984375 18.0625 35.515625 20.015625 
Q 33.0625 21.96875 24.703125 23.78125 
L 21.578125 24.515625 
Q 13.234375 26.265625 9.515625 29.90625 
Q 5.8125 33.546875 5.8125 39.890625 
Q 5.8125 47.609375 11.28125 51.796875 
Q 16.75 56 26.8125 56 
Q 31.78125 56 36.171875 55.265625 
Q 40.578125 54.546875 44.28125 53.078125 
z
" id="DejaVuSans-115"/>
       <path d="M 9.421875 54.6875 
L 18.40625 54.6875 
L 18.40625 0 
L 9.421875 0 
z
M 9.421875 75.984375 
L 18.40625 75.984375 
L 18.40625 64.59375 
L 9.421875 64.59375 
z
" id="DejaVuSans-105"/>
       <path d="M 18.3125 70.21875 
L 18.3125 54.6875 
L 36.8125 54.6875 
L 36.8125 47.703125 
L 18.3125 47.703125 
L 18.3125 18.015625 
Q 18.3125 11.328125 20.140625 9.421875 
Q 21.96875 7.515625 27.59375 7.515625 
L 36.8125 7.515625 
L 36.8125 0 
L 27.59375 0 
Q 17.1875 0 13.234375 3.875 
Q 9.28125 7.765625 9.28125 18.015625 
L 9.28125 47.703125 
L 2.6875 47.703125 
L 2.6875 54.6875 
L 9.28125 54.6875 
L 9.28125 70.21875 
z
" id="DejaVuSans-116"/>
       <path d="M 32.171875 -5.078125 
Q 28.375 -14.84375 24.75 -17.8125 
Q 21.140625 -20.796875 15.09375 -20.796875 
L 7.90625 -20.796875 
L 7.90625 -13.28125 
L 13.1875 -13.28125 
Q 16.890625 -13.28125 18.9375 -11.515625 
Q 21 -9.765625 23.484375 -3.21875 
L 25.09375 0.875 
L 2.984375 54.6875 
L 12.5 54.6875 
L 29.59375 11.921875 
L 46.6875 54.6875 
L 56.203125 54.6875 
z
" id="DejaVuSans-121"/>
      </defs>
      <use xlink:href="#DejaVuSans-68"/>
      <use x="77.001953" xlink:href="#DejaVuSans-101"/>
      <use x="138.525391" xlink:href="#DejaVuSans-110"/>
      <use x="201.904297" xlink:href="#DejaVuSans-115"/>
      <use x="254.003906" xlink:href="#DejaVuSans-105"/>
      <use x="281.787109" xlink:href="#DejaVuSans-116"/>
      <use x="320.996094" xlink:href="#DejaVuSans-121"/>
     </g>
    </g>
   </g>
   <g id="line2d_19">
    <path clip-path="url(#p9dda025f07)" d="M 74.936641 307.398387 
L 75.323797 307.200353 
L 75.710953 306.824681 
L 76.098109 306.144261 
L 76.485265 304.967438 
L 76.872421 303.023528 
L 77.259577 299.956362 
L 77.646733 295.333011 
L 78.033889 288.674295 
L 78.421045 279.510392 
L 79.195357 252.313316 
L 79.969669 213.273471 
L 81.905449 100.609504 
L 82.679761 70.885948 
L 83.066916 61.759782 
L 83.454072 56.322225 
L 83.841228 54.144 
L 84.228384 54.652665 
L 84.61554 57.23793 
L 85.389852 66.49771 
L 86.55132 85.566506 
L 88.874256 130.006949 
L 91.197192 171.431041 
L 93.520127 211.41391 
L 94.681595 226.800314 
L 95.455907 234.517655 
L 96.230219 240.589785 
L 97.778843 250.349514 
L 99.714623 262.908582 
L 103.199026 286.424567 
L 103.973338 289.927029 
L 104.74765 292.408255 
L 105.909118 295.058712 
L 107.844898 298.825543 
L 108.61921 299.951966 
L 109.393522 300.762921 
L 110.55499 301.561915 
L 111.716457 302.056743 
L 113.265081 302.700729 
L 114.426549 303.575216 
L 115.975173 304.882895 
L 117.136641 305.511141 
L 118.685265 306.0273 
L 120.621045 306.447479 
L 122.169668 306.61605 
L 123.331136 306.521925 
L 125.266916 306.126092 
L 126.041228 306.21024 
L 127.202696 306.662079 
L 128.75132 307.291504 
L 129.912788 307.507092 
L 131.848567 307.580704 
L 142.688934 307.530364 
L 144.237558 307.309135 
L 146.560494 306.842974 
L 147.721962 306.95306 
L 150.432053 307.505004 
L 151.980677 307.575736 
L 151.980677 307.575736 
" style="fill:none;stroke:#d62728;stroke-linecap:round;stroke-width:1.5;"/>
   </g>
   <g id="line2d_20">
    <path clip-path="url(#p9dda025f07)" d="M 73.92619 307.468827 
L 74.624474 307.214209 
L 74.973616 306.947719 
L 75.322758 306.518098 
L 75.6719 305.845159 
L 76.021042 304.820965 
L 76.370184 303.306236 
L 76.719326 301.129189 
L 77.068468 298.088184 
L 77.417611 293.959429 
L 78.115895 281.519666 
L 78.814179 262.225489 
L 79.512463 235.464095 
L 80.559889 184.115761 
L 81.956458 112.962889 
L 82.654742 85.47646 
L 83.353026 66.979641 
L 83.702168 61.282882 
L 84.05131 57.823013 
L 84.400452 56.398135 
L 84.749594 56.759085 
L 85.098736 58.640062 
L 85.447878 61.785449 
L 86.146163 71.008548 
L 87.193589 90.020264 
L 88.590157 121.683677 
L 91.383294 187.886863 
L 92.43072 207.306615 
L 93.478146 222.170724 
L 94.525572 233.326983 
L 95.922141 245.352371 
L 97.318709 256.005809 
L 98.366135 262.617203 
L 99.06442 266.047179 
L 99.762704 268.707695 
L 100.81013 271.761325 
L 102.55584 276.675545 
L 103.952409 281.404005 
L 107.094687 292.810501 
L 107.792972 294.565863 
L 108.491256 295.826769 
L 109.18954 296.708422 
L 110.586108 298.006342 
L 112.331819 299.469838 
L 113.379245 300.013044 
L 114.077529 300.136301 
L 115.124955 300.02216 
L 116.521524 299.780571 
L 117.219808 299.85489 
L 117.918092 300.146683 
L 118.616376 300.666523 
L 119.663802 301.819505 
L 122.806081 305.897581 
L 123.504365 306.36871 
L 124.202649 306.584324 
L 125.250076 306.551539 
L 126.995786 306.335338 
L 128.043212 306.476907 
L 130.836349 307.151574 
L 131.883775 307.109572 
L 135.724338 306.671793 
L 137.470048 306.787324 
L 139.564901 307.208745 
L 141.310611 307.48694 
L 143.405464 307.576757 
L 143.405464 307.576757 
" style="fill:none;stroke:#2ca02c;stroke-linecap:round;stroke-width:1.5;"/>
   </g>
   <g id="line2d_21">
    <path clip-path="url(#p9dda025f07)" d="M 73.909733 307.355128 
L 74.392959 307.10449 
L 74.876186 306.624527 
L 75.359413 305.749617 
L 75.842639 304.231389 
L 76.325866 301.723289 
L 76.809093 297.778811 
L 77.29232 291.87332 
L 77.775546 283.457437 
L 78.258773 272.043574 
L 79.225226 239.251152 
L 80.19168 194.927404 
L 81.64136 124.342943 
L 82.607813 90.369241 
L 83.09104 80.20952 
L 83.574267 74.866013 
L 84.057493 73.955336 
L 84.54072 76.748704 
L 85.023947 82.325296 
L 85.9904 98.122351 
L 88.406534 139.921171 
L 92.272347 201.54455 
L 93.238801 212.124631 
L 94.205254 220.078317 
L 97.104614 241.585612 
L 98.554295 252.242047 
L 99.520748 257.832702 
L 101.453655 266.77457 
L 104.353015 279.980323 
L 105.319468 283.104028 
L 106.285922 285.428845 
L 108.218829 289.679174 
L 111.118189 297.419996 
L 111.601416 298.219355 
L 112.567869 299.22067 
L 114.017549 300.211313 
L 114.984003 301.206893 
L 117.400136 304.188168 
L 118.36659 304.803865 
L 119.333043 305.00229 
L 120.299496 304.923093 
L 122.232403 304.595601 
L 123.198857 304.643608 
L 124.648537 305.038437 
L 126.098217 305.451229 
L 128.031124 305.728134 
L 132.863391 306.324487 
L 137.212431 307.480548 
L 139.628565 307.5789 
L 157.507953 307.573961 
L 159.924086 307.44931 
L 164.273127 306.99992 
L 166.68926 307.361791 
L 168.622167 307.54297 
L 170.071847 307.577227 
L 170.071847 307.577227 
" style="fill:none;stroke:#ff7f0e;stroke-linecap:round;stroke-width:1.5;"/>
   </g>
   <g id="line2d_22">
    <path clip-path="url(#p9dda025f07)" d="M 73.832727 307.431265 
L 74.503026 307.149287 
L 74.838176 306.874975 
L 75.173325 306.453088 
L 75.508475 305.819673 
L 75.843624 304.891259 
L 76.178774 303.562709 
L 76.513923 301.706532 
L 77.184222 295.801339 
L 77.854521 285.8398 
L 78.52482 270.544366 
L 79.195119 249.158946 
L 80.200567 206.547639 
L 82.211464 111.517872 
L 82.881763 88.295232 
L 83.552062 73.176704 
L 83.887212 68.886614 
L 84.222361 66.737494 
L 84.557511 66.611415 
L 84.89266 68.33227 
L 85.22781 71.678975 
L 85.898109 82.226241 
L 86.903557 103.700087 
L 88.579304 140.658329 
L 89.919902 164.748688 
L 91.2605 184.21706 
L 92.601098 200.361762 
L 93.941696 214.084074 
L 95.617444 229.166251 
L 97.62834 245.103258 
L 100.644686 267.011073 
L 101.985284 275.380832 
L 102.990732 280.357334 
L 103.996181 284.156571 
L 105.001629 287.008611 
L 106.007077 289.177836 
L 107.012526 290.786101 
L 108.017974 291.888493 
L 110.364021 294.017891 
L 111.369469 295.517927 
L 113.380366 298.819088 
L 114.385814 299.906195 
L 115.726412 300.843368 
L 118.072459 302.24946 
L 118.742758 302.45677 
L 119.748206 302.47026 
L 121.759103 302.220595 
L 122.429402 302.374318 
L 123.43485 302.927986 
L 126.116046 304.815686 
L 127.456644 305.367484 
L 129.802691 306.078825 
L 131.143288 306.267115 
L 134.159634 306.500924 
L 138.851727 307.524891 
L 140.527474 307.576791 
L 140.527474 307.576791 
" style="fill:none;stroke:#1f77b4;stroke-linecap:round;stroke-width:1.5;"/>
   </g>
   <g id="line2d_23">
    <path clip-path="url(#p9dda025f07)" d="M 78.349631 307.571406 
L 81.589425 307.438136 
L 83.209321 307.179414 
L 84.289253 306.840411 
L 85.369184 306.290175 
L 86.449115 305.447853 
L 87.529046 304.229064 
L 88.608977 302.557865 
L 89.688908 300.379232 
L 90.768839 297.667955 
L 91.848771 294.4305 
L 93.468667 288.66277 
L 95.088564 281.950087 
L 97.248426 271.855194 
L 103.188048 242.976797 
L 104.807944 236.593485 
L 106.427841 231.118997 
L 108.047738 226.393249 
L 109.667634 222.397399 
L 110.747565 220.271194 
L 111.827497 218.727248 
L 112.367462 218.210395 
L 112.907428 217.875614 
L 113.447393 217.725214 
L 113.987359 217.755817 
L 114.527324 217.95885 
L 115.06729 218.321613 
L 116.147221 219.463917 
L 117.227152 221.057202 
L 118.307083 223.003569 
L 119.92698 226.488599 
L 121.546877 230.642262 
L 123.166774 235.441835 
L 125.866601 244.367881 
L 129.106395 254.937722 
L 131.266257 261.132405 
L 132.886154 265.184942 
L 134.506051 268.708402 
L 136.665913 272.745758 
L 140.445672 279.558473 
L 145.305362 288.958567 
L 146.925259 291.38652 
L 148.545155 293.319807 
L 150.165052 294.904976 
L 152.324914 296.722222 
L 155.024742 298.690704 
L 157.184605 299.956209 
L 158.804501 300.602845 
L 159.884432 300.84542 
L 161.504329 300.94032 
L 164.744123 300.868705 
L 165.824054 301.046628 
L 166.903985 301.406757 
L 168.523882 302.268791 
L 171.223709 304.1554 
L 173.383572 305.54732 
L 175.003468 306.332907 
L 176.623365 306.876103 
L 178.243262 307.216217 
L 180.403124 307.45146 
L 184.182883 307.570428 
L 185.80278 307.579922 
L 185.80278 307.579922 
" style="fill:none;stroke:#d62728;stroke-linecap:round;stroke-width:1.5;"/>
   </g>
   <g id="line2d_24">
    <path clip-path="url(#p9dda025f07)" d="M 75.092488 307.577331 
L 79.380542 307.455903 
L 81.524569 307.149253 
L 82.95392 306.686666 
L 84.383271 305.858555 
L 85.097947 305.253629 
L 85.812622 304.491072 
L 86.527298 303.549468 
L 87.241974 302.410609 
L 88.671325 299.494994 
L 90.100676 295.723881 
L 91.530027 291.198293 
L 93.674054 283.417208 
L 96.532757 272.086754 
L 100.106135 256.928338 
L 102.964837 244.702333 
L 104.394189 239.224325 
L 105.82354 234.545177 
L 107.252891 230.815147 
L 108.682242 228.050942 
L 109.396918 227.013849 
L 110.111594 226.196241 
L 110.826269 225.593414 
L 111.540945 225.20427 
L 112.25562 225.030598 
L 112.970296 225.075102 
L 113.684972 225.338633 
L 114.399647 225.817267 
L 115.114323 226.499898 
L 116.543674 228.390606 
L 117.973025 230.76723 
L 124.405106 242.325188 
L 125.834457 245.397997 
L 127.263809 248.969663 
L 129.407835 255.045477 
L 131.551862 261.167054 
L 132.981214 264.791167 
L 134.410565 267.868861 
L 135.839916 270.425809 
L 137.983943 273.651536 
L 140.842645 277.931056 
L 142.986672 281.638391 
L 146.56005 288.061574 
L 147.989402 290.301849 
L 149.418753 292.249356 
L 151.56278 294.722191 
L 154.421482 297.58779 
L 156.565509 299.495021 
L 157.99486 300.540202 
L 159.424212 301.324526 
L 160.853563 301.835558 
L 162.282914 302.126077 
L 172.288373 303.501165 
L 175.861751 304.220847 
L 178.720453 305.056779 
L 183.008507 306.327883 
L 185.152534 306.738096 
L 187.296561 306.948126 
L 190.155263 306.983237 
L 195.157993 306.984761 
L 203.7341 307.245632 
L 209.451505 307.437194 
L 215.16891 307.571132 
L 217.312937 307.580676 
L 217.312937 307.580676 
" style="fill:none;stroke:#2ca02c;stroke-linecap:round;stroke-width:1.5;"/>
   </g>
   <g id="line2d_25">
    <path clip-path="url(#p9dda025f07)" d="M 77.035272 307.571094 
L 80.246661 307.448388 
L 82.173495 307.15756 
L 83.45805 306.757085 
L 84.742606 306.096223 
L 86.027162 305.085241 
L 87.311718 303.641302 
L 88.596273 301.701667 
L 89.880829 299.232562 
L 91.165385 296.229222 
L 92.449941 292.703454 
L 93.734496 288.659504 
L 95.019052 284.06889 
L 96.303608 278.864119 
L 97.588164 272.967303 
L 99.514997 262.783314 
L 102.084109 247.378241 
L 104.65322 231.965638 
L 105.937776 225.193133 
L 107.222332 219.582833 
L 108.506887 215.462217 
L 109.149165 214.014344 
L 109.791443 212.972398 
L 110.433721 212.314157 
L 111.075999 212.003569 
L 111.718277 211.995077 
L 112.360555 212.239205 
L 113.002833 212.68852 
L 114.287388 214.054143 
L 115.571944 215.918378 
L 116.8565 218.300199 
L 118.141056 221.317643 
L 119.425611 225.041432 
L 121.352445 231.717266 
L 124.563834 243.338672 
L 126.490668 249.390361 
L 132.913447 267.844144 
L 134.198002 271.02956 
L 135.482558 273.753502 
L 137.409392 277.174724 
L 143.832171 287.604538 
L 145.116726 289.262838 
L 146.401282 290.652146 
L 148.970394 292.959916 
L 151.539505 295.330126 
L 156.677728 300.415512 
L 158.604562 301.793478 
L 160.531395 302.792379 
L 162.458229 303.520755 
L 165.02734 304.241472 
L 169.523285 305.217206 
L 175.303786 306.251362 
L 179.157454 306.804428 
L 182.368843 307.045496 
L 184.937954 307.048995 
L 188.791622 306.775458 
L 191.360733 306.669176 
L 193.929845 306.82358 
L 200.994901 307.5158 
L 204.848568 307.578852 
L 204.848568 307.578852 
" style="fill:none;stroke:#ff7f0e;stroke-linecap:round;stroke-width:1.5;"/>
   </g>
   <g id="line2d_26">
    <path clip-path="url(#p9dda025f07)" d="M 76.20495 307.57281 
L 79.570791 307.466501 
L 81.590295 307.200632 
L 82.936631 306.813468 
L 84.282968 306.138506 
L 85.629304 305.044682 
L 86.97564 303.390968 
L 88.321977 301.048097 
L 89.668313 297.921283 
L 91.014649 293.967234 
L 92.360986 289.202927 
L 93.707322 283.709597 
L 95.726827 274.450423 
L 99.765836 255.493403 
L 101.112172 250.068796 
L 102.458508 245.340605 
L 103.804844 241.256103 
L 105.151181 237.687759 
L 106.497517 234.536346 
L 107.843853 231.812657 
L 109.19019 229.649815 
L 109.863358 228.839612 
L 110.536526 228.241888 
L 111.209694 227.874494 
L 111.882862 227.747718 
L 112.556031 227.86292 
L 113.229199 228.212117 
L 113.902367 228.778433 
L 115.248703 230.458015 
L 116.59504 232.644941 
L 120.634049 239.635105 
L 122.653553 242.538926 
L 126.019394 247.246897 
L 127.36573 249.482125 
L 129.385235 253.363819 
L 132.751076 260.625635 
L 142.17543 280.84129 
L 144.194934 284.755071 
L 145.541271 286.907285 
L 146.887607 288.641952 
L 148.233943 289.99888 
L 149.58028 291.071296 
L 152.272952 292.822625 
L 154.965625 294.684516 
L 157.658298 296.954182 
L 161.024139 299.816981 
L 163.043643 301.149907 
L 165.063148 302.135853 
L 167.75582 303.137465 
L 171.794829 304.390815 
L 173.814334 304.811151 
L 175.833838 305.028758 
L 180.546015 305.38845 
L 183.911856 306.01624 
L 187.277697 306.631036 
L 190.643538 306.993703 
L 194.682547 307.167869 
L 203.433733 307.481896 
L 209.492246 307.578836 
L 210.165415 307.5807 
L 210.165415 307.5807 
" style="fill:none;stroke:#1f77b4;stroke-linecap:round;stroke-width:1.5;"/>
   </g>
   <g id="line2d_27">
    <path clip-path="url(#p9dda025f07)" d="M 81.456459 307.581159 
L 90.051679 307.469439 
L 95.208811 307.176458 
L 98.646899 306.758713 
L 100.365944 306.393614 
L 102.084988 305.852551 
L 103.804032 305.080659 
L 105.523076 304.039821 
L 107.24212 302.716655 
L 108.961164 301.117744 
L 110.680208 299.253892 
L 112.399252 297.122269 
L 114.118296 294.697191 
L 115.83734 291.936448 
L 117.556384 288.802877 
L 119.275428 285.292715 
L 121.853994 279.445975 
L 130.449214 259.140638 
L 133.02778 253.629434 
L 134.746824 250.377206 
L 136.465868 247.690239 
L 137.32539 246.614803 
L 138.184912 245.73622 
L 139.044434 245.057329 
L 139.903956 244.571763 
L 140.763478 244.265038 
L 141.623 244.116853 
L 142.482522 244.104241 
L 144.201566 244.400876 
L 145.920611 245.036329 
L 147.639655 245.993709 
L 149.358699 247.323679 
L 151.077743 249.056828 
L 152.796787 251.127661 
L 157.094397 256.602748 
L 159.672963 259.428759 
L 162.251529 262.176292 
L 163.970573 264.28095 
L 165.689617 266.739545 
L 168.268183 270.989272 
L 171.706271 276.825786 
L 173.425315 279.437682 
L 175.144359 281.73564 
L 176.863403 283.735042 
L 179.441969 286.335284 
L 184.599101 291.039508 
L 189.756233 295.508077 
L 194.913366 299.66407 
L 197.491932 301.540235 
L 199.210976 302.620024 
L 200.93002 303.499922 
L 202.649064 304.141428 
L 204.368108 304.53794 
L 206.087152 304.723697 
L 209.52524 304.757346 
L 212.963328 304.829533 
L 217.260938 305.226566 
L 224.137114 306.10584 
L 229.294246 306.771606 
L 232.732334 306.962329 
L 241.327555 307.285951 
L 247.344209 307.532765 
L 252.501341 307.579798 
L 252.501341 307.579798 
" style="fill:none;stroke:#d62728;stroke-linecap:round;stroke-width:1.5;"/>
   </g>
   <g id="line2d_28">
    <path clip-path="url(#p9dda025f07)" d="M 86.748144 307.580006 
L 93.192848 307.483238 
L 95.954865 307.29176 
L 98.716881 306.862625 
L 100.558225 306.366837 
L 102.399569 305.64398 
L 104.240913 304.647866 
L 106.082258 303.34156 
L 107.923602 301.694855 
L 109.764946 299.673604 
L 111.60629 297.228588 
L 113.447634 294.299119 
L 115.288979 290.842637 
L 117.130323 286.883401 
L 120.813011 278.080237 
L 123.575027 271.695468 
L 125.416372 267.928867 
L 127.257716 264.591209 
L 130.019732 260.115074 
L 137.385109 248.662315 
L 139.226453 246.323459 
L 140.147125 245.398359 
L 141.067797 244.677922 
L 141.988469 244.185284 
L 142.909141 243.934474 
L 143.829813 243.929262 
L 144.750485 244.163014 
L 145.671157 244.619559 
L 146.59183 245.274927 
L 148.433174 247.061589 
L 150.274518 249.268216 
L 159.481239 261.009582 
L 164.084599 266.820149 
L 172.370648 277.722014 
L 177.894681 284.182382 
L 184.339385 291.610831 
L 186.180729 293.445538 
L 188.022074 295.053584 
L 189.863418 296.436799 
L 192.625434 298.16909 
L 196.308122 300.105456 
L 200.911483 302.270806 
L 203.673499 303.395243 
L 206.435515 304.283073 
L 209.197532 304.907984 
L 212.88022 305.428418 
L 216.562908 305.716876 
L 229.452318 306.430504 
L 238.659038 307.302463 
L 243.262399 307.469461 
L 248.786431 307.414251 
L 255.231136 307.355064 
L 269.961889 307.581341 
L 269.961889 307.581341 
" style="fill:none;stroke:#2ca02c;stroke-linecap:round;stroke-width:1.5;"/>
   </g>
   <g id="line2d_29">
    <path clip-path="url(#p9dda025f07)" d="M 90.403783 307.578132 
L 96.379752 307.447396 
L 98.940881 307.20997 
L 101.502011 306.719947 
L 103.20943 306.186897 
L 104.91685 305.434772 
L 106.62427 304.409244 
L 108.331689 303.050077 
L 110.039109 301.297056 
L 111.746528 299.097503 
L 113.453948 296.410884 
L 115.161368 293.210418 
L 116.868787 289.487558 
L 118.576207 285.265077 
L 121.137336 278.173713 
L 126.259595 263.501 
L 127.967015 259.268919 
L 129.674435 255.602102 
L 131.381854 252.492369 
L 133.089274 249.860731 
L 134.796693 247.629119 
L 136.504113 245.782337 
L 138.211533 244.376341 
L 139.065242 243.863279 
L 139.918952 243.48529 
L 140.772662 243.241912 
L 141.626372 243.125956 
L 143.333792 243.217212 
L 145.041211 243.608376 
L 147.602341 244.479313 
L 149.30976 245.229168 
L 151.01718 246.238704 
L 152.724599 247.653679 
L 154.432019 249.561911 
L 156.139439 251.954482 
L 157.846858 254.745979 
L 160.407988 259.425648 
L 165.530247 269.067309 
L 168.091376 273.294869 
L 170.652506 277.022547 
L 177.482184 286.315246 
L 180.043313 289.44827 
L 182.604443 292.14276 
L 185.165572 294.47006 
L 188.580412 297.221352 
L 192.848961 300.354991 
L 195.41009 302.053116 
L 197.97122 303.447835 
L 199.678639 304.148504 
L 201.386059 304.669809 
L 203.947188 305.202748 
L 208.215737 305.793529 
L 212.484286 306.217116 
L 215.899126 306.344351 
L 225.289934 306.46174 
L 235.534451 306.946359 
L 245.778969 307.178153 
L 255.169777 307.546292 
L 260.292036 307.581077 
L 260.292036 307.581077 
" style="fill:none;stroke:#ff7f0e;stroke-linecap:round;stroke-width:1.5;"/>
   </g>
   <g id="line2d_30">
    <path clip-path="url(#p9dda025f07)" d="M 84.417657 307.579797 
L 91.387331 307.463995 
L 95.370002 307.164856 
L 98.357005 306.751472 
L 101.344008 306.130124 
L 103.335343 305.52007 
L 105.326679 304.629575 
L 107.318014 303.311615 
L 108.313682 302.446082 
L 109.309349 301.422771 
L 111.300685 298.868692 
L 113.29202 295.634805 
L 115.283355 291.787411 
L 117.274691 287.444255 
L 120.261694 280.256463 
L 123.248697 272.452215 
L 127.231368 261.285294 
L 130.218371 253.026383 
L 132.209706 248.236629 
L 133.205374 246.215513 
L 134.201042 244.501918 
L 135.196709 243.124928 
L 136.192377 242.098763 
L 137.188045 241.421841 
L 138.183712 241.077356 
L 139.17938 241.035274 
L 140.175048 241.255529 
L 141.170716 241.692121 
L 143.162051 243.028289 
L 145.153386 244.728115 
L 148.140389 247.645049 
L 150.131725 249.849829 
L 153.118728 253.598346 
L 163.075405 267.029681 
L 168.053743 273.97419 
L 171.040746 277.626137 
L 176.019085 283.433219 
L 179.006088 287.420186 
L 182.988759 292.7827 
L 184.980094 295.076767 
L 186.97143 297.002402 
L 188.962765 298.591324 
L 190.9541 299.897256 
L 192.945436 300.934044 
L 194.936771 301.665322 
L 196.928107 302.053543 
L 198.919442 302.131505 
L 202.902113 301.995694 
L 204.893448 302.202138 
L 206.884783 302.752628 
L 208.876119 303.585754 
L 212.85879 305.357205 
L 214.850125 305.962311 
L 216.84146 306.31685 
L 219.828464 306.521306 
L 230.780808 306.854029 
L 239.741817 307.493683 
L 245.715824 307.57844 
L 258.659504 307.504807 
L 268.616181 307.354161 
L 282.555528 307.581264 
L 282.555528 307.581264 
" style="fill:none;stroke:#1f77b4;stroke-linecap:round;stroke-width:1.5;"/>
   </g>
   <g id="line2d_31">
    <path clip-path="url(#p9dda025f07)" d="M 101.242626 307.581201 
L 110.328435 307.483212 
L 115.376106 307.197383 
L 118.404709 306.847055 
L 121.433312 306.29846 
L 124.461915 305.485654 
L 126.480984 304.757115 
L 128.500052 303.846845 
L 130.519121 302.725438 
L 132.53819 301.364715 
L 134.557258 299.740092 
L 136.576327 297.832356 
L 138.595395 295.630311 
L 140.614464 293.136937 
L 143.643067 288.919099 
L 152.728876 275.550837 
L 155.757479 271.798246 
L 158.786082 268.468827 
L 161.814685 265.434394 
L 164.843288 262.636728 
L 167.871891 260.168161 
L 169.890959 258.812182 
L 171.910028 257.768629 
L 173.929097 257.074138 
L 175.948165 256.714239 
L 177.967234 256.626701 
L 180.995837 256.829367 
L 184.02444 257.287275 
L 186.043508 257.75364 
L 188.062577 258.423477 
L 190.081646 259.383786 
L 192.100714 260.72275 
L 194.119783 262.514164 
L 196.138852 264.799603 
L 198.15792 267.568637 
L 200.176989 270.744026 
L 207.243729 282.611486 
L 209.262798 285.441975 
L 211.281866 287.826249 
L 213.300935 289.80139 
L 215.320004 291.475219 
L 218.348607 293.689172 
L 222.386744 296.392733 
L 225.415347 298.12224 
L 227.434415 299.039894 
L 229.453484 299.754474 
L 232.482087 300.518157 
L 255.701376 305.029598 
L 260.749048 305.6142 
L 277.911131 307.176434 
L 284.977871 307.360755 
L 300.120886 307.578413 
L 302.139955 307.581727 
L 302.139955 307.581727 
" style="fill:none;stroke:#d62728;stroke-linecap:round;stroke-width:1.5;"/>
   </g>
   <g id="line2d_32">
    <path clip-path="url(#p9dda025f07)" d="M 101.377728 307.579698 
L 109.990165 307.450298 
L 113.817914 307.202453 
L 117.645664 306.722205 
L 120.516476 306.160849 
L 123.387288 305.358667 
L 125.301163 304.635764 
L 127.215038 303.714133 
L 129.128912 302.55578 
L 131.042787 301.137292 
L 132.956662 299.456884 
L 134.870537 297.534959 
L 137.741349 294.283847 
L 141.569098 289.514316 
L 148.26766 280.76195 
L 151.138472 276.735043 
L 154.009284 272.269351 
L 160.707846 261.117213 
L 162.621721 258.607951 
L 163.578658 257.597269 
L 164.535596 256.763982 
L 165.492533 256.107543 
L 166.44947 255.618388 
L 167.406408 255.279356 
L 169.320282 254.958756 
L 171.234157 254.949533 
L 174.104969 255.196635 
L 176.975782 255.646007 
L 178.889656 256.153553 
L 180.803531 256.93835 
L 182.717406 258.078335 
L 184.631281 259.610081 
L 186.545155 261.519528 
L 188.45903 263.743826 
L 192.28678 268.713482 
L 196.114529 273.606561 
L 198.985341 276.872613 
L 201.856153 279.805098 
L 206.64084 284.328894 
L 209.511653 286.841663 
L 211.425527 288.334828 
L 213.339402 289.623265 
L 215.253277 290.696578 
L 218.124089 292.001759 
L 222.908776 294.091046 
L 225.779588 295.670678 
L 229.607338 298.155638 
L 233.435087 300.650176 
L 235.348962 301.722909 
L 237.262837 302.600604 
L 239.176711 303.255654 
L 241.090586 303.696872 
L 243.961398 304.060103 
L 253.530772 304.891954 
L 268.84177 306.72123 
L 277.454207 307.256961 
L 284.152768 307.512692 
L 291.808267 307.580356 
L 291.808267 307.580356 
" style="fill:none;stroke:#2ca02c;stroke-linecap:round;stroke-width:1.5;"/>
   </g>
   <g id="line2d_33">
    <path clip-path="url(#p9dda025f07)" d="M 100.051065 307.580219 
L 109.288645 307.45983 
L 114.420634 307.188699 
L 119.552623 306.731325 
L 122.631816 306.299206 
L 124.684612 305.862136 
L 126.737407 305.240146 
L 128.790203 304.389125 
L 130.842998 303.291398 
L 132.895794 301.954504 
L 134.948589 300.392754 
L 137.001385 298.60135 
L 139.05418 296.540857 
L 141.106976 294.146678 
L 143.159771 291.363173 
L 145.212567 288.184014 
L 148.29176 282.827557 
L 162.661329 256.572638 
L 164.714124 253.592842 
L 165.740522 252.387194 
L 166.76692 251.415738 
L 167.793317 250.702039 
L 168.819715 250.257954 
L 169.846113 250.081733 
L 170.872511 250.157615 
L 171.898908 250.457122 
L 172.925306 250.941992 
L 174.978102 252.292175 
L 180.110091 256.332724 
L 183.189284 258.982306 
L 185.242079 261.068131 
L 187.294875 263.457427 
L 194.479659 272.375575 
L 197.558852 275.661099 
L 201.664443 279.675406 
L 205.770034 283.451158 
L 208.849228 286.021077 
L 212.954819 289.137687 
L 219.113205 293.540275 
L 222.192399 295.398485 
L 224.245194 296.397876 
L 226.29799 297.20577 
L 229.377183 298.159077 
L 237.588365 300.506961 
L 247.852343 303.805741 
L 250.931536 304.441016 
L 254.010729 304.84139 
L 263.248309 305.839123 
L 269.406695 306.661681 
L 272.485889 306.882531 
L 276.59148 306.952245 
L 283.776264 306.99363 
L 303.277821 307.57949 
L 304.304219 307.581219 
L 304.304219 307.581219 
" style="fill:none;stroke:#ff7f0e;stroke-linecap:round;stroke-width:1.5;"/>
   </g>
   <g id="line2d_34">
    <path clip-path="url(#p9dda025f07)" d="M 95.142797 307.581839 
L 107.093404 307.473593 
L 112.525499 307.230835 
L 115.784755 306.900284 
L 117.957593 306.532666 
L 120.130431 306.001814 
L 122.303269 305.28195 
L 124.476106 304.369481 
L 127.735363 302.680529 
L 130.99462 300.669753 
L 134.253876 298.308871 
L 136.426714 296.463177 
L 138.599552 294.334282 
L 140.772389 291.892772 
L 142.945227 289.153312 
L 146.204484 284.61297 
L 152.722997 274.878658 
L 157.068673 268.615559 
L 159.24151 265.770731 
L 161.414348 263.211525 
L 163.587186 260.993051 
L 165.760024 259.164396 
L 167.932861 257.775589 
L 169.01928 257.261294 
L 170.105699 256.873795 
L 171.192118 256.616586 
L 172.278537 256.491597 
L 173.364956 256.499063 
L 174.451375 256.637455 
L 175.537794 256.903377 
L 177.710631 257.793679 
L 179.883469 259.096529 
L 182.056307 260.694478 
L 188.57482 265.74626 
L 191.834077 267.80305 
L 197.266171 271.036915 
L 199.439009 272.673171 
L 201.611847 274.687382 
L 203.784684 277.108881 
L 205.957522 279.868629 
L 211.389617 287.113317 
L 213.562454 289.656787 
L 215.735292 291.829362 
L 217.90813 293.623287 
L 220.080968 295.075455 
L 222.253805 296.232612 
L 224.426643 297.137089 
L 226.599481 297.835805 
L 230.945156 298.898588 
L 235.290832 300.037228 
L 245.068602 303.004212 
L 248.327858 303.568064 
L 251.587115 303.885298 
L 258.105628 304.417765 
L 262.451304 305.090133 
L 270.056236 306.393523 
L 274.401911 306.82745 
L 279.834006 307.101921 
L 286.352519 307.166066 
L 293.957451 307.227876 
L 309.167316 307.573838 
L 311.340153 307.579924 
L 311.340153 307.579924 
" style="fill:none;stroke:#1f77b4;stroke-linecap:round;stroke-width:1.5;"/>
   </g>
   <g id="line2d_35">
    <path clip-path="url(#p9dda025f07)" d="M 125.332415 307.580297 
L 137.657776 307.449696 
L 144.505199 307.155485 
L 149.983137 306.721227 
L 154.09159 306.154664 
L 156.830559 305.583835 
L 159.569528 304.827716 
L 163.677982 303.38286 
L 170.525404 300.585743 
L 177.372827 297.637546 
L 180.111796 296.255899 
L 182.850765 294.614648 
L 185.589734 292.634411 
L 188.328703 290.295343 
L 191.067672 287.654438 
L 203.393033 275.184516 
L 206.132002 272.808964 
L 208.870971 270.721221 
L 211.60994 269.00093 
L 214.348909 267.707375 
L 217.087878 266.853792 
L 219.826847 266.409217 
L 222.565816 266.326076 
L 225.304785 266.568209 
L 228.043754 267.114656 
L 230.782723 267.937923 
L 233.521693 268.979765 
L 241.7386 272.552108 
L 247.216538 275.000537 
L 249.955507 276.432305 
L 252.694476 278.124757 
L 255.433445 280.104052 
L 259.541898 283.447127 
L 263.650352 286.756343 
L 266.389321 288.677229 
L 269.12829 290.294375 
L 271.867259 291.655829 
L 278.714682 294.631411 
L 285.562104 297.767115 
L 292.409527 300.950137 
L 295.148496 302.046344 
L 297.887465 302.941163 
L 300.626434 303.606715 
L 303.365403 304.063206 
L 307.473857 304.489758 
L 315.690764 305.229109 
L 328.016125 306.587963 
L 334.863547 306.975817 
L 343.080454 307.204402 
L 363.622722 307.422202 
L 397.859835 307.58219 
L 397.859835 307.58219 
" style="fill:none;stroke:#d62728;stroke-linecap:round;stroke-width:1.5;"/>
   </g>
   <g id="line2d_36">
    <path clip-path="url(#p9dda025f07)" d="M 107.390938 307.582223 
L 124.944486 307.470777 
L 149.812012 307.074145 
L 154.200399 306.687006 
L 157.12599 306.268718 
L 160.051582 305.677172 
L 162.977173 304.881967 
L 165.902764 303.866898 
L 168.828356 302.630028 
L 171.753947 301.179551 
L 174.679538 299.52778 
L 177.60513 297.684598 
L 180.530721 295.653319 
L 184.919108 292.25888 
L 189.307495 288.517326 
L 201.00986 278.278489 
L 205.398247 274.755998 
L 208.323838 272.656727 
L 211.24943 270.870614 
L 214.175021 269.473375 
L 217.100612 268.487947 
L 220.026203 267.885568 
L 222.951795 267.611808 
L 225.877386 267.613346 
L 228.802977 267.847883 
L 231.728569 268.284793 
L 234.65416 268.916929 
L 237.579751 269.783202 
L 240.505343 270.969447 
L 243.430934 272.557933 
L 246.356525 274.543649 
L 253.670503 280.045233 
L 256.596095 281.828626 
L 259.521686 283.230349 
L 266.835664 286.309059 
L 269.761256 287.969208 
L 272.686847 289.967577 
L 280.000825 295.246249 
L 282.926416 296.963347 
L 285.852008 298.341694 
L 288.777599 299.42774 
L 291.70319 300.300745 
L 296.091577 301.377432 
L 313.645125 305.331335 
L 316.570716 305.725631 
L 320.959103 306.038319 
L 328.273082 306.189843 
L 335.58706 306.415112 
L 354.603403 307.299694 
L 367.768564 307.344354 
L 382.396521 307.484504 
L 397.024477 307.580996 
L 398.487273 307.582218 
L 398.487273 307.582218 
" style="fill:none;stroke:#2ca02c;stroke-linecap:round;stroke-width:1.5;"/>
   </g>
   <g id="line2d_37">
    <path clip-path="url(#p9dda025f07)" d="M 137.134465 307.581685 
L 147.978958 307.483284 
L 152.798732 307.25874 
L 156.413563 306.922658 
L 160.028394 306.40728 
L 164.848169 305.471666 
L 169.667944 304.282587 
L 172.077831 303.512525 
L 174.487719 302.51965 
L 176.897606 301.214009 
L 179.307493 299.532753 
L 181.717381 297.456885 
L 184.127268 295.005148 
L 186.537155 292.21344 
L 188.947043 289.117769 
L 192.561874 283.983553 
L 197.381648 276.553721 
L 200.996479 271.063756 
L 203.406367 267.751332 
L 205.816254 264.905268 
L 207.021198 263.69736 
L 208.226141 262.648874 
L 209.431085 261.768322 
L 210.636029 261.061416 
L 211.840972 260.530919 
L 213.045916 260.176327 
L 214.25086 259.993446 
L 215.455803 259.973997 
L 216.660747 260.105455 
L 217.865691 260.371282 
L 220.275578 261.224731 
L 222.685465 262.361068 
L 228.710184 265.598198 
L 233.529959 268.399706 
L 238.349733 271.551021 
L 247.989283 278.219559 
L 258.833776 286.109004 
L 261.243663 287.530579 
L 263.65355 288.752147 
L 267.268381 290.314306 
L 272.088156 292.324273 
L 275.702987 294.084098 
L 280.522762 296.782367 
L 285.342536 299.419015 
L 287.752424 300.542899 
L 290.162311 301.486953 
L 292.572199 302.248506 
L 296.18703 303.100444 
L 301.006804 303.912406 
L 320.285903 306.718031 
L 325.105678 307.013775 
L 335.950171 307.352189 
L 343.179833 307.394709 
L 357.639157 307.285918 
L 373.303425 307.57396 
L 376.918256 307.581557 
L 376.918256 307.581557 
" style="fill:none;stroke:#ff7f0e;stroke-linecap:round;stroke-width:1.5;"/>
   </g>
   <g id="line2d_38">
    <path clip-path="url(#p9dda025f07)" d="M 136.23387 307.579272 
L 145.513116 307.469412 
L 150.152739 307.20088 
L 153.632457 306.774528 
L 157.112174 306.073538 
L 160.591891 305.059916 
L 164.071609 303.734995 
L 167.551326 302.109814 
L 171.031044 300.17841 
L 174.510761 297.939036 
L 177.990478 295.440055 
L 182.630101 291.853513 
L 187.269725 288.030128 
L 191.909348 283.853082 
L 198.868782 277.357051 
L 201.188594 275.422763 
L 203.508406 273.704382 
L 205.828217 272.208911 
L 209.307934 270.322889 
L 212.787652 268.759127 
L 216.267369 267.492567 
L 218.587181 266.870681 
L 220.906992 266.492255 
L 223.226804 266.40377 
L 225.546615 266.623152 
L 227.866427 267.135948 
L 230.186239 267.905946 
L 232.50605 268.893068 
L 234.825862 270.068449 
L 237.145673 271.419423 
L 240.625391 273.767535 
L 244.105108 276.456249 
L 251.064543 282.077535 
L 253.384354 283.708447 
L 255.704166 285.101561 
L 258.023977 286.235562 
L 260.343789 287.127622 
L 263.823506 288.131971 
L 269.623035 289.646621 
L 271.942847 290.467148 
L 274.262658 291.498268 
L 276.58247 292.735158 
L 281.222093 295.573558 
L 284.70181 297.65492 
L 287.021622 298.869144 
L 289.341434 299.898288 
L 291.661245 300.738371 
L 295.140962 301.687383 
L 298.62068 302.3572 
L 304.420209 303.158148 
L 311.379643 304.130127 
L 321.818795 305.737688 
L 325.298513 306.034568 
L 329.938136 306.209937 
L 338.057476 306.475189 
L 357.775875 307.524276 
L 367.055121 307.580969 
L 367.055121 307.580969 
" style="fill:none;stroke:#1f77b4;stroke-linecap:round;stroke-width:1.5;"/>
   </g>
   <g id="patch_3">
    <path d="M 57.6 307.584 
L 57.6 41.472 
" style="fill:none;stroke:#ffffff;stroke-linecap:square;stroke-linejoin:miter;stroke-width:0.8;"/>
   </g>
   <g id="patch_4">
    <path d="M 414.72 307.584 
L 414.72 41.472 
" style="fill:none;stroke:#ffffff;stroke-linecap:square;stroke-linejoin:miter;stroke-width:0.8;"/>
   </g>
   <g id="patch_5">
    <path d="M 57.6 307.584 
L 414.72 307.584 
" style="fill:none;stroke:#ffffff;stroke-linecap:square;stroke-linejoin:miter;stroke-width:0.8;"/>
   </g>
   <g id="patch_6">
    <path d="M 57.6 41.472 
L 414.72 41.472 
" style="fill:none;stroke:#ffffff;stroke-linecap:square;stroke-linejoin:miter;stroke-width:0.8;"/>
   </g>
   <g id="text_20">
    <!-- Density plots of PG(h, 0) using each method for h $\in$ {1,4,7,10,15}. -->
    <g style="fill:#262626;" transform="translate(32.22 35.472)scale(0.12 -0.12)">
     <defs>
      <path id="DejaVuSans-32"/>
      <path d="M 18.109375 8.203125 
L 18.109375 -20.796875 
L 9.078125 -20.796875 
L 9.078125 54.6875 
L 18.109375 54.6875 
L 18.109375 46.390625 
Q 20.953125 51.265625 25.265625 53.625 
Q 29.59375 56 35.59375 56 
Q 45.5625 56 51.78125 48.09375 
Q 58.015625 40.1875 58.015625 27.296875 
Q 58.015625 14.40625 51.78125 6.484375 
Q 45.5625 -1.421875 35.59375 -1.421875 
Q 29.59375 -1.421875 25.265625 0.953125 
Q 20.953125 3.328125 18.109375 8.203125 
z
M 48.6875 27.296875 
Q 48.6875 37.203125 44.609375 42.84375 
Q 40.53125 48.484375 33.40625 48.484375 
Q 26.265625 48.484375 22.1875 42.84375 
Q 18.109375 37.203125 18.109375 27.296875 
Q 18.109375 17.390625 22.1875 11.75 
Q 26.265625 6.109375 33.40625 6.109375 
Q 40.53125 6.109375 44.609375 11.75 
Q 48.6875 17.390625 48.6875 27.296875 
z
" id="DejaVuSans-112"/>
      <path d="M 9.421875 75.984375 
L 18.40625 75.984375 
L 18.40625 0 
L 9.421875 0 
z
" id="DejaVuSans-108"/>
      <path d="M 30.609375 48.390625 
Q 23.390625 48.390625 19.1875 42.75 
Q 14.984375 37.109375 14.984375 27.296875 
Q 14.984375 17.484375 19.15625 11.84375 
Q 23.34375 6.203125 30.609375 6.203125 
Q 37.796875 6.203125 41.984375 11.859375 
Q 46.1875 17.53125 46.1875 27.296875 
Q 46.1875 37.015625 41.984375 42.703125 
Q 37.796875 48.390625 30.609375 48.390625 
z
M 30.609375 56 
Q 42.328125 56 49.015625 48.375 
Q 55.71875 40.765625 55.71875 27.296875 
Q 55.71875 13.875 49.015625 6.21875 
Q 42.328125 -1.421875 30.609375 -1.421875 
Q 18.84375 -1.421875 12.171875 6.21875 
Q 5.515625 13.875 5.515625 27.296875 
Q 5.515625 40.765625 12.171875 48.375 
Q 18.84375 56 30.609375 56 
z
" id="DejaVuSans-111"/>
      <path d="M 37.109375 75.984375 
L 37.109375 68.5 
L 28.515625 68.5 
Q 23.6875 68.5 21.796875 66.546875 
Q 19.921875 64.59375 19.921875 59.515625 
L 19.921875 54.6875 
L 34.71875 54.6875 
L 34.71875 47.703125 
L 19.921875 47.703125 
L 19.921875 0 
L 10.890625 0 
L 10.890625 47.703125 
L 2.296875 47.703125 
L 2.296875 54.6875 
L 10.890625 54.6875 
L 10.890625 58.5 
Q 10.890625 67.625 15.140625 71.796875 
Q 19.390625 75.984375 28.609375 75.984375 
z
" id="DejaVuSans-102"/>
      <path d="M 19.671875 64.796875 
L 19.671875 37.40625 
L 32.078125 37.40625 
Q 38.96875 37.40625 42.71875 40.96875 
Q 46.484375 44.53125 46.484375 51.125 
Q 46.484375 57.671875 42.71875 61.234375 
Q 38.96875 64.796875 32.078125 64.796875 
z
M 9.8125 72.90625 
L 32.078125 72.90625 
Q 44.34375 72.90625 50.609375 67.359375 
Q 56.890625 61.8125 56.890625 51.125 
Q 56.890625 40.328125 50.609375 34.8125 
Q 44.34375 29.296875 32.078125 29.296875 
L 19.671875 29.296875 
L 19.671875 0 
L 9.8125 0 
z
" id="DejaVuSans-80"/>
      <path d="M 59.515625 10.40625 
L 59.515625 29.984375 
L 43.40625 29.984375 
L 43.40625 38.09375 
L 69.28125 38.09375 
L 69.28125 6.78125 
Q 63.578125 2.734375 56.6875 0.65625 
Q 49.8125 -1.421875 42 -1.421875 
Q 24.90625 -1.421875 15.25 8.5625 
Q 5.609375 18.5625 5.609375 36.375 
Q 5.609375 54.25 15.25 64.234375 
Q 24.90625 74.21875 42 74.21875 
Q 49.125 74.21875 55.546875 72.453125 
Q 61.96875 70.703125 67.390625 67.28125 
L 67.390625 56.78125 
Q 61.921875 61.421875 55.765625 63.765625 
Q 49.609375 66.109375 42.828125 66.109375 
Q 29.4375 66.109375 22.71875 58.640625 
Q 16.015625 51.171875 16.015625 36.375 
Q 16.015625 21.625 22.71875 14.15625 
Q 29.4375 6.6875 42.828125 6.6875 
Q 48.046875 6.6875 52.140625 7.59375 
Q 56.25 8.5 59.515625 10.40625 
z
" id="DejaVuSans-71"/>
      <path d="M 31 75.875 
Q 24.46875 64.65625 21.28125 53.65625 
Q 18.109375 42.671875 18.109375 31.390625 
Q 18.109375 20.125 21.3125 9.0625 
Q 24.515625 -2 31 -13.1875 
L 23.1875 -13.1875 
Q 15.875 -1.703125 12.234375 9.375 
Q 8.59375 20.453125 8.59375 31.390625 
Q 8.59375 42.28125 12.203125 53.3125 
Q 15.828125 64.359375 23.1875 75.875 
z
" id="DejaVuSans-40"/>
      <path d="M 54.890625 33.015625 
L 54.890625 0 
L 45.90625 0 
L 45.90625 32.71875 
Q 45.90625 40.484375 42.875 44.328125 
Q 39.84375 48.1875 33.796875 48.1875 
Q 26.515625 48.1875 22.3125 43.546875 
Q 18.109375 38.921875 18.109375 30.90625 
L 18.109375 0 
L 9.078125 0 
L 9.078125 75.984375 
L 18.109375 75.984375 
L 18.109375 46.1875 
Q 21.34375 51.125 25.703125 53.5625 
Q 30.078125 56 35.796875 56 
Q 45.21875 56 50.046875 50.171875 
Q 54.890625 44.34375 54.890625 33.015625 
z
" id="DejaVuSans-104"/>
      <path d="M 11.71875 12.40625 
L 22.015625 12.40625 
L 22.015625 4 
L 14.015625 -11.625 
L 7.71875 -11.625 
L 11.71875 4 
z
" id="DejaVuSans-44"/>
      <path d="M 8.015625 75.875 
L 15.828125 75.875 
Q 23.140625 64.359375 26.78125 53.3125 
Q 30.421875 42.28125 30.421875 31.390625 
Q 30.421875 20.453125 26.78125 9.375 
Q 23.140625 -1.703125 15.828125 -13.1875 
L 8.015625 -13.1875 
Q 14.5 -2 17.703125 9.0625 
Q 20.90625 20.125 20.90625 31.390625 
Q 20.90625 42.671875 17.703125 53.65625 
Q 14.5 64.65625 8.015625 75.875 
z
" id="DejaVuSans-41"/>
      <path d="M 8.5 21.578125 
L 8.5 54.6875 
L 17.484375 54.6875 
L 17.484375 21.921875 
Q 17.484375 14.15625 20.5 10.265625 
Q 23.53125 6.390625 29.59375 6.390625 
Q 36.859375 6.390625 41.078125 11.03125 
Q 45.3125 15.671875 45.3125 23.6875 
L 45.3125 54.6875 
L 54.296875 54.6875 
L 54.296875 0 
L 45.3125 0 
L 45.3125 8.40625 
Q 42.046875 3.421875 37.71875 1 
Q 33.40625 -1.421875 27.6875 -1.421875 
Q 18.265625 -1.421875 13.375 4.4375 
Q 8.5 10.296875 8.5 21.578125 
z
M 31.109375 56 
z
" id="DejaVuSans-117"/>
      <path d="M 45.40625 27.984375 
Q 45.40625 37.75 41.375 43.109375 
Q 37.359375 48.484375 30.078125 48.484375 
Q 22.859375 48.484375 18.828125 43.109375 
Q 14.796875 37.75 14.796875 27.984375 
Q 14.796875 18.265625 18.828125 12.890625 
Q 22.859375 7.515625 30.078125 7.515625 
Q 37.359375 7.515625 41.375 12.890625 
Q 45.40625 18.265625 45.40625 27.984375 
z
M 54.390625 6.78125 
Q 54.390625 -7.171875 48.1875 -13.984375 
Q 42 -20.796875 29.203125 -20.796875 
Q 24.46875 -20.796875 20.265625 -20.09375 
Q 16.0625 -19.390625 12.109375 -17.921875 
L 12.109375 -9.1875 
Q 16.0625 -11.328125 19.921875 -12.34375 
Q 23.78125 -13.375 27.78125 -13.375 
Q 36.625 -13.375 41.015625 -8.765625 
Q 45.40625 -4.15625 45.40625 5.171875 
L 45.40625 9.625 
Q 42.625 4.78125 38.28125 2.390625 
Q 33.9375 0 27.875 0 
Q 17.828125 0 11.671875 7.65625 
Q 5.515625 15.328125 5.515625 27.984375 
Q 5.515625 40.671875 11.671875 48.328125 
Q 17.828125 56 27.875 56 
Q 33.9375 56 38.28125 53.609375 
Q 42.625 51.21875 45.40625 46.390625 
L 45.40625 54.6875 
L 54.390625 54.6875 
z
" id="DejaVuSans-103"/>
      <path d="M 34.28125 27.484375 
Q 23.390625 27.484375 19.1875 25 
Q 14.984375 22.515625 14.984375 16.5 
Q 14.984375 11.71875 18.140625 8.90625 
Q 21.296875 6.109375 26.703125 6.109375 
Q 34.1875 6.109375 38.703125 11.40625 
Q 43.21875 16.703125 43.21875 25.484375 
L 43.21875 27.484375 
z
M 52.203125 31.203125 
L 52.203125 0 
L 43.21875 0 
L 43.21875 8.296875 
Q 40.140625 3.328125 35.546875 0.953125 
Q 30.953125 -1.421875 24.3125 -1.421875 
Q 15.921875 -1.421875 10.953125 3.296875 
Q 6 8.015625 6 15.921875 
Q 6 25.140625 12.171875 29.828125 
Q 18.359375 34.515625 30.609375 34.515625 
L 43.21875 34.515625 
L 43.21875 35.40625 
Q 43.21875 41.609375 39.140625 45 
Q 35.0625 48.390625 27.6875 48.390625 
Q 23 48.390625 18.546875 47.265625 
Q 14.109375 46.140625 10.015625 43.890625 
L 10.015625 52.203125 
Q 14.9375 54.109375 19.578125 55.046875 
Q 24.21875 56 28.609375 56 
Q 40.484375 56 46.34375 49.84375 
Q 52.203125 43.703125 52.203125 31.203125 
z
" id="DejaVuSans-97"/>
      <path d="M 48.78125 52.59375 
L 48.78125 44.1875 
Q 44.96875 46.296875 41.140625 47.34375 
Q 37.3125 48.390625 33.40625 48.390625 
Q 24.65625 48.390625 19.8125 42.84375 
Q 14.984375 37.3125 14.984375 27.296875 
Q 14.984375 17.28125 19.8125 11.734375 
Q 24.65625 6.203125 33.40625 6.203125 
Q 37.3125 6.203125 41.140625 7.25 
Q 44.96875 8.296875 48.78125 10.40625 
L 48.78125 2.09375 
Q 45.015625 0.34375 40.984375 -0.53125 
Q 36.96875 -1.421875 32.421875 -1.421875 
Q 20.0625 -1.421875 12.78125 6.34375 
Q 5.515625 14.109375 5.515625 27.296875 
Q 5.515625 40.671875 12.859375 48.328125 
Q 20.21875 56 33.015625 56 
Q 37.15625 56 41.109375 55.140625 
Q 45.0625 54.296875 48.78125 52.59375 
z
" id="DejaVuSans-99"/>
      <path d="M 52 44.1875 
Q 55.375 50.25 60.0625 53.125 
Q 64.75 56 71.09375 56 
Q 79.640625 56 84.28125 50.015625 
Q 88.921875 44.046875 88.921875 33.015625 
L 88.921875 0 
L 79.890625 0 
L 79.890625 32.71875 
Q 79.890625 40.578125 77.09375 44.375 
Q 74.3125 48.1875 68.609375 48.1875 
Q 61.625 48.1875 57.5625 43.546875 
Q 53.515625 38.921875 53.515625 30.90625 
L 53.515625 0 
L 44.484375 0 
L 44.484375 32.71875 
Q 44.484375 40.625 41.703125 44.40625 
Q 38.921875 48.1875 33.109375 48.1875 
Q 26.21875 48.1875 22.15625 43.53125 
Q 18.109375 38.875 18.109375 30.90625 
L 18.109375 0 
L 9.078125 0 
L 9.078125 54.6875 
L 18.109375 54.6875 
L 18.109375 46.1875 
Q 21.1875 51.21875 25.484375 53.609375 
Q 29.78125 56 35.6875 56 
Q 41.65625 56 45.828125 52.96875 
Q 50 49.953125 52 44.1875 
z
" id="DejaVuSans-109"/>
      <path d="M 45.40625 46.390625 
L 45.40625 75.984375 
L 54.390625 75.984375 
L 54.390625 0 
L 45.40625 0 
L 45.40625 8.203125 
Q 42.578125 3.328125 38.25 0.953125 
Q 33.9375 -1.421875 27.875 -1.421875 
Q 17.96875 -1.421875 11.734375 6.484375 
Q 5.515625 14.40625 5.515625 27.296875 
Q 5.515625 40.1875 11.734375 48.09375 
Q 17.96875 56 27.875 56 
Q 33.9375 56 38.25 53.625 
Q 42.578125 51.265625 45.40625 46.390625 
z
M 14.796875 27.296875 
Q 14.796875 17.390625 18.875 11.75 
Q 22.953125 6.109375 30.078125 6.109375 
Q 37.203125 6.109375 41.296875 11.75 
Q 45.40625 17.390625 45.40625 27.296875 
Q 45.40625 37.203125 41.296875 42.84375 
Q 37.203125 48.484375 30.078125 48.484375 
Q 22.953125 48.484375 18.875 42.84375 
Q 14.796875 37.203125 14.796875 27.296875 
z
" id="DejaVuSans-100"/>
      <path d="M 41.109375 46.296875 
Q 39.59375 47.171875 37.8125 47.578125 
Q 36.03125 48 33.890625 48 
Q 26.265625 48 22.1875 43.046875 
Q 18.109375 38.09375 18.109375 28.8125 
L 18.109375 0 
L 9.078125 0 
L 9.078125 54.6875 
L 18.109375 54.6875 
L 18.109375 46.1875 
Q 20.953125 51.171875 25.484375 53.578125 
Q 30.03125 56 36.53125 56 
Q 37.453125 56 38.578125 55.875 
Q 39.703125 55.765625 41.0625 55.515625 
z
" id="DejaVuSans-114"/>
      <path d="M 16.75 30.609375 
Q 17.09375 27 20.171875 21.140625 
Q 23.78125 14.359375 30.609375 10.546875 
Q 37.3125 6.84375 44.53125 6.78125 
L 78.5625 6.78125 
L 78.5625 -0.984375 
L 44.53125 -0.984375 
Q 35.15625 -0.984375 26.484375 3.84375 
Q 17.828125 8.6875 13.1875 17.28125 
Q 8.546875 25.875 8.546875 35.015625 
Q 8.546875 44.046875 13.1875 52.640625 
Q 17.828125 61.234375 26.484375 66.109375 
Q 35.15625 71 44.53125 71 
L 78.5625 71 
L 78.5625 63.234375 
L 44.53125 63.234375 
Q 37.3125 63.1875 30.609375 59.421875 
Q 23.828125 55.5625 20.171875 48.828125 
Q 17.046875 42.96875 16.609375 38.421875 
L 78.5625 38.421875 
L 78.5625 30.609375 
z
" id="DejaVuSans-8712"/>
      <path d="M 51.125 -9.28125 
L 51.125 -16.3125 
L 48.09375 -16.3125 
Q 35.9375 -16.3125 31.8125 -12.6875 
Q 27.6875 -9.078125 27.6875 1.703125 
L 27.6875 13.375 
Q 27.6875 20.75 25.046875 23.578125 
Q 22.40625 26.421875 15.484375 26.421875 
L 12.5 26.421875 
L 12.5 33.40625 
L 15.484375 33.40625 
Q 22.46875 33.40625 25.078125 36.203125 
Q 27.6875 39.015625 27.6875 46.296875 
L 27.6875 58.015625 
Q 27.6875 68.796875 31.8125 72.390625 
Q 35.9375 75.984375 48.09375 75.984375 
L 51.125 75.984375 
L 51.125 69 
L 47.796875 69 
Q 40.921875 69 38.8125 66.84375 
Q 36.71875 64.703125 36.71875 57.8125 
L 36.71875 45.703125 
Q 36.71875 38.03125 34.5 34.5625 
Q 32.28125 31.109375 26.90625 29.890625 
Q 32.328125 28.5625 34.515625 25.09375 
Q 36.71875 21.625 36.71875 14.015625 
L 36.71875 1.90625 
Q 36.71875 -4.984375 38.8125 -7.125 
Q 40.921875 -9.28125 47.796875 -9.28125 
z
" id="DejaVuSans-123"/>
      <path d="M 12.5 -9.28125 
L 15.921875 -9.28125 
Q 22.75 -9.28125 24.828125 -7.171875 
Q 26.90625 -5.078125 26.90625 1.90625 
L 26.90625 14.015625 
Q 26.90625 21.625 29.09375 25.09375 
Q 31.296875 28.5625 36.71875 29.890625 
Q 31.296875 31.109375 29.09375 34.5625 
Q 26.90625 38.03125 26.90625 45.703125 
L 26.90625 57.8125 
Q 26.90625 64.75 24.828125 66.875 
Q 22.75 69 15.921875 69 
L 12.5 69 
L 12.5 75.984375 
L 15.578125 75.984375 
Q 27.734375 75.984375 31.8125 72.390625 
Q 35.890625 68.796875 35.890625 58.015625 
L 35.890625 46.296875 
Q 35.890625 39.015625 38.515625 36.203125 
Q 41.15625 33.40625 48.09375 33.40625 
L 51.125 33.40625 
L 51.125 26.421875 
L 48.09375 26.421875 
Q 41.15625 26.421875 38.515625 23.578125 
Q 35.890625 20.75 35.890625 13.375 
L 35.890625 1.703125 
Q 35.890625 -9.078125 31.8125 -12.6875 
Q 27.734375 -16.3125 15.578125 -16.3125 
L 12.5 -16.3125 
z
" id="DejaVuSans-125"/>
     </defs>
     <use transform="translate(0 0.015625)" xlink:href="#DejaVuSans-68"/>
     <use transform="translate(77.001953 0.015625)" xlink:href="#DejaVuSans-101"/>
     <use transform="translate(138.525391 0.015625)" xlink:href="#DejaVuSans-110"/>
     <use transform="translate(201.904297 0.015625)" xlink:href="#DejaVuSans-115"/>
     <use transform="translate(254.003906 0.015625)" xlink:href="#DejaVuSans-105"/>
     <use transform="translate(281.787109 0.015625)" xlink:href="#DejaVuSans-116"/>
     <use transform="translate(320.996094 0.015625)" xlink:href="#DejaVuSans-121"/>
     <use transform="translate(380.175781 0.015625)" xlink:href="#DejaVuSans-32"/>
     <use transform="translate(411.962891 0.015625)" xlink:href="#DejaVuSans-112"/>
     <use transform="translate(475.439453 0.015625)" xlink:href="#DejaVuSans-108"/>
     <use transform="translate(503.222656 0.015625)" xlink:href="#DejaVuSans-111"/>
     <use transform="translate(564.404297 0.015625)" xlink:href="#DejaVuSans-116"/>
     <use transform="translate(603.613281 0.015625)" xlink:href="#DejaVuSans-115"/>
     <use transform="translate(655.712891 0.015625)" xlink:href="#DejaVuSans-32"/>
     <use transform="translate(687.5 0.015625)" xlink:href="#DejaVuSans-111"/>
     <use transform="translate(748.681641 0.015625)" xlink:href="#DejaVuSans-102"/>
     <use transform="translate(783.886719 0.015625)" xlink:href="#DejaVuSans-32"/>
     <use transform="translate(815.673828 0.015625)" xlink:href="#DejaVuSans-80"/>
     <use transform="translate(875.976562 0.015625)" xlink:href="#DejaVuSans-71"/>
     <use transform="translate(953.466797 0.015625)" xlink:href="#DejaVuSans-40"/>
     <use transform="translate(992.480469 0.015625)" xlink:href="#DejaVuSans-104"/>
     <use transform="translate(1055.859375 0.015625)" xlink:href="#DejaVuSans-44"/>
     <use transform="translate(1087.646484 0.015625)" xlink:href="#DejaVuSans-32"/>
     <use transform="translate(1119.433594 0.015625)" xlink:href="#DejaVuSans-48"/>
     <use transform="translate(1183.056641 0.015625)" xlink:href="#DejaVuSans-41"/>
     <use transform="translate(1222.070312 0.015625)" xlink:href="#DejaVuSans-32"/>
     <use transform="translate(1253.857422 0.015625)" xlink:href="#DejaVuSans-117"/>
     <use transform="translate(1317.236328 0.015625)" xlink:href="#DejaVuSans-115"/>
     <use transform="translate(1369.335938 0.015625)" xlink:href="#DejaVuSans-105"/>
     <use transform="translate(1397.119141 0.015625)" xlink:href="#DejaVuSans-110"/>
     <use transform="translate(1460.498047 0.015625)" xlink:href="#DejaVuSans-103"/>
     <use transform="translate(1523.974609 0.015625)" xlink:href="#DejaVuSans-32"/>
     <use transform="translate(1555.761719 0.015625)" xlink:href="#DejaVuSans-101"/>
     <use transform="translate(1617.285156 0.015625)" xlink:href="#DejaVuSans-97"/>
     <use transform="translate(1678.564453 0.015625)" xlink:href="#DejaVuSans-99"/>
     <use transform="translate(1733.544922 0.015625)" xlink:href="#DejaVuSans-104"/>
     <use transform="translate(1796.923828 0.015625)" xlink:href="#DejaVuSans-32"/>
     <use transform="translate(1828.710938 0.015625)" xlink:href="#DejaVuSans-109"/>
     <use transform="translate(1926.123047 0.015625)" xlink:href="#DejaVuSans-101"/>
     <use transform="translate(1987.646484 0.015625)" xlink:href="#DejaVuSans-116"/>
     <use transform="translate(2026.855469 0.015625)" xlink:href="#DejaVuSans-104"/>
     <use transform="translate(2090.234375 0.015625)" xlink:href="#DejaVuSans-111"/>
     <use transform="translate(2151.416016 0.015625)" xlink:href="#DejaVuSans-100"/>
     <use transform="translate(2214.892578 0.015625)" xlink:href="#DejaVuSans-32"/>
     <use transform="translate(2246.679688 0.015625)" xlink:href="#DejaVuSans-102"/>
     <use transform="translate(2281.884766 0.015625)" xlink:href="#DejaVuSans-111"/>
     <use transform="translate(2343.066406 0.015625)" xlink:href="#DejaVuSans-114"/>
     <use transform="translate(2384.179688 0.015625)" xlink:href="#DejaVuSans-32"/>
     <use transform="translate(2415.966797 0.015625)" xlink:href="#DejaVuSans-104"/>
     <use transform="translate(2479.345703 0.015625)" xlink:href="#DejaVuSans-32"/>
     <use transform="translate(2530.615234 0.015625)" xlink:href="#DejaVuSans-8712"/>
     <use transform="translate(2637.207031 0.015625)" xlink:href="#DejaVuSans-32"/>
     <use transform="translate(2668.994141 0.015625)" xlink:href="#DejaVuSans-123"/>
     <use transform="translate(2732.617188 0.015625)" xlink:href="#DejaVuSans-49"/>
     <use transform="translate(2796.240234 0.015625)" xlink:href="#DejaVuSans-44"/>
     <use transform="translate(2828.027344 0.015625)" xlink:href="#DejaVuSans-52"/>
     <use transform="translate(2891.650391 0.015625)" xlink:href="#DejaVuSans-44"/>
     <use transform="translate(2923.4375 0.015625)" xlink:href="#DejaVuSans-55"/>
     <use transform="translate(2987.060547 0.015625)" xlink:href="#DejaVuSans-44"/>
     <use transform="translate(3018.847656 0.015625)" xlink:href="#DejaVuSans-49"/>
     <use transform="translate(3082.470703 0.015625)" xlink:href="#DejaVuSans-48"/>
     <use transform="translate(3146.09375 0.015625)" xlink:href="#DejaVuSans-44"/>
     <use transform="translate(3177.880859 0.015625)" xlink:href="#DejaVuSans-49"/>
     <use transform="translate(3241.503906 0.015625)" xlink:href="#DejaVuSans-53"/>
     <use transform="translate(3303.376953 0.015625)" xlink:href="#DejaVuSans-125"/>
     <use transform="translate(3367 0.015625)" xlink:href="#DejaVuSans-46"/>
    </g>
   </g>
   <g id="legend_1">
    <g id="patch_7">
     <path d="M 330.265313 108.1845 
L 407.72 108.1845 
Q 409.72 108.1845 409.72 106.1845 
L 409.72 48.472 
Q 409.72 46.472 407.72 46.472 
L 330.265313 46.472 
Q 328.265313 46.472 328.265313 48.472 
L 328.265313 106.1845 
Q 328.265313 108.1845 330.265313 108.1845 
z
" style="fill:#eaeaf2;opacity:0.8;stroke:#cccccc;stroke-linejoin:miter;"/>
    </g>
    <g id="line2d_39">
     <path d="M 332.265313 54.570438 
L 352.265313 54.570438 
" style="fill:none;stroke:#1f77b4;stroke-linecap:round;stroke-width:1.5;"/>
    </g>
    <g id="line2d_40"/>
    <g id="text_21">
     <!-- devroye -->
     <g style="fill:#262626;" transform="translate(360.265313 58.070438)scale(0.1 -0.1)">
      <defs>
       <path d="M 2.984375 54.6875 
L 12.5 54.6875 
L 29.59375 8.796875 
L 46.6875 54.6875 
L 56.203125 54.6875 
L 35.6875 0 
L 23.484375 0 
z
" id="DejaVuSans-118"/>
      </defs>
      <use xlink:href="#DejaVuSans-100"/>
      <use x="63.476562" xlink:href="#DejaVuSans-101"/>
      <use x="125" xlink:href="#DejaVuSans-118"/>
      <use x="184.179688" xlink:href="#DejaVuSans-114"/>
      <use x="223.042969" xlink:href="#DejaVuSans-111"/>
      <use x="284.224609" xlink:href="#DejaVuSans-121"/>
      <use x="343.404297" xlink:href="#DejaVuSans-101"/>
     </g>
    </g>
    <g id="line2d_41">
     <path d="M 332.265313 69.248563 
L 352.265313 69.248563 
" style="fill:none;stroke:#ff7f0e;stroke-linecap:round;stroke-width:1.5;"/>
    </g>
    <g id="line2d_42"/>
    <g id="text_22">
     <!-- alternate -->
     <g style="fill:#262626;" transform="translate(360.265313 72.748563)scale(0.1 -0.1)">
      <use xlink:href="#DejaVuSans-97"/>
      <use x="61.279297" xlink:href="#DejaVuSans-108"/>
      <use x="89.0625" xlink:href="#DejaVuSans-116"/>
      <use x="128.271484" xlink:href="#DejaVuSans-101"/>
      <use x="189.794922" xlink:href="#DejaVuSans-114"/>
      <use x="229.158203" xlink:href="#DejaVuSans-110"/>
      <use x="292.537109" xlink:href="#DejaVuSans-97"/>
      <use x="353.816406" xlink:href="#DejaVuSans-116"/>
      <use x="393.025391" xlink:href="#DejaVuSans-101"/>
     </g>
    </g>
    <g id="line2d_43">
     <path d="M 332.265313 83.926688 
L 352.265313 83.926688 
" style="fill:none;stroke:#2ca02c;stroke-linecap:round;stroke-width:1.5;"/>
    </g>
    <g id="line2d_44"/>
    <g id="text_23">
     <!-- gamma -->
     <g style="fill:#262626;" transform="translate(360.265313 87.426688)scale(0.1 -0.1)">
      <use xlink:href="#DejaVuSans-103"/>
      <use x="63.476562" xlink:href="#DejaVuSans-97"/>
      <use x="124.755859" xlink:href="#DejaVuSans-109"/>
      <use x="222.167969" xlink:href="#DejaVuSans-109"/>
      <use x="319.580078" xlink:href="#DejaVuSans-97"/>
     </g>
    </g>
    <g id="line2d_45">
     <path d="M 332.265313 98.604813 
L 352.265313 98.604813 
" style="fill:none;stroke:#d62728;stroke-linecap:round;stroke-width:1.5;"/>
    </g>
    <g id="line2d_46"/>
    <g id="text_24">
     <!-- saddle -->
     <g style="fill:#262626;" transform="translate(360.265313 102.104813)scale(0.1 -0.1)">
      <use xlink:href="#DejaVuSans-115"/>
      <use x="52.099609" xlink:href="#DejaVuSans-97"/>
      <use x="113.378906" xlink:href="#DejaVuSans-100"/>
      <use x="176.855469" xlink:href="#DejaVuSans-100"/>
      <use x="240.332031" xlink:href="#DejaVuSans-108"/>
      <use x="268.115234" xlink:href="#DejaVuSans-101"/>
     </g>
    </g>
   </g>
  </g>
 </g>
 <defs>
  <clipPath id="p9dda025f07">
   <rect height="266.112" width="357.12" x="57.6" y="41.472"/>
  </clipPath>
 </defs>
</svg>
