<?xml version="1.0" encoding="utf-8" standalone="no"?>
<!DOCTYPE svg PUBLIC "-//W3C//DTD SVG 1.1//EN"
  "http://www.w3.org/Graphics/SVG/1.1/DTD/svg11.dtd">
<!-- Created with matplotlib (https://matplotlib.org/) -->
<svg height="345.6pt" version="1.1" viewBox="0 0 460.8 345.6" width="460.8pt" xmlns="http://www.w3.org/2000/svg" xmlns:xlink="http://www.w3.org/1999/xlink">
 <metadata>
  <rdf:RDF xmlns:cc="http://creativecommons.org/ns#" xmlns:dc="http://purl.org/dc/elements/1.1/" xmlns:rdf="http://www.w3.org/1999/02/22-rdf-syntax-ns#">
   <cc:Work>
    <dc:type rdf:resource="http://purl.org/dc/dcmitype/StillImage"/>
    <dc:date>2021-01-20T19:08:41.140112</dc:date>
    <dc:format>image/svg+xml</dc:format>
    <dc:creator>
     <cc:Agent>
      <dc:title>Matplotlib v3.3.3, https://matplotlib.org/</dc:title>
     </cc:Agent>
    </dc:creator>
   </cc:Work>
  </rdf:RDF>
 </metadata>
 <defs>
  <style type="text/css">*{stroke-linecap:butt;stroke-linejoin:round;}</style>
 </defs>
 <g id="figure_1">
  <g id="patch_1">
   <path d="M 0 345.6 
L 460.8 345.6 
L 460.8 0 
L 0 0 
z
" style="fill:#ffffff;"/>
  </g>
  <g id="axes_1">
   <g id="patch_2">
    <path d="M 57.6 307.584 
L 414.72 307.584 
L 414.72 41.472 
L 57.6 41.472 
z
" style="fill:#eaeaf2;"/>
   </g>
   <g id="matplotlib.axis_1">
    <g id="xtick_1">
     <g id="line2d_1">
      <path clip-path="url(#p8a4df31741)" d="M 79.796286 307.584 
L 79.796286 41.472 
" style="fill:none;stroke:#ffffff;stroke-linecap:round;stroke-width:0.8;"/>
     </g>
     <g id="text_1">
      <!-- 0 -->
      <g style="fill:#262626;" transform="translate(76.615036 322.182437)scale(0.1 -0.1)">
       <defs>
        <path d="M 31.78125 66.40625 
Q 24.171875 66.40625 20.328125 58.90625 
Q 16.5 51.421875 16.5 36.375 
Q 16.5 21.390625 20.328125 13.890625 
Q 24.171875 6.390625 31.78125 6.390625 
Q 39.453125 6.390625 43.28125 13.890625 
Q 47.125 21.390625 47.125 36.375 
Q 47.125 51.421875 43.28125 58.90625 
Q 39.453125 66.40625 31.78125 66.40625 
z
M 31.78125 74.21875 
Q 44.046875 74.21875 50.515625 64.515625 
Q 56.984375 54.828125 56.984375 36.375 
Q 56.984375 17.96875 50.515625 8.265625 
Q 44.046875 -1.421875 31.78125 -1.421875 
Q 19.53125 -1.421875 13.0625 8.265625 
Q 6.59375 17.96875 6.59375 36.375 
Q 6.59375 54.828125 13.0625 64.515625 
Q 19.53125 74.21875 31.78125 74.21875 
z
" id="DejaVuSans-48"/>
       </defs>
       <use xlink:href="#DejaVuSans-48"/>
      </g>
     </g>
    </g>
    <g id="xtick_2">
     <g id="line2d_2">
      <path clip-path="url(#p8a4df31741)" d="M 123.799733 307.584 
L 123.799733 41.472 
" style="fill:none;stroke:#ffffff;stroke-linecap:round;stroke-width:0.8;"/>
     </g>
     <g id="text_2">
      <!-- 1 -->
      <g style="fill:#262626;" transform="translate(120.618483 322.182437)scale(0.1 -0.1)">
       <defs>
        <path d="M 12.40625 8.296875 
L 28.515625 8.296875 
L 28.515625 63.921875 
L 10.984375 60.40625 
L 10.984375 69.390625 
L 28.421875 72.90625 
L 38.28125 72.90625 
L 38.28125 8.296875 
L 54.390625 8.296875 
L 54.390625 0 
L 12.40625 0 
z
" id="DejaVuSans-49"/>
       </defs>
       <use xlink:href="#DejaVuSans-49"/>
      </g>
     </g>
    </g>
    <g id="xtick_3">
     <g id="line2d_3">
      <path clip-path="url(#p8a4df31741)" d="M 167.80318 307.584 
L 167.80318 41.472 
" style="fill:none;stroke:#ffffff;stroke-linecap:round;stroke-width:0.8;"/>
     </g>
     <g id="text_3">
      <!-- 2 -->
      <g style="fill:#262626;" transform="translate(164.62193 322.182437)scale(0.1 -0.1)">
       <defs>
        <path d="M 19.1875 8.296875 
L 53.609375 8.296875 
L 53.609375 0 
L 7.328125 0 
L 7.328125 8.296875 
Q 12.9375 14.109375 22.625 23.890625 
Q 32.328125 33.6875 34.8125 36.53125 
Q 39.546875 41.84375 41.421875 45.53125 
Q 43.3125 49.21875 43.3125 52.78125 
Q 43.3125 58.59375 39.234375 62.25 
Q 35.15625 65.921875 28.609375 65.921875 
Q 23.96875 65.921875 18.8125 64.3125 
Q 13.671875 62.703125 7.8125 59.421875 
L 7.8125 69.390625 
Q 13.765625 71.78125 18.9375 73 
Q 24.125 74.21875 28.421875 74.21875 
Q 39.75 74.21875 46.484375 68.546875 
Q 53.21875 62.890625 53.21875 53.421875 
Q 53.21875 48.921875 51.53125 44.890625 
Q 49.859375 40.875 45.40625 35.40625 
Q 44.1875 33.984375 37.640625 27.21875 
Q 31.109375 20.453125 19.1875 8.296875 
z
" id="DejaVuSans-50"/>
       </defs>
       <use xlink:href="#DejaVuSans-50"/>
      </g>
     </g>
    </g>
    <g id="xtick_4">
     <g id="line2d_4">
      <path clip-path="url(#p8a4df31741)" d="M 211.806627 307.584 
L 211.806627 41.472 
" style="fill:none;stroke:#ffffff;stroke-linecap:round;stroke-width:0.8;"/>
     </g>
     <g id="text_4">
      <!-- 3 -->
      <g style="fill:#262626;" transform="translate(208.625377 322.182437)scale(0.1 -0.1)">
       <defs>
        <path d="M 40.578125 39.3125 
Q 47.65625 37.796875 51.625 33 
Q 55.609375 28.21875 55.609375 21.1875 
Q 55.609375 10.40625 48.1875 4.484375 
Q 40.765625 -1.421875 27.09375 -1.421875 
Q 22.515625 -1.421875 17.65625 -0.515625 
Q 12.796875 0.390625 7.625 2.203125 
L 7.625 11.71875 
Q 11.71875 9.328125 16.59375 8.109375 
Q 21.484375 6.890625 26.8125 6.890625 
Q 36.078125 6.890625 40.9375 10.546875 
Q 45.796875 14.203125 45.796875 21.1875 
Q 45.796875 27.640625 41.28125 31.265625 
Q 36.765625 34.90625 28.71875 34.90625 
L 20.21875 34.90625 
L 20.21875 43.015625 
L 29.109375 43.015625 
Q 36.375 43.015625 40.234375 45.921875 
Q 44.09375 48.828125 44.09375 54.296875 
Q 44.09375 59.90625 40.109375 62.90625 
Q 36.140625 65.921875 28.71875 65.921875 
Q 24.65625 65.921875 20.015625 65.03125 
Q 15.375 64.15625 9.8125 62.3125 
L 9.8125 71.09375 
Q 15.4375 72.65625 20.34375 73.4375 
Q 25.25 74.21875 29.59375 74.21875 
Q 40.828125 74.21875 47.359375 69.109375 
Q 53.90625 64.015625 53.90625 55.328125 
Q 53.90625 49.265625 50.4375 45.09375 
Q 46.96875 40.921875 40.578125 39.3125 
z
" id="DejaVuSans-51"/>
       </defs>
       <use xlink:href="#DejaVuSans-51"/>
      </g>
     </g>
    </g>
    <g id="xtick_5">
     <g id="line2d_5">
      <path clip-path="url(#p8a4df31741)" d="M 255.810074 307.584 
L 255.810074 41.472 
" style="fill:none;stroke:#ffffff;stroke-linecap:round;stroke-width:0.8;"/>
     </g>
     <g id="text_5">
      <!-- 4 -->
      <g style="fill:#262626;" transform="translate(252.628824 322.182437)scale(0.1 -0.1)">
       <defs>
        <path d="M 37.796875 64.3125 
L 12.890625 25.390625 
L 37.796875 25.390625 
z
M 35.203125 72.90625 
L 47.609375 72.90625 
L 47.609375 25.390625 
L 58.015625 25.390625 
L 58.015625 17.1875 
L 47.609375 17.1875 
L 47.609375 0 
L 37.796875 0 
L 37.796875 17.1875 
L 4.890625 17.1875 
L 4.890625 26.703125 
z
" id="DejaVuSans-52"/>
       </defs>
       <use xlink:href="#DejaVuSans-52"/>
      </g>
     </g>
    </g>
    <g id="xtick_6">
     <g id="line2d_6">
      <path clip-path="url(#p8a4df31741)" d="M 299.813521 307.584 
L 299.813521 41.472 
" style="fill:none;stroke:#ffffff;stroke-linecap:round;stroke-width:0.8;"/>
     </g>
     <g id="text_6">
      <!-- 5 -->
      <g style="fill:#262626;" transform="translate(296.632271 322.182437)scale(0.1 -0.1)">
       <defs>
        <path d="M 10.796875 72.90625 
L 49.515625 72.90625 
L 49.515625 64.59375 
L 19.828125 64.59375 
L 19.828125 46.734375 
Q 21.96875 47.46875 24.109375 47.828125 
Q 26.265625 48.1875 28.421875 48.1875 
Q 40.625 48.1875 47.75 41.5 
Q 54.890625 34.8125 54.890625 23.390625 
Q 54.890625 11.625 47.5625 5.09375 
Q 40.234375 -1.421875 26.90625 -1.421875 
Q 22.3125 -1.421875 17.546875 -0.640625 
Q 12.796875 0.140625 7.71875 1.703125 
L 7.71875 11.625 
Q 12.109375 9.234375 16.796875 8.0625 
Q 21.484375 6.890625 26.703125 6.890625 
Q 35.15625 6.890625 40.078125 11.328125 
Q 45.015625 15.765625 45.015625 23.390625 
Q 45.015625 31 40.078125 35.4375 
Q 35.15625 39.890625 26.703125 39.890625 
Q 22.75 39.890625 18.8125 39.015625 
Q 14.890625 38.140625 10.796875 36.28125 
z
" id="DejaVuSans-53"/>
       </defs>
       <use xlink:href="#DejaVuSans-53"/>
      </g>
     </g>
    </g>
    <g id="xtick_7">
     <g id="line2d_7">
      <path clip-path="url(#p8a4df31741)" d="M 343.816969 307.584 
L 343.816969 41.472 
" style="fill:none;stroke:#ffffff;stroke-linecap:round;stroke-width:0.8;"/>
     </g>
     <g id="text_7">
      <!-- 6 -->
      <g style="fill:#262626;" transform="translate(340.635719 322.182437)scale(0.1 -0.1)">
       <defs>
        <path d="M 33.015625 40.375 
Q 26.375 40.375 22.484375 35.828125 
Q 18.609375 31.296875 18.609375 23.390625 
Q 18.609375 15.53125 22.484375 10.953125 
Q 26.375 6.390625 33.015625 6.390625 
Q 39.65625 6.390625 43.53125 10.953125 
Q 47.40625 15.53125 47.40625 23.390625 
Q 47.40625 31.296875 43.53125 35.828125 
Q 39.65625 40.375 33.015625 40.375 
z
M 52.59375 71.296875 
L 52.59375 62.3125 
Q 48.875 64.0625 45.09375 64.984375 
Q 41.3125 65.921875 37.59375 65.921875 
Q 27.828125 65.921875 22.671875 59.328125 
Q 17.53125 52.734375 16.796875 39.40625 
Q 19.671875 43.65625 24.015625 45.921875 
Q 28.375 48.1875 33.59375 48.1875 
Q 44.578125 48.1875 50.953125 41.515625 
Q 57.328125 34.859375 57.328125 23.390625 
Q 57.328125 12.15625 50.6875 5.359375 
Q 44.046875 -1.421875 33.015625 -1.421875 
Q 20.359375 -1.421875 13.671875 8.265625 
Q 6.984375 17.96875 6.984375 36.375 
Q 6.984375 53.65625 15.1875 63.9375 
Q 23.390625 74.21875 37.203125 74.21875 
Q 40.921875 74.21875 44.703125 73.484375 
Q 48.484375 72.75 52.59375 71.296875 
z
" id="DejaVuSans-54"/>
       </defs>
       <use xlink:href="#DejaVuSans-54"/>
      </g>
     </g>
    </g>
    <g id="xtick_8">
     <g id="line2d_8">
      <path clip-path="url(#p8a4df31741)" d="M 387.820416 307.584 
L 387.820416 41.472 
" style="fill:none;stroke:#ffffff;stroke-linecap:round;stroke-width:0.8;"/>
     </g>
     <g id="text_8">
      <!-- 7 -->
      <g style="fill:#262626;" transform="translate(384.639166 322.182437)scale(0.1 -0.1)">
       <defs>
        <path d="M 8.203125 72.90625 
L 55.078125 72.90625 
L 55.078125 68.703125 
L 28.609375 0 
L 18.3125 0 
L 43.21875 64.59375 
L 8.203125 64.59375 
z
" id="DejaVuSans-55"/>
       </defs>
       <use xlink:href="#DejaVuSans-55"/>
      </g>
     </g>
    </g>
   </g>
   <g id="matplotlib.axis_2">
    <g id="ytick_1">
     <g id="line2d_9">
      <path clip-path="url(#p8a4df31741)" d="M 57.6 307.584 
L 414.72 307.584 
" style="fill:none;stroke:#ffffff;stroke-linecap:round;stroke-width:0.8;"/>
     </g>
     <g id="text_9">
      <!-- 0.0 -->
      <g style="fill:#262626;" transform="translate(34.696875 311.383219)scale(0.1 -0.1)">
       <defs>
        <path d="M 10.6875 12.40625 
L 21 12.40625 
L 21 0 
L 10.6875 0 
z
" id="DejaVuSans-46"/>
       </defs>
       <use xlink:href="#DejaVuSans-48"/>
       <use x="63.623047" xlink:href="#DejaVuSans-46"/>
       <use x="95.410156" xlink:href="#DejaVuSans-48"/>
      </g>
     </g>
    </g>
    <g id="ytick_2">
     <g id="line2d_10">
      <path clip-path="url(#p8a4df31741)" d="M 57.6 277.060263 
L 414.72 277.060263 
" style="fill:none;stroke:#ffffff;stroke-linecap:round;stroke-width:0.8;"/>
     </g>
     <g id="text_10">
      <!-- 0.1 -->
      <g style="fill:#262626;" transform="translate(34.696875 280.859482)scale(0.1 -0.1)">
       <use xlink:href="#DejaVuSans-48"/>
       <use x="63.623047" xlink:href="#DejaVuSans-46"/>
       <use x="95.410156" xlink:href="#DejaVuSans-49"/>
      </g>
     </g>
    </g>
    <g id="ytick_3">
     <g id="line2d_11">
      <path clip-path="url(#p8a4df31741)" d="M 57.6 246.536526 
L 414.72 246.536526 
" style="fill:none;stroke:#ffffff;stroke-linecap:round;stroke-width:0.8;"/>
     </g>
     <g id="text_11">
      <!-- 0.2 -->
      <g style="fill:#262626;" transform="translate(34.696875 250.335745)scale(0.1 -0.1)">
       <use xlink:href="#DejaVuSans-48"/>
       <use x="63.623047" xlink:href="#DejaVuSans-46"/>
       <use x="95.410156" xlink:href="#DejaVuSans-50"/>
      </g>
     </g>
    </g>
    <g id="ytick_4">
     <g id="line2d_12">
      <path clip-path="url(#p8a4df31741)" d="M 57.6 216.012789 
L 414.72 216.012789 
" style="fill:none;stroke:#ffffff;stroke-linecap:round;stroke-width:0.8;"/>
     </g>
     <g id="text_12">
      <!-- 0.3 -->
      <g style="fill:#262626;" transform="translate(34.696875 219.812008)scale(0.1 -0.1)">
       <use xlink:href="#DejaVuSans-48"/>
       <use x="63.623047" xlink:href="#DejaVuSans-46"/>
       <use x="95.410156" xlink:href="#DejaVuSans-51"/>
      </g>
     </g>
    </g>
    <g id="ytick_5">
     <g id="line2d_13">
      <path clip-path="url(#p8a4df31741)" d="M 57.6 185.489053 
L 414.72 185.489053 
" style="fill:none;stroke:#ffffff;stroke-linecap:round;stroke-width:0.8;"/>
     </g>
     <g id="text_13">
      <!-- 0.4 -->
      <g style="fill:#262626;" transform="translate(34.696875 189.288271)scale(0.1 -0.1)">
       <use xlink:href="#DejaVuSans-48"/>
       <use x="63.623047" xlink:href="#DejaVuSans-46"/>
       <use x="95.410156" xlink:href="#DejaVuSans-52"/>
      </g>
     </g>
    </g>
    <g id="ytick_6">
     <g id="line2d_14">
      <path clip-path="url(#p8a4df31741)" d="M 57.6 154.965316 
L 414.72 154.965316 
" style="fill:none;stroke:#ffffff;stroke-linecap:round;stroke-width:0.8;"/>
     </g>
     <g id="text_14">
      <!-- 0.5 -->
      <g style="fill:#262626;" transform="translate(34.696875 158.764534)scale(0.1 -0.1)">
       <use xlink:href="#DejaVuSans-48"/>
       <use x="63.623047" xlink:href="#DejaVuSans-46"/>
       <use x="95.410156" xlink:href="#DejaVuSans-53"/>
      </g>
     </g>
    </g>
    <g id="ytick_7">
     <g id="line2d_15">
      <path clip-path="url(#p8a4df31741)" d="M 57.6 124.441579 
L 414.72 124.441579 
" style="fill:none;stroke:#ffffff;stroke-linecap:round;stroke-width:0.8;"/>
     </g>
     <g id="text_15">
      <!-- 0.6 -->
      <g style="fill:#262626;" transform="translate(34.696875 128.240798)scale(0.1 -0.1)">
       <use xlink:href="#DejaVuSans-48"/>
       <use x="63.623047" xlink:href="#DejaVuSans-46"/>
       <use x="95.410156" xlink:href="#DejaVuSans-54"/>
      </g>
     </g>
    </g>
    <g id="ytick_8">
     <g id="line2d_16">
      <path clip-path="url(#p8a4df31741)" d="M 57.6 93.917842 
L 414.72 93.917842 
" style="fill:none;stroke:#ffffff;stroke-linecap:round;stroke-width:0.8;"/>
     </g>
     <g id="text_16">
      <!-- 0.7 -->
      <g style="fill:#262626;" transform="translate(34.696875 97.717061)scale(0.1 -0.1)">
       <use xlink:href="#DejaVuSans-48"/>
       <use x="63.623047" xlink:href="#DejaVuSans-46"/>
       <use x="95.410156" xlink:href="#DejaVuSans-55"/>
      </g>
     </g>
    </g>
    <g id="ytick_9">
     <g id="line2d_17">
      <path clip-path="url(#p8a4df31741)" d="M 57.6 63.394105 
L 414.72 63.394105 
" style="fill:none;stroke:#ffffff;stroke-linecap:round;stroke-width:0.8;"/>
     </g>
     <g id="text_17">
      <!-- 0.8 -->
      <g style="fill:#262626;" transform="translate(34.696875 67.193324)scale(0.1 -0.1)">
       <defs>
        <path d="M 31.78125 34.625 
Q 24.75 34.625 20.71875 30.859375 
Q 16.703125 27.09375 16.703125 20.515625 
Q 16.703125 13.921875 20.71875 10.15625 
Q 24.75 6.390625 31.78125 6.390625 
Q 38.8125 6.390625 42.859375 10.171875 
Q 46.921875 13.96875 46.921875 20.515625 
Q 46.921875 27.09375 42.890625 30.859375 
Q 38.875 34.625 31.78125 34.625 
z
M 21.921875 38.8125 
Q 15.578125 40.375 12.03125 44.71875 
Q 8.5 49.078125 8.5 55.328125 
Q 8.5 64.0625 14.71875 69.140625 
Q 20.953125 74.21875 31.78125 74.21875 
Q 42.671875 74.21875 48.875 69.140625 
Q 55.078125 64.0625 55.078125 55.328125 
Q 55.078125 49.078125 51.53125 44.71875 
Q 48 40.375 41.703125 38.8125 
Q 48.828125 37.15625 52.796875 32.3125 
Q 56.78125 27.484375 56.78125 20.515625 
Q 56.78125 9.90625 50.3125 4.234375 
Q 43.84375 -1.421875 31.78125 -1.421875 
Q 19.734375 -1.421875 13.25 4.234375 
Q 6.78125 9.90625 6.78125 20.515625 
Q 6.78125 27.484375 10.78125 32.3125 
Q 14.796875 37.15625 21.921875 38.8125 
z
M 18.3125 54.390625 
Q 18.3125 48.734375 21.84375 45.5625 
Q 25.390625 42.390625 31.78125 42.390625 
Q 38.140625 42.390625 41.71875 45.5625 
Q 45.3125 48.734375 45.3125 54.390625 
Q 45.3125 60.0625 41.71875 63.234375 
Q 38.140625 66.40625 31.78125 66.40625 
Q 25.390625 66.40625 21.84375 63.234375 
Q 18.3125 60.0625 18.3125 54.390625 
z
" id="DejaVuSans-56"/>
       </defs>
       <use xlink:href="#DejaVuSans-48"/>
       <use x="63.623047" xlink:href="#DejaVuSans-46"/>
       <use x="95.410156" xlink:href="#DejaVuSans-56"/>
      </g>
     </g>
    </g>
    <g id="text_18">
     <!-- Density -->
     <g style="fill:#262626;" transform="translate(28.617187 193.536594)rotate(-90)scale(0.1 -0.1)">
      <defs>
       <path d="M 19.671875 64.796875 
L 19.671875 8.109375 
L 31.59375 8.109375 
Q 46.6875 8.109375 53.6875 14.9375 
Q 60.6875 21.78125 60.6875 36.53125 
Q 60.6875 51.171875 53.6875 57.984375 
Q 46.6875 64.796875 31.59375 64.796875 
z
M 9.8125 72.90625 
L 30.078125 72.90625 
Q 51.265625 72.90625 61.171875 64.09375 
Q 71.09375 55.28125 71.09375 36.53125 
Q 71.09375 17.671875 61.125 8.828125 
Q 51.171875 0 30.078125 0 
L 9.8125 0 
z
" id="DejaVuSans-68"/>
       <path d="M 56.203125 29.59375 
L 56.203125 25.203125 
L 14.890625 25.203125 
Q 15.484375 15.921875 20.484375 11.0625 
Q 25.484375 6.203125 34.421875 6.203125 
Q 39.59375 6.203125 44.453125 7.46875 
Q 49.3125 8.734375 54.109375 11.28125 
L 54.109375 2.78125 
Q 49.265625 0.734375 44.1875 -0.34375 
Q 39.109375 -1.421875 33.890625 -1.421875 
Q 20.796875 -1.421875 13.15625 6.1875 
Q 5.515625 13.8125 5.515625 26.8125 
Q 5.515625 40.234375 12.765625 48.109375 
Q 20.015625 56 32.328125 56 
Q 43.359375 56 49.78125 48.890625 
Q 56.203125 41.796875 56.203125 29.59375 
z
M 47.21875 32.234375 
Q 47.125 39.59375 43.09375 43.984375 
Q 39.0625 48.390625 32.421875 48.390625 
Q 24.90625 48.390625 20.390625 44.140625 
Q 15.875 39.890625 15.1875 32.171875 
z
" id="DejaVuSans-101"/>
       <path d="M 54.890625 33.015625 
L 54.890625 0 
L 45.90625 0 
L 45.90625 32.71875 
Q 45.90625 40.484375 42.875 44.328125 
Q 39.84375 48.1875 33.796875 48.1875 
Q 26.515625 48.1875 22.3125 43.546875 
Q 18.109375 38.921875 18.109375 30.90625 
L 18.109375 0 
L 9.078125 0 
L 9.078125 54.6875 
L 18.109375 54.6875 
L 18.109375 46.1875 
Q 21.34375 51.125 25.703125 53.5625 
Q 30.078125 56 35.796875 56 
Q 45.21875 56 50.046875 50.171875 
Q 54.890625 44.34375 54.890625 33.015625 
z
" id="DejaVuSans-110"/>
       <path d="M 44.28125 53.078125 
L 44.28125 44.578125 
Q 40.484375 46.53125 36.375 47.5 
Q 32.28125 48.484375 27.875 48.484375 
Q 21.1875 48.484375 17.84375 46.4375 
Q 14.5 44.390625 14.5 40.28125 
Q 14.5 37.15625 16.890625 35.375 
Q 19.28125 33.59375 26.515625 31.984375 
L 29.59375 31.296875 
Q 39.15625 29.25 43.1875 25.515625 
Q 47.21875 21.78125 47.21875 15.09375 
Q 47.21875 7.46875 41.1875 3.015625 
Q 35.15625 -1.421875 24.609375 -1.421875 
Q 20.21875 -1.421875 15.453125 -0.5625 
Q 10.6875 0.296875 5.421875 2 
L 5.421875 11.28125 
Q 10.40625 8.6875 15.234375 7.390625 
Q 20.0625 6.109375 24.8125 6.109375 
Q 31.15625 6.109375 34.5625 8.28125 
Q 37.984375 10.453125 37.984375 14.40625 
Q 37.984375 18.0625 35.515625 20.015625 
Q 33.0625 21.96875 24.703125 23.78125 
L 21.578125 24.515625 
Q 13.234375 26.265625 9.515625 29.90625 
Q 5.8125 33.546875 5.8125 39.890625 
Q 5.8125 47.609375 11.28125 51.796875 
Q 16.75 56 26.8125 56 
Q 31.78125 56 36.171875 55.265625 
Q 40.578125 54.546875 44.28125 53.078125 
z
" id="DejaVuSans-115"/>
       <path d="M 9.421875 54.6875 
L 18.40625 54.6875 
L 18.40625 0 
L 9.421875 0 
z
M 9.421875 75.984375 
L 18.40625 75.984375 
L 18.40625 64.59375 
L 9.421875 64.59375 
z
" id="DejaVuSans-105"/>
       <path d="M 18.3125 70.21875 
L 18.3125 54.6875 
L 36.8125 54.6875 
L 36.8125 47.703125 
L 18.3125 47.703125 
L 18.3125 18.015625 
Q 18.3125 11.328125 20.140625 9.421875 
Q 21.96875 7.515625 27.59375 7.515625 
L 36.8125 7.515625 
L 36.8125 0 
L 27.59375 0 
Q 17.1875 0 13.234375 3.875 
Q 9.28125 7.765625 9.28125 18.015625 
L 9.28125 47.703125 
L 2.6875 47.703125 
L 2.6875 54.6875 
L 9.28125 54.6875 
L 9.28125 70.21875 
z
" id="DejaVuSans-116"/>
       <path d="M 32.171875 -5.078125 
Q 28.375 -14.84375 24.75 -17.8125 
Q 21.140625 -20.796875 15.09375 -20.796875 
L 7.90625 -20.796875 
L 7.90625 -13.28125 
L 13.1875 -13.28125 
Q 16.890625 -13.28125 18.9375 -11.515625 
Q 21 -9.765625 23.484375 -3.21875 
L 25.09375 0.875 
L 2.984375 54.6875 
L 12.5 54.6875 
L 29.59375 11.921875 
L 46.6875 54.6875 
L 56.203125 54.6875 
z
" id="DejaVuSans-121"/>
      </defs>
      <use xlink:href="#DejaVuSans-68"/>
      <use x="77.001953" xlink:href="#DejaVuSans-101"/>
      <use x="138.525391" xlink:href="#DejaVuSans-110"/>
      <use x="201.904297" xlink:href="#DejaVuSans-115"/>
      <use x="254.003906" xlink:href="#DejaVuSans-105"/>
      <use x="281.787109" xlink:href="#DejaVuSans-116"/>
      <use x="320.996094" xlink:href="#DejaVuSans-121"/>
     </g>
    </g>
   </g>
   <g id="line2d_18">
    <path clip-path="url(#p8a4df31741)" d="M 74.323655 307.47341 
L 75.117218 307.175149 
L 75.514 306.836844 
L 75.910782 306.26367 
L 76.307563 305.327148 
L 76.704345 303.851378 
L 77.101127 301.608474 
L 77.497908 298.320568 
L 77.89469 293.671385 
L 78.291472 287.329477 
L 79.085035 268.384879 
L 79.878598 240.040472 
L 81.068943 182.695695 
L 82.65607 103.285468 
L 83.449634 74.938884 
L 83.846415 65.210419 
L 84.243197 58.593543 
L 84.639979 54.985205 
L 85.03676 54.144 
L 85.433542 55.728794 
L 85.830324 59.341326 
L 86.623887 71.015894 
L 87.814232 94.553892 
L 90.988485 160.485518 
L 92.178831 180.475354 
L 94.162739 209.44935 
L 96.146647 235.639601 
L 97.336992 248.491841 
L 98.527337 258.858449 
L 99.320901 264.387491 
L 100.114464 268.792254 
L 100.908028 272.230472 
L 106.462971 292.479933 
L 107.256534 293.986856 
L 108.050098 294.765752 
L 108.843661 294.989224 
L 109.637224 294.884067 
L 110.82757 294.610901 
L 111.621133 294.639655 
L 112.414696 294.992929 
L 113.20826 295.701942 
L 114.398605 297.220306 
L 115.58895 298.700236 
L 116.382513 299.38698 
L 117.572858 300.003949 
L 118.763203 300.674108 
L 119.556767 301.40992 
L 121.143893 303.37973 
L 122.334238 304.743256 
L 123.524583 305.722911 
L 124.714928 306.310556 
L 126.302055 306.694549 
L 131.460217 307.548847 
L 135.428034 307.583954 
L 142.570104 307.479038 
L 143.760449 307.253902 
L 145.347576 306.691744 
L 146.537921 306.323188 
L 147.331484 306.271704 
L 148.125048 306.411176 
L 151.696083 307.476687 
L 153.283209 307.570232 
L 153.283209 307.570232 
" style="fill:none;stroke:#d62728;stroke-linecap:round;stroke-width:1.5;"/>
   </g>
   <g id="line2d_19">
    <path clip-path="url(#p8a4df31741)" d="M 73.934165 307.475135 
L 74.692035 307.234462 
L 75.07097 306.982568 
L 75.449905 306.576479 
L 75.828841 305.940397 
L 76.207776 304.972299 
L 76.586711 303.540534 
L 76.965646 301.482726 
L 77.344581 298.608281 
L 77.723516 294.705662 
L 78.481386 282.947238 
L 79.239256 264.709825 
L 79.997127 239.414183 
L 81.133932 190.878254 
L 82.649672 123.622504 
L 83.407543 97.641537 
L 84.165413 80.15781 
L 84.544348 74.773068 
L 84.923283 71.5027 
L 85.302218 70.155865 
L 85.681153 70.497045 
L 86.060088 72.274999 
L 86.439023 75.24811 
L 87.196894 83.966049 
L 87.954764 95.417625 
L 89.091569 116.254003 
L 91.36518 164.446816 
L 92.88092 194.442809 
L 94.017725 212.798919 
L 95.154531 226.848904 
L 96.291336 237.394122 
L 97.807076 248.760867 
L 99.322817 258.830804 
L 100.459622 265.080084 
L 101.217492 268.322197 
L 101.975362 270.836993 
L 103.112168 273.723372 
L 105.006843 278.368435 
L 106.522584 282.837912 
L 109.933 293.619662 
L 110.69087 295.27888 
L 111.44874 296.470725 
L 112.20661 297.30409 
L 113.722351 298.530921 
L 115.617026 299.91426 
L 116.753831 300.427714 
L 117.511702 300.544219 
L 118.648507 300.43633 
L 120.164247 300.207973 
L 120.922117 300.278222 
L 121.679988 300.554033 
L 122.437858 301.045401 
L 123.574663 302.135232 
L 126.985079 305.989949 
L 127.742949 306.435272 
L 128.500819 306.639077 
L 129.637625 306.608088 
L 131.5323 306.403729 
L 132.669106 306.537544 
L 135.700586 307.175259 
L 136.837392 307.135557 
L 141.005678 306.721756 
L 142.900353 306.830959 
L 145.552899 307.297502 
L 147.447574 307.519852 
L 149.34225 307.577153 
L 149.34225 307.577153 
" style="fill:none;stroke:#2ca02c;stroke-linecap:round;stroke-width:1.5;"/>
   </g>
   <g id="line2d_20">
    <path clip-path="url(#p8a4df31741)" d="M 73.916304 307.367663 
L 74.440765 307.130753 
L 74.965227 306.677079 
L 75.489688 305.850088 
L 76.014149 304.415015 
L 76.538611 302.044287 
L 77.063072 298.315852 
L 77.587534 292.733811 
L 78.111995 284.778875 
L 78.636457 273.990163 
L 79.160918 260.070168 
L 80.209841 223.094365 
L 82.832148 116.352023 
L 83.35661 102.266335 
L 83.881071 92.663074 
L 84.405533 87.612237 
L 84.929994 86.751438 
L 85.454455 89.391811 
L 85.978917 94.662966 
L 87.02784 109.594798 
L 89.650147 149.104251 
L 93.321377 201.228536 
L 94.3703 212.723689 
L 95.419223 221.344421 
L 96.992607 231.335935 
L 98.565992 241.583126 
L 100.139376 252.155208 
L 101.188299 258.070471 
L 102.237222 262.798618 
L 106.957375 281.492207 
L 108.006298 284.444824 
L 109.05522 286.642308 
L 111.153066 290.659841 
L 114.299835 297.976689 
L 114.824296 298.732267 
L 115.873219 299.678739 
L 117.446604 300.615123 
L 118.495526 301.556175 
L 121.117834 304.374161 
L 122.166756 304.956136 
L 123.215679 305.143693 
L 124.264602 305.068834 
L 126.362448 304.759279 
L 127.411371 304.804657 
L 128.984755 305.17786 
L 131.082601 305.654197 
L 134.753831 306.034244 
L 137.9006 306.393472 
L 142.620753 307.486214 
L 145.24306 307.579179 
L 165.172595 307.566341 
L 167.794902 307.40031 
L 171.466132 307.009041 
L 173.039517 307.147042 
L 176.186285 307.520143 
L 178.284131 307.577598 
L 178.284131 307.577598 
" style="fill:none;stroke:#ff7f0e;stroke-linecap:round;stroke-width:1.5;"/>
   </g>
   <g id="line2d_21">
    <path clip-path="url(#p8a4df31741)" d="M 73.832727 307.43963 
L 74.560224 307.173097 
L 74.923973 306.913809 
L 75.287721 306.515029 
L 75.65147 305.916307 
L 76.015218 305.038743 
L 76.378967 303.78296 
L 76.742715 302.028448 
L 77.106464 299.634975 
L 77.833961 292.299344 
L 78.561458 280.494083 
L 79.288955 263.197753 
L 80.016451 240.119495 
L 81.107697 196.7935 
L 82.926439 122.256632 
L 83.653936 100.305922 
L 84.381433 86.015453 
L 84.745182 81.960336 
L 85.10893 79.928926 
L 85.472679 79.809752 
L 85.836427 81.436354 
L 86.200176 84.599756 
L 86.927673 94.569336 
L 88.018918 114.867036 
L 89.83766 149.801034 
L 90.928906 167.348275 
L 92.3839 186.704024 
L 93.838894 202.668668 
L 95.293888 216.125816 
L 97.11263 230.74479 
L 98.931373 243.706771 
L 101.84136 262.516808 
L 103.660103 273.390925 
L 104.751348 278.841115 
L 105.842594 283.161915 
L 106.933839 286.423792 
L 108.025085 288.881775 
L 109.11633 290.749793 
L 110.207575 292.101419 
L 111.298821 293.017404 
L 113.117563 294.386021 
L 114.208809 295.662612 
L 117.118797 299.692676 
L 118.210042 300.580387 
L 120.392533 301.818452 
L 121.847527 302.541639 
L 122.938772 302.777061 
L 124.030018 302.698988 
L 125.485012 302.503723 
L 126.212509 302.565301 
L 126.940006 302.797035 
L 128.031251 303.416181 
L 130.213742 304.796671 
L 131.668736 305.375134 
L 134.214975 306.084712 
L 135.669969 306.314204 
L 140.034951 306.720018 
L 143.308687 307.434851 
L 145.491178 307.567026 
L 146.218675 307.577186 
L 146.218675 307.577186 
" style="fill:none;stroke:#1f77b4;stroke-linecap:round;stroke-width:1.5;"/>
   </g>
   <g id="line2d_22">
    <path clip-path="url(#p8a4df31741)" d="M 78.460415 307.57524 
L 81.771409 307.462884 
L 83.426906 307.232695 
L 85.082403 306.707978 
L 85.910151 306.271947 
L 86.7379 305.683012 
L 87.565648 304.915305 
L 88.393397 303.947988 
L 89.221145 302.767861 
L 90.876642 299.762683 
L 92.532139 295.965013 
L 94.187636 291.481586 
L 95.843133 286.319077 
L 97.49863 280.352032 
L 99.154127 273.484835 
L 101.637372 261.871624 
L 104.948366 246.231614 
L 106.603863 239.33603 
L 108.259359 233.379472 
L 109.914856 228.294052 
L 111.570353 223.88607 
L 113.22585 220.145866 
L 114.053599 218.611372 
L 114.881347 217.366254 
L 115.709095 216.450086 
L 116.536844 215.88284 
L 117.364592 215.662905 
L 118.192341 215.771844 
L 119.020089 216.182492 
L 119.847838 216.866026 
L 120.675586 217.795006 
L 122.331083 220.278074 
L 123.98658 223.38467 
L 125.642077 226.905549 
L 127.297574 230.87137 
L 128.953071 235.546874 
L 130.608568 241.021551 
L 133.091813 249.551677 
L 134.74731 254.314001 
L 136.402807 258.187164 
L 138.058304 261.926436 
L 139.7138 266.369608 
L 141.369297 271.794356 
L 144.680291 284.215178 
L 146.335788 290.12931 
L 147.991285 295.106502 
L 148.819033 297.116994 
L 149.646782 298.786098 
L 150.47453 300.131525 
L 151.302279 301.194586 
L 152.130027 302.03088 
L 153.785524 303.249599 
L 155.441021 304.132481 
L 157.096518 304.81131 
L 158.752015 305.306066 
L 162.063009 305.950611 
L 165.374002 306.432642 
L 167.029499 306.510009 
L 169.512745 306.326165 
L 172.823738 305.992382 
L 174.479235 306.064321 
L 176.962481 306.475027 
L 179.445726 306.884925 
L 182.75672 307.127993 
L 188.550959 307.318038 
L 195.172946 307.267137 
L 202.622682 307.571756 
L 220.0054 307.582799 
L 226.627387 307.474781 
L 233.249375 307.22759 
L 243.182356 307.579901 
L 243.182356 307.579901 
" style="fill:none;stroke:#d62728;stroke-linecap:round;stroke-width:1.5;"/>
   </g>
   <g id="line2d_23">
    <path clip-path="url(#p8a4df31741)" d="M 76.050137 307.572081 
L 80.09817 307.436609 
L 81.717383 307.245473 
L 83.336596 306.873047 
L 84.95581 306.207842 
L 86.575023 305.109022 
L 87.38463 304.347571 
L 88.194236 303.417901 
L 89.003843 302.301194 
L 89.81345 300.98112 
L 91.432663 297.685567 
L 93.051876 293.494624 
L 94.67109 288.463895 
L 96.290303 282.719932 
L 98.719123 273.098998 
L 106.005583 242.967243 
L 107.624796 237.627517 
L 109.244009 233.113657 
L 110.863223 229.394775 
L 112.482436 226.480203 
L 113.292043 225.363049 
L 114.101649 224.510232 
L 114.911256 223.955042 
L 115.720863 223.728059 
L 116.530469 223.8506 
L 117.340076 224.32879 
L 118.149683 225.149497 
L 118.959289 226.27913 
L 120.578503 229.244815 
L 128.674569 246.428733 
L 130.293782 250.414639 
L 135.961029 265.20618 
L 137.580242 268.444197 
L 139.199456 270.995122 
L 140.818669 272.99432 
L 144.866702 277.35166 
L 146.485916 279.536361 
L 148.105129 282.16202 
L 150.533949 286.698719 
L 152.962769 291.230739 
L 154.581982 293.824371 
L 156.201195 295.906293 
L 157.820409 297.48216 
L 159.439622 298.658835 
L 161.058835 299.572666 
L 163.487655 300.667061 
L 166.726082 301.857092 
L 170.774115 303.333077 
L 176.441362 305.55452 
L 178.870182 306.225304 
L 181.299002 306.628947 
L 183.727822 306.784006 
L 186.156642 306.733682 
L 195.062315 306.262862 
L 203.158382 306.518181 
L 207.206415 306.553472 
L 210.444841 306.803783 
L 216.112088 307.296368 
L 220.160121 307.319107 
L 225.827368 307.328662 
L 236.352254 307.578571 
L 237.161861 307.580754 
L 237.161861 307.580754 
" style="fill:none;stroke:#2ca02c;stroke-linecap:round;stroke-width:1.5;"/>
   </g>
   <g id="line2d_24">
    <path clip-path="url(#p8a4df31741)" d="M 74.008951 307.579556 
L 79.014163 307.480567 
L 81.159254 307.287271 
L 83.304344 306.849905 
L 84.734405 306.334578 
L 86.164465 305.563883 
L 87.594526 304.467487 
L 89.024586 302.980495 
L 90.454647 301.054498 
L 91.884707 298.66452 
L 93.314768 295.803047 
L 94.744828 292.456317 
L 96.174889 288.571879 
L 97.60495 284.042521 
L 99.03501 278.733009 
L 100.465071 272.551696 
L 101.895131 265.532455 
L 104.755252 249.934294 
L 106.900343 238.437086 
L 108.330403 231.707035 
L 109.760464 226.195035 
L 110.475494 223.990308 
L 111.190524 222.182475 
L 111.905555 220.776686 
L 112.620585 219.763423 
L 113.335615 219.119186 
L 114.050646 218.808793 
L 114.765676 218.789095 
L 115.480706 219.013623 
L 116.195736 219.437473 
L 117.625797 220.736628 
L 119.055857 222.493936 
L 120.485918 224.676188 
L 121.915978 227.34024 
L 123.346039 230.521297 
L 125.49113 236.07808 
L 130.496342 249.531111 
L 134.071493 258.89893 
L 137.646644 268.306965 
L 139.076705 271.47144 
L 140.506765 274.13311 
L 142.651856 277.474335 
L 145.511977 281.852201 
L 150.517189 289.932305 
L 151.947249 291.678845 
L 153.37731 293.053879 
L 155.522401 294.635931 
L 159.097552 297.066159 
L 164.102764 300.653962 
L 166.247855 301.843378 
L 168.392945 302.777502 
L 170.538036 303.486581 
L 172.683127 303.982869 
L 176.258278 304.5148 
L 179.83343 305.122073 
L 187.698762 306.733466 
L 190.558884 307.004081 
L 193.419005 307.059779 
L 196.279126 306.887471 
L 201.284337 306.446873 
L 203.429428 306.506882 
L 206.289549 306.858392 
L 210.579731 307.392499 
L 214.154882 307.552839 
L 216.299973 307.576345 
L 216.299973 307.576345 
" style="fill:none;stroke:#ff7f0e;stroke-linecap:round;stroke-width:1.5;"/>
   </g>
   <g id="line2d_25">
    <path clip-path="url(#p8a4df31741)" d="M 76.515069 307.573504 
L 80.162712 307.472816 
L 82.351298 307.220411 
L 83.810355 306.852898 
L 85.269413 306.212828 
L 86.72847 305.17714 
L 88.187527 303.614129 
L 89.646585 301.403569 
L 91.105642 298.45711 
L 92.564699 294.733014 
L 94.023757 290.243628 
L 95.482814 285.059577 
L 97.6714 276.294499 
L 102.048572 258.201253 
L 103.507629 252.972132 
L 104.966687 248.394084 
L 106.425744 244.436115 
L 107.884801 240.996734 
L 109.343859 237.990592 
L 110.802916 235.417972 
L 112.261973 233.379368 
L 112.991502 232.609085 
L 113.721031 232.031399 
L 114.450559 231.662263 
L 115.180088 231.511944 
L 115.909617 231.583625 
L 116.639145 231.872695 
L 117.368674 232.36676 
L 118.098203 233.046316 
L 119.55726 234.856247 
L 121.745846 238.234911 
L 125.393489 243.959799 
L 130.50019 251.488859 
L 132.688776 255.189632 
L 138.525005 265.459852 
L 145.090764 275.925039 
L 150.926993 286.45633 
L 152.38605 288.476321 
L 153.845108 290.070454 
L 155.304165 291.28439 
L 156.763222 292.223949 
L 161.869923 295.141964 
L 164.058509 296.772822 
L 168.435681 300.223781 
L 170.624267 301.55699 
L 172.812853 302.544551 
L 176.460496 303.799998 
L 180.10814 304.881591 
L 182.296726 305.329322 
L 184.485312 305.554395 
L 191.05107 305.938755 
L 200.534942 307.030634 
L 205.641643 307.204225 
L 214.395987 307.485459 
L 220.961745 307.57907 
L 221.691274 307.580857 
L 221.691274 307.580857 
" style="fill:none;stroke:#1f77b4;stroke-linecap:round;stroke-width:1.5;"/>
   </g>
   <g id="line2d_26">
    <path clip-path="url(#p8a4df31741)" d="M 90.088143 307.580305 
L 96.606833 307.461755 
L 99.214309 307.23541 
L 101.169916 306.8982 
L 103.125523 306.34687 
L 105.081131 305.53152 
L 107.036738 304.443344 
L 108.992345 303.122627 
L 111.599821 301.082225 
L 113.555428 299.307956 
L 115.511035 297.175621 
L 116.814773 295.474645 
L 118.77038 292.461123 
L 121.377856 287.794275 
L 126.592809 277.87556 
L 128.548416 273.745847 
L 130.504023 269.090985 
L 137.022713 252.775248 
L 138.326451 250.159642 
L 139.630189 247.907966 
L 140.933928 246.052177 
L 142.237666 244.623053 
L 143.541404 243.64207 
L 144.845142 243.106113 
L 146.14888 242.976664 
L 147.452618 243.182742 
L 148.756356 243.638104 
L 150.711963 244.622423 
L 153.319439 246.270937 
L 155.926915 248.180742 
L 158.534392 250.297125 
L 160.489999 252.113895 
L 161.793737 253.534436 
L 163.097475 255.18334 
L 165.053082 258.100917 
L 171.571772 268.715929 
L 173.527379 271.196119 
L 175.482986 273.251161 
L 178.090463 275.535134 
L 182.653546 279.392184 
L 184.609153 281.333411 
L 186.56476 283.533754 
L 188.520367 286.034566 
L 190.475974 288.877775 
L 193.08345 293.140362 
L 196.342796 298.536793 
L 198.298403 301.282934 
L 199.602141 302.778575 
L 200.905879 303.990921 
L 202.209617 304.940388 
L 203.513355 305.6648 
L 205.468962 306.424171 
L 207.424569 306.906077 
L 210.032045 307.277616 
L 213.291391 307.490584 
L 218.506343 307.576767 
L 219.810081 307.58072 
L 219.810081 307.58072 
" style="fill:none;stroke:#d62728;stroke-linecap:round;stroke-width:1.5;"/>
   </g>
   <g id="line2d_27">
    <path clip-path="url(#p8a4df31741)" d="M 91.079222 307.577932 
L 98.037592 307.441344 
L 101.01975 307.177335 
L 103.007856 306.836155 
L 104.995962 306.295253 
L 106.984068 305.491733 
L 108.972173 304.367341 
L 110.960279 302.876614 
L 112.948385 300.990886 
L 114.93649 298.695575 
L 116.924596 295.982921 
L 118.912702 292.847841 
L 120.900807 289.295381 
L 122.888913 285.361102 
L 125.871072 278.954868 
L 129.847283 270.344177 
L 131.835389 266.401848 
L 133.823495 262.843321 
L 135.8116 259.690499 
L 137.799706 256.931064 
L 139.787812 254.558699 
L 141.775917 252.592031 
L 143.764023 251.063774 
L 145.752129 249.996456 
L 147.740234 249.389998 
L 149.72834 249.231827 
L 151.716446 249.516165 
L 153.704552 250.248964 
L 155.692657 251.429083 
L 157.680763 253.020561 
L 159.668869 254.941192 
L 162.651027 258.19819 
L 167.621291 264.017569 
L 170.60345 267.755488 
L 174.579661 273.131442 
L 177.56182 277.135721 
L 179.549926 279.575251 
L 181.538031 281.759122 
L 184.52019 284.622599 
L 189.490454 288.918918 
L 193.466666 292.168263 
L 196.448824 294.284359 
L 198.43693 295.448377 
L 200.425036 296.397812 
L 203.407194 297.487786 
L 211.359617 299.966927 
L 215.335828 301.608755 
L 220.306093 303.74524 
L 223.288251 304.764376 
L 226.27041 305.503026 
L 230.246621 306.168008 
L 235.216885 306.734788 
L 240.18715 307.093784 
L 246.151467 307.281751 
L 252.115784 307.246747 
L 262.056312 306.914488 
L 267.026577 306.809611 
L 271.002788 306.91584 
L 284.919528 307.556635 
L 288.895739 307.579437 
L 288.895739 307.579437 
" style="fill:none;stroke:#2ca02c;stroke-linecap:round;stroke-width:1.5;"/>
   </g>
   <g id="line2d_28">
    <path clip-path="url(#p8a4df31741)" d="M 93.092182 307.578662 
L 99.52575 307.456785 
L 102.282994 307.23094 
L 105.040237 306.754162 
L 106.878399 306.223954 
L 108.716562 305.461166 
L 110.554724 304.401772 
L 112.392886 302.975663 
L 114.231049 301.116024 
L 116.069211 298.772804 
L 117.907373 295.924529 
L 119.745536 292.583513 
L 121.583698 288.794365 
L 124.340941 282.436972 
L 133.531753 260.217385 
L 135.369915 256.438067 
L 137.208078 253.01938 
L 139.04624 250.008039 
L 140.884402 247.498501 
L 141.803483 246.47395 
L 142.722565 245.62664 
L 143.641646 244.971278 
L 144.560727 244.517176 
L 145.479808 244.266327 
L 146.398889 244.212302 
L 147.31797 244.340191 
L 148.237052 244.627613 
L 150.075214 245.566494 
L 152.832457 247.438909 
L 159.266025 252.088701 
L 161.104188 253.699604 
L 162.94235 255.596177 
L 164.780512 257.807859 
L 166.618675 260.323188 
L 169.375918 264.555673 
L 175.809486 274.792541 
L 178.56673 278.575447 
L 182.243054 283.074173 
L 185.919379 287.242609 
L 188.676622 290.108645 
L 191.433866 292.67386 
L 194.191109 294.951201 
L 196.948353 296.978434 
L 199.705596 298.781482 
L 203.381921 300.889538 
L 206.139164 302.249008 
L 208.896408 303.369626 
L 211.653651 304.249439 
L 215.329976 305.167796 
L 219.006301 305.893236 
L 222.682625 306.372178 
L 225.439869 306.528792 
L 230.035275 306.520214 
L 234.63068 306.564103 
L 247.497817 307.04738 
L 257.607709 307.096784 
L 275.989332 307.581205 
L 275.989332 307.581205 
" style="fill:none;stroke:#ff7f0e;stroke-linecap:round;stroke-width:1.5;"/>
   </g>
   <g id="line2d_29">
    <path clip-path="url(#p8a4df31741)" d="M 88.974252 307.580941 
L 97.277501 307.459617 
L 100.04525 307.261424 
L 102.812999 306.83017 
L 104.658166 306.323252 
L 106.503332 305.558255 
L 108.348498 304.459125 
L 110.193665 302.961605 
L 112.038831 301.031175 
L 113.883997 298.675173 
L 115.729164 295.941079 
L 118.496913 291.2851 
L 121.264663 286.147376 
L 124.954995 278.749463 
L 132.33566 263.561169 
L 135.10341 258.569169 
L 136.948576 255.651956 
L 138.793743 253.121715 
L 140.638909 251.012604 
L 142.484075 249.334279 
L 144.329241 248.064061 
L 146.174408 247.154984 
L 148.019574 246.564945 
L 149.86474 246.294567 
L 151.709907 246.409134 
L 152.63249 246.646408 
L 153.555073 247.025571 
L 154.477656 247.56165 
L 155.400239 248.266264 
L 156.322823 249.146 
L 157.245406 250.2012 
L 159.090572 252.804641 
L 160.935738 255.94256 
L 167.39382 267.724031 
L 169.238987 270.457072 
L 171.084153 272.781542 
L 172.929319 274.790526 
L 186.768067 288.681917 
L 188.613233 290.228544 
L 190.458399 291.554679 
L 193.226149 293.189909 
L 200.606814 296.927545 
L 204.297147 298.733071 
L 207.064896 299.85631 
L 210.755229 301.05802 
L 214.445561 302.272496 
L 219.98106 304.438413 
L 222.74881 305.399401 
L 225.516559 306.082388 
L 228.284309 306.453447 
L 231.052058 306.570269 
L 235.664974 306.474377 
L 241.200473 306.399405 
L 244.890805 306.57137 
L 255.961803 307.2717 
L 266.110218 307.54601 
L 272.5683 307.581463 
L 272.5683 307.581463 
" style="fill:none;stroke:#1f77b4;stroke-linecap:round;stroke-width:1.5;"/>
   </g>
   <g id="line2d_30">
    <path clip-path="url(#p8a4df31741)" d="M 109.174369 307.581206 
L 118.376803 307.457867 
L 122.466773 307.161322 
L 125.534251 306.688976 
L 127.579236 306.204032 
L 129.624221 305.558043 
L 131.669206 304.736772 
L 133.714191 303.728493 
L 135.759176 302.518342 
L 137.804161 301.086649 
L 139.849146 299.414145 
L 141.894132 297.489729 
L 143.939117 295.312469 
L 145.984102 292.884464 
L 148.029087 290.200793 
L 150.074072 287.247008 
L 152.119057 284.009509 
L 155.186535 278.65158 
L 161.32149 267.506962 
L 163.366476 264.486159 
L 164.388968 263.2512 
L 165.411461 262.227448 
L 166.433953 261.422571 
L 167.456446 260.832163 
L 168.478938 260.439779 
L 169.501431 260.218308 
L 171.546416 260.142547 
L 176.658879 260.381575 
L 179.726357 260.106773 
L 182.793834 259.86474 
L 184.83882 260.008206 
L 186.883805 260.483919 
L 188.92879 261.227082 
L 194.041253 263.291821 
L 200.176208 265.463974 
L 202.221193 266.588357 
L 204.266178 268.095014 
L 206.311164 269.948815 
L 214.491104 277.961114 
L 219.603567 282.612021 
L 227.783508 290.682119 
L 229.828493 292.322019 
L 233.918463 295.186611 
L 238.008433 298.149703 
L 244.143389 302.85479 
L 246.188374 304.164785 
L 248.233359 305.224158 
L 250.278344 306.018273 
L 252.323329 306.572759 
L 255.390807 307.068017 
L 259.480777 307.369105 
L 264.59324 307.478315 
L 304.47045 307.530087 
L 312.650391 307.581582 
L 312.650391 307.581582 
" style="fill:none;stroke:#d62728;stroke-linecap:round;stroke-width:1.5;"/>
   </g>
   <g id="line2d_31">
    <path clip-path="url(#p8a4df31741)" d="M 103.964815 307.58013 
L 113.263011 307.477274 
L 117.912108 307.226731 
L 121.398932 306.817318 
L 123.723481 306.376798 
L 126.04803 305.758042 
L 128.372578 304.929002 
L 130.697127 303.873095 
L 133.021676 302.594387 
L 135.346225 301.113228 
L 138.833048 298.559021 
L 142.319872 295.61628 
L 145.806695 292.239294 
L 149.293519 288.440592 
L 157.42944 279.197602 
L 160.916263 275.725051 
L 164.403086 272.612937 
L 177.188105 261.823636 
L 179.512654 260.324647 
L 181.837203 259.246057 
L 182.999478 258.886147 
L 184.161752 258.651275 
L 185.324026 258.54252 
L 186.486301 258.559316 
L 187.648575 258.699936 
L 188.81085 258.961726 
L 191.135399 259.832981 
L 193.459948 261.127412 
L 195.784497 262.774378 
L 198.109045 264.686831 
L 201.595869 267.880604 
L 206.244967 272.495803 
L 214.380888 280.738412 
L 217.867711 283.988175 
L 221.354534 286.980678 
L 224.841358 289.665875 
L 227.165907 291.239038 
L 229.490456 292.611111 
L 231.815004 293.781845 
L 235.301828 295.2273 
L 241.1132 297.246423 
L 258.547317 303.139196 
L 263.196415 304.269464 
L 267.845512 305.148275 
L 274.819159 306.216611 
L 279.468257 306.754635 
L 284.117355 307.05493 
L 289.928727 307.12976 
L 312.011942 307.125145 
L 335.257431 307.581476 
L 335.257431 307.581476 
" style="fill:none;stroke:#2ca02c;stroke-linecap:round;stroke-width:1.5;"/>
   </g>
   <g id="line2d_32">
    <path clip-path="url(#p8a4df31741)" d="M 102.084855 307.580445 
L 112.129102 307.468788 
L 117.709239 307.209761 
L 123.289375 306.730112 
L 126.637458 306.24664 
L 128.869512 305.766096 
L 131.101567 305.109524 
L 133.333622 304.252733 
L 135.565677 303.195756 
L 137.797732 301.952655 
L 140.029786 300.527439 
L 142.261841 298.890327 
L 144.493896 296.972446 
L 146.725951 294.688793 
L 148.958005 291.982314 
L 151.19006 288.866139 
L 154.538142 283.652228 
L 161.234307 272.984599 
L 166.814444 264.548232 
L 169.046498 261.37437 
L 171.278553 258.569989 
L 172.394581 257.390314 
L 173.510608 256.402567 
L 174.626635 255.632603 
L 175.742663 255.097054 
L 176.85869 254.801156 
L 177.974718 254.737787 
L 179.090745 254.887915 
L 180.206772 255.222462 
L 182.438827 256.297822 
L 185.786909 258.385626 
L 191.367046 262.094123 
L 193.599101 263.829844 
L 195.831156 265.823322 
L 203.643348 273.35607 
L 206.99143 276.056136 
L 212.571567 280.409791 
L 219.267731 285.815144 
L 222.615813 288.104841 
L 233.776087 294.983919 
L 236.008142 296.175001 
L 238.240197 297.145669 
L 240.472252 297.883989 
L 243.820334 298.672451 
L 249.400471 299.870096 
L 252.748553 300.848451 
L 262.792799 304.117287 
L 266.140881 304.778126 
L 269.488964 305.17283 
L 281.765265 306.285609 
L 287.345402 306.814171 
L 291.809511 306.976831 
L 305.20184 307.157164 
L 315.246087 307.519862 
L 324.174306 307.581386 
L 324.174306 307.581386 
" style="fill:none;stroke:#ff7f0e;stroke-linecap:round;stroke-width:1.5;"/>
   </g>
   <g id="line2d_33">
    <path clip-path="url(#p8a4df31741)" d="M 99.493218 307.581358 
L 110.144281 307.477123 
L 116.061538 307.214851 
L 121.978796 306.734964 
L 125.52915 306.287381 
L 129.079505 305.579633 
L 131.446408 304.875889 
L 133.813311 303.927671 
L 136.180214 302.694986 
L 138.547116 301.147182 
L 140.914019 299.261132 
L 143.280922 297.024476 
L 145.647825 294.446365 
L 148.014728 291.571732 
L 152.748534 285.327604 
L 156.298889 280.719815 
L 159.849243 276.498138 
L 166.949952 268.703649 
L 171.683758 263.66569 
L 174.050661 261.558485 
L 175.234112 260.701794 
L 176.417564 260.00169 
L 177.601015 259.465128 
L 178.784467 259.087632 
L 179.967918 258.853766 
L 182.334821 258.715252 
L 185.885176 258.910689 
L 189.43553 259.248458 
L 191.802433 259.669545 
L 194.169336 260.453995 
L 195.352787 261.030355 
L 196.536239 261.742991 
L 198.903142 263.573351 
L 201.270045 265.871584 
L 204.820399 269.850319 
L 208.370754 273.898539 
L 210.737657 276.371941 
L 213.10456 278.58186 
L 216.654914 281.49121 
L 222.572171 286.143152 
L 232.039783 293.945024 
L 235.590138 296.386736 
L 239.140492 298.50138 
L 242.690847 300.328259 
L 245.057749 301.350857 
L 247.424652 302.176075 
L 249.791555 302.792566 
L 253.34191 303.403384 
L 269.910231 305.508365 
L 275.827488 305.778463 
L 284.111648 306.15111 
L 299.496517 307.030328 
L 308.964129 307.204318 
L 335.000062 307.581856 
L 335.000062 307.581856 
" style="fill:none;stroke:#1f77b4;stroke-linecap:round;stroke-width:1.5;"/>
   </g>
   <g id="line2d_34">
    <path clip-path="url(#p8a4df31741)" d="M 138.808852 307.576533 
L 147.482863 307.466476 
L 152.90412 307.191519 
L 158.325376 306.67119 
L 164.830885 305.802265 
L 168.083639 305.217961 
L 171.336393 304.393386 
L 173.504895 303.647309 
L 175.673398 302.721557 
L 178.926152 301.023712 
L 183.263158 298.398679 
L 191.937169 292.813295 
L 195.189923 290.453361 
L 198.442677 287.836358 
L 206.032436 281.557276 
L 208.200939 280.02358 
L 210.369442 278.67664 
L 213.622196 276.964117 
L 217.959201 275.031232 
L 222.296207 273.321275 
L 225.548961 272.265264 
L 228.801715 271.504985 
L 232.054469 271.032429 
L 236.391474 270.694934 
L 239.644229 270.606793 
L 242.896983 270.752346 
L 245.065485 271.052391 
L 247.233988 271.550507 
L 249.402491 272.245225 
L 252.655245 273.57227 
L 260.245004 276.878972 
L 265.666261 278.816686 
L 268.919015 280.066664 
L 271.087518 281.074947 
L 273.256021 282.265921 
L 276.508775 284.359153 
L 283.014283 288.765087 
L 285.182786 290.009101 
L 287.351289 291.077254 
L 290.604043 292.397886 
L 302.530808 296.79543 
L 314.457573 301.775604 
L 318.794578 303.212927 
L 323.131583 304.397856 
L 328.55284 305.636489 
L 332.889846 306.440672 
L 337.226851 307.018272 
L 341.563857 307.354926 
L 346.985113 307.52971 
L 354.574873 307.580091 
L 354.574873 307.580091 
" style="fill:none;stroke:#d62728;stroke-linecap:round;stroke-width:1.5;"/>
   </g>
   <g id="line2d_35">
    <path clip-path="url(#p8a4df31741)" d="M 129.030763 307.582139 
L 145.421767 307.466337 
L 154.247692 307.197711 
L 159.291078 306.888946 
L 163.073618 306.498233 
L 166.856157 305.914483 
L 170.638696 305.117705 
L 174.421236 304.09493 
L 176.942929 303.255781 
L 179.464622 302.239833 
L 181.986314 300.987932 
L 184.508007 299.447719 
L 187.0297 297.59824 
L 189.551393 295.467964 
L 193.333933 291.927797 
L 199.638165 285.991263 
L 203.420704 282.7644 
L 207.203244 279.811412 
L 210.985783 277.139195 
L 213.507476 275.577265 
L 216.029169 274.259485 
L 218.550862 273.227872 
L 221.072555 272.483403 
L 223.594248 271.981823 
L 227.376787 271.526433 
L 232.420173 271.167645 
L 237.463559 271.022061 
L 241.246098 271.179435 
L 243.767791 271.471321 
L 246.289484 271.943314 
L 248.811177 272.611581 
L 251.33287 273.475914 
L 255.115409 275.083997 
L 262.680488 278.779115 
L 268.98472 281.686613 
L 275.288952 284.566315 
L 279.071492 286.532458 
L 284.114878 289.491813 
L 289.158263 292.479069 
L 292.940803 294.464612 
L 296.723342 296.182441 
L 301.766728 298.189445 
L 306.810114 299.957086 
L 310.592653 301.067866 
L 314.375193 301.947481 
L 318.157732 302.614962 
L 323.201118 303.283635 
L 330.766197 304.047254 
L 343.374661 305.268413 
L 358.504819 307.019926 
L 364.809051 307.388292 
L 372.37413 307.550625 
L 379.939208 307.580982 
L 379.939208 307.580982 
" style="fill:none;stroke:#2ca02c;stroke-linecap:round;stroke-width:1.5;"/>
   </g>
   <g id="line2d_36">
    <path clip-path="url(#p8a4df31741)" d="M 143.132826 307.581352 
L 155.208178 307.475382 
L 161.245854 307.23738 
L 167.28353 306.785016 
L 172.113671 306.175868 
L 175.736277 305.425335 
L 178.151347 304.697714 
L 180.566418 303.734195 
L 182.981488 302.505818 
L 185.396559 301.010233 
L 187.811629 299.274797 
L 191.434235 296.338357 
L 198.679446 289.992724 
L 207.132193 282.445017 
L 213.169869 276.669011 
L 216.792474 273.271156 
L 219.207545 271.261233 
L 221.622615 269.609164 
L 224.037686 268.415895 
L 225.245221 268.007106 
L 226.452756 267.722798 
L 228.867826 267.496688 
L 231.282897 267.635036 
L 234.905503 268.203712 
L 239.735643 268.942005 
L 243.358249 269.239086 
L 250.60346 269.694656 
L 254.226066 270.221065 
L 256.641136 270.803097 
L 259.056207 271.642507 
L 261.471277 272.794501 
L 263.886348 274.285409 
L 266.301418 276.098962 
L 268.716489 278.177298 
L 273.546629 282.762438 
L 277.169235 286.162589 
L 279.584306 288.229654 
L 281.999376 290.065684 
L 284.414446 291.659247 
L 286.829517 293.042842 
L 290.452123 294.850717 
L 295.282263 296.981396 
L 298.904869 298.366306 
L 302.527475 299.476456 
L 306.15008 300.297473 
L 319.432968 302.86385 
L 330.300785 305.556948 
L 333.92339 306.139401 
L 337.545996 306.488163 
L 342.376137 306.65771 
L 358.074095 306.823061 
L 372.564517 307.49874 
L 382.224799 307.579768 
L 383.432334 307.58135 
L 383.432334 307.58135 
" style="fill:none;stroke:#ff7f0e;stroke-linecap:round;stroke-width:1.5;"/>
   </g>
   <g id="line2d_37">
    <path clip-path="url(#p8a4df31741)" d="M 134.444639 307.580633 
L 146.386266 307.460246 
L 151.693655 307.213694 
L 157.001045 306.733189 
L 162.308435 305.991695 
L 166.288977 305.249552 
L 170.269519 304.294171 
L 174.250061 303.045316 
L 176.903756 302.01561 
L 179.557451 300.817816 
L 183.537993 298.714736 
L 187.518535 296.280326 
L 191.499078 293.562398 
L 195.47962 290.602148 
L 208.748094 280.415785 
L 211.401789 278.780565 
L 215.382331 276.670056 
L 228.650805 270.288409 
L 231.3045 269.311665 
L 233.958195 268.650332 
L 236.611889 268.363006 
L 239.265584 268.464192 
L 241.919279 268.929382 
L 244.572974 269.703647 
L 247.226669 270.711801 
L 251.207211 272.485917 
L 259.168295 276.346786 
L 264.475685 279.1472 
L 268.456227 281.482838 
L 275.090464 285.728488 
L 280.397854 289.030119 
L 284.378396 291.174381 
L 288.358938 292.953847 
L 292.33948 294.441458 
L 302.95426 298.191118 
L 309.588497 300.610873 
L 312.242191 301.38805 
L 314.895886 301.989408 
L 318.876428 302.607499 
L 326.837513 303.645324 
L 332.144902 304.629246 
L 338.77914 305.896155 
L 342.759682 306.480393 
L 346.740224 306.886619 
L 352.047614 307.185592 
L 358.681851 307.307161 
L 398.487273 307.582264 
L 398.487273 307.582264 
" style="fill:none;stroke:#1f77b4;stroke-linecap:round;stroke-width:1.5;"/>
   </g>
   <g id="patch_3">
    <path d="M 57.6 307.584 
L 57.6 41.472 
" style="fill:none;stroke:#ffffff;stroke-linecap:square;stroke-linejoin:miter;stroke-width:0.8;"/>
   </g>
   <g id="patch_4">
    <path d="M 414.72 307.584 
L 414.72 41.472 
" style="fill:none;stroke:#ffffff;stroke-linecap:square;stroke-linejoin:miter;stroke-width:0.8;"/>
   </g>
   <g id="patch_5">
    <path d="M 57.6 307.584 
L 414.72 307.584 
" style="fill:none;stroke:#ffffff;stroke-linecap:square;stroke-linejoin:miter;stroke-width:0.8;"/>
   </g>
   <g id="patch_6">
    <path d="M 57.6 41.472 
L 414.72 41.472 
" style="fill:none;stroke:#ffffff;stroke-linecap:square;stroke-linejoin:miter;stroke-width:0.8;"/>
   </g>
   <g id="text_19">
    <!-- Density plots of PG(h, 0) using each method for h $\in$ {1,4,7,10,15}. -->
    <g style="fill:#262626;" transform="translate(32.22 35.472)scale(0.12 -0.12)">
     <defs>
      <path id="DejaVuSans-32"/>
      <path d="M 18.109375 8.203125 
L 18.109375 -20.796875 
L 9.078125 -20.796875 
L 9.078125 54.6875 
L 18.109375 54.6875 
L 18.109375 46.390625 
Q 20.953125 51.265625 25.265625 53.625 
Q 29.59375 56 35.59375 56 
Q 45.5625 56 51.78125 48.09375 
Q 58.015625 40.1875 58.015625 27.296875 
Q 58.015625 14.40625 51.78125 6.484375 
Q 45.5625 -1.421875 35.59375 -1.421875 
Q 29.59375 -1.421875 25.265625 0.953125 
Q 20.953125 3.328125 18.109375 8.203125 
z
M 48.6875 27.296875 
Q 48.6875 37.203125 44.609375 42.84375 
Q 40.53125 48.484375 33.40625 48.484375 
Q 26.265625 48.484375 22.1875 42.84375 
Q 18.109375 37.203125 18.109375 27.296875 
Q 18.109375 17.390625 22.1875 11.75 
Q 26.265625 6.109375 33.40625 6.109375 
Q 40.53125 6.109375 44.609375 11.75 
Q 48.6875 17.390625 48.6875 27.296875 
z
" id="DejaVuSans-112"/>
      <path d="M 9.421875 75.984375 
L 18.40625 75.984375 
L 18.40625 0 
L 9.421875 0 
z
" id="DejaVuSans-108"/>
      <path d="M 30.609375 48.390625 
Q 23.390625 48.390625 19.1875 42.75 
Q 14.984375 37.109375 14.984375 27.296875 
Q 14.984375 17.484375 19.15625 11.84375 
Q 23.34375 6.203125 30.609375 6.203125 
Q 37.796875 6.203125 41.984375 11.859375 
Q 46.1875 17.53125 46.1875 27.296875 
Q 46.1875 37.015625 41.984375 42.703125 
Q 37.796875 48.390625 30.609375 48.390625 
z
M 30.609375 56 
Q 42.328125 56 49.015625 48.375 
Q 55.71875 40.765625 55.71875 27.296875 
Q 55.71875 13.875 49.015625 6.21875 
Q 42.328125 -1.421875 30.609375 -1.421875 
Q 18.84375 -1.421875 12.171875 6.21875 
Q 5.515625 13.875 5.515625 27.296875 
Q 5.515625 40.765625 12.171875 48.375 
Q 18.84375 56 30.609375 56 
z
" id="DejaVuSans-111"/>
      <path d="M 37.109375 75.984375 
L 37.109375 68.5 
L 28.515625 68.5 
Q 23.6875 68.5 21.796875 66.546875 
Q 19.921875 64.59375 19.921875 59.515625 
L 19.921875 54.6875 
L 34.71875 54.6875 
L 34.71875 47.703125 
L 19.921875 47.703125 
L 19.921875 0 
L 10.890625 0 
L 10.890625 47.703125 
L 2.296875 47.703125 
L 2.296875 54.6875 
L 10.890625 54.6875 
L 10.890625 58.5 
Q 10.890625 67.625 15.140625 71.796875 
Q 19.390625 75.984375 28.609375 75.984375 
z
" id="DejaVuSans-102"/>
      <path d="M 19.671875 64.796875 
L 19.671875 37.40625 
L 32.078125 37.40625 
Q 38.96875 37.40625 42.71875 40.96875 
Q 46.484375 44.53125 46.484375 51.125 
Q 46.484375 57.671875 42.71875 61.234375 
Q 38.96875 64.796875 32.078125 64.796875 
z
M 9.8125 72.90625 
L 32.078125 72.90625 
Q 44.34375 72.90625 50.609375 67.359375 
Q 56.890625 61.8125 56.890625 51.125 
Q 56.890625 40.328125 50.609375 34.8125 
Q 44.34375 29.296875 32.078125 29.296875 
L 19.671875 29.296875 
L 19.671875 0 
L 9.8125 0 
z
" id="DejaVuSans-80"/>
      <path d="M 59.515625 10.40625 
L 59.515625 29.984375 
L 43.40625 29.984375 
L 43.40625 38.09375 
L 69.28125 38.09375 
L 69.28125 6.78125 
Q 63.578125 2.734375 56.6875 0.65625 
Q 49.8125 -1.421875 42 -1.421875 
Q 24.90625 -1.421875 15.25 8.5625 
Q 5.609375 18.5625 5.609375 36.375 
Q 5.609375 54.25 15.25 64.234375 
Q 24.90625 74.21875 42 74.21875 
Q 49.125 74.21875 55.546875 72.453125 
Q 61.96875 70.703125 67.390625 67.28125 
L 67.390625 56.78125 
Q 61.921875 61.421875 55.765625 63.765625 
Q 49.609375 66.109375 42.828125 66.109375 
Q 29.4375 66.109375 22.71875 58.640625 
Q 16.015625 51.171875 16.015625 36.375 
Q 16.015625 21.625 22.71875 14.15625 
Q 29.4375 6.6875 42.828125 6.6875 
Q 48.046875 6.6875 52.140625 7.59375 
Q 56.25 8.5 59.515625 10.40625 
z
" id="DejaVuSans-71"/>
      <path d="M 31 75.875 
Q 24.46875 64.65625 21.28125 53.65625 
Q 18.109375 42.671875 18.109375 31.390625 
Q 18.109375 20.125 21.3125 9.0625 
Q 24.515625 -2 31 -13.1875 
L 23.1875 -13.1875 
Q 15.875 -1.703125 12.234375 9.375 
Q 8.59375 20.453125 8.59375 31.390625 
Q 8.59375 42.28125 12.203125 53.3125 
Q 15.828125 64.359375 23.1875 75.875 
z
" id="DejaVuSans-40"/>
      <path d="M 54.890625 33.015625 
L 54.890625 0 
L 45.90625 0 
L 45.90625 32.71875 
Q 45.90625 40.484375 42.875 44.328125 
Q 39.84375 48.1875 33.796875 48.1875 
Q 26.515625 48.1875 22.3125 43.546875 
Q 18.109375 38.921875 18.109375 30.90625 
L 18.109375 0 
L 9.078125 0 
L 9.078125 75.984375 
L 18.109375 75.984375 
L 18.109375 46.1875 
Q 21.34375 51.125 25.703125 53.5625 
Q 30.078125 56 35.796875 56 
Q 45.21875 56 50.046875 50.171875 
Q 54.890625 44.34375 54.890625 33.015625 
z
" id="DejaVuSans-104"/>
      <path d="M 11.71875 12.40625 
L 22.015625 12.40625 
L 22.015625 4 
L 14.015625 -11.625 
L 7.71875 -11.625 
L 11.71875 4 
z
" id="DejaVuSans-44"/>
      <path d="M 8.015625 75.875 
L 15.828125 75.875 
Q 23.140625 64.359375 26.78125 53.3125 
Q 30.421875 42.28125 30.421875 31.390625 
Q 30.421875 20.453125 26.78125 9.375 
Q 23.140625 -1.703125 15.828125 -13.1875 
L 8.015625 -13.1875 
Q 14.5 -2 17.703125 9.0625 
Q 20.90625 20.125 20.90625 31.390625 
Q 20.90625 42.671875 17.703125 53.65625 
Q 14.5 64.65625 8.015625 75.875 
z
" id="DejaVuSans-41"/>
      <path d="M 8.5 21.578125 
L 8.5 54.6875 
L 17.484375 54.6875 
L 17.484375 21.921875 
Q 17.484375 14.15625 20.5 10.265625 
Q 23.53125 6.390625 29.59375 6.390625 
Q 36.859375 6.390625 41.078125 11.03125 
Q 45.3125 15.671875 45.3125 23.6875 
L 45.3125 54.6875 
L 54.296875 54.6875 
L 54.296875 0 
L 45.3125 0 
L 45.3125 8.40625 
Q 42.046875 3.421875 37.71875 1 
Q 33.40625 -1.421875 27.6875 -1.421875 
Q 18.265625 -1.421875 13.375 4.4375 
Q 8.5 10.296875 8.5 21.578125 
z
M 31.109375 56 
z
" id="DejaVuSans-117"/>
      <path d="M 45.40625 27.984375 
Q 45.40625 37.75 41.375 43.109375 
Q 37.359375 48.484375 30.078125 48.484375 
Q 22.859375 48.484375 18.828125 43.109375 
Q 14.796875 37.75 14.796875 27.984375 
Q 14.796875 18.265625 18.828125 12.890625 
Q 22.859375 7.515625 30.078125 7.515625 
Q 37.359375 7.515625 41.375 12.890625 
Q 45.40625 18.265625 45.40625 27.984375 
z
M 54.390625 6.78125 
Q 54.390625 -7.171875 48.1875 -13.984375 
Q 42 -20.796875 29.203125 -20.796875 
Q 24.46875 -20.796875 20.265625 -20.09375 
Q 16.0625 -19.390625 12.109375 -17.921875 
L 12.109375 -9.1875 
Q 16.0625 -11.328125 19.921875 -12.34375 
Q 23.78125 -13.375 27.78125 -13.375 
Q 36.625 -13.375 41.015625 -8.765625 
Q 45.40625 -4.15625 45.40625 5.171875 
L 45.40625 9.625 
Q 42.625 4.78125 38.28125 2.390625 
Q 33.9375 0 27.875 0 
Q 17.828125 0 11.671875 7.65625 
Q 5.515625 15.328125 5.515625 27.984375 
Q 5.515625 40.671875 11.671875 48.328125 
Q 17.828125 56 27.875 56 
Q 33.9375 56 38.28125 53.609375 
Q 42.625 51.21875 45.40625 46.390625 
L 45.40625 54.6875 
L 54.390625 54.6875 
z
" id="DejaVuSans-103"/>
      <path d="M 34.28125 27.484375 
Q 23.390625 27.484375 19.1875 25 
Q 14.984375 22.515625 14.984375 16.5 
Q 14.984375 11.71875 18.140625 8.90625 
Q 21.296875 6.109375 26.703125 6.109375 
Q 34.1875 6.109375 38.703125 11.40625 
Q 43.21875 16.703125 43.21875 25.484375 
L 43.21875 27.484375 
z
M 52.203125 31.203125 
L 52.203125 0 
L 43.21875 0 
L 43.21875 8.296875 
Q 40.140625 3.328125 35.546875 0.953125 
Q 30.953125 -1.421875 24.3125 -1.421875 
Q 15.921875 -1.421875 10.953125 3.296875 
Q 6 8.015625 6 15.921875 
Q 6 25.140625 12.171875 29.828125 
Q 18.359375 34.515625 30.609375 34.515625 
L 43.21875 34.515625 
L 43.21875 35.40625 
Q 43.21875 41.609375 39.140625 45 
Q 35.0625 48.390625 27.6875 48.390625 
Q 23 48.390625 18.546875 47.265625 
Q 14.109375 46.140625 10.015625 43.890625 
L 10.015625 52.203125 
Q 14.9375 54.109375 19.578125 55.046875 
Q 24.21875 56 28.609375 56 
Q 40.484375 56 46.34375 49.84375 
Q 52.203125 43.703125 52.203125 31.203125 
z
" id="DejaVuSans-97"/>
      <path d="M 48.78125 52.59375 
L 48.78125 44.1875 
Q 44.96875 46.296875 41.140625 47.34375 
Q 37.3125 48.390625 33.40625 48.390625 
Q 24.65625 48.390625 19.8125 42.84375 
Q 14.984375 37.3125 14.984375 27.296875 
Q 14.984375 17.28125 19.8125 11.734375 
Q 24.65625 6.203125 33.40625 6.203125 
Q 37.3125 6.203125 41.140625 7.25 
Q 44.96875 8.296875 48.78125 10.40625 
L 48.78125 2.09375 
Q 45.015625 0.34375 40.984375 -0.53125 
Q 36.96875 -1.421875 32.421875 -1.421875 
Q 20.0625 -1.421875 12.78125 6.34375 
Q 5.515625 14.109375 5.515625 27.296875 
Q 5.515625 40.671875 12.859375 48.328125 
Q 20.21875 56 33.015625 56 
Q 37.15625 56 41.109375 55.140625 
Q 45.0625 54.296875 48.78125 52.59375 
z
" id="DejaVuSans-99"/>
      <path d="M 52 44.1875 
Q 55.375 50.25 60.0625 53.125 
Q 64.75 56 71.09375 56 
Q 79.640625 56 84.28125 50.015625 
Q 88.921875 44.046875 88.921875 33.015625 
L 88.921875 0 
L 79.890625 0 
L 79.890625 32.71875 
Q 79.890625 40.578125 77.09375 44.375 
Q 74.3125 48.1875 68.609375 48.1875 
Q 61.625 48.1875 57.5625 43.546875 
Q 53.515625 38.921875 53.515625 30.90625 
L 53.515625 0 
L 44.484375 0 
L 44.484375 32.71875 
Q 44.484375 40.625 41.703125 44.40625 
Q 38.921875 48.1875 33.109375 48.1875 
Q 26.21875 48.1875 22.15625 43.53125 
Q 18.109375 38.875 18.109375 30.90625 
L 18.109375 0 
L 9.078125 0 
L 9.078125 54.6875 
L 18.109375 54.6875 
L 18.109375 46.1875 
Q 21.1875 51.21875 25.484375 53.609375 
Q 29.78125 56 35.6875 56 
Q 41.65625 56 45.828125 52.96875 
Q 50 49.953125 52 44.1875 
z
" id="DejaVuSans-109"/>
      <path d="M 45.40625 46.390625 
L 45.40625 75.984375 
L 54.390625 75.984375 
L 54.390625 0 
L 45.40625 0 
L 45.40625 8.203125 
Q 42.578125 3.328125 38.25 0.953125 
Q 33.9375 -1.421875 27.875 -1.421875 
Q 17.96875 -1.421875 11.734375 6.484375 
Q 5.515625 14.40625 5.515625 27.296875 
Q 5.515625 40.1875 11.734375 48.09375 
Q 17.96875 56 27.875 56 
Q 33.9375 56 38.25 53.625 
Q 42.578125 51.265625 45.40625 46.390625 
z
M 14.796875 27.296875 
Q 14.796875 17.390625 18.875 11.75 
Q 22.953125 6.109375 30.078125 6.109375 
Q 37.203125 6.109375 41.296875 11.75 
Q 45.40625 17.390625 45.40625 27.296875 
Q 45.40625 37.203125 41.296875 42.84375 
Q 37.203125 48.484375 30.078125 48.484375 
Q 22.953125 48.484375 18.875 42.84375 
Q 14.796875 37.203125 14.796875 27.296875 
z
" id="DejaVuSans-100"/>
      <path d="M 41.109375 46.296875 
Q 39.59375 47.171875 37.8125 47.578125 
Q 36.03125 48 33.890625 48 
Q 26.265625 48 22.1875 43.046875 
Q 18.109375 38.09375 18.109375 28.8125 
L 18.109375 0 
L 9.078125 0 
L 9.078125 54.6875 
L 18.109375 54.6875 
L 18.109375 46.1875 
Q 20.953125 51.171875 25.484375 53.578125 
Q 30.03125 56 36.53125 56 
Q 37.453125 56 38.578125 55.875 
Q 39.703125 55.765625 41.0625 55.515625 
z
" id="DejaVuSans-114"/>
      <path d="M 16.75 30.609375 
Q 17.09375 27 20.171875 21.140625 
Q 23.78125 14.359375 30.609375 10.546875 
Q 37.3125 6.84375 44.53125 6.78125 
L 78.5625 6.78125 
L 78.5625 -0.984375 
L 44.53125 -0.984375 
Q 35.15625 -0.984375 26.484375 3.84375 
Q 17.828125 8.6875 13.1875 17.28125 
Q 8.546875 25.875 8.546875 35.015625 
Q 8.546875 44.046875 13.1875 52.640625 
Q 17.828125 61.234375 26.484375 66.109375 
Q 35.15625 71 44.53125 71 
L 78.5625 71 
L 78.5625 63.234375 
L 44.53125 63.234375 
Q 37.3125 63.1875 30.609375 59.421875 
Q 23.828125 55.5625 20.171875 48.828125 
Q 17.046875 42.96875 16.609375 38.421875 
L 78.5625 38.421875 
L 78.5625 30.609375 
z
" id="DejaVuSans-8712"/>
      <path d="M 51.125 -9.28125 
L 51.125 -16.3125 
L 48.09375 -16.3125 
Q 35.9375 -16.3125 31.8125 -12.6875 
Q 27.6875 -9.078125 27.6875 1.703125 
L 27.6875 13.375 
Q 27.6875 20.75 25.046875 23.578125 
Q 22.40625 26.421875 15.484375 26.421875 
L 12.5 26.421875 
L 12.5 33.40625 
L 15.484375 33.40625 
Q 22.46875 33.40625 25.078125 36.203125 
Q 27.6875 39.015625 27.6875 46.296875 
L 27.6875 58.015625 
Q 27.6875 68.796875 31.8125 72.390625 
Q 35.9375 75.984375 48.09375 75.984375 
L 51.125 75.984375 
L 51.125 69 
L 47.796875 69 
Q 40.921875 69 38.8125 66.84375 
Q 36.71875 64.703125 36.71875 57.8125 
L 36.71875 45.703125 
Q 36.71875 38.03125 34.5 34.5625 
Q 32.28125 31.109375 26.90625 29.890625 
Q 32.328125 28.5625 34.515625 25.09375 
Q 36.71875 21.625 36.71875 14.015625 
L 36.71875 1.90625 
Q 36.71875 -4.984375 38.8125 -7.125 
Q 40.921875 -9.28125 47.796875 -9.28125 
z
" id="DejaVuSans-123"/>
      <path d="M 12.5 -9.28125 
L 15.921875 -9.28125 
Q 22.75 -9.28125 24.828125 -7.171875 
Q 26.90625 -5.078125 26.90625 1.90625 
L 26.90625 14.015625 
Q 26.90625 21.625 29.09375 25.09375 
Q 31.296875 28.5625 36.71875 29.890625 
Q 31.296875 31.109375 29.09375 34.5625 
Q 26.90625 38.03125 26.90625 45.703125 
L 26.90625 57.8125 
Q 26.90625 64.75 24.828125 66.875 
Q 22.75 69 15.921875 69 
L 12.5 69 
L 12.5 75.984375 
L 15.578125 75.984375 
Q 27.734375 75.984375 31.8125 72.390625 
Q 35.890625 68.796875 35.890625 58.015625 
L 35.890625 46.296875 
Q 35.890625 39.015625 38.515625 36.203125 
Q 41.15625 33.40625 48.09375 33.40625 
L 51.125 33.40625 
L 51.125 26.421875 
L 48.09375 26.421875 
Q 41.15625 26.421875 38.515625 23.578125 
Q 35.890625 20.75 35.890625 13.375 
L 35.890625 1.703125 
Q 35.890625 -9.078125 31.8125 -12.6875 
Q 27.734375 -16.3125 15.578125 -16.3125 
L 12.5 -16.3125 
z
" id="DejaVuSans-125"/>
     </defs>
     <use transform="translate(0 0.015625)" xlink:href="#DejaVuSans-68"/>
     <use transform="translate(77.001953 0.015625)" xlink:href="#DejaVuSans-101"/>
     <use transform="translate(138.525391 0.015625)" xlink:href="#DejaVuSans-110"/>
     <use transform="translate(201.904297 0.015625)" xlink:href="#DejaVuSans-115"/>
     <use transform="translate(254.003906 0.015625)" xlink:href="#DejaVuSans-105"/>
     <use transform="translate(281.787109 0.015625)" xlink:href="#DejaVuSans-116"/>
     <use transform="translate(320.996094 0.015625)" xlink:href="#DejaVuSans-121"/>
     <use transform="translate(380.175781 0.015625)" xlink:href="#DejaVuSans-32"/>
     <use transform="translate(411.962891 0.015625)" xlink:href="#DejaVuSans-112"/>
     <use transform="translate(475.439453 0.015625)" xlink:href="#DejaVuSans-108"/>
     <use transform="translate(503.222656 0.015625)" xlink:href="#DejaVuSans-111"/>
     <use transform="translate(564.404297 0.015625)" xlink:href="#DejaVuSans-116"/>
     <use transform="translate(603.613281 0.015625)" xlink:href="#DejaVuSans-115"/>
     <use transform="translate(655.712891 0.015625)" xlink:href="#DejaVuSans-32"/>
     <use transform="translate(687.5 0.015625)" xlink:href="#DejaVuSans-111"/>
     <use transform="translate(748.681641 0.015625)" xlink:href="#DejaVuSans-102"/>
     <use transform="translate(783.886719 0.015625)" xlink:href="#DejaVuSans-32"/>
     <use transform="translate(815.673828 0.015625)" xlink:href="#DejaVuSans-80"/>
     <use transform="translate(875.976562 0.015625)" xlink:href="#DejaVuSans-71"/>
     <use transform="translate(953.466797 0.015625)" xlink:href="#DejaVuSans-40"/>
     <use transform="translate(992.480469 0.015625)" xlink:href="#DejaVuSans-104"/>
     <use transform="translate(1055.859375 0.015625)" xlink:href="#DejaVuSans-44"/>
     <use transform="translate(1087.646484 0.015625)" xlink:href="#DejaVuSans-32"/>
     <use transform="translate(1119.433594 0.015625)" xlink:href="#DejaVuSans-48"/>
     <use transform="translate(1183.056641 0.015625)" xlink:href="#DejaVuSans-41"/>
     <use transform="translate(1222.070312 0.015625)" xlink:href="#DejaVuSans-32"/>
     <use transform="translate(1253.857422 0.015625)" xlink:href="#DejaVuSans-117"/>
     <use transform="translate(1317.236328 0.015625)" xlink:href="#DejaVuSans-115"/>
     <use transform="translate(1369.335938 0.015625)" xlink:href="#DejaVuSans-105"/>
     <use transform="translate(1397.119141 0.015625)" xlink:href="#DejaVuSans-110"/>
     <use transform="translate(1460.498047 0.015625)" xlink:href="#DejaVuSans-103"/>
     <use transform="translate(1523.974609 0.015625)" xlink:href="#DejaVuSans-32"/>
     <use transform="translate(1555.761719 0.015625)" xlink:href="#DejaVuSans-101"/>
     <use transform="translate(1617.285156 0.015625)" xlink:href="#DejaVuSans-97"/>
     <use transform="translate(1678.564453 0.015625)" xlink:href="#DejaVuSans-99"/>
     <use transform="translate(1733.544922 0.015625)" xlink:href="#DejaVuSans-104"/>
     <use transform="translate(1796.923828 0.015625)" xlink:href="#DejaVuSans-32"/>
     <use transform="translate(1828.710938 0.015625)" xlink:href="#DejaVuSans-109"/>
     <use transform="translate(1926.123047 0.015625)" xlink:href="#DejaVuSans-101"/>
     <use transform="translate(1987.646484 0.015625)" xlink:href="#DejaVuSans-116"/>
     <use transform="translate(2026.855469 0.015625)" xlink:href="#DejaVuSans-104"/>
     <use transform="translate(2090.234375 0.015625)" xlink:href="#DejaVuSans-111"/>
     <use transform="translate(2151.416016 0.015625)" xlink:href="#DejaVuSans-100"/>
     <use transform="translate(2214.892578 0.015625)" xlink:href="#DejaVuSans-32"/>
     <use transform="translate(2246.679688 0.015625)" xlink:href="#DejaVuSans-102"/>
     <use transform="translate(2281.884766 0.015625)" xlink:href="#DejaVuSans-111"/>
     <use transform="translate(2343.066406 0.015625)" xlink:href="#DejaVuSans-114"/>
     <use transform="translate(2384.179688 0.015625)" xlink:href="#DejaVuSans-32"/>
     <use transform="translate(2415.966797 0.015625)" xlink:href="#DejaVuSans-104"/>
     <use transform="translate(2479.345703 0.015625)" xlink:href="#DejaVuSans-32"/>
     <use transform="translate(2530.615234 0.015625)" xlink:href="#DejaVuSans-8712"/>
     <use transform="translate(2637.207031 0.015625)" xlink:href="#DejaVuSans-32"/>
     <use transform="translate(2668.994141 0.015625)" xlink:href="#DejaVuSans-123"/>
     <use transform="translate(2732.617188 0.015625)" xlink:href="#DejaVuSans-49"/>
     <use transform="translate(2796.240234 0.015625)" xlink:href="#DejaVuSans-44"/>
     <use transform="translate(2828.027344 0.015625)" xlink:href="#DejaVuSans-52"/>
     <use transform="translate(2891.650391 0.015625)" xlink:href="#DejaVuSans-44"/>
     <use transform="translate(2923.4375 0.015625)" xlink:href="#DejaVuSans-55"/>
     <use transform="translate(2987.060547 0.015625)" xlink:href="#DejaVuSans-44"/>
     <use transform="translate(3018.847656 0.015625)" xlink:href="#DejaVuSans-49"/>
     <use transform="translate(3082.470703 0.015625)" xlink:href="#DejaVuSans-48"/>
     <use transform="translate(3146.09375 0.015625)" xlink:href="#DejaVuSans-44"/>
     <use transform="translate(3177.880859 0.015625)" xlink:href="#DejaVuSans-49"/>
     <use transform="translate(3241.503906 0.015625)" xlink:href="#DejaVuSans-53"/>
     <use transform="translate(3303.376953 0.015625)" xlink:href="#DejaVuSans-125"/>
     <use transform="translate(3367 0.015625)" xlink:href="#DejaVuSans-46"/>
    </g>
   </g>
   <g id="legend_1">
    <g id="patch_7">
     <path d="M 330.265313 108.1845 
L 407.72 108.1845 
Q 409.72 108.1845 409.72 106.1845 
L 409.72 48.472 
Q 409.72 46.472 407.72 46.472 
L 330.265313 46.472 
Q 328.265313 46.472 328.265313 48.472 
L 328.265313 106.1845 
Q 328.265313 108.1845 330.265313 108.1845 
z
" style="fill:#eaeaf2;opacity:0.8;stroke:#cccccc;stroke-linejoin:miter;"/>
    </g>
    <g id="line2d_38">
     <path d="M 332.265313 54.570438 
L 352.265313 54.570438 
" style="fill:none;stroke:#1f77b4;stroke-linecap:round;stroke-width:1.5;"/>
    </g>
    <g id="line2d_39"/>
    <g id="text_20">
     <!-- devroye -->
     <g style="fill:#262626;" transform="translate(360.265313 58.070438)scale(0.1 -0.1)">
      <defs>
       <path d="M 2.984375 54.6875 
L 12.5 54.6875 
L 29.59375 8.796875 
L 46.6875 54.6875 
L 56.203125 54.6875 
L 35.6875 0 
L 23.484375 0 
z
" id="DejaVuSans-118"/>
      </defs>
      <use xlink:href="#DejaVuSans-100"/>
      <use x="63.476562" xlink:href="#DejaVuSans-101"/>
      <use x="125" xlink:href="#DejaVuSans-118"/>
      <use x="184.179688" xlink:href="#DejaVuSans-114"/>
      <use x="223.042969" xlink:href="#DejaVuSans-111"/>
      <use x="284.224609" xlink:href="#DejaVuSans-121"/>
      <use x="343.404297" xlink:href="#DejaVuSans-101"/>
     </g>
    </g>
    <g id="line2d_40">
     <path d="M 332.265313 69.248563 
L 352.265313 69.248563 
" style="fill:none;stroke:#ff7f0e;stroke-linecap:round;stroke-width:1.5;"/>
    </g>
    <g id="line2d_41"/>
    <g id="text_21">
     <!-- alternate -->
     <g style="fill:#262626;" transform="translate(360.265313 72.748563)scale(0.1 -0.1)">
      <use xlink:href="#DejaVuSans-97"/>
      <use x="61.279297" xlink:href="#DejaVuSans-108"/>
      <use x="89.0625" xlink:href="#DejaVuSans-116"/>
      <use x="128.271484" xlink:href="#DejaVuSans-101"/>
      <use x="189.794922" xlink:href="#DejaVuSans-114"/>
      <use x="229.158203" xlink:href="#DejaVuSans-110"/>
      <use x="292.537109" xlink:href="#DejaVuSans-97"/>
      <use x="353.816406" xlink:href="#DejaVuSans-116"/>
      <use x="393.025391" xlink:href="#DejaVuSans-101"/>
     </g>
    </g>
    <g id="line2d_42">
     <path d="M 332.265313 83.926688 
L 352.265313 83.926688 
" style="fill:none;stroke:#2ca02c;stroke-linecap:round;stroke-width:1.5;"/>
    </g>
    <g id="line2d_43"/>
    <g id="text_22">
     <!-- gamma -->
     <g style="fill:#262626;" transform="translate(360.265313 87.426688)scale(0.1 -0.1)">
      <use xlink:href="#DejaVuSans-103"/>
      <use x="63.476562" xlink:href="#DejaVuSans-97"/>
      <use x="124.755859" xlink:href="#DejaVuSans-109"/>
      <use x="222.167969" xlink:href="#DejaVuSans-109"/>
      <use x="319.580078" xlink:href="#DejaVuSans-97"/>
     </g>
    </g>
    <g id="line2d_44">
     <path d="M 332.265313 98.604813 
L 352.265313 98.604813 
" style="fill:none;stroke:#d62728;stroke-linecap:round;stroke-width:1.5;"/>
    </g>
    <g id="line2d_45"/>
    <g id="text_23">
     <!-- saddle -->
     <g style="fill:#262626;" transform="translate(360.265313 102.104813)scale(0.1 -0.1)">
      <use xlink:href="#DejaVuSans-115"/>
      <use x="52.099609" xlink:href="#DejaVuSans-97"/>
      <use x="113.378906" xlink:href="#DejaVuSans-100"/>
      <use x="176.855469" xlink:href="#DejaVuSans-100"/>
      <use x="240.332031" xlink:href="#DejaVuSans-108"/>
      <use x="268.115234" xlink:href="#DejaVuSans-101"/>
     </g>
    </g>
   </g>
  </g>
 </g>
 <defs>
  <clipPath id="p8a4df31741">
   <rect height="266.112" width="357.12" x="57.6" y="41.472"/>
  </clipPath>
 </defs>
</svg>
