<?xml version="1.0" encoding="utf-8" standalone="no"?>
<!DOCTYPE svg PUBLIC "-//W3C//DTD SVG 1.1//EN"
  "http://www.w3.org/Graphics/SVG/1.1/DTD/svg11.dtd">
<!-- Created with matplotlib (https://matplotlib.org/) -->
<svg height="345.6pt" version="1.1" viewBox="0 0 460.8 345.6" width="460.8pt" xmlns="http://www.w3.org/2000/svg" xmlns:xlink="http://www.w3.org/1999/xlink">
 <metadata>
  <rdf:RDF xmlns:cc="http://creativecommons.org/ns#" xmlns:dc="http://purl.org/dc/elements/1.1/" xmlns:rdf="http://www.w3.org/1999/02/22-rdf-syntax-ns#">
   <cc:Work>
    <dc:type rdf:resource="http://purl.org/dc/dcmitype/StillImage"/>
    <dc:date>2021-01-24T23:50:41.392222</dc:date>
    <dc:format>image/svg+xml</dc:format>
    <dc:creator>
     <cc:Agent>
      <dc:title>Matplotlib v3.3.3, https://matplotlib.org/</dc:title>
     </cc:Agent>
    </dc:creator>
   </cc:Work>
  </rdf:RDF>
 </metadata>
 <defs>
  <style type="text/css">*{stroke-linecap:butt;stroke-linejoin:round;}</style>
 </defs>
 <g id="figure_1">
  <g id="patch_1">
   <path d="M 0 345.6 
L 460.8 345.6 
L 460.8 0 
L 0 0 
z
" style="fill:#ffffff;"/>
  </g>
  <g id="axes_1">
   <g id="patch_2">
    <path d="M 57.6 307.584 
L 414.72 307.584 
L 414.72 41.472 
L 57.6 41.472 
z
" style="fill:#eaeaf2;"/>
   </g>
   <g id="matplotlib.axis_1">
    <g id="xtick_1">
     <g id="line2d_1">
      <path clip-path="url(#pc3456bbffc)" d="M 79.617473 307.584 
L 79.617473 41.472 
" style="fill:none;stroke:#ffffff;stroke-linecap:round;stroke-width:0.8;"/>
     </g>
     <g id="text_1">
      <!-- 0 -->
      <g style="fill:#262626;" transform="translate(76.436223 322.182437)scale(0.1 -0.1)">
       <defs>
        <path d="M 31.78125 66.40625 
Q 24.171875 66.40625 20.328125 58.90625 
Q 16.5 51.421875 16.5 36.375 
Q 16.5 21.390625 20.328125 13.890625 
Q 24.171875 6.390625 31.78125 6.390625 
Q 39.453125 6.390625 43.28125 13.890625 
Q 47.125 21.390625 47.125 36.375 
Q 47.125 51.421875 43.28125 58.90625 
Q 39.453125 66.40625 31.78125 66.40625 
z
M 31.78125 74.21875 
Q 44.046875 74.21875 50.515625 64.515625 
Q 56.984375 54.828125 56.984375 36.375 
Q 56.984375 17.96875 50.515625 8.265625 
Q 44.046875 -1.421875 31.78125 -1.421875 
Q 19.53125 -1.421875 13.0625 8.265625 
Q 6.59375 17.96875 6.59375 36.375 
Q 6.59375 54.828125 13.0625 64.515625 
Q 19.53125 74.21875 31.78125 74.21875 
z
" id="DejaVuSans-48"/>
       </defs>
       <use xlink:href="#DejaVuSans-48"/>
      </g>
     </g>
    </g>
    <g id="xtick_2">
     <g id="line2d_2">
      <path clip-path="url(#pc3456bbffc)" d="M 120.611514 307.584 
L 120.611514 41.472 
" style="fill:none;stroke:#ffffff;stroke-linecap:round;stroke-width:0.8;"/>
     </g>
     <g id="text_2">
      <!-- 1 -->
      <g style="fill:#262626;" transform="translate(117.430264 322.182437)scale(0.1 -0.1)">
       <defs>
        <path d="M 12.40625 8.296875 
L 28.515625 8.296875 
L 28.515625 63.921875 
L 10.984375 60.40625 
L 10.984375 69.390625 
L 28.421875 72.90625 
L 38.28125 72.90625 
L 38.28125 8.296875 
L 54.390625 8.296875 
L 54.390625 0 
L 12.40625 0 
z
" id="DejaVuSans-49"/>
       </defs>
       <use xlink:href="#DejaVuSans-49"/>
      </g>
     </g>
    </g>
    <g id="xtick_3">
     <g id="line2d_3">
      <path clip-path="url(#pc3456bbffc)" d="M 161.605555 307.584 
L 161.605555 41.472 
" style="fill:none;stroke:#ffffff;stroke-linecap:round;stroke-width:0.8;"/>
     </g>
     <g id="text_3">
      <!-- 2 -->
      <g style="fill:#262626;" transform="translate(158.424305 322.182437)scale(0.1 -0.1)">
       <defs>
        <path d="M 19.1875 8.296875 
L 53.609375 8.296875 
L 53.609375 0 
L 7.328125 0 
L 7.328125 8.296875 
Q 12.9375 14.109375 22.625 23.890625 
Q 32.328125 33.6875 34.8125 36.53125 
Q 39.546875 41.84375 41.421875 45.53125 
Q 43.3125 49.21875 43.3125 52.78125 
Q 43.3125 58.59375 39.234375 62.25 
Q 35.15625 65.921875 28.609375 65.921875 
Q 23.96875 65.921875 18.8125 64.3125 
Q 13.671875 62.703125 7.8125 59.421875 
L 7.8125 69.390625 
Q 13.765625 71.78125 18.9375 73 
Q 24.125 74.21875 28.421875 74.21875 
Q 39.75 74.21875 46.484375 68.546875 
Q 53.21875 62.890625 53.21875 53.421875 
Q 53.21875 48.921875 51.53125 44.890625 
Q 49.859375 40.875 45.40625 35.40625 
Q 44.1875 33.984375 37.640625 27.21875 
Q 31.109375 20.453125 19.1875 8.296875 
z
" id="DejaVuSans-50"/>
       </defs>
       <use xlink:href="#DejaVuSans-50"/>
      </g>
     </g>
    </g>
    <g id="xtick_4">
     <g id="line2d_4">
      <path clip-path="url(#pc3456bbffc)" d="M 202.599596 307.584 
L 202.599596 41.472 
" style="fill:none;stroke:#ffffff;stroke-linecap:round;stroke-width:0.8;"/>
     </g>
     <g id="text_4">
      <!-- 3 -->
      <g style="fill:#262626;" transform="translate(199.418346 322.182437)scale(0.1 -0.1)">
       <defs>
        <path d="M 40.578125 39.3125 
Q 47.65625 37.796875 51.625 33 
Q 55.609375 28.21875 55.609375 21.1875 
Q 55.609375 10.40625 48.1875 4.484375 
Q 40.765625 -1.421875 27.09375 -1.421875 
Q 22.515625 -1.421875 17.65625 -0.515625 
Q 12.796875 0.390625 7.625 2.203125 
L 7.625 11.71875 
Q 11.71875 9.328125 16.59375 8.109375 
Q 21.484375 6.890625 26.8125 6.890625 
Q 36.078125 6.890625 40.9375 10.546875 
Q 45.796875 14.203125 45.796875 21.1875 
Q 45.796875 27.640625 41.28125 31.265625 
Q 36.765625 34.90625 28.71875 34.90625 
L 20.21875 34.90625 
L 20.21875 43.015625 
L 29.109375 43.015625 
Q 36.375 43.015625 40.234375 45.921875 
Q 44.09375 48.828125 44.09375 54.296875 
Q 44.09375 59.90625 40.109375 62.90625 
Q 36.140625 65.921875 28.71875 65.921875 
Q 24.65625 65.921875 20.015625 65.03125 
Q 15.375 64.15625 9.8125 62.3125 
L 9.8125 71.09375 
Q 15.4375 72.65625 20.34375 73.4375 
Q 25.25 74.21875 29.59375 74.21875 
Q 40.828125 74.21875 47.359375 69.109375 
Q 53.90625 64.015625 53.90625 55.328125 
Q 53.90625 49.265625 50.4375 45.09375 
Q 46.96875 40.921875 40.578125 39.3125 
z
" id="DejaVuSans-51"/>
       </defs>
       <use xlink:href="#DejaVuSans-51"/>
      </g>
     </g>
    </g>
    <g id="xtick_5">
     <g id="line2d_5">
      <path clip-path="url(#pc3456bbffc)" d="M 243.593637 307.584 
L 243.593637 41.472 
" style="fill:none;stroke:#ffffff;stroke-linecap:round;stroke-width:0.8;"/>
     </g>
     <g id="text_5">
      <!-- 4 -->
      <g style="fill:#262626;" transform="translate(240.412387 322.182437)scale(0.1 -0.1)">
       <defs>
        <path d="M 37.796875 64.3125 
L 12.890625 25.390625 
L 37.796875 25.390625 
z
M 35.203125 72.90625 
L 47.609375 72.90625 
L 47.609375 25.390625 
L 58.015625 25.390625 
L 58.015625 17.1875 
L 47.609375 17.1875 
L 47.609375 0 
L 37.796875 0 
L 37.796875 17.1875 
L 4.890625 17.1875 
L 4.890625 26.703125 
z
" id="DejaVuSans-52"/>
       </defs>
       <use xlink:href="#DejaVuSans-52"/>
      </g>
     </g>
    </g>
    <g id="xtick_6">
     <g id="line2d_6">
      <path clip-path="url(#pc3456bbffc)" d="M 284.587678 307.584 
L 284.587678 41.472 
" style="fill:none;stroke:#ffffff;stroke-linecap:round;stroke-width:0.8;"/>
     </g>
     <g id="text_6">
      <!-- 5 -->
      <g style="fill:#262626;" transform="translate(281.406428 322.182437)scale(0.1 -0.1)">
       <defs>
        <path d="M 10.796875 72.90625 
L 49.515625 72.90625 
L 49.515625 64.59375 
L 19.828125 64.59375 
L 19.828125 46.734375 
Q 21.96875 47.46875 24.109375 47.828125 
Q 26.265625 48.1875 28.421875 48.1875 
Q 40.625 48.1875 47.75 41.5 
Q 54.890625 34.8125 54.890625 23.390625 
Q 54.890625 11.625 47.5625 5.09375 
Q 40.234375 -1.421875 26.90625 -1.421875 
Q 22.3125 -1.421875 17.546875 -0.640625 
Q 12.796875 0.140625 7.71875 1.703125 
L 7.71875 11.625 
Q 12.109375 9.234375 16.796875 8.0625 
Q 21.484375 6.890625 26.703125 6.890625 
Q 35.15625 6.890625 40.078125 11.328125 
Q 45.015625 15.765625 45.015625 23.390625 
Q 45.015625 31 40.078125 35.4375 
Q 35.15625 39.890625 26.703125 39.890625 
Q 22.75 39.890625 18.8125 39.015625 
Q 14.890625 38.140625 10.796875 36.28125 
z
" id="DejaVuSans-53"/>
       </defs>
       <use xlink:href="#DejaVuSans-53"/>
      </g>
     </g>
    </g>
    <g id="xtick_7">
     <g id="line2d_7">
      <path clip-path="url(#pc3456bbffc)" d="M 325.581719 307.584 
L 325.581719 41.472 
" style="fill:none;stroke:#ffffff;stroke-linecap:round;stroke-width:0.8;"/>
     </g>
     <g id="text_7">
      <!-- 6 -->
      <g style="fill:#262626;" transform="translate(322.400469 322.182437)scale(0.1 -0.1)">
       <defs>
        <path d="M 33.015625 40.375 
Q 26.375 40.375 22.484375 35.828125 
Q 18.609375 31.296875 18.609375 23.390625 
Q 18.609375 15.53125 22.484375 10.953125 
Q 26.375 6.390625 33.015625 6.390625 
Q 39.65625 6.390625 43.53125 10.953125 
Q 47.40625 15.53125 47.40625 23.390625 
Q 47.40625 31.296875 43.53125 35.828125 
Q 39.65625 40.375 33.015625 40.375 
z
M 52.59375 71.296875 
L 52.59375 62.3125 
Q 48.875 64.0625 45.09375 64.984375 
Q 41.3125 65.921875 37.59375 65.921875 
Q 27.828125 65.921875 22.671875 59.328125 
Q 17.53125 52.734375 16.796875 39.40625 
Q 19.671875 43.65625 24.015625 45.921875 
Q 28.375 48.1875 33.59375 48.1875 
Q 44.578125 48.1875 50.953125 41.515625 
Q 57.328125 34.859375 57.328125 23.390625 
Q 57.328125 12.15625 50.6875 5.359375 
Q 44.046875 -1.421875 33.015625 -1.421875 
Q 20.359375 -1.421875 13.671875 8.265625 
Q 6.984375 17.96875 6.984375 36.375 
Q 6.984375 53.65625 15.1875 63.9375 
Q 23.390625 74.21875 37.203125 74.21875 
Q 40.921875 74.21875 44.703125 73.484375 
Q 48.484375 72.75 52.59375 71.296875 
z
" id="DejaVuSans-54"/>
       </defs>
       <use xlink:href="#DejaVuSans-54"/>
      </g>
     </g>
    </g>
    <g id="xtick_8">
     <g id="line2d_8">
      <path clip-path="url(#pc3456bbffc)" d="M 366.57576 307.584 
L 366.57576 41.472 
" style="fill:none;stroke:#ffffff;stroke-linecap:round;stroke-width:0.8;"/>
     </g>
     <g id="text_8">
      <!-- 7 -->
      <g style="fill:#262626;" transform="translate(363.39451 322.182437)scale(0.1 -0.1)">
       <defs>
        <path d="M 8.203125 72.90625 
L 55.078125 72.90625 
L 55.078125 68.703125 
L 28.609375 0 
L 18.3125 0 
L 43.21875 64.59375 
L 8.203125 64.59375 
z
" id="DejaVuSans-55"/>
       </defs>
       <use xlink:href="#DejaVuSans-55"/>
      </g>
     </g>
    </g>
    <g id="xtick_9">
     <g id="line2d_9">
      <path clip-path="url(#pc3456bbffc)" d="M 407.569801 307.584 
L 407.569801 41.472 
" style="fill:none;stroke:#ffffff;stroke-linecap:round;stroke-width:0.8;"/>
     </g>
     <g id="text_9">
      <!-- 8 -->
      <g style="fill:#262626;" transform="translate(404.388551 322.182437)scale(0.1 -0.1)">
       <defs>
        <path d="M 31.78125 34.625 
Q 24.75 34.625 20.71875 30.859375 
Q 16.703125 27.09375 16.703125 20.515625 
Q 16.703125 13.921875 20.71875 10.15625 
Q 24.75 6.390625 31.78125 6.390625 
Q 38.8125 6.390625 42.859375 10.171875 
Q 46.921875 13.96875 46.921875 20.515625 
Q 46.921875 27.09375 42.890625 30.859375 
Q 38.875 34.625 31.78125 34.625 
z
M 21.921875 38.8125 
Q 15.578125 40.375 12.03125 44.71875 
Q 8.5 49.078125 8.5 55.328125 
Q 8.5 64.0625 14.71875 69.140625 
Q 20.953125 74.21875 31.78125 74.21875 
Q 42.671875 74.21875 48.875 69.140625 
Q 55.078125 64.0625 55.078125 55.328125 
Q 55.078125 49.078125 51.53125 44.71875 
Q 48 40.375 41.703125 38.8125 
Q 48.828125 37.15625 52.796875 32.3125 
Q 56.78125 27.484375 56.78125 20.515625 
Q 56.78125 9.90625 50.3125 4.234375 
Q 43.84375 -1.421875 31.78125 -1.421875 
Q 19.734375 -1.421875 13.25 4.234375 
Q 6.78125 9.90625 6.78125 20.515625 
Q 6.78125 27.484375 10.78125 32.3125 
Q 14.796875 37.15625 21.921875 38.8125 
z
M 18.3125 54.390625 
Q 18.3125 48.734375 21.84375 45.5625 
Q 25.390625 42.390625 31.78125 42.390625 
Q 38.140625 42.390625 41.71875 45.5625 
Q 45.3125 48.734375 45.3125 54.390625 
Q 45.3125 60.0625 41.71875 63.234375 
Q 38.140625 66.40625 31.78125 66.40625 
Q 25.390625 66.40625 21.84375 63.234375 
Q 18.3125 60.0625 18.3125 54.390625 
z
" id="DejaVuSans-56"/>
       </defs>
       <use xlink:href="#DejaVuSans-56"/>
      </g>
     </g>
    </g>
   </g>
   <g id="matplotlib.axis_2">
    <g id="ytick_1">
     <g id="line2d_10">
      <path clip-path="url(#pc3456bbffc)" d="M 57.6 307.584 
L 414.72 307.584 
" style="fill:none;stroke:#ffffff;stroke-linecap:round;stroke-width:0.8;"/>
     </g>
     <g id="text_10">
      <!-- 0.0 -->
      <g style="fill:#262626;" transform="translate(34.696875 311.383219)scale(0.1 -0.1)">
       <defs>
        <path d="M 10.6875 12.40625 
L 21 12.40625 
L 21 0 
L 10.6875 0 
z
" id="DejaVuSans-46"/>
       </defs>
       <use xlink:href="#DejaVuSans-48"/>
       <use x="63.623047" xlink:href="#DejaVuSans-46"/>
       <use x="95.410156" xlink:href="#DejaVuSans-48"/>
      </g>
     </g>
    </g>
    <g id="ytick_2">
     <g id="line2d_11">
      <path clip-path="url(#pc3456bbffc)" d="M 57.6 268.60387 
L 414.72 268.60387 
" style="fill:none;stroke:#ffffff;stroke-linecap:round;stroke-width:0.8;"/>
     </g>
     <g id="text_11">
      <!-- 0.1 -->
      <g style="fill:#262626;" transform="translate(34.696875 272.403089)scale(0.1 -0.1)">
       <use xlink:href="#DejaVuSans-48"/>
       <use x="63.623047" xlink:href="#DejaVuSans-46"/>
       <use x="95.410156" xlink:href="#DejaVuSans-49"/>
      </g>
     </g>
    </g>
    <g id="ytick_3">
     <g id="line2d_12">
      <path clip-path="url(#pc3456bbffc)" d="M 57.6 229.62374 
L 414.72 229.62374 
" style="fill:none;stroke:#ffffff;stroke-linecap:round;stroke-width:0.8;"/>
     </g>
     <g id="text_12">
      <!-- 0.2 -->
      <g style="fill:#262626;" transform="translate(34.696875 233.422958)scale(0.1 -0.1)">
       <use xlink:href="#DejaVuSans-48"/>
       <use x="63.623047" xlink:href="#DejaVuSans-46"/>
       <use x="95.410156" xlink:href="#DejaVuSans-50"/>
      </g>
     </g>
    </g>
    <g id="ytick_4">
     <g id="line2d_13">
      <path clip-path="url(#pc3456bbffc)" d="M 57.6 190.643609 
L 414.72 190.643609 
" style="fill:none;stroke:#ffffff;stroke-linecap:round;stroke-width:0.8;"/>
     </g>
     <g id="text_13">
      <!-- 0.3 -->
      <g style="fill:#262626;" transform="translate(34.696875 194.442828)scale(0.1 -0.1)">
       <use xlink:href="#DejaVuSans-48"/>
       <use x="63.623047" xlink:href="#DejaVuSans-46"/>
       <use x="95.410156" xlink:href="#DejaVuSans-51"/>
      </g>
     </g>
    </g>
    <g id="ytick_5">
     <g id="line2d_14">
      <path clip-path="url(#pc3456bbffc)" d="M 57.6 151.663479 
L 414.72 151.663479 
" style="fill:none;stroke:#ffffff;stroke-linecap:round;stroke-width:0.8;"/>
     </g>
     <g id="text_14">
      <!-- 0.4 -->
      <g style="fill:#262626;" transform="translate(34.696875 155.462698)scale(0.1 -0.1)">
       <use xlink:href="#DejaVuSans-48"/>
       <use x="63.623047" xlink:href="#DejaVuSans-46"/>
       <use x="95.410156" xlink:href="#DejaVuSans-52"/>
      </g>
     </g>
    </g>
    <g id="ytick_6">
     <g id="line2d_15">
      <path clip-path="url(#pc3456bbffc)" d="M 57.6 112.683349 
L 414.72 112.683349 
" style="fill:none;stroke:#ffffff;stroke-linecap:round;stroke-width:0.8;"/>
     </g>
     <g id="text_15">
      <!-- 0.5 -->
      <g style="fill:#262626;" transform="translate(34.696875 116.482568)scale(0.1 -0.1)">
       <use xlink:href="#DejaVuSans-48"/>
       <use x="63.623047" xlink:href="#DejaVuSans-46"/>
       <use x="95.410156" xlink:href="#DejaVuSans-53"/>
      </g>
     </g>
    </g>
    <g id="ytick_7">
     <g id="line2d_16">
      <path clip-path="url(#pc3456bbffc)" d="M 57.6 73.703219 
L 414.72 73.703219 
" style="fill:none;stroke:#ffffff;stroke-linecap:round;stroke-width:0.8;"/>
     </g>
     <g id="text_16">
      <!-- 0.6 -->
      <g style="fill:#262626;" transform="translate(34.696875 77.502437)scale(0.1 -0.1)">
       <use xlink:href="#DejaVuSans-48"/>
       <use x="63.623047" xlink:href="#DejaVuSans-46"/>
       <use x="95.410156" xlink:href="#DejaVuSans-54"/>
      </g>
     </g>
    </g>
    <g id="text_17">
     <!-- Density -->
     <g style="fill:#262626;" transform="translate(28.617187 193.536594)rotate(-90)scale(0.1 -0.1)">
      <defs>
       <path d="M 19.671875 64.796875 
L 19.671875 8.109375 
L 31.59375 8.109375 
Q 46.6875 8.109375 53.6875 14.9375 
Q 60.6875 21.78125 60.6875 36.53125 
Q 60.6875 51.171875 53.6875 57.984375 
Q 46.6875 64.796875 31.59375 64.796875 
z
M 9.8125 72.90625 
L 30.078125 72.90625 
Q 51.265625 72.90625 61.171875 64.09375 
Q 71.09375 55.28125 71.09375 36.53125 
Q 71.09375 17.671875 61.125 8.828125 
Q 51.171875 0 30.078125 0 
L 9.8125 0 
z
" id="DejaVuSans-68"/>
       <path d="M 56.203125 29.59375 
L 56.203125 25.203125 
L 14.890625 25.203125 
Q 15.484375 15.921875 20.484375 11.0625 
Q 25.484375 6.203125 34.421875 6.203125 
Q 39.59375 6.203125 44.453125 7.46875 
Q 49.3125 8.734375 54.109375 11.28125 
L 54.109375 2.78125 
Q 49.265625 0.734375 44.1875 -0.34375 
Q 39.109375 -1.421875 33.890625 -1.421875 
Q 20.796875 -1.421875 13.15625 6.1875 
Q 5.515625 13.8125 5.515625 26.8125 
Q 5.515625 40.234375 12.765625 48.109375 
Q 20.015625 56 32.328125 56 
Q 43.359375 56 49.78125 48.890625 
Q 56.203125 41.796875 56.203125 29.59375 
z
M 47.21875 32.234375 
Q 47.125 39.59375 43.09375 43.984375 
Q 39.0625 48.390625 32.421875 48.390625 
Q 24.90625 48.390625 20.390625 44.140625 
Q 15.875 39.890625 15.1875 32.171875 
z
" id="DejaVuSans-101"/>
       <path d="M 54.890625 33.015625 
L 54.890625 0 
L 45.90625 0 
L 45.90625 32.71875 
Q 45.90625 40.484375 42.875 44.328125 
Q 39.84375 48.1875 33.796875 48.1875 
Q 26.515625 48.1875 22.3125 43.546875 
Q 18.109375 38.921875 18.109375 30.90625 
L 18.109375 0 
L 9.078125 0 
L 9.078125 54.6875 
L 18.109375 54.6875 
L 18.109375 46.1875 
Q 21.34375 51.125 25.703125 53.5625 
Q 30.078125 56 35.796875 56 
Q 45.21875 56 50.046875 50.171875 
Q 54.890625 44.34375 54.890625 33.015625 
z
" id="DejaVuSans-110"/>
       <path d="M 44.28125 53.078125 
L 44.28125 44.578125 
Q 40.484375 46.53125 36.375 47.5 
Q 32.28125 48.484375 27.875 48.484375 
Q 21.1875 48.484375 17.84375 46.4375 
Q 14.5 44.390625 14.5 40.28125 
Q 14.5 37.15625 16.890625 35.375 
Q 19.28125 33.59375 26.515625 31.984375 
L 29.59375 31.296875 
Q 39.15625 29.25 43.1875 25.515625 
Q 47.21875 21.78125 47.21875 15.09375 
Q 47.21875 7.46875 41.1875 3.015625 
Q 35.15625 -1.421875 24.609375 -1.421875 
Q 20.21875 -1.421875 15.453125 -0.5625 
Q 10.6875 0.296875 5.421875 2 
L 5.421875 11.28125 
Q 10.40625 8.6875 15.234375 7.390625 
Q 20.0625 6.109375 24.8125 6.109375 
Q 31.15625 6.109375 34.5625 8.28125 
Q 37.984375 10.453125 37.984375 14.40625 
Q 37.984375 18.0625 35.515625 20.015625 
Q 33.0625 21.96875 24.703125 23.78125 
L 21.578125 24.515625 
Q 13.234375 26.265625 9.515625 29.90625 
Q 5.8125 33.546875 5.8125 39.890625 
Q 5.8125 47.609375 11.28125 51.796875 
Q 16.75 56 26.8125 56 
Q 31.78125 56 36.171875 55.265625 
Q 40.578125 54.546875 44.28125 53.078125 
z
" id="DejaVuSans-115"/>
       <path d="M 9.421875 54.6875 
L 18.40625 54.6875 
L 18.40625 0 
L 9.421875 0 
z
M 9.421875 75.984375 
L 18.40625 75.984375 
L 18.40625 64.59375 
L 9.421875 64.59375 
z
" id="DejaVuSans-105"/>
       <path d="M 18.3125 70.21875 
L 18.3125 54.6875 
L 36.8125 54.6875 
L 36.8125 47.703125 
L 18.3125 47.703125 
L 18.3125 18.015625 
Q 18.3125 11.328125 20.140625 9.421875 
Q 21.96875 7.515625 27.59375 7.515625 
L 36.8125 7.515625 
L 36.8125 0 
L 27.59375 0 
Q 17.1875 0 13.234375 3.875 
Q 9.28125 7.765625 9.28125 18.015625 
L 9.28125 47.703125 
L 2.6875 47.703125 
L 2.6875 54.6875 
L 9.28125 54.6875 
L 9.28125 70.21875 
z
" id="DejaVuSans-116"/>
       <path d="M 32.171875 -5.078125 
Q 28.375 -14.84375 24.75 -17.8125 
Q 21.140625 -20.796875 15.09375 -20.796875 
L 7.90625 -20.796875 
L 7.90625 -13.28125 
L 13.1875 -13.28125 
Q 16.890625 -13.28125 18.9375 -11.515625 
Q 21 -9.765625 23.484375 -3.21875 
L 25.09375 0.875 
L 2.984375 54.6875 
L 12.5 54.6875 
L 29.59375 11.921875 
L 46.6875 54.6875 
L 56.203125 54.6875 
z
" id="DejaVuSans-121"/>
      </defs>
      <use xlink:href="#DejaVuSans-68"/>
      <use x="77.001953" xlink:href="#DejaVuSans-101"/>
      <use x="138.525391" xlink:href="#DejaVuSans-110"/>
      <use x="201.904297" xlink:href="#DejaVuSans-115"/>
      <use x="254.003906" xlink:href="#DejaVuSans-105"/>
      <use x="281.787109" xlink:href="#DejaVuSans-116"/>
      <use x="320.996094" xlink:href="#DejaVuSans-121"/>
     </g>
    </g>
   </g>
   <g id="line2d_17">
    <path clip-path="url(#pc3456bbffc)" d="M 73.832727 307.402008 
L 74.326068 307.205282 
L 74.819408 306.829931 
L 75.312748 306.146756 
L 75.806088 304.960461 
L 76.299428 302.994994 
L 76.792769 299.887638 
L 77.286109 295.199529 
L 77.779449 288.449586 
L 78.272789 279.175121 
L 78.76613 267.015516 
L 79.75281 233.666251 
L 81.232831 167.784172 
L 82.219511 124.834726 
L 83.206192 93.028445 
L 83.699532 83.025296 
L 84.192872 77.187471 
L 84.686213 75.2969 
L 85.179553 76.917136 
L 85.672893 81.489279 
L 86.166233 88.415999 
L 87.152914 107.073207 
L 90.112955 170.283603 
L 91.099636 186.437014 
L 92.086316 199.443156 
L 93.566337 215.544323 
L 95.046358 229.862167 
L 96.033038 238.082486 
L 97.019719 244.604978 
L 98.006399 249.460843 
L 100.96644 261.996002 
L 102.939801 272.963814 
L 104.913162 283.421315 
L 105.899843 287.735788 
L 106.886523 291.056712 
L 107.873204 293.214896 
L 108.859884 294.432678 
L 110.339905 295.745837 
L 111.326585 296.948534 
L 113.793287 300.457633 
L 114.779967 301.323827 
L 115.766648 301.831417 
L 118.233349 302.814291 
L 121.19339 304.321112 
L 122.180071 304.522594 
L 124.153432 304.539606 
L 128.593494 304.527693 
L 129.580174 304.711812 
L 131.060195 305.287203 
L 133.526896 306.369797 
L 135.006917 306.726675 
L 136.486938 306.875894 
L 139.940319 307.055773 
L 143.887041 307.539864 
L 147.833763 307.583833 
L 161.15395 307.484228 
L 166.087352 307.044971 
L 172.007435 307.577646 
L 172.007435 307.577646 
" style="fill:none;stroke:#9467bd;stroke-linecap:round;stroke-width:1.5;"/>
   </g>
   <g id="line2d_18">
    <path clip-path="url(#pc3456bbffc)" d="M 75.151682 307.44347 
L 75.745743 307.155088 
L 76.042773 306.863124 
L 76.339804 306.402968 
L 76.636834 305.69746 
L 76.933864 304.645146 
L 77.230895 303.118071 
L 77.824955 297.999673 
L 78.419016 288.886101 
L 79.013077 274.313946 
L 79.607138 253.368312 
L 80.498229 210.868447 
L 82.577441 102.55803 
L 83.171502 82.032667 
L 83.765563 68.988741 
L 84.062593 65.280657 
L 84.359624 63.354559 
L 84.656654 63.093304 
L 84.953684 64.351288 
L 85.250715 66.960753 
L 85.844775 75.485011 
L 86.735867 93.521639 
L 88.221018 125.214067 
L 89.40914 145.111536 
L 91.785383 181.955 
L 92.973504 199.315219 
L 93.864596 209.496906 
L 96.537869 235.439029 
L 97.42896 242.43933 
L 98.320051 247.371646 
L 99.508173 252.02183 
L 100.399264 255.737722 
L 101.290355 260.769129 
L 102.181446 267.393549 
L 105.15175 291.953723 
L 106.042841 296.829184 
L 106.636902 299.021047 
L 107.230962 300.417767 
L 107.825023 301.172311 
L 108.419084 301.493905 
L 109.310175 301.590504 
L 110.795327 301.47908 
L 112.280479 301.333972 
L 112.874539 301.470588 
L 113.4686 301.795691 
L 114.953752 303.050747 
L 115.844843 303.677157 
L 117.032965 304.212387 
L 119.706238 305.231879 
L 120.894359 306.050839 
L 122.379511 307.034413 
L 123.270602 307.3631 
L 124.458724 307.517972 
L 125.943876 307.43115 
L 127.726058 307.033648 
L 128.91418 306.852909 
L 129.805271 306.917988 
L 133.666666 307.562593 
L 134.260726 307.575856 
L 134.260726 307.575856 
" style="fill:none;stroke:#d62728;stroke-linecap:round;stroke-width:1.5;"/>
   </g>
   <g id="line2d_19">
    <path clip-path="url(#pc3456bbffc)" d="M 74.222577 307.462143 
L 74.983078 307.158143 
L 75.363329 306.824116 
L 75.74358 306.269186 
L 76.12383 305.377464 
L 76.504081 303.991531 
L 76.884332 301.9082 
L 77.264582 298.879517 
L 77.644833 294.621593 
L 78.025084 288.833288 
L 78.785585 271.558848 
L 79.546086 245.601678 
L 80.686838 192.523737 
L 82.207841 118.293516 
L 82.968342 92.068575 
L 83.348593 83.264049 
L 83.728844 77.443826 
L 84.109094 74.462366 
L 84.489345 74.030449 
L 84.869596 75.761046 
L 85.249846 79.217311 
L 86.010348 89.564497 
L 89.052353 137.269854 
L 90.573356 159.888384 
L 92.474609 192.867003 
L 93.615361 211.419247 
L 94.756113 226.007695 
L 95.896865 237.151746 
L 97.417868 249.538858 
L 98.93887 260.343659 
L 100.459873 269.541471 
L 101.980875 277.30384 
L 103.121627 281.896038 
L 104.262379 285.394418 
L 105.403131 288.179841 
L 106.924134 291.272101 
L 107.684635 292.47221 
L 108.445137 293.32548 
L 109.205638 293.825041 
L 111.106891 294.638184 
L 111.867393 295.397718 
L 112.627894 296.531994 
L 115.289649 300.960333 
L 116.430401 302.204848 
L 117.571153 303.101967 
L 119.472406 304.211706 
L 122.514411 305.884077 
L 123.274913 306.061563 
L 124.035414 306.031537 
L 125.176166 305.693341 
L 126.316918 305.356346 
L 127.077419 305.331078 
L 127.837921 305.519473 
L 128.978673 306.096268 
L 130.499675 306.905966 
L 131.640427 307.224155 
L 132.781179 307.248747 
L 136.203435 306.992971 
L 140.005942 307.42307 
L 141.526945 307.242401 
L 143.428198 306.966031 
L 144.56895 306.998241 
L 149.512209 307.57196 
L 149.892459 307.577018 
L 149.892459 307.577018 
" style="fill:none;stroke:#2ca02c;stroke-linecap:round;stroke-width:1.5;"/>
   </g>
   <g id="line2d_20">
    <path clip-path="url(#pc3456bbffc)" d="M 74.080195 307.45839 
L 74.75612 307.206687 
L 75.094083 306.95333 
L 75.432046 306.554752 
L 75.770009 305.943608 
L 76.107971 305.030217 
L 76.445934 303.699473 
L 76.783897 301.80932 
L 77.12186 299.191695 
L 77.797785 291.001785 
L 78.473711 277.533031 
L 79.149636 257.472043 
L 79.825562 230.40899 
L 80.83945 179.387148 
L 82.191301 108.716887 
L 82.867227 81.215044 
L 83.543152 62.921009 
L 83.881115 57.571272 
L 84.219078 54.700629 
L 84.55704 54.144 
L 84.895003 55.663582 
L 85.232966 58.97684 
L 85.908892 69.793848 
L 86.92278 92.545857 
L 90.302407 176.170406 
L 91.316296 194.990117 
L 92.330184 209.800333 
L 93.344072 221.483084 
L 94.695923 233.884105 
L 96.047774 244.027333 
L 98.075551 256.995098 
L 100.44129 270.929964 
L 101.455179 275.59658 
L 102.469067 279.186795 
L 104.158881 283.975026 
L 105.510732 287.355583 
L 106.52462 289.282753 
L 107.538508 290.658908 
L 109.228322 292.841379 
L 112.269987 297.258605 
L 113.283875 298.353084 
L 114.297764 299.138088 
L 115.311652 299.541589 
L 117.339429 299.98332 
L 118.015354 300.403418 
L 119.029242 301.408907 
L 121.732945 304.465844 
L 123.084796 305.519487 
L 124.436647 306.315375 
L 125.788498 306.840437 
L 126.802386 306.999025 
L 128.154237 306.939039 
L 132.885716 306.4843 
L 134.237567 306.47685 
L 135.589418 306.696289 
L 138.969045 307.462253 
L 140.996822 307.572534 
L 141.334785 307.576943 
L 141.334785 307.576943 
" style="fill:none;stroke:#ff7f0e;stroke-linecap:round;stroke-width:1.5;"/>
   </g>
   <g id="line2d_21">
    <path clip-path="url(#pc3456bbffc)" d="M 73.921506 307.407947 
L 74.355063 307.240322 
L 74.78862 306.936396 
L 75.222177 306.405782 
L 75.655734 305.513774 
L 76.089291 304.069903 
L 76.522848 301.819617 
L 76.956404 298.443117 
L 77.389961 293.565919 
L 77.823518 286.785034 
L 78.257075 277.712492 
L 79.124189 251.576741 
L 79.991303 214.705715 
L 82.592644 88.753768 
L 83.026201 75.178872 
L 83.459757 65.468747 
L 83.893314 59.700616 
L 84.326871 57.696836 
L 84.760428 59.088225 
L 85.193985 63.389887 
L 85.627542 70.073556 
L 86.494655 88.575849 
L 88.228883 135.09595 
L 89.529553 169.319648 
L 90.396667 188.654516 
L 91.263781 204.051032 
L 92.130895 215.281482 
L 92.998008 222.775872 
L 93.865122 227.507524 
L 95.165793 232.271351 
L 96.032906 235.626232 
L 96.90002 239.915832 
L 98.200691 248.116759 
L 103.403373 283.870089 
L 104.270487 288.376497 
L 105.1376 291.830487 
L 106.004714 294.177741 
L 106.871828 295.551818 
L 107.305385 295.946571 
L 108.172498 296.310847 
L 109.039612 296.294027 
L 110.340283 295.903354 
L 112.07451 295.298188 
L 112.941624 295.326258 
L 113.375181 295.521046 
L 113.808738 295.866602 
L 114.675851 297.035262 
L 115.542965 298.744331 
L 117.710749 303.421781 
L 118.577863 304.648006 
L 119.444977 305.276904 
L 120.31209 305.379542 
L 121.612761 305.020194 
L 122.479875 304.801278 
L 123.346988 304.782202 
L 124.214102 304.980529 
L 125.514773 305.539054 
L 127.249 306.304407 
L 128.116114 306.491933 
L 128.983228 306.463502 
L 130.283898 306.086967 
L 131.584569 305.682978 
L 132.451683 305.610684 
L 133.318796 305.739483 
L 134.619467 306.186686 
L 137.220808 307.135907 
L 138.955035 307.453712 
L 140.689263 307.511337 
L 142.42349 307.36158 
L 145.458388 306.997844 
L 147.192616 307.149487 
L 149.3604 307.383196 
L 151.094627 307.272175 
L 153.695969 306.99791 
L 154.996639 307.097742 
L 158.465094 307.532305 
L 160.199322 307.577494 
L 160.199322 307.577494 
" style="fill:none;stroke:#1f77b4;stroke-linecap:round;stroke-width:1.5;"/>
   </g>
   <g id="line2d_22">
    <path clip-path="url(#pc3456bbffc)" d="M 77.34844 307.57408 
L 80.804849 307.465139 
L 82.878694 307.179323 
L 84.261257 306.75892 
L 85.643821 306.029424 
L 87.026384 304.863678 
L 88.408948 303.136222 
L 89.791511 300.741321 
L 91.174075 297.602971 
L 92.556638 293.676657 
L 93.939202 288.952827 
L 95.321765 283.473344 
L 97.39561 274.126479 
L 101.543301 254.562252 
L 103.617146 246.028819 
L 105.690991 238.655077 
L 107.764837 232.232609 
L 109.1474 228.496869 
L 110.529964 225.400564 
L 111.221245 224.185077 
L 111.912527 223.246858 
L 112.603809 222.623608 
L 113.29509 222.344008 
L 113.986372 222.423316 
L 114.677654 222.86021 
L 115.368936 223.635466 
L 116.060217 224.7128 
L 117.442781 227.563165 
L 123.664317 242.22273 
L 127.120725 249.882727 
L 134.033543 266.209506 
L 136.107388 270.187126 
L 138.181233 273.625838 
L 143.711487 282.438386 
L 147.167896 288.077955 
L 149.241741 290.982817 
L 150.624304 292.587323 
L 152.006868 293.929004 
L 154.080713 295.567265 
L 156.84584 297.3994 
L 161.684812 300.335978 
L 165.141221 302.233848 
L 167.906348 303.522115 
L 172.054038 305.126721 
L 175.510447 306.27243 
L 177.584292 306.702553 
L 179.658137 306.852833 
L 182.423264 306.731735 
L 186.570955 306.489887 
L 189.336082 306.571326 
L 199.705308 307.202755 
L 205.926844 307.372722 
L 212.148379 307.564685 
L 214.913506 307.580646 
L 214.913506 307.580646 
" style="fill:none;stroke:#9467bd;stroke-linecap:round;stroke-width:1.5;"/>
   </g>
   <g id="line2d_23">
    <path clip-path="url(#pc3456bbffc)" d="M 78.272566 307.571781 
L 81.400646 307.453363 
L 82.964686 307.232336 
L 84.528726 306.746733 
L 85.57142 306.184521 
L 86.614113 305.355447 
L 87.656806 304.191821 
L 88.6995 302.629744 
L 89.742193 300.612888 
L 90.784887 298.094272 
L 91.82758 295.037814 
L 92.870273 291.422708 
L 94.434313 284.970697 
L 95.998354 277.459781 
L 101.733167 248.398923 
L 103.818554 239.697003 
L 105.382594 234.098681 
L 106.425288 230.910909 
L 107.467981 228.269986 
L 108.510674 226.275416 
L 109.553368 224.999693 
L 110.074715 224.641405 
L 110.596061 224.468037 
L 111.117408 224.474285 
L 111.638755 224.651819 
L 112.160101 224.989719 
L 113.202795 226.092956 
L 114.245488 227.663511 
L 115.809528 230.6054 
L 119.980302 238.992845 
L 122.065689 242.446765 
L 128.843196 252.885214 
L 130.407236 255.770454 
L 131.971276 259.118522 
L 134.056663 264.301496 
L 136.663396 270.912728 
L 138.227436 274.224123 
L 139.791476 276.829688 
L 141.355517 278.89382 
L 145.52629 284.048265 
L 148.65437 288.603894 
L 150.739757 291.52536 
L 152.303797 293.433867 
L 153.867837 295.059487 
L 155.953224 296.902568 
L 162.730731 302.374677 
L 164.294771 303.297125 
L 165.858812 303.946003 
L 167.944198 304.522862 
L 170.550932 305.241427 
L 176.285746 307.103846 
L 178.371132 307.413056 
L 180.977866 307.55146 
L 182.020559 307.569074 
L 182.020559 307.569074 
" style="fill:none;stroke:#d62728;stroke-linecap:round;stroke-width:1.5;"/>
   </g>
   <g id="line2d_24">
    <path clip-path="url(#pc3456bbffc)" d="M 76.505607 307.569779 
L 79.950661 307.446086 
L 82.017693 307.16434 
L 83.395715 306.779527 
L 84.773736 306.136865 
L 86.151758 305.120842 
L 87.52978 303.588001 
L 88.907801 301.373762 
L 90.285823 298.317782 
L 91.663844 294.313398 
L 93.041866 289.369722 
L 95.108898 280.601322 
L 99.242963 262.315773 
L 101.309995 254.265256 
L 104.755049 241.990214 
L 106.822082 235.276104 
L 108.200103 231.46456 
L 109.578125 228.522084 
L 110.267136 227.455091 
L 110.956146 226.685175 
L 111.645157 226.220778 
L 112.334168 226.05935 
L 113.023179 226.18736 
L 113.712189 226.58118 
L 114.4012 227.208748 
L 115.779222 229.00859 
L 117.846254 232.444562 
L 120.602297 237.023221 
L 125.425373 244.360979 
L 126.803394 247.035491 
L 128.181416 250.211548 
L 129.559438 253.867412 
L 132.315481 262.064914 
L 135.071524 270.071217 
L 136.449545 273.513166 
L 137.827567 276.432683 
L 139.205589 278.830144 
L 140.58361 280.785896 
L 141.961632 282.421539 
L 144.028664 284.518808 
L 146.784707 286.967374 
L 152.296794 291.648093 
L 159.875912 298.750281 
L 164.698988 302.611192 
L 166.76602 303.999022 
L 168.144042 304.683038 
L 169.522063 305.141584 
L 171.589096 305.486829 
L 177.101182 306.079021 
L 181.235247 306.673171 
L 185.369311 306.936804 
L 191.570408 307.192339 
L 194.326452 307.073817 
L 199.149527 306.761403 
L 201.90557 306.859017 
L 210.86271 307.546537 
L 213.618754 307.577456 
L 213.618754 307.577456 
" style="fill:none;stroke:#2ca02c;stroke-linecap:round;stroke-width:1.5;"/>
   </g>
   <g id="line2d_25">
    <path clip-path="url(#pc3456bbffc)" d="M 75.397402 307.580099 
L 80.621335 307.471959 
L 83.233302 307.206464 
L 84.974613 306.822841 
L 86.715924 306.139428 
L 87.58658 305.632197 
L 88.457235 304.979714 
L 89.327891 304.152545 
L 90.198546 303.119287 
L 91.069202 301.847024 
L 91.939857 300.301943 
L 92.810513 298.450529 
L 93.681169 296.261724 
L 94.551824 293.710142 
L 96.293135 287.468563 
L 98.034446 279.771694 
L 99.775758 270.909716 
L 106.741002 233.054084 
L 108.482313 225.256216 
L 110.223624 218.9512 
L 111.09428 216.458954 
L 111.964935 214.457651 
L 112.835591 212.98552 
L 113.706247 212.077829 
L 114.576902 211.76101 
L 115.447558 212.045826 
L 116.318213 212.921763 
L 117.188869 214.35427 
L 118.059524 216.285414 
L 118.93018 218.637659 
L 120.671491 224.235672 
L 125.895425 242.209668 
L 127.636736 247.337944 
L 129.378047 251.916361 
L 134.60198 265.033466 
L 139.825914 279.36056 
L 141.567225 283.45212 
L 143.308536 286.943776 
L 145.049847 289.852559 
L 146.791158 292.308976 
L 149.403125 295.524505 
L 151.144436 297.448122 
L 152.885747 299.046217 
L 153.756403 299.655125 
L 154.627058 300.113078 
L 155.497714 300.42137 
L 157.239025 300.690219 
L 159.850992 300.928228 
L 161.592303 301.466092 
L 163.333614 302.381115 
L 166.816236 304.491041 
L 168.557547 305.260995 
L 170.298858 305.719153 
L 172.04017 305.893547 
L 175.522792 305.830162 
L 178.134759 305.900856 
L 180.746725 306.230996 
L 187.71197 307.347137 
L 191.194592 307.543611 
L 197.289181 307.561425 
L 202.513114 307.381927 
L 206.866392 307.260467 
L 212.090326 307.473655 
L 217.314259 307.577713 
L 229.503437 307.530823 
L 239.080648 307.302928 
L 247.787204 307.577093 
L 248.657859 307.580373 
L 248.657859 307.580373 
" style="fill:none;stroke:#ff7f0e;stroke-linecap:round;stroke-width:1.5;"/>
   </g>
   <g id="line2d_26">
    <path clip-path="url(#pc3456bbffc)" d="M 75.559235 307.57574 
L 79.399565 307.479039 
L 81.703762 307.212361 
L 83.239894 306.801728 
L 84.776026 306.053842 
L 85.544092 305.499151 
L 86.312158 304.790573 
L 87.080224 303.90166 
L 87.848289 302.8063 
L 88.616355 301.480308 
L 89.384421 299.903261 
L 90.920553 295.944823 
L 92.456685 290.914371 
L 93.992817 284.956673 
L 97.06508 271.577116 
L 99.369278 261.834121 
L 100.90541 256.030278 
L 102.441541 250.878958 
L 103.977673 246.321947 
L 105.513805 242.265101 
L 107.049937 238.66709 
L 108.586069 235.587422 
L 110.1222 233.171662 
L 110.890266 232.265719 
L 111.658332 231.584092 
L 112.426398 231.136486 
L 113.194464 230.924612 
L 113.96253 230.941615 
L 114.730596 231.172479 
L 115.498662 231.59533 
L 117.034793 232.907889 
L 118.570925 234.653176 
L 120.875123 237.694749 
L 123.17932 241.032309 
L 125.483518 244.744068 
L 127.787716 249.029091 
L 130.091913 254.031997 
L 132.396111 259.765259 
L 136.236441 270.323263 
L 138.540638 276.24595 
L 140.07677 279.48349 
L 141.612902 281.964955 
L 143.149034 283.735376 
L 144.685165 285.021536 
L 147.757429 287.363563 
L 149.293561 288.83401 
L 152.365824 292.297107 
L 154.670022 294.721969 
L 156.206154 296.018779 
L 157.742286 297.047519 
L 160.046483 298.264512 
L 164.654879 300.580965 
L 168.495208 302.522594 
L 170.799406 303.434711 
L 173.871669 304.35222 
L 180.784262 306.080431 
L 183.856526 306.655494 
L 186.928789 307.020096 
L 190.769119 307.232939 
L 196.14558 307.243256 
L 216.115293 307.287366 
L 228.404348 307.580838 
L 228.404348 307.580838 
" style="fill:none;stroke:#1f77b4;stroke-linecap:round;stroke-width:1.5;"/>
   </g>
   <g id="line2d_27">
    <path clip-path="url(#pc3456bbffc)" d="M 87.580536 307.579195 
L 94.362213 307.462162 
L 97.268647 307.234048 
L 99.206269 306.937419 
L 101.143891 306.461278 
L 103.081513 305.739453 
L 105.019135 304.701306 
L 106.956758 303.279232 
L 108.89438 301.414401 
L 110.832002 299.057692 
L 112.769624 296.169068 
L 114.707246 292.725294 
L 116.644869 288.742785 
L 119.551302 281.968993 
L 124.395357 270.199225 
L 126.33298 265.952883 
L 128.270602 262.191952 
L 130.208224 258.990132 
L 132.145846 256.376347 
L 134.083468 254.312755 
L 136.021091 252.667238 
L 140.865146 249.142096 
L 142.802768 247.834192 
L 143.771579 247.299471 
L 144.74039 246.90555 
L 145.709202 246.698319 
L 146.678013 246.716497 
L 147.646824 246.987035 
L 148.615635 247.522411 
L 149.584446 248.320038 
L 150.553257 249.36353 
L 151.522068 250.625268 
L 153.45969 253.656011 
L 160.241368 265.373833 
L 162.17899 268.012731 
L 164.116612 270.164553 
L 166.054235 271.931673 
L 170.89829 275.989459 
L 172.835912 277.942179 
L 174.773534 280.173829 
L 182.524023 289.676135 
L 185.430457 292.607241 
L 189.305701 296.119945 
L 192.212134 298.537273 
L 194.149756 299.927288 
L 196.087379 301.044259 
L 198.025001 301.8511 
L 199.962623 302.364945 
L 201.900245 302.645086 
L 205.77549 302.855285 
L 208.681923 303.083193 
L 210.619545 303.403218 
L 213.525978 304.147701 
L 219.338845 305.832461 
L 222.245278 306.381953 
L 225.151711 306.666285 
L 229.026956 306.756385 
L 234.839822 306.851947 
L 245.496745 307.339216 
L 270.685833 307.481743 
L 279.405133 307.579806 
L 280.373944 307.581468 
L 280.373944 307.581468 
" style="fill:none;stroke:#9467bd;stroke-linecap:round;stroke-width:1.5;"/>
   </g>
   <g id="line2d_28">
    <path clip-path="url(#pc3456bbffc)" d="M 90.552609 307.572137 
L 95.121286 307.45646 
L 98.167071 307.148021 
L 100.451409 306.660801 
L 102.735748 305.8693 
L 105.020086 304.728276 
L 106.542979 303.752166 
L 108.065871 302.570198 
L 109.588764 301.126977 
L 111.111656 299.346014 
L 112.634548 297.148321 
L 114.157441 294.481658 
L 115.680333 291.347645 
L 117.964672 285.928269 
L 121.771903 275.991924 
L 125.579134 266.181427 
L 128.624918 258.950485 
L 130.147811 255.743455 
L 131.670703 252.954783 
L 133.193595 250.68863 
L 134.716488 249.014566 
L 135.477934 248.40739 
L 136.23938 247.950603 
L 137.000826 247.637974 
L 137.762273 247.460554 
L 138.523719 247.407306 
L 140.046611 247.622779 
L 141.569504 248.178647 
L 143.092396 248.970234 
L 146.138181 250.885021 
L 153.752643 255.889881 
L 155.275535 257.223939 
L 157.559874 259.591586 
L 163.651443 266.656855 
L 167.458674 271.14495 
L 169.743013 274.252207 
L 172.027351 277.801479 
L 177.357474 286.49572 
L 178.880367 288.591708 
L 180.403259 290.367166 
L 181.926152 291.807718 
L 183.449044 292.942403 
L 184.971936 293.834457 
L 187.256275 294.899999 
L 191.824952 296.93158 
L 200.20086 300.975901 
L 203.246645 302.07275 
L 213.145445 305.28904 
L 215.429784 305.782349 
L 217.714123 306.079182 
L 221.521353 306.29785 
L 226.090031 306.585464 
L 235.988831 307.477427 
L 241.318954 307.575059 
L 242.080401 307.578194 
L 242.080401 307.578194 
" style="fill:none;stroke:#d62728;stroke-linecap:round;stroke-width:1.5;"/>
   </g>
   <g id="line2d_29">
    <path clip-path="url(#pc3456bbffc)" d="M 88.240951 307.577625 
L 94.374803 307.460948 
L 97.003596 307.253791 
L 99.63239 306.81829 
L 101.384919 306.334017 
L 103.137448 305.639699 
L 104.889977 304.682337 
L 106.642506 303.404596 
L 108.395035 301.750329 
L 110.147564 299.677348 
L 111.900093 297.1754 
L 113.652622 294.280848 
L 116.281415 289.393342 
L 122.415266 277.142753 
L 128.549118 265.081225 
L 131.177911 260.43822 
L 132.93044 257.719594 
L 134.682969 255.357832 
L 136.435498 253.363408 
L 138.188027 251.726814 
L 139.940556 250.431373 
L 141.693085 249.456981 
L 143.445614 248.776 
L 145.198143 248.352131 
L 146.950672 248.154468 
L 148.703201 248.187977 
L 150.45573 248.522983 
L 151.331994 248.844407 
L 152.208259 249.295387 
L 153.084523 249.895582 
L 153.960788 250.661035 
L 154.837052 251.60169 
L 156.589581 254.007492 
L 158.34211 257.023292 
L 160.970904 262.22758 
L 164.475962 269.1931 
L 167.104755 273.779885 
L 168.857284 276.450034 
L 170.609813 278.824479 
L 173.238607 281.907923 
L 175.8674 284.582287 
L 183.75378 292.080902 
L 185.506309 293.528888 
L 187.258838 294.69522 
L 189.011367 295.530588 
L 190.763896 296.073953 
L 196.021483 297.291178 
L 197.774012 297.977904 
L 200.402806 299.345628 
L 204.784128 301.818589 
L 207.412921 303.021436 
L 210.041715 303.960216 
L 213.546773 304.91597 
L 216.175566 305.43118 
L 218.80436 305.749088 
L 224.061947 306.037828 
L 228.443269 306.396746 
L 233.700856 306.851394 
L 237.205914 306.885308 
L 245.092294 306.708532 
L 248.597352 306.944466 
L 254.731204 307.4263 
L 259.98879 307.564338 
L 262.617584 307.578896 
L 262.617584 307.578896 
" style="fill:none;stroke:#2ca02c;stroke-linecap:round;stroke-width:1.5;"/>
   </g>
   <g id="line2d_30">
    <path clip-path="url(#pc3456bbffc)" d="M 90.800698 307.576792 
L 96.152347 307.46967 
L 98.828171 307.239188 
L 100.612054 306.928779 
L 102.395938 306.421671 
L 104.179821 305.646665 
L 105.963704 304.529106 
L 107.747587 302.996473 
L 109.53147 300.986026 
L 111.315353 298.456927 
L 113.099236 295.405835 
L 114.883119 291.878797 
L 117.558944 285.91046 
L 127.370301 262.907595 
L 130.046125 257.513076 
L 131.830008 254.311179 
L 133.613891 251.503632 
L 135.397774 249.186937 
L 136.289716 248.247288 
L 137.181657 247.470515 
L 138.073599 246.865914 
L 138.965541 246.438208 
L 139.857482 246.186489 
L 140.749424 246.103796 
L 141.641365 246.177417 
L 142.533307 246.389935 
L 144.31719 247.148844 
L 146.101073 248.217938 
L 148.776897 250.175609 
L 150.560781 251.706754 
L 152.344664 253.502653 
L 154.128547 255.648283 
L 155.91243 258.168851 
L 158.588254 262.458382 
L 162.156021 268.147539 
L 163.939904 270.627479 
L 166.615728 273.902591 
L 171.075436 279.232062 
L 175.535144 284.741272 
L 177.319027 286.647489 
L 179.10291 288.287071 
L 181.778734 290.366053 
L 187.130384 294.312789 
L 192.482033 298.363175 
L 194.265916 299.462336 
L 196.049799 300.324799 
L 197.833682 300.93028 
L 199.617565 301.30927 
L 203.185331 301.724493 
L 205.861156 302.122328 
L 208.53698 302.799721 
L 217.456396 305.516396 
L 220.13222 305.937983 
L 224.591928 306.333825 
L 230.835519 306.644843 
L 242.430759 306.907977 
L 254.91794 307.272877 
L 262.053473 307.534456 
L 268.297063 307.581047 
L 268.297063 307.581047 
" style="fill:none;stroke:#ff7f0e;stroke-linecap:round;stroke-width:1.5;"/>
   </g>
   <g id="line2d_31">
    <path clip-path="url(#pc3456bbffc)" d="M 92.302437 307.575871 
L 97.730969 307.429552 
L 100.445235 307.087263 
L 102.254746 306.611508 
L 104.064256 305.828761 
L 105.873767 304.64925 
L 107.683278 303.011269 
L 109.492788 300.897237 
L 111.302299 298.333872 
L 113.11181 295.37637 
L 115.826076 290.333225 
L 118.540342 284.707032 
L 122.159363 276.589143 
L 125.778385 268.483031 
L 127.587895 264.784463 
L 129.397406 261.466858 
L 131.206917 258.549612 
L 133.016427 255.980165 
L 135.730693 252.594464 
L 138.444959 249.649521 
L 140.25447 248.032841 
L 141.159226 247.38861 
L 142.063981 246.887759 
L 142.968736 246.554537 
L 143.873492 246.408416 
L 144.778247 246.461192 
L 145.683002 246.714901 
L 146.587758 247.160965 
L 147.492513 247.78079 
L 149.302024 249.430228 
L 152.01629 252.453719 
L 158.349577 259.627984 
L 163.778109 265.817269 
L 166.492375 269.160337 
L 169.206641 272.956275 
L 171.920907 277.246334 
L 175.539929 283.099019 
L 177.349439 285.744358 
L 179.15895 288.068444 
L 180.968461 290.045394 
L 182.777971 291.699903 
L 184.587482 293.092397 
L 187.301748 294.867273 
L 194.539791 299.136489 
L 197.254057 300.545101 
L 199.968323 301.679158 
L 202.682589 302.551486 
L 212.634898 305.263844 
L 215.349164 305.734778 
L 218.06343 305.943968 
L 227.110983 306.348944 
L 233.444271 306.680551 
L 239.777558 307.083468 
L 244.301335 307.302304 
L 248.825111 307.247728 
L 255.158399 307.166655 
L 262.396442 307.43744 
L 268.729729 307.567365 
L 272.34875 307.581239 
L 272.34875 307.581239 
" style="fill:none;stroke:#1f77b4;stroke-linecap:round;stroke-width:1.5;"/>
   </g>
   <g id="line2d_32">
    <path clip-path="url(#pc3456bbffc)" d="M 98.791845 307.581318 
L 109.293803 307.456636 
L 113.961339 307.180445 
L 117.461991 306.761372 
L 120.962644 306.057446 
L 123.296412 305.374987 
L 125.63018 304.484883 
L 127.963949 303.361727 
L 130.297717 301.988089 
L 132.631485 300.354762 
L 134.965253 298.459655 
L 137.299022 296.303855 
L 139.63279 293.883484 
L 141.966558 291.181152 
L 144.300326 288.167734 
L 146.634095 284.824637 
L 150.134747 279.282973 
L 154.802284 271.737442 
L 157.136052 268.42654 
L 159.46982 265.702477 
L 160.636704 264.595011 
L 161.803588 263.661111 
L 162.970472 262.894784 
L 164.137357 262.283822 
L 166.471125 261.455368 
L 168.804893 261.004263 
L 172.305546 260.666093 
L 176.973082 260.451304 
L 179.30685 260.571346 
L 181.640619 261.025908 
L 183.974387 261.918178 
L 186.308155 263.258189 
L 188.641923 264.962611 
L 192.142576 267.915284 
L 197.976996 273.166616 
L 201.477649 276.512559 
L 210.812722 285.760447 
L 213.14649 287.645189 
L 215.480258 289.282446 
L 227.1491 296.697818 
L 229.482868 298.013687 
L 231.816636 299.113291 
L 234.150404 300.002028 
L 237.651057 301.059541 
L 243.485477 302.503573 
L 253.987435 304.80225 
L 258.654971 305.678474 
L 262.155623 306.149328 
L 265.656276 306.420959 
L 291.327727 307.537739 
L 299.495916 307.537408 
L 315.832293 307.439274 
L 331.001787 307.581888 
L 331.001787 307.581888 
" style="fill:none;stroke:#9467bd;stroke-linecap:round;stroke-width:1.5;"/>
   </g>
   <g id="line2d_33">
    <path clip-path="url(#pc3456bbffc)" d="M 96.415473 307.581357 
L 107.060279 307.464339 
L 112.382683 307.197454 
L 116.640605 306.792403 
L 119.834047 306.296647 
L 121.963009 305.809386 
L 124.09197 305.136104 
L 126.220931 304.217496 
L 128.349892 302.99612 
L 130.478854 301.425496 
L 132.607815 299.480597 
L 134.736776 297.168928 
L 136.865738 294.53848 
L 140.05918 290.195376 
L 145.381583 282.87837 
L 148.575025 278.991625 
L 150.703986 276.723821 
L 152.832948 274.71997 
L 154.961909 272.948136 
L 158.155351 270.600824 
L 162.413274 267.764978 
L 165.606716 265.804387 
L 167.735677 264.656294 
L 169.864638 263.714237 
L 171.9936 263.024456 
L 174.122561 262.586291 
L 176.251522 262.352122 
L 179.444964 262.253991 
L 181.573926 262.339094 
L 183.702887 262.61974 
L 185.831848 263.210495 
L 187.960809 264.20795 
L 190.089771 265.635761 
L 192.218732 267.423236 
L 199.670097 274.294259 
L 201.799058 275.925279 
L 204.9925 278.06794 
L 208.185942 280.175427 
L 210.314903 281.773262 
L 212.443865 283.61992 
L 215.637307 286.808592 
L 219.895229 291.186169 
L 222.024191 293.113731 
L 224.153152 294.789272 
L 227.346594 296.9283 
L 231.604517 299.44515 
L 235.862439 301.726256 
L 239.055881 303.143697 
L 241.184843 303.887696 
L 243.313804 304.453971 
L 245.442765 304.847118 
L 248.636207 305.162646 
L 252.89413 305.277027 
L 259.281014 305.448157 
L 265.667898 305.935736 
L 276.312704 306.762546 
L 282.699588 307.043136 
L 306.118163 307.577757 
L 308.247124 307.581523 
L 308.247124 307.581523 
" style="fill:none;stroke:#d62728;stroke-linecap:round;stroke-width:1.5;"/>
   </g>
   <g id="line2d_34">
    <path clip-path="url(#pc3456bbffc)" d="M 100.21308 307.581769 
L 111.119005 307.477608 
L 116.076244 307.231259 
L 119.050587 306.897264 
L 121.033483 306.523223 
L 123.016378 305.965204 
L 124.999274 305.163881 
L 126.982169 304.069639 
L 128.965064 302.659274 
L 130.94796 300.950004 
L 133.922303 297.97177 
L 140.862437 290.722345 
L 144.828228 286.688329 
L 146.811124 284.447197 
L 148.794019 281.952715 
L 151.768362 277.79508 
L 155.734153 272.130218 
L 157.717049 269.55213 
L 159.699944 267.228634 
L 161.68284 265.150437 
L 163.665735 263.300042 
L 165.648631 261.697382 
L 167.631526 260.408545 
L 169.614422 259.509388 
L 171.597317 259.030761 
L 173.580213 258.928512 
L 175.563108 259.105026 
L 177.546004 259.470909 
L 179.528899 260.004298 
L 181.511795 260.765076 
L 183.49469 261.852034 
L 185.477586 263.329475 
L 187.460481 265.168542 
L 194.400615 272.166603 
L 196.383511 273.69259 
L 198.366406 274.951007 
L 204.315093 278.334804 
L 206.297988 279.74023 
L 208.280884 281.369628 
L 211.255227 284.129254 
L 216.212465 288.81799 
L 219.186809 291.269535 
L 222.161152 293.361968 
L 225.135495 295.184742 
L 229.101286 297.37821 
L 233.067077 299.346301 
L 236.04142 300.612659 
L 239.015763 301.663678 
L 241.990107 302.511595 
L 245.955898 303.417762 
L 254.878927 305.1647 
L 259.836166 305.956668 
L 263.801957 306.396889 
L 268.759196 306.728483 
L 285.613807 307.463531 
L 294.536837 307.576071 
L 297.51118 307.581782 
L 297.51118 307.581782 
" style="fill:none;stroke:#2ca02c;stroke-linecap:round;stroke-width:1.5;"/>
   </g>
   <g id="line2d_35">
    <path clip-path="url(#pc3456bbffc)" d="M 98.95445 307.581433 
L 109.515801 307.457551 
L 113.740342 307.225323 
L 116.908747 306.88228 
L 120.077152 306.29591 
L 122.189423 305.717545 
L 124.301693 304.960732 
L 126.413963 304.012369 
L 128.526234 302.860371 
L 130.638504 301.475124 
L 132.750774 299.794979 
L 134.863044 297.73267 
L 136.975315 295.209324 
L 139.087585 292.204023 
L 141.199855 288.792925 
L 147.536666 278.167319 
L 149.648936 275.249426 
L 151.761207 272.857602 
L 153.873477 270.959004 
L 155.985747 269.424554 
L 161.266423 265.94988 
L 163.378693 264.307275 
L 169.715504 259.017492 
L 170.771639 258.379823 
L 171.827774 257.895974 
L 172.883909 257.585014 
L 173.940045 257.455151 
L 174.99618 257.502895 
L 176.052315 257.713681 
L 178.164585 258.524112 
L 181.332991 260.264688 
L 186.613666 263.490841 
L 188.725937 265.030669 
L 190.838207 266.871062 
L 192.950477 269.01685 
L 202.455693 279.289811 
L 205.624099 282.150754 
L 217.241585 292.050125 
L 220.409991 294.48261 
L 223.578396 296.589388 
L 226.746802 298.351629 
L 229.915207 299.783897 
L 233.083613 300.92044 
L 237.308153 302.112245 
L 242.588829 303.344027 
L 247.869505 304.35325 
L 261.599261 306.685691 
L 265.823802 306.985969 
L 273.216748 307.164559 
L 279.553559 307.166625 
L 289.058775 307.068829 
L 295.395586 307.307464 
L 302.788532 307.538219 
L 309.125343 307.58033 
L 309.125343 307.58033 
" style="fill:none;stroke:#ff7f0e;stroke-linecap:round;stroke-width:1.5;"/>
   </g>
   <g id="line2d_36">
    <path clip-path="url(#pc3456bbffc)" d="M 93.831196 307.581837 
L 105.630008 307.473749 
L 111.529414 307.236216 
L 115.462351 306.910278 
L 118.412054 306.5005 
L 121.361757 305.882237 
L 124.31146 304.983409 
L 126.277928 304.178878 
L 128.244397 303.165416 
L 130.210866 301.906056 
L 132.177334 300.380561 
L 134.143803 298.599694 
L 137.093506 295.558853 
L 142.992912 288.959664 
L 146.925849 284.328264 
L 149.875552 280.484062 
L 153.808489 274.842006 
L 156.758192 270.628048 
L 158.724661 268.105111 
L 160.691129 265.975041 
L 162.657598 264.319923 
L 164.624067 263.141321 
L 166.590535 262.355822 
L 169.540238 261.588755 
L 173.473176 260.573744 
L 178.389347 259.05486 
L 180.355816 258.775405 
L 181.33905 258.806326 
L 182.322284 258.981989 
L 183.305519 259.320198 
L 184.288753 259.832545 
L 185.271987 260.523229 
L 186.255222 261.388349 
L 188.22169 263.585575 
L 190.188159 266.2413 
L 195.104331 273.183664 
L 197.070799 275.514606 
L 199.037268 277.46398 
L 201.003736 279.089885 
L 203.953439 281.175651 
L 212.802548 287.038508 
L 215.752251 288.690784 
L 218.701954 290.077157 
L 223.618126 292.281004 
L 226.567829 293.867545 
L 235.416938 299.029851 
L 238.36664 300.291219 
L 243.282812 302.048233 
L 249.182218 304.038876 
L 252.131921 304.843393 
L 255.081624 305.438615 
L 259.014561 305.965452 
L 266.880436 306.666506 
L 275.729545 307.320524 
L 281.62895 307.525714 
L 289.494825 307.581279 
L 289.494825 307.581279 
" style="fill:none;stroke:#1f77b4;stroke-linecap:round;stroke-width:1.5;"/>
   </g>
   <g id="line2d_37">
    <path clip-path="url(#pc3456bbffc)" d="M 131.492907 307.580927 
L 143.625574 307.463754 
L 150.905174 307.149272 
L 155.758241 306.76687 
L 159.398041 306.307904 
L 163.037841 305.578559 
L 165.464374 304.884038 
L 167.890908 303.999019 
L 170.317441 302.922676 
L 172.743975 301.667795 
L 176.383775 299.486676 
L 180.023575 296.97402 
L 183.663375 294.139137 
L 188.516442 289.970901 
L 193.369508 285.774041 
L 197.009308 282.927077 
L 200.649108 280.409189 
L 211.568509 273.41025 
L 213.995042 271.973353 
L 216.421575 270.746408 
L 218.848109 269.8093 
L 221.274642 269.192964 
L 223.701176 268.873937 
L 226.127709 268.791352 
L 229.767509 268.963728 
L 233.407309 269.37125 
L 237.047109 270.006142 
L 240.686909 270.920533 
L 244.326709 272.137725 
L 247.966509 273.663236 
L 250.393043 274.880089 
L 252.819576 276.300497 
L 255.24611 277.961944 
L 257.672643 279.873388 
L 261.312443 283.101834 
L 266.16551 287.48566 
L 268.592043 289.430907 
L 271.018577 291.117765 
L 273.44511 292.555287 
L 277.08491 294.375581 
L 281.937977 296.509821 
L 286.791044 298.415055 
L 290.430844 299.554488 
L 294.070644 300.397646 
L 304.990044 302.556957 
L 314.696177 304.839942 
L 318.335978 305.454114 
L 321.975778 305.876107 
L 326.828844 306.198011 
L 357.160512 307.421052 
L 365.653379 307.560704 
L 372.932979 307.581968 
L 372.932979 307.581968 
" style="fill:none;stroke:#9467bd;stroke-linecap:round;stroke-width:1.5;"/>
   </g>
   <g id="line2d_38">
    <path clip-path="url(#pc3456bbffc)" d="M 134.612479 307.579407 
L 143.682135 307.480127 
L 148.864796 307.195072 
L 152.751792 306.723111 
L 155.343122 306.237032 
L 157.934452 305.594021 
L 160.525783 304.787187 
L 164.412778 303.276481 
L 168.299774 301.453343 
L 174.7781 298.034375 
L 182.552091 293.72856 
L 186.439087 291.286737 
L 190.326082 288.532507 
L 196.804408 283.547088 
L 204.578399 277.639187 
L 208.465395 274.947439 
L 212.35239 272.585892 
L 216.239386 270.570403 
L 220.126382 268.850066 
L 222.717712 267.892768 
L 225.309042 267.167998 
L 227.900373 266.771288 
L 230.491703 266.777686 
L 233.083034 267.208163 
L 235.674364 268.023078 
L 238.265694 269.144549 
L 240.857025 270.492226 
L 244.74402 272.825731 
L 248.631016 275.479203 
L 252.518011 278.412116 
L 264.178998 287.529551 
L 268.065994 290.108503 
L 271.952989 292.302925 
L 277.13565 294.814689 
L 291.387967 301.386632 
L 293.979298 302.320937 
L 296.570628 303.075041 
L 299.161958 303.648147 
L 303.048954 304.219094 
L 308.231615 304.642314 
L 354.875562 307.361428 
L 362.649553 307.430468 
L 376.90187 307.496596 
L 392.449852 307.582255 
L 392.449852 307.582255 
" style="fill:none;stroke:#d62728;stroke-linecap:round;stroke-width:1.5;"/>
   </g>
   <g id="line2d_39">
    <path clip-path="url(#pc3456bbffc)" d="M 129.873522 307.581124 
L 141.9142 307.45714 
L 146.730472 307.222612 
L 151.546743 306.757483 
L 156.363014 306.009701 
L 161.179285 304.99253 
L 165.995556 303.734781 
L 169.60776 302.582529 
L 172.015895 301.65224 
L 174.424031 300.537189 
L 176.832167 299.194456 
L 179.240302 297.599926 
L 181.648438 295.758067 
L 185.260641 292.615762 
L 194.893184 283.726361 
L 197.301319 281.806834 
L 199.709455 280.114762 
L 202.11759 278.644533 
L 205.729794 276.725826 
L 210.546065 274.199252 
L 214.158268 272.039693 
L 220.178607 268.35429 
L 222.586743 267.165072 
L 224.994879 266.274306 
L 227.403014 265.727559 
L 229.81115 265.553482 
L 232.219286 265.783038 
L 233.423353 266.060847 
L 234.627421 266.453127 
L 237.035557 267.588687 
L 239.443692 269.173915 
L 241.851828 271.132786 
L 245.464031 274.478359 
L 250.280303 278.944671 
L 253.892506 281.930592 
L 257.504709 284.59541 
L 262.320981 287.844878 
L 267.137252 290.865558 
L 270.749455 292.905889 
L 273.157591 294.091558 
L 275.565726 295.100576 
L 277.973862 295.924302 
L 281.586065 296.86478 
L 292.422676 299.253323 
L 303.259286 302.095433 
L 306.871489 302.718268 
L 330.952845 306.061629 
L 338.177252 306.733526 
L 345.401659 307.179358 
L 353.830133 307.46143 
L 364.666744 307.574611 
L 369.483015 307.582163 
L 369.483015 307.582163 
" style="fill:none;stroke:#2ca02c;stroke-linecap:round;stroke-width:1.5;"/>
   </g>
   <g id="line2d_40">
    <path clip-path="url(#pc3456bbffc)" d="M 133.261698 307.58168 
L 145.021423 307.480004 
L 150.901286 307.217178 
L 155.605176 306.779363 
L 159.133094 306.260571 
L 162.661011 305.524426 
L 166.188929 304.515065 
L 169.716847 303.188244 
L 173.244764 301.523367 
L 176.772682 299.506598 
L 179.124627 297.948545 
L 181.476572 296.19772 
L 183.828517 294.236035 
L 186.180462 292.05769 
L 189.70838 288.424564 
L 194.41227 283.154837 
L 199.11616 277.899871 
L 202.644078 274.311059 
L 204.996023 272.218012 
L 207.347968 270.45121 
L 209.699913 269.085981 
L 212.051858 268.182506 
L 213.227831 267.912156 
L 215.579776 267.716439 
L 217.931721 267.90415 
L 221.459639 268.586294 
L 224.987556 269.292496 
L 228.515474 269.743024 
L 235.571309 270.356289 
L 237.923255 270.773264 
L 240.2752 271.406394 
L 242.627145 272.292396 
L 244.97909 273.451688 
L 247.331035 274.886698 
L 249.68298 276.573483 
L 253.210898 279.433605 
L 257.914788 283.295541 
L 260.266733 285.000447 
L 262.618678 286.481637 
L 266.146596 288.35156 
L 274.378404 292.423007 
L 284.962157 298.102668 
L 288.490074 299.66923 
L 292.017992 300.936006 
L 295.545909 301.904082 
L 300.2498 302.893878 
L 315.537443 305.790073 
L 319.06536 306.165291 
L 323.769251 306.431386 
L 353.168564 307.414021 
L 362.576345 307.566013 
L 367.280235 307.580575 
L 367.280235 307.580575 
" style="fill:none;stroke:#ff7f0e;stroke-linecap:round;stroke-width:1.5;"/>
   </g>
   <g id="line2d_41">
    <path clip-path="url(#pc3456bbffc)" d="M 136.37909 307.578235 
L 145.598976 307.467611 
L 149.550356 307.267003 
L 153.501735 306.84624 
L 156.135988 306.389084 
L 158.770241 305.760505 
L 161.404494 304.948919 
L 164.038748 303.958522 
L 167.990127 302.179501 
L 171.941507 300.127114 
L 177.210013 297.086107 
L 182.478519 293.747508 
L 187.747025 290.10855 
L 194.332658 285.202049 
L 208.82105 274.177721 
L 211.455303 272.455101 
L 214.089556 271.018077 
L 216.723809 269.988886 
L 218.040936 269.660522 
L 219.358062 269.467732 
L 220.675189 269.413016 
L 221.992316 269.493025 
L 224.626569 270.013569 
L 227.260822 270.890557 
L 235.163581 273.894437 
L 240.432087 275.421715 
L 244.383467 276.630056 
L 247.01772 277.625467 
L 249.651973 278.804678 
L 253.603353 280.846512 
L 264.140365 286.500413 
L 270.725998 289.693321 
L 277.31163 292.671442 
L 282.580137 294.84061 
L 289.165769 297.292669 
L 295.751402 299.470738 
L 301.019908 300.975206 
L 306.288414 302.241275 
L 311.556921 303.281019 
L 320.776807 304.797945 
L 327.362439 305.718107 
L 332.630945 306.251968 
L 339.216578 306.654532 
L 347.119337 306.877622 
L 393.218767 307.575447 
L 398.487273 307.582352 
L 398.487273 307.582352 
" style="fill:none;stroke:#1f77b4;stroke-linecap:round;stroke-width:1.5;"/>
   </g>
   <g id="patch_3">
    <path d="M 57.6 307.584 
L 57.6 41.472 
" style="fill:none;stroke:#ffffff;stroke-linecap:square;stroke-linejoin:miter;stroke-width:0.8;"/>
   </g>
   <g id="patch_4">
    <path d="M 414.72 307.584 
L 414.72 41.472 
" style="fill:none;stroke:#ffffff;stroke-linecap:square;stroke-linejoin:miter;stroke-width:0.8;"/>
   </g>
   <g id="patch_5">
    <path d="M 57.6 307.584 
L 414.72 307.584 
" style="fill:none;stroke:#ffffff;stroke-linecap:square;stroke-linejoin:miter;stroke-width:0.8;"/>
   </g>
   <g id="patch_6">
    <path d="M 57.6 41.472 
L 414.72 41.472 
" style="fill:none;stroke:#ffffff;stroke-linecap:square;stroke-linejoin:miter;stroke-width:0.8;"/>
   </g>
   <g id="text_18">
    <!-- Density plots of PG(h, 0) using each method for h $\in$ {1,4,7,10,15}.  -->
    <g style="fill:#262626;" transform="translate(30.3 22.008)scale(0.12 -0.12)">
     <defs>
      <path id="DejaVuSans-32"/>
      <path d="M 18.109375 8.203125 
L 18.109375 -20.796875 
L 9.078125 -20.796875 
L 9.078125 54.6875 
L 18.109375 54.6875 
L 18.109375 46.390625 
Q 20.953125 51.265625 25.265625 53.625 
Q 29.59375 56 35.59375 56 
Q 45.5625 56 51.78125 48.09375 
Q 58.015625 40.1875 58.015625 27.296875 
Q 58.015625 14.40625 51.78125 6.484375 
Q 45.5625 -1.421875 35.59375 -1.421875 
Q 29.59375 -1.421875 25.265625 0.953125 
Q 20.953125 3.328125 18.109375 8.203125 
z
M 48.6875 27.296875 
Q 48.6875 37.203125 44.609375 42.84375 
Q 40.53125 48.484375 33.40625 48.484375 
Q 26.265625 48.484375 22.1875 42.84375 
Q 18.109375 37.203125 18.109375 27.296875 
Q 18.109375 17.390625 22.1875 11.75 
Q 26.265625 6.109375 33.40625 6.109375 
Q 40.53125 6.109375 44.609375 11.75 
Q 48.6875 17.390625 48.6875 27.296875 
z
" id="DejaVuSans-112"/>
      <path d="M 9.421875 75.984375 
L 18.40625 75.984375 
L 18.40625 0 
L 9.421875 0 
z
" id="DejaVuSans-108"/>
      <path d="M 30.609375 48.390625 
Q 23.390625 48.390625 19.1875 42.75 
Q 14.984375 37.109375 14.984375 27.296875 
Q 14.984375 17.484375 19.15625 11.84375 
Q 23.34375 6.203125 30.609375 6.203125 
Q 37.796875 6.203125 41.984375 11.859375 
Q 46.1875 17.53125 46.1875 27.296875 
Q 46.1875 37.015625 41.984375 42.703125 
Q 37.796875 48.390625 30.609375 48.390625 
z
M 30.609375 56 
Q 42.328125 56 49.015625 48.375 
Q 55.71875 40.765625 55.71875 27.296875 
Q 55.71875 13.875 49.015625 6.21875 
Q 42.328125 -1.421875 30.609375 -1.421875 
Q 18.84375 -1.421875 12.171875 6.21875 
Q 5.515625 13.875 5.515625 27.296875 
Q 5.515625 40.765625 12.171875 48.375 
Q 18.84375 56 30.609375 56 
z
" id="DejaVuSans-111"/>
      <path d="M 37.109375 75.984375 
L 37.109375 68.5 
L 28.515625 68.5 
Q 23.6875 68.5 21.796875 66.546875 
Q 19.921875 64.59375 19.921875 59.515625 
L 19.921875 54.6875 
L 34.71875 54.6875 
L 34.71875 47.703125 
L 19.921875 47.703125 
L 19.921875 0 
L 10.890625 0 
L 10.890625 47.703125 
L 2.296875 47.703125 
L 2.296875 54.6875 
L 10.890625 54.6875 
L 10.890625 58.5 
Q 10.890625 67.625 15.140625 71.796875 
Q 19.390625 75.984375 28.609375 75.984375 
z
" id="DejaVuSans-102"/>
      <path d="M 19.671875 64.796875 
L 19.671875 37.40625 
L 32.078125 37.40625 
Q 38.96875 37.40625 42.71875 40.96875 
Q 46.484375 44.53125 46.484375 51.125 
Q 46.484375 57.671875 42.71875 61.234375 
Q 38.96875 64.796875 32.078125 64.796875 
z
M 9.8125 72.90625 
L 32.078125 72.90625 
Q 44.34375 72.90625 50.609375 67.359375 
Q 56.890625 61.8125 56.890625 51.125 
Q 56.890625 40.328125 50.609375 34.8125 
Q 44.34375 29.296875 32.078125 29.296875 
L 19.671875 29.296875 
L 19.671875 0 
L 9.8125 0 
z
" id="DejaVuSans-80"/>
      <path d="M 59.515625 10.40625 
L 59.515625 29.984375 
L 43.40625 29.984375 
L 43.40625 38.09375 
L 69.28125 38.09375 
L 69.28125 6.78125 
Q 63.578125 2.734375 56.6875 0.65625 
Q 49.8125 -1.421875 42 -1.421875 
Q 24.90625 -1.421875 15.25 8.5625 
Q 5.609375 18.5625 5.609375 36.375 
Q 5.609375 54.25 15.25 64.234375 
Q 24.90625 74.21875 42 74.21875 
Q 49.125 74.21875 55.546875 72.453125 
Q 61.96875 70.703125 67.390625 67.28125 
L 67.390625 56.78125 
Q 61.921875 61.421875 55.765625 63.765625 
Q 49.609375 66.109375 42.828125 66.109375 
Q 29.4375 66.109375 22.71875 58.640625 
Q 16.015625 51.171875 16.015625 36.375 
Q 16.015625 21.625 22.71875 14.15625 
Q 29.4375 6.6875 42.828125 6.6875 
Q 48.046875 6.6875 52.140625 7.59375 
Q 56.25 8.5 59.515625 10.40625 
z
" id="DejaVuSans-71"/>
      <path d="M 31 75.875 
Q 24.46875 64.65625 21.28125 53.65625 
Q 18.109375 42.671875 18.109375 31.390625 
Q 18.109375 20.125 21.3125 9.0625 
Q 24.515625 -2 31 -13.1875 
L 23.1875 -13.1875 
Q 15.875 -1.703125 12.234375 9.375 
Q 8.59375 20.453125 8.59375 31.390625 
Q 8.59375 42.28125 12.203125 53.3125 
Q 15.828125 64.359375 23.1875 75.875 
z
" id="DejaVuSans-40"/>
      <path d="M 54.890625 33.015625 
L 54.890625 0 
L 45.90625 0 
L 45.90625 32.71875 
Q 45.90625 40.484375 42.875 44.328125 
Q 39.84375 48.1875 33.796875 48.1875 
Q 26.515625 48.1875 22.3125 43.546875 
Q 18.109375 38.921875 18.109375 30.90625 
L 18.109375 0 
L 9.078125 0 
L 9.078125 75.984375 
L 18.109375 75.984375 
L 18.109375 46.1875 
Q 21.34375 51.125 25.703125 53.5625 
Q 30.078125 56 35.796875 56 
Q 45.21875 56 50.046875 50.171875 
Q 54.890625 44.34375 54.890625 33.015625 
z
" id="DejaVuSans-104"/>
      <path d="M 11.71875 12.40625 
L 22.015625 12.40625 
L 22.015625 4 
L 14.015625 -11.625 
L 7.71875 -11.625 
L 11.71875 4 
z
" id="DejaVuSans-44"/>
      <path d="M 8.015625 75.875 
L 15.828125 75.875 
Q 23.140625 64.359375 26.78125 53.3125 
Q 30.421875 42.28125 30.421875 31.390625 
Q 30.421875 20.453125 26.78125 9.375 
Q 23.140625 -1.703125 15.828125 -13.1875 
L 8.015625 -13.1875 
Q 14.5 -2 17.703125 9.0625 
Q 20.90625 20.125 20.90625 31.390625 
Q 20.90625 42.671875 17.703125 53.65625 
Q 14.5 64.65625 8.015625 75.875 
z
" id="DejaVuSans-41"/>
      <path d="M 8.5 21.578125 
L 8.5 54.6875 
L 17.484375 54.6875 
L 17.484375 21.921875 
Q 17.484375 14.15625 20.5 10.265625 
Q 23.53125 6.390625 29.59375 6.390625 
Q 36.859375 6.390625 41.078125 11.03125 
Q 45.3125 15.671875 45.3125 23.6875 
L 45.3125 54.6875 
L 54.296875 54.6875 
L 54.296875 0 
L 45.3125 0 
L 45.3125 8.40625 
Q 42.046875 3.421875 37.71875 1 
Q 33.40625 -1.421875 27.6875 -1.421875 
Q 18.265625 -1.421875 13.375 4.4375 
Q 8.5 10.296875 8.5 21.578125 
z
M 31.109375 56 
z
" id="DejaVuSans-117"/>
      <path d="M 45.40625 27.984375 
Q 45.40625 37.75 41.375 43.109375 
Q 37.359375 48.484375 30.078125 48.484375 
Q 22.859375 48.484375 18.828125 43.109375 
Q 14.796875 37.75 14.796875 27.984375 
Q 14.796875 18.265625 18.828125 12.890625 
Q 22.859375 7.515625 30.078125 7.515625 
Q 37.359375 7.515625 41.375 12.890625 
Q 45.40625 18.265625 45.40625 27.984375 
z
M 54.390625 6.78125 
Q 54.390625 -7.171875 48.1875 -13.984375 
Q 42 -20.796875 29.203125 -20.796875 
Q 24.46875 -20.796875 20.265625 -20.09375 
Q 16.0625 -19.390625 12.109375 -17.921875 
L 12.109375 -9.1875 
Q 16.0625 -11.328125 19.921875 -12.34375 
Q 23.78125 -13.375 27.78125 -13.375 
Q 36.625 -13.375 41.015625 -8.765625 
Q 45.40625 -4.15625 45.40625 5.171875 
L 45.40625 9.625 
Q 42.625 4.78125 38.28125 2.390625 
Q 33.9375 0 27.875 0 
Q 17.828125 0 11.671875 7.65625 
Q 5.515625 15.328125 5.515625 27.984375 
Q 5.515625 40.671875 11.671875 48.328125 
Q 17.828125 56 27.875 56 
Q 33.9375 56 38.28125 53.609375 
Q 42.625 51.21875 45.40625 46.390625 
L 45.40625 54.6875 
L 54.390625 54.6875 
z
" id="DejaVuSans-103"/>
      <path d="M 34.28125 27.484375 
Q 23.390625 27.484375 19.1875 25 
Q 14.984375 22.515625 14.984375 16.5 
Q 14.984375 11.71875 18.140625 8.90625 
Q 21.296875 6.109375 26.703125 6.109375 
Q 34.1875 6.109375 38.703125 11.40625 
Q 43.21875 16.703125 43.21875 25.484375 
L 43.21875 27.484375 
z
M 52.203125 31.203125 
L 52.203125 0 
L 43.21875 0 
L 43.21875 8.296875 
Q 40.140625 3.328125 35.546875 0.953125 
Q 30.953125 -1.421875 24.3125 -1.421875 
Q 15.921875 -1.421875 10.953125 3.296875 
Q 6 8.015625 6 15.921875 
Q 6 25.140625 12.171875 29.828125 
Q 18.359375 34.515625 30.609375 34.515625 
L 43.21875 34.515625 
L 43.21875 35.40625 
Q 43.21875 41.609375 39.140625 45 
Q 35.0625 48.390625 27.6875 48.390625 
Q 23 48.390625 18.546875 47.265625 
Q 14.109375 46.140625 10.015625 43.890625 
L 10.015625 52.203125 
Q 14.9375 54.109375 19.578125 55.046875 
Q 24.21875 56 28.609375 56 
Q 40.484375 56 46.34375 49.84375 
Q 52.203125 43.703125 52.203125 31.203125 
z
" id="DejaVuSans-97"/>
      <path d="M 48.78125 52.59375 
L 48.78125 44.1875 
Q 44.96875 46.296875 41.140625 47.34375 
Q 37.3125 48.390625 33.40625 48.390625 
Q 24.65625 48.390625 19.8125 42.84375 
Q 14.984375 37.3125 14.984375 27.296875 
Q 14.984375 17.28125 19.8125 11.734375 
Q 24.65625 6.203125 33.40625 6.203125 
Q 37.3125 6.203125 41.140625 7.25 
Q 44.96875 8.296875 48.78125 10.40625 
L 48.78125 2.09375 
Q 45.015625 0.34375 40.984375 -0.53125 
Q 36.96875 -1.421875 32.421875 -1.421875 
Q 20.0625 -1.421875 12.78125 6.34375 
Q 5.515625 14.109375 5.515625 27.296875 
Q 5.515625 40.671875 12.859375 48.328125 
Q 20.21875 56 33.015625 56 
Q 37.15625 56 41.109375 55.140625 
Q 45.0625 54.296875 48.78125 52.59375 
z
" id="DejaVuSans-99"/>
      <path d="M 52 44.1875 
Q 55.375 50.25 60.0625 53.125 
Q 64.75 56 71.09375 56 
Q 79.640625 56 84.28125 50.015625 
Q 88.921875 44.046875 88.921875 33.015625 
L 88.921875 0 
L 79.890625 0 
L 79.890625 32.71875 
Q 79.890625 40.578125 77.09375 44.375 
Q 74.3125 48.1875 68.609375 48.1875 
Q 61.625 48.1875 57.5625 43.546875 
Q 53.515625 38.921875 53.515625 30.90625 
L 53.515625 0 
L 44.484375 0 
L 44.484375 32.71875 
Q 44.484375 40.625 41.703125 44.40625 
Q 38.921875 48.1875 33.109375 48.1875 
Q 26.21875 48.1875 22.15625 43.53125 
Q 18.109375 38.875 18.109375 30.90625 
L 18.109375 0 
L 9.078125 0 
L 9.078125 54.6875 
L 18.109375 54.6875 
L 18.109375 46.1875 
Q 21.1875 51.21875 25.484375 53.609375 
Q 29.78125 56 35.6875 56 
Q 41.65625 56 45.828125 52.96875 
Q 50 49.953125 52 44.1875 
z
" id="DejaVuSans-109"/>
      <path d="M 45.40625 46.390625 
L 45.40625 75.984375 
L 54.390625 75.984375 
L 54.390625 0 
L 45.40625 0 
L 45.40625 8.203125 
Q 42.578125 3.328125 38.25 0.953125 
Q 33.9375 -1.421875 27.875 -1.421875 
Q 17.96875 -1.421875 11.734375 6.484375 
Q 5.515625 14.40625 5.515625 27.296875 
Q 5.515625 40.1875 11.734375 48.09375 
Q 17.96875 56 27.875 56 
Q 33.9375 56 38.25 53.625 
Q 42.578125 51.265625 45.40625 46.390625 
z
M 14.796875 27.296875 
Q 14.796875 17.390625 18.875 11.75 
Q 22.953125 6.109375 30.078125 6.109375 
Q 37.203125 6.109375 41.296875 11.75 
Q 45.40625 17.390625 45.40625 27.296875 
Q 45.40625 37.203125 41.296875 42.84375 
Q 37.203125 48.484375 30.078125 48.484375 
Q 22.953125 48.484375 18.875 42.84375 
Q 14.796875 37.203125 14.796875 27.296875 
z
" id="DejaVuSans-100"/>
      <path d="M 41.109375 46.296875 
Q 39.59375 47.171875 37.8125 47.578125 
Q 36.03125 48 33.890625 48 
Q 26.265625 48 22.1875 43.046875 
Q 18.109375 38.09375 18.109375 28.8125 
L 18.109375 0 
L 9.078125 0 
L 9.078125 54.6875 
L 18.109375 54.6875 
L 18.109375 46.1875 
Q 20.953125 51.171875 25.484375 53.578125 
Q 30.03125 56 36.53125 56 
Q 37.453125 56 38.578125 55.875 
Q 39.703125 55.765625 41.0625 55.515625 
z
" id="DejaVuSans-114"/>
      <path d="M 16.75 30.609375 
Q 17.09375 27 20.171875 21.140625 
Q 23.78125 14.359375 30.609375 10.546875 
Q 37.3125 6.84375 44.53125 6.78125 
L 78.5625 6.78125 
L 78.5625 -0.984375 
L 44.53125 -0.984375 
Q 35.15625 -0.984375 26.484375 3.84375 
Q 17.828125 8.6875 13.1875 17.28125 
Q 8.546875 25.875 8.546875 35.015625 
Q 8.546875 44.046875 13.1875 52.640625 
Q 17.828125 61.234375 26.484375 66.109375 
Q 35.15625 71 44.53125 71 
L 78.5625 71 
L 78.5625 63.234375 
L 44.53125 63.234375 
Q 37.3125 63.1875 30.609375 59.421875 
Q 23.828125 55.5625 20.171875 48.828125 
Q 17.046875 42.96875 16.609375 38.421875 
L 78.5625 38.421875 
L 78.5625 30.609375 
z
" id="DejaVuSans-8712"/>
      <path d="M 51.125 -9.28125 
L 51.125 -16.3125 
L 48.09375 -16.3125 
Q 35.9375 -16.3125 31.8125 -12.6875 
Q 27.6875 -9.078125 27.6875 1.703125 
L 27.6875 13.375 
Q 27.6875 20.75 25.046875 23.578125 
Q 22.40625 26.421875 15.484375 26.421875 
L 12.5 26.421875 
L 12.5 33.40625 
L 15.484375 33.40625 
Q 22.46875 33.40625 25.078125 36.203125 
Q 27.6875 39.015625 27.6875 46.296875 
L 27.6875 58.015625 
Q 27.6875 68.796875 31.8125 72.390625 
Q 35.9375 75.984375 48.09375 75.984375 
L 51.125 75.984375 
L 51.125 69 
L 47.796875 69 
Q 40.921875 69 38.8125 66.84375 
Q 36.71875 64.703125 36.71875 57.8125 
L 36.71875 45.703125 
Q 36.71875 38.03125 34.5 34.5625 
Q 32.28125 31.109375 26.90625 29.890625 
Q 32.328125 28.5625 34.515625 25.09375 
Q 36.71875 21.625 36.71875 14.015625 
L 36.71875 1.90625 
Q 36.71875 -4.984375 38.8125 -7.125 
Q 40.921875 -9.28125 47.796875 -9.28125 
z
" id="DejaVuSans-123"/>
      <path d="M 12.5 -9.28125 
L 15.921875 -9.28125 
Q 22.75 -9.28125 24.828125 -7.171875 
Q 26.90625 -5.078125 26.90625 1.90625 
L 26.90625 14.015625 
Q 26.90625 21.625 29.09375 25.09375 
Q 31.296875 28.5625 36.71875 29.890625 
Q 31.296875 31.109375 29.09375 34.5625 
Q 26.90625 38.03125 26.90625 45.703125 
L 26.90625 57.8125 
Q 26.90625 64.75 24.828125 66.875 
Q 22.75 69 15.921875 69 
L 12.5 69 
L 12.5 75.984375 
L 15.578125 75.984375 
Q 27.734375 75.984375 31.8125 72.390625 
Q 35.890625 68.796875 35.890625 58.015625 
L 35.890625 46.296875 
Q 35.890625 39.015625 38.515625 36.203125 
Q 41.15625 33.40625 48.09375 33.40625 
L 51.125 33.40625 
L 51.125 26.421875 
L 48.09375 26.421875 
Q 41.15625 26.421875 38.515625 23.578125 
Q 35.890625 20.75 35.890625 13.375 
L 35.890625 1.703125 
Q 35.890625 -9.078125 31.8125 -12.6875 
Q 27.734375 -16.3125 15.578125 -16.3125 
L 12.5 -16.3125 
z
" id="DejaVuSans-125"/>
     </defs>
     <use transform="translate(0 0.015625)" xlink:href="#DejaVuSans-68"/>
     <use transform="translate(77.001953 0.015625)" xlink:href="#DejaVuSans-101"/>
     <use transform="translate(138.525391 0.015625)" xlink:href="#DejaVuSans-110"/>
     <use transform="translate(201.904297 0.015625)" xlink:href="#DejaVuSans-115"/>
     <use transform="translate(254.003906 0.015625)" xlink:href="#DejaVuSans-105"/>
     <use transform="translate(281.787109 0.015625)" xlink:href="#DejaVuSans-116"/>
     <use transform="translate(320.996094 0.015625)" xlink:href="#DejaVuSans-121"/>
     <use transform="translate(380.175781 0.015625)" xlink:href="#DejaVuSans-32"/>
     <use transform="translate(411.962891 0.015625)" xlink:href="#DejaVuSans-112"/>
     <use transform="translate(475.439453 0.015625)" xlink:href="#DejaVuSans-108"/>
     <use transform="translate(503.222656 0.015625)" xlink:href="#DejaVuSans-111"/>
     <use transform="translate(564.404297 0.015625)" xlink:href="#DejaVuSans-116"/>
     <use transform="translate(603.613281 0.015625)" xlink:href="#DejaVuSans-115"/>
     <use transform="translate(655.712891 0.015625)" xlink:href="#DejaVuSans-32"/>
     <use transform="translate(687.5 0.015625)" xlink:href="#DejaVuSans-111"/>
     <use transform="translate(748.681641 0.015625)" xlink:href="#DejaVuSans-102"/>
     <use transform="translate(783.886719 0.015625)" xlink:href="#DejaVuSans-32"/>
     <use transform="translate(815.673828 0.015625)" xlink:href="#DejaVuSans-80"/>
     <use transform="translate(875.976562 0.015625)" xlink:href="#DejaVuSans-71"/>
     <use transform="translate(953.466797 0.015625)" xlink:href="#DejaVuSans-40"/>
     <use transform="translate(992.480469 0.015625)" xlink:href="#DejaVuSans-104"/>
     <use transform="translate(1055.859375 0.015625)" xlink:href="#DejaVuSans-44"/>
     <use transform="translate(1087.646484 0.015625)" xlink:href="#DejaVuSans-32"/>
     <use transform="translate(1119.433594 0.015625)" xlink:href="#DejaVuSans-48"/>
     <use transform="translate(1183.056641 0.015625)" xlink:href="#DejaVuSans-41"/>
     <use transform="translate(1222.070312 0.015625)" xlink:href="#DejaVuSans-32"/>
     <use transform="translate(1253.857422 0.015625)" xlink:href="#DejaVuSans-117"/>
     <use transform="translate(1317.236328 0.015625)" xlink:href="#DejaVuSans-115"/>
     <use transform="translate(1369.335938 0.015625)" xlink:href="#DejaVuSans-105"/>
     <use transform="translate(1397.119141 0.015625)" xlink:href="#DejaVuSans-110"/>
     <use transform="translate(1460.498047 0.015625)" xlink:href="#DejaVuSans-103"/>
     <use transform="translate(1523.974609 0.015625)" xlink:href="#DejaVuSans-32"/>
     <use transform="translate(1555.761719 0.015625)" xlink:href="#DejaVuSans-101"/>
     <use transform="translate(1617.285156 0.015625)" xlink:href="#DejaVuSans-97"/>
     <use transform="translate(1678.564453 0.015625)" xlink:href="#DejaVuSans-99"/>
     <use transform="translate(1733.544922 0.015625)" xlink:href="#DejaVuSans-104"/>
     <use transform="translate(1796.923828 0.015625)" xlink:href="#DejaVuSans-32"/>
     <use transform="translate(1828.710938 0.015625)" xlink:href="#DejaVuSans-109"/>
     <use transform="translate(1926.123047 0.015625)" xlink:href="#DejaVuSans-101"/>
     <use transform="translate(1987.646484 0.015625)" xlink:href="#DejaVuSans-116"/>
     <use transform="translate(2026.855469 0.015625)" xlink:href="#DejaVuSans-104"/>
     <use transform="translate(2090.234375 0.015625)" xlink:href="#DejaVuSans-111"/>
     <use transform="translate(2151.416016 0.015625)" xlink:href="#DejaVuSans-100"/>
     <use transform="translate(2214.892578 0.015625)" xlink:href="#DejaVuSans-32"/>
     <use transform="translate(2246.679688 0.015625)" xlink:href="#DejaVuSans-102"/>
     <use transform="translate(2281.884766 0.015625)" xlink:href="#DejaVuSans-111"/>
     <use transform="translate(2343.066406 0.015625)" xlink:href="#DejaVuSans-114"/>
     <use transform="translate(2384.179688 0.015625)" xlink:href="#DejaVuSans-32"/>
     <use transform="translate(2415.966797 0.015625)" xlink:href="#DejaVuSans-104"/>
     <use transform="translate(2479.345703 0.015625)" xlink:href="#DejaVuSans-32"/>
     <use transform="translate(2530.615234 0.015625)" xlink:href="#DejaVuSans-8712"/>
     <use transform="translate(2637.207031 0.015625)" xlink:href="#DejaVuSans-32"/>
     <use transform="translate(2668.994141 0.015625)" xlink:href="#DejaVuSans-123"/>
     <use transform="translate(2732.617188 0.015625)" xlink:href="#DejaVuSans-49"/>
     <use transform="translate(2796.240234 0.015625)" xlink:href="#DejaVuSans-44"/>
     <use transform="translate(2828.027344 0.015625)" xlink:href="#DejaVuSans-52"/>
     <use transform="translate(2891.650391 0.015625)" xlink:href="#DejaVuSans-44"/>
     <use transform="translate(2923.4375 0.015625)" xlink:href="#DejaVuSans-55"/>
     <use transform="translate(2987.060547 0.015625)" xlink:href="#DejaVuSans-44"/>
     <use transform="translate(3018.847656 0.015625)" xlink:href="#DejaVuSans-49"/>
     <use transform="translate(3082.470703 0.015625)" xlink:href="#DejaVuSans-48"/>
     <use transform="translate(3146.09375 0.015625)" xlink:href="#DejaVuSans-44"/>
     <use transform="translate(3177.880859 0.015625)" xlink:href="#DejaVuSans-49"/>
     <use transform="translate(3241.503906 0.015625)" xlink:href="#DejaVuSans-53"/>
     <use transform="translate(3303.376953 0.015625)" xlink:href="#DejaVuSans-125"/>
     <use transform="translate(3367 0.015625)" xlink:href="#DejaVuSans-46"/>
     <use transform="translate(3398.787109 0.015625)" xlink:href="#DejaVuSans-32"/>
    </g>
    <!-- The package $pypolyagamma$ is used as a reference. -->
    <g style="fill:#262626;" transform="translate(79.08 35.472)scale(0.12 -0.12)">
     <defs>
      <path d="M -0.296875 72.90625 
L 61.375 72.90625 
L 61.375 64.59375 
L 35.5 64.59375 
L 35.5 0 
L 25.59375 0 
L 25.59375 64.59375 
L -0.296875 64.59375 
z
" id="DejaVuSans-84"/>
      <path d="M 9.078125 75.984375 
L 18.109375 75.984375 
L 18.109375 31.109375 
L 44.921875 54.6875 
L 56.390625 54.6875 
L 27.390625 29.109375 
L 57.625 0 
L 45.90625 0 
L 18.109375 26.703125 
L 18.109375 0 
L 9.078125 0 
z
" id="DejaVuSans-107"/>
      <path d="M 49.609375 33.6875 
Q 49.609375 40.875 46.484375 44.671875 
Q 43.359375 48.484375 37.5 48.484375 
Q 33.5 48.484375 29.859375 46.4375 
Q 26.21875 44.390625 23.390625 40.484375 
Q 20.609375 36.625 18.9375 31.15625 
Q 17.28125 25.6875 17.28125 20.3125 
Q 17.28125 13.484375 20.40625 9.796875 
Q 23.53125 6.109375 29.296875 6.109375 
Q 33.546875 6.109375 37.1875 8.109375 
Q 40.828125 10.109375 43.40625 13.921875 
Q 46.1875 17.921875 47.890625 23.34375 
Q 49.609375 28.765625 49.609375 33.6875 
z
M 21.78125 46.390625 
Q 25.390625 51.125 30.296875 53.5625 
Q 35.203125 56 41.21875 56 
Q 49.609375 56 54.25 50.5 
Q 58.890625 45.015625 58.890625 35.109375 
Q 58.890625 27 56 19.65625 
Q 53.125 12.3125 47.703125 6.5 
Q 44.09375 2.640625 39.546875 0.609375 
Q 35.015625 -1.421875 29.984375 -1.421875 
Q 24.171875 -1.421875 20.21875 1 
Q 16.265625 3.421875 14.3125 8.203125 
L 8.6875 -20.796875 
L -0.296875 -20.796875 
L 14.40625 54.6875 
L 23.390625 54.6875 
z
" id="DejaVuSans-Oblique-112"/>
      <path d="M 24.8125 -5.078125 
Q 18.5625 -15.578125 14.625 -18.1875 
Q 10.6875 -20.796875 4.59375 -20.796875 
L -2.484375 -20.796875 
L -0.984375 -13.28125 
L 4.203125 -13.28125 
Q 7.953125 -13.28125 10.59375 -11.234375 
Q 13.234375 -9.1875 16.5 -3.21875 
L 19.28125 2 
L 7.171875 54.6875 
L 16.703125 54.6875 
L 25.78125 12.796875 
L 50.875 54.6875 
L 60.296875 54.6875 
z
" id="DejaVuSans-Oblique-121"/>
      <path d="M 25.390625 -1.421875 
Q 15.765625 -1.421875 10.171875 4.515625 
Q 4.59375 10.453125 4.59375 20.703125 
Q 4.59375 26.65625 6.515625 32.828125 
Q 8.453125 39.015625 11.53125 43.21875 
Q 16.359375 49.75 22.3125 52.875 
Q 28.265625 56 35.796875 56 
Q 45.125 56 50.859375 50.1875 
Q 56.59375 44.390625 56.59375 35.015625 
Q 56.59375 28.515625 54.6875 22.0625 
Q 52.78125 15.625 49.703125 11.375 
Q 44.921875 4.828125 38.96875 1.703125 
Q 33.015625 -1.421875 25.390625 -1.421875 
z
M 13.921875 21 
Q 13.921875 13.578125 17.015625 9.890625 
Q 20.125 6.203125 26.421875 6.203125 
Q 35.453125 6.203125 41.375 14.078125 
Q 47.3125 21.96875 47.3125 34.078125 
Q 47.3125 41.15625 44.140625 44.765625 
Q 40.96875 48.390625 34.8125 48.390625 
Q 29.734375 48.390625 25.78125 46.015625 
Q 21.828125 43.65625 18.703125 38.8125 
Q 16.40625 35.203125 15.15625 30.5625 
Q 13.921875 25.921875 13.921875 21 
z
" id="DejaVuSans-Oblique-111"/>
      <path d="M 18.3125 75.984375 
L 27.296875 75.984375 
L 12.5 0 
L 3.515625 0 
z
" id="DejaVuSans-Oblique-108"/>
      <path d="M 53.71875 31.203125 
L 47.609375 0 
L 38.625 0 
L 40.28125 8.296875 
Q 36.328125 3.421875 31.265625 1 
Q 26.21875 -1.421875 20.015625 -1.421875 
Q 13.03125 -1.421875 8.5625 2.84375 
Q 4.109375 7.125 4.109375 13.8125 
Q 4.109375 23.390625 11.75 28.953125 
Q 19.390625 34.515625 32.8125 34.515625 
L 45.3125 34.515625 
L 45.796875 36.921875 
Q 45.90625 37.3125 45.953125 37.765625 
Q 46 38.234375 46 39.203125 
Q 46 43.5625 42.453125 45.96875 
Q 38.921875 48.390625 32.515625 48.390625 
Q 28.125 48.390625 23.5 47.265625 
Q 18.890625 46.140625 14.015625 43.890625 
L 15.578125 52.203125 
Q 20.65625 54.109375 25.515625 55.046875 
Q 30.375 56 34.90625 56 
Q 44.578125 56 49.625 51.796875 
Q 54.6875 47.609375 54.6875 39.59375 
Q 54.6875 37.984375 54.4375 35.8125 
Q 54.203125 33.640625 53.71875 31.203125 
z
M 44 27.484375 
L 35.015625 27.484375 
Q 23.96875 27.484375 18.671875 24.53125 
Q 13.375 21.578125 13.375 15.375 
Q 13.375 11.078125 16.078125 8.640625 
Q 18.796875 6.203125 23.578125 6.203125 
Q 30.90625 6.203125 36.375 11.453125 
Q 41.84375 16.703125 43.609375 25.484375 
z
" id="DejaVuSans-Oblique-97"/>
      <path d="M 59.625 54.6875 
L 50.296875 6.78125 
Q 47.609375 -7.125 40.015625 -13.953125 
Q 32.421875 -20.796875 19.578125 -20.796875 
Q 14.84375 -20.796875 10.78125 -20.09375 
Q 6.734375 -19.390625 3.21875 -17.921875 
L 4.890625 -9.1875 
Q 8.203125 -11.328125 11.90625 -12.34375 
Q 15.625 -13.375 19.828125 -13.375 
Q 28.375 -13.375 33.859375 -8.703125 
Q 39.359375 -4.046875 41.109375 4.6875 
L 41.890625 8.796875 
Q 38.140625 4.5 33.15625 2.25 
Q 28.171875 0 22.40625 0 
Q 14.109375 0 9.34375 5.484375 
Q 4.59375 10.984375 4.59375 20.609375 
Q 4.59375 28.171875 7.46875 35.421875 
Q 10.359375 42.671875 15.578125 48.296875 
Q 19.046875 52 23.65625 54 
Q 28.265625 56 33.296875 56 
Q 38.8125 56 42.90625 53.4375 
Q 47.015625 50.875 49.03125 46.1875 
L 50.59375 54.6875 
z
M 46.09375 34.625 
Q 46.09375 41.265625 42.96875 44.875 
Q 39.84375 48.484375 34.078125 48.484375 
Q 30.515625 48.484375 27.296875 47.0625 
Q 24.078125 45.65625 21.78125 43.109375 
Q 18.0625 38.921875 15.984375 33.234375 
Q 13.921875 27.546875 13.921875 21.484375 
Q 13.921875 14.75 17.0625 11.125 
Q 20.21875 7.515625 26.125 7.515625 
Q 34.671875 7.515625 40.375 15.25 
Q 46.09375 23 46.09375 34.625 
z
" id="DejaVuSans-Oblique-103"/>
      <path d="M 89.796875 33.015625 
L 83.40625 0 
L 74.421875 0 
L 80.71875 32.71875 
Q 81.109375 34.8125 81.296875 36.328125 
Q 81.5 37.84375 81.5 38.921875 
Q 81.5 43.3125 79.046875 45.75 
Q 76.609375 48.1875 72.21875 48.1875 
Q 65.671875 48.1875 60.546875 43.28125 
Q 55.421875 38.375 53.90625 30.515625 
L 47.90625 0 
L 38.921875 0 
L 45.3125 32.71875 
Q 45.703125 34.515625 45.890625 36.046875 
Q 46.09375 37.59375 46.09375 38.8125 
Q 46.09375 43.265625 43.65625 45.71875 
Q 41.21875 48.1875 36.921875 48.1875 
Q 30.28125 48.1875 25.140625 43.28125 
Q 20.015625 38.375 18.5 30.515625 
L 12.5 0 
L 3.515625 0 
L 14.203125 54.6875 
L 23.1875 54.6875 
L 21.484375 46.1875 
Q 25.140625 50.984375 30.046875 53.484375 
Q 34.96875 56 40.578125 56 
Q 46.53125 56 50.359375 52.875 
Q 54.203125 49.75 54.984375 44.1875 
Q 59.078125 49.953125 64.46875 52.96875 
Q 69.875 56 75.875 56 
Q 82.90625 56 86.734375 51.953125 
Q 90.578125 47.90625 90.578125 40.484375 
Q 90.578125 38.875 90.375 36.9375 
Q 90.1875 35.015625 89.796875 33.015625 
z
" id="DejaVuSans-Oblique-109"/>
     </defs>
     <use transform="translate(0 0.015625)" xlink:href="#DejaVuSans-84"/>
     <use transform="translate(61.083984 0.015625)" xlink:href="#DejaVuSans-104"/>
     <use transform="translate(124.462891 0.015625)" xlink:href="#DejaVuSans-101"/>
     <use transform="translate(185.986328 0.015625)" xlink:href="#DejaVuSans-32"/>
     <use transform="translate(217.773438 0.015625)" xlink:href="#DejaVuSans-112"/>
     <use transform="translate(281.25 0.015625)" xlink:href="#DejaVuSans-97"/>
     <use transform="translate(342.529297 0.015625)" xlink:href="#DejaVuSans-99"/>
     <use transform="translate(397.509766 0.015625)" xlink:href="#DejaVuSans-107"/>
     <use transform="translate(455.419922 0.015625)" xlink:href="#DejaVuSans-97"/>
     <use transform="translate(516.699219 0.015625)" xlink:href="#DejaVuSans-103"/>
     <use transform="translate(580.175781 0.015625)" xlink:href="#DejaVuSans-101"/>
     <use transform="translate(641.699219 0.015625)" xlink:href="#DejaVuSans-32"/>
     <use transform="translate(673.486328 0.015625)" xlink:href="#DejaVuSans-Oblique-112"/>
     <use transform="translate(736.962891 0.015625)" xlink:href="#DejaVuSans-Oblique-121"/>
     <use transform="translate(796.142578 0.015625)" xlink:href="#DejaVuSans-Oblique-112"/>
     <use transform="translate(859.619141 0.015625)" xlink:href="#DejaVuSans-Oblique-111"/>
     <use transform="translate(920.800781 0.015625)" xlink:href="#DejaVuSans-Oblique-108"/>
     <use transform="translate(948.583984 0.015625)" xlink:href="#DejaVuSans-Oblique-121"/>
     <use transform="translate(1007.763672 0.015625)" xlink:href="#DejaVuSans-Oblique-97"/>
     <use transform="translate(1069.042969 0.015625)" xlink:href="#DejaVuSans-Oblique-103"/>
     <use transform="translate(1132.519531 0.015625)" xlink:href="#DejaVuSans-Oblique-97"/>
     <use transform="translate(1193.798828 0.015625)" xlink:href="#DejaVuSans-Oblique-109"/>
     <use transform="translate(1291.210938 0.015625)" xlink:href="#DejaVuSans-Oblique-109"/>
     <use transform="translate(1388.623047 0.015625)" xlink:href="#DejaVuSans-Oblique-97"/>
     <use transform="translate(1449.902344 0.015625)" xlink:href="#DejaVuSans-32"/>
     <use transform="translate(1481.689453 0.015625)" xlink:href="#DejaVuSans-105"/>
     <use transform="translate(1509.472656 0.015625)" xlink:href="#DejaVuSans-115"/>
     <use transform="translate(1561.572266 0.015625)" xlink:href="#DejaVuSans-32"/>
     <use transform="translate(1593.359375 0.015625)" xlink:href="#DejaVuSans-117"/>
     <use transform="translate(1656.738281 0.015625)" xlink:href="#DejaVuSans-115"/>
     <use transform="translate(1708.837891 0.015625)" xlink:href="#DejaVuSans-101"/>
     <use transform="translate(1770.361328 0.015625)" xlink:href="#DejaVuSans-100"/>
     <use transform="translate(1833.837891 0.015625)" xlink:href="#DejaVuSans-32"/>
     <use transform="translate(1865.625 0.015625)" xlink:href="#DejaVuSans-97"/>
     <use transform="translate(1926.904297 0.015625)" xlink:href="#DejaVuSans-115"/>
     <use transform="translate(1979.003906 0.015625)" xlink:href="#DejaVuSans-32"/>
     <use transform="translate(2010.791016 0.015625)" xlink:href="#DejaVuSans-97"/>
     <use transform="translate(2072.070312 0.015625)" xlink:href="#DejaVuSans-32"/>
     <use transform="translate(2103.857422 0.015625)" xlink:href="#DejaVuSans-114"/>
     <use transform="translate(2144.970703 0.015625)" xlink:href="#DejaVuSans-101"/>
     <use transform="translate(2206.494141 0.015625)" xlink:href="#DejaVuSans-102"/>
     <use transform="translate(2241.699219 0.015625)" xlink:href="#DejaVuSans-101"/>
     <use transform="translate(2303.222656 0.015625)" xlink:href="#DejaVuSans-114"/>
     <use transform="translate(2344.335938 0.015625)" xlink:href="#DejaVuSans-101"/>
     <use transform="translate(2405.859375 0.015625)" xlink:href="#DejaVuSans-110"/>
     <use transform="translate(2469.238281 0.015625)" xlink:href="#DejaVuSans-99"/>
     <use transform="translate(2524.21875 0.015625)" xlink:href="#DejaVuSans-101"/>
     <use transform="translate(2585.742188 0.015625)" xlink:href="#DejaVuSans-46"/>
    </g>
   </g>
   <g id="legend_1">
    <g id="patch_7">
     <path d="M 298.02 122.8845 
L 407.72 122.8845 
Q 409.72 122.8845 409.72 120.8845 
L 409.72 48.472 
Q 409.72 46.472 407.72 46.472 
L 298.02 46.472 
Q 296.02 46.472 296.02 48.472 
L 296.02 120.8845 
Q 296.02 122.8845 298.02 122.8845 
z
" style="fill:#eaeaf2;opacity:0.8;stroke:#cccccc;stroke-linejoin:miter;"/>
    </g>
    <g id="line2d_42">
     <path d="M 300.02 54.570438 
L 320.02 54.570438 
" style="fill:none;stroke:#1f77b4;stroke-linecap:round;stroke-width:1.5;"/>
    </g>
    <g id="line2d_43"/>
    <g id="text_19">
     <!-- devroye -->
     <g style="fill:#262626;" transform="translate(328.02 58.070438)scale(0.1 -0.1)">
      <defs>
       <path d="M 2.984375 54.6875 
L 12.5 54.6875 
L 29.59375 8.796875 
L 46.6875 54.6875 
L 56.203125 54.6875 
L 35.6875 0 
L 23.484375 0 
z
" id="DejaVuSans-118"/>
      </defs>
      <use xlink:href="#DejaVuSans-100"/>
      <use x="63.476562" xlink:href="#DejaVuSans-101"/>
      <use x="125" xlink:href="#DejaVuSans-118"/>
      <use x="184.179688" xlink:href="#DejaVuSans-114"/>
      <use x="223.042969" xlink:href="#DejaVuSans-111"/>
      <use x="284.224609" xlink:href="#DejaVuSans-121"/>
      <use x="343.404297" xlink:href="#DejaVuSans-101"/>
     </g>
    </g>
    <g id="line2d_44">
     <path d="M 300.02 69.248563 
L 320.02 69.248563 
" style="fill:none;stroke:#ff7f0e;stroke-linecap:round;stroke-width:1.5;"/>
    </g>
    <g id="line2d_45"/>
    <g id="text_20">
     <!-- alternate -->
     <g style="fill:#262626;" transform="translate(328.02 72.748563)scale(0.1 -0.1)">
      <use xlink:href="#DejaVuSans-97"/>
      <use x="61.279297" xlink:href="#DejaVuSans-108"/>
      <use x="89.0625" xlink:href="#DejaVuSans-116"/>
      <use x="128.271484" xlink:href="#DejaVuSans-101"/>
      <use x="189.794922" xlink:href="#DejaVuSans-114"/>
      <use x="229.158203" xlink:href="#DejaVuSans-110"/>
      <use x="292.537109" xlink:href="#DejaVuSans-97"/>
      <use x="353.816406" xlink:href="#DejaVuSans-116"/>
      <use x="393.025391" xlink:href="#DejaVuSans-101"/>
     </g>
    </g>
    <g id="line2d_46">
     <path d="M 300.02 83.926688 
L 320.02 83.926688 
" style="fill:none;stroke:#2ca02c;stroke-linecap:round;stroke-width:1.5;"/>
    </g>
    <g id="line2d_47"/>
    <g id="text_21">
     <!-- gamma -->
     <g style="fill:#262626;" transform="translate(328.02 87.426688)scale(0.1 -0.1)">
      <use xlink:href="#DejaVuSans-103"/>
      <use x="63.476562" xlink:href="#DejaVuSans-97"/>
      <use x="124.755859" xlink:href="#DejaVuSans-109"/>
      <use x="222.167969" xlink:href="#DejaVuSans-109"/>
      <use x="319.580078" xlink:href="#DejaVuSans-97"/>
     </g>
    </g>
    <g id="line2d_48">
     <path d="M 300.02 98.604813 
L 320.02 98.604813 
" style="fill:none;stroke:#d62728;stroke-linecap:round;stroke-width:1.5;"/>
    </g>
    <g id="line2d_49"/>
    <g id="text_22">
     <!-- saddle -->
     <g style="fill:#262626;" transform="translate(328.02 102.104813)scale(0.1 -0.1)">
      <use xlink:href="#DejaVuSans-115"/>
      <use x="52.099609" xlink:href="#DejaVuSans-97"/>
      <use x="113.378906" xlink:href="#DejaVuSans-100"/>
      <use x="176.855469" xlink:href="#DejaVuSans-100"/>
      <use x="240.332031" xlink:href="#DejaVuSans-108"/>
      <use x="268.115234" xlink:href="#DejaVuSans-101"/>
     </g>
    </g>
    <g id="line2d_50">
     <path d="M 300.02 113.2845 
L 320.02 113.2845 
" style="fill:none;stroke:#9467bd;stroke-linecap:round;stroke-width:1.5;"/>
    </g>
    <g id="line2d_51"/>
    <g id="text_23">
     <!-- $pypolyagamma$ -->
     <g style="fill:#262626;" transform="translate(328.02 116.7845)scale(0.1 -0.1)">
      <use transform="translate(0 0.015625)" xlink:href="#DejaVuSans-Oblique-112"/>
      <use transform="translate(63.476562 0.015625)" xlink:href="#DejaVuSans-Oblique-121"/>
      <use transform="translate(122.65625 0.015625)" xlink:href="#DejaVuSans-Oblique-112"/>
      <use transform="translate(186.132812 0.015625)" xlink:href="#DejaVuSans-Oblique-111"/>
      <use transform="translate(247.314453 0.015625)" xlink:href="#DejaVuSans-Oblique-108"/>
      <use transform="translate(275.097656 0.015625)" xlink:href="#DejaVuSans-Oblique-121"/>
      <use transform="translate(334.277344 0.015625)" xlink:href="#DejaVuSans-Oblique-97"/>
      <use transform="translate(395.556641 0.015625)" xlink:href="#DejaVuSans-Oblique-103"/>
      <use transform="translate(459.033203 0.015625)" xlink:href="#DejaVuSans-Oblique-97"/>
      <use transform="translate(520.3125 0.015625)" xlink:href="#DejaVuSans-Oblique-109"/>
      <use transform="translate(617.724609 0.015625)" xlink:href="#DejaVuSans-Oblique-109"/>
      <use transform="translate(715.136719 0.015625)" xlink:href="#DejaVuSans-Oblique-97"/>
     </g>
    </g>
   </g>
  </g>
 </g>
 <defs>
  <clipPath id="pc3456bbffc">
   <rect height="266.112" width="357.12" x="57.6" y="41.472"/>
  </clipPath>
 </defs>
</svg>
