<?xml version="1.0" encoding="utf-8" standalone="no"?>
<!DOCTYPE svg PUBLIC "-//W3C//DTD SVG 1.1//EN"
  "http://www.w3.org/Graphics/SVG/1.1/DTD/svg11.dtd">
<!-- Created with matplotlib (https://matplotlib.org/) -->
<svg height="345.6pt" version="1.1" viewBox="0 0 460.8 345.6" width="460.8pt" xmlns="http://www.w3.org/2000/svg" xmlns:xlink="http://www.w3.org/1999/xlink">
 <metadata>
  <rdf:RDF xmlns:cc="http://creativecommons.org/ns#" xmlns:dc="http://purl.org/dc/elements/1.1/" xmlns:rdf="http://www.w3.org/1999/02/22-rdf-syntax-ns#">
   <cc:Work>
    <dc:type rdf:resource="http://purl.org/dc/dcmitype/StillImage"/>
    <dc:date>2021-02-09T23:38:20.025430</dc:date>
    <dc:format>image/svg+xml</dc:format>
    <dc:creator>
     <cc:Agent>
      <dc:title>Matplotlib v3.3.3, https://matplotlib.org/</dc:title>
     </cc:Agent>
    </dc:creator>
   </cc:Work>
  </rdf:RDF>
 </metadata>
 <defs>
  <style type="text/css">*{stroke-linecap:butt;stroke-linejoin:round;}</style>
 </defs>
 <g id="figure_1">
  <g id="patch_1">
   <path d="M 0 345.6 
L 460.8 345.6 
L 460.8 0 
L 0 0 
z
" style="fill:#ffffff;"/>
  </g>
  <g id="axes_1">
   <g id="patch_2">
    <path d="M 57.6 307.584 
L 414.72 307.584 
L 414.72 41.472 
L 57.6 41.472 
z
" style="fill:#eaeaf2;"/>
   </g>
   <g id="matplotlib.axis_1">
    <g id="xtick_1">
     <g id="line2d_1">
      <path clip-path="url(#pcd7a06f1cb)" d="M 76.26672 307.584 
L 76.26672 41.472 
" style="fill:none;stroke:#ffffff;stroke-linecap:round;stroke-width:0.8;"/>
     </g>
     <g id="text_1">
      <!-- 0 -->
      <g style="fill:#262626;" transform="translate(73.08547 322.182437)scale(0.1 -0.1)">
       <defs>
        <path d="M 31.78125 66.40625 
Q 24.171875 66.40625 20.328125 58.90625 
Q 16.5 51.421875 16.5 36.375 
Q 16.5 21.390625 20.328125 13.890625 
Q 24.171875 6.390625 31.78125 6.390625 
Q 39.453125 6.390625 43.28125 13.890625 
Q 47.125 21.390625 47.125 36.375 
Q 47.125 51.421875 43.28125 58.90625 
Q 39.453125 66.40625 31.78125 66.40625 
z
M 31.78125 74.21875 
Q 44.046875 74.21875 50.515625 64.515625 
Q 56.984375 54.828125 56.984375 36.375 
Q 56.984375 17.96875 50.515625 8.265625 
Q 44.046875 -1.421875 31.78125 -1.421875 
Q 19.53125 -1.421875 13.0625 8.265625 
Q 6.59375 17.96875 6.59375 36.375 
Q 6.59375 54.828125 13.0625 64.515625 
Q 19.53125 74.21875 31.78125 74.21875 
z
" id="DejaVuSans-48"/>
       </defs>
       <use xlink:href="#DejaVuSans-48"/>
      </g>
     </g>
    </g>
    <g id="xtick_2">
     <g id="line2d_2">
      <path clip-path="url(#pcd7a06f1cb)" d="M 143.220575 307.584 
L 143.220575 41.472 
" style="fill:none;stroke:#ffffff;stroke-linecap:round;stroke-width:0.8;"/>
     </g>
     <g id="text_2">
      <!-- 2 -->
      <g style="fill:#262626;" transform="translate(140.039325 322.182437)scale(0.1 -0.1)">
       <defs>
        <path d="M 19.1875 8.296875 
L 53.609375 8.296875 
L 53.609375 0 
L 7.328125 0 
L 7.328125 8.296875 
Q 12.9375 14.109375 22.625 23.890625 
Q 32.328125 33.6875 34.8125 36.53125 
Q 39.546875 41.84375 41.421875 45.53125 
Q 43.3125 49.21875 43.3125 52.78125 
Q 43.3125 58.59375 39.234375 62.25 
Q 35.15625 65.921875 28.609375 65.921875 
Q 23.96875 65.921875 18.8125 64.3125 
Q 13.671875 62.703125 7.8125 59.421875 
L 7.8125 69.390625 
Q 13.765625 71.78125 18.9375 73 
Q 24.125 74.21875 28.421875 74.21875 
Q 39.75 74.21875 46.484375 68.546875 
Q 53.21875 62.890625 53.21875 53.421875 
Q 53.21875 48.921875 51.53125 44.890625 
Q 49.859375 40.875 45.40625 35.40625 
Q 44.1875 33.984375 37.640625 27.21875 
Q 31.109375 20.453125 19.1875 8.296875 
z
" id="DejaVuSans-50"/>
       </defs>
       <use xlink:href="#DejaVuSans-50"/>
      </g>
     </g>
    </g>
    <g id="xtick_3">
     <g id="line2d_3">
      <path clip-path="url(#pcd7a06f1cb)" d="M 210.174429 307.584 
L 210.174429 41.472 
" style="fill:none;stroke:#ffffff;stroke-linecap:round;stroke-width:0.8;"/>
     </g>
     <g id="text_3">
      <!-- 4 -->
      <g style="fill:#262626;" transform="translate(206.993179 322.182437)scale(0.1 -0.1)">
       <defs>
        <path d="M 37.796875 64.3125 
L 12.890625 25.390625 
L 37.796875 25.390625 
z
M 35.203125 72.90625 
L 47.609375 72.90625 
L 47.609375 25.390625 
L 58.015625 25.390625 
L 58.015625 17.1875 
L 47.609375 17.1875 
L 47.609375 0 
L 37.796875 0 
L 37.796875 17.1875 
L 4.890625 17.1875 
L 4.890625 26.703125 
z
" id="DejaVuSans-52"/>
       </defs>
       <use xlink:href="#DejaVuSans-52"/>
      </g>
     </g>
    </g>
    <g id="xtick_4">
     <g id="line2d_4">
      <path clip-path="url(#pcd7a06f1cb)" d="M 277.128284 307.584 
L 277.128284 41.472 
" style="fill:none;stroke:#ffffff;stroke-linecap:round;stroke-width:0.8;"/>
     </g>
     <g id="text_4">
      <!-- 6 -->
      <g style="fill:#262626;" transform="translate(273.947034 322.182437)scale(0.1 -0.1)">
       <defs>
        <path d="M 33.015625 40.375 
Q 26.375 40.375 22.484375 35.828125 
Q 18.609375 31.296875 18.609375 23.390625 
Q 18.609375 15.53125 22.484375 10.953125 
Q 26.375 6.390625 33.015625 6.390625 
Q 39.65625 6.390625 43.53125 10.953125 
Q 47.40625 15.53125 47.40625 23.390625 
Q 47.40625 31.296875 43.53125 35.828125 
Q 39.65625 40.375 33.015625 40.375 
z
M 52.59375 71.296875 
L 52.59375 62.3125 
Q 48.875 64.0625 45.09375 64.984375 
Q 41.3125 65.921875 37.59375 65.921875 
Q 27.828125 65.921875 22.671875 59.328125 
Q 17.53125 52.734375 16.796875 39.40625 
Q 19.671875 43.65625 24.015625 45.921875 
Q 28.375 48.1875 33.59375 48.1875 
Q 44.578125 48.1875 50.953125 41.515625 
Q 57.328125 34.859375 57.328125 23.390625 
Q 57.328125 12.15625 50.6875 5.359375 
Q 44.046875 -1.421875 33.015625 -1.421875 
Q 20.359375 -1.421875 13.671875 8.265625 
Q 6.984375 17.96875 6.984375 36.375 
Q 6.984375 53.65625 15.1875 63.9375 
Q 23.390625 74.21875 37.203125 74.21875 
Q 40.921875 74.21875 44.703125 73.484375 
Q 48.484375 72.75 52.59375 71.296875 
z
" id="DejaVuSans-54"/>
       </defs>
       <use xlink:href="#DejaVuSans-54"/>
      </g>
     </g>
    </g>
    <g id="xtick_5">
     <g id="line2d_5">
      <path clip-path="url(#pcd7a06f1cb)" d="M 344.082138 307.584 
L 344.082138 41.472 
" style="fill:none;stroke:#ffffff;stroke-linecap:round;stroke-width:0.8;"/>
     </g>
     <g id="text_5">
      <!-- 8 -->
      <g style="fill:#262626;" transform="translate(340.900888 322.182437)scale(0.1 -0.1)">
       <defs>
        <path d="M 31.78125 34.625 
Q 24.75 34.625 20.71875 30.859375 
Q 16.703125 27.09375 16.703125 20.515625 
Q 16.703125 13.921875 20.71875 10.15625 
Q 24.75 6.390625 31.78125 6.390625 
Q 38.8125 6.390625 42.859375 10.171875 
Q 46.921875 13.96875 46.921875 20.515625 
Q 46.921875 27.09375 42.890625 30.859375 
Q 38.875 34.625 31.78125 34.625 
z
M 21.921875 38.8125 
Q 15.578125 40.375 12.03125 44.71875 
Q 8.5 49.078125 8.5 55.328125 
Q 8.5 64.0625 14.71875 69.140625 
Q 20.953125 74.21875 31.78125 74.21875 
Q 42.671875 74.21875 48.875 69.140625 
Q 55.078125 64.0625 55.078125 55.328125 
Q 55.078125 49.078125 51.53125 44.71875 
Q 48 40.375 41.703125 38.8125 
Q 48.828125 37.15625 52.796875 32.3125 
Q 56.78125 27.484375 56.78125 20.515625 
Q 56.78125 9.90625 50.3125 4.234375 
Q 43.84375 -1.421875 31.78125 -1.421875 
Q 19.734375 -1.421875 13.25 4.234375 
Q 6.78125 9.90625 6.78125 20.515625 
Q 6.78125 27.484375 10.78125 32.3125 
Q 14.796875 37.15625 21.921875 38.8125 
z
M 18.3125 54.390625 
Q 18.3125 48.734375 21.84375 45.5625 
Q 25.390625 42.390625 31.78125 42.390625 
Q 38.140625 42.390625 41.71875 45.5625 
Q 45.3125 48.734375 45.3125 54.390625 
Q 45.3125 60.0625 41.71875 63.234375 
Q 38.140625 66.40625 31.78125 66.40625 
Q 25.390625 66.40625 21.84375 63.234375 
Q 18.3125 60.0625 18.3125 54.390625 
z
" id="DejaVuSans-56"/>
       </defs>
       <use xlink:href="#DejaVuSans-56"/>
      </g>
     </g>
    </g>
    <g id="xtick_6">
     <g id="line2d_6">
      <path clip-path="url(#pcd7a06f1cb)" d="M 411.035992 307.584 
L 411.035992 41.472 
" style="fill:none;stroke:#ffffff;stroke-linecap:round;stroke-width:0.8;"/>
     </g>
     <g id="text_6">
      <!-- 10 -->
      <g style="fill:#262626;" transform="translate(404.673492 322.182437)scale(0.1 -0.1)">
       <defs>
        <path d="M 12.40625 8.296875 
L 28.515625 8.296875 
L 28.515625 63.921875 
L 10.984375 60.40625 
L 10.984375 69.390625 
L 28.421875 72.90625 
L 38.28125 72.90625 
L 38.28125 8.296875 
L 54.390625 8.296875 
L 54.390625 0 
L 12.40625 0 
z
" id="DejaVuSans-49"/>
       </defs>
       <use xlink:href="#DejaVuSans-49"/>
       <use x="63.623047" xlink:href="#DejaVuSans-48"/>
      </g>
     </g>
    </g>
   </g>
   <g id="matplotlib.axis_2">
    <g id="ytick_1">
     <g id="line2d_7">
      <path clip-path="url(#pcd7a06f1cb)" d="M 57.6 307.584 
L 414.72 307.584 
" style="fill:none;stroke:#ffffff;stroke-linecap:round;stroke-width:0.8;"/>
     </g>
     <g id="text_7">
      <!-- 0.0 -->
      <g style="fill:#262626;" transform="translate(34.696875 311.383219)scale(0.1 -0.1)">
       <defs>
        <path d="M 10.6875 12.40625 
L 21 12.40625 
L 21 0 
L 10.6875 0 
z
" id="DejaVuSans-46"/>
       </defs>
       <use xlink:href="#DejaVuSans-48"/>
       <use x="63.623047" xlink:href="#DejaVuSans-46"/>
       <use x="95.410156" xlink:href="#DejaVuSans-48"/>
      </g>
     </g>
    </g>
    <g id="ytick_2">
     <g id="line2d_8">
      <path clip-path="url(#pcd7a06f1cb)" d="M 57.6 271.09865 
L 414.72 271.09865 
" style="fill:none;stroke:#ffffff;stroke-linecap:round;stroke-width:0.8;"/>
     </g>
     <g id="text_8">
      <!-- 0.1 -->
      <g style="fill:#262626;" transform="translate(34.696875 274.897869)scale(0.1 -0.1)">
       <use xlink:href="#DejaVuSans-48"/>
       <use x="63.623047" xlink:href="#DejaVuSans-46"/>
       <use x="95.410156" xlink:href="#DejaVuSans-49"/>
      </g>
     </g>
    </g>
    <g id="ytick_3">
     <g id="line2d_9">
      <path clip-path="url(#pcd7a06f1cb)" d="M 57.6 234.6133 
L 414.72 234.6133 
" style="fill:none;stroke:#ffffff;stroke-linecap:round;stroke-width:0.8;"/>
     </g>
     <g id="text_9">
      <!-- 0.2 -->
      <g style="fill:#262626;" transform="translate(34.696875 238.412519)scale(0.1 -0.1)">
       <use xlink:href="#DejaVuSans-48"/>
       <use x="63.623047" xlink:href="#DejaVuSans-46"/>
       <use x="95.410156" xlink:href="#DejaVuSans-50"/>
      </g>
     </g>
    </g>
    <g id="ytick_4">
     <g id="line2d_10">
      <path clip-path="url(#pcd7a06f1cb)" d="M 57.6 198.12795 
L 414.72 198.12795 
" style="fill:none;stroke:#ffffff;stroke-linecap:round;stroke-width:0.8;"/>
     </g>
     <g id="text_10">
      <!-- 0.3 -->
      <g style="fill:#262626;" transform="translate(34.696875 201.927169)scale(0.1 -0.1)">
       <defs>
        <path d="M 40.578125 39.3125 
Q 47.65625 37.796875 51.625 33 
Q 55.609375 28.21875 55.609375 21.1875 
Q 55.609375 10.40625 48.1875 4.484375 
Q 40.765625 -1.421875 27.09375 -1.421875 
Q 22.515625 -1.421875 17.65625 -0.515625 
Q 12.796875 0.390625 7.625 2.203125 
L 7.625 11.71875 
Q 11.71875 9.328125 16.59375 8.109375 
Q 21.484375 6.890625 26.8125 6.890625 
Q 36.078125 6.890625 40.9375 10.546875 
Q 45.796875 14.203125 45.796875 21.1875 
Q 45.796875 27.640625 41.28125 31.265625 
Q 36.765625 34.90625 28.71875 34.90625 
L 20.21875 34.90625 
L 20.21875 43.015625 
L 29.109375 43.015625 
Q 36.375 43.015625 40.234375 45.921875 
Q 44.09375 48.828125 44.09375 54.296875 
Q 44.09375 59.90625 40.109375 62.90625 
Q 36.140625 65.921875 28.71875 65.921875 
Q 24.65625 65.921875 20.015625 65.03125 
Q 15.375 64.15625 9.8125 62.3125 
L 9.8125 71.09375 
Q 15.4375 72.65625 20.34375 73.4375 
Q 25.25 74.21875 29.59375 74.21875 
Q 40.828125 74.21875 47.359375 69.109375 
Q 53.90625 64.015625 53.90625 55.328125 
Q 53.90625 49.265625 50.4375 45.09375 
Q 46.96875 40.921875 40.578125 39.3125 
z
" id="DejaVuSans-51"/>
       </defs>
       <use xlink:href="#DejaVuSans-48"/>
       <use x="63.623047" xlink:href="#DejaVuSans-46"/>
       <use x="95.410156" xlink:href="#DejaVuSans-51"/>
      </g>
     </g>
    </g>
    <g id="ytick_5">
     <g id="line2d_11">
      <path clip-path="url(#pcd7a06f1cb)" d="M 57.6 161.6426 
L 414.72 161.6426 
" style="fill:none;stroke:#ffffff;stroke-linecap:round;stroke-width:0.8;"/>
     </g>
     <g id="text_11">
      <!-- 0.4 -->
      <g style="fill:#262626;" transform="translate(34.696875 165.441819)scale(0.1 -0.1)">
       <use xlink:href="#DejaVuSans-48"/>
       <use x="63.623047" xlink:href="#DejaVuSans-46"/>
       <use x="95.410156" xlink:href="#DejaVuSans-52"/>
      </g>
     </g>
    </g>
    <g id="ytick_6">
     <g id="line2d_12">
      <path clip-path="url(#pcd7a06f1cb)" d="M 57.6 125.15725 
L 414.72 125.15725 
" style="fill:none;stroke:#ffffff;stroke-linecap:round;stroke-width:0.8;"/>
     </g>
     <g id="text_12">
      <!-- 0.5 -->
      <g style="fill:#262626;" transform="translate(34.696875 128.956469)scale(0.1 -0.1)">
       <defs>
        <path d="M 10.796875 72.90625 
L 49.515625 72.90625 
L 49.515625 64.59375 
L 19.828125 64.59375 
L 19.828125 46.734375 
Q 21.96875 47.46875 24.109375 47.828125 
Q 26.265625 48.1875 28.421875 48.1875 
Q 40.625 48.1875 47.75 41.5 
Q 54.890625 34.8125 54.890625 23.390625 
Q 54.890625 11.625 47.5625 5.09375 
Q 40.234375 -1.421875 26.90625 -1.421875 
Q 22.3125 -1.421875 17.546875 -0.640625 
Q 12.796875 0.140625 7.71875 1.703125 
L 7.71875 11.625 
Q 12.109375 9.234375 16.796875 8.0625 
Q 21.484375 6.890625 26.703125 6.890625 
Q 35.15625 6.890625 40.078125 11.328125 
Q 45.015625 15.765625 45.015625 23.390625 
Q 45.015625 31 40.078125 35.4375 
Q 35.15625 39.890625 26.703125 39.890625 
Q 22.75 39.890625 18.8125 39.015625 
Q 14.890625 38.140625 10.796875 36.28125 
z
" id="DejaVuSans-53"/>
       </defs>
       <use xlink:href="#DejaVuSans-48"/>
       <use x="63.623047" xlink:href="#DejaVuSans-46"/>
       <use x="95.410156" xlink:href="#DejaVuSans-53"/>
      </g>
     </g>
    </g>
    <g id="ytick_7">
     <g id="line2d_13">
      <path clip-path="url(#pcd7a06f1cb)" d="M 57.6 88.6719 
L 414.72 88.6719 
" style="fill:none;stroke:#ffffff;stroke-linecap:round;stroke-width:0.8;"/>
     </g>
     <g id="text_13">
      <!-- 0.6 -->
      <g style="fill:#262626;" transform="translate(34.696875 92.471119)scale(0.1 -0.1)">
       <use xlink:href="#DejaVuSans-48"/>
       <use x="63.623047" xlink:href="#DejaVuSans-46"/>
       <use x="95.410156" xlink:href="#DejaVuSans-54"/>
      </g>
     </g>
    </g>
    <g id="ytick_8">
     <g id="line2d_14">
      <path clip-path="url(#pcd7a06f1cb)" d="M 57.6 52.18655 
L 414.72 52.18655 
" style="fill:none;stroke:#ffffff;stroke-linecap:round;stroke-width:0.8;"/>
     </g>
     <g id="text_14">
      <!-- 0.7 -->
      <g style="fill:#262626;" transform="translate(34.696875 55.985769)scale(0.1 -0.1)">
       <defs>
        <path d="M 8.203125 72.90625 
L 55.078125 72.90625 
L 55.078125 68.703125 
L 28.609375 0 
L 18.3125 0 
L 43.21875 64.59375 
L 8.203125 64.59375 
z
" id="DejaVuSans-55"/>
       </defs>
       <use xlink:href="#DejaVuSans-48"/>
       <use x="63.623047" xlink:href="#DejaVuSans-46"/>
       <use x="95.410156" xlink:href="#DejaVuSans-55"/>
      </g>
     </g>
    </g>
    <g id="text_15">
     <!-- Density -->
     <g style="fill:#262626;" transform="translate(28.617187 193.536594)rotate(-90)scale(0.1 -0.1)">
      <defs>
       <path d="M 19.671875 64.796875 
L 19.671875 8.109375 
L 31.59375 8.109375 
Q 46.6875 8.109375 53.6875 14.9375 
Q 60.6875 21.78125 60.6875 36.53125 
Q 60.6875 51.171875 53.6875 57.984375 
Q 46.6875 64.796875 31.59375 64.796875 
z
M 9.8125 72.90625 
L 30.078125 72.90625 
Q 51.265625 72.90625 61.171875 64.09375 
Q 71.09375 55.28125 71.09375 36.53125 
Q 71.09375 17.671875 61.125 8.828125 
Q 51.171875 0 30.078125 0 
L 9.8125 0 
z
" id="DejaVuSans-68"/>
       <path d="M 56.203125 29.59375 
L 56.203125 25.203125 
L 14.890625 25.203125 
Q 15.484375 15.921875 20.484375 11.0625 
Q 25.484375 6.203125 34.421875 6.203125 
Q 39.59375 6.203125 44.453125 7.46875 
Q 49.3125 8.734375 54.109375 11.28125 
L 54.109375 2.78125 
Q 49.265625 0.734375 44.1875 -0.34375 
Q 39.109375 -1.421875 33.890625 -1.421875 
Q 20.796875 -1.421875 13.15625 6.1875 
Q 5.515625 13.8125 5.515625 26.8125 
Q 5.515625 40.234375 12.765625 48.109375 
Q 20.015625 56 32.328125 56 
Q 43.359375 56 49.78125 48.890625 
Q 56.203125 41.796875 56.203125 29.59375 
z
M 47.21875 32.234375 
Q 47.125 39.59375 43.09375 43.984375 
Q 39.0625 48.390625 32.421875 48.390625 
Q 24.90625 48.390625 20.390625 44.140625 
Q 15.875 39.890625 15.1875 32.171875 
z
" id="DejaVuSans-101"/>
       <path d="M 54.890625 33.015625 
L 54.890625 0 
L 45.90625 0 
L 45.90625 32.71875 
Q 45.90625 40.484375 42.875 44.328125 
Q 39.84375 48.1875 33.796875 48.1875 
Q 26.515625 48.1875 22.3125 43.546875 
Q 18.109375 38.921875 18.109375 30.90625 
L 18.109375 0 
L 9.078125 0 
L 9.078125 54.6875 
L 18.109375 54.6875 
L 18.109375 46.1875 
Q 21.34375 51.125 25.703125 53.5625 
Q 30.078125 56 35.796875 56 
Q 45.21875 56 50.046875 50.171875 
Q 54.890625 44.34375 54.890625 33.015625 
z
" id="DejaVuSans-110"/>
       <path d="M 44.28125 53.078125 
L 44.28125 44.578125 
Q 40.484375 46.53125 36.375 47.5 
Q 32.28125 48.484375 27.875 48.484375 
Q 21.1875 48.484375 17.84375 46.4375 
Q 14.5 44.390625 14.5 40.28125 
Q 14.5 37.15625 16.890625 35.375 
Q 19.28125 33.59375 26.515625 31.984375 
L 29.59375 31.296875 
Q 39.15625 29.25 43.1875 25.515625 
Q 47.21875 21.78125 47.21875 15.09375 
Q 47.21875 7.46875 41.1875 3.015625 
Q 35.15625 -1.421875 24.609375 -1.421875 
Q 20.21875 -1.421875 15.453125 -0.5625 
Q 10.6875 0.296875 5.421875 2 
L 5.421875 11.28125 
Q 10.40625 8.6875 15.234375 7.390625 
Q 20.0625 6.109375 24.8125 6.109375 
Q 31.15625 6.109375 34.5625 8.28125 
Q 37.984375 10.453125 37.984375 14.40625 
Q 37.984375 18.0625 35.515625 20.015625 
Q 33.0625 21.96875 24.703125 23.78125 
L 21.578125 24.515625 
Q 13.234375 26.265625 9.515625 29.90625 
Q 5.8125 33.546875 5.8125 39.890625 
Q 5.8125 47.609375 11.28125 51.796875 
Q 16.75 56 26.8125 56 
Q 31.78125 56 36.171875 55.265625 
Q 40.578125 54.546875 44.28125 53.078125 
z
" id="DejaVuSans-115"/>
       <path d="M 9.421875 54.6875 
L 18.40625 54.6875 
L 18.40625 0 
L 9.421875 0 
z
M 9.421875 75.984375 
L 18.40625 75.984375 
L 18.40625 64.59375 
L 9.421875 64.59375 
z
" id="DejaVuSans-105"/>
       <path d="M 18.3125 70.21875 
L 18.3125 54.6875 
L 36.8125 54.6875 
L 36.8125 47.703125 
L 18.3125 47.703125 
L 18.3125 18.015625 
Q 18.3125 11.328125 20.140625 9.421875 
Q 21.96875 7.515625 27.59375 7.515625 
L 36.8125 7.515625 
L 36.8125 0 
L 27.59375 0 
Q 17.1875 0 13.234375 3.875 
Q 9.28125 7.765625 9.28125 18.015625 
L 9.28125 47.703125 
L 2.6875 47.703125 
L 2.6875 54.6875 
L 9.28125 54.6875 
L 9.28125 70.21875 
z
" id="DejaVuSans-116"/>
       <path d="M 32.171875 -5.078125 
Q 28.375 -14.84375 24.75 -17.8125 
Q 21.140625 -20.796875 15.09375 -20.796875 
L 7.90625 -20.796875 
L 7.90625 -13.28125 
L 13.1875 -13.28125 
Q 16.890625 -13.28125 18.9375 -11.515625 
Q 21 -9.765625 23.484375 -3.21875 
L 25.09375 0.875 
L 2.984375 54.6875 
L 12.5 54.6875 
L 29.59375 11.921875 
L 46.6875 54.6875 
L 56.203125 54.6875 
z
" id="DejaVuSans-121"/>
      </defs>
      <use xlink:href="#DejaVuSans-68"/>
      <use x="77.001953" xlink:href="#DejaVuSans-101"/>
      <use x="138.525391" xlink:href="#DejaVuSans-110"/>
      <use x="201.904297" xlink:href="#DejaVuSans-115"/>
      <use x="254.003906" xlink:href="#DejaVuSans-105"/>
      <use x="281.787109" xlink:href="#DejaVuSans-116"/>
      <use x="320.996094" xlink:href="#DejaVuSans-121"/>
     </g>
    </g>
   </g>
   <g id="line2d_15">
    <path clip-path="url(#pcd7a06f1cb)" d="M 73.926424 307.527897 
L 74.304051 307.364708 
L 74.681679 306.838497 
L 75.059306 305.37259 
L 75.436933 301.83809 
L 75.81456 294.446386 
L 76.192188 281.00668 
L 76.569815 259.707044 
L 77.325069 194.434415 
L 78.080324 121.008142 
L 78.457951 92.393595 
L 78.835578 72.743094 
L 79.213205 62.091782 
L 79.590832 58.981142 
L 79.96846 61.416424 
L 80.346087 67.582482 
L 81.101341 85.971018 
L 82.989477 135.465288 
L 84.122359 159.424519 
L 86.010495 194.303283 
L 87.143377 212.690373 
L 89.031513 238.468823 
L 89.786767 247.324662 
L 90.542021 254.287608 
L 91.674903 262.397254 
L 92.430157 266.564786 
L 95.828802 281.814384 
L 98.094566 289.359111 
L 98.84982 291.310232 
L 100.737956 295.011438 
L 101.870838 296.690155 
L 103.003719 298.489603 
L 103.758974 299.695405 
L 104.514228 300.551489 
L 107.535246 302.811565 
L 109.423382 303.706324 
L 111.311518 305.179242 
L 112.444399 305.610152 
L 116.975926 306.51777 
L 118.108808 306.797515 
L 119.241689 307.130766 
L 120.374571 307.21754 
L 122.640334 307.08668 
L 124.52847 306.938011 
L 125.661352 307.120624 
L 127.171861 307.400281 
L 129.059997 307.51865 
L 130.570505 307.417631 
L 132.458642 307.270554 
L 138.500677 307.552586 
L 141.144067 307.57352 
L 145.675594 307.525215 
L 149.074239 307.583424 
L 149.074239 307.583424 
" style="fill:none;stroke:#9467bd;stroke-linecap:round;stroke-width:1.5;"/>
   </g>
   <g id="line2d_16">
    <path clip-path="url(#pcd7a06f1cb)" d="M 74.254852 307.557479 
L 74.555989 307.482455 
L 74.857127 307.239842 
L 75.158264 306.549485 
L 75.459402 304.819358 
L 75.760539 300.996209 
L 76.061677 293.53671 
L 76.362814 280.663646 
L 76.965089 234.222001 
L 78.470777 81.034221 
L 78.771914 65.76677 
L 79.073052 57.24493 
L 79.374189 54.144 
L 79.675327 54.94987 
L 79.976464 58.313265 
L 80.578739 69.005245 
L 81.482152 90.040629 
L 83.590114 145.777396 
L 85.999214 191.491586 
L 87.203764 212.006395 
L 87.806039 219.475294 
L 91.720826 259.188924 
L 92.323101 262.847976 
L 93.828789 270.837732 
L 95.033339 276.852023 
L 96.539026 284.247816 
L 97.442439 288.332517 
L 98.646989 293.078965 
L 100.152676 300.377468 
L 100.754951 302.009707 
L 101.357226 302.817081 
L 102.260639 303.428329 
L 103.465189 304.017058 
L 104.669739 305.127279 
L 105.272014 305.322714 
L 106.476564 305.490307 
L 107.379976 305.954656 
L 108.283389 306.427889 
L 109.186801 306.566159 
L 110.391351 306.507283 
L 112.198176 306.134536 
L 112.800451 306.255295 
L 114.607276 306.898664 
L 117.016376 307.322062 
L 118.220926 307.310917 
L 119.726614 307.11815 
L 122.737989 307.274575 
L 123.942539 307.264615 
L 126.050501 307.54946 
L 134.181214 307.583302 
L 134.181214 307.583302 
" style="fill:none;stroke:#d62728;stroke-linecap:round;stroke-width:1.5;"/>
   </g>
   <g id="line2d_17">
    <path clip-path="url(#pcd7a06f1cb)" d="M 73.927587 307.533034 
L 74.292022 307.390516 
L 74.656457 306.939975 
L 75.020891 305.699131 
L 75.385326 302.717183 
L 75.749761 296.452949 
L 76.114195 284.92653 
L 76.47863 266.309809 
L 77.207499 206.761615 
L 78.300803 104.492998 
L 78.665238 82.12084 
L 79.029673 68.177886 
L 79.394107 61.567271 
L 79.758542 60.512002 
L 80.122977 63.411631 
L 80.487411 69.196464 
L 81.216281 86.86716 
L 83.402889 148.004211 
L 84.496193 172.010845 
L 85.589497 190.853927 
L 87.047235 211.683238 
L 88.140539 224.588433 
L 91.784886 261.337567 
L 92.513755 265.639307 
L 95.064798 277.873529 
L 96.158102 282.430099 
L 97.615841 287.190923 
L 99.073579 291.160928 
L 100.895752 296.004043 
L 101.624622 297.154273 
L 105.268968 301.782779 
L 105.997838 302.183409 
L 107.091142 302.439113 
L 107.820011 302.927506 
L 110.006619 304.759893 
L 111.099923 305.309663 
L 112.193227 305.50747 
L 114.0154 305.738766 
L 116.930878 306.646466 
L 119.117486 306.727975 
L 120.575224 306.760589 
L 122.032963 307.099969 
L 123.126267 307.269157 
L 132.237134 307.397572 
L 137.339219 307.564708 
L 141.712435 307.577457 
L 146.450085 307.583421 
L 146.450085 307.583421 
" style="fill:none;stroke:#2ca02c;stroke-linecap:round;stroke-width:1.5;"/>
   </g>
   <g id="line2d_18">
    <path clip-path="url(#pcd7a06f1cb)" d="M 73.880989 307.527324 
L 74.299306 307.333331 
L 74.717623 306.645552 
L 75.13594 304.597672 
L 75.554257 299.465608 
L 75.972574 288.614288 
L 76.390892 269.202022 
L 76.809209 239.73262 
L 78.482477 88.693072 
L 78.900795 68.010762 
L 79.319112 58.077044 
L 79.737429 57.019991 
L 80.155746 62.420679 
L 80.99238 84.267642 
L 82.247332 122.761178 
L 83.083966 142.659653 
L 86.430504 207.534724 
L 87.267138 217.371865 
L 90.195358 247.261784 
L 92.286944 262.513186 
L 93.960213 273.376167 
L 94.796847 277.441639 
L 96.051799 282.068016 
L 97.725067 287.13609 
L 98.980019 290.896919 
L 99.816653 293.505209 
L 100.653287 295.211231 
L 103.999825 299.519548 
L 106.091411 301.708913 
L 109.019631 304.099452 
L 109.856265 304.422228 
L 111.529534 304.702565 
L 113.62112 305.503992 
L 115.294388 305.70877 
L 116.54934 306.224069 
L 117.804291 306.680574 
L 119.895877 307.075437 
L 121.150829 307.023961 
L 122.40578 307.038894 
L 124.915683 307.316813 
L 129.517172 307.32875 
L 132.86371 307.473845 
L 134.536978 307.39739 
L 143.739956 307.584 
L 157.126105 307.583431 
L 157.126105 307.583431 
" style="fill:none;stroke:#ff7f0e;stroke-linecap:round;stroke-width:1.5;"/>
   </g>
   <g id="line2d_19">
    <path clip-path="url(#pcd7a06f1cb)" d="M 73.832727 307.53398 
L 74.263455 307.353753 
L 74.694182 306.692457 
L 75.12491 304.667901 
L 75.555637 299.486072 
L 75.986364 288.372561 
L 76.417092 268.347071 
L 76.847819 237.938192 
L 78.570729 86.485953 
L 79.001456 67.282634 
L 79.432184 59.244215 
L 79.862911 60.340417 
L 80.293639 67.812128 
L 82.878003 132.30759 
L 85.462368 187.747218 
L 86.75455 209.721746 
L 87.616005 221.716211 
L 88.908187 236.230924 
L 90.200369 248.715942 
L 91.492552 258.656052 
L 92.354006 263.868366 
L 93.215461 267.255723 
L 94.076916 270.712269 
L 94.938371 275.88741 
L 95.799826 281.21339 
L 96.661281 285.407757 
L 97.522735 288.46536 
L 98.38419 290.570567 
L 100.968555 296.077525 
L 103.122192 298.397832 
L 104.414374 300.400081 
L 105.275829 301.269442 
L 106.568011 302.428364 
L 107.429466 303.211199 
L 108.290921 303.537134 
L 110.013831 303.779888 
L 110.875286 304.236144 
L 112.598195 305.363636 
L 113.45965 305.665251 
L 116.905469 306.346923 
L 118.628379 306.667374 
L 121.212744 306.897262 
L 122.935653 307.110516 
L 125.950745 307.353514 
L 127.242928 307.421173 
L 129.827292 307.289568 
L 131.119474 307.339295 
L 133.273111 307.248611 
L 136.288203 307.514061 
L 159.547484 307.583436 
L 159.547484 307.583436 
" style="fill:none;stroke:#1f77b4;stroke-linecap:round;stroke-width:1.5;"/>
   </g>
   <g id="line2d_20">
    <path clip-path="url(#pcd7a06f1cb)" d="M 77.432715 307.582239 
L 80.047909 307.494105 
L 81.355506 307.210416 
L 82.009305 306.904622 
L 82.663103 306.427701 
L 83.316902 305.728215 
L 83.9707 304.755978 
L 84.624498 303.467808 
L 85.278297 301.833786 
L 86.585894 297.495369 
L 87.893491 291.816166 
L 89.201088 285.043574 
L 91.816282 269.897686 
L 95.085274 250.615318 
L 96.392871 244.15026 
L 97.700468 238.785134 
L 99.008065 234.399216 
L 100.315661 230.978391 
L 100.96946 229.654939 
L 101.623258 228.628648 
L 102.277057 227.947194 
L 102.930855 227.660269 
L 103.584654 227.801191 
L 104.238452 228.366038 
L 104.892251 229.297388 
L 106.199848 231.794985 
L 108.161243 235.573143 
L 110.776437 240.50738 
L 112.084034 243.380859 
L 113.391631 246.832287 
L 115.353026 253.051351 
L 117.314421 259.081749 
L 119.275817 264.522404 
L 120.583414 267.538719 
L 122.544809 271.653046 
L 123.852406 274.953635 
L 125.813801 280.243988 
L 127.121398 283.142946 
L 129.082794 286.517847 
L 133.005584 292.897472 
L 134.96698 295.548281 
L 136.274577 297.058446 
L 137.582173 298.28237 
L 139.543569 299.69138 
L 142.158763 301.347047 
L 143.46636 301.879333 
L 145.427755 302.474427 
L 151.311941 304.946694 
L 153.273336 305.607717 
L 155.234732 306.006353 
L 159.811321 306.667331 
L 163.734112 307.048302 
L 168.964499 307.344551 
L 173.541089 307.355829 
L 178.117678 307.570482 
L 186.617058 307.544276 
L 207.538608 307.58371 
L 207.538608 307.58371 
" style="fill:none;stroke:#9467bd;stroke-linecap:round;stroke-width:1.5;"/>
   </g>
   <g id="line2d_21">
    <path clip-path="url(#pcd7a06f1cb)" d="M 77.344405 307.582061 
L 80.245395 307.455805 
L 81.212392 307.238569 
L 82.179389 306.790763 
L 83.146385 305.980883 
L 84.113382 304.649334 
L 85.080379 302.624413 
L 86.047375 299.776945 
L 87.014372 296.082167 
L 87.981369 291.615227 
L 89.431864 283.685929 
L 91.365857 271.411487 
L 93.783349 255.902816 
L 95.233844 247.911175 
L 96.684339 241.188237 
L 97.651336 237.508186 
L 98.618333 234.689708 
L 99.585329 232.808502 
L 100.552326 231.621051 
L 102.002821 230.291774 
L 102.969818 229.618203 
L 103.453316 229.463176 
L 103.936815 229.488545 
L 104.420313 229.714211 
L 104.903811 230.135414 
L 105.870808 231.45966 
L 107.321303 234.155611 
L 110.222293 239.72991 
L 111.672788 242.763239 
L 115.540775 252.126467 
L 116.99127 256.173754 
L 123.276749 275.560481 
L 124.727244 279.258368 
L 126.177739 282.369829 
L 127.144736 284.141931 
L 128.111732 285.573158 
L 130.529224 288.737672 
L 133.430214 293.191317 
L 137.298201 297.719846 
L 138.748696 299.213783 
L 140.199191 300.254847 
L 144.550677 302.720468 
L 146.001172 303.092814 
L 148.902162 303.625462 
L 150.352657 304.22788 
L 153.253647 305.535405 
L 155.671139 306.307875 
L 157.121634 306.569212 
L 159.539126 306.737074 
L 166.791601 307.141567 
L 170.659588 307.540286 
L 173.560578 307.583135 
L 173.560578 307.583135 
" style="fill:none;stroke:#d62728;stroke-linecap:round;stroke-width:1.5;"/>
   </g>
   <g id="line2d_22">
    <path clip-path="url(#pcd7a06f1cb)" d="M 75.951264 307.583491 
L 79.553648 307.507927 
L 80.994601 307.265857 
L 81.715077 306.988578 
L 82.435554 306.528967 
L 83.156031 305.812713 
L 83.876507 304.765057 
L 84.596984 303.325925 
L 85.31746 301.462758 
L 86.037937 299.175001 
L 87.47889 293.446237 
L 88.919844 286.466569 
L 90.360797 278.475967 
L 92.522227 264.917761 
L 94.683657 251.721166 
L 96.12461 244.705918 
L 97.565563 239.083806 
L 99.006516 234.757618 
L 99.726993 233.163509 
L 100.447469 231.928395 
L 101.167946 230.976696 
L 101.888423 230.235779 
L 102.608899 229.683352 
L 103.329376 229.358695 
L 104.049853 229.328384 
L 104.770329 229.627044 
L 105.490806 230.214909 
L 106.931759 231.838716 
L 108.372712 233.722036 
L 109.093189 234.956288 
L 109.813665 236.570608 
L 110.534142 238.623091 
L 111.975095 243.672406 
L 113.416049 248.743166 
L 114.857002 252.873829 
L 118.459385 261.611627 
L 121.341291 269.467347 
L 125.664151 280.467096 
L 127.825581 285.599707 
L 129.266534 288.366731 
L 130.707487 290.595262 
L 132.868917 293.499801 
L 134.30987 295.169078 
L 135.750824 296.388327 
L 138.63273 298.346057 
L 142.235113 301.258742 
L 142.95559 301.612193 
L 144.396543 301.99019 
L 145.837496 302.298833 
L 147.27845 302.828952 
L 153.042262 305.196284 
L 155.203692 305.88159 
L 158.085599 306.51294 
L 160.247029 306.772006 
L 169.613225 307.311684 
L 176.097514 307.434598 
L 189.066093 307.510133 
L 219.326111 307.583713 
L 219.326111 307.583713 
" style="fill:none;stroke:#2ca02c;stroke-linecap:round;stroke-width:1.5;"/>
   </g>
   <g id="line2d_23">
    <path clip-path="url(#pcd7a06f1cb)" d="M 76.358102 307.5833 
L 79.790121 307.487568 
L 81.162929 307.21315 
L 81.849333 306.929812 
L 82.535737 306.495943 
L 83.222141 305.863129 
L 83.908545 304.976805 
L 84.594949 303.778865 
L 85.281353 302.213374 
L 85.967757 300.235326 
L 86.654161 297.820684 
L 88.026969 291.729469 
L 89.399777 284.276365 
L 92.145393 267.296454 
L 94.204605 254.858828 
L 95.577413 247.799277 
L 96.950221 242.000387 
L 98.323029 237.084619 
L 99.695836 232.762888 
L 100.38224 230.932759 
L 101.068644 229.448217 
L 101.755048 228.377861 
L 102.441452 227.730494 
L 103.127856 227.458493 
L 103.81426 227.490177 
L 104.500664 227.769915 
L 105.187068 228.285523 
L 105.873472 229.070935 
L 106.559876 230.180103 
L 107.24628 231.640957 
L 108.619088 235.396148 
L 110.6783 241.321604 
L 115.483128 254.018738 
L 118.915147 263.595251 
L 125.092783 279.881822 
L 126.465591 282.743137 
L 127.838399 285.095395 
L 129.897611 288.116441 
L 133.329631 292.856375 
L 135.388843 295.2453 
L 138.134458 298.336873 
L 139.507266 299.753459 
L 140.19367 300.251998 
L 141.566478 300.88108 
L 142.939286 301.450525 
L 146.371306 303.147332 
L 153.235346 305.347984 
L 155.294557 305.870057 
L 160.785789 306.69169 
L 163.531405 306.781309 
L 166.277021 306.947344 
L 169.709041 307.139617 
L 173.827465 307.260975 
L 178.632292 307.496008 
L 182.750716 307.485938 
L 187.555544 307.501573 
L 197.851603 307.559135 
L 212.95249 307.583715 
L 212.95249 307.583715 
" style="fill:none;stroke:#ff7f0e;stroke-linecap:round;stroke-width:1.5;"/>
   </g>
   <g id="line2d_24">
    <path clip-path="url(#pcd7a06f1cb)" d="M 76.654306 307.583277 
L 79.531329 307.530239 
L 80.96984 307.323414 
L 81.689096 307.073084 
L 82.408351 306.650455 
L 83.127607 305.988686 
L 83.846863 305.024553 
L 84.566119 303.708387 
L 85.285374 302.005761 
L 86.00463 299.891736 
L 86.723886 297.348661 
L 88.162397 291.009829 
L 89.600909 283.387232 
L 91.758676 270.67035 
L 95.354954 248.584983 
L 96.793466 241.90045 
L 98.231977 236.91754 
L 99.670489 233.103599 
L 101.109 230.274763 
L 101.828256 229.214452 
L 102.547511 228.366895 
L 103.266767 227.73206 
L 103.986023 227.364037 
L 104.705279 227.37399 
L 105.424534 227.880864 
L 106.14379 228.940972 
L 106.863046 230.511581 
L 108.301557 234.647291 
L 110.459324 241.039003 
L 111.897836 244.464145 
L 114.774859 250.653853 
L 116.21337 254.541604 
L 120.528904 267.354109 
L 121.967416 270.921586 
L 126.28295 280.857914 
L 127.721461 284.221143 
L 129.159973 287.093322 
L 131.31774 290.61837 
L 133.475507 293.812844 
L 134.914019 295.585473 
L 136.35253 297.008656 
L 138.510297 298.772472 
L 141.38732 300.903234 
L 142.825831 301.711127 
L 144.983599 302.844152 
L 147.141366 304.100221 
L 148.579877 304.671682 
L 151.4569 305.441545 
L 153.614667 305.747976 
L 155.772434 306.089245 
L 158.649457 306.525598 
L 162.245736 306.846832 
L 166.56127 307.112134 
L 169.438293 307.314473 
L 175.911594 307.483829 
L 180.227129 307.565947 
L 199.647033 307.557627 
L 219.786193 307.583709 
L 219.786193 307.583709 
" style="fill:none;stroke:#1f77b4;stroke-linecap:round;stroke-width:1.5;"/>
   </g>
   <g id="line2d_25">
    <path clip-path="url(#pcd7a06f1cb)" d="M 82.861229 307.583726 
L 90.326791 307.472764 
L 92.56646 307.263243 
L 94.059572 306.96477 
L 95.552685 306.460707 
L 97.045797 305.686436 
L 98.538909 304.564107 
L 100.032022 303.019292 
L 101.525134 301.033756 
L 103.018247 298.648262 
L 105.257915 294.474813 
L 107.497584 289.724687 
L 109.737253 284.325942 
L 111.976921 278.128347 
L 115.709702 267.450182 
L 117.202815 263.843499 
L 118.695927 260.81636 
L 120.18904 258.326098 
L 122.428708 255.2107 
L 124.668377 252.536932 
L 126.161489 251.267096 
L 126.908046 250.865342 
L 128.401158 250.457498 
L 129.894271 250.351767 
L 130.640827 250.400847 
L 131.387383 250.572935 
L 132.133939 250.9221 
L 132.880495 251.482475 
L 133.627052 252.254184 
L 135.120164 254.291538 
L 138.852945 260.106721 
L 140.346058 261.910612 
L 142.585726 264.228207 
L 144.078839 266.27054 
L 145.571951 269.011177 
L 150.051288 278.225325 
L 151.544401 280.277808 
L 153.784069 282.665917 
L 156.770294 285.875259 
L 159.756519 289.421066 
L 164.235856 294.937522 
L 165.728969 296.315969 
L 167.222081 297.414592 
L 169.46175 298.798199 
L 171.701419 299.977433 
L 180.660093 304.12118 
L 182.899762 304.730312 
L 188.872212 305.978652 
L 191.858436 306.306329 
L 201.563667 307.096732 
L 207.536117 307.322489 
L 218.73446 307.467199 
L 231.425916 307.583733 
L 231.425916 307.583733 
" style="fill:none;stroke:#9467bd;stroke-linecap:round;stroke-width:1.5;"/>
   </g>
   <g id="line2d_26">
    <path clip-path="url(#pcd7a06f1cb)" d="M 84.435731 307.583356 
L 89.898233 307.488077 
L 92.239306 307.263986 
L 93.80002 306.961229 
L 95.360735 306.453321 
L 96.92145 305.676369 
L 98.482165 304.582488 
L 100.04288 303.088311 
L 101.603595 301.055561 
L 103.16431 298.392968 
L 104.725025 295.191956 
L 107.066097 289.786175 
L 109.40717 283.797641 
L 116.430387 265.301955 
L 117.991102 262.170745 
L 119.551816 259.855852 
L 121.112531 258.070728 
L 125.014319 254.139047 
L 126.575034 252.796327 
L 128.135748 251.877889 
L 129.696463 251.410332 
L 130.476821 251.335063 
L 131.257178 251.377906 
L 132.037536 251.563802 
L 132.817893 251.923464 
L 133.598251 252.481953 
L 134.378608 253.245598 
L 135.939323 255.274684 
L 142.96254 265.819202 
L 146.864327 272.439061 
L 151.546472 279.587497 
L 154.667902 284.017785 
L 157.008974 286.981703 
L 158.569689 288.570963 
L 160.910762 290.433072 
L 162.471477 291.702015 
L 164.032191 293.207837 
L 167.933979 297.279493 
L 169.494694 298.609208 
L 171.835766 300.242993 
L 174.957196 302.086227 
L 176.517911 302.804236 
L 178.858983 303.539952 
L 183.541128 304.645489 
L 189.783987 305.871257 
L 192.905417 306.32514 
L 196.026847 306.525685 
L 206.171494 307.063689 
L 213.194711 307.483368 
L 217.876856 307.524137 
L 230.362575 307.547246 
L 239.726865 307.583784 
L 239.726865 307.583784 
" style="fill:none;stroke:#d62728;stroke-linecap:round;stroke-width:1.5;"/>
   </g>
   <g id="line2d_27">
    <path clip-path="url(#pcd7a06f1cb)" d="M 79.84199 307.583783 
L 90.632972 307.500104 
L 93.123199 307.231954 
L 94.78335 306.832259 
L 96.443501 306.164667 
L 98.103652 305.12714 
L 99.763803 303.602342 
L 101.423954 301.477087 
L 103.084105 298.732274 
L 104.744256 295.433682 
L 106.404407 291.609624 
L 108.894634 285.051049 
L 114.705162 268.887775 
L 116.365313 265.009814 
L 118.025464 261.571263 
L 119.685615 258.571946 
L 121.345766 256.06029 
L 123.005917 253.886128 
L 124.666068 252.032057 
L 125.496144 251.338596 
L 126.32622 250.875191 
L 127.156295 250.668153 
L 127.986371 250.70941 
L 128.816446 250.963698 
L 129.646522 251.384519 
L 131.306673 252.578714 
L 132.966824 254.131266 
L 136.287126 257.488208 
L 138.777352 259.650916 
L 139.607428 260.559387 
L 140.437503 261.661513 
L 142.097654 264.413753 
L 146.248032 271.997812 
L 147.908183 274.455059 
L 149.568334 276.453117 
L 152.058561 279.360437 
L 153.718712 281.782445 
L 157.039014 287.041871 
L 158.699165 289.201922 
L 161.189391 291.938198 
L 163.679618 294.413681 
L 165.339769 295.84328 
L 167.829995 297.575448 
L 171.150298 299.616705 
L 177.790902 303.012522 
L 179.451053 303.569156 
L 182.771355 304.431112 
L 186.091657 305.522746 
L 187.751808 305.823453 
L 193.562337 306.309712 
L 203.523243 307.118627 
L 206.843545 307.333161 
L 215.974376 307.4345 
L 243.366868 307.582669 
L 245.027019 307.583779 
L 245.027019 307.583779 
" style="fill:none;stroke:#2ca02c;stroke-linecap:round;stroke-width:1.5;"/>
   </g>
   <g id="line2d_28">
    <path clip-path="url(#pcd7a06f1cb)" d="M 84.507807 307.583729 
L 90.426997 307.504451 
L 92.963793 307.218137 
L 94.65499 306.77823 
L 96.346187 306.036975 
L 98.037384 304.909402 
L 99.728581 303.309214 
L 101.419778 301.105474 
L 103.110975 298.22797 
L 105.647771 293.092177 
L 108.184567 287.429422 
L 109.875764 283.171117 
L 114.949355 269.858561 
L 117.486151 263.901143 
L 119.177348 260.414561 
L 120.868545 257.379127 
L 123.405341 253.345808 
L 125.096538 251.210201 
L 125.942136 250.453453 
L 126.787735 249.969116 
L 127.633333 249.785978 
L 128.478932 249.899262 
L 129.32453 250.257622 
L 132.706925 252.161913 
L 134.398122 252.867708 
L 135.24372 253.408682 
L 136.089319 254.202334 
L 136.934917 255.279868 
L 138.626114 258.104742 
L 145.390903 270.77314 
L 147.0821 274.148716 
L 148.773297 276.905818 
L 150.464494 278.984978 
L 153.846888 282.766395 
L 156.383684 286.124234 
L 160.611677 291.908273 
L 162.302874 293.873039 
L 163.994071 295.39426 
L 165.685268 296.452321 
L 169.913261 298.704298 
L 174.141254 301.323258 
L 175.832451 302.089266 
L 178.369247 302.894163 
L 182.597239 304.175355 
L 185.979633 305.100772 
L 189.362028 305.865853 
L 191.898823 306.210859 
L 202.891605 307.068076 
L 211.34759 307.340448 
L 218.112379 307.511041 
L 239.252342 307.574921 
L 252.781919 307.583695 
L 252.781919 307.583695 
" style="fill:none;stroke:#ff7f0e;stroke-linecap:round;stroke-width:1.5;"/>
   </g>
   <g id="line2d_29">
    <path clip-path="url(#pcd7a06f1cb)" d="M 85.411406 307.583513 
L 90.498729 307.510753 
L 93.042391 307.228816 
L 94.738166 306.764035 
L 96.43394 305.968783 
L 98.129715 304.850617 
L 99.825489 303.454164 
L 101.521264 301.699549 
L 103.217038 299.431139 
L 104.912813 296.543769 
L 106.608587 292.939608 
L 108.304362 288.52701 
L 110.848024 280.688487 
L 112.543798 275.480646 
L 114.239573 270.909572 
L 118.479009 260.745381 
L 120.174784 257.146741 
L 121.022671 255.667516 
L 121.870558 254.453599 
L 122.718445 253.496076 
L 123.566333 252.751372 
L 125.262107 251.698631 
L 126.957882 251.099687 
L 127.805769 250.977764 
L 128.653656 250.971606 
L 129.501543 251.078348 
L 130.349431 251.309969 
L 131.197318 251.693178 
L 132.045205 252.251998 
L 133.74098 253.863587 
L 137.980416 258.543621 
L 140.524078 261.137821 
L 142.219852 263.417399 
L 143.915627 266.273814 
L 146.459289 270.748981 
L 152.3945 280.511801 
L 154.938161 284.891303 
L 156.633936 287.335775 
L 158.32971 289.323898 
L 160.873372 291.768318 
L 164.264921 294.663312 
L 168.504358 297.941781 
L 170.200132 299.064783 
L 172.743794 300.384779 
L 176.135343 302.127862 
L 178.679005 303.405855 
L 180.374779 304.037342 
L 182.918441 304.679204 
L 187.157877 305.370526 
L 193.940976 306.288 
L 198.180412 306.735471 
L 201.571961 307.02526 
L 212.594495 307.385525 
L 230.400128 307.57471 
L 249.053648 307.571542 
L 254.140971 307.583782 
L 254.140971 307.583782 
" style="fill:none;stroke:#1f77b4;stroke-linecap:round;stroke-width:1.5;"/>
   </g>
   <g id="line2d_30">
    <path clip-path="url(#pcd7a06f1cb)" d="M 95.189531 307.583491 
L 102.05241 307.497532 
L 106.954465 307.208539 
L 109.895699 306.851952 
L 111.856521 306.430827 
L 113.817344 305.798158 
L 115.778166 304.857236 
L 117.738988 303.521308 
L 119.699811 301.788974 
L 121.660633 299.690674 
L 123.621455 297.21376 
L 125.582278 294.358639 
L 129.503923 288.004428 
L 136.366801 276.467417 
L 139.308034 271.702269 
L 141.268857 269.011936 
L 143.229679 266.754317 
L 145.190501 264.893942 
L 147.151324 263.465261 
L 149.112146 262.492963 
L 151.072968 261.877927 
L 153.033791 261.513314 
L 154.994613 261.43182 
L 156.955436 261.685 
L 158.916258 262.309259 
L 160.87708 263.369982 
L 162.837903 264.866317 
L 164.798725 266.763724 
L 167.739959 270.143994 
L 170.681192 273.527086 
L 173.622426 276.512891 
L 177.54407 280.317955 
L 190.289416 293.656596 
L 192.250238 295.222109 
L 194.21106 296.401428 
L 205.975995 302.054364 
L 208.917228 302.934726 
L 215.780106 304.638823 
L 218.72134 305.422399 
L 220.682162 305.740732 
L 232.447096 306.852706 
L 238.329563 307.182131 
L 244.21203 307.302691 
L 255.976965 307.473576 
L 266.761488 307.549913 
L 282.448066 307.568762 
L 290.291356 307.583819 
L 290.291356 307.583819 
" style="fill:none;stroke:#9467bd;stroke-linecap:round;stroke-width:1.5;"/>
   </g>
   <g id="line2d_31">
    <path clip-path="url(#pcd7a06f1cb)" d="M 90.13204 307.58378 
L 103.132339 307.473024 
L 106.846709 307.287577 
L 109.632488 306.92993 
L 111.489673 306.527531 
L 113.346859 305.94475 
L 115.204044 305.135384 
L 117.06123 304.02197 
L 118.918415 302.503718 
L 120.775601 300.52158 
L 122.632786 298.100783 
L 125.418564 293.945982 
L 128.204343 289.829096 
L 134.704492 280.668244 
L 137.49027 275.972255 
L 141.204641 269.603282 
L 143.061826 266.854456 
L 144.919012 264.532261 
L 146.776197 262.61699 
L 148.633383 261.16801 
L 149.561976 260.672534 
L 150.490568 260.359851 
L 151.419161 260.2398 
L 152.347754 260.305589 
L 153.276347 260.533199 
L 155.133532 261.314832 
L 161.633681 264.581703 
L 163.490867 265.914346 
L 165.348052 267.531101 
L 170.919609 272.680997 
L 172.776794 274.388232 
L 174.63398 276.47624 
L 177.419758 280.239829 
L 180.205536 283.906353 
L 182.991314 287.12788 
L 184.8485 288.885685 
L 186.705685 290.286251 
L 189.491463 292.244535 
L 194.134427 295.827768 
L 196.920205 297.544367 
L 202.491762 300.665968 
L 206.206133 302.453585 
L 208.063318 303.148847 
L 209.920504 303.63103 
L 218.277838 305.270078 
L 221.063617 305.843873 
L 223.849395 306.203322 
L 233.135322 306.942234 
L 237.778286 307.116654 
L 260.064512 307.541888 
L 274.921996 307.583744 
L 274.921996 307.583744 
" style="fill:none;stroke:#d62728;stroke-linecap:round;stroke-width:1.5;"/>
   </g>
   <g id="line2d_32">
    <path clip-path="url(#pcd7a06f1cb)" d="M 96.444338 307.583735 
L 104.676458 307.480474 
L 107.420497 307.262686 
L 110.164537 306.79095 
L 111.993897 306.251954 
L 113.823257 305.467442 
L 115.652617 304.422401 
L 117.481977 303.149192 
L 119.311336 301.679414 
L 121.140696 299.990802 
L 122.970056 297.999243 
L 124.799416 295.632224 
L 126.628776 292.889426 
L 129.372816 288.197654 
L 132.116855 283.378085 
L 135.775575 277.581002 
L 139.434295 271.496838 
L 141.263654 268.538686 
L 143.093014 266.029827 
L 144.922374 264.15783 
L 146.751734 262.887778 
L 148.581094 262.00621 
L 151.325134 260.984469 
L 153.154493 260.501826 
L 154.069173 260.411829 
L 154.983853 260.480362 
L 155.898533 260.730117 
L 156.813213 261.151171 
L 158.642573 262.325601 
L 164.130652 266.319837 
L 165.960012 268.233586 
L 168.704052 271.81044 
L 170.533412 274.107467 
L 172.362772 276.066731 
L 176.021491 279.71306 
L 183.338931 287.503824 
L 185.168291 289.157109 
L 186.99765 290.57622 
L 200.717849 300.001092 
L 202.547209 300.915197 
L 204.376569 301.594352 
L 208.035289 302.593834 
L 211.694008 303.71266 
L 214.438048 304.53181 
L 218.096768 305.323826 
L 221.755487 305.928813 
L 228.158247 306.618192 
L 231.816967 306.922714 
L 242.793126 307.303042 
L 264.745444 307.54626 
L 278.465642 307.583817 
L 278.465642 307.583817 
" style="fill:none;stroke:#2ca02c;stroke-linecap:round;stroke-width:1.5;"/>
   </g>
   <g id="line2d_33">
    <path clip-path="url(#pcd7a06f1cb)" d="M 95.53274 307.583519 
L 103.05227 307.497628 
L 106.812035 307.25261 
L 109.631859 306.804621 
L 111.511741 306.307182 
L 113.391624 305.605571 
L 115.271506 304.662088 
L 117.151389 303.474035 
L 119.031271 302.052376 
L 120.911154 300.356693 
L 122.791037 298.336675 
L 125.61086 294.812576 
L 127.490743 292.179747 
L 129.370625 289.187364 
L 132.190449 284.056923 
L 135.010273 278.940751 
L 136.890155 275.885679 
L 139.709979 271.831234 
L 143.469744 266.907828 
L 145.349627 264.732595 
L 147.229509 262.887964 
L 149.109392 261.420153 
L 150.989274 260.404646 
L 151.929216 260.098638 
L 152.869157 259.937469 
L 153.809098 259.922725 
L 154.749039 260.054603 
L 155.688981 260.333713 
L 156.628922 260.757035 
L 158.508804 261.951944 
L 161.328628 263.903225 
L 164.148452 265.614998 
L 166.028334 267.124243 
L 167.908217 269.090648 
L 169.7881 271.393758 
L 176.367688 279.914423 
L 179.187512 283.090826 
L 182.947277 286.957538 
L 191.406748 294.906438 
L 193.286631 296.250539 
L 196.106455 297.792746 
L 199.86622 299.663061 
L 202.686044 300.637311 
L 205.505867 301.658561 
L 209.265632 303.154243 
L 212.085456 303.933672 
L 214.90528 304.52001 
L 227.124516 306.494424 
L 230.884281 306.701063 
L 250.623048 307.382094 
L 265.662108 307.568612 
L 282.581051 307.583817 
L 282.581051 307.583817 
" style="fill:none;stroke:#ff7f0e;stroke-linecap:round;stroke-width:1.5;"/>
   </g>
   <g id="line2d_34">
    <path clip-path="url(#pcd7a06f1cb)" d="M 95.632962 307.583689 
L 104.030703 307.486615 
L 107.763033 307.206046 
L 110.56228 306.708267 
L 112.428444 306.160602 
L 114.294609 305.377048 
L 116.160774 304.334091 
L 118.026938 303.032749 
L 119.893103 301.4425 
L 121.759268 299.519915 
L 123.625433 297.249097 
L 125.491597 294.637137 
L 128.290844 290.195415 
L 131.090091 285.311106 
L 134.822421 278.661712 
L 136.688586 275.743926 
L 141.353997 269.202724 
L 143.220162 266.80672 
L 145.086327 264.841086 
L 146.952492 263.330514 
L 148.818656 262.187389 
L 150.684821 261.404192 
L 151.617903 261.178169 
L 152.550986 261.08326 
L 153.484068 261.127533 
L 154.41715 261.306375 
L 156.283315 261.971505 
L 159.082562 263.12384 
L 162.814892 264.433852 
L 163.747974 264.99622 
L 164.681056 265.740125 
L 166.547221 267.729175 
L 173.078798 275.741343 
L 176.811127 279.998281 
L 180.543456 284.511896 
L 182.409621 286.431536 
L 185.208868 288.866822 
L 190.807362 293.290474 
L 199.205104 299.274017 
L 201.071268 300.374058 
L 202.937433 301.256326 
L 205.73668 302.305009 
L 209.469009 303.395332 
L 218.799833 305.802172 
L 221.59908 306.033911 
L 228.130657 306.308613 
L 237.46148 307.019157 
L 249.591551 307.403796 
L 281.316351 307.583818 
L 281.316351 307.583818 
" style="fill:none;stroke:#1f77b4;stroke-linecap:round;stroke-width:1.5;"/>
   </g>
   <g id="line2d_35">
    <path clip-path="url(#pcd7a06f1cb)" d="M 114.899212 307.583828 
L 129.149869 307.49481 
L 133.425066 307.338082 
L 137.700262 306.914983 
L 141.975459 306.165583 
L 144.825591 305.417387 
L 147.675722 304.38134 
L 150.525853 303.078724 
L 153.375984 301.434369 
L 156.226116 299.350029 
L 160.501313 295.733067 
L 164.776509 291.759347 
L 170.476772 286.11915 
L 174.751969 281.830634 
L 179.027166 277.946343 
L 181.877297 275.546373 
L 184.727428 273.533936 
L 187.577559 272.024282 
L 190.427691 270.978813 
L 191.852756 270.627991 
L 193.277822 270.405298 
L 194.702888 270.317113 
L 197.553019 270.506245 
L 200.40315 271.086485 
L 203.253281 272.036959 
L 206.103413 273.319724 
L 208.953544 274.818399 
L 211.803675 276.55142 
L 214.653806 278.584176 
L 224.629266 286.130934 
L 230.329528 289.432206 
L 237.454857 294.320621 
L 240.304988 295.806118 
L 250.280447 300.583445 
L 253.130578 301.644556 
L 255.98071 302.406988 
L 270.231366 305.448672 
L 273.081497 305.853541 
L 278.78176 306.341603 
L 294.457482 307.281135 
L 300.157744 307.304314 
L 305.858007 307.420113 
L 312.983335 307.53731 
L 344.334779 307.572264 
L 398.487273 307.583853 
L 398.487273 307.583853 
" style="fill:none;stroke:#9467bd;stroke-linecap:round;stroke-width:1.5;"/>
   </g>
   <g id="line2d_36">
    <path clip-path="url(#pcd7a06f1cb)" d="M 116.241586 307.583792 
L 128.199261 307.496115 
L 132.547507 307.299411 
L 136.895752 306.851008 
L 142.331059 306.077127 
L 144.505182 305.611777 
L 146.679305 304.974108 
L 148.853427 304.150345 
L 151.02755 303.145606 
L 153.201673 301.944436 
L 155.375796 300.498243 
L 157.549918 298.78891 
L 160.811103 295.903272 
L 165.159348 291.778822 
L 167.333471 289.477448 
L 174.9429 280.915224 
L 177.117023 279.095593 
L 182.55233 275.278568 
L 184.726453 273.861181 
L 186.900576 272.781477 
L 189.074698 272.047409 
L 195.597066 270.310432 
L 197.771189 270.121247 
L 199.945312 270.363873 
L 202.119435 270.979627 
L 204.293557 271.839362 
L 206.46768 272.867809 
L 208.641803 274.06979 
L 211.902987 276.159808 
L 218.425355 280.69107 
L 221.686539 283.195186 
L 229.295969 289.309363 
L 231.470092 290.705411 
L 234.731276 292.445398 
L 237.99246 294.195629 
L 244.514828 298.035641 
L 248.863074 300.079553 
L 252.124258 301.39292 
L 255.385442 302.365197 
L 265.168994 304.802661 
L 269.51724 305.49607 
L 277.126669 306.376402 
L 281.474915 306.66197 
L 298.867897 307.363639 
L 330.392677 307.583172 
L 332.566799 307.583842 
L 332.566799 307.583842 
" style="fill:none;stroke:#d62728;stroke-linecap:round;stroke-width:1.5;"/>
   </g>
   <g id="line2d_37">
    <path clip-path="url(#pcd7a06f1cb)" d="M 116.940282 307.583774 
L 128.688794 307.483958 
L 134.563049 307.275126 
L 138.087603 306.966977 
L 141.612156 306.441387 
L 143.961858 305.898169 
L 146.31156 305.108277 
L 148.661263 304.078584 
L 152.185816 302.263515 
L 154.535518 300.807848 
L 156.885221 299.001995 
L 159.234923 296.84862 
L 165.109178 291.136431 
L 169.808583 286.714432 
L 174.507987 281.838986 
L 178.032541 278.256378 
L 180.382243 276.096793 
L 182.731945 274.215336 
L 185.081648 272.669794 
L 186.256499 272.060242 
L 187.43135 271.591389 
L 188.606201 271.278882 
L 189.781052 271.11569 
L 192.130754 271.081006 
L 194.480457 271.087717 
L 201.529563 270.812854 
L 202.704414 271.004078 
L 203.879266 271.313451 
L 205.054117 271.749679 
L 206.228968 272.320194 
L 208.57867 273.854229 
L 210.928372 275.768895 
L 215.627777 279.725878 
L 219.15233 282.374806 
L 223.851735 285.634247 
L 235.600246 293.263774 
L 237.949948 294.460251 
L 241.474502 296.140036 
L 249.698459 300.420687 
L 253.223013 301.794385 
L 257.922417 303.331501 
L 261.446971 304.206929 
L 266.146375 305.021856 
L 270.84578 305.669565 
L 275.545184 306.092991 
L 289.643398 306.963374 
L 310.790718 307.508977 
L 324.888931 307.568755 
L 350.735656 307.583851 
L 350.735656 307.583851 
" style="fill:none;stroke:#2ca02c;stroke-linecap:round;stroke-width:1.5;"/>
   </g>
   <g id="line2d_38">
    <path clip-path="url(#pcd7a06f1cb)" d="M 115.91142 307.583847 
L 129.149668 307.490375 
L 135.167053 307.193948 
L 138.777484 306.831585 
L 141.184438 306.444981 
L 143.591392 305.869255 
L 145.998346 305.065128 
L 149.608777 303.544102 
L 153.219208 301.798738 
L 155.626162 300.396452 
L 158.033116 298.716319 
L 160.44007 296.768344 
L 162.847024 294.567636 
L 166.457455 290.88609 
L 177.288748 279.491585 
L 180.899179 276.103725 
L 184.50961 272.982914 
L 186.916565 271.229863 
L 188.120042 270.545752 
L 189.323519 270.029397 
L 190.526996 269.702448 
L 191.730473 269.574229 
L 192.93395 269.632357 
L 195.340904 270.120023 
L 197.747858 270.660675 
L 202.561766 271.376154 
L 203.765243 271.722579 
L 204.96872 272.21007 
L 207.375674 273.585302 
L 209.782628 275.340702 
L 215.800013 280.078529 
L 218.206967 281.534044 
L 225.427829 285.214128 
L 227.834783 286.920754 
L 230.241737 288.925687 
L 233.852168 292.099363 
L 236.259122 293.903778 
L 238.666076 295.300826 
L 243.479984 297.612201 
L 245.886938 298.642045 
L 260.328663 303.973045 
L 262.735617 304.441972 
L 274.770387 305.996275 
L 285.60168 306.896849 
L 290.415588 307.085548 
L 321.705991 307.549222 
L 355.403347 307.583851 
L 355.403347 307.583851 
" style="fill:none;stroke:#ff7f0e;stroke-linecap:round;stroke-width:1.5;"/>
   </g>
   <g id="line2d_39">
    <path clip-path="url(#pcd7a06f1cb)" d="M 112.716337 307.58385 
L 129.250083 307.499597 
L 133.97401 307.275944 
L 138.697937 306.818069 
L 142.240883 306.320263 
L 144.602847 305.817737 
L 146.96481 305.029043 
L 149.326774 303.938831 
L 152.86972 301.930136 
L 155.231683 300.389626 
L 157.593647 298.653741 
L 159.955611 296.693011 
L 163.498556 293.383245 
L 169.403465 287.426889 
L 175.308375 281.194454 
L 178.85132 277.616226 
L 181.213284 275.568043 
L 184.756229 272.87637 
L 187.118193 271.288757 
L 189.480157 270.0761 
L 191.84212 269.270217 
L 194.204084 268.762584 
L 195.385066 268.657162 
L 196.566048 268.699836 
L 197.74703 268.911775 
L 198.928012 269.28278 
L 201.289975 270.336432 
L 208.375866 273.926419 
L 210.73783 275.318422 
L 213.099794 276.923831 
L 216.642739 279.641271 
L 219.004703 281.69601 
L 223.72863 286.036097 
L 226.090594 287.853365 
L 229.63354 290.138664 
L 236.719431 294.483106 
L 246.167285 299.438931 
L 248.529249 300.369231 
L 252.072195 301.437207 
L 259.158086 303.265248 
L 270.967904 305.74758 
L 275.691832 306.236649 
L 285.139686 306.849895 
L 293.406559 307.182685 
L 315.845214 307.527119 
L 326.474051 307.552447 
L 340.645833 307.576129 
L 347.731724 307.58385 
L 347.731724 307.58385 
" style="fill:none;stroke:#1f77b4;stroke-linecap:round;stroke-width:1.5;"/>
   </g>
   <g id="patch_3">
    <path d="M 57.6 307.584 
L 57.6 41.472 
" style="fill:none;stroke:#ffffff;stroke-linecap:square;stroke-linejoin:miter;stroke-width:0.8;"/>
   </g>
   <g id="patch_4">
    <path d="M 414.72 307.584 
L 414.72 41.472 
" style="fill:none;stroke:#ffffff;stroke-linecap:square;stroke-linejoin:miter;stroke-width:0.8;"/>
   </g>
   <g id="patch_5">
    <path d="M 57.6 307.584 
L 414.72 307.584 
" style="fill:none;stroke:#ffffff;stroke-linecap:square;stroke-linejoin:miter;stroke-width:0.8;"/>
   </g>
   <g id="patch_6">
    <path d="M 57.6 41.472 
L 414.72 41.472 
" style="fill:none;stroke:#ffffff;stroke-linecap:square;stroke-linejoin:miter;stroke-width:0.8;"/>
   </g>
   <g id="text_16">
    <!-- Density plots of 20000 PG(h, 0) samples using each method for h $\in$ {1,4,7,10,15}.  -->
    <g style="fill:#262626;" transform="translate(45.9 25.374)scale(0.09 -0.09)">
     <defs>
      <path id="DejaVuSans-32"/>
      <path d="M 18.109375 8.203125 
L 18.109375 -20.796875 
L 9.078125 -20.796875 
L 9.078125 54.6875 
L 18.109375 54.6875 
L 18.109375 46.390625 
Q 20.953125 51.265625 25.265625 53.625 
Q 29.59375 56 35.59375 56 
Q 45.5625 56 51.78125 48.09375 
Q 58.015625 40.1875 58.015625 27.296875 
Q 58.015625 14.40625 51.78125 6.484375 
Q 45.5625 -1.421875 35.59375 -1.421875 
Q 29.59375 -1.421875 25.265625 0.953125 
Q 20.953125 3.328125 18.109375 8.203125 
z
M 48.6875 27.296875 
Q 48.6875 37.203125 44.609375 42.84375 
Q 40.53125 48.484375 33.40625 48.484375 
Q 26.265625 48.484375 22.1875 42.84375 
Q 18.109375 37.203125 18.109375 27.296875 
Q 18.109375 17.390625 22.1875 11.75 
Q 26.265625 6.109375 33.40625 6.109375 
Q 40.53125 6.109375 44.609375 11.75 
Q 48.6875 17.390625 48.6875 27.296875 
z
" id="DejaVuSans-112"/>
      <path d="M 9.421875 75.984375 
L 18.40625 75.984375 
L 18.40625 0 
L 9.421875 0 
z
" id="DejaVuSans-108"/>
      <path d="M 30.609375 48.390625 
Q 23.390625 48.390625 19.1875 42.75 
Q 14.984375 37.109375 14.984375 27.296875 
Q 14.984375 17.484375 19.15625 11.84375 
Q 23.34375 6.203125 30.609375 6.203125 
Q 37.796875 6.203125 41.984375 11.859375 
Q 46.1875 17.53125 46.1875 27.296875 
Q 46.1875 37.015625 41.984375 42.703125 
Q 37.796875 48.390625 30.609375 48.390625 
z
M 30.609375 56 
Q 42.328125 56 49.015625 48.375 
Q 55.71875 40.765625 55.71875 27.296875 
Q 55.71875 13.875 49.015625 6.21875 
Q 42.328125 -1.421875 30.609375 -1.421875 
Q 18.84375 -1.421875 12.171875 6.21875 
Q 5.515625 13.875 5.515625 27.296875 
Q 5.515625 40.765625 12.171875 48.375 
Q 18.84375 56 30.609375 56 
z
" id="DejaVuSans-111"/>
      <path d="M 37.109375 75.984375 
L 37.109375 68.5 
L 28.515625 68.5 
Q 23.6875 68.5 21.796875 66.546875 
Q 19.921875 64.59375 19.921875 59.515625 
L 19.921875 54.6875 
L 34.71875 54.6875 
L 34.71875 47.703125 
L 19.921875 47.703125 
L 19.921875 0 
L 10.890625 0 
L 10.890625 47.703125 
L 2.296875 47.703125 
L 2.296875 54.6875 
L 10.890625 54.6875 
L 10.890625 58.5 
Q 10.890625 67.625 15.140625 71.796875 
Q 19.390625 75.984375 28.609375 75.984375 
z
" id="DejaVuSans-102"/>
      <path d="M 19.671875 64.796875 
L 19.671875 37.40625 
L 32.078125 37.40625 
Q 38.96875 37.40625 42.71875 40.96875 
Q 46.484375 44.53125 46.484375 51.125 
Q 46.484375 57.671875 42.71875 61.234375 
Q 38.96875 64.796875 32.078125 64.796875 
z
M 9.8125 72.90625 
L 32.078125 72.90625 
Q 44.34375 72.90625 50.609375 67.359375 
Q 56.890625 61.8125 56.890625 51.125 
Q 56.890625 40.328125 50.609375 34.8125 
Q 44.34375 29.296875 32.078125 29.296875 
L 19.671875 29.296875 
L 19.671875 0 
L 9.8125 0 
z
" id="DejaVuSans-80"/>
      <path d="M 59.515625 10.40625 
L 59.515625 29.984375 
L 43.40625 29.984375 
L 43.40625 38.09375 
L 69.28125 38.09375 
L 69.28125 6.78125 
Q 63.578125 2.734375 56.6875 0.65625 
Q 49.8125 -1.421875 42 -1.421875 
Q 24.90625 -1.421875 15.25 8.5625 
Q 5.609375 18.5625 5.609375 36.375 
Q 5.609375 54.25 15.25 64.234375 
Q 24.90625 74.21875 42 74.21875 
Q 49.125 74.21875 55.546875 72.453125 
Q 61.96875 70.703125 67.390625 67.28125 
L 67.390625 56.78125 
Q 61.921875 61.421875 55.765625 63.765625 
Q 49.609375 66.109375 42.828125 66.109375 
Q 29.4375 66.109375 22.71875 58.640625 
Q 16.015625 51.171875 16.015625 36.375 
Q 16.015625 21.625 22.71875 14.15625 
Q 29.4375 6.6875 42.828125 6.6875 
Q 48.046875 6.6875 52.140625 7.59375 
Q 56.25 8.5 59.515625 10.40625 
z
" id="DejaVuSans-71"/>
      <path d="M 31 75.875 
Q 24.46875 64.65625 21.28125 53.65625 
Q 18.109375 42.671875 18.109375 31.390625 
Q 18.109375 20.125 21.3125 9.0625 
Q 24.515625 -2 31 -13.1875 
L 23.1875 -13.1875 
Q 15.875 -1.703125 12.234375 9.375 
Q 8.59375 20.453125 8.59375 31.390625 
Q 8.59375 42.28125 12.203125 53.3125 
Q 15.828125 64.359375 23.1875 75.875 
z
" id="DejaVuSans-40"/>
      <path d="M 54.890625 33.015625 
L 54.890625 0 
L 45.90625 0 
L 45.90625 32.71875 
Q 45.90625 40.484375 42.875 44.328125 
Q 39.84375 48.1875 33.796875 48.1875 
Q 26.515625 48.1875 22.3125 43.546875 
Q 18.109375 38.921875 18.109375 30.90625 
L 18.109375 0 
L 9.078125 0 
L 9.078125 75.984375 
L 18.109375 75.984375 
L 18.109375 46.1875 
Q 21.34375 51.125 25.703125 53.5625 
Q 30.078125 56 35.796875 56 
Q 45.21875 56 50.046875 50.171875 
Q 54.890625 44.34375 54.890625 33.015625 
z
" id="DejaVuSans-104"/>
      <path d="M 11.71875 12.40625 
L 22.015625 12.40625 
L 22.015625 4 
L 14.015625 -11.625 
L 7.71875 -11.625 
L 11.71875 4 
z
" id="DejaVuSans-44"/>
      <path d="M 8.015625 75.875 
L 15.828125 75.875 
Q 23.140625 64.359375 26.78125 53.3125 
Q 30.421875 42.28125 30.421875 31.390625 
Q 30.421875 20.453125 26.78125 9.375 
Q 23.140625 -1.703125 15.828125 -13.1875 
L 8.015625 -13.1875 
Q 14.5 -2 17.703125 9.0625 
Q 20.90625 20.125 20.90625 31.390625 
Q 20.90625 42.671875 17.703125 53.65625 
Q 14.5 64.65625 8.015625 75.875 
z
" id="DejaVuSans-41"/>
      <path d="M 34.28125 27.484375 
Q 23.390625 27.484375 19.1875 25 
Q 14.984375 22.515625 14.984375 16.5 
Q 14.984375 11.71875 18.140625 8.90625 
Q 21.296875 6.109375 26.703125 6.109375 
Q 34.1875 6.109375 38.703125 11.40625 
Q 43.21875 16.703125 43.21875 25.484375 
L 43.21875 27.484375 
z
M 52.203125 31.203125 
L 52.203125 0 
L 43.21875 0 
L 43.21875 8.296875 
Q 40.140625 3.328125 35.546875 0.953125 
Q 30.953125 -1.421875 24.3125 -1.421875 
Q 15.921875 -1.421875 10.953125 3.296875 
Q 6 8.015625 6 15.921875 
Q 6 25.140625 12.171875 29.828125 
Q 18.359375 34.515625 30.609375 34.515625 
L 43.21875 34.515625 
L 43.21875 35.40625 
Q 43.21875 41.609375 39.140625 45 
Q 35.0625 48.390625 27.6875 48.390625 
Q 23 48.390625 18.546875 47.265625 
Q 14.109375 46.140625 10.015625 43.890625 
L 10.015625 52.203125 
Q 14.9375 54.109375 19.578125 55.046875 
Q 24.21875 56 28.609375 56 
Q 40.484375 56 46.34375 49.84375 
Q 52.203125 43.703125 52.203125 31.203125 
z
" id="DejaVuSans-97"/>
      <path d="M 52 44.1875 
Q 55.375 50.25 60.0625 53.125 
Q 64.75 56 71.09375 56 
Q 79.640625 56 84.28125 50.015625 
Q 88.921875 44.046875 88.921875 33.015625 
L 88.921875 0 
L 79.890625 0 
L 79.890625 32.71875 
Q 79.890625 40.578125 77.09375 44.375 
Q 74.3125 48.1875 68.609375 48.1875 
Q 61.625 48.1875 57.5625 43.546875 
Q 53.515625 38.921875 53.515625 30.90625 
L 53.515625 0 
L 44.484375 0 
L 44.484375 32.71875 
Q 44.484375 40.625 41.703125 44.40625 
Q 38.921875 48.1875 33.109375 48.1875 
Q 26.21875 48.1875 22.15625 43.53125 
Q 18.109375 38.875 18.109375 30.90625 
L 18.109375 0 
L 9.078125 0 
L 9.078125 54.6875 
L 18.109375 54.6875 
L 18.109375 46.1875 
Q 21.1875 51.21875 25.484375 53.609375 
Q 29.78125 56 35.6875 56 
Q 41.65625 56 45.828125 52.96875 
Q 50 49.953125 52 44.1875 
z
" id="DejaVuSans-109"/>
      <path d="M 8.5 21.578125 
L 8.5 54.6875 
L 17.484375 54.6875 
L 17.484375 21.921875 
Q 17.484375 14.15625 20.5 10.265625 
Q 23.53125 6.390625 29.59375 6.390625 
Q 36.859375 6.390625 41.078125 11.03125 
Q 45.3125 15.671875 45.3125 23.6875 
L 45.3125 54.6875 
L 54.296875 54.6875 
L 54.296875 0 
L 45.3125 0 
L 45.3125 8.40625 
Q 42.046875 3.421875 37.71875 1 
Q 33.40625 -1.421875 27.6875 -1.421875 
Q 18.265625 -1.421875 13.375 4.4375 
Q 8.5 10.296875 8.5 21.578125 
z
M 31.109375 56 
z
" id="DejaVuSans-117"/>
      <path d="M 45.40625 27.984375 
Q 45.40625 37.75 41.375 43.109375 
Q 37.359375 48.484375 30.078125 48.484375 
Q 22.859375 48.484375 18.828125 43.109375 
Q 14.796875 37.75 14.796875 27.984375 
Q 14.796875 18.265625 18.828125 12.890625 
Q 22.859375 7.515625 30.078125 7.515625 
Q 37.359375 7.515625 41.375 12.890625 
Q 45.40625 18.265625 45.40625 27.984375 
z
M 54.390625 6.78125 
Q 54.390625 -7.171875 48.1875 -13.984375 
Q 42 -20.796875 29.203125 -20.796875 
Q 24.46875 -20.796875 20.265625 -20.09375 
Q 16.0625 -19.390625 12.109375 -17.921875 
L 12.109375 -9.1875 
Q 16.0625 -11.328125 19.921875 -12.34375 
Q 23.78125 -13.375 27.78125 -13.375 
Q 36.625 -13.375 41.015625 -8.765625 
Q 45.40625 -4.15625 45.40625 5.171875 
L 45.40625 9.625 
Q 42.625 4.78125 38.28125 2.390625 
Q 33.9375 0 27.875 0 
Q 17.828125 0 11.671875 7.65625 
Q 5.515625 15.328125 5.515625 27.984375 
Q 5.515625 40.671875 11.671875 48.328125 
Q 17.828125 56 27.875 56 
Q 33.9375 56 38.28125 53.609375 
Q 42.625 51.21875 45.40625 46.390625 
L 45.40625 54.6875 
L 54.390625 54.6875 
z
" id="DejaVuSans-103"/>
      <path d="M 48.78125 52.59375 
L 48.78125 44.1875 
Q 44.96875 46.296875 41.140625 47.34375 
Q 37.3125 48.390625 33.40625 48.390625 
Q 24.65625 48.390625 19.8125 42.84375 
Q 14.984375 37.3125 14.984375 27.296875 
Q 14.984375 17.28125 19.8125 11.734375 
Q 24.65625 6.203125 33.40625 6.203125 
Q 37.3125 6.203125 41.140625 7.25 
Q 44.96875 8.296875 48.78125 10.40625 
L 48.78125 2.09375 
Q 45.015625 0.34375 40.984375 -0.53125 
Q 36.96875 -1.421875 32.421875 -1.421875 
Q 20.0625 -1.421875 12.78125 6.34375 
Q 5.515625 14.109375 5.515625 27.296875 
Q 5.515625 40.671875 12.859375 48.328125 
Q 20.21875 56 33.015625 56 
Q 37.15625 56 41.109375 55.140625 
Q 45.0625 54.296875 48.78125 52.59375 
z
" id="DejaVuSans-99"/>
      <path d="M 45.40625 46.390625 
L 45.40625 75.984375 
L 54.390625 75.984375 
L 54.390625 0 
L 45.40625 0 
L 45.40625 8.203125 
Q 42.578125 3.328125 38.25 0.953125 
Q 33.9375 -1.421875 27.875 -1.421875 
Q 17.96875 -1.421875 11.734375 6.484375 
Q 5.515625 14.40625 5.515625 27.296875 
Q 5.515625 40.1875 11.734375 48.09375 
Q 17.96875 56 27.875 56 
Q 33.9375 56 38.25 53.625 
Q 42.578125 51.265625 45.40625 46.390625 
z
M 14.796875 27.296875 
Q 14.796875 17.390625 18.875 11.75 
Q 22.953125 6.109375 30.078125 6.109375 
Q 37.203125 6.109375 41.296875 11.75 
Q 45.40625 17.390625 45.40625 27.296875 
Q 45.40625 37.203125 41.296875 42.84375 
Q 37.203125 48.484375 30.078125 48.484375 
Q 22.953125 48.484375 18.875 42.84375 
Q 14.796875 37.203125 14.796875 27.296875 
z
" id="DejaVuSans-100"/>
      <path d="M 41.109375 46.296875 
Q 39.59375 47.171875 37.8125 47.578125 
Q 36.03125 48 33.890625 48 
Q 26.265625 48 22.1875 43.046875 
Q 18.109375 38.09375 18.109375 28.8125 
L 18.109375 0 
L 9.078125 0 
L 9.078125 54.6875 
L 18.109375 54.6875 
L 18.109375 46.1875 
Q 20.953125 51.171875 25.484375 53.578125 
Q 30.03125 56 36.53125 56 
Q 37.453125 56 38.578125 55.875 
Q 39.703125 55.765625 41.0625 55.515625 
z
" id="DejaVuSans-114"/>
      <path d="M 16.75 30.609375 
Q 17.09375 27 20.171875 21.140625 
Q 23.78125 14.359375 30.609375 10.546875 
Q 37.3125 6.84375 44.53125 6.78125 
L 78.5625 6.78125 
L 78.5625 -0.984375 
L 44.53125 -0.984375 
Q 35.15625 -0.984375 26.484375 3.84375 
Q 17.828125 8.6875 13.1875 17.28125 
Q 8.546875 25.875 8.546875 35.015625 
Q 8.546875 44.046875 13.1875 52.640625 
Q 17.828125 61.234375 26.484375 66.109375 
Q 35.15625 71 44.53125 71 
L 78.5625 71 
L 78.5625 63.234375 
L 44.53125 63.234375 
Q 37.3125 63.1875 30.609375 59.421875 
Q 23.828125 55.5625 20.171875 48.828125 
Q 17.046875 42.96875 16.609375 38.421875 
L 78.5625 38.421875 
L 78.5625 30.609375 
z
" id="DejaVuSans-8712"/>
      <path d="M 51.125 -9.28125 
L 51.125 -16.3125 
L 48.09375 -16.3125 
Q 35.9375 -16.3125 31.8125 -12.6875 
Q 27.6875 -9.078125 27.6875 1.703125 
L 27.6875 13.375 
Q 27.6875 20.75 25.046875 23.578125 
Q 22.40625 26.421875 15.484375 26.421875 
L 12.5 26.421875 
L 12.5 33.40625 
L 15.484375 33.40625 
Q 22.46875 33.40625 25.078125 36.203125 
Q 27.6875 39.015625 27.6875 46.296875 
L 27.6875 58.015625 
Q 27.6875 68.796875 31.8125 72.390625 
Q 35.9375 75.984375 48.09375 75.984375 
L 51.125 75.984375 
L 51.125 69 
L 47.796875 69 
Q 40.921875 69 38.8125 66.84375 
Q 36.71875 64.703125 36.71875 57.8125 
L 36.71875 45.703125 
Q 36.71875 38.03125 34.5 34.5625 
Q 32.28125 31.109375 26.90625 29.890625 
Q 32.328125 28.5625 34.515625 25.09375 
Q 36.71875 21.625 36.71875 14.015625 
L 36.71875 1.90625 
Q 36.71875 -4.984375 38.8125 -7.125 
Q 40.921875 -9.28125 47.796875 -9.28125 
z
" id="DejaVuSans-123"/>
      <path d="M 12.5 -9.28125 
L 15.921875 -9.28125 
Q 22.75 -9.28125 24.828125 -7.171875 
Q 26.90625 -5.078125 26.90625 1.90625 
L 26.90625 14.015625 
Q 26.90625 21.625 29.09375 25.09375 
Q 31.296875 28.5625 36.71875 29.890625 
Q 31.296875 31.109375 29.09375 34.5625 
Q 26.90625 38.03125 26.90625 45.703125 
L 26.90625 57.8125 
Q 26.90625 64.75 24.828125 66.875 
Q 22.75 69 15.921875 69 
L 12.5 69 
L 12.5 75.984375 
L 15.578125 75.984375 
Q 27.734375 75.984375 31.8125 72.390625 
Q 35.890625 68.796875 35.890625 58.015625 
L 35.890625 46.296875 
Q 35.890625 39.015625 38.515625 36.203125 
Q 41.15625 33.40625 48.09375 33.40625 
L 51.125 33.40625 
L 51.125 26.421875 
L 48.09375 26.421875 
Q 41.15625 26.421875 38.515625 23.578125 
Q 35.890625 20.75 35.890625 13.375 
L 35.890625 1.703125 
Q 35.890625 -9.078125 31.8125 -12.6875 
Q 27.734375 -16.3125 15.578125 -16.3125 
L 12.5 -16.3125 
z
" id="DejaVuSans-125"/>
     </defs>
     <use transform="translate(0 0.015625)" xlink:href="#DejaVuSans-68"/>
     <use transform="translate(77.001953 0.015625)" xlink:href="#DejaVuSans-101"/>
     <use transform="translate(138.525391 0.015625)" xlink:href="#DejaVuSans-110"/>
     <use transform="translate(201.904297 0.015625)" xlink:href="#DejaVuSans-115"/>
     <use transform="translate(254.003906 0.015625)" xlink:href="#DejaVuSans-105"/>
     <use transform="translate(281.787109 0.015625)" xlink:href="#DejaVuSans-116"/>
     <use transform="translate(320.996094 0.015625)" xlink:href="#DejaVuSans-121"/>
     <use transform="translate(380.175781 0.015625)" xlink:href="#DejaVuSans-32"/>
     <use transform="translate(411.962891 0.015625)" xlink:href="#DejaVuSans-112"/>
     <use transform="translate(475.439453 0.015625)" xlink:href="#DejaVuSans-108"/>
     <use transform="translate(503.222656 0.015625)" xlink:href="#DejaVuSans-111"/>
     <use transform="translate(564.404297 0.015625)" xlink:href="#DejaVuSans-116"/>
     <use transform="translate(603.613281 0.015625)" xlink:href="#DejaVuSans-115"/>
     <use transform="translate(655.712891 0.015625)" xlink:href="#DejaVuSans-32"/>
     <use transform="translate(687.5 0.015625)" xlink:href="#DejaVuSans-111"/>
     <use transform="translate(748.681641 0.015625)" xlink:href="#DejaVuSans-102"/>
     <use transform="translate(783.886719 0.015625)" xlink:href="#DejaVuSans-32"/>
     <use transform="translate(815.673828 0.015625)" xlink:href="#DejaVuSans-50"/>
     <use transform="translate(879.296875 0.015625)" xlink:href="#DejaVuSans-48"/>
     <use transform="translate(942.919922 0.015625)" xlink:href="#DejaVuSans-48"/>
     <use transform="translate(1006.542969 0.015625)" xlink:href="#DejaVuSans-48"/>
     <use transform="translate(1070.166016 0.015625)" xlink:href="#DejaVuSans-48"/>
     <use transform="translate(1133.789062 0.015625)" xlink:href="#DejaVuSans-32"/>
     <use transform="translate(1165.576172 0.015625)" xlink:href="#DejaVuSans-80"/>
     <use transform="translate(1225.878906 0.015625)" xlink:href="#DejaVuSans-71"/>
     <use transform="translate(1303.369141 0.015625)" xlink:href="#DejaVuSans-40"/>
     <use transform="translate(1342.382812 0.015625)" xlink:href="#DejaVuSans-104"/>
     <use transform="translate(1405.761719 0.015625)" xlink:href="#DejaVuSans-44"/>
     <use transform="translate(1437.548828 0.015625)" xlink:href="#DejaVuSans-32"/>
     <use transform="translate(1469.335938 0.015625)" xlink:href="#DejaVuSans-48"/>
     <use transform="translate(1532.958984 0.015625)" xlink:href="#DejaVuSans-41"/>
     <use transform="translate(1571.972656 0.015625)" xlink:href="#DejaVuSans-32"/>
     <use transform="translate(1603.759766 0.015625)" xlink:href="#DejaVuSans-115"/>
     <use transform="translate(1655.859375 0.015625)" xlink:href="#DejaVuSans-97"/>
     <use transform="translate(1717.138672 0.015625)" xlink:href="#DejaVuSans-109"/>
     <use transform="translate(1814.550781 0.015625)" xlink:href="#DejaVuSans-112"/>
     <use transform="translate(1878.027344 0.015625)" xlink:href="#DejaVuSans-108"/>
     <use transform="translate(1905.810547 0.015625)" xlink:href="#DejaVuSans-101"/>
     <use transform="translate(1967.333984 0.015625)" xlink:href="#DejaVuSans-115"/>
     <use transform="translate(2019.433594 0.015625)" xlink:href="#DejaVuSans-32"/>
     <use transform="translate(2051.220703 0.015625)" xlink:href="#DejaVuSans-117"/>
     <use transform="translate(2114.599609 0.015625)" xlink:href="#DejaVuSans-115"/>
     <use transform="translate(2166.699219 0.015625)" xlink:href="#DejaVuSans-105"/>
     <use transform="translate(2194.482422 0.015625)" xlink:href="#DejaVuSans-110"/>
     <use transform="translate(2257.861328 0.015625)" xlink:href="#DejaVuSans-103"/>
     <use transform="translate(2321.337891 0.015625)" xlink:href="#DejaVuSans-32"/>
     <use transform="translate(2353.125 0.015625)" xlink:href="#DejaVuSans-101"/>
     <use transform="translate(2414.648438 0.015625)" xlink:href="#DejaVuSans-97"/>
     <use transform="translate(2475.927734 0.015625)" xlink:href="#DejaVuSans-99"/>
     <use transform="translate(2530.908203 0.015625)" xlink:href="#DejaVuSans-104"/>
     <use transform="translate(2594.287109 0.015625)" xlink:href="#DejaVuSans-32"/>
     <use transform="translate(2626.074219 0.015625)" xlink:href="#DejaVuSans-109"/>
     <use transform="translate(2723.486328 0.015625)" xlink:href="#DejaVuSans-101"/>
     <use transform="translate(2785.009766 0.015625)" xlink:href="#DejaVuSans-116"/>
     <use transform="translate(2824.21875 0.015625)" xlink:href="#DejaVuSans-104"/>
     <use transform="translate(2887.597656 0.015625)" xlink:href="#DejaVuSans-111"/>
     <use transform="translate(2948.779297 0.015625)" xlink:href="#DejaVuSans-100"/>
     <use transform="translate(3012.255859 0.015625)" xlink:href="#DejaVuSans-32"/>
     <use transform="translate(3044.042969 0.015625)" xlink:href="#DejaVuSans-102"/>
     <use transform="translate(3079.248047 0.015625)" xlink:href="#DejaVuSans-111"/>
     <use transform="translate(3140.429688 0.015625)" xlink:href="#DejaVuSans-114"/>
     <use transform="translate(3181.542969 0.015625)" xlink:href="#DejaVuSans-32"/>
     <use transform="translate(3213.330078 0.015625)" xlink:href="#DejaVuSans-104"/>
     <use transform="translate(3276.708984 0.015625)" xlink:href="#DejaVuSans-32"/>
     <use transform="translate(3327.978516 0.015625)" xlink:href="#DejaVuSans-8712"/>
     <use transform="translate(3434.570312 0.015625)" xlink:href="#DejaVuSans-32"/>
     <use transform="translate(3466.357422 0.015625)" xlink:href="#DejaVuSans-123"/>
     <use transform="translate(3529.980469 0.015625)" xlink:href="#DejaVuSans-49"/>
     <use transform="translate(3593.603516 0.015625)" xlink:href="#DejaVuSans-44"/>
     <use transform="translate(3625.390625 0.015625)" xlink:href="#DejaVuSans-52"/>
     <use transform="translate(3689.013672 0.015625)" xlink:href="#DejaVuSans-44"/>
     <use transform="translate(3720.800781 0.015625)" xlink:href="#DejaVuSans-55"/>
     <use transform="translate(3784.423828 0.015625)" xlink:href="#DejaVuSans-44"/>
     <use transform="translate(3816.210938 0.015625)" xlink:href="#DejaVuSans-49"/>
     <use transform="translate(3879.833984 0.015625)" xlink:href="#DejaVuSans-48"/>
     <use transform="translate(3943.457031 0.015625)" xlink:href="#DejaVuSans-44"/>
     <use transform="translate(3975.244141 0.015625)" xlink:href="#DejaVuSans-49"/>
     <use transform="translate(4038.867188 0.015625)" xlink:href="#DejaVuSans-53"/>
     <use transform="translate(4100.740234 0.015625)" xlink:href="#DejaVuSans-125"/>
     <use transform="translate(4164.363281 0.015625)" xlink:href="#DejaVuSans-46"/>
     <use transform="translate(4196.150391 0.015625)" xlink:href="#DejaVuSans-32"/>
    </g>
    <!-- A plot from the $pypolyagamma$ package is used as a reference. -->
    <g style="fill:#262626;" transform="translate(92.79 35.472)scale(0.09 -0.09)">
     <defs>
      <path d="M 34.1875 63.1875 
L 20.796875 26.90625 
L 47.609375 26.90625 
z
M 28.609375 72.90625 
L 39.796875 72.90625 
L 67.578125 0 
L 57.328125 0 
L 50.6875 18.703125 
L 17.828125 18.703125 
L 11.1875 0 
L 0.78125 0 
z
" id="DejaVuSans-65"/>
      <path d="M 49.609375 33.6875 
Q 49.609375 40.875 46.484375 44.671875 
Q 43.359375 48.484375 37.5 48.484375 
Q 33.5 48.484375 29.859375 46.4375 
Q 26.21875 44.390625 23.390625 40.484375 
Q 20.609375 36.625 18.9375 31.15625 
Q 17.28125 25.6875 17.28125 20.3125 
Q 17.28125 13.484375 20.40625 9.796875 
Q 23.53125 6.109375 29.296875 6.109375 
Q 33.546875 6.109375 37.1875 8.109375 
Q 40.828125 10.109375 43.40625 13.921875 
Q 46.1875 17.921875 47.890625 23.34375 
Q 49.609375 28.765625 49.609375 33.6875 
z
M 21.78125 46.390625 
Q 25.390625 51.125 30.296875 53.5625 
Q 35.203125 56 41.21875 56 
Q 49.609375 56 54.25 50.5 
Q 58.890625 45.015625 58.890625 35.109375 
Q 58.890625 27 56 19.65625 
Q 53.125 12.3125 47.703125 6.5 
Q 44.09375 2.640625 39.546875 0.609375 
Q 35.015625 -1.421875 29.984375 -1.421875 
Q 24.171875 -1.421875 20.21875 1 
Q 16.265625 3.421875 14.3125 8.203125 
L 8.6875 -20.796875 
L -0.296875 -20.796875 
L 14.40625 54.6875 
L 23.390625 54.6875 
z
" id="DejaVuSans-Oblique-112"/>
      <path d="M 24.8125 -5.078125 
Q 18.5625 -15.578125 14.625 -18.1875 
Q 10.6875 -20.796875 4.59375 -20.796875 
L -2.484375 -20.796875 
L -0.984375 -13.28125 
L 4.203125 -13.28125 
Q 7.953125 -13.28125 10.59375 -11.234375 
Q 13.234375 -9.1875 16.5 -3.21875 
L 19.28125 2 
L 7.171875 54.6875 
L 16.703125 54.6875 
L 25.78125 12.796875 
L 50.875 54.6875 
L 60.296875 54.6875 
z
" id="DejaVuSans-Oblique-121"/>
      <path d="M 25.390625 -1.421875 
Q 15.765625 -1.421875 10.171875 4.515625 
Q 4.59375 10.453125 4.59375 20.703125 
Q 4.59375 26.65625 6.515625 32.828125 
Q 8.453125 39.015625 11.53125 43.21875 
Q 16.359375 49.75 22.3125 52.875 
Q 28.265625 56 35.796875 56 
Q 45.125 56 50.859375 50.1875 
Q 56.59375 44.390625 56.59375 35.015625 
Q 56.59375 28.515625 54.6875 22.0625 
Q 52.78125 15.625 49.703125 11.375 
Q 44.921875 4.828125 38.96875 1.703125 
Q 33.015625 -1.421875 25.390625 -1.421875 
z
M 13.921875 21 
Q 13.921875 13.578125 17.015625 9.890625 
Q 20.125 6.203125 26.421875 6.203125 
Q 35.453125 6.203125 41.375 14.078125 
Q 47.3125 21.96875 47.3125 34.078125 
Q 47.3125 41.15625 44.140625 44.765625 
Q 40.96875 48.390625 34.8125 48.390625 
Q 29.734375 48.390625 25.78125 46.015625 
Q 21.828125 43.65625 18.703125 38.8125 
Q 16.40625 35.203125 15.15625 30.5625 
Q 13.921875 25.921875 13.921875 21 
z
" id="DejaVuSans-Oblique-111"/>
      <path d="M 18.3125 75.984375 
L 27.296875 75.984375 
L 12.5 0 
L 3.515625 0 
z
" id="DejaVuSans-Oblique-108"/>
      <path d="M 53.71875 31.203125 
L 47.609375 0 
L 38.625 0 
L 40.28125 8.296875 
Q 36.328125 3.421875 31.265625 1 
Q 26.21875 -1.421875 20.015625 -1.421875 
Q 13.03125 -1.421875 8.5625 2.84375 
Q 4.109375 7.125 4.109375 13.8125 
Q 4.109375 23.390625 11.75 28.953125 
Q 19.390625 34.515625 32.8125 34.515625 
L 45.3125 34.515625 
L 45.796875 36.921875 
Q 45.90625 37.3125 45.953125 37.765625 
Q 46 38.234375 46 39.203125 
Q 46 43.5625 42.453125 45.96875 
Q 38.921875 48.390625 32.515625 48.390625 
Q 28.125 48.390625 23.5 47.265625 
Q 18.890625 46.140625 14.015625 43.890625 
L 15.578125 52.203125 
Q 20.65625 54.109375 25.515625 55.046875 
Q 30.375 56 34.90625 56 
Q 44.578125 56 49.625 51.796875 
Q 54.6875 47.609375 54.6875 39.59375 
Q 54.6875 37.984375 54.4375 35.8125 
Q 54.203125 33.640625 53.71875 31.203125 
z
M 44 27.484375 
L 35.015625 27.484375 
Q 23.96875 27.484375 18.671875 24.53125 
Q 13.375 21.578125 13.375 15.375 
Q 13.375 11.078125 16.078125 8.640625 
Q 18.796875 6.203125 23.578125 6.203125 
Q 30.90625 6.203125 36.375 11.453125 
Q 41.84375 16.703125 43.609375 25.484375 
z
" id="DejaVuSans-Oblique-97"/>
      <path d="M 59.625 54.6875 
L 50.296875 6.78125 
Q 47.609375 -7.125 40.015625 -13.953125 
Q 32.421875 -20.796875 19.578125 -20.796875 
Q 14.84375 -20.796875 10.78125 -20.09375 
Q 6.734375 -19.390625 3.21875 -17.921875 
L 4.890625 -9.1875 
Q 8.203125 -11.328125 11.90625 -12.34375 
Q 15.625 -13.375 19.828125 -13.375 
Q 28.375 -13.375 33.859375 -8.703125 
Q 39.359375 -4.046875 41.109375 4.6875 
L 41.890625 8.796875 
Q 38.140625 4.5 33.15625 2.25 
Q 28.171875 0 22.40625 0 
Q 14.109375 0 9.34375 5.484375 
Q 4.59375 10.984375 4.59375 20.609375 
Q 4.59375 28.171875 7.46875 35.421875 
Q 10.359375 42.671875 15.578125 48.296875 
Q 19.046875 52 23.65625 54 
Q 28.265625 56 33.296875 56 
Q 38.8125 56 42.90625 53.4375 
Q 47.015625 50.875 49.03125 46.1875 
L 50.59375 54.6875 
z
M 46.09375 34.625 
Q 46.09375 41.265625 42.96875 44.875 
Q 39.84375 48.484375 34.078125 48.484375 
Q 30.515625 48.484375 27.296875 47.0625 
Q 24.078125 45.65625 21.78125 43.109375 
Q 18.0625 38.921875 15.984375 33.234375 
Q 13.921875 27.546875 13.921875 21.484375 
Q 13.921875 14.75 17.0625 11.125 
Q 20.21875 7.515625 26.125 7.515625 
Q 34.671875 7.515625 40.375 15.25 
Q 46.09375 23 46.09375 34.625 
z
" id="DejaVuSans-Oblique-103"/>
      <path d="M 89.796875 33.015625 
L 83.40625 0 
L 74.421875 0 
L 80.71875 32.71875 
Q 81.109375 34.8125 81.296875 36.328125 
Q 81.5 37.84375 81.5 38.921875 
Q 81.5 43.3125 79.046875 45.75 
Q 76.609375 48.1875 72.21875 48.1875 
Q 65.671875 48.1875 60.546875 43.28125 
Q 55.421875 38.375 53.90625 30.515625 
L 47.90625 0 
L 38.921875 0 
L 45.3125 32.71875 
Q 45.703125 34.515625 45.890625 36.046875 
Q 46.09375 37.59375 46.09375 38.8125 
Q 46.09375 43.265625 43.65625 45.71875 
Q 41.21875 48.1875 36.921875 48.1875 
Q 30.28125 48.1875 25.140625 43.28125 
Q 20.015625 38.375 18.5 30.515625 
L 12.5 0 
L 3.515625 0 
L 14.203125 54.6875 
L 23.1875 54.6875 
L 21.484375 46.1875 
Q 25.140625 50.984375 30.046875 53.484375 
Q 34.96875 56 40.578125 56 
Q 46.53125 56 50.359375 52.875 
Q 54.203125 49.75 54.984375 44.1875 
Q 59.078125 49.953125 64.46875 52.96875 
Q 69.875 56 75.875 56 
Q 82.90625 56 86.734375 51.953125 
Q 90.578125 47.90625 90.578125 40.484375 
Q 90.578125 38.875 90.375 36.9375 
Q 90.1875 35.015625 89.796875 33.015625 
z
" id="DejaVuSans-Oblique-109"/>
      <path d="M 9.078125 75.984375 
L 18.109375 75.984375 
L 18.109375 31.109375 
L 44.921875 54.6875 
L 56.390625 54.6875 
L 27.390625 29.109375 
L 57.625 0 
L 45.90625 0 
L 18.109375 26.703125 
L 18.109375 0 
L 9.078125 0 
z
" id="DejaVuSans-107"/>
     </defs>
     <use transform="translate(0 0.015625)" xlink:href="#DejaVuSans-65"/>
     <use transform="translate(68.408203 0.015625)" xlink:href="#DejaVuSans-32"/>
     <use transform="translate(100.195312 0.015625)" xlink:href="#DejaVuSans-112"/>
     <use transform="translate(163.671875 0.015625)" xlink:href="#DejaVuSans-108"/>
     <use transform="translate(191.455078 0.015625)" xlink:href="#DejaVuSans-111"/>
     <use transform="translate(252.636719 0.015625)" xlink:href="#DejaVuSans-116"/>
     <use transform="translate(291.845703 0.015625)" xlink:href="#DejaVuSans-32"/>
     <use transform="translate(323.632812 0.015625)" xlink:href="#DejaVuSans-102"/>
     <use transform="translate(358.837891 0.015625)" xlink:href="#DejaVuSans-114"/>
     <use transform="translate(399.951172 0.015625)" xlink:href="#DejaVuSans-111"/>
     <use transform="translate(461.132812 0.015625)" xlink:href="#DejaVuSans-109"/>
     <use transform="translate(558.544922 0.015625)" xlink:href="#DejaVuSans-32"/>
     <use transform="translate(590.332031 0.015625)" xlink:href="#DejaVuSans-116"/>
     <use transform="translate(629.541016 0.015625)" xlink:href="#DejaVuSans-104"/>
     <use transform="translate(692.919922 0.015625)" xlink:href="#DejaVuSans-101"/>
     <use transform="translate(754.443359 0.015625)" xlink:href="#DejaVuSans-32"/>
     <use transform="translate(786.230469 0.015625)" xlink:href="#DejaVuSans-Oblique-112"/>
     <use transform="translate(849.707031 0.015625)" xlink:href="#DejaVuSans-Oblique-121"/>
     <use transform="translate(908.886719 0.015625)" xlink:href="#DejaVuSans-Oblique-112"/>
     <use transform="translate(972.363281 0.015625)" xlink:href="#DejaVuSans-Oblique-111"/>
     <use transform="translate(1033.544922 0.015625)" xlink:href="#DejaVuSans-Oblique-108"/>
     <use transform="translate(1061.328125 0.015625)" xlink:href="#DejaVuSans-Oblique-121"/>
     <use transform="translate(1120.507812 0.015625)" xlink:href="#DejaVuSans-Oblique-97"/>
     <use transform="translate(1181.787109 0.015625)" xlink:href="#DejaVuSans-Oblique-103"/>
     <use transform="translate(1245.263672 0.015625)" xlink:href="#DejaVuSans-Oblique-97"/>
     <use transform="translate(1306.542969 0.015625)" xlink:href="#DejaVuSans-Oblique-109"/>
     <use transform="translate(1403.955078 0.015625)" xlink:href="#DejaVuSans-Oblique-109"/>
     <use transform="translate(1501.367188 0.015625)" xlink:href="#DejaVuSans-Oblique-97"/>
     <use transform="translate(1562.646484 0.015625)" xlink:href="#DejaVuSans-32"/>
     <use transform="translate(1594.433594 0.015625)" xlink:href="#DejaVuSans-112"/>
     <use transform="translate(1657.910156 0.015625)" xlink:href="#DejaVuSans-97"/>
     <use transform="translate(1719.189453 0.015625)" xlink:href="#DejaVuSans-99"/>
     <use transform="translate(1774.169922 0.015625)" xlink:href="#DejaVuSans-107"/>
     <use transform="translate(1832.080078 0.015625)" xlink:href="#DejaVuSans-97"/>
     <use transform="translate(1893.359375 0.015625)" xlink:href="#DejaVuSans-103"/>
     <use transform="translate(1956.835938 0.015625)" xlink:href="#DejaVuSans-101"/>
     <use transform="translate(2018.359375 0.015625)" xlink:href="#DejaVuSans-32"/>
     <use transform="translate(2050.146484 0.015625)" xlink:href="#DejaVuSans-105"/>
     <use transform="translate(2077.929688 0.015625)" xlink:href="#DejaVuSans-115"/>
     <use transform="translate(2130.029297 0.015625)" xlink:href="#DejaVuSans-32"/>
     <use transform="translate(2161.816406 0.015625)" xlink:href="#DejaVuSans-117"/>
     <use transform="translate(2225.195312 0.015625)" xlink:href="#DejaVuSans-115"/>
     <use transform="translate(2277.294922 0.015625)" xlink:href="#DejaVuSans-101"/>
     <use transform="translate(2338.818359 0.015625)" xlink:href="#DejaVuSans-100"/>
     <use transform="translate(2402.294922 0.015625)" xlink:href="#DejaVuSans-32"/>
     <use transform="translate(2434.082031 0.015625)" xlink:href="#DejaVuSans-97"/>
     <use transform="translate(2495.361328 0.015625)" xlink:href="#DejaVuSans-115"/>
     <use transform="translate(2547.460938 0.015625)" xlink:href="#DejaVuSans-32"/>
     <use transform="translate(2579.248047 0.015625)" xlink:href="#DejaVuSans-97"/>
     <use transform="translate(2640.527344 0.015625)" xlink:href="#DejaVuSans-32"/>
     <use transform="translate(2672.314453 0.015625)" xlink:href="#DejaVuSans-114"/>
     <use transform="translate(2713.427734 0.015625)" xlink:href="#DejaVuSans-101"/>
     <use transform="translate(2774.951172 0.015625)" xlink:href="#DejaVuSans-102"/>
     <use transform="translate(2810.15625 0.015625)" xlink:href="#DejaVuSans-101"/>
     <use transform="translate(2871.679688 0.015625)" xlink:href="#DejaVuSans-114"/>
     <use transform="translate(2912.792969 0.015625)" xlink:href="#DejaVuSans-101"/>
     <use transform="translate(2974.316406 0.015625)" xlink:href="#DejaVuSans-110"/>
     <use transform="translate(3037.695312 0.015625)" xlink:href="#DejaVuSans-99"/>
     <use transform="translate(3092.675781 0.015625)" xlink:href="#DejaVuSans-101"/>
     <use transform="translate(3154.199219 0.015625)" xlink:href="#DejaVuSans-46"/>
    </g>
   </g>
   <g id="legend_1">
    <g id="patch_7">
     <path d="M 298.02 122.8845 
L 407.72 122.8845 
Q 409.72 122.8845 409.72 120.8845 
L 409.72 48.472 
Q 409.72 46.472 407.72 46.472 
L 298.02 46.472 
Q 296.02 46.472 296.02 48.472 
L 296.02 120.8845 
Q 296.02 122.8845 298.02 122.8845 
z
" style="fill:#eaeaf2;opacity:0.8;stroke:#cccccc;stroke-linejoin:miter;"/>
    </g>
    <g id="line2d_40">
     <path d="M 300.02 54.570438 
L 320.02 54.570438 
" style="fill:none;stroke:#1f77b4;stroke-linecap:round;stroke-width:1.5;"/>
    </g>
    <g id="line2d_41"/>
    <g id="text_17">
     <!-- devroye -->
     <g style="fill:#262626;" transform="translate(328.02 58.070438)scale(0.1 -0.1)">
      <defs>
       <path d="M 2.984375 54.6875 
L 12.5 54.6875 
L 29.59375 8.796875 
L 46.6875 54.6875 
L 56.203125 54.6875 
L 35.6875 0 
L 23.484375 0 
z
" id="DejaVuSans-118"/>
      </defs>
      <use xlink:href="#DejaVuSans-100"/>
      <use x="63.476562" xlink:href="#DejaVuSans-101"/>
      <use x="125" xlink:href="#DejaVuSans-118"/>
      <use x="184.179688" xlink:href="#DejaVuSans-114"/>
      <use x="223.042969" xlink:href="#DejaVuSans-111"/>
      <use x="284.224609" xlink:href="#DejaVuSans-121"/>
      <use x="343.404297" xlink:href="#DejaVuSans-101"/>
     </g>
    </g>
    <g id="line2d_42">
     <path d="M 300.02 69.248563 
L 320.02 69.248563 
" style="fill:none;stroke:#ff7f0e;stroke-linecap:round;stroke-width:1.5;"/>
    </g>
    <g id="line2d_43"/>
    <g id="text_18">
     <!-- alternate -->
     <g style="fill:#262626;" transform="translate(328.02 72.748563)scale(0.1 -0.1)">
      <use xlink:href="#DejaVuSans-97"/>
      <use x="61.279297" xlink:href="#DejaVuSans-108"/>
      <use x="89.0625" xlink:href="#DejaVuSans-116"/>
      <use x="128.271484" xlink:href="#DejaVuSans-101"/>
      <use x="189.794922" xlink:href="#DejaVuSans-114"/>
      <use x="229.158203" xlink:href="#DejaVuSans-110"/>
      <use x="292.537109" xlink:href="#DejaVuSans-97"/>
      <use x="353.816406" xlink:href="#DejaVuSans-116"/>
      <use x="393.025391" xlink:href="#DejaVuSans-101"/>
     </g>
    </g>
    <g id="line2d_44">
     <path d="M 300.02 83.926688 
L 320.02 83.926688 
" style="fill:none;stroke:#2ca02c;stroke-linecap:round;stroke-width:1.5;"/>
    </g>
    <g id="line2d_45"/>
    <g id="text_19">
     <!-- gamma -->
     <g style="fill:#262626;" transform="translate(328.02 87.426688)scale(0.1 -0.1)">
      <use xlink:href="#DejaVuSans-103"/>
      <use x="63.476562" xlink:href="#DejaVuSans-97"/>
      <use x="124.755859" xlink:href="#DejaVuSans-109"/>
      <use x="222.167969" xlink:href="#DejaVuSans-109"/>
      <use x="319.580078" xlink:href="#DejaVuSans-97"/>
     </g>
    </g>
    <g id="line2d_46">
     <path d="M 300.02 98.604813 
L 320.02 98.604813 
" style="fill:none;stroke:#d62728;stroke-linecap:round;stroke-width:1.5;"/>
    </g>
    <g id="line2d_47"/>
    <g id="text_20">
     <!-- saddle -->
     <g style="fill:#262626;" transform="translate(328.02 102.104813)scale(0.1 -0.1)">
      <use xlink:href="#DejaVuSans-115"/>
      <use x="52.099609" xlink:href="#DejaVuSans-97"/>
      <use x="113.378906" xlink:href="#DejaVuSans-100"/>
      <use x="176.855469" xlink:href="#DejaVuSans-100"/>
      <use x="240.332031" xlink:href="#DejaVuSans-108"/>
      <use x="268.115234" xlink:href="#DejaVuSans-101"/>
     </g>
    </g>
    <g id="line2d_48">
     <path d="M 300.02 113.2845 
L 320.02 113.2845 
" style="fill:none;stroke:#9467bd;stroke-linecap:round;stroke-width:1.5;"/>
    </g>
    <g id="line2d_49"/>
    <g id="text_21">
     <!-- $pypolyagamma$ -->
     <g style="fill:#262626;" transform="translate(328.02 116.7845)scale(0.1 -0.1)">
      <use transform="translate(0 0.015625)" xlink:href="#DejaVuSans-Oblique-112"/>
      <use transform="translate(63.476562 0.015625)" xlink:href="#DejaVuSans-Oblique-121"/>
      <use transform="translate(122.65625 0.015625)" xlink:href="#DejaVuSans-Oblique-112"/>
      <use transform="translate(186.132812 0.015625)" xlink:href="#DejaVuSans-Oblique-111"/>
      <use transform="translate(247.314453 0.015625)" xlink:href="#DejaVuSans-Oblique-108"/>
      <use transform="translate(275.097656 0.015625)" xlink:href="#DejaVuSans-Oblique-121"/>
      <use transform="translate(334.277344 0.015625)" xlink:href="#DejaVuSans-Oblique-97"/>
      <use transform="translate(395.556641 0.015625)" xlink:href="#DejaVuSans-Oblique-103"/>
      <use transform="translate(459.033203 0.015625)" xlink:href="#DejaVuSans-Oblique-97"/>
      <use transform="translate(520.3125 0.015625)" xlink:href="#DejaVuSans-Oblique-109"/>
      <use transform="translate(617.724609 0.015625)" xlink:href="#DejaVuSans-Oblique-109"/>
      <use transform="translate(715.136719 0.015625)" xlink:href="#DejaVuSans-Oblique-97"/>
     </g>
    </g>
   </g>
  </g>
 </g>
 <defs>
  <clipPath id="pcd7a06f1cb">
   <rect height="266.112" width="357.12" x="57.6" y="41.472"/>
  </clipPath>
 </defs>
</svg>
