<?xml version="1.0" encoding="utf-8" standalone="no"?>
<!DOCTYPE svg PUBLIC "-//W3C//DTD SVG 1.1//EN"
  "http://www.w3.org/Graphics/SVG/1.1/DTD/svg11.dtd">
<!-- Created with matplotlib (https://matplotlib.org/) -->
<svg height="345.6pt" version="1.1" viewBox="0 0 460.8 345.6" width="460.8pt" xmlns="http://www.w3.org/2000/svg" xmlns:xlink="http://www.w3.org/1999/xlink">
 <metadata>
  <rdf:RDF xmlns:cc="http://creativecommons.org/ns#" xmlns:dc="http://purl.org/dc/elements/1.1/" xmlns:rdf="http://www.w3.org/1999/02/22-rdf-syntax-ns#">
   <cc:Work>
    <dc:type rdf:resource="http://purl.org/dc/dcmitype/StillImage"/>
    <dc:date>2021-01-24T23:08:29.643701</dc:date>
    <dc:format>image/svg+xml</dc:format>
    <dc:creator>
     <cc:Agent>
      <dc:title>Matplotlib v3.3.3, https://matplotlib.org/</dc:title>
     </cc:Agent>
    </dc:creator>
   </cc:Work>
  </rdf:RDF>
 </metadata>
 <defs>
  <style type="text/css">*{stroke-linecap:butt;stroke-linejoin:round;}</style>
 </defs>
 <g id="figure_1">
  <g id="patch_1">
   <path d="M 0 345.6 
L 460.8 345.6 
L 460.8 0 
L 0 0 
z
" style="fill:#ffffff;"/>
  </g>
  <g id="axes_1">
   <g id="patch_2">
    <path d="M 57.6 307.584 
L 414.72 307.584 
L 414.72 41.472 
L 57.6 41.472 
z
" style="fill:#eaeaf2;"/>
   </g>
   <g id="matplotlib.axis_1">
    <g id="xtick_1">
     <g id="line2d_1">
      <path clip-path="url(#p66cfd561cc)" d="M 78.817201 307.584 
L 78.817201 41.472 
" style="fill:none;stroke:#ffffff;stroke-linecap:round;stroke-width:0.8;"/>
     </g>
     <g id="text_1">
      <!-- 0 -->
      <g style="fill:#262626;" transform="translate(75.635951 322.182437)scale(0.1 -0.1)">
       <defs>
        <path d="M 31.78125 66.40625 
Q 24.171875 66.40625 20.328125 58.90625 
Q 16.5 51.421875 16.5 36.375 
Q 16.5 21.390625 20.328125 13.890625 
Q 24.171875 6.390625 31.78125 6.390625 
Q 39.453125 6.390625 43.28125 13.890625 
Q 47.125 21.390625 47.125 36.375 
Q 47.125 51.421875 43.28125 58.90625 
Q 39.453125 66.40625 31.78125 66.40625 
z
M 31.78125 74.21875 
Q 44.046875 74.21875 50.515625 64.515625 
Q 56.984375 54.828125 56.984375 36.375 
Q 56.984375 17.96875 50.515625 8.265625 
Q 44.046875 -1.421875 31.78125 -1.421875 
Q 19.53125 -1.421875 13.0625 8.265625 
Q 6.59375 17.96875 6.59375 36.375 
Q 6.59375 54.828125 13.0625 64.515625 
Q 19.53125 74.21875 31.78125 74.21875 
z
" id="DejaVuSans-48"/>
       </defs>
       <use xlink:href="#DejaVuSans-48"/>
      </g>
     </g>
    </g>
    <g id="xtick_2">
     <g id="line2d_2">
      <path clip-path="url(#p66cfd561cc)" d="M 147.993823 307.584 
L 147.993823 41.472 
" style="fill:none;stroke:#ffffff;stroke-linecap:round;stroke-width:0.8;"/>
     </g>
     <g id="text_2">
      <!-- 2 -->
      <g style="fill:#262626;" transform="translate(144.812573 322.182437)scale(0.1 -0.1)">
       <defs>
        <path d="M 19.1875 8.296875 
L 53.609375 8.296875 
L 53.609375 0 
L 7.328125 0 
L 7.328125 8.296875 
Q 12.9375 14.109375 22.625 23.890625 
Q 32.328125 33.6875 34.8125 36.53125 
Q 39.546875 41.84375 41.421875 45.53125 
Q 43.3125 49.21875 43.3125 52.78125 
Q 43.3125 58.59375 39.234375 62.25 
Q 35.15625 65.921875 28.609375 65.921875 
Q 23.96875 65.921875 18.8125 64.3125 
Q 13.671875 62.703125 7.8125 59.421875 
L 7.8125 69.390625 
Q 13.765625 71.78125 18.9375 73 
Q 24.125 74.21875 28.421875 74.21875 
Q 39.75 74.21875 46.484375 68.546875 
Q 53.21875 62.890625 53.21875 53.421875 
Q 53.21875 48.921875 51.53125 44.890625 
Q 49.859375 40.875 45.40625 35.40625 
Q 44.1875 33.984375 37.640625 27.21875 
Q 31.109375 20.453125 19.1875 8.296875 
z
" id="DejaVuSans-50"/>
       </defs>
       <use xlink:href="#DejaVuSans-50"/>
      </g>
     </g>
    </g>
    <g id="xtick_3">
     <g id="line2d_3">
      <path clip-path="url(#p66cfd561cc)" d="M 217.170445 307.584 
L 217.170445 41.472 
" style="fill:none;stroke:#ffffff;stroke-linecap:round;stroke-width:0.8;"/>
     </g>
     <g id="text_3">
      <!-- 4 -->
      <g style="fill:#262626;" transform="translate(213.989195 322.182437)scale(0.1 -0.1)">
       <defs>
        <path d="M 37.796875 64.3125 
L 12.890625 25.390625 
L 37.796875 25.390625 
z
M 35.203125 72.90625 
L 47.609375 72.90625 
L 47.609375 25.390625 
L 58.015625 25.390625 
L 58.015625 17.1875 
L 47.609375 17.1875 
L 47.609375 0 
L 37.796875 0 
L 37.796875 17.1875 
L 4.890625 17.1875 
L 4.890625 26.703125 
z
" id="DejaVuSans-52"/>
       </defs>
       <use xlink:href="#DejaVuSans-52"/>
      </g>
     </g>
    </g>
    <g id="xtick_4">
     <g id="line2d_4">
      <path clip-path="url(#p66cfd561cc)" d="M 286.347067 307.584 
L 286.347067 41.472 
" style="fill:none;stroke:#ffffff;stroke-linecap:round;stroke-width:0.8;"/>
     </g>
     <g id="text_4">
      <!-- 6 -->
      <g style="fill:#262626;" transform="translate(283.165817 322.182437)scale(0.1 -0.1)">
       <defs>
        <path d="M 33.015625 40.375 
Q 26.375 40.375 22.484375 35.828125 
Q 18.609375 31.296875 18.609375 23.390625 
Q 18.609375 15.53125 22.484375 10.953125 
Q 26.375 6.390625 33.015625 6.390625 
Q 39.65625 6.390625 43.53125 10.953125 
Q 47.40625 15.53125 47.40625 23.390625 
Q 47.40625 31.296875 43.53125 35.828125 
Q 39.65625 40.375 33.015625 40.375 
z
M 52.59375 71.296875 
L 52.59375 62.3125 
Q 48.875 64.0625 45.09375 64.984375 
Q 41.3125 65.921875 37.59375 65.921875 
Q 27.828125 65.921875 22.671875 59.328125 
Q 17.53125 52.734375 16.796875 39.40625 
Q 19.671875 43.65625 24.015625 45.921875 
Q 28.375 48.1875 33.59375 48.1875 
Q 44.578125 48.1875 50.953125 41.515625 
Q 57.328125 34.859375 57.328125 23.390625 
Q 57.328125 12.15625 50.6875 5.359375 
Q 44.046875 -1.421875 33.015625 -1.421875 
Q 20.359375 -1.421875 13.671875 8.265625 
Q 6.984375 17.96875 6.984375 36.375 
Q 6.984375 53.65625 15.1875 63.9375 
Q 23.390625 74.21875 37.203125 74.21875 
Q 40.921875 74.21875 44.703125 73.484375 
Q 48.484375 72.75 52.59375 71.296875 
z
" id="DejaVuSans-54"/>
       </defs>
       <use xlink:href="#DejaVuSans-54"/>
      </g>
     </g>
    </g>
    <g id="xtick_5">
     <g id="line2d_5">
      <path clip-path="url(#p66cfd561cc)" d="M 355.523689 307.584 
L 355.523689 41.472 
" style="fill:none;stroke:#ffffff;stroke-linecap:round;stroke-width:0.8;"/>
     </g>
     <g id="text_5">
      <!-- 8 -->
      <g style="fill:#262626;" transform="translate(352.342439 322.182437)scale(0.1 -0.1)">
       <defs>
        <path d="M 31.78125 34.625 
Q 24.75 34.625 20.71875 30.859375 
Q 16.703125 27.09375 16.703125 20.515625 
Q 16.703125 13.921875 20.71875 10.15625 
Q 24.75 6.390625 31.78125 6.390625 
Q 38.8125 6.390625 42.859375 10.171875 
Q 46.921875 13.96875 46.921875 20.515625 
Q 46.921875 27.09375 42.890625 30.859375 
Q 38.875 34.625 31.78125 34.625 
z
M 21.921875 38.8125 
Q 15.578125 40.375 12.03125 44.71875 
Q 8.5 49.078125 8.5 55.328125 
Q 8.5 64.0625 14.71875 69.140625 
Q 20.953125 74.21875 31.78125 74.21875 
Q 42.671875 74.21875 48.875 69.140625 
Q 55.078125 64.0625 55.078125 55.328125 
Q 55.078125 49.078125 51.53125 44.71875 
Q 48 40.375 41.703125 38.8125 
Q 48.828125 37.15625 52.796875 32.3125 
Q 56.78125 27.484375 56.78125 20.515625 
Q 56.78125 9.90625 50.3125 4.234375 
Q 43.84375 -1.421875 31.78125 -1.421875 
Q 19.734375 -1.421875 13.25 4.234375 
Q 6.78125 9.90625 6.78125 20.515625 
Q 6.78125 27.484375 10.78125 32.3125 
Q 14.796875 37.15625 21.921875 38.8125 
z
M 18.3125 54.390625 
Q 18.3125 48.734375 21.84375 45.5625 
Q 25.390625 42.390625 31.78125 42.390625 
Q 38.140625 42.390625 41.71875 45.5625 
Q 45.3125 48.734375 45.3125 54.390625 
Q 45.3125 60.0625 41.71875 63.234375 
Q 38.140625 66.40625 31.78125 66.40625 
Q 25.390625 66.40625 21.84375 63.234375 
Q 18.3125 60.0625 18.3125 54.390625 
z
" id="DejaVuSans-56"/>
       </defs>
       <use xlink:href="#DejaVuSans-56"/>
      </g>
     </g>
    </g>
   </g>
   <g id="matplotlib.axis_2">
    <g id="ytick_1">
     <g id="line2d_6">
      <path clip-path="url(#p66cfd561cc)" d="M 57.6 307.584 
L 414.72 307.584 
" style="fill:none;stroke:#ffffff;stroke-linecap:round;stroke-width:0.8;"/>
     </g>
     <g id="text_6">
      <!-- 0.0 -->
      <g style="fill:#262626;" transform="translate(34.696875 311.383219)scale(0.1 -0.1)">
       <defs>
        <path d="M 10.6875 12.40625 
L 21 12.40625 
L 21 0 
L 10.6875 0 
z
" id="DejaVuSans-46"/>
       </defs>
       <use xlink:href="#DejaVuSans-48"/>
       <use x="63.623047" xlink:href="#DejaVuSans-46"/>
       <use x="95.410156" xlink:href="#DejaVuSans-48"/>
      </g>
     </g>
    </g>
    <g id="ytick_2">
     <g id="line2d_7">
      <path clip-path="url(#p66cfd561cc)" d="M 57.6 275.148643 
L 414.72 275.148643 
" style="fill:none;stroke:#ffffff;stroke-linecap:round;stroke-width:0.8;"/>
     </g>
     <g id="text_7">
      <!-- 0.1 -->
      <g style="fill:#262626;" transform="translate(34.696875 278.947861)scale(0.1 -0.1)">
       <defs>
        <path d="M 12.40625 8.296875 
L 28.515625 8.296875 
L 28.515625 63.921875 
L 10.984375 60.40625 
L 10.984375 69.390625 
L 28.421875 72.90625 
L 38.28125 72.90625 
L 38.28125 8.296875 
L 54.390625 8.296875 
L 54.390625 0 
L 12.40625 0 
z
" id="DejaVuSans-49"/>
       </defs>
       <use xlink:href="#DejaVuSans-48"/>
       <use x="63.623047" xlink:href="#DejaVuSans-46"/>
       <use x="95.410156" xlink:href="#DejaVuSans-49"/>
      </g>
     </g>
    </g>
    <g id="ytick_3">
     <g id="line2d_8">
      <path clip-path="url(#p66cfd561cc)" d="M 57.6 242.713285 
L 414.72 242.713285 
" style="fill:none;stroke:#ffffff;stroke-linecap:round;stroke-width:0.8;"/>
     </g>
     <g id="text_8">
      <!-- 0.2 -->
      <g style="fill:#262626;" transform="translate(34.696875 246.512504)scale(0.1 -0.1)">
       <use xlink:href="#DejaVuSans-48"/>
       <use x="63.623047" xlink:href="#DejaVuSans-46"/>
       <use x="95.410156" xlink:href="#DejaVuSans-50"/>
      </g>
     </g>
    </g>
    <g id="ytick_4">
     <g id="line2d_9">
      <path clip-path="url(#p66cfd561cc)" d="M 57.6 210.277928 
L 414.72 210.277928 
" style="fill:none;stroke:#ffffff;stroke-linecap:round;stroke-width:0.8;"/>
     </g>
     <g id="text_9">
      <!-- 0.3 -->
      <g style="fill:#262626;" transform="translate(34.696875 214.077147)scale(0.1 -0.1)">
       <defs>
        <path d="M 40.578125 39.3125 
Q 47.65625 37.796875 51.625 33 
Q 55.609375 28.21875 55.609375 21.1875 
Q 55.609375 10.40625 48.1875 4.484375 
Q 40.765625 -1.421875 27.09375 -1.421875 
Q 22.515625 -1.421875 17.65625 -0.515625 
Q 12.796875 0.390625 7.625 2.203125 
L 7.625 11.71875 
Q 11.71875 9.328125 16.59375 8.109375 
Q 21.484375 6.890625 26.8125 6.890625 
Q 36.078125 6.890625 40.9375 10.546875 
Q 45.796875 14.203125 45.796875 21.1875 
Q 45.796875 27.640625 41.28125 31.265625 
Q 36.765625 34.90625 28.71875 34.90625 
L 20.21875 34.90625 
L 20.21875 43.015625 
L 29.109375 43.015625 
Q 36.375 43.015625 40.234375 45.921875 
Q 44.09375 48.828125 44.09375 54.296875 
Q 44.09375 59.90625 40.109375 62.90625 
Q 36.140625 65.921875 28.71875 65.921875 
Q 24.65625 65.921875 20.015625 65.03125 
Q 15.375 64.15625 9.8125 62.3125 
L 9.8125 71.09375 
Q 15.4375 72.65625 20.34375 73.4375 
Q 25.25 74.21875 29.59375 74.21875 
Q 40.828125 74.21875 47.359375 69.109375 
Q 53.90625 64.015625 53.90625 55.328125 
Q 53.90625 49.265625 50.4375 45.09375 
Q 46.96875 40.921875 40.578125 39.3125 
z
" id="DejaVuSans-51"/>
       </defs>
       <use xlink:href="#DejaVuSans-48"/>
       <use x="63.623047" xlink:href="#DejaVuSans-46"/>
       <use x="95.410156" xlink:href="#DejaVuSans-51"/>
      </g>
     </g>
    </g>
    <g id="ytick_5">
     <g id="line2d_10">
      <path clip-path="url(#p66cfd561cc)" d="M 57.6 177.842571 
L 414.72 177.842571 
" style="fill:none;stroke:#ffffff;stroke-linecap:round;stroke-width:0.8;"/>
     </g>
     <g id="text_10">
      <!-- 0.4 -->
      <g style="fill:#262626;" transform="translate(34.696875 181.64179)scale(0.1 -0.1)">
       <use xlink:href="#DejaVuSans-48"/>
       <use x="63.623047" xlink:href="#DejaVuSans-46"/>
       <use x="95.410156" xlink:href="#DejaVuSans-52"/>
      </g>
     </g>
    </g>
    <g id="ytick_6">
     <g id="line2d_11">
      <path clip-path="url(#p66cfd561cc)" d="M 57.6 145.407214 
L 414.72 145.407214 
" style="fill:none;stroke:#ffffff;stroke-linecap:round;stroke-width:0.8;"/>
     </g>
     <g id="text_11">
      <!-- 0.5 -->
      <g style="fill:#262626;" transform="translate(34.696875 149.206432)scale(0.1 -0.1)">
       <defs>
        <path d="M 10.796875 72.90625 
L 49.515625 72.90625 
L 49.515625 64.59375 
L 19.828125 64.59375 
L 19.828125 46.734375 
Q 21.96875 47.46875 24.109375 47.828125 
Q 26.265625 48.1875 28.421875 48.1875 
Q 40.625 48.1875 47.75 41.5 
Q 54.890625 34.8125 54.890625 23.390625 
Q 54.890625 11.625 47.5625 5.09375 
Q 40.234375 -1.421875 26.90625 -1.421875 
Q 22.3125 -1.421875 17.546875 -0.640625 
Q 12.796875 0.140625 7.71875 1.703125 
L 7.71875 11.625 
Q 12.109375 9.234375 16.796875 8.0625 
Q 21.484375 6.890625 26.703125 6.890625 
Q 35.15625 6.890625 40.078125 11.328125 
Q 45.015625 15.765625 45.015625 23.390625 
Q 45.015625 31 40.078125 35.4375 
Q 35.15625 39.890625 26.703125 39.890625 
Q 22.75 39.890625 18.8125 39.015625 
Q 14.890625 38.140625 10.796875 36.28125 
z
" id="DejaVuSans-53"/>
       </defs>
       <use xlink:href="#DejaVuSans-48"/>
       <use x="63.623047" xlink:href="#DejaVuSans-46"/>
       <use x="95.410156" xlink:href="#DejaVuSans-53"/>
      </g>
     </g>
    </g>
    <g id="ytick_7">
     <g id="line2d_12">
      <path clip-path="url(#p66cfd561cc)" d="M 57.6 112.971856 
L 414.72 112.971856 
" style="fill:none;stroke:#ffffff;stroke-linecap:round;stroke-width:0.8;"/>
     </g>
     <g id="text_12">
      <!-- 0.6 -->
      <g style="fill:#262626;" transform="translate(34.696875 116.771075)scale(0.1 -0.1)">
       <use xlink:href="#DejaVuSans-48"/>
       <use x="63.623047" xlink:href="#DejaVuSans-46"/>
       <use x="95.410156" xlink:href="#DejaVuSans-54"/>
      </g>
     </g>
    </g>
    <g id="ytick_8">
     <g id="line2d_13">
      <path clip-path="url(#p66cfd561cc)" d="M 57.6 80.536499 
L 414.72 80.536499 
" style="fill:none;stroke:#ffffff;stroke-linecap:round;stroke-width:0.8;"/>
     </g>
     <g id="text_13">
      <!-- 0.7 -->
      <g style="fill:#262626;" transform="translate(34.696875 84.335718)scale(0.1 -0.1)">
       <defs>
        <path d="M 8.203125 72.90625 
L 55.078125 72.90625 
L 55.078125 68.703125 
L 28.609375 0 
L 18.3125 0 
L 43.21875 64.59375 
L 8.203125 64.59375 
z
" id="DejaVuSans-55"/>
       </defs>
       <use xlink:href="#DejaVuSans-48"/>
       <use x="63.623047" xlink:href="#DejaVuSans-46"/>
       <use x="95.410156" xlink:href="#DejaVuSans-55"/>
      </g>
     </g>
    </g>
    <g id="ytick_9">
     <g id="line2d_14">
      <path clip-path="url(#p66cfd561cc)" d="M 57.6 48.101142 
L 414.72 48.101142 
" style="fill:none;stroke:#ffffff;stroke-linecap:round;stroke-width:0.8;"/>
     </g>
     <g id="text_14">
      <!-- 0.8 -->
      <g style="fill:#262626;" transform="translate(34.696875 51.90036)scale(0.1 -0.1)">
       <use xlink:href="#DejaVuSans-48"/>
       <use x="63.623047" xlink:href="#DejaVuSans-46"/>
       <use x="95.410156" xlink:href="#DejaVuSans-56"/>
      </g>
     </g>
    </g>
    <g id="text_15">
     <!-- Density -->
     <g style="fill:#262626;" transform="translate(28.617187 193.536594)rotate(-90)scale(0.1 -0.1)">
      <defs>
       <path d="M 19.671875 64.796875 
L 19.671875 8.109375 
L 31.59375 8.109375 
Q 46.6875 8.109375 53.6875 14.9375 
Q 60.6875 21.78125 60.6875 36.53125 
Q 60.6875 51.171875 53.6875 57.984375 
Q 46.6875 64.796875 31.59375 64.796875 
z
M 9.8125 72.90625 
L 30.078125 72.90625 
Q 51.265625 72.90625 61.171875 64.09375 
Q 71.09375 55.28125 71.09375 36.53125 
Q 71.09375 17.671875 61.125 8.828125 
Q 51.171875 0 30.078125 0 
L 9.8125 0 
z
" id="DejaVuSans-68"/>
       <path d="M 56.203125 29.59375 
L 56.203125 25.203125 
L 14.890625 25.203125 
Q 15.484375 15.921875 20.484375 11.0625 
Q 25.484375 6.203125 34.421875 6.203125 
Q 39.59375 6.203125 44.453125 7.46875 
Q 49.3125 8.734375 54.109375 11.28125 
L 54.109375 2.78125 
Q 49.265625 0.734375 44.1875 -0.34375 
Q 39.109375 -1.421875 33.890625 -1.421875 
Q 20.796875 -1.421875 13.15625 6.1875 
Q 5.515625 13.8125 5.515625 26.8125 
Q 5.515625 40.234375 12.765625 48.109375 
Q 20.015625 56 32.328125 56 
Q 43.359375 56 49.78125 48.890625 
Q 56.203125 41.796875 56.203125 29.59375 
z
M 47.21875 32.234375 
Q 47.125 39.59375 43.09375 43.984375 
Q 39.0625 48.390625 32.421875 48.390625 
Q 24.90625 48.390625 20.390625 44.140625 
Q 15.875 39.890625 15.1875 32.171875 
z
" id="DejaVuSans-101"/>
       <path d="M 54.890625 33.015625 
L 54.890625 0 
L 45.90625 0 
L 45.90625 32.71875 
Q 45.90625 40.484375 42.875 44.328125 
Q 39.84375 48.1875 33.796875 48.1875 
Q 26.515625 48.1875 22.3125 43.546875 
Q 18.109375 38.921875 18.109375 30.90625 
L 18.109375 0 
L 9.078125 0 
L 9.078125 54.6875 
L 18.109375 54.6875 
L 18.109375 46.1875 
Q 21.34375 51.125 25.703125 53.5625 
Q 30.078125 56 35.796875 56 
Q 45.21875 56 50.046875 50.171875 
Q 54.890625 44.34375 54.890625 33.015625 
z
" id="DejaVuSans-110"/>
       <path d="M 44.28125 53.078125 
L 44.28125 44.578125 
Q 40.484375 46.53125 36.375 47.5 
Q 32.28125 48.484375 27.875 48.484375 
Q 21.1875 48.484375 17.84375 46.4375 
Q 14.5 44.390625 14.5 40.28125 
Q 14.5 37.15625 16.890625 35.375 
Q 19.28125 33.59375 26.515625 31.984375 
L 29.59375 31.296875 
Q 39.15625 29.25 43.1875 25.515625 
Q 47.21875 21.78125 47.21875 15.09375 
Q 47.21875 7.46875 41.1875 3.015625 
Q 35.15625 -1.421875 24.609375 -1.421875 
Q 20.21875 -1.421875 15.453125 -0.5625 
Q 10.6875 0.296875 5.421875 2 
L 5.421875 11.28125 
Q 10.40625 8.6875 15.234375 7.390625 
Q 20.0625 6.109375 24.8125 6.109375 
Q 31.15625 6.109375 34.5625 8.28125 
Q 37.984375 10.453125 37.984375 14.40625 
Q 37.984375 18.0625 35.515625 20.015625 
Q 33.0625 21.96875 24.703125 23.78125 
L 21.578125 24.515625 
Q 13.234375 26.265625 9.515625 29.90625 
Q 5.8125 33.546875 5.8125 39.890625 
Q 5.8125 47.609375 11.28125 51.796875 
Q 16.75 56 26.8125 56 
Q 31.78125 56 36.171875 55.265625 
Q 40.578125 54.546875 44.28125 53.078125 
z
" id="DejaVuSans-115"/>
       <path d="M 9.421875 54.6875 
L 18.40625 54.6875 
L 18.40625 0 
L 9.421875 0 
z
M 9.421875 75.984375 
L 18.40625 75.984375 
L 18.40625 64.59375 
L 9.421875 64.59375 
z
" id="DejaVuSans-105"/>
       <path d="M 18.3125 70.21875 
L 18.3125 54.6875 
L 36.8125 54.6875 
L 36.8125 47.703125 
L 18.3125 47.703125 
L 18.3125 18.015625 
Q 18.3125 11.328125 20.140625 9.421875 
Q 21.96875 7.515625 27.59375 7.515625 
L 36.8125 7.515625 
L 36.8125 0 
L 27.59375 0 
Q 17.1875 0 13.234375 3.875 
Q 9.28125 7.765625 9.28125 18.015625 
L 9.28125 47.703125 
L 2.6875 47.703125 
L 2.6875 54.6875 
L 9.28125 54.6875 
L 9.28125 70.21875 
z
" id="DejaVuSans-116"/>
       <path d="M 32.171875 -5.078125 
Q 28.375 -14.84375 24.75 -17.8125 
Q 21.140625 -20.796875 15.09375 -20.796875 
L 7.90625 -20.796875 
L 7.90625 -13.28125 
L 13.1875 -13.28125 
Q 16.890625 -13.28125 18.9375 -11.515625 
Q 21 -9.765625 23.484375 -3.21875 
L 25.09375 0.875 
L 2.984375 54.6875 
L 12.5 54.6875 
L 29.59375 11.921875 
L 46.6875 54.6875 
L 56.203125 54.6875 
z
" id="DejaVuSans-121"/>
      </defs>
      <use xlink:href="#DejaVuSans-68"/>
      <use x="77.001953" xlink:href="#DejaVuSans-101"/>
      <use x="138.525391" xlink:href="#DejaVuSans-110"/>
      <use x="201.904297" xlink:href="#DejaVuSans-115"/>
      <use x="254.003906" xlink:href="#DejaVuSans-105"/>
      <use x="281.787109" xlink:href="#DejaVuSans-116"/>
      <use x="320.996094" xlink:href="#DejaVuSans-121"/>
     </g>
    </g>
   </g>
   <g id="line2d_15">
    <path clip-path="url(#p66cfd561cc)" d="M 74.938139 307.445369 
L 75.421177 307.166458 
L 75.904216 306.444463 
L 76.145735 305.768898 
L 76.628773 303.297914 
L 77.111812 298.370808 
L 77.59485 289.511242 
L 78.077889 275.137013 
L 78.560927 254.084434 
L 79.285485 210.16353 
L 80.976119 93.794216 
L 81.459158 72.205083 
L 81.942196 59.238158 
L 82.183715 55.825905 
L 82.425235 54.210942 
L 82.666754 54.144 
L 82.908273 55.357361 
L 83.391312 60.598552 
L 84.115869 72.506594 
L 85.323465 96.858914 
L 88.221696 157.972167 
L 89.912331 192.330799 
L 91.119927 215.80978 
L 91.844485 226.445445 
L 92.569042 234.257361 
L 93.535119 241.833009 
L 95.225754 254.220937 
L 99.5731 288.744904 
L 100.297658 291.84415 
L 101.263735 294.679313 
L 103.195888 299.682462 
L 103.920446 300.875493 
L 104.645004 301.518528 
L 105.611081 301.928513 
L 107.543234 302.523968 
L 108.267792 303.051513 
L 110.682984 305.316051 
L 111.890581 305.847927 
L 113.581215 306.355402 
L 115.27185 306.621134 
L 116.237927 306.562194 
L 118.4116 306.109968 
L 119.136157 306.364221 
L 121.30983 307.403061 
L 122.517427 307.558532 
L 123.000465 307.574331 
L 123.000465 307.574331 
" style="fill:none;stroke:#d62728;stroke-linecap:round;stroke-width:1.5;"/>
   </g>
   <g id="line2d_16">
    <path clip-path="url(#p66cfd561cc)" d="M 74.234961 307.454487 
L 74.860779 307.15653 
L 75.173688 306.839328 
L 75.486597 306.322204 
L 75.799506 305.503943 
L 76.112415 304.247252 
L 76.425325 302.373995 
L 76.738234 299.663929 
L 77.051143 295.859025 
L 77.676961 283.823527 
L 78.302779 264.115516 
L 78.928598 235.573036 
L 79.867325 179.007867 
L 81.118961 101.726327 
L 81.74478 74.774236 
L 82.370598 59.979482 
L 82.683507 57.129103 
L 82.996416 56.981329 
L 83.309325 59.163118 
L 83.622235 63.25963 
L 84.248053 75.580373 
L 85.499689 108.135561 
L 87.377144 157.708996 
L 88.315871 177.891436 
L 89.254599 193.317697 
L 90.193326 204.568206 
L 92.38369 227.625619 
L 94.886963 256.202261 
L 95.825691 264.748949 
L 96.764418 271.167971 
L 97.390236 273.837472 
L 98.016055 275.234323 
L 98.641873 275.799837 
L 99.267691 276.230914 
L 99.5806 276.611606 
L 100.206418 277.986681 
L 100.832237 280.266588 
L 101.770964 284.856261 
L 103.022601 290.902939 
L 103.648419 293.155704 
L 104.274237 294.794156 
L 105.212965 296.44678 
L 108.654965 301.30241 
L 109.280783 301.619007 
L 109.906601 301.618699 
L 111.471147 301.303997 
L 112.096965 301.534875 
L 112.722784 302.055816 
L 114.913148 304.303997 
L 115.851875 304.824852 
L 117.416421 305.613524 
L 119.919694 307.159944 
L 120.858421 307.432962 
L 122.110058 307.559124 
L 125.552058 307.560341 
L 127.116604 307.400947 
L 128.36824 307.036217 
L 130.245695 306.404805 
L 131.184422 306.410749 
L 132.12315 306.682387 
L 134.000605 307.341143 
L 135.252241 307.528126 
L 136.503878 307.576113 
L 136.503878 307.576113 
" style="fill:none;stroke:#2ca02c;stroke-linecap:round;stroke-width:1.5;"/>
   </g>
   <g id="line2d_17">
    <path clip-path="url(#p66cfd561cc)" d="M 73.832727 307.424767 
L 74.247346 307.24703 
L 74.661964 306.902024 
L 75.076583 306.263535 
L 75.491201 305.136938 
L 75.90582 303.241627 
L 76.320439 300.201515 
L 76.735057 295.552218 
L 77.149676 288.773497 
L 77.564294 279.351989 
L 78.393531 251.121675 
L 79.222768 210.551799 
L 81.295861 99.256459 
L 81.71048 84.931807 
L 82.125098 75.138178 
L 82.539717 69.91573 
L 82.954335 68.935915 
L 83.368954 71.605746 
L 83.783572 77.19182 
L 84.612809 94.141061 
L 87.929758 172.818727 
L 89.173613 194.822009 
L 90.002851 206.607319 
L 90.832088 216.059175 
L 92.075943 227.003941 
L 93.734417 241.313155 
L 94.978273 252.621529 
L 95.80751 258.584744 
L 96.636747 262.85671 
L 99.124459 273.688018 
L 100.782933 281.872759 
L 101.61217 285.204602 
L 102.856025 289.217701 
L 106.172974 298.913135 
L 106.587592 299.547829 
L 107.002211 299.95041 
L 107.416829 300.155729 
L 108.246067 300.217782 
L 109.075304 300.237579 
L 109.904541 300.485963 
L 112.392252 301.543293 
L 113.221489 301.911539 
L 114.050726 302.470867 
L 116.538437 304.401231 
L 117.782293 304.95651 
L 119.440767 305.418022 
L 122.757716 306.120652 
L 126.074664 307.403526 
L 127.733138 307.562402 
L 132.708561 307.584 
L 147.22021 307.484147 
L 149.293303 307.141742 
L 150.537158 306.987575 
L 151.781014 307.068765 
L 155.097962 307.544475 
L 156.341818 307.577331 
L 156.341818 307.577331 
" style="fill:none;stroke:#ff7f0e;stroke-linecap:round;stroke-width:1.5;"/>
   </g>
   <g id="line2d_18">
    <path clip-path="url(#p66cfd561cc)" d="M 74.129627 307.430589 
L 74.701466 307.147363 
L 75.273305 306.448082 
L 75.559225 305.811864 
L 75.845145 304.87934 
L 76.416984 301.680518 
L 76.988823 295.749188 
L 77.560662 285.743559 
L 78.132501 270.380426 
L 78.70434 248.900354 
L 79.562099 206.100446 
L 81.563535 98.057869 
L 82.135375 78.647337 
L 82.707214 67.830126 
L 82.993133 65.671494 
L 83.279053 65.544857 
L 83.564972 67.273328 
L 83.850892 70.634846 
L 84.422731 81.228795 
L 85.566409 110.535403 
L 86.996007 146.486611 
L 88.139685 169.377422 
L 89.283363 188.00256 
L 90.427041 203.522743 
L 91.856639 219.951058 
L 93.572156 237.076577 
L 95.859513 257.245819 
L 97.57503 271.249504 
L 98.718708 278.707481 
L 99.576467 282.901228 
L 100.434225 286.049893 
L 101.291984 288.435395 
L 102.149743 290.233693 
L 103.007501 291.498303 
L 104.15118 292.632854 
L 105.008938 293.559466 
L 105.866697 294.916007 
L 108.154053 299.198464 
L 109.011812 300.141769 
L 111.013249 301.672732 
L 111.871007 302.225849 
L 112.442846 302.434076 
L 113.300605 302.447626 
L 115.016122 302.196857 
L 115.587961 302.35126 
L 116.44572 302.907378 
L 118.733076 304.803433 
L 119.876755 305.357673 
L 121.878191 306.072163 
L 123.02187 306.261287 
L 125.595146 306.49613 
L 129.598019 307.52463 
L 131.027617 307.576759 
L 131.027617 307.576759 
" style="fill:none;stroke:#1f77b4;stroke-linecap:round;stroke-width:1.5;"/>
   </g>
   <g id="line2d_19">
    <path clip-path="url(#p66cfd561cc)" d="M 76.205155 307.578759 
L 79.962714 307.462523 
L 81.371799 307.266062 
L 82.780884 306.831315 
L 83.720274 306.314549 
L 84.659663 305.526683 
L 85.599053 304.378018 
L 86.538443 302.778056 
L 87.477833 300.64967 
L 88.417223 297.943328 
L 89.356613 294.646066 
L 90.765697 288.651795 
L 92.174782 281.57341 
L 94.053562 270.888875 
L 98.750511 243.241031 
L 100.159595 236.483745 
L 101.56868 230.876081 
L 102.977765 226.280455 
L 104.38685 222.528814 
L 105.326239 220.515164 
L 106.265629 218.9872 
L 107.205019 218.052043 
L 107.674714 217.833167 
L 108.144409 217.78671 
L 108.614104 217.91173 
L 109.083799 218.202572 
L 110.023189 219.239528 
L 110.962578 220.789317 
L 112.371663 223.820949 
L 113.780748 227.455428 
L 115.659527 233.07687 
L 117.538307 239.545995 
L 121.295866 253.753687 
L 125.992816 271.216367 
L 127.4019 275.696088 
L 128.810985 279.294439 
L 129.750375 281.157206 
L 130.689765 282.6508 
L 132.098849 284.436883 
L 135.856409 288.874724 
L 139.144273 293.350219 
L 141.492748 296.462635 
L 142.901832 298.084842 
L 144.310917 299.401096 
L 145.250307 300.066278 
L 146.189697 300.540117 
L 147.129086 300.818937 
L 148.538171 300.921829 
L 151.826036 300.859006 
L 152.765425 301.110812 
L 153.704815 301.554251 
L 155.1139 302.523131 
L 159.341154 305.792257 
L 160.750239 306.509757 
L 162.159324 306.990815 
L 164.038103 307.350223 
L 166.386578 307.528057 
L 169.674442 307.579926 
L 169.674442 307.579926 
" style="fill:none;stroke:#d62728;stroke-linecap:round;stroke-width:1.5;"/>
   </g>
   <g id="line2d_20">
    <path clip-path="url(#p66cfd561cc)" d="M 76.364359 307.575751 
L 79.583956 307.470027 
L 81.515715 307.167879 
L 82.803554 306.696644 
L 84.091392 305.834451 
L 84.735312 305.194528 
L 85.379231 304.377595 
L 86.023151 303.354102 
L 86.66707 302.095252 
L 87.954909 298.771228 
L 89.242748 294.264135 
L 90.530587 288.571676 
L 91.818425 281.874257 
L 96.969781 253.235287 
L 98.25762 247.468446 
L 99.545459 242.452168 
L 101.477217 235.979687 
L 103.408975 230.401927 
L 104.696814 227.222391 
L 105.984653 224.685638 
L 106.628572 223.737804 
L 107.272492 223.046261 
L 107.916411 222.63802 
L 108.56033 222.532762 
L 109.20425 222.740511 
L 109.848169 223.260119 
L 110.492089 224.078844 
L 111.136008 225.173175 
L 112.423847 228.053789 
L 113.711686 231.594664 
L 116.287363 239.563552 
L 123.370477 262.001343 
L 125.302235 267.229436 
L 127.233994 271.672714 
L 129.809671 276.834151 
L 131.74143 280.296807 
L 133.029268 282.259271 
L 134.317107 283.843979 
L 135.604946 285.093203 
L 138.180624 287.366986 
L 139.468463 288.809318 
L 140.756302 290.549163 
L 145.263737 297.122777 
L 147.195496 299.323315 
L 149.127254 301.111135 
L 151.059012 302.604201 
L 152.990771 303.812804 
L 154.922529 304.68141 
L 156.854287 305.224243 
L 166.513078 307.06779 
L 169.088756 307.214763 
L 174.884031 307.179905 
L 183.898903 306.922316 
L 190.982016 307.223606 
L 196.133372 307.344581 
L 202.572566 307.569763 
L 204.504324 307.58062 
L 204.504324 307.58062 
" style="fill:none;stroke:#2ca02c;stroke-linecap:round;stroke-width:1.5;"/>
   </g>
   <g id="line2d_21">
    <path clip-path="url(#p66cfd561cc)" d="M 76.878052 307.578532 
L 80.845703 307.453672 
L 82.546125 307.222272 
L 83.67974 306.927034 
L 84.813354 306.447298 
L 85.946969 305.682738 
L 87.080583 304.482751 
L 88.214198 302.648398 
L 89.347812 299.967177 
L 90.481427 296.280441 
L 91.615041 291.55349 
L 92.748656 285.899071 
L 94.449078 276.127153 
L 96.716307 261.418033 
L 98.983536 244.907247 
L 101.817572 223.787149 
L 102.951187 216.637723 
L 104.084801 210.990437 
L 104.651609 208.843135 
L 105.218416 207.181526 
L 105.785223 206.013702 
L 106.352031 205.333309 
L 106.918838 205.12065 
L 107.485645 205.344789 
L 108.052452 205.966489 
L 108.61926 206.941671 
L 109.752874 209.773109 
L 110.886489 213.513628 
L 112.586911 220.323865 
L 114.85414 230.874588 
L 118.821791 250.060445 
L 120.522212 257.197744 
L 122.222634 263.191373 
L 123.923056 268.066483 
L 125.623478 272.068901 
L 127.3239 275.365016 
L 128.457514 277.168384 
L 130.157936 279.34831 
L 132.991972 282.678509 
L 134.692394 285.22108 
L 140.360467 294.553121 
L 143.194503 298.567558 
L 144.328118 299.916351 
L 145.461732 300.94641 
L 146.595347 301.590136 
L 147.728961 301.884967 
L 151.696612 302.392827 
L 152.830227 302.903742 
L 154.530649 303.957151 
L 156.797878 305.377522 
L 158.498299 306.116974 
L 160.198721 306.525685 
L 163.599565 306.930137 
L 168.134023 307.406961 
L 170.401252 307.423144 
L 174.93571 307.12965 
L 178.336554 307.062298 
L 181.737398 307.252894 
L 186.271856 307.533934 
L 189.672699 307.580208 
L 189.672699 307.580208 
" style="fill:none;stroke:#ff7f0e;stroke-linecap:round;stroke-width:1.5;"/>
   </g>
   <g id="line2d_22">
    <path clip-path="url(#p66cfd561cc)" d="M 75.474913 307.578562 
L 79.4694 307.454385 
L 81.181323 307.189761 
L 82.322606 306.815277 
L 83.463888 306.167202 
L 84.60517 305.111755 
L 85.746452 303.494288 
L 86.887734 301.161829 
L 88.029016 297.995255 
L 89.170298 293.942406 
L 90.31158 289.040251 
L 92.023503 280.395281 
L 97.729913 249.395011 
L 99.441837 241.969451 
L 100.583119 237.861456 
L 101.724401 234.477485 
L 102.865683 231.836183 
L 104.006965 229.937455 
L 104.577606 229.25953 
L 105.148247 228.754351 
L 105.718888 228.412543 
L 106.289529 228.222367 
L 106.86017 228.170363 
L 108.001452 228.424606 
L 109.142734 229.073866 
L 110.284016 230.052265 
L 111.425298 231.333764 
L 112.56658 232.912697 
L 113.707862 234.781142 
L 115.419785 238.085039 
L 117.131709 241.912987 
L 119.414273 247.601038 
L 128.544529 270.933111 
L 130.827093 276.055263 
L 133.680298 281.939309 
L 135.962863 286.244758 
L 137.674786 289.090147 
L 139.386709 291.510423 
L 141.098632 293.512265 
L 143.381196 295.734898 
L 146.234401 298.161564 
L 148.516965 299.851627 
L 153.652735 303.241862 
L 155.935299 304.527043 
L 157.647222 305.157924 
L 158.788504 305.37299 
L 160.500427 305.438099 
L 163.353632 305.41173 
L 165.065555 305.657643 
L 167.348119 306.294897 
L 169.630684 306.899886 
L 171.342607 307.13043 
L 173.625171 307.13546 
L 177.619658 306.987134 
L 180.472863 307.171521 
L 185.037991 307.515129 
L 189.032479 307.579776 
L 189.032479 307.579776 
" style="fill:none;stroke:#1f77b4;stroke-linecap:round;stroke-width:1.5;"/>
   </g>
   <g id="line2d_23">
    <path clip-path="url(#p66cfd561cc)" d="M 82.884384 307.581173 
L 90.219163 307.464538 
L 93.153075 307.239214 
L 95.353509 306.891628 
L 97.553942 306.269114 
L 99.020898 305.619301 
L 100.487854 304.710716 
L 101.95481 303.480575 
L 103.421766 301.8751 
L 104.888721 299.859732 
L 106.355677 297.425788 
L 107.822633 294.59002 
L 110.023067 289.658541 
L 112.223501 284.029541 
L 115.157412 275.717592 
L 118.824802 265.245108 
L 120.291758 261.548994 
L 121.758713 258.320411 
L 123.225669 255.58285 
L 124.692625 253.302008 
L 126.159581 251.436025 
L 127.626537 249.982003 
L 129.093492 248.990048 
L 129.82697 248.691642 
L 130.560448 248.536912 
L 131.293926 248.531084 
L 132.027404 248.674534 
L 132.760882 248.961756 
L 134.227838 249.914142 
L 135.694794 251.226163 
L 138.628705 254.046523 
L 140.095661 255.171564 
L 141.562617 255.988863 
L 143.029573 256.543386 
L 145.963484 257.46062 
L 147.43044 258.2181 
L 148.897396 259.421934 
L 150.364352 261.190797 
L 151.831308 263.555837 
L 153.298263 266.447815 
L 155.498697 271.405236 
L 158.432609 278.007041 
L 159.899565 280.881646 
L 161.36652 283.35377 
L 162.833476 285.437836 
L 164.300432 287.204615 
L 166.500866 289.45683 
L 169.434777 292.069068 
L 173.835645 295.609241 
L 178.236512 298.923361 
L 180.436946 300.335176 
L 182.63738 301.435693 
L 184.837814 302.255429 
L 188.505203 303.322593 
L 191.439115 304.007871 
L 194.373026 304.469607 
L 200.24085 305.285317 
L 206.108673 306.272437 
L 210.50954 306.727475 
L 219.311275 307.393604 
L 224.445621 307.554317 
L 228.846488 307.581292 
L 228.846488 307.581292 
" style="fill:none;stroke:#d62728;stroke-linecap:round;stroke-width:1.5;"/>
   </g>
   <g id="line2d_24">
    <path clip-path="url(#p66cfd561cc)" d="M 86.140068 307.578563 
L 91.599234 307.463942 
L 94.328817 307.209324 
L 96.376004 306.822461 
L 98.423191 306.180129 
L 99.787983 305.560639 
L 101.152774 304.743097 
L 102.517566 303.677928 
L 103.882357 302.306088 
L 105.247149 300.564328 
L 106.61194 298.397282 
L 107.976732 295.776271 
L 109.341523 292.720423 
L 111.38871 287.516099 
L 115.483085 276.818294 
L 117.530272 272.172798 
L 126.401417 253.667627 
L 127.766208 251.22219 
L 129.131 249.334451 
L 129.813396 248.638923 
L 130.495791 248.114864 
L 131.178187 247.756234 
L 131.860583 247.549122 
L 133.225374 247.503038 
L 134.590166 247.77233 
L 140.731727 249.524202 
L 142.096519 250.247835 
L 143.46131 251.335563 
L 144.826102 252.829032 
L 146.190893 254.699297 
L 148.238081 258.037175 
L 151.650059 264.268179 
L 154.379642 269.173727 
L 156.42683 272.492541 
L 158.474017 275.429865 
L 163.933183 282.899648 
L 166.662766 287.253829 
L 170.074744 292.653003 
L 172.121932 295.4671 
L 174.169119 297.885428 
L 176.216306 299.900311 
L 177.581098 300.991842 
L 178.945889 301.854664 
L 180.310681 302.478555 
L 181.675472 302.879333 
L 183.722659 303.166625 
L 190.546617 303.705487 
L 200.100157 304.989121 
L 204.876927 306.085616 
L 208.288906 306.7866 
L 211.700885 307.24683 
L 215.112863 307.47891 
L 220.572029 307.577048 
L 221.936821 307.581081 
L 221.936821 307.581081 
" style="fill:none;stroke:#2ca02c;stroke-linecap:round;stroke-width:1.5;"/>
   </g>
   <g id="line2d_25">
    <path clip-path="url(#p66cfd561cc)" d="M 87.929573 307.576467 
L 92.570875 307.467005 
L 94.891527 307.236159 
L 96.438628 306.926056 
L 97.985728 306.414281 
L 99.532829 305.614572 
L 101.07993 304.424703 
L 102.627031 302.737095 
L 104.174132 300.46245 
L 105.721233 297.564508 
L 107.268334 294.092225 
L 109.588985 288.135044 
L 115.003838 273.81132 
L 119.64514 262.221536 
L 121.965792 257.004889 
L 123.512893 254.084366 
L 125.059993 251.715521 
L 126.607094 249.870069 
L 128.154195 248.446723 
L 129.701296 247.342274 
L 131.248397 246.513971 
L 132.795498 246.001618 
L 133.569048 245.894152 
L 134.342598 245.905469 
L 135.116149 246.049464 
L 135.889699 246.337427 
L 136.66325 246.776794 
L 137.4368 247.370327 
L 138.983901 249.006011 
L 140.531002 251.171083 
L 142.078103 253.73527 
L 145.945855 260.860152 
L 149.040057 266.289464 
L 152.134258 271.18738 
L 156.00201 276.846171 
L 160.643313 283.165662 
L 163.737515 287.023938 
L 165.284615 288.70496 
L 166.831716 290.143834 
L 168.378817 291.337128 
L 171.473019 293.298273 
L 173.79367 294.868403 
L 176.114321 296.761613 
L 179.982074 300.002603 
L 181.529174 301.036198 
L 183.076275 301.863826 
L 185.396927 302.800123 
L 188.491128 303.741487 
L 192.35888 304.679091 
L 196.226633 305.350961 
L 207.829889 306.854248 
L 212.471191 307.299396 
L 217.112494 307.501954 
L 221.753797 307.469015 
L 229.489301 307.364886 
L 241.866108 307.581376 
L 241.866108 307.581376 
" style="fill:none;stroke:#ff7f0e;stroke-linecap:round;stroke-width:1.5;"/>
   </g>
   <g id="line2d_26">
    <path clip-path="url(#p66cfd561cc)" d="M 82.509451 307.58119 
L 89.572183 307.472054 
L 92.711175 307.234264 
L 95.065419 306.852295 
L 96.634915 306.441056 
L 98.204411 305.866242 
L 99.773907 305.102207 
L 101.343403 304.123315 
L 102.912899 302.881184 
L 104.482395 301.27816 
L 106.051891 299.162724 
L 107.621387 296.367698 
L 109.190883 292.786743 
L 110.760379 288.45398 
L 113.114623 281.039104 
L 116.253616 271.233478 
L 117.823112 266.919829 
L 120.177356 261.179538 
L 124.101096 252.395421 
L 126.45534 247.474222 
L 128.024836 244.601276 
L 129.594332 242.226834 
L 131.163828 240.463692 
L 131.948576 239.845572 
L 132.733324 239.425383 
L 133.518072 239.223511 
L 134.30282 239.262318 
L 135.087568 239.563896 
L 135.872316 240.146877 
L 136.657064 241.022805 
L 137.441812 242.192729 
L 138.22656 243.644682 
L 139.796056 247.276465 
L 142.1503 253.794266 
L 144.504544 260.147811 
L 146.07404 263.63117 
L 147.643536 266.319729 
L 149.213032 268.302305 
L 151.567276 270.587835 
L 153.136772 272.192564 
L 154.706269 274.208469 
L 156.275765 276.735627 
L 158.630009 281.203696 
L 160.984253 285.639584 
L 162.553749 288.125991 
L 164.123245 290.080036 
L 165.692741 291.519533 
L 167.262237 292.553327 
L 169.616481 293.658014 
L 173.540221 295.312144 
L 175.894465 296.570271 
L 178.248709 298.094695 
L 184.526693 302.493581 
L 186.880937 303.748519 
L 189.235181 304.655474 
L 191.589425 305.272504 
L 194.728418 305.835169 
L 200.221654 306.595508 
L 203.360646 306.853535 
L 211.992874 307.146268 
L 217.48611 307.227917 
L 226.903086 307.3349 
L 236.320063 307.572919 
L 238.674307 307.58129 
L 238.674307 307.58129 
" style="fill:none;stroke:#1f77b4;stroke-linecap:round;stroke-width:1.5;"/>
   </g>
   <g id="line2d_27">
    <path clip-path="url(#p66cfd561cc)" d="M 100.239213 307.580056 
L 107.515824 307.468873 
L 111.15413 307.170358 
L 112.973283 306.861589 
L 114.792435 306.381474 
L 116.611588 305.669095 
L 118.430741 304.659394 
L 120.249894 303.292796 
L 122.069047 301.529005 
L 123.888199 299.362696 
L 125.707352 296.835686 
L 128.436081 292.574367 
L 134.803116 282.329799 
L 139.350998 275.476659 
L 142.079727 271.61734 
L 144.808457 268.199538 
L 146.627609 266.252079 
L 148.446762 264.566526 
L 151.175491 262.429993 
L 153.904221 260.631918 
L 156.63295 259.163001 
L 158.452103 258.448066 
L 160.271255 258.038073 
L 162.090408 258.013726 
L 162.999985 258.16508 
L 164.819137 258.810467 
L 166.63829 259.897353 
L 168.457443 261.365419 
L 170.276596 263.119837 
L 173.005325 266.064092 
L 178.462783 272.359724 
L 188.468124 284.220066 
L 190.287277 285.963776 
L 192.106429 287.470188 
L 194.835159 289.347963 
L 201.202193 293.368907 
L 208.478805 298.613187 
L 211.207534 300.102272 
L 213.936263 301.303671 
L 220.303298 303.787128 
L 223.032027 304.697953 
L 225.760756 305.361945 
L 228.489485 305.737224 
L 231.218215 305.882536 
L 239.404402 306.13293 
L 244.861861 306.677902 
L 249.409743 307.04908 
L 253.048048 307.097667 
L 263.053389 306.88555 
L 268.510847 307.237533 
L 273.968305 307.505956 
L 281.244917 307.580925 
L 281.244917 307.580925 
" style="fill:none;stroke:#d62728;stroke-linecap:round;stroke-width:1.5;"/>
   </g>
   <g id="line2d_28">
    <path clip-path="url(#p66cfd561cc)" d="M 93.347471 307.581266 
L 101.75368 307.464372 
L 105.956785 307.189132 
L 110.159889 306.667058 
L 113.522373 306.036197 
L 116.044236 305.369321 
L 118.566099 304.454011 
L 121.087961 303.215391 
L 122.769203 302.163165 
L 124.450445 300.87608 
L 126.131687 299.29001 
L 127.812929 297.338888 
L 129.494171 294.977878 
L 131.175413 292.204764 
L 133.697275 287.394039 
L 142.944106 268.605028 
L 145.465968 264.33742 
L 147.14721 261.850057 
L 148.828452 259.731286 
L 150.509694 258.054334 
L 152.190936 256.863574 
L 153.872178 256.15385 
L 155.55342 255.86925 
L 157.234661 255.921669 
L 158.915903 256.220838 
L 160.597145 256.703535 
L 162.278387 257.350253 
L 163.959629 258.182111 
L 165.640871 259.239293 
L 167.322113 260.551664 
L 169.003354 262.116475 
L 171.525217 264.840342 
L 179.090806 273.530084 
L 183.29391 277.752952 
L 187.497015 282.012058 
L 195.903224 290.884747 
L 198.425087 293.176038 
L 200.94695 295.150323 
L 203.468813 296.776483 
L 205.990675 298.087073 
L 209.353159 299.496144 
L 215.237506 301.598394 
L 220.281231 303.22465 
L 223.643715 304.09428 
L 227.84682 304.92118 
L 239.615513 306.97542 
L 242.977996 307.226878 
L 250.543585 307.475934 
L 258.949794 307.578573 
L 260.631036 307.581733 
L 260.631036 307.581733 
" style="fill:none;stroke:#2ca02c;stroke-linecap:round;stroke-width:1.5;"/>
   </g>
   <g id="line2d_29">
    <path clip-path="url(#p66cfd561cc)" d="M 96.932091 307.581407 
L 105.624788 307.466067 
L 110.840407 307.177083 
L 114.317485 306.804033 
L 116.056025 306.472702 
L 117.794564 305.951719 
L 119.533104 305.151648 
L 121.271643 303.988338 
L 123.010182 302.402418 
L 124.748722 300.371277 
L 126.487261 297.910756 
L 128.225801 295.071117 
L 130.83361 290.284905 
L 140.395577 271.61782 
L 144.741925 262.972961 
L 146.480464 260.138167 
L 147.349734 259.015336 
L 148.219004 258.126028 
L 149.088274 257.480368 
L 149.957543 257.071987 
L 150.826813 256.878512 
L 151.696083 256.864063 
L 153.434622 257.186552 
L 156.042431 257.842579 
L 157.780971 258.013499 
L 159.51951 257.900999 
L 163.865859 257.306279 
L 165.604398 257.433441 
L 166.473668 257.651665 
L 167.342937 257.989957 
L 168.212207 258.457374 
L 169.081477 259.059789 
L 170.820016 260.674561 
L 172.558556 262.801015 
L 174.297095 265.334425 
L 182.120522 277.472107 
L 184.728332 280.816987 
L 188.20541 284.812612 
L 190.813219 287.511279 
L 193.421029 289.941736 
L 196.028838 292.097004 
L 198.636647 293.952049 
L 201.244456 295.51874 
L 210.806423 300.648026 
L 214.283501 302.35061 
L 217.76058 303.818514 
L 221.237659 305.095554 
L 223.845468 305.848763 
L 226.453277 306.367091 
L 229.930356 306.787353 
L 235.145974 307.169933 
L 240.361593 307.308914 
L 253.400638 307.356881 
L 260.354796 307.475582 
L 269.047493 307.580133 
L 269.916763 307.58162 
L 269.916763 307.58162 
" style="fill:none;stroke:#ff7f0e;stroke-linecap:round;stroke-width:1.5;"/>
   </g>
   <g id="line2d_30">
    <path clip-path="url(#p66cfd561cc)" d="M 99.402358 307.579211 
L 105.791491 307.465886 
L 108.529691 307.258239 
L 111.267891 306.845253 
L 114.00609 306.171725 
L 116.74429 305.221331 
L 119.48249 303.960557 
L 121.307956 302.897286 
L 123.133423 301.609243 
L 124.958889 300.072182 
L 126.784356 298.288402 
L 128.609822 296.274799 
L 130.435289 294.033528 
L 132.260755 291.529819 
L 134.086222 288.703049 
L 135.911688 285.514393 
L 138.649888 280.166441 
L 142.300821 272.868022 
L 144.126288 269.557932 
L 145.951754 266.575561 
L 148.689954 262.639126 
L 150.51542 260.335075 
L 152.340887 258.356042 
L 154.166353 256.832696 
L 155.079087 256.279518 
L 155.99182 255.874774 
L 156.904553 255.615588 
L 157.817286 255.490767 
L 159.642753 255.566467 
L 161.468219 255.91825 
L 165.119152 256.926952 
L 166.944619 257.612452 
L 168.770085 258.604909 
L 170.595552 260.053468 
L 172.421018 262.008574 
L 174.246485 264.381418 
L 178.810151 270.731682 
L 180.635618 272.912286 
L 182.461084 274.778005 
L 185.199284 277.180891 
L 187.937484 279.579257 
L 189.76295 281.423737 
L 191.588417 283.55637 
L 194.326617 287.244012 
L 199.803016 294.960567 
L 201.628483 297.182597 
L 203.453949 299.104002 
L 205.279416 300.698166 
L 207.104882 301.960915 
L 208.930349 302.905491 
L 210.755815 303.557506 
L 212.581282 303.948738 
L 214.406748 304.113272 
L 216.232215 304.089926 
L 218.970414 303.820296 
L 222.621347 303.43769 
L 224.446814 303.432952 
L 226.27228 303.62761 
L 228.097747 304.016475 
L 231.74868 305.130481 
L 235.399613 306.189602 
L 238.137813 306.750495 
L 240.876012 307.102228 
L 244.526945 307.308258 
L 250.003345 307.321594 
L 266.432543 307.280473 
L 276.472609 307.561826 
L 281.036275 307.581584 
L 281.036275 307.581584 
" style="fill:none;stroke:#1f77b4;stroke-linecap:round;stroke-width:1.5;"/>
   </g>
   <g id="line2d_31">
    <path clip-path="url(#p66cfd561cc)" d="M 118.741982 307.581285 
L 129.873132 307.469338 
L 136.551823 307.196521 
L 141.004283 306.818922 
L 143.230513 306.477064 
L 145.456743 305.960995 
L 147.682973 305.225929 
L 149.909203 304.258569 
L 152.135433 303.086938 
L 156.587893 300.382621 
L 163.266583 296.025233 
L 166.605928 293.556148 
L 169.945273 290.747189 
L 175.510848 285.610713 
L 182.189538 279.582631 
L 191.094458 271.654185 
L 193.320688 270.092856 
L 195.546918 268.913451 
L 197.773148 268.119279 
L 199.999378 267.657676 
L 202.225608 267.475622 
L 204.451838 267.558564 
L 206.678068 267.924576 
L 208.904298 268.582983 
L 211.130528 269.491436 
L 218.922334 273.052464 
L 223.374794 274.941993 
L 225.601024 276.173723 
L 227.827254 277.703871 
L 231.166599 280.413463 
L 235.619059 284.078651 
L 238.958404 286.524611 
L 245.637094 291.266705 
L 255.655129 298.835213 
L 257.881359 300.094181 
L 260.107589 301.088702 
L 262.333819 301.847522 
L 265.673164 302.6936 
L 276.804314 305.035603 
L 280.143659 305.549415 
L 284.596119 305.983012 
L 305.745305 307.297661 
L 312.423995 307.306119 
L 321.328915 307.347884 
L 336.912525 307.576687 
L 340.25187 307.582128 
L 340.25187 307.582128 
" style="fill:none;stroke:#d62728;stroke-linecap:round;stroke-width:1.5;"/>
   </g>
   <g id="line2d_32">
    <path clip-path="url(#p66cfd561cc)" d="M 116.39282 307.582124 
L 129.608469 307.462825 
L 137.160269 307.161118 
L 141.880144 306.730284 
L 145.656044 306.114874 
L 148.487969 305.43984 
L 151.319894 304.546653 
L 154.151818 303.398189 
L 156.983743 301.944743 
L 158.871693 300.776461 
L 160.759643 299.428529 
L 162.647593 297.889965 
L 165.479518 295.227667 
L 168.311443 292.193623 
L 172.087343 287.771889 
L 177.751192 281.111663 
L 180.583117 278.12734 
L 183.415042 275.489495 
L 186.246967 273.149401 
L 190.022867 270.340853 
L 192.854792 268.503041 
L 194.742742 267.516254 
L 196.630692 266.819046 
L 198.518642 266.480788 
L 200.406592 266.531656 
L 202.294541 266.952382 
L 204.182491 267.678943 
L 207.014416 269.139419 
L 217.398141 275.184394 
L 223.061991 278.505214 
L 225.893916 279.844993 
L 228.72584 280.864037 
L 235.333665 282.987946 
L 237.221615 283.864357 
L 239.109565 284.957149 
L 240.997515 286.276986 
L 243.82944 288.630496 
L 251.381239 295.450181 
L 253.269189 296.829618 
L 255.157139 297.970965 
L 257.045089 298.878747 
L 259.877014 299.893463 
L 264.596889 301.16625 
L 277.812538 304.529135 
L 286.308313 306.408794 
L 290.084213 307.010767 
L 293.860113 307.362068 
L 298.579988 307.536551 
L 304.243837 307.579745 
L 304.243837 307.579745 
" style="fill:none;stroke:#2ca02c;stroke-linecap:round;stroke-width:1.5;"/>
   </g>
   <g id="line2d_33">
    <path clip-path="url(#p66cfd561cc)" d="M 122.537714 307.581996 
L 133.631164 307.480183 
L 139.177888 307.212314 
L 143.337932 306.749903 
L 146.111294 306.195707 
L 148.884657 305.314639 
L 150.271338 304.711719 
L 151.658019 303.983531 
L 154.431382 302.136653 
L 157.204744 299.833456 
L 165.524831 292.283559 
L 173.844918 285.559815 
L 176.618281 282.85622 
L 179.391643 279.785413 
L 187.71173 270.161371 
L 190.485093 267.312675 
L 193.258455 264.793289 
L 194.645136 263.707247 
L 196.031818 262.772376 
L 197.418499 262.015614 
L 198.80518 261.460553 
L 200.191861 261.125728 
L 201.578542 261.024389 
L 202.965224 261.165271 
L 204.351905 261.553387 
L 205.738586 262.189882 
L 207.125267 263.070404 
L 208.511948 264.182204 
L 209.89863 265.500926 
L 212.671992 268.593719 
L 216.832036 273.505841 
L 219.605398 276.365039 
L 222.37876 278.774644 
L 227.925485 283.273131 
L 232.085529 287.102038 
L 234.858891 289.667274 
L 237.632254 291.926415 
L 239.018935 292.873821 
L 240.405616 293.682322 
L 241.792297 294.353294 
L 244.56566 295.348188 
L 251.499066 297.358874 
L 254.272428 298.560567 
L 261.205834 301.989945 
L 263.979196 303.016399 
L 266.752559 303.758807 
L 270.912602 304.526492 
L 275.072646 305.077407 
L 294.486183 307.086751 
L 298.646226 307.232912 
L 311.126357 307.373041 
L 320.833126 307.565907 
L 344.406706 307.584 
L 372.14033 307.478566 
L 381.847098 307.434784 
L 398.487273 307.582128 
L 398.487273 307.582128 
" style="fill:none;stroke:#ff7f0e;stroke-linecap:round;stroke-width:1.5;"/>
   </g>
   <g id="line2d_34">
    <path clip-path="url(#p66cfd561cc)" d="M 116.771545 307.582176 
L 129.736428 307.470039 
L 135.138463 307.233857 
L 138.379684 306.927492 
L 141.620904 306.390082 
L 144.862125 305.543561 
L 148.103346 304.392459 
L 152.424974 302.552904 
L 156.746601 300.495435 
L 159.987822 298.675564 
L 162.148636 297.237811 
L 164.30945 295.591166 
L 167.55067 292.762055 
L 170.791891 289.618568 
L 175.113519 285.128822 
L 179.435146 280.327983 
L 183.756774 275.168932 
L 188.078402 270.004093 
L 190.239216 267.740129 
L 192.400029 265.917762 
L 193.480436 265.217864 
L 194.560843 264.674715 
L 195.64125 264.293486 
L 196.721657 264.073809 
L 197.802064 264.010274 
L 198.882471 264.093339 
L 199.962878 264.310484 
L 202.123692 265.089192 
L 204.284506 266.228938 
L 206.445319 267.622132 
L 209.68654 269.9896 
L 216.168982 274.819881 
L 219.410202 276.948093 
L 223.73183 279.454917 
L 229.133865 282.552322 
L 232.375085 284.700445 
L 242.098748 291.592251 
L 245.339968 293.307733 
L 249.661596 295.213272 
L 253.983224 297.162589 
L 265.8677 302.837281 
L 268.028514 303.549525 
L 270.189327 304.088037 
L 272.350141 304.459736 
L 275.591362 304.77044 
L 286.395431 305.438589 
L 296.119093 306.374673 
L 303.681942 306.759312 
L 324.209673 307.543587 
L 331.772522 307.581566 
L 331.772522 307.581566 
" style="fill:none;stroke:#1f77b4;stroke-linecap:round;stroke-width:1.5;"/>
   </g>
   <g id="patch_3">
    <path d="M 57.6 307.584 
L 57.6 41.472 
" style="fill:none;stroke:#ffffff;stroke-linecap:square;stroke-linejoin:miter;stroke-width:0.8;"/>
   </g>
   <g id="patch_4">
    <path d="M 414.72 307.584 
L 414.72 41.472 
" style="fill:none;stroke:#ffffff;stroke-linecap:square;stroke-linejoin:miter;stroke-width:0.8;"/>
   </g>
   <g id="patch_5">
    <path d="M 57.6 307.584 
L 414.72 307.584 
" style="fill:none;stroke:#ffffff;stroke-linecap:square;stroke-linejoin:miter;stroke-width:0.8;"/>
   </g>
   <g id="patch_6">
    <path d="M 57.6 41.472 
L 414.72 41.472 
" style="fill:none;stroke:#ffffff;stroke-linecap:square;stroke-linejoin:miter;stroke-width:0.8;"/>
   </g>
   <g id="text_16">
    <!-- Density plots of PG(h, 0) using each method for h $\in$ {1,4,7,10,15}. -->
    <g style="fill:#262626;" transform="translate(32.22 35.472)scale(0.12 -0.12)">
     <defs>
      <path id="DejaVuSans-32"/>
      <path d="M 18.109375 8.203125 
L 18.109375 -20.796875 
L 9.078125 -20.796875 
L 9.078125 54.6875 
L 18.109375 54.6875 
L 18.109375 46.390625 
Q 20.953125 51.265625 25.265625 53.625 
Q 29.59375 56 35.59375 56 
Q 45.5625 56 51.78125 48.09375 
Q 58.015625 40.1875 58.015625 27.296875 
Q 58.015625 14.40625 51.78125 6.484375 
Q 45.5625 -1.421875 35.59375 -1.421875 
Q 29.59375 -1.421875 25.265625 0.953125 
Q 20.953125 3.328125 18.109375 8.203125 
z
M 48.6875 27.296875 
Q 48.6875 37.203125 44.609375 42.84375 
Q 40.53125 48.484375 33.40625 48.484375 
Q 26.265625 48.484375 22.1875 42.84375 
Q 18.109375 37.203125 18.109375 27.296875 
Q 18.109375 17.390625 22.1875 11.75 
Q 26.265625 6.109375 33.40625 6.109375 
Q 40.53125 6.109375 44.609375 11.75 
Q 48.6875 17.390625 48.6875 27.296875 
z
" id="DejaVuSans-112"/>
      <path d="M 9.421875 75.984375 
L 18.40625 75.984375 
L 18.40625 0 
L 9.421875 0 
z
" id="DejaVuSans-108"/>
      <path d="M 30.609375 48.390625 
Q 23.390625 48.390625 19.1875 42.75 
Q 14.984375 37.109375 14.984375 27.296875 
Q 14.984375 17.484375 19.15625 11.84375 
Q 23.34375 6.203125 30.609375 6.203125 
Q 37.796875 6.203125 41.984375 11.859375 
Q 46.1875 17.53125 46.1875 27.296875 
Q 46.1875 37.015625 41.984375 42.703125 
Q 37.796875 48.390625 30.609375 48.390625 
z
M 30.609375 56 
Q 42.328125 56 49.015625 48.375 
Q 55.71875 40.765625 55.71875 27.296875 
Q 55.71875 13.875 49.015625 6.21875 
Q 42.328125 -1.421875 30.609375 -1.421875 
Q 18.84375 -1.421875 12.171875 6.21875 
Q 5.515625 13.875 5.515625 27.296875 
Q 5.515625 40.765625 12.171875 48.375 
Q 18.84375 56 30.609375 56 
z
" id="DejaVuSans-111"/>
      <path d="M 37.109375 75.984375 
L 37.109375 68.5 
L 28.515625 68.5 
Q 23.6875 68.5 21.796875 66.546875 
Q 19.921875 64.59375 19.921875 59.515625 
L 19.921875 54.6875 
L 34.71875 54.6875 
L 34.71875 47.703125 
L 19.921875 47.703125 
L 19.921875 0 
L 10.890625 0 
L 10.890625 47.703125 
L 2.296875 47.703125 
L 2.296875 54.6875 
L 10.890625 54.6875 
L 10.890625 58.5 
Q 10.890625 67.625 15.140625 71.796875 
Q 19.390625 75.984375 28.609375 75.984375 
z
" id="DejaVuSans-102"/>
      <path d="M 19.671875 64.796875 
L 19.671875 37.40625 
L 32.078125 37.40625 
Q 38.96875 37.40625 42.71875 40.96875 
Q 46.484375 44.53125 46.484375 51.125 
Q 46.484375 57.671875 42.71875 61.234375 
Q 38.96875 64.796875 32.078125 64.796875 
z
M 9.8125 72.90625 
L 32.078125 72.90625 
Q 44.34375 72.90625 50.609375 67.359375 
Q 56.890625 61.8125 56.890625 51.125 
Q 56.890625 40.328125 50.609375 34.8125 
Q 44.34375 29.296875 32.078125 29.296875 
L 19.671875 29.296875 
L 19.671875 0 
L 9.8125 0 
z
" id="DejaVuSans-80"/>
      <path d="M 59.515625 10.40625 
L 59.515625 29.984375 
L 43.40625 29.984375 
L 43.40625 38.09375 
L 69.28125 38.09375 
L 69.28125 6.78125 
Q 63.578125 2.734375 56.6875 0.65625 
Q 49.8125 -1.421875 42 -1.421875 
Q 24.90625 -1.421875 15.25 8.5625 
Q 5.609375 18.5625 5.609375 36.375 
Q 5.609375 54.25 15.25 64.234375 
Q 24.90625 74.21875 42 74.21875 
Q 49.125 74.21875 55.546875 72.453125 
Q 61.96875 70.703125 67.390625 67.28125 
L 67.390625 56.78125 
Q 61.921875 61.421875 55.765625 63.765625 
Q 49.609375 66.109375 42.828125 66.109375 
Q 29.4375 66.109375 22.71875 58.640625 
Q 16.015625 51.171875 16.015625 36.375 
Q 16.015625 21.625 22.71875 14.15625 
Q 29.4375 6.6875 42.828125 6.6875 
Q 48.046875 6.6875 52.140625 7.59375 
Q 56.25 8.5 59.515625 10.40625 
z
" id="DejaVuSans-71"/>
      <path d="M 31 75.875 
Q 24.46875 64.65625 21.28125 53.65625 
Q 18.109375 42.671875 18.109375 31.390625 
Q 18.109375 20.125 21.3125 9.0625 
Q 24.515625 -2 31 -13.1875 
L 23.1875 -13.1875 
Q 15.875 -1.703125 12.234375 9.375 
Q 8.59375 20.453125 8.59375 31.390625 
Q 8.59375 42.28125 12.203125 53.3125 
Q 15.828125 64.359375 23.1875 75.875 
z
" id="DejaVuSans-40"/>
      <path d="M 54.890625 33.015625 
L 54.890625 0 
L 45.90625 0 
L 45.90625 32.71875 
Q 45.90625 40.484375 42.875 44.328125 
Q 39.84375 48.1875 33.796875 48.1875 
Q 26.515625 48.1875 22.3125 43.546875 
Q 18.109375 38.921875 18.109375 30.90625 
L 18.109375 0 
L 9.078125 0 
L 9.078125 75.984375 
L 18.109375 75.984375 
L 18.109375 46.1875 
Q 21.34375 51.125 25.703125 53.5625 
Q 30.078125 56 35.796875 56 
Q 45.21875 56 50.046875 50.171875 
Q 54.890625 44.34375 54.890625 33.015625 
z
" id="DejaVuSans-104"/>
      <path d="M 11.71875 12.40625 
L 22.015625 12.40625 
L 22.015625 4 
L 14.015625 -11.625 
L 7.71875 -11.625 
L 11.71875 4 
z
" id="DejaVuSans-44"/>
      <path d="M 8.015625 75.875 
L 15.828125 75.875 
Q 23.140625 64.359375 26.78125 53.3125 
Q 30.421875 42.28125 30.421875 31.390625 
Q 30.421875 20.453125 26.78125 9.375 
Q 23.140625 -1.703125 15.828125 -13.1875 
L 8.015625 -13.1875 
Q 14.5 -2 17.703125 9.0625 
Q 20.90625 20.125 20.90625 31.390625 
Q 20.90625 42.671875 17.703125 53.65625 
Q 14.5 64.65625 8.015625 75.875 
z
" id="DejaVuSans-41"/>
      <path d="M 8.5 21.578125 
L 8.5 54.6875 
L 17.484375 54.6875 
L 17.484375 21.921875 
Q 17.484375 14.15625 20.5 10.265625 
Q 23.53125 6.390625 29.59375 6.390625 
Q 36.859375 6.390625 41.078125 11.03125 
Q 45.3125 15.671875 45.3125 23.6875 
L 45.3125 54.6875 
L 54.296875 54.6875 
L 54.296875 0 
L 45.3125 0 
L 45.3125 8.40625 
Q 42.046875 3.421875 37.71875 1 
Q 33.40625 -1.421875 27.6875 -1.421875 
Q 18.265625 -1.421875 13.375 4.4375 
Q 8.5 10.296875 8.5 21.578125 
z
M 31.109375 56 
z
" id="DejaVuSans-117"/>
      <path d="M 45.40625 27.984375 
Q 45.40625 37.75 41.375 43.109375 
Q 37.359375 48.484375 30.078125 48.484375 
Q 22.859375 48.484375 18.828125 43.109375 
Q 14.796875 37.75 14.796875 27.984375 
Q 14.796875 18.265625 18.828125 12.890625 
Q 22.859375 7.515625 30.078125 7.515625 
Q 37.359375 7.515625 41.375 12.890625 
Q 45.40625 18.265625 45.40625 27.984375 
z
M 54.390625 6.78125 
Q 54.390625 -7.171875 48.1875 -13.984375 
Q 42 -20.796875 29.203125 -20.796875 
Q 24.46875 -20.796875 20.265625 -20.09375 
Q 16.0625 -19.390625 12.109375 -17.921875 
L 12.109375 -9.1875 
Q 16.0625 -11.328125 19.921875 -12.34375 
Q 23.78125 -13.375 27.78125 -13.375 
Q 36.625 -13.375 41.015625 -8.765625 
Q 45.40625 -4.15625 45.40625 5.171875 
L 45.40625 9.625 
Q 42.625 4.78125 38.28125 2.390625 
Q 33.9375 0 27.875 0 
Q 17.828125 0 11.671875 7.65625 
Q 5.515625 15.328125 5.515625 27.984375 
Q 5.515625 40.671875 11.671875 48.328125 
Q 17.828125 56 27.875 56 
Q 33.9375 56 38.28125 53.609375 
Q 42.625 51.21875 45.40625 46.390625 
L 45.40625 54.6875 
L 54.390625 54.6875 
z
" id="DejaVuSans-103"/>
      <path d="M 34.28125 27.484375 
Q 23.390625 27.484375 19.1875 25 
Q 14.984375 22.515625 14.984375 16.5 
Q 14.984375 11.71875 18.140625 8.90625 
Q 21.296875 6.109375 26.703125 6.109375 
Q 34.1875 6.109375 38.703125 11.40625 
Q 43.21875 16.703125 43.21875 25.484375 
L 43.21875 27.484375 
z
M 52.203125 31.203125 
L 52.203125 0 
L 43.21875 0 
L 43.21875 8.296875 
Q 40.140625 3.328125 35.546875 0.953125 
Q 30.953125 -1.421875 24.3125 -1.421875 
Q 15.921875 -1.421875 10.953125 3.296875 
Q 6 8.015625 6 15.921875 
Q 6 25.140625 12.171875 29.828125 
Q 18.359375 34.515625 30.609375 34.515625 
L 43.21875 34.515625 
L 43.21875 35.40625 
Q 43.21875 41.609375 39.140625 45 
Q 35.0625 48.390625 27.6875 48.390625 
Q 23 48.390625 18.546875 47.265625 
Q 14.109375 46.140625 10.015625 43.890625 
L 10.015625 52.203125 
Q 14.9375 54.109375 19.578125 55.046875 
Q 24.21875 56 28.609375 56 
Q 40.484375 56 46.34375 49.84375 
Q 52.203125 43.703125 52.203125 31.203125 
z
" id="DejaVuSans-97"/>
      <path d="M 48.78125 52.59375 
L 48.78125 44.1875 
Q 44.96875 46.296875 41.140625 47.34375 
Q 37.3125 48.390625 33.40625 48.390625 
Q 24.65625 48.390625 19.8125 42.84375 
Q 14.984375 37.3125 14.984375 27.296875 
Q 14.984375 17.28125 19.8125 11.734375 
Q 24.65625 6.203125 33.40625 6.203125 
Q 37.3125 6.203125 41.140625 7.25 
Q 44.96875 8.296875 48.78125 10.40625 
L 48.78125 2.09375 
Q 45.015625 0.34375 40.984375 -0.53125 
Q 36.96875 -1.421875 32.421875 -1.421875 
Q 20.0625 -1.421875 12.78125 6.34375 
Q 5.515625 14.109375 5.515625 27.296875 
Q 5.515625 40.671875 12.859375 48.328125 
Q 20.21875 56 33.015625 56 
Q 37.15625 56 41.109375 55.140625 
Q 45.0625 54.296875 48.78125 52.59375 
z
" id="DejaVuSans-99"/>
      <path d="M 52 44.1875 
Q 55.375 50.25 60.0625 53.125 
Q 64.75 56 71.09375 56 
Q 79.640625 56 84.28125 50.015625 
Q 88.921875 44.046875 88.921875 33.015625 
L 88.921875 0 
L 79.890625 0 
L 79.890625 32.71875 
Q 79.890625 40.578125 77.09375 44.375 
Q 74.3125 48.1875 68.609375 48.1875 
Q 61.625 48.1875 57.5625 43.546875 
Q 53.515625 38.921875 53.515625 30.90625 
L 53.515625 0 
L 44.484375 0 
L 44.484375 32.71875 
Q 44.484375 40.625 41.703125 44.40625 
Q 38.921875 48.1875 33.109375 48.1875 
Q 26.21875 48.1875 22.15625 43.53125 
Q 18.109375 38.875 18.109375 30.90625 
L 18.109375 0 
L 9.078125 0 
L 9.078125 54.6875 
L 18.109375 54.6875 
L 18.109375 46.1875 
Q 21.1875 51.21875 25.484375 53.609375 
Q 29.78125 56 35.6875 56 
Q 41.65625 56 45.828125 52.96875 
Q 50 49.953125 52 44.1875 
z
" id="DejaVuSans-109"/>
      <path d="M 45.40625 46.390625 
L 45.40625 75.984375 
L 54.390625 75.984375 
L 54.390625 0 
L 45.40625 0 
L 45.40625 8.203125 
Q 42.578125 3.328125 38.25 0.953125 
Q 33.9375 -1.421875 27.875 -1.421875 
Q 17.96875 -1.421875 11.734375 6.484375 
Q 5.515625 14.40625 5.515625 27.296875 
Q 5.515625 40.1875 11.734375 48.09375 
Q 17.96875 56 27.875 56 
Q 33.9375 56 38.25 53.625 
Q 42.578125 51.265625 45.40625 46.390625 
z
M 14.796875 27.296875 
Q 14.796875 17.390625 18.875 11.75 
Q 22.953125 6.109375 30.078125 6.109375 
Q 37.203125 6.109375 41.296875 11.75 
Q 45.40625 17.390625 45.40625 27.296875 
Q 45.40625 37.203125 41.296875 42.84375 
Q 37.203125 48.484375 30.078125 48.484375 
Q 22.953125 48.484375 18.875 42.84375 
Q 14.796875 37.203125 14.796875 27.296875 
z
" id="DejaVuSans-100"/>
      <path d="M 41.109375 46.296875 
Q 39.59375 47.171875 37.8125 47.578125 
Q 36.03125 48 33.890625 48 
Q 26.265625 48 22.1875 43.046875 
Q 18.109375 38.09375 18.109375 28.8125 
L 18.109375 0 
L 9.078125 0 
L 9.078125 54.6875 
L 18.109375 54.6875 
L 18.109375 46.1875 
Q 20.953125 51.171875 25.484375 53.578125 
Q 30.03125 56 36.53125 56 
Q 37.453125 56 38.578125 55.875 
Q 39.703125 55.765625 41.0625 55.515625 
z
" id="DejaVuSans-114"/>
      <path d="M 16.75 30.609375 
Q 17.09375 27 20.171875 21.140625 
Q 23.78125 14.359375 30.609375 10.546875 
Q 37.3125 6.84375 44.53125 6.78125 
L 78.5625 6.78125 
L 78.5625 -0.984375 
L 44.53125 -0.984375 
Q 35.15625 -0.984375 26.484375 3.84375 
Q 17.828125 8.6875 13.1875 17.28125 
Q 8.546875 25.875 8.546875 35.015625 
Q 8.546875 44.046875 13.1875 52.640625 
Q 17.828125 61.234375 26.484375 66.109375 
Q 35.15625 71 44.53125 71 
L 78.5625 71 
L 78.5625 63.234375 
L 44.53125 63.234375 
Q 37.3125 63.1875 30.609375 59.421875 
Q 23.828125 55.5625 20.171875 48.828125 
Q 17.046875 42.96875 16.609375 38.421875 
L 78.5625 38.421875 
L 78.5625 30.609375 
z
" id="DejaVuSans-8712"/>
      <path d="M 51.125 -9.28125 
L 51.125 -16.3125 
L 48.09375 -16.3125 
Q 35.9375 -16.3125 31.8125 -12.6875 
Q 27.6875 -9.078125 27.6875 1.703125 
L 27.6875 13.375 
Q 27.6875 20.75 25.046875 23.578125 
Q 22.40625 26.421875 15.484375 26.421875 
L 12.5 26.421875 
L 12.5 33.40625 
L 15.484375 33.40625 
Q 22.46875 33.40625 25.078125 36.203125 
Q 27.6875 39.015625 27.6875 46.296875 
L 27.6875 58.015625 
Q 27.6875 68.796875 31.8125 72.390625 
Q 35.9375 75.984375 48.09375 75.984375 
L 51.125 75.984375 
L 51.125 69 
L 47.796875 69 
Q 40.921875 69 38.8125 66.84375 
Q 36.71875 64.703125 36.71875 57.8125 
L 36.71875 45.703125 
Q 36.71875 38.03125 34.5 34.5625 
Q 32.28125 31.109375 26.90625 29.890625 
Q 32.328125 28.5625 34.515625 25.09375 
Q 36.71875 21.625 36.71875 14.015625 
L 36.71875 1.90625 
Q 36.71875 -4.984375 38.8125 -7.125 
Q 40.921875 -9.28125 47.796875 -9.28125 
z
" id="DejaVuSans-123"/>
      <path d="M 12.5 -9.28125 
L 15.921875 -9.28125 
Q 22.75 -9.28125 24.828125 -7.171875 
Q 26.90625 -5.078125 26.90625 1.90625 
L 26.90625 14.015625 
Q 26.90625 21.625 29.09375 25.09375 
Q 31.296875 28.5625 36.71875 29.890625 
Q 31.296875 31.109375 29.09375 34.5625 
Q 26.90625 38.03125 26.90625 45.703125 
L 26.90625 57.8125 
Q 26.90625 64.75 24.828125 66.875 
Q 22.75 69 15.921875 69 
L 12.5 69 
L 12.5 75.984375 
L 15.578125 75.984375 
Q 27.734375 75.984375 31.8125 72.390625 
Q 35.890625 68.796875 35.890625 58.015625 
L 35.890625 46.296875 
Q 35.890625 39.015625 38.515625 36.203125 
Q 41.15625 33.40625 48.09375 33.40625 
L 51.125 33.40625 
L 51.125 26.421875 
L 48.09375 26.421875 
Q 41.15625 26.421875 38.515625 23.578125 
Q 35.890625 20.75 35.890625 13.375 
L 35.890625 1.703125 
Q 35.890625 -9.078125 31.8125 -12.6875 
Q 27.734375 -16.3125 15.578125 -16.3125 
L 12.5 -16.3125 
z
" id="DejaVuSans-125"/>
     </defs>
     <use transform="translate(0 0.015625)" xlink:href="#DejaVuSans-68"/>
     <use transform="translate(77.001953 0.015625)" xlink:href="#DejaVuSans-101"/>
     <use transform="translate(138.525391 0.015625)" xlink:href="#DejaVuSans-110"/>
     <use transform="translate(201.904297 0.015625)" xlink:href="#DejaVuSans-115"/>
     <use transform="translate(254.003906 0.015625)" xlink:href="#DejaVuSans-105"/>
     <use transform="translate(281.787109 0.015625)" xlink:href="#DejaVuSans-116"/>
     <use transform="translate(320.996094 0.015625)" xlink:href="#DejaVuSans-121"/>
     <use transform="translate(380.175781 0.015625)" xlink:href="#DejaVuSans-32"/>
     <use transform="translate(411.962891 0.015625)" xlink:href="#DejaVuSans-112"/>
     <use transform="translate(475.439453 0.015625)" xlink:href="#DejaVuSans-108"/>
     <use transform="translate(503.222656 0.015625)" xlink:href="#DejaVuSans-111"/>
     <use transform="translate(564.404297 0.015625)" xlink:href="#DejaVuSans-116"/>
     <use transform="translate(603.613281 0.015625)" xlink:href="#DejaVuSans-115"/>
     <use transform="translate(655.712891 0.015625)" xlink:href="#DejaVuSans-32"/>
     <use transform="translate(687.5 0.015625)" xlink:href="#DejaVuSans-111"/>
     <use transform="translate(748.681641 0.015625)" xlink:href="#DejaVuSans-102"/>
     <use transform="translate(783.886719 0.015625)" xlink:href="#DejaVuSans-32"/>
     <use transform="translate(815.673828 0.015625)" xlink:href="#DejaVuSans-80"/>
     <use transform="translate(875.976562 0.015625)" xlink:href="#DejaVuSans-71"/>
     <use transform="translate(953.466797 0.015625)" xlink:href="#DejaVuSans-40"/>
     <use transform="translate(992.480469 0.015625)" xlink:href="#DejaVuSans-104"/>
     <use transform="translate(1055.859375 0.015625)" xlink:href="#DejaVuSans-44"/>
     <use transform="translate(1087.646484 0.015625)" xlink:href="#DejaVuSans-32"/>
     <use transform="translate(1119.433594 0.015625)" xlink:href="#DejaVuSans-48"/>
     <use transform="translate(1183.056641 0.015625)" xlink:href="#DejaVuSans-41"/>
     <use transform="translate(1222.070312 0.015625)" xlink:href="#DejaVuSans-32"/>
     <use transform="translate(1253.857422 0.015625)" xlink:href="#DejaVuSans-117"/>
     <use transform="translate(1317.236328 0.015625)" xlink:href="#DejaVuSans-115"/>
     <use transform="translate(1369.335938 0.015625)" xlink:href="#DejaVuSans-105"/>
     <use transform="translate(1397.119141 0.015625)" xlink:href="#DejaVuSans-110"/>
     <use transform="translate(1460.498047 0.015625)" xlink:href="#DejaVuSans-103"/>
     <use transform="translate(1523.974609 0.015625)" xlink:href="#DejaVuSans-32"/>
     <use transform="translate(1555.761719 0.015625)" xlink:href="#DejaVuSans-101"/>
     <use transform="translate(1617.285156 0.015625)" xlink:href="#DejaVuSans-97"/>
     <use transform="translate(1678.564453 0.015625)" xlink:href="#DejaVuSans-99"/>
     <use transform="translate(1733.544922 0.015625)" xlink:href="#DejaVuSans-104"/>
     <use transform="translate(1796.923828 0.015625)" xlink:href="#DejaVuSans-32"/>
     <use transform="translate(1828.710938 0.015625)" xlink:href="#DejaVuSans-109"/>
     <use transform="translate(1926.123047 0.015625)" xlink:href="#DejaVuSans-101"/>
     <use transform="translate(1987.646484 0.015625)" xlink:href="#DejaVuSans-116"/>
     <use transform="translate(2026.855469 0.015625)" xlink:href="#DejaVuSans-104"/>
     <use transform="translate(2090.234375 0.015625)" xlink:href="#DejaVuSans-111"/>
     <use transform="translate(2151.416016 0.015625)" xlink:href="#DejaVuSans-100"/>
     <use transform="translate(2214.892578 0.015625)" xlink:href="#DejaVuSans-32"/>
     <use transform="translate(2246.679688 0.015625)" xlink:href="#DejaVuSans-102"/>
     <use transform="translate(2281.884766 0.015625)" xlink:href="#DejaVuSans-111"/>
     <use transform="translate(2343.066406 0.015625)" xlink:href="#DejaVuSans-114"/>
     <use transform="translate(2384.179688 0.015625)" xlink:href="#DejaVuSans-32"/>
     <use transform="translate(2415.966797 0.015625)" xlink:href="#DejaVuSans-104"/>
     <use transform="translate(2479.345703 0.015625)" xlink:href="#DejaVuSans-32"/>
     <use transform="translate(2530.615234 0.015625)" xlink:href="#DejaVuSans-8712"/>
     <use transform="translate(2637.207031 0.015625)" xlink:href="#DejaVuSans-32"/>
     <use transform="translate(2668.994141 0.015625)" xlink:href="#DejaVuSans-123"/>
     <use transform="translate(2732.617188 0.015625)" xlink:href="#DejaVuSans-49"/>
     <use transform="translate(2796.240234 0.015625)" xlink:href="#DejaVuSans-44"/>
     <use transform="translate(2828.027344 0.015625)" xlink:href="#DejaVuSans-52"/>
     <use transform="translate(2891.650391 0.015625)" xlink:href="#DejaVuSans-44"/>
     <use transform="translate(2923.4375 0.015625)" xlink:href="#DejaVuSans-55"/>
     <use transform="translate(2987.060547 0.015625)" xlink:href="#DejaVuSans-44"/>
     <use transform="translate(3018.847656 0.015625)" xlink:href="#DejaVuSans-49"/>
     <use transform="translate(3082.470703 0.015625)" xlink:href="#DejaVuSans-48"/>
     <use transform="translate(3146.09375 0.015625)" xlink:href="#DejaVuSans-44"/>
     <use transform="translate(3177.880859 0.015625)" xlink:href="#DejaVuSans-49"/>
     <use transform="translate(3241.503906 0.015625)" xlink:href="#DejaVuSans-53"/>
     <use transform="translate(3303.376953 0.015625)" xlink:href="#DejaVuSans-125"/>
     <use transform="translate(3367 0.015625)" xlink:href="#DejaVuSans-46"/>
    </g>
   </g>
   <g id="legend_1">
    <g id="patch_7">
     <path d="M 330.265313 108.1845 
L 407.72 108.1845 
Q 409.72 108.1845 409.72 106.1845 
L 409.72 48.472 
Q 409.72 46.472 407.72 46.472 
L 330.265313 46.472 
Q 328.265313 46.472 328.265313 48.472 
L 328.265313 106.1845 
Q 328.265313 108.1845 330.265313 108.1845 
z
" style="fill:#eaeaf2;opacity:0.8;stroke:#cccccc;stroke-linejoin:miter;"/>
    </g>
    <g id="line2d_35">
     <path d="M 332.265313 54.570438 
L 352.265313 54.570438 
" style="fill:none;stroke:#1f77b4;stroke-linecap:round;stroke-width:1.5;"/>
    </g>
    <g id="line2d_36"/>
    <g id="text_17">
     <!-- devroye -->
     <g style="fill:#262626;" transform="translate(360.265313 58.070438)scale(0.1 -0.1)">
      <defs>
       <path d="M 2.984375 54.6875 
L 12.5 54.6875 
L 29.59375 8.796875 
L 46.6875 54.6875 
L 56.203125 54.6875 
L 35.6875 0 
L 23.484375 0 
z
" id="DejaVuSans-118"/>
      </defs>
      <use xlink:href="#DejaVuSans-100"/>
      <use x="63.476562" xlink:href="#DejaVuSans-101"/>
      <use x="125" xlink:href="#DejaVuSans-118"/>
      <use x="184.179688" xlink:href="#DejaVuSans-114"/>
      <use x="223.042969" xlink:href="#DejaVuSans-111"/>
      <use x="284.224609" xlink:href="#DejaVuSans-121"/>
      <use x="343.404297" xlink:href="#DejaVuSans-101"/>
     </g>
    </g>
    <g id="line2d_37">
     <path d="M 332.265313 69.248563 
L 352.265313 69.248563 
" style="fill:none;stroke:#ff7f0e;stroke-linecap:round;stroke-width:1.5;"/>
    </g>
    <g id="line2d_38"/>
    <g id="text_18">
     <!-- alternate -->
     <g style="fill:#262626;" transform="translate(360.265313 72.748563)scale(0.1 -0.1)">
      <use xlink:href="#DejaVuSans-97"/>
      <use x="61.279297" xlink:href="#DejaVuSans-108"/>
      <use x="89.0625" xlink:href="#DejaVuSans-116"/>
      <use x="128.271484" xlink:href="#DejaVuSans-101"/>
      <use x="189.794922" xlink:href="#DejaVuSans-114"/>
      <use x="229.158203" xlink:href="#DejaVuSans-110"/>
      <use x="292.537109" xlink:href="#DejaVuSans-97"/>
      <use x="353.816406" xlink:href="#DejaVuSans-116"/>
      <use x="393.025391" xlink:href="#DejaVuSans-101"/>
     </g>
    </g>
    <g id="line2d_39">
     <path d="M 332.265313 83.926688 
L 352.265313 83.926688 
" style="fill:none;stroke:#2ca02c;stroke-linecap:round;stroke-width:1.5;"/>
    </g>
    <g id="line2d_40"/>
    <g id="text_19">
     <!-- gamma -->
     <g style="fill:#262626;" transform="translate(360.265313 87.426688)scale(0.1 -0.1)">
      <use xlink:href="#DejaVuSans-103"/>
      <use x="63.476562" xlink:href="#DejaVuSans-97"/>
      <use x="124.755859" xlink:href="#DejaVuSans-109"/>
      <use x="222.167969" xlink:href="#DejaVuSans-109"/>
      <use x="319.580078" xlink:href="#DejaVuSans-97"/>
     </g>
    </g>
    <g id="line2d_41">
     <path d="M 332.265313 98.604813 
L 352.265313 98.604813 
" style="fill:none;stroke:#d62728;stroke-linecap:round;stroke-width:1.5;"/>
    </g>
    <g id="line2d_42"/>
    <g id="text_20">
     <!-- saddle -->
     <g style="fill:#262626;" transform="translate(360.265313 102.104813)scale(0.1 -0.1)">
      <use xlink:href="#DejaVuSans-115"/>
      <use x="52.099609" xlink:href="#DejaVuSans-97"/>
      <use x="113.378906" xlink:href="#DejaVuSans-100"/>
      <use x="176.855469" xlink:href="#DejaVuSans-100"/>
      <use x="240.332031" xlink:href="#DejaVuSans-108"/>
      <use x="268.115234" xlink:href="#DejaVuSans-101"/>
     </g>
    </g>
   </g>
  </g>
 </g>
 <defs>
  <clipPath id="p66cfd561cc">
   <rect height="266.112" width="357.12" x="57.6" y="41.472"/>
  </clipPath>
 </defs>
</svg>
