<?xml version="1.0" encoding="utf-8" standalone="no"?>
<!DOCTYPE svg PUBLIC "-//W3C//DTD SVG 1.1//EN"
  "http://www.w3.org/Graphics/SVG/1.1/DTD/svg11.dtd">
<!-- Created with matplotlib (https://matplotlib.org/) -->
<svg height="345.6pt" version="1.1" viewBox="0 0 460.8 345.6" width="460.8pt" xmlns="http://www.w3.org/2000/svg" xmlns:xlink="http://www.w3.org/1999/xlink">
 <metadata>
  <rdf:RDF xmlns:cc="http://creativecommons.org/ns#" xmlns:dc="http://purl.org/dc/elements/1.1/" xmlns:rdf="http://www.w3.org/1999/02/22-rdf-syntax-ns#">
   <cc:Work>
    <dc:type rdf:resource="http://purl.org/dc/dcmitype/StillImage"/>
    <dc:date>2021-01-09T23:52:34.492759</dc:date>
    <dc:format>image/svg+xml</dc:format>
    <dc:creator>
     <cc:Agent>
      <dc:title>Matplotlib v3.3.3, https://matplotlib.org/</dc:title>
     </cc:Agent>
    </dc:creator>
   </cc:Work>
  </rdf:RDF>
 </metadata>
 <defs>
  <style type="text/css">*{stroke-linecap:butt;stroke-linejoin:round;}</style>
 </defs>
 <g id="figure_1">
  <g id="patch_1">
   <path d="M 0 345.6 
L 460.8 345.6 
L 460.8 0 
L 0 0 
z
" style="fill:#ffffff;"/>
  </g>
  <g id="axes_1">
   <g id="patch_2">
    <path d="M 57.6 307.584 
L 414.72 307.584 
L 414.72 41.472 
L 57.6 41.472 
z
" style="fill:#eaeaf2;"/>
   </g>
   <g id="matplotlib.axis_1">
    <g id="xtick_1">
     <g id="line2d_1">
      <path clip-path="url(#pf67d9bc6bb)" d="M 81.276255 307.584 
L 81.276255 41.472 
" style="fill:none;stroke:#ffffff;stroke-linecap:round;stroke-width:0.8;"/>
     </g>
     <g id="text_1">
      <!-- 0 -->
      <g style="fill:#262626;" transform="translate(78.095005 322.182437)scale(0.1 -0.1)">
       <defs>
        <path d="M 31.78125 66.40625 
Q 24.171875 66.40625 20.328125 58.90625 
Q 16.5 51.421875 16.5 36.375 
Q 16.5 21.390625 20.328125 13.890625 
Q 24.171875 6.390625 31.78125 6.390625 
Q 39.453125 6.390625 43.28125 13.890625 
Q 47.125 21.390625 47.125 36.375 
Q 47.125 51.421875 43.28125 58.90625 
Q 39.453125 66.40625 31.78125 66.40625 
z
M 31.78125 74.21875 
Q 44.046875 74.21875 50.515625 64.515625 
Q 56.984375 54.828125 56.984375 36.375 
Q 56.984375 17.96875 50.515625 8.265625 
Q 44.046875 -1.421875 31.78125 -1.421875 
Q 19.53125 -1.421875 13.0625 8.265625 
Q 6.59375 17.96875 6.59375 36.375 
Q 6.59375 54.828125 13.0625 64.515625 
Q 19.53125 74.21875 31.78125 74.21875 
z
" id="DejaVuSans-48"/>
       </defs>
       <use xlink:href="#DejaVuSans-48"/>
      </g>
     </g>
    </g>
    <g id="xtick_2">
     <g id="line2d_2">
      <path clip-path="url(#pf67d9bc6bb)" d="M 135.440737 307.584 
L 135.440737 41.472 
" style="fill:none;stroke:#ffffff;stroke-linecap:round;stroke-width:0.8;"/>
     </g>
     <g id="text_2">
      <!-- 1 -->
      <g style="fill:#262626;" transform="translate(132.259487 322.182437)scale(0.1 -0.1)">
       <defs>
        <path d="M 12.40625 8.296875 
L 28.515625 8.296875 
L 28.515625 63.921875 
L 10.984375 60.40625 
L 10.984375 69.390625 
L 28.421875 72.90625 
L 38.28125 72.90625 
L 38.28125 8.296875 
L 54.390625 8.296875 
L 54.390625 0 
L 12.40625 0 
z
" id="DejaVuSans-49"/>
       </defs>
       <use xlink:href="#DejaVuSans-49"/>
      </g>
     </g>
    </g>
    <g id="xtick_3">
     <g id="line2d_3">
      <path clip-path="url(#pf67d9bc6bb)" d="M 189.605219 307.584 
L 189.605219 41.472 
" style="fill:none;stroke:#ffffff;stroke-linecap:round;stroke-width:0.8;"/>
     </g>
     <g id="text_3">
      <!-- 2 -->
      <g style="fill:#262626;" transform="translate(186.423969 322.182437)scale(0.1 -0.1)">
       <defs>
        <path d="M 19.1875 8.296875 
L 53.609375 8.296875 
L 53.609375 0 
L 7.328125 0 
L 7.328125 8.296875 
Q 12.9375 14.109375 22.625 23.890625 
Q 32.328125 33.6875 34.8125 36.53125 
Q 39.546875 41.84375 41.421875 45.53125 
Q 43.3125 49.21875 43.3125 52.78125 
Q 43.3125 58.59375 39.234375 62.25 
Q 35.15625 65.921875 28.609375 65.921875 
Q 23.96875 65.921875 18.8125 64.3125 
Q 13.671875 62.703125 7.8125 59.421875 
L 7.8125 69.390625 
Q 13.765625 71.78125 18.9375 73 
Q 24.125 74.21875 28.421875 74.21875 
Q 39.75 74.21875 46.484375 68.546875 
Q 53.21875 62.890625 53.21875 53.421875 
Q 53.21875 48.921875 51.53125 44.890625 
Q 49.859375 40.875 45.40625 35.40625 
Q 44.1875 33.984375 37.640625 27.21875 
Q 31.109375 20.453125 19.1875 8.296875 
z
" id="DejaVuSans-50"/>
       </defs>
       <use xlink:href="#DejaVuSans-50"/>
      </g>
     </g>
    </g>
    <g id="xtick_4">
     <g id="line2d_4">
      <path clip-path="url(#pf67d9bc6bb)" d="M 243.7697 307.584 
L 243.7697 41.472 
" style="fill:none;stroke:#ffffff;stroke-linecap:round;stroke-width:0.8;"/>
     </g>
     <g id="text_4">
      <!-- 3 -->
      <g style="fill:#262626;" transform="translate(240.58845 322.182437)scale(0.1 -0.1)">
       <defs>
        <path d="M 40.578125 39.3125 
Q 47.65625 37.796875 51.625 33 
Q 55.609375 28.21875 55.609375 21.1875 
Q 55.609375 10.40625 48.1875 4.484375 
Q 40.765625 -1.421875 27.09375 -1.421875 
Q 22.515625 -1.421875 17.65625 -0.515625 
Q 12.796875 0.390625 7.625 2.203125 
L 7.625 11.71875 
Q 11.71875 9.328125 16.59375 8.109375 
Q 21.484375 6.890625 26.8125 6.890625 
Q 36.078125 6.890625 40.9375 10.546875 
Q 45.796875 14.203125 45.796875 21.1875 
Q 45.796875 27.640625 41.28125 31.265625 
Q 36.765625 34.90625 28.71875 34.90625 
L 20.21875 34.90625 
L 20.21875 43.015625 
L 29.109375 43.015625 
Q 36.375 43.015625 40.234375 45.921875 
Q 44.09375 48.828125 44.09375 54.296875 
Q 44.09375 59.90625 40.109375 62.90625 
Q 36.140625 65.921875 28.71875 65.921875 
Q 24.65625 65.921875 20.015625 65.03125 
Q 15.375 64.15625 9.8125 62.3125 
L 9.8125 71.09375 
Q 15.4375 72.65625 20.34375 73.4375 
Q 25.25 74.21875 29.59375 74.21875 
Q 40.828125 74.21875 47.359375 69.109375 
Q 53.90625 64.015625 53.90625 55.328125 
Q 53.90625 49.265625 50.4375 45.09375 
Q 46.96875 40.921875 40.578125 39.3125 
z
" id="DejaVuSans-51"/>
       </defs>
       <use xlink:href="#DejaVuSans-51"/>
      </g>
     </g>
    </g>
    <g id="xtick_5">
     <g id="line2d_5">
      <path clip-path="url(#pf67d9bc6bb)" d="M 297.934182 307.584 
L 297.934182 41.472 
" style="fill:none;stroke:#ffffff;stroke-linecap:round;stroke-width:0.8;"/>
     </g>
     <g id="text_5">
      <!-- 4 -->
      <g style="fill:#262626;" transform="translate(294.752932 322.182437)scale(0.1 -0.1)">
       <defs>
        <path d="M 37.796875 64.3125 
L 12.890625 25.390625 
L 37.796875 25.390625 
z
M 35.203125 72.90625 
L 47.609375 72.90625 
L 47.609375 25.390625 
L 58.015625 25.390625 
L 58.015625 17.1875 
L 47.609375 17.1875 
L 47.609375 0 
L 37.796875 0 
L 37.796875 17.1875 
L 4.890625 17.1875 
L 4.890625 26.703125 
z
" id="DejaVuSans-52"/>
       </defs>
       <use xlink:href="#DejaVuSans-52"/>
      </g>
     </g>
    </g>
    <g id="xtick_6">
     <g id="line2d_6">
      <path clip-path="url(#pf67d9bc6bb)" d="M 352.098664 307.584 
L 352.098664 41.472 
" style="fill:none;stroke:#ffffff;stroke-linecap:round;stroke-width:0.8;"/>
     </g>
     <g id="text_6">
      <!-- 5 -->
      <g style="fill:#262626;" transform="translate(348.917414 322.182437)scale(0.1 -0.1)">
       <defs>
        <path d="M 10.796875 72.90625 
L 49.515625 72.90625 
L 49.515625 64.59375 
L 19.828125 64.59375 
L 19.828125 46.734375 
Q 21.96875 47.46875 24.109375 47.828125 
Q 26.265625 48.1875 28.421875 48.1875 
Q 40.625 48.1875 47.75 41.5 
Q 54.890625 34.8125 54.890625 23.390625 
Q 54.890625 11.625 47.5625 5.09375 
Q 40.234375 -1.421875 26.90625 -1.421875 
Q 22.3125 -1.421875 17.546875 -0.640625 
Q 12.796875 0.140625 7.71875 1.703125 
L 7.71875 11.625 
Q 12.109375 9.234375 16.796875 8.0625 
Q 21.484375 6.890625 26.703125 6.890625 
Q 35.15625 6.890625 40.078125 11.328125 
Q 45.015625 15.765625 45.015625 23.390625 
Q 45.015625 31 40.078125 35.4375 
Q 35.15625 39.890625 26.703125 39.890625 
Q 22.75 39.890625 18.8125 39.015625 
Q 14.890625 38.140625 10.796875 36.28125 
z
" id="DejaVuSans-53"/>
       </defs>
       <use xlink:href="#DejaVuSans-53"/>
      </g>
     </g>
    </g>
    <g id="xtick_7">
     <g id="line2d_7">
      <path clip-path="url(#pf67d9bc6bb)" d="M 406.263146 307.584 
L 406.263146 41.472 
" style="fill:none;stroke:#ffffff;stroke-linecap:round;stroke-width:0.8;"/>
     </g>
     <g id="text_7">
      <!-- 6 -->
      <g style="fill:#262626;" transform="translate(403.081896 322.182437)scale(0.1 -0.1)">
       <defs>
        <path d="M 33.015625 40.375 
Q 26.375 40.375 22.484375 35.828125 
Q 18.609375 31.296875 18.609375 23.390625 
Q 18.609375 15.53125 22.484375 10.953125 
Q 26.375 6.390625 33.015625 6.390625 
Q 39.65625 6.390625 43.53125 10.953125 
Q 47.40625 15.53125 47.40625 23.390625 
Q 47.40625 31.296875 43.53125 35.828125 
Q 39.65625 40.375 33.015625 40.375 
z
M 52.59375 71.296875 
L 52.59375 62.3125 
Q 48.875 64.0625 45.09375 64.984375 
Q 41.3125 65.921875 37.59375 65.921875 
Q 27.828125 65.921875 22.671875 59.328125 
Q 17.53125 52.734375 16.796875 39.40625 
Q 19.671875 43.65625 24.015625 45.921875 
Q 28.375 48.1875 33.59375 48.1875 
Q 44.578125 48.1875 50.953125 41.515625 
Q 57.328125 34.859375 57.328125 23.390625 
Q 57.328125 12.15625 50.6875 5.359375 
Q 44.046875 -1.421875 33.015625 -1.421875 
Q 20.359375 -1.421875 13.671875 8.265625 
Q 6.984375 17.96875 6.984375 36.375 
Q 6.984375 53.65625 15.1875 63.9375 
Q 23.390625 74.21875 37.203125 74.21875 
Q 40.921875 74.21875 44.703125 73.484375 
Q 48.484375 72.75 52.59375 71.296875 
z
" id="DejaVuSans-54"/>
       </defs>
       <use xlink:href="#DejaVuSans-54"/>
      </g>
     </g>
    </g>
   </g>
   <g id="matplotlib.axis_2">
    <g id="ytick_1">
     <g id="line2d_8">
      <path clip-path="url(#pf67d9bc6bb)" d="M 57.6 307.584 
L 414.72 307.584 
" style="fill:none;stroke:#ffffff;stroke-linecap:round;stroke-width:0.8;"/>
     </g>
     <g id="text_8">
      <!-- 0.0 -->
      <g style="fill:#262626;" transform="translate(34.696875 311.383219)scale(0.1 -0.1)">
       <defs>
        <path d="M 10.6875 12.40625 
L 21 12.40625 
L 21 0 
L 10.6875 0 
z
" id="DejaVuSans-46"/>
       </defs>
       <use xlink:href="#DejaVuSans-48"/>
       <use x="63.623047" xlink:href="#DejaVuSans-46"/>
       <use x="95.410156" xlink:href="#DejaVuSans-48"/>
      </g>
     </g>
    </g>
    <g id="ytick_2">
     <g id="line2d_9">
      <path clip-path="url(#pf67d9bc6bb)" d="M 57.6 259.621793 
L 414.72 259.621793 
" style="fill:none;stroke:#ffffff;stroke-linecap:round;stroke-width:0.8;"/>
     </g>
     <g id="text_9">
      <!-- 0.2 -->
      <g style="fill:#262626;" transform="translate(34.696875 263.421012)scale(0.1 -0.1)">
       <use xlink:href="#DejaVuSans-48"/>
       <use x="63.623047" xlink:href="#DejaVuSans-46"/>
       <use x="95.410156" xlink:href="#DejaVuSans-50"/>
      </g>
     </g>
    </g>
    <g id="ytick_3">
     <g id="line2d_10">
      <path clip-path="url(#pf67d9bc6bb)" d="M 57.6 211.659586 
L 414.72 211.659586 
" style="fill:none;stroke:#ffffff;stroke-linecap:round;stroke-width:0.8;"/>
     </g>
     <g id="text_10">
      <!-- 0.4 -->
      <g style="fill:#262626;" transform="translate(34.696875 215.458804)scale(0.1 -0.1)">
       <use xlink:href="#DejaVuSans-48"/>
       <use x="63.623047" xlink:href="#DejaVuSans-46"/>
       <use x="95.410156" xlink:href="#DejaVuSans-52"/>
      </g>
     </g>
    </g>
    <g id="ytick_4">
     <g id="line2d_11">
      <path clip-path="url(#pf67d9bc6bb)" d="M 57.6 163.697378 
L 414.72 163.697378 
" style="fill:none;stroke:#ffffff;stroke-linecap:round;stroke-width:0.8;"/>
     </g>
     <g id="text_11">
      <!-- 0.6 -->
      <g style="fill:#262626;" transform="translate(34.696875 167.496597)scale(0.1 -0.1)">
       <use xlink:href="#DejaVuSans-48"/>
       <use x="63.623047" xlink:href="#DejaVuSans-46"/>
       <use x="95.410156" xlink:href="#DejaVuSans-54"/>
      </g>
     </g>
    </g>
    <g id="ytick_5">
     <g id="line2d_12">
      <path clip-path="url(#pf67d9bc6bb)" d="M 57.6 115.735171 
L 414.72 115.735171 
" style="fill:none;stroke:#ffffff;stroke-linecap:round;stroke-width:0.8;"/>
     </g>
     <g id="text_12">
      <!-- 0.8 -->
      <g style="fill:#262626;" transform="translate(34.696875 119.53439)scale(0.1 -0.1)">
       <defs>
        <path d="M 31.78125 34.625 
Q 24.75 34.625 20.71875 30.859375 
Q 16.703125 27.09375 16.703125 20.515625 
Q 16.703125 13.921875 20.71875 10.15625 
Q 24.75 6.390625 31.78125 6.390625 
Q 38.8125 6.390625 42.859375 10.171875 
Q 46.921875 13.96875 46.921875 20.515625 
Q 46.921875 27.09375 42.890625 30.859375 
Q 38.875 34.625 31.78125 34.625 
z
M 21.921875 38.8125 
Q 15.578125 40.375 12.03125 44.71875 
Q 8.5 49.078125 8.5 55.328125 
Q 8.5 64.0625 14.71875 69.140625 
Q 20.953125 74.21875 31.78125 74.21875 
Q 42.671875 74.21875 48.875 69.140625 
Q 55.078125 64.0625 55.078125 55.328125 
Q 55.078125 49.078125 51.53125 44.71875 
Q 48 40.375 41.703125 38.8125 
Q 48.828125 37.15625 52.796875 32.3125 
Q 56.78125 27.484375 56.78125 20.515625 
Q 56.78125 9.90625 50.3125 4.234375 
Q 43.84375 -1.421875 31.78125 -1.421875 
Q 19.734375 -1.421875 13.25 4.234375 
Q 6.78125 9.90625 6.78125 20.515625 
Q 6.78125 27.484375 10.78125 32.3125 
Q 14.796875 37.15625 21.921875 38.8125 
z
M 18.3125 54.390625 
Q 18.3125 48.734375 21.84375 45.5625 
Q 25.390625 42.390625 31.78125 42.390625 
Q 38.140625 42.390625 41.71875 45.5625 
Q 45.3125 48.734375 45.3125 54.390625 
Q 45.3125 60.0625 41.71875 63.234375 
Q 38.140625 66.40625 31.78125 66.40625 
Q 25.390625 66.40625 21.84375 63.234375 
Q 18.3125 60.0625 18.3125 54.390625 
z
" id="DejaVuSans-56"/>
       </defs>
       <use xlink:href="#DejaVuSans-48"/>
       <use x="63.623047" xlink:href="#DejaVuSans-46"/>
       <use x="95.410156" xlink:href="#DejaVuSans-56"/>
      </g>
     </g>
    </g>
    <g id="ytick_6">
     <g id="line2d_13">
      <path clip-path="url(#pf67d9bc6bb)" d="M 57.6 67.772964 
L 414.72 67.772964 
" style="fill:none;stroke:#ffffff;stroke-linecap:round;stroke-width:0.8;"/>
     </g>
     <g id="text_13">
      <!-- 1.0 -->
      <g style="fill:#262626;" transform="translate(34.696875 71.572183)scale(0.1 -0.1)">
       <use xlink:href="#DejaVuSans-49"/>
       <use x="63.623047" xlink:href="#DejaVuSans-46"/>
       <use x="95.410156" xlink:href="#DejaVuSans-48"/>
      </g>
     </g>
    </g>
    <g id="text_14">
     <!-- Density -->
     <g style="fill:#262626;" transform="translate(28.617187 193.536594)rotate(-90)scale(0.1 -0.1)">
      <defs>
       <path d="M 19.671875 64.796875 
L 19.671875 8.109375 
L 31.59375 8.109375 
Q 46.6875 8.109375 53.6875 14.9375 
Q 60.6875 21.78125 60.6875 36.53125 
Q 60.6875 51.171875 53.6875 57.984375 
Q 46.6875 64.796875 31.59375 64.796875 
z
M 9.8125 72.90625 
L 30.078125 72.90625 
Q 51.265625 72.90625 61.171875 64.09375 
Q 71.09375 55.28125 71.09375 36.53125 
Q 71.09375 17.671875 61.125 8.828125 
Q 51.171875 0 30.078125 0 
L 9.8125 0 
z
" id="DejaVuSans-68"/>
       <path d="M 56.203125 29.59375 
L 56.203125 25.203125 
L 14.890625 25.203125 
Q 15.484375 15.921875 20.484375 11.0625 
Q 25.484375 6.203125 34.421875 6.203125 
Q 39.59375 6.203125 44.453125 7.46875 
Q 49.3125 8.734375 54.109375 11.28125 
L 54.109375 2.78125 
Q 49.265625 0.734375 44.1875 -0.34375 
Q 39.109375 -1.421875 33.890625 -1.421875 
Q 20.796875 -1.421875 13.15625 6.1875 
Q 5.515625 13.8125 5.515625 26.8125 
Q 5.515625 40.234375 12.765625 48.109375 
Q 20.015625 56 32.328125 56 
Q 43.359375 56 49.78125 48.890625 
Q 56.203125 41.796875 56.203125 29.59375 
z
M 47.21875 32.234375 
Q 47.125 39.59375 43.09375 43.984375 
Q 39.0625 48.390625 32.421875 48.390625 
Q 24.90625 48.390625 20.390625 44.140625 
Q 15.875 39.890625 15.1875 32.171875 
z
" id="DejaVuSans-101"/>
       <path d="M 54.890625 33.015625 
L 54.890625 0 
L 45.90625 0 
L 45.90625 32.71875 
Q 45.90625 40.484375 42.875 44.328125 
Q 39.84375 48.1875 33.796875 48.1875 
Q 26.515625 48.1875 22.3125 43.546875 
Q 18.109375 38.921875 18.109375 30.90625 
L 18.109375 0 
L 9.078125 0 
L 9.078125 54.6875 
L 18.109375 54.6875 
L 18.109375 46.1875 
Q 21.34375 51.125 25.703125 53.5625 
Q 30.078125 56 35.796875 56 
Q 45.21875 56 50.046875 50.171875 
Q 54.890625 44.34375 54.890625 33.015625 
z
" id="DejaVuSans-110"/>
       <path d="M 44.28125 53.078125 
L 44.28125 44.578125 
Q 40.484375 46.53125 36.375 47.5 
Q 32.28125 48.484375 27.875 48.484375 
Q 21.1875 48.484375 17.84375 46.4375 
Q 14.5 44.390625 14.5 40.28125 
Q 14.5 37.15625 16.890625 35.375 
Q 19.28125 33.59375 26.515625 31.984375 
L 29.59375 31.296875 
Q 39.15625 29.25 43.1875 25.515625 
Q 47.21875 21.78125 47.21875 15.09375 
Q 47.21875 7.46875 41.1875 3.015625 
Q 35.15625 -1.421875 24.609375 -1.421875 
Q 20.21875 -1.421875 15.453125 -0.5625 
Q 10.6875 0.296875 5.421875 2 
L 5.421875 11.28125 
Q 10.40625 8.6875 15.234375 7.390625 
Q 20.0625 6.109375 24.8125 6.109375 
Q 31.15625 6.109375 34.5625 8.28125 
Q 37.984375 10.453125 37.984375 14.40625 
Q 37.984375 18.0625 35.515625 20.015625 
Q 33.0625 21.96875 24.703125 23.78125 
L 21.578125 24.515625 
Q 13.234375 26.265625 9.515625 29.90625 
Q 5.8125 33.546875 5.8125 39.890625 
Q 5.8125 47.609375 11.28125 51.796875 
Q 16.75 56 26.8125 56 
Q 31.78125 56 36.171875 55.265625 
Q 40.578125 54.546875 44.28125 53.078125 
z
" id="DejaVuSans-115"/>
       <path d="M 9.421875 54.6875 
L 18.40625 54.6875 
L 18.40625 0 
L 9.421875 0 
z
M 9.421875 75.984375 
L 18.40625 75.984375 
L 18.40625 64.59375 
L 9.421875 64.59375 
z
" id="DejaVuSans-105"/>
       <path d="M 18.3125 70.21875 
L 18.3125 54.6875 
L 36.8125 54.6875 
L 36.8125 47.703125 
L 18.3125 47.703125 
L 18.3125 18.015625 
Q 18.3125 11.328125 20.140625 9.421875 
Q 21.96875 7.515625 27.59375 7.515625 
L 36.8125 7.515625 
L 36.8125 0 
L 27.59375 0 
Q 17.1875 0 13.234375 3.875 
Q 9.28125 7.765625 9.28125 18.015625 
L 9.28125 47.703125 
L 2.6875 47.703125 
L 2.6875 54.6875 
L 9.28125 54.6875 
L 9.28125 70.21875 
z
" id="DejaVuSans-116"/>
       <path d="M 32.171875 -5.078125 
Q 28.375 -14.84375 24.75 -17.8125 
Q 21.140625 -20.796875 15.09375 -20.796875 
L 7.90625 -20.796875 
L 7.90625 -13.28125 
L 13.1875 -13.28125 
Q 16.890625 -13.28125 18.9375 -11.515625 
Q 21 -9.765625 23.484375 -3.21875 
L 25.09375 0.875 
L 2.984375 54.6875 
L 12.5 54.6875 
L 29.59375 11.921875 
L 46.6875 54.6875 
L 56.203125 54.6875 
z
" id="DejaVuSans-121"/>
      </defs>
      <use xlink:href="#DejaVuSans-68"/>
      <use x="77.001953" xlink:href="#DejaVuSans-101"/>
      <use x="138.525391" xlink:href="#DejaVuSans-110"/>
      <use x="201.904297" xlink:href="#DejaVuSans-115"/>
      <use x="254.003906" xlink:href="#DejaVuSans-105"/>
      <use x="281.787109" xlink:href="#DejaVuSans-116"/>
      <use x="320.996094" xlink:href="#DejaVuSans-121"/>
     </g>
    </g>
   </g>
   <g id="line2d_14">
    <path clip-path="url(#pf67d9bc6bb)" d="M 73.832727 307.478429 
L 74.725425 307.26855 
L 75.618122 306.727222 
L 76.06447 306.220878 
L 76.510819 305.464948 
L 76.957168 304.364383 
L 77.403516 302.801595 
L 77.849865 300.636947 
L 78.296214 297.711914 
L 78.742562 293.855487 
L 79.188911 288.894068 
L 80.081608 275.030388 
L 80.974305 255.230478 
L 81.867003 229.521288 
L 83.206048 182.947228 
L 84.991443 120.20915 
L 85.88414 95.302822 
L 86.776837 77.556219 
L 87.223186 71.661248 
L 87.669535 67.769364 
L 88.115883 65.815816 
L 88.562232 65.682882 
L 89.008581 67.20913 
L 89.454929 70.199634 
L 90.347627 79.693188 
L 91.240324 92.3659 
L 96.596507 174.917503 
L 97.935553 191.365419 
L 99.274599 205.11762 
L 101.059994 220.592649 
L 105.077131 253.55341 
L 105.969829 259.162177 
L 106.862526 263.414007 
L 107.755223 266.385211 
L 108.64792 268.40447 
L 109.986966 270.595353 
L 111.326012 272.780437 
L 113.111407 276.247356 
L 115.34315 280.599502 
L 117.128544 283.476314 
L 121.145682 289.359215 
L 123.377425 293.305035 
L 126.055517 298.074067 
L 127.394563 300.104585 
L 128.733609 301.692631 
L 129.626306 302.452347 
L 130.519003 302.971994 
L 131.858049 303.398006 
L 134.536141 303.978002 
L 135.875187 304.538447 
L 138.10693 305.585527 
L 139.445976 305.917232 
L 140.785022 305.979362 
L 145.694856 305.930173 
L 147.480251 306.179851 
L 151.05104 306.937732 
L 152.836434 306.956977 
L 155.068178 306.941233 
L 157.299921 307.198816 
L 159.978013 307.498198 
L 162.656104 307.576876 
L 162.656104 307.576876 
" style="fill:none;stroke:#2ca02c;stroke-linecap:round;stroke-width:1.5;"/>
   </g>
   <g id="line2d_15">
    <path clip-path="url(#pf67d9bc6bb)" d="M 73.840632 307.436617 
L 74.888127 307.06843 
L 75.411875 306.664351 
L 75.935622 305.994099 
L 76.45937 304.919315 
L 76.983117 303.253132 
L 77.506865 300.755991 
L 78.030612 297.137928 
L 78.55436 292.070296 
L 79.078107 285.209121 
L 79.601855 276.23059 
L 80.125602 264.876618 
L 81.173097 234.640018 
L 82.220592 195.535569 
L 84.315582 110.264173 
L 85.363077 77.673861 
L 85.886825 66.320177 
L 86.410572 58.655183 
L 86.93432 54.671082 
L 87.458067 54.143898 
L 87.981815 56.680056 
L 88.505562 61.773632 
L 89.553057 77.394735 
L 93.743037 152.103295 
L 95.31428 173.835568 
L 96.885522 192.049546 
L 98.456765 206.951294 
L 99.50426 215.085668 
L 100.551755 221.924986 
L 102.122998 230.328783 
L 106.312978 250.674864 
L 107.88422 260.157795 
L 109.97921 272.993649 
L 111.026705 278.186939 
L 112.0742 281.974579 
L 113.121695 284.392921 
L 114.16919 285.886308 
L 115.740433 287.726204 
L 116.787928 289.300812 
L 118.35917 292.264747 
L 119.930413 295.236408 
L 120.977908 296.822621 
L 122.025403 297.966757 
L 123.072898 298.706441 
L 124.64414 299.3854 
L 126.215383 300.100258 
L 127.262878 300.787392 
L 130.92911 303.551586 
L 131.976605 303.971795 
L 133.547848 304.27379 
L 137.737828 304.77497 
L 138.785323 304.623788 
L 141.927808 303.901983 
L 142.975303 304.036964 
L 144.546546 304.580247 
L 146.117788 305.07132 
L 147.689031 305.237051 
L 149.784021 305.360394 
L 151.355263 305.769734 
L 155.545243 307.263412 
L 157.116486 307.48283 
L 159.735223 307.575197 
L 163.925203 307.511205 
L 166.543941 307.257203 
L 169.162678 306.976075 
L 170.733921 307.006066 
L 178.066386 307.577121 
L 178.066386 307.577121 
" style="fill:none;stroke:#ff7f0e;stroke-linecap:round;stroke-width:1.5;"/>
   </g>
   <g id="line2d_16">
    <path clip-path="url(#pf67d9bc6bb)" d="M 73.935624 307.432767 
L 74.831111 307.153563 
L 75.278854 306.881949 
L 75.726597 306.464211 
L 76.17434 305.837026 
L 76.622084 304.917744 
L 77.069827 303.602262 
L 77.51757 301.764342 
L 77.965314 299.257086 
L 78.413057 295.917232 
L 78.8608 291.572726 
L 79.756287 279.206256 
L 80.651773 261.087676 
L 81.54726 236.9123 
L 82.89049 191.526631 
L 84.681463 127.420762 
L 85.576949 101.032949 
L 86.472436 81.898028 
L 86.920179 75.482306 
L 87.367923 71.234413 
L 87.815666 69.106431 
L 88.263409 68.981592 
L 88.711152 70.685521 
L 89.158896 73.999308 
L 90.054382 84.442832 
L 91.397612 105.705465 
L 93.636329 142.300189 
L 94.979558 160.681609 
L 96.322788 176.266815 
L 97.666018 189.700507 
L 99.456991 205.000318 
L 101.247965 218.139419 
L 103.486681 232.715871 
L 105.725397 245.717811 
L 109.755087 267.410143 
L 111.098317 273.79133 
L 112.441547 279.117501 
L 113.784777 283.251701 
L 115.128006 286.355658 
L 116.471236 288.707288 
L 117.814466 290.480051 
L 118.709953 291.365393 
L 120.053183 292.324922 
L 122.291899 293.758602 
L 123.187386 294.597976 
L 124.530615 296.206843 
L 126.321589 298.43819 
L 127.217075 299.317531 
L 128.560305 300.247442 
L 131.246765 301.544364 
L 133.037738 302.30193 
L 133.933224 302.507201 
L 135.276454 302.520558 
L 137.962914 302.273349 
L 138.858401 302.42556 
L 140.20163 302.973782 
L 143.783577 304.842915 
L 145.57455 305.389285 
L 148.708753 306.093629 
L 150.499726 306.280068 
L 154.529416 306.511577 
L 160.797822 307.525473 
L 163.036538 307.576862 
L 163.036538 307.576862 
" style="fill:none;stroke:#1f77b4;stroke-linecap:round;stroke-width:1.5;"/>
   </g>
   <g id="line2d_17">
    <path clip-path="url(#pf67d9bc6bb)" d="M 77.363482 307.564117 
L 81.473843 307.42062 
L 83.940059 307.120807 
L 85.584203 306.734179 
L 87.228347 306.125349 
L 88.872491 305.232292 
L 90.516636 304.004795 
L 92.16078 302.41078 
L 93.804924 300.434053 
L 95.449068 298.06333 
L 97.093212 295.277872 
L 98.737356 292.038204 
L 100.3815 288.288773 
L 102.025645 283.973874 
L 103.669789 279.062184 
L 105.313933 273.571882 
L 107.780149 264.459472 
L 112.712582 245.599535 
L 114.356726 240.095695 
L 116.00087 235.395501 
L 117.645014 231.656306 
L 118.467086 230.172483 
L 119.289158 228.94825 
L 120.11123 227.978946 
L 120.933302 227.255398 
L 121.755374 226.764611 
L 122.577446 226.49052 
L 123.399519 226.414727 
L 124.221591 226.517187 
L 125.043663 226.776793 
L 126.687807 227.680509 
L 128.331951 228.952121 
L 131.620239 231.961168 
L 139.018888 238.848559 
L 140.663032 240.928608 
L 142.307176 243.447416 
L 143.95132 246.379338 
L 151.349969 260.47528 
L 153.816185 264.194394 
L 159.57069 271.979418 
L 162.858978 276.372899 
L 165.325194 279.292996 
L 167.791411 281.805547 
L 171.901771 285.867096 
L 174.367987 288.678743 
L 180.122492 295.52157 
L 181.766636 297.145714 
L 183.41078 298.518937 
L 185.054924 299.632432 
L 186.699068 300.500833 
L 188.343212 301.157049 
L 190.809429 301.84567 
L 194.097717 302.469906 
L 199.030149 303.199997 
L 203.14051 303.582605 
L 208.072942 304.023478 
L 211.361231 304.606212 
L 217.937807 305.940052 
L 222.048167 306.447036 
L 231.913032 307.372171 
L 236.845465 307.546895 
L 240.955825 307.578933 
L 240.955825 307.578933 
" style="fill:none;stroke:#2ca02c;stroke-linecap:round;stroke-width:1.5;"/>
   </g>
   <g id="line2d_18">
    <path clip-path="url(#pf67d9bc6bb)" d="M 79.011364 307.574808 
L 84.280781 307.439871 
L 86.91549 307.14545 
L 88.671962 306.737808 
L 90.428435 306.048489 
L 92.184907 304.952156 
L 93.063143 304.207843 
L 93.941379 303.309646 
L 94.819615 302.241929 
L 96.576088 299.549945 
L 98.33256 296.078784 
L 100.089033 291.854395 
L 101.845505 286.970141 
L 103.601977 281.53859 
L 106.236686 272.49205 
L 108.871394 262.270007 
L 111.506103 250.797176 
L 115.897284 231.092077 
L 117.653756 224.41342 
L 118.531992 221.571442 
L 119.410228 219.111409 
L 120.288465 217.053582 
L 121.166701 215.404562 
L 122.044937 214.158763 
L 122.923173 213.300503 
L 123.801409 212.806312 
L 124.679645 212.647169 
L 125.557882 212.790438 
L 126.436118 213.20143 
L 127.314354 213.844636 
L 128.19259 214.684746 
L 129.949062 216.821753 
L 131.705535 219.377997 
L 134.340243 223.721395 
L 136.096716 226.999882 
L 137.853188 230.771245 
L 139.60966 235.195391 
L 141.366133 240.281084 
L 147.513786 259.153448 
L 149.270258 263.506008 
L 151.026731 267.185238 
L 152.783203 270.291815 
L 154.539675 272.954642 
L 156.296148 275.282954 
L 158.930856 278.3335 
L 163.322037 282.885555 
L 170.347927 289.974969 
L 172.982635 292.356209 
L 175.617344 294.475719 
L 178.252052 296.245716 
L 180.008524 297.177188 
L 181.764997 297.895517 
L 184.399705 298.646323 
L 189.669122 299.895806 
L 193.182067 301.060803 
L 197.573248 302.524295 
L 208.112082 305.530471 
L 210.746791 306.002425 
L 214.259735 306.300337 
L 223.042097 306.895753 
L 229.18975 307.218573 
L 234.459167 307.249066 
L 240.60682 307.305462 
L 252.023891 307.57503 
L 253.780363 307.580441 
L 253.780363 307.580441 
" style="fill:none;stroke:#ff7f0e;stroke-linecap:round;stroke-width:1.5;"/>
   </g>
   <g id="line2d_19">
    <path clip-path="url(#pf67d9bc6bb)" d="M 76.354874 307.579249 
L 82.588158 307.475218 
L 85.259565 307.257241 
L 87.040503 306.946921 
L 88.821442 306.399815 
L 90.60238 305.481811 
L 91.492849 304.830917 
L 92.383318 304.020223 
L 93.273787 303.025039 
L 94.164256 301.821637 
L 95.054725 300.388891 
L 95.945194 298.710042 
L 97.726133 294.578809 
L 99.507071 289.437624 
L 101.288009 283.430327 
L 103.959416 273.364353 
L 108.411762 256.205826 
L 111.083169 246.954394 
L 112.864107 241.567258 
L 114.645045 236.940277 
L 116.425983 233.135459 
L 118.206922 230.161802 
L 119.097391 228.979579 
L 119.98786 227.994956 
L 120.878329 227.203781 
L 121.768798 226.601785 
L 122.659267 226.183931 
L 123.549736 225.943501 
L 124.440205 225.871208 
L 125.330674 225.954687 
L 126.221143 226.178561 
L 128.002082 226.975923 
L 129.78302 228.120451 
L 131.563958 229.505384 
L 133.344896 231.096211 
L 135.125834 232.93467 
L 136.906773 235.111276 
L 138.687711 237.718087 
L 140.468649 240.797025 
L 142.249587 244.302867 
L 145.811464 252.002367 
L 148.482871 257.67255 
L 151.154278 262.820932 
L 153.825685 267.329918 
L 155.606624 269.961606 
L 157.387562 272.304289 
L 160.058969 275.410358 
L 168.073191 284.369622 
L 171.635067 288.168829 
L 174.306475 290.631364 
L 176.977882 292.691002 
L 179.649289 294.402397 
L 190.334918 300.530948 
L 193.006325 301.895084 
L 195.677733 303.045569 
L 198.34914 303.95461 
L 201.020547 304.612929 
L 203.691955 305.014696 
L 206.363362 305.168502 
L 214.377584 305.272081 
L 217.048991 305.685623 
L 224.172744 307.076035 
L 226.844151 307.313692 
L 230.406027 307.371562 
L 240.201187 307.331837 
L 251.777286 307.575624 
L 253.558224 307.580591 
L 253.558224 307.580591 
" style="fill:none;stroke:#1f77b4;stroke-linecap:round;stroke-width:1.5;"/>
   </g>
   <g id="line2d_20">
    <path clip-path="url(#pf67d9bc6bb)" d="M 87.003494 307.578777 
L 96.261622 307.46899 
L 101.551981 307.204101 
L 105.51975 306.810386 
L 108.164929 306.392699 
L 110.810109 305.764689 
L 113.455288 304.807667 
L 114.777878 304.161617 
L 116.100468 303.38071 
L 117.423057 302.450425 
L 118.745647 301.360323 
L 120.068237 300.105282 
L 122.713416 297.111078 
L 125.358595 293.553307 
L 129.326365 287.557713 
L 134.616723 279.502119 
L 137.261903 275.827626 
L 139.907082 272.452393 
L 145.197441 266.235614 
L 149.16521 261.411746 
L 153.132979 256.069415 
L 157.100748 250.731366 
L 158.423338 249.177141 
L 159.745927 247.829646 
L 161.068517 246.736364 
L 162.391107 245.931139 
L 163.713697 245.430623 
L 165.036286 245.232776 
L 166.358876 245.317517 
L 167.681466 245.64935 
L 169.004055 246.181599 
L 171.649235 247.637156 
L 180.907363 253.431477 
L 183.552542 255.454884 
L 184.875132 256.666019 
L 187.520311 259.554168 
L 190.16549 262.997027 
L 196.778439 272.268836 
L 199.423618 275.487084 
L 202.068798 278.225106 
L 204.713977 280.546563 
L 207.359157 282.586705 
L 212.649515 286.274554 
L 219.262464 290.547656 
L 225.875412 294.589597 
L 229.843181 296.828899 
L 233.81095 298.763294 
L 236.45613 299.832704 
L 239.101309 300.722997 
L 243.069078 301.776755 
L 247.036847 302.592017 
L 252.327206 303.427113 
L 266.875693 305.434082 
L 272.166052 306.203104 
L 276.133821 306.582902 
L 281.424179 306.851463 
L 305.230794 307.534122 
L 314.488922 307.535073 
L 333.005178 307.402083 
L 348.876254 307.579689 
L 350.198844 307.581427 
L 350.198844 307.581427 
" style="fill:none;stroke:#2ca02c;stroke-linecap:round;stroke-width:1.5;"/>
   </g>
   <g id="line2d_21">
    <path clip-path="url(#pf67d9bc6bb)" d="M 93.570738 307.57918 
L 101.93654 307.464669 
L 105.521884 307.253405 
L 109.107227 306.824341 
L 112.692571 306.097681 
L 115.0828 305.422824 
L 117.47303 304.579509 
L 119.863259 303.538589 
L 122.253488 302.241685 
L 124.643717 300.596067 
L 127.033946 298.488057 
L 129.424176 295.817534 
L 131.814405 292.543374 
L 134.204634 288.717768 
L 137.789978 282.27614 
L 146.15578 266.434963 
L 149.741124 259.263361 
L 154.521582 249.491917 
L 156.911811 245.168152 
L 158.106926 243.31394 
L 159.302041 241.717933 
L 160.497155 240.407912 
L 161.69227 239.400464 
L 162.887384 238.700968 
L 164.082499 238.304385 
L 165.277614 238.196601 
L 166.472728 238.356089 
L 167.667843 238.755786 
L 168.862957 239.365125 
L 170.058072 240.152143 
L 172.448301 242.136987 
L 174.83853 244.502203 
L 177.22876 247.122066 
L 180.814103 251.454377 
L 184.399447 256.259957 
L 189.179906 262.893834 
L 191.570135 265.899818 
L 193.960364 268.52978 
L 196.350593 270.83931 
L 202.326166 276.375991 
L 208.301739 282.171412 
L 210.691968 284.200065 
L 213.082198 285.99116 
L 216.667541 288.372181 
L 221.448 291.253121 
L 226.228458 293.854955 
L 233.399146 297.461559 
L 236.98449 299.093513 
L 240.569833 300.482894 
L 245.350292 302.036506 
L 252.520979 304.139134 
L 257.301438 305.287116 
L 260.886782 305.934515 
L 265.66724 306.526901 
L 270.447698 306.851338 
L 276.423271 307.002487 
L 301.520678 307.189945 
L 309.88648 307.224003 
L 331.398543 307.581234 
L 331.398543 307.581234 
" style="fill:none;stroke:#ff7f0e;stroke-linecap:round;stroke-width:1.5;"/>
   </g>
   <g id="line2d_22">
    <path clip-path="url(#pf67d9bc6bb)" d="M 92.268729 307.578468 
L 100.453006 307.478791 
L 104.545144 307.271485 
L 108.637282 306.824388 
L 111.365374 306.325173 
L 114.093466 305.609184 
L 116.821558 304.62441 
L 119.54965 303.316987 
L 122.277742 301.624734 
L 125.005834 299.462279 
L 126.36988 298.169548 
L 127.733926 296.714687 
L 129.097972 295.082893 
L 130.462018 293.262774 
L 133.19011 289.042802 
L 135.918202 284.110205 
L 140.01034 275.83916 
L 144.102479 267.448521 
L 146.830571 262.248458 
L 149.558663 257.54076 
L 152.286755 253.377399 
L 155.014847 249.802397 
L 156.378893 248.266178 
L 157.742939 246.92347 
L 159.106985 245.796123 
L 160.471031 244.90278 
L 161.835077 244.253994 
L 163.199123 243.848235 
L 164.563169 243.67 
L 165.927215 243.690807 
L 167.291261 243.873122 
L 170.019353 244.564529 
L 172.747445 245.504205 
L 175.475537 246.654604 
L 178.203629 248.158264 
L 179.567675 249.097866 
L 182.295768 251.402628 
L 185.02386 254.221592 
L 187.751952 257.398898 
L 191.84409 262.512846 
L 197.300274 269.697994 
L 204.120504 278.745649 
L 206.848596 281.956642 
L 209.576688 284.732033 
L 212.30478 287.056392 
L 215.032872 289.010452 
L 219.12501 291.52711 
L 227.309287 296.142698 
L 230.037379 297.537067 
L 232.765471 298.726991 
L 235.493563 299.647834 
L 238.221655 300.296897 
L 242.313793 300.915792 
L 247.769977 301.699202 
L 250.498069 302.293923 
L 254.590207 303.469944 
L 261.410437 305.533784 
L 264.13853 306.152502 
L 266.866622 306.589943 
L 269.594714 306.852002 
L 273.686852 306.999678 
L 291.41945 307.059788 
L 299.603726 307.113933 
L 320.064417 307.469448 
L 328.248693 307.532175 
L 350.07343 307.453826 
L 360.985798 307.576271 
L 363.71389 307.581335 
L 363.71389 307.581335 
" style="fill:none;stroke:#1f77b4;stroke-linecap:round;stroke-width:1.5;"/>
   </g>
   <g id="line2d_23">
    <path clip-path="url(#pf67d9bc6bb)" d="M 113.689921 307.575459 
L 122.676142 307.453114 
L 127.811125 307.173468 
L 131.662362 306.775188 
L 135.5136 306.184715 
L 139.364837 305.385783 
L 143.216074 304.31397 
L 145.783566 303.372394 
L 148.351058 302.175115 
L 150.918549 300.664934 
L 153.486041 298.815985 
L 156.053532 296.651774 
L 159.90477 292.991767 
L 166.323499 286.737641 
L 170.174736 283.3086 
L 185.579685 270.371868 
L 189.430923 267.308063 
L 193.28216 264.580301 
L 195.849652 263.001965 
L 198.417143 261.64736 
L 200.984635 260.541758 
L 203.552126 259.705204 
L 206.119618 259.148856 
L 208.68711 258.876703 
L 211.254601 258.892894 
L 213.822093 259.207916 
L 216.389584 259.834597 
L 218.957076 260.771134 
L 221.524568 261.979701 
L 225.375805 264.110721 
L 230.510788 266.976603 
L 239.497009 271.760563 
L 242.0645 273.513677 
L 244.631992 275.552075 
L 248.483229 278.982975 
L 252.334466 282.417306 
L 254.901958 284.448879 
L 257.46945 286.158804 
L 260.036941 287.533312 
L 262.604433 288.632152 
L 267.739416 290.446676 
L 271.590653 291.877463 
L 275.441891 293.532449 
L 283.144365 297.206866 
L 289.563094 300.154799 
L 293.414332 301.697747 
L 297.265569 302.960732 
L 301.116806 303.908576 
L 304.968044 304.577972 
L 308.819281 305.032092 
L 313.954264 305.387677 
L 330.642959 306.201768 
L 342.196672 307.020554 
L 351.182892 307.393752 
L 360.169113 307.550905 
L 369.155333 307.581642 
L 369.155333 307.581642 
" style="fill:none;stroke:#2ca02c;stroke-linecap:round;stroke-width:1.5;"/>
   </g>
   <g id="line2d_24">
    <path clip-path="url(#pf67d9bc6bb)" d="M 118.629727 307.579492 
L 128.604962 307.47675 
L 133.59258 307.233449 
L 137.333293 306.840499 
L 139.827102 306.418927 
L 142.320911 305.821652 
L 144.814719 305.002754 
L 147.308528 303.920058 
L 149.802337 302.546241 
L 152.296146 300.878546 
L 154.789954 298.940734 
L 157.283763 296.774281 
L 161.024476 293.188511 
L 164.76519 289.283013 
L 169.752807 283.687821 
L 178.481138 273.719733 
L 182.221851 269.790955 
L 185.962564 266.177305 
L 189.703277 262.919545 
L 192.197086 260.999615 
L 194.690895 259.353906 
L 197.184704 258.067203 
L 198.431608 257.585897 
L 199.678513 257.224659 
L 200.925417 256.98883 
L 202.172321 256.879385 
L 203.419226 256.892043 
L 205.913035 257.238423 
L 208.406843 257.889534 
L 214.641365 259.752729 
L 222.122792 261.709127 
L 224.6166 262.635966 
L 227.110409 263.787228 
L 230.851122 265.856002 
L 234.591836 268.20268 
L 238.332549 270.810644 
L 242.073262 273.760084 
L 245.813975 277.038411 
L 254.542306 284.894057 
L 259.529923 288.969887 
L 263.270637 291.756365 
L 265.764445 293.424237 
L 268.258254 294.876486 
L 270.752063 296.068247 
L 273.245872 296.987493 
L 275.739681 297.664245 
L 279.480394 298.370438 
L 289.455629 300.001408 
L 296.937055 301.591639 
L 310.653004 304.600777 
L 316.887525 305.652354 
L 323.122047 306.447558 
L 328.109665 306.850236 
L 333.097283 307.03514 
L 366.763701 307.581184 
L 366.763701 307.581184 
" style="fill:none;stroke:#ff7f0e;stroke-linecap:round;stroke-width:1.5;"/>
   </g>
   <g id="line2d_25">
    <path clip-path="url(#pf67d9bc6bb)" d="M 115.108109 307.579786 
L 125.07622 307.4868 
L 130.772284 307.208405 
L 135.044332 306.72441 
L 137.892363 306.204142 
L 140.740395 305.489512 
L 143.588427 304.558047 
L 146.436459 303.394235 
L 149.284491 301.984998 
L 152.132522 300.314417 
L 154.980554 298.362452 
L 157.828586 296.111131 
L 160.676618 293.556681 
L 163.52465 290.720357 
L 167.796697 286.047183 
L 174.916777 277.71735 
L 179.188824 272.835821 
L 182.036856 269.852331 
L 184.884888 267.231876 
L 187.73292 265.06406 
L 190.580952 263.356474 
L 193.428983 262.01752 
L 197.701031 260.36296 
L 203.397095 258.359331 
L 206.245126 257.606415 
L 207.669142 257.37361 
L 209.093158 257.268548 
L 210.517174 257.30967 
L 211.94119 257.508969 
L 213.365206 257.87128 
L 214.789222 258.394302 
L 216.213238 259.069126 
L 219.06127 260.81059 
L 221.909301 262.926716 
L 229.029381 268.524618 
L 233.301429 271.45041 
L 240.421508 276.12982 
L 248.965603 282.222078 
L 251.813635 283.890228 
L 254.661667 285.248495 
L 258.933715 286.908495 
L 264.629778 289.120137 
L 270.325842 291.663939 
L 277.445921 294.791638 
L 285.990017 298.218245 
L 291.68608 300.292946 
L 295.958128 301.635565 
L 301.654192 303.148243 
L 307.350255 304.388997 
L 311.622303 305.105314 
L 315.894351 305.611861 
L 321.590414 306.008616 
L 330.13451 306.27385 
L 340.102621 306.61608 
L 357.190812 307.387032 
L 365.734907 307.40726 
L 378.55105 307.439896 
L 397.063257 307.58058 
L 398.487273 307.581853 
L 398.487273 307.581853 
" style="fill:none;stroke:#1f77b4;stroke-linecap:round;stroke-width:1.5;"/>
   </g>
   <g id="patch_3">
    <path d="M 57.6 307.584 
L 57.6 41.472 
" style="fill:none;stroke:#ffffff;stroke-linecap:square;stroke-linejoin:miter;stroke-width:0.8;"/>
   </g>
   <g id="patch_4">
    <path d="M 414.72 307.584 
L 414.72 41.472 
" style="fill:none;stroke:#ffffff;stroke-linecap:square;stroke-linejoin:miter;stroke-width:0.8;"/>
   </g>
   <g id="patch_5">
    <path d="M 57.6 307.584 
L 414.72 307.584 
" style="fill:none;stroke:#ffffff;stroke-linecap:square;stroke-linejoin:miter;stroke-width:0.8;"/>
   </g>
   <g id="patch_6">
    <path d="M 57.6 41.472 
L 414.72 41.472 
" style="fill:none;stroke:#ffffff;stroke-linecap:square;stroke-linejoin:miter;stroke-width:0.8;"/>
   </g>
   <g id="text_15">
    <!-- Density plots of PG(h, 0) using each method for h $\in$ {1,4,7,10}. -->
    <g style="fill:#262626;" transform="translate(41.64 35.472)scale(0.12 -0.12)">
     <defs>
      <path id="DejaVuSans-32"/>
      <path d="M 18.109375 8.203125 
L 18.109375 -20.796875 
L 9.078125 -20.796875 
L 9.078125 54.6875 
L 18.109375 54.6875 
L 18.109375 46.390625 
Q 20.953125 51.265625 25.265625 53.625 
Q 29.59375 56 35.59375 56 
Q 45.5625 56 51.78125 48.09375 
Q 58.015625 40.1875 58.015625 27.296875 
Q 58.015625 14.40625 51.78125 6.484375 
Q 45.5625 -1.421875 35.59375 -1.421875 
Q 29.59375 -1.421875 25.265625 0.953125 
Q 20.953125 3.328125 18.109375 8.203125 
z
M 48.6875 27.296875 
Q 48.6875 37.203125 44.609375 42.84375 
Q 40.53125 48.484375 33.40625 48.484375 
Q 26.265625 48.484375 22.1875 42.84375 
Q 18.109375 37.203125 18.109375 27.296875 
Q 18.109375 17.390625 22.1875 11.75 
Q 26.265625 6.109375 33.40625 6.109375 
Q 40.53125 6.109375 44.609375 11.75 
Q 48.6875 17.390625 48.6875 27.296875 
z
" id="DejaVuSans-112"/>
      <path d="M 9.421875 75.984375 
L 18.40625 75.984375 
L 18.40625 0 
L 9.421875 0 
z
" id="DejaVuSans-108"/>
      <path d="M 30.609375 48.390625 
Q 23.390625 48.390625 19.1875 42.75 
Q 14.984375 37.109375 14.984375 27.296875 
Q 14.984375 17.484375 19.15625 11.84375 
Q 23.34375 6.203125 30.609375 6.203125 
Q 37.796875 6.203125 41.984375 11.859375 
Q 46.1875 17.53125 46.1875 27.296875 
Q 46.1875 37.015625 41.984375 42.703125 
Q 37.796875 48.390625 30.609375 48.390625 
z
M 30.609375 56 
Q 42.328125 56 49.015625 48.375 
Q 55.71875 40.765625 55.71875 27.296875 
Q 55.71875 13.875 49.015625 6.21875 
Q 42.328125 -1.421875 30.609375 -1.421875 
Q 18.84375 -1.421875 12.171875 6.21875 
Q 5.515625 13.875 5.515625 27.296875 
Q 5.515625 40.765625 12.171875 48.375 
Q 18.84375 56 30.609375 56 
z
" id="DejaVuSans-111"/>
      <path d="M 37.109375 75.984375 
L 37.109375 68.5 
L 28.515625 68.5 
Q 23.6875 68.5 21.796875 66.546875 
Q 19.921875 64.59375 19.921875 59.515625 
L 19.921875 54.6875 
L 34.71875 54.6875 
L 34.71875 47.703125 
L 19.921875 47.703125 
L 19.921875 0 
L 10.890625 0 
L 10.890625 47.703125 
L 2.296875 47.703125 
L 2.296875 54.6875 
L 10.890625 54.6875 
L 10.890625 58.5 
Q 10.890625 67.625 15.140625 71.796875 
Q 19.390625 75.984375 28.609375 75.984375 
z
" id="DejaVuSans-102"/>
      <path d="M 19.671875 64.796875 
L 19.671875 37.40625 
L 32.078125 37.40625 
Q 38.96875 37.40625 42.71875 40.96875 
Q 46.484375 44.53125 46.484375 51.125 
Q 46.484375 57.671875 42.71875 61.234375 
Q 38.96875 64.796875 32.078125 64.796875 
z
M 9.8125 72.90625 
L 32.078125 72.90625 
Q 44.34375 72.90625 50.609375 67.359375 
Q 56.890625 61.8125 56.890625 51.125 
Q 56.890625 40.328125 50.609375 34.8125 
Q 44.34375 29.296875 32.078125 29.296875 
L 19.671875 29.296875 
L 19.671875 0 
L 9.8125 0 
z
" id="DejaVuSans-80"/>
      <path d="M 59.515625 10.40625 
L 59.515625 29.984375 
L 43.40625 29.984375 
L 43.40625 38.09375 
L 69.28125 38.09375 
L 69.28125 6.78125 
Q 63.578125 2.734375 56.6875 0.65625 
Q 49.8125 -1.421875 42 -1.421875 
Q 24.90625 -1.421875 15.25 8.5625 
Q 5.609375 18.5625 5.609375 36.375 
Q 5.609375 54.25 15.25 64.234375 
Q 24.90625 74.21875 42 74.21875 
Q 49.125 74.21875 55.546875 72.453125 
Q 61.96875 70.703125 67.390625 67.28125 
L 67.390625 56.78125 
Q 61.921875 61.421875 55.765625 63.765625 
Q 49.609375 66.109375 42.828125 66.109375 
Q 29.4375 66.109375 22.71875 58.640625 
Q 16.015625 51.171875 16.015625 36.375 
Q 16.015625 21.625 22.71875 14.15625 
Q 29.4375 6.6875 42.828125 6.6875 
Q 48.046875 6.6875 52.140625 7.59375 
Q 56.25 8.5 59.515625 10.40625 
z
" id="DejaVuSans-71"/>
      <path d="M 31 75.875 
Q 24.46875 64.65625 21.28125 53.65625 
Q 18.109375 42.671875 18.109375 31.390625 
Q 18.109375 20.125 21.3125 9.0625 
Q 24.515625 -2 31 -13.1875 
L 23.1875 -13.1875 
Q 15.875 -1.703125 12.234375 9.375 
Q 8.59375 20.453125 8.59375 31.390625 
Q 8.59375 42.28125 12.203125 53.3125 
Q 15.828125 64.359375 23.1875 75.875 
z
" id="DejaVuSans-40"/>
      <path d="M 54.890625 33.015625 
L 54.890625 0 
L 45.90625 0 
L 45.90625 32.71875 
Q 45.90625 40.484375 42.875 44.328125 
Q 39.84375 48.1875 33.796875 48.1875 
Q 26.515625 48.1875 22.3125 43.546875 
Q 18.109375 38.921875 18.109375 30.90625 
L 18.109375 0 
L 9.078125 0 
L 9.078125 75.984375 
L 18.109375 75.984375 
L 18.109375 46.1875 
Q 21.34375 51.125 25.703125 53.5625 
Q 30.078125 56 35.796875 56 
Q 45.21875 56 50.046875 50.171875 
Q 54.890625 44.34375 54.890625 33.015625 
z
" id="DejaVuSans-104"/>
      <path d="M 11.71875 12.40625 
L 22.015625 12.40625 
L 22.015625 4 
L 14.015625 -11.625 
L 7.71875 -11.625 
L 11.71875 4 
z
" id="DejaVuSans-44"/>
      <path d="M 8.015625 75.875 
L 15.828125 75.875 
Q 23.140625 64.359375 26.78125 53.3125 
Q 30.421875 42.28125 30.421875 31.390625 
Q 30.421875 20.453125 26.78125 9.375 
Q 23.140625 -1.703125 15.828125 -13.1875 
L 8.015625 -13.1875 
Q 14.5 -2 17.703125 9.0625 
Q 20.90625 20.125 20.90625 31.390625 
Q 20.90625 42.671875 17.703125 53.65625 
Q 14.5 64.65625 8.015625 75.875 
z
" id="DejaVuSans-41"/>
      <path d="M 8.5 21.578125 
L 8.5 54.6875 
L 17.484375 54.6875 
L 17.484375 21.921875 
Q 17.484375 14.15625 20.5 10.265625 
Q 23.53125 6.390625 29.59375 6.390625 
Q 36.859375 6.390625 41.078125 11.03125 
Q 45.3125 15.671875 45.3125 23.6875 
L 45.3125 54.6875 
L 54.296875 54.6875 
L 54.296875 0 
L 45.3125 0 
L 45.3125 8.40625 
Q 42.046875 3.421875 37.71875 1 
Q 33.40625 -1.421875 27.6875 -1.421875 
Q 18.265625 -1.421875 13.375 4.4375 
Q 8.5 10.296875 8.5 21.578125 
z
M 31.109375 56 
z
" id="DejaVuSans-117"/>
      <path d="M 45.40625 27.984375 
Q 45.40625 37.75 41.375 43.109375 
Q 37.359375 48.484375 30.078125 48.484375 
Q 22.859375 48.484375 18.828125 43.109375 
Q 14.796875 37.75 14.796875 27.984375 
Q 14.796875 18.265625 18.828125 12.890625 
Q 22.859375 7.515625 30.078125 7.515625 
Q 37.359375 7.515625 41.375 12.890625 
Q 45.40625 18.265625 45.40625 27.984375 
z
M 54.390625 6.78125 
Q 54.390625 -7.171875 48.1875 -13.984375 
Q 42 -20.796875 29.203125 -20.796875 
Q 24.46875 -20.796875 20.265625 -20.09375 
Q 16.0625 -19.390625 12.109375 -17.921875 
L 12.109375 -9.1875 
Q 16.0625 -11.328125 19.921875 -12.34375 
Q 23.78125 -13.375 27.78125 -13.375 
Q 36.625 -13.375 41.015625 -8.765625 
Q 45.40625 -4.15625 45.40625 5.171875 
L 45.40625 9.625 
Q 42.625 4.78125 38.28125 2.390625 
Q 33.9375 0 27.875 0 
Q 17.828125 0 11.671875 7.65625 
Q 5.515625 15.328125 5.515625 27.984375 
Q 5.515625 40.671875 11.671875 48.328125 
Q 17.828125 56 27.875 56 
Q 33.9375 56 38.28125 53.609375 
Q 42.625 51.21875 45.40625 46.390625 
L 45.40625 54.6875 
L 54.390625 54.6875 
z
" id="DejaVuSans-103"/>
      <path d="M 34.28125 27.484375 
Q 23.390625 27.484375 19.1875 25 
Q 14.984375 22.515625 14.984375 16.5 
Q 14.984375 11.71875 18.140625 8.90625 
Q 21.296875 6.109375 26.703125 6.109375 
Q 34.1875 6.109375 38.703125 11.40625 
Q 43.21875 16.703125 43.21875 25.484375 
L 43.21875 27.484375 
z
M 52.203125 31.203125 
L 52.203125 0 
L 43.21875 0 
L 43.21875 8.296875 
Q 40.140625 3.328125 35.546875 0.953125 
Q 30.953125 -1.421875 24.3125 -1.421875 
Q 15.921875 -1.421875 10.953125 3.296875 
Q 6 8.015625 6 15.921875 
Q 6 25.140625 12.171875 29.828125 
Q 18.359375 34.515625 30.609375 34.515625 
L 43.21875 34.515625 
L 43.21875 35.40625 
Q 43.21875 41.609375 39.140625 45 
Q 35.0625 48.390625 27.6875 48.390625 
Q 23 48.390625 18.546875 47.265625 
Q 14.109375 46.140625 10.015625 43.890625 
L 10.015625 52.203125 
Q 14.9375 54.109375 19.578125 55.046875 
Q 24.21875 56 28.609375 56 
Q 40.484375 56 46.34375 49.84375 
Q 52.203125 43.703125 52.203125 31.203125 
z
" id="DejaVuSans-97"/>
      <path d="M 48.78125 52.59375 
L 48.78125 44.1875 
Q 44.96875 46.296875 41.140625 47.34375 
Q 37.3125 48.390625 33.40625 48.390625 
Q 24.65625 48.390625 19.8125 42.84375 
Q 14.984375 37.3125 14.984375 27.296875 
Q 14.984375 17.28125 19.8125 11.734375 
Q 24.65625 6.203125 33.40625 6.203125 
Q 37.3125 6.203125 41.140625 7.25 
Q 44.96875 8.296875 48.78125 10.40625 
L 48.78125 2.09375 
Q 45.015625 0.34375 40.984375 -0.53125 
Q 36.96875 -1.421875 32.421875 -1.421875 
Q 20.0625 -1.421875 12.78125 6.34375 
Q 5.515625 14.109375 5.515625 27.296875 
Q 5.515625 40.671875 12.859375 48.328125 
Q 20.21875 56 33.015625 56 
Q 37.15625 56 41.109375 55.140625 
Q 45.0625 54.296875 48.78125 52.59375 
z
" id="DejaVuSans-99"/>
      <path d="M 52 44.1875 
Q 55.375 50.25 60.0625 53.125 
Q 64.75 56 71.09375 56 
Q 79.640625 56 84.28125 50.015625 
Q 88.921875 44.046875 88.921875 33.015625 
L 88.921875 0 
L 79.890625 0 
L 79.890625 32.71875 
Q 79.890625 40.578125 77.09375 44.375 
Q 74.3125 48.1875 68.609375 48.1875 
Q 61.625 48.1875 57.5625 43.546875 
Q 53.515625 38.921875 53.515625 30.90625 
L 53.515625 0 
L 44.484375 0 
L 44.484375 32.71875 
Q 44.484375 40.625 41.703125 44.40625 
Q 38.921875 48.1875 33.109375 48.1875 
Q 26.21875 48.1875 22.15625 43.53125 
Q 18.109375 38.875 18.109375 30.90625 
L 18.109375 0 
L 9.078125 0 
L 9.078125 54.6875 
L 18.109375 54.6875 
L 18.109375 46.1875 
Q 21.1875 51.21875 25.484375 53.609375 
Q 29.78125 56 35.6875 56 
Q 41.65625 56 45.828125 52.96875 
Q 50 49.953125 52 44.1875 
z
" id="DejaVuSans-109"/>
      <path d="M 45.40625 46.390625 
L 45.40625 75.984375 
L 54.390625 75.984375 
L 54.390625 0 
L 45.40625 0 
L 45.40625 8.203125 
Q 42.578125 3.328125 38.25 0.953125 
Q 33.9375 -1.421875 27.875 -1.421875 
Q 17.96875 -1.421875 11.734375 6.484375 
Q 5.515625 14.40625 5.515625 27.296875 
Q 5.515625 40.1875 11.734375 48.09375 
Q 17.96875 56 27.875 56 
Q 33.9375 56 38.25 53.625 
Q 42.578125 51.265625 45.40625 46.390625 
z
M 14.796875 27.296875 
Q 14.796875 17.390625 18.875 11.75 
Q 22.953125 6.109375 30.078125 6.109375 
Q 37.203125 6.109375 41.296875 11.75 
Q 45.40625 17.390625 45.40625 27.296875 
Q 45.40625 37.203125 41.296875 42.84375 
Q 37.203125 48.484375 30.078125 48.484375 
Q 22.953125 48.484375 18.875 42.84375 
Q 14.796875 37.203125 14.796875 27.296875 
z
" id="DejaVuSans-100"/>
      <path d="M 41.109375 46.296875 
Q 39.59375 47.171875 37.8125 47.578125 
Q 36.03125 48 33.890625 48 
Q 26.265625 48 22.1875 43.046875 
Q 18.109375 38.09375 18.109375 28.8125 
L 18.109375 0 
L 9.078125 0 
L 9.078125 54.6875 
L 18.109375 54.6875 
L 18.109375 46.1875 
Q 20.953125 51.171875 25.484375 53.578125 
Q 30.03125 56 36.53125 56 
Q 37.453125 56 38.578125 55.875 
Q 39.703125 55.765625 41.0625 55.515625 
z
" id="DejaVuSans-114"/>
      <path d="M 16.75 30.609375 
Q 17.09375 27 20.171875 21.140625 
Q 23.78125 14.359375 30.609375 10.546875 
Q 37.3125 6.84375 44.53125 6.78125 
L 78.5625 6.78125 
L 78.5625 -0.984375 
L 44.53125 -0.984375 
Q 35.15625 -0.984375 26.484375 3.84375 
Q 17.828125 8.6875 13.1875 17.28125 
Q 8.546875 25.875 8.546875 35.015625 
Q 8.546875 44.046875 13.1875 52.640625 
Q 17.828125 61.234375 26.484375 66.109375 
Q 35.15625 71 44.53125 71 
L 78.5625 71 
L 78.5625 63.234375 
L 44.53125 63.234375 
Q 37.3125 63.1875 30.609375 59.421875 
Q 23.828125 55.5625 20.171875 48.828125 
Q 17.046875 42.96875 16.609375 38.421875 
L 78.5625 38.421875 
L 78.5625 30.609375 
z
" id="DejaVuSans-8712"/>
      <path d="M 51.125 -9.28125 
L 51.125 -16.3125 
L 48.09375 -16.3125 
Q 35.9375 -16.3125 31.8125 -12.6875 
Q 27.6875 -9.078125 27.6875 1.703125 
L 27.6875 13.375 
Q 27.6875 20.75 25.046875 23.578125 
Q 22.40625 26.421875 15.484375 26.421875 
L 12.5 26.421875 
L 12.5 33.40625 
L 15.484375 33.40625 
Q 22.46875 33.40625 25.078125 36.203125 
Q 27.6875 39.015625 27.6875 46.296875 
L 27.6875 58.015625 
Q 27.6875 68.796875 31.8125 72.390625 
Q 35.9375 75.984375 48.09375 75.984375 
L 51.125 75.984375 
L 51.125 69 
L 47.796875 69 
Q 40.921875 69 38.8125 66.84375 
Q 36.71875 64.703125 36.71875 57.8125 
L 36.71875 45.703125 
Q 36.71875 38.03125 34.5 34.5625 
Q 32.28125 31.109375 26.90625 29.890625 
Q 32.328125 28.5625 34.515625 25.09375 
Q 36.71875 21.625 36.71875 14.015625 
L 36.71875 1.90625 
Q 36.71875 -4.984375 38.8125 -7.125 
Q 40.921875 -9.28125 47.796875 -9.28125 
z
" id="DejaVuSans-123"/>
      <path d="M 8.203125 72.90625 
L 55.078125 72.90625 
L 55.078125 68.703125 
L 28.609375 0 
L 18.3125 0 
L 43.21875 64.59375 
L 8.203125 64.59375 
z
" id="DejaVuSans-55"/>
      <path d="M 12.5 -9.28125 
L 15.921875 -9.28125 
Q 22.75 -9.28125 24.828125 -7.171875 
Q 26.90625 -5.078125 26.90625 1.90625 
L 26.90625 14.015625 
Q 26.90625 21.625 29.09375 25.09375 
Q 31.296875 28.5625 36.71875 29.890625 
Q 31.296875 31.109375 29.09375 34.5625 
Q 26.90625 38.03125 26.90625 45.703125 
L 26.90625 57.8125 
Q 26.90625 64.75 24.828125 66.875 
Q 22.75 69 15.921875 69 
L 12.5 69 
L 12.5 75.984375 
L 15.578125 75.984375 
Q 27.734375 75.984375 31.8125 72.390625 
Q 35.890625 68.796875 35.890625 58.015625 
L 35.890625 46.296875 
Q 35.890625 39.015625 38.515625 36.203125 
Q 41.15625 33.40625 48.09375 33.40625 
L 51.125 33.40625 
L 51.125 26.421875 
L 48.09375 26.421875 
Q 41.15625 26.421875 38.515625 23.578125 
Q 35.890625 20.75 35.890625 13.375 
L 35.890625 1.703125 
Q 35.890625 -9.078125 31.8125 -12.6875 
Q 27.734375 -16.3125 15.578125 -16.3125 
L 12.5 -16.3125 
z
" id="DejaVuSans-125"/>
     </defs>
     <use transform="translate(0 0.015625)" xlink:href="#DejaVuSans-68"/>
     <use transform="translate(77.001953 0.015625)" xlink:href="#DejaVuSans-101"/>
     <use transform="translate(138.525391 0.015625)" xlink:href="#DejaVuSans-110"/>
     <use transform="translate(201.904297 0.015625)" xlink:href="#DejaVuSans-115"/>
     <use transform="translate(254.003906 0.015625)" xlink:href="#DejaVuSans-105"/>
     <use transform="translate(281.787109 0.015625)" xlink:href="#DejaVuSans-116"/>
     <use transform="translate(320.996094 0.015625)" xlink:href="#DejaVuSans-121"/>
     <use transform="translate(380.175781 0.015625)" xlink:href="#DejaVuSans-32"/>
     <use transform="translate(411.962891 0.015625)" xlink:href="#DejaVuSans-112"/>
     <use transform="translate(475.439453 0.015625)" xlink:href="#DejaVuSans-108"/>
     <use transform="translate(503.222656 0.015625)" xlink:href="#DejaVuSans-111"/>
     <use transform="translate(564.404297 0.015625)" xlink:href="#DejaVuSans-116"/>
     <use transform="translate(603.613281 0.015625)" xlink:href="#DejaVuSans-115"/>
     <use transform="translate(655.712891 0.015625)" xlink:href="#DejaVuSans-32"/>
     <use transform="translate(687.5 0.015625)" xlink:href="#DejaVuSans-111"/>
     <use transform="translate(748.681641 0.015625)" xlink:href="#DejaVuSans-102"/>
     <use transform="translate(783.886719 0.015625)" xlink:href="#DejaVuSans-32"/>
     <use transform="translate(815.673828 0.015625)" xlink:href="#DejaVuSans-80"/>
     <use transform="translate(875.976562 0.015625)" xlink:href="#DejaVuSans-71"/>
     <use transform="translate(953.466797 0.015625)" xlink:href="#DejaVuSans-40"/>
     <use transform="translate(992.480469 0.015625)" xlink:href="#DejaVuSans-104"/>
     <use transform="translate(1055.859375 0.015625)" xlink:href="#DejaVuSans-44"/>
     <use transform="translate(1087.646484 0.015625)" xlink:href="#DejaVuSans-32"/>
     <use transform="translate(1119.433594 0.015625)" xlink:href="#DejaVuSans-48"/>
     <use transform="translate(1183.056641 0.015625)" xlink:href="#DejaVuSans-41"/>
     <use transform="translate(1222.070312 0.015625)" xlink:href="#DejaVuSans-32"/>
     <use transform="translate(1253.857422 0.015625)" xlink:href="#DejaVuSans-117"/>
     <use transform="translate(1317.236328 0.015625)" xlink:href="#DejaVuSans-115"/>
     <use transform="translate(1369.335938 0.015625)" xlink:href="#DejaVuSans-105"/>
     <use transform="translate(1397.119141 0.015625)" xlink:href="#DejaVuSans-110"/>
     <use transform="translate(1460.498047 0.015625)" xlink:href="#DejaVuSans-103"/>
     <use transform="translate(1523.974609 0.015625)" xlink:href="#DejaVuSans-32"/>
     <use transform="translate(1555.761719 0.015625)" xlink:href="#DejaVuSans-101"/>
     <use transform="translate(1617.285156 0.015625)" xlink:href="#DejaVuSans-97"/>
     <use transform="translate(1678.564453 0.015625)" xlink:href="#DejaVuSans-99"/>
     <use transform="translate(1733.544922 0.015625)" xlink:href="#DejaVuSans-104"/>
     <use transform="translate(1796.923828 0.015625)" xlink:href="#DejaVuSans-32"/>
     <use transform="translate(1828.710938 0.015625)" xlink:href="#DejaVuSans-109"/>
     <use transform="translate(1926.123047 0.015625)" xlink:href="#DejaVuSans-101"/>
     <use transform="translate(1987.646484 0.015625)" xlink:href="#DejaVuSans-116"/>
     <use transform="translate(2026.855469 0.015625)" xlink:href="#DejaVuSans-104"/>
     <use transform="translate(2090.234375 0.015625)" xlink:href="#DejaVuSans-111"/>
     <use transform="translate(2151.416016 0.015625)" xlink:href="#DejaVuSans-100"/>
     <use transform="translate(2214.892578 0.015625)" xlink:href="#DejaVuSans-32"/>
     <use transform="translate(2246.679688 0.015625)" xlink:href="#DejaVuSans-102"/>
     <use transform="translate(2281.884766 0.015625)" xlink:href="#DejaVuSans-111"/>
     <use transform="translate(2343.066406 0.015625)" xlink:href="#DejaVuSans-114"/>
     <use transform="translate(2384.179688 0.015625)" xlink:href="#DejaVuSans-32"/>
     <use transform="translate(2415.966797 0.015625)" xlink:href="#DejaVuSans-104"/>
     <use transform="translate(2479.345703 0.015625)" xlink:href="#DejaVuSans-32"/>
     <use transform="translate(2530.615234 0.015625)" xlink:href="#DejaVuSans-8712"/>
     <use transform="translate(2637.207031 0.015625)" xlink:href="#DejaVuSans-32"/>
     <use transform="translate(2668.994141 0.015625)" xlink:href="#DejaVuSans-123"/>
     <use transform="translate(2732.617188 0.015625)" xlink:href="#DejaVuSans-49"/>
     <use transform="translate(2796.240234 0.015625)" xlink:href="#DejaVuSans-44"/>
     <use transform="translate(2828.027344 0.015625)" xlink:href="#DejaVuSans-52"/>
     <use transform="translate(2891.650391 0.015625)" xlink:href="#DejaVuSans-44"/>
     <use transform="translate(2923.4375 0.015625)" xlink:href="#DejaVuSans-55"/>
     <use transform="translate(2987.060547 0.015625)" xlink:href="#DejaVuSans-44"/>
     <use transform="translate(3018.847656 0.015625)" xlink:href="#DejaVuSans-49"/>
     <use transform="translate(3082.470703 0.015625)" xlink:href="#DejaVuSans-48"/>
     <use transform="translate(3146.09375 0.015625)" xlink:href="#DejaVuSans-125"/>
     <use transform="translate(3209.716797 0.015625)" xlink:href="#DejaVuSans-46"/>
    </g>
   </g>
   <g id="legend_1">
    <g id="patch_7">
     <path d="M 330.265313 93.506375 
L 407.72 93.506375 
Q 409.72 93.506375 409.72 91.506375 
L 409.72 48.472 
Q 409.72 46.472 407.72 46.472 
L 330.265313 46.472 
Q 328.265313 46.472 328.265313 48.472 
L 328.265313 91.506375 
Q 328.265313 93.506375 330.265313 93.506375 
z
" style="fill:#eaeaf2;opacity:0.8;stroke:#cccccc;stroke-linejoin:miter;"/>
    </g>
    <g id="line2d_26">
     <path d="M 332.265313 54.570438 
L 352.265313 54.570438 
" style="fill:none;stroke:#1f77b4;stroke-linecap:round;stroke-width:1.5;"/>
    </g>
    <g id="line2d_27"/>
    <g id="text_16">
     <!-- devroye -->
     <g style="fill:#262626;" transform="translate(360.265313 58.070438)scale(0.1 -0.1)">
      <defs>
       <path d="M 2.984375 54.6875 
L 12.5 54.6875 
L 29.59375 8.796875 
L 46.6875 54.6875 
L 56.203125 54.6875 
L 35.6875 0 
L 23.484375 0 
z
" id="DejaVuSans-118"/>
      </defs>
      <use xlink:href="#DejaVuSans-100"/>
      <use x="63.476562" xlink:href="#DejaVuSans-101"/>
      <use x="125" xlink:href="#DejaVuSans-118"/>
      <use x="184.179688" xlink:href="#DejaVuSans-114"/>
      <use x="223.042969" xlink:href="#DejaVuSans-111"/>
      <use x="284.224609" xlink:href="#DejaVuSans-121"/>
      <use x="343.404297" xlink:href="#DejaVuSans-101"/>
     </g>
    </g>
    <g id="line2d_28">
     <path d="M 332.265313 69.248563 
L 352.265313 69.248563 
" style="fill:none;stroke:#ff7f0e;stroke-linecap:round;stroke-width:1.5;"/>
    </g>
    <g id="line2d_29"/>
    <g id="text_17">
     <!-- alternate -->
     <g style="fill:#262626;" transform="translate(360.265313 72.748563)scale(0.1 -0.1)">
      <use xlink:href="#DejaVuSans-97"/>
      <use x="61.279297" xlink:href="#DejaVuSans-108"/>
      <use x="89.0625" xlink:href="#DejaVuSans-116"/>
      <use x="128.271484" xlink:href="#DejaVuSans-101"/>
      <use x="189.794922" xlink:href="#DejaVuSans-114"/>
      <use x="229.158203" xlink:href="#DejaVuSans-110"/>
      <use x="292.537109" xlink:href="#DejaVuSans-97"/>
      <use x="353.816406" xlink:href="#DejaVuSans-116"/>
      <use x="393.025391" xlink:href="#DejaVuSans-101"/>
     </g>
    </g>
    <g id="line2d_30">
     <path d="M 332.265313 83.926688 
L 352.265313 83.926688 
" style="fill:none;stroke:#2ca02c;stroke-linecap:round;stroke-width:1.5;"/>
    </g>
    <g id="line2d_31"/>
    <g id="text_18">
     <!-- gamma -->
     <g style="fill:#262626;" transform="translate(360.265313 87.426688)scale(0.1 -0.1)">
      <use xlink:href="#DejaVuSans-103"/>
      <use x="63.476562" xlink:href="#DejaVuSans-97"/>
      <use x="124.755859" xlink:href="#DejaVuSans-109"/>
      <use x="222.167969" xlink:href="#DejaVuSans-109"/>
      <use x="319.580078" xlink:href="#DejaVuSans-97"/>
     </g>
    </g>
   </g>
  </g>
 </g>
 <defs>
  <clipPath id="pf67d9bc6bb">
   <rect height="266.112" width="357.12" x="57.6" y="41.472"/>
  </clipPath>
 </defs>
</svg>
