<?xml version="1.0" encoding="utf-8" standalone="no"?>
<!DOCTYPE svg PUBLIC "-//W3C//DTD SVG 1.1//EN"
  "http://www.w3.org/Graphics/SVG/1.1/DTD/svg11.dtd">
<!-- Created with matplotlib (https://matplotlib.org/) -->
<svg height="345.6pt" version="1.1" viewBox="0 0 460.8 345.6" width="460.8pt" xmlns="http://www.w3.org/2000/svg" xmlns:xlink="http://www.w3.org/1999/xlink">
 <metadata>
  <rdf:RDF xmlns:cc="http://creativecommons.org/ns#" xmlns:dc="http://purl.org/dc/elements/1.1/" xmlns:rdf="http://www.w3.org/1999/02/22-rdf-syntax-ns#">
   <cc:Work>
    <dc:type rdf:resource="http://purl.org/dc/dcmitype/StillImage"/>
    <dc:date>2021-01-26T17:02:08.551892</dc:date>
    <dc:format>image/svg+xml</dc:format>
    <dc:creator>
     <cc:Agent>
      <dc:title>Matplotlib v3.3.3, https://matplotlib.org/</dc:title>
     </cc:Agent>
    </dc:creator>
   </cc:Work>
  </rdf:RDF>
 </metadata>
 <defs>
  <style type="text/css">*{stroke-linecap:butt;stroke-linejoin:round;}</style>
 </defs>
 <g id="figure_1">
  <g id="patch_1">
   <path d="M 0 345.6 
L 460.8 345.6 
L 460.8 0 
L 0 0 
z
" style="fill:#ffffff;"/>
  </g>
  <g id="axes_1">
   <g id="patch_2">
    <path d="M 57.6 307.584 
L 414.72 307.584 
L 414.72 41.472 
L 57.6 41.472 
z
" style="fill:#eaeaf2;"/>
   </g>
   <g id="matplotlib.axis_1">
    <g id="xtick_1">
     <g id="line2d_1">
      <path clip-path="url(#p2448da2902)" d="M 79.404772 307.584 
L 79.404772 41.472 
" style="fill:none;stroke:#ffffff;stroke-linecap:round;stroke-width:0.8;"/>
     </g>
     <g id="text_1">
      <!-- 0 -->
      <g style="fill:#262626;" transform="translate(76.223522 322.182437)scale(0.1 -0.1)">
       <defs>
        <path d="M 31.78125 66.40625 
Q 24.171875 66.40625 20.328125 58.90625 
Q 16.5 51.421875 16.5 36.375 
Q 16.5 21.390625 20.328125 13.890625 
Q 24.171875 6.390625 31.78125 6.390625 
Q 39.453125 6.390625 43.28125 13.890625 
Q 47.125 21.390625 47.125 36.375 
Q 47.125 51.421875 43.28125 58.90625 
Q 39.453125 66.40625 31.78125 66.40625 
z
M 31.78125 74.21875 
Q 44.046875 74.21875 50.515625 64.515625 
Q 56.984375 54.828125 56.984375 36.375 
Q 56.984375 17.96875 50.515625 8.265625 
Q 44.046875 -1.421875 31.78125 -1.421875 
Q 19.53125 -1.421875 13.0625 8.265625 
Q 6.59375 17.96875 6.59375 36.375 
Q 6.59375 54.828125 13.0625 64.515625 
Q 19.53125 74.21875 31.78125 74.21875 
z
" id="DejaVuSans-48"/>
       </defs>
       <use xlink:href="#DejaVuSans-48"/>
      </g>
     </g>
    </g>
    <g id="xtick_2">
     <g id="line2d_2">
      <path clip-path="url(#p2448da2902)" d="M 158.378216 307.584 
L 158.378216 41.472 
" style="fill:none;stroke:#ffffff;stroke-linecap:round;stroke-width:0.8;"/>
     </g>
     <g id="text_2">
      <!-- 2 -->
      <g style="fill:#262626;" transform="translate(155.196966 322.182437)scale(0.1 -0.1)">
       <defs>
        <path d="M 19.1875 8.296875 
L 53.609375 8.296875 
L 53.609375 0 
L 7.328125 0 
L 7.328125 8.296875 
Q 12.9375 14.109375 22.625 23.890625 
Q 32.328125 33.6875 34.8125 36.53125 
Q 39.546875 41.84375 41.421875 45.53125 
Q 43.3125 49.21875 43.3125 52.78125 
Q 43.3125 58.59375 39.234375 62.25 
Q 35.15625 65.921875 28.609375 65.921875 
Q 23.96875 65.921875 18.8125 64.3125 
Q 13.671875 62.703125 7.8125 59.421875 
L 7.8125 69.390625 
Q 13.765625 71.78125 18.9375 73 
Q 24.125 74.21875 28.421875 74.21875 
Q 39.75 74.21875 46.484375 68.546875 
Q 53.21875 62.890625 53.21875 53.421875 
Q 53.21875 48.921875 51.53125 44.890625 
Q 49.859375 40.875 45.40625 35.40625 
Q 44.1875 33.984375 37.640625 27.21875 
Q 31.109375 20.453125 19.1875 8.296875 
z
" id="DejaVuSans-50"/>
       </defs>
       <use xlink:href="#DejaVuSans-50"/>
      </g>
     </g>
    </g>
    <g id="xtick_3">
     <g id="line2d_3">
      <path clip-path="url(#p2448da2902)" d="M 237.35166 307.584 
L 237.35166 41.472 
" style="fill:none;stroke:#ffffff;stroke-linecap:round;stroke-width:0.8;"/>
     </g>
     <g id="text_3">
      <!-- 4 -->
      <g style="fill:#262626;" transform="translate(234.17041 322.182437)scale(0.1 -0.1)">
       <defs>
        <path d="M 37.796875 64.3125 
L 12.890625 25.390625 
L 37.796875 25.390625 
z
M 35.203125 72.90625 
L 47.609375 72.90625 
L 47.609375 25.390625 
L 58.015625 25.390625 
L 58.015625 17.1875 
L 47.609375 17.1875 
L 47.609375 0 
L 37.796875 0 
L 37.796875 17.1875 
L 4.890625 17.1875 
L 4.890625 26.703125 
z
" id="DejaVuSans-52"/>
       </defs>
       <use xlink:href="#DejaVuSans-52"/>
      </g>
     </g>
    </g>
    <g id="xtick_4">
     <g id="line2d_4">
      <path clip-path="url(#p2448da2902)" d="M 316.325104 307.584 
L 316.325104 41.472 
" style="fill:none;stroke:#ffffff;stroke-linecap:round;stroke-width:0.8;"/>
     </g>
     <g id="text_4">
      <!-- 6 -->
      <g style="fill:#262626;" transform="translate(313.143854 322.182437)scale(0.1 -0.1)">
       <defs>
        <path d="M 33.015625 40.375 
Q 26.375 40.375 22.484375 35.828125 
Q 18.609375 31.296875 18.609375 23.390625 
Q 18.609375 15.53125 22.484375 10.953125 
Q 26.375 6.390625 33.015625 6.390625 
Q 39.65625 6.390625 43.53125 10.953125 
Q 47.40625 15.53125 47.40625 23.390625 
Q 47.40625 31.296875 43.53125 35.828125 
Q 39.65625 40.375 33.015625 40.375 
z
M 52.59375 71.296875 
L 52.59375 62.3125 
Q 48.875 64.0625 45.09375 64.984375 
Q 41.3125 65.921875 37.59375 65.921875 
Q 27.828125 65.921875 22.671875 59.328125 
Q 17.53125 52.734375 16.796875 39.40625 
Q 19.671875 43.65625 24.015625 45.921875 
Q 28.375 48.1875 33.59375 48.1875 
Q 44.578125 48.1875 50.953125 41.515625 
Q 57.328125 34.859375 57.328125 23.390625 
Q 57.328125 12.15625 50.6875 5.359375 
Q 44.046875 -1.421875 33.015625 -1.421875 
Q 20.359375 -1.421875 13.671875 8.265625 
Q 6.984375 17.96875 6.984375 36.375 
Q 6.984375 53.65625 15.1875 63.9375 
Q 23.390625 74.21875 37.203125 74.21875 
Q 40.921875 74.21875 44.703125 73.484375 
Q 48.484375 72.75 52.59375 71.296875 
z
" id="DejaVuSans-54"/>
       </defs>
       <use xlink:href="#DejaVuSans-54"/>
      </g>
     </g>
    </g>
    <g id="xtick_5">
     <g id="line2d_5">
      <path clip-path="url(#p2448da2902)" d="M 395.298548 307.584 
L 395.298548 41.472 
" style="fill:none;stroke:#ffffff;stroke-linecap:round;stroke-width:0.8;"/>
     </g>
     <g id="text_5">
      <!-- 8 -->
      <g style="fill:#262626;" transform="translate(392.117298 322.182437)scale(0.1 -0.1)">
       <defs>
        <path d="M 31.78125 34.625 
Q 24.75 34.625 20.71875 30.859375 
Q 16.703125 27.09375 16.703125 20.515625 
Q 16.703125 13.921875 20.71875 10.15625 
Q 24.75 6.390625 31.78125 6.390625 
Q 38.8125 6.390625 42.859375 10.171875 
Q 46.921875 13.96875 46.921875 20.515625 
Q 46.921875 27.09375 42.890625 30.859375 
Q 38.875 34.625 31.78125 34.625 
z
M 21.921875 38.8125 
Q 15.578125 40.375 12.03125 44.71875 
Q 8.5 49.078125 8.5 55.328125 
Q 8.5 64.0625 14.71875 69.140625 
Q 20.953125 74.21875 31.78125 74.21875 
Q 42.671875 74.21875 48.875 69.140625 
Q 55.078125 64.0625 55.078125 55.328125 
Q 55.078125 49.078125 51.53125 44.71875 
Q 48 40.375 41.703125 38.8125 
Q 48.828125 37.15625 52.796875 32.3125 
Q 56.78125 27.484375 56.78125 20.515625 
Q 56.78125 9.90625 50.3125 4.234375 
Q 43.84375 -1.421875 31.78125 -1.421875 
Q 19.734375 -1.421875 13.25 4.234375 
Q 6.78125 9.90625 6.78125 20.515625 
Q 6.78125 27.484375 10.78125 32.3125 
Q 14.796875 37.15625 21.921875 38.8125 
z
M 18.3125 54.390625 
Q 18.3125 48.734375 21.84375 45.5625 
Q 25.390625 42.390625 31.78125 42.390625 
Q 38.140625 42.390625 41.71875 45.5625 
Q 45.3125 48.734375 45.3125 54.390625 
Q 45.3125 60.0625 41.71875 63.234375 
Q 38.140625 66.40625 31.78125 66.40625 
Q 25.390625 66.40625 21.84375 63.234375 
Q 18.3125 60.0625 18.3125 54.390625 
z
" id="DejaVuSans-56"/>
       </defs>
       <use xlink:href="#DejaVuSans-56"/>
      </g>
     </g>
    </g>
   </g>
   <g id="matplotlib.axis_2">
    <g id="ytick_1">
     <g id="line2d_6">
      <path clip-path="url(#p2448da2902)" d="M 57.6 307.584 
L 414.72 307.584 
" style="fill:none;stroke:#ffffff;stroke-linecap:round;stroke-width:0.8;"/>
     </g>
     <g id="text_6">
      <!-- 0.0 -->
      <g style="fill:#262626;" transform="translate(34.696875 311.383219)scale(0.1 -0.1)">
       <defs>
        <path d="M 10.6875 12.40625 
L 21 12.40625 
L 21 0 
L 10.6875 0 
z
" id="DejaVuSans-46"/>
       </defs>
       <use xlink:href="#DejaVuSans-48"/>
       <use x="63.623047" xlink:href="#DejaVuSans-46"/>
       <use x="95.410156" xlink:href="#DejaVuSans-48"/>
      </g>
     </g>
    </g>
    <g id="ytick_2">
     <g id="line2d_7">
      <path clip-path="url(#p2448da2902)" d="M 57.6 268.60387 
L 414.72 268.60387 
" style="fill:none;stroke:#ffffff;stroke-linecap:round;stroke-width:0.8;"/>
     </g>
     <g id="text_7">
      <!-- 0.1 -->
      <g style="fill:#262626;" transform="translate(34.696875 272.403089)scale(0.1 -0.1)">
       <defs>
        <path d="M 12.40625 8.296875 
L 28.515625 8.296875 
L 28.515625 63.921875 
L 10.984375 60.40625 
L 10.984375 69.390625 
L 28.421875 72.90625 
L 38.28125 72.90625 
L 38.28125 8.296875 
L 54.390625 8.296875 
L 54.390625 0 
L 12.40625 0 
z
" id="DejaVuSans-49"/>
       </defs>
       <use xlink:href="#DejaVuSans-48"/>
       <use x="63.623047" xlink:href="#DejaVuSans-46"/>
       <use x="95.410156" xlink:href="#DejaVuSans-49"/>
      </g>
     </g>
    </g>
    <g id="ytick_3">
     <g id="line2d_8">
      <path clip-path="url(#p2448da2902)" d="M 57.6 229.62374 
L 414.72 229.62374 
" style="fill:none;stroke:#ffffff;stroke-linecap:round;stroke-width:0.8;"/>
     </g>
     <g id="text_8">
      <!-- 0.2 -->
      <g style="fill:#262626;" transform="translate(34.696875 233.422958)scale(0.1 -0.1)">
       <use xlink:href="#DejaVuSans-48"/>
       <use x="63.623047" xlink:href="#DejaVuSans-46"/>
       <use x="95.410156" xlink:href="#DejaVuSans-50"/>
      </g>
     </g>
    </g>
    <g id="ytick_4">
     <g id="line2d_9">
      <path clip-path="url(#p2448da2902)" d="M 57.6 190.643609 
L 414.72 190.643609 
" style="fill:none;stroke:#ffffff;stroke-linecap:round;stroke-width:0.8;"/>
     </g>
     <g id="text_9">
      <!-- 0.3 -->
      <g style="fill:#262626;" transform="translate(34.696875 194.442828)scale(0.1 -0.1)">
       <defs>
        <path d="M 40.578125 39.3125 
Q 47.65625 37.796875 51.625 33 
Q 55.609375 28.21875 55.609375 21.1875 
Q 55.609375 10.40625 48.1875 4.484375 
Q 40.765625 -1.421875 27.09375 -1.421875 
Q 22.515625 -1.421875 17.65625 -0.515625 
Q 12.796875 0.390625 7.625 2.203125 
L 7.625 11.71875 
Q 11.71875 9.328125 16.59375 8.109375 
Q 21.484375 6.890625 26.8125 6.890625 
Q 36.078125 6.890625 40.9375 10.546875 
Q 45.796875 14.203125 45.796875 21.1875 
Q 45.796875 27.640625 41.28125 31.265625 
Q 36.765625 34.90625 28.71875 34.90625 
L 20.21875 34.90625 
L 20.21875 43.015625 
L 29.109375 43.015625 
Q 36.375 43.015625 40.234375 45.921875 
Q 44.09375 48.828125 44.09375 54.296875 
Q 44.09375 59.90625 40.109375 62.90625 
Q 36.140625 65.921875 28.71875 65.921875 
Q 24.65625 65.921875 20.015625 65.03125 
Q 15.375 64.15625 9.8125 62.3125 
L 9.8125 71.09375 
Q 15.4375 72.65625 20.34375 73.4375 
Q 25.25 74.21875 29.59375 74.21875 
Q 40.828125 74.21875 47.359375 69.109375 
Q 53.90625 64.015625 53.90625 55.328125 
Q 53.90625 49.265625 50.4375 45.09375 
Q 46.96875 40.921875 40.578125 39.3125 
z
" id="DejaVuSans-51"/>
       </defs>
       <use xlink:href="#DejaVuSans-48"/>
       <use x="63.623047" xlink:href="#DejaVuSans-46"/>
       <use x="95.410156" xlink:href="#DejaVuSans-51"/>
      </g>
     </g>
    </g>
    <g id="ytick_5">
     <g id="line2d_10">
      <path clip-path="url(#p2448da2902)" d="M 57.6 151.663479 
L 414.72 151.663479 
" style="fill:none;stroke:#ffffff;stroke-linecap:round;stroke-width:0.8;"/>
     </g>
     <g id="text_10">
      <!-- 0.4 -->
      <g style="fill:#262626;" transform="translate(34.696875 155.462698)scale(0.1 -0.1)">
       <use xlink:href="#DejaVuSans-48"/>
       <use x="63.623047" xlink:href="#DejaVuSans-46"/>
       <use x="95.410156" xlink:href="#DejaVuSans-52"/>
      </g>
     </g>
    </g>
    <g id="ytick_6">
     <g id="line2d_11">
      <path clip-path="url(#p2448da2902)" d="M 57.6 112.683349 
L 414.72 112.683349 
" style="fill:none;stroke:#ffffff;stroke-linecap:round;stroke-width:0.8;"/>
     </g>
     <g id="text_11">
      <!-- 0.5 -->
      <g style="fill:#262626;" transform="translate(34.696875 116.482568)scale(0.1 -0.1)">
       <defs>
        <path d="M 10.796875 72.90625 
L 49.515625 72.90625 
L 49.515625 64.59375 
L 19.828125 64.59375 
L 19.828125 46.734375 
Q 21.96875 47.46875 24.109375 47.828125 
Q 26.265625 48.1875 28.421875 48.1875 
Q 40.625 48.1875 47.75 41.5 
Q 54.890625 34.8125 54.890625 23.390625 
Q 54.890625 11.625 47.5625 5.09375 
Q 40.234375 -1.421875 26.90625 -1.421875 
Q 22.3125 -1.421875 17.546875 -0.640625 
Q 12.796875 0.140625 7.71875 1.703125 
L 7.71875 11.625 
Q 12.109375 9.234375 16.796875 8.0625 
Q 21.484375 6.890625 26.703125 6.890625 
Q 35.15625 6.890625 40.078125 11.328125 
Q 45.015625 15.765625 45.015625 23.390625 
Q 45.015625 31 40.078125 35.4375 
Q 35.15625 39.890625 26.703125 39.890625 
Q 22.75 39.890625 18.8125 39.015625 
Q 14.890625 38.140625 10.796875 36.28125 
z
" id="DejaVuSans-53"/>
       </defs>
       <use xlink:href="#DejaVuSans-48"/>
       <use x="63.623047" xlink:href="#DejaVuSans-46"/>
       <use x="95.410156" xlink:href="#DejaVuSans-53"/>
      </g>
     </g>
    </g>
    <g id="ytick_7">
     <g id="line2d_12">
      <path clip-path="url(#p2448da2902)" d="M 57.6 73.703219 
L 414.72 73.703219 
" style="fill:none;stroke:#ffffff;stroke-linecap:round;stroke-width:0.8;"/>
     </g>
     <g id="text_12">
      <!-- 0.6 -->
      <g style="fill:#262626;" transform="translate(34.696875 77.502437)scale(0.1 -0.1)">
       <use xlink:href="#DejaVuSans-48"/>
       <use x="63.623047" xlink:href="#DejaVuSans-46"/>
       <use x="95.410156" xlink:href="#DejaVuSans-54"/>
      </g>
     </g>
    </g>
    <g id="text_13">
     <!-- Density -->
     <g style="fill:#262626;" transform="translate(28.617187 193.536594)rotate(-90)scale(0.1 -0.1)">
      <defs>
       <path d="M 19.671875 64.796875 
L 19.671875 8.109375 
L 31.59375 8.109375 
Q 46.6875 8.109375 53.6875 14.9375 
Q 60.6875 21.78125 60.6875 36.53125 
Q 60.6875 51.171875 53.6875 57.984375 
Q 46.6875 64.796875 31.59375 64.796875 
z
M 9.8125 72.90625 
L 30.078125 72.90625 
Q 51.265625 72.90625 61.171875 64.09375 
Q 71.09375 55.28125 71.09375 36.53125 
Q 71.09375 17.671875 61.125 8.828125 
Q 51.171875 0 30.078125 0 
L 9.8125 0 
z
" id="DejaVuSans-68"/>
       <path d="M 56.203125 29.59375 
L 56.203125 25.203125 
L 14.890625 25.203125 
Q 15.484375 15.921875 20.484375 11.0625 
Q 25.484375 6.203125 34.421875 6.203125 
Q 39.59375 6.203125 44.453125 7.46875 
Q 49.3125 8.734375 54.109375 11.28125 
L 54.109375 2.78125 
Q 49.265625 0.734375 44.1875 -0.34375 
Q 39.109375 -1.421875 33.890625 -1.421875 
Q 20.796875 -1.421875 13.15625 6.1875 
Q 5.515625 13.8125 5.515625 26.8125 
Q 5.515625 40.234375 12.765625 48.109375 
Q 20.015625 56 32.328125 56 
Q 43.359375 56 49.78125 48.890625 
Q 56.203125 41.796875 56.203125 29.59375 
z
M 47.21875 32.234375 
Q 47.125 39.59375 43.09375 43.984375 
Q 39.0625 48.390625 32.421875 48.390625 
Q 24.90625 48.390625 20.390625 44.140625 
Q 15.875 39.890625 15.1875 32.171875 
z
" id="DejaVuSans-101"/>
       <path d="M 54.890625 33.015625 
L 54.890625 0 
L 45.90625 0 
L 45.90625 32.71875 
Q 45.90625 40.484375 42.875 44.328125 
Q 39.84375 48.1875 33.796875 48.1875 
Q 26.515625 48.1875 22.3125 43.546875 
Q 18.109375 38.921875 18.109375 30.90625 
L 18.109375 0 
L 9.078125 0 
L 9.078125 54.6875 
L 18.109375 54.6875 
L 18.109375 46.1875 
Q 21.34375 51.125 25.703125 53.5625 
Q 30.078125 56 35.796875 56 
Q 45.21875 56 50.046875 50.171875 
Q 54.890625 44.34375 54.890625 33.015625 
z
" id="DejaVuSans-110"/>
       <path d="M 44.28125 53.078125 
L 44.28125 44.578125 
Q 40.484375 46.53125 36.375 47.5 
Q 32.28125 48.484375 27.875 48.484375 
Q 21.1875 48.484375 17.84375 46.4375 
Q 14.5 44.390625 14.5 40.28125 
Q 14.5 37.15625 16.890625 35.375 
Q 19.28125 33.59375 26.515625 31.984375 
L 29.59375 31.296875 
Q 39.15625 29.25 43.1875 25.515625 
Q 47.21875 21.78125 47.21875 15.09375 
Q 47.21875 7.46875 41.1875 3.015625 
Q 35.15625 -1.421875 24.609375 -1.421875 
Q 20.21875 -1.421875 15.453125 -0.5625 
Q 10.6875 0.296875 5.421875 2 
L 5.421875 11.28125 
Q 10.40625 8.6875 15.234375 7.390625 
Q 20.0625 6.109375 24.8125 6.109375 
Q 31.15625 6.109375 34.5625 8.28125 
Q 37.984375 10.453125 37.984375 14.40625 
Q 37.984375 18.0625 35.515625 20.015625 
Q 33.0625 21.96875 24.703125 23.78125 
L 21.578125 24.515625 
Q 13.234375 26.265625 9.515625 29.90625 
Q 5.8125 33.546875 5.8125 39.890625 
Q 5.8125 47.609375 11.28125 51.796875 
Q 16.75 56 26.8125 56 
Q 31.78125 56 36.171875 55.265625 
Q 40.578125 54.546875 44.28125 53.078125 
z
" id="DejaVuSans-115"/>
       <path d="M 9.421875 54.6875 
L 18.40625 54.6875 
L 18.40625 0 
L 9.421875 0 
z
M 9.421875 75.984375 
L 18.40625 75.984375 
L 18.40625 64.59375 
L 9.421875 64.59375 
z
" id="DejaVuSans-105"/>
       <path d="M 18.3125 70.21875 
L 18.3125 54.6875 
L 36.8125 54.6875 
L 36.8125 47.703125 
L 18.3125 47.703125 
L 18.3125 18.015625 
Q 18.3125 11.328125 20.140625 9.421875 
Q 21.96875 7.515625 27.59375 7.515625 
L 36.8125 7.515625 
L 36.8125 0 
L 27.59375 0 
Q 17.1875 0 13.234375 3.875 
Q 9.28125 7.765625 9.28125 18.015625 
L 9.28125 47.703125 
L 2.6875 47.703125 
L 2.6875 54.6875 
L 9.28125 54.6875 
L 9.28125 70.21875 
z
" id="DejaVuSans-116"/>
       <path d="M 32.171875 -5.078125 
Q 28.375 -14.84375 24.75 -17.8125 
Q 21.140625 -20.796875 15.09375 -20.796875 
L 7.90625 -20.796875 
L 7.90625 -13.28125 
L 13.1875 -13.28125 
Q 16.890625 -13.28125 18.9375 -11.515625 
Q 21 -9.765625 23.484375 -3.21875 
L 25.09375 0.875 
L 2.984375 54.6875 
L 12.5 54.6875 
L 29.59375 11.921875 
L 46.6875 54.6875 
L 56.203125 54.6875 
z
" id="DejaVuSans-121"/>
      </defs>
      <use xlink:href="#DejaVuSans-68"/>
      <use x="77.001953" xlink:href="#DejaVuSans-101"/>
      <use x="138.525391" xlink:href="#DejaVuSans-110"/>
      <use x="201.904297" xlink:href="#DejaVuSans-115"/>
      <use x="254.003906" xlink:href="#DejaVuSans-105"/>
      <use x="281.787109" xlink:href="#DejaVuSans-116"/>
      <use x="320.996094" xlink:href="#DejaVuSans-121"/>
     </g>
    </g>
   </g>
   <g id="line2d_13">
    <path clip-path="url(#p2448da2902)" d="M 73.832727 307.402008 
L 74.307928 307.205282 
L 74.783128 306.829931 
L 75.258329 306.146756 
L 75.733529 304.960461 
L 76.20873 302.994994 
L 76.68393 299.887638 
L 77.159131 295.199529 
L 77.634331 288.449586 
L 78.109532 279.175121 
L 78.584732 267.015516 
L 79.535133 233.666251 
L 80.960735 167.784172 
L 81.911136 124.834726 
L 82.861537 93.028445 
L 83.336737 83.025296 
L 83.811938 77.187471 
L 84.287138 75.2969 
L 84.762339 76.917136 
L 85.237539 81.489279 
L 85.71274 88.415999 
L 86.663141 107.073207 
L 89.514344 170.283603 
L 90.464745 186.437014 
L 91.415146 199.443156 
L 92.840747 215.544323 
L 94.266349 229.862167 
L 95.21675 238.082486 
L 96.167151 244.604978 
L 97.117552 249.460843 
L 99.968755 261.996002 
L 101.869557 272.963814 
L 103.770359 283.421315 
L 104.72076 287.735788 
L 105.671161 291.056712 
L 106.621562 293.214896 
L 107.571963 294.432678 
L 109.472765 296.299939 
L 110.898366 298.429581 
L 111.848767 299.862064 
L 112.799168 300.944621 
L 113.749569 301.610967 
L 115.175171 302.186313 
L 116.600772 302.814291 
L 119.451975 304.321112 
L 120.402376 304.522594 
L 122.303178 304.539606 
L 126.579983 304.527693 
L 127.530384 304.711812 
L 128.955985 305.287203 
L 131.331988 306.369797 
L 132.757589 306.726675 
L 134.183191 306.875894 
L 137.509595 307.055773 
L 141.311199 307.539864 
L 145.112803 307.583833 
L 157.943216 307.484228 
L 162.695221 307.044971 
L 168.397627 307.577646 
L 168.397627 307.577646 
" style="fill:none;stroke:#9467bd;stroke-linecap:round;stroke-width:1.5;"/>
   </g>
   <g id="line2d_14">
    <path clip-path="url(#p2448da2902)" d="M 74.555751 307.452203 
L 75.188577 307.178315 
L 75.50499 306.899196 
L 75.821403 306.457117 
L 76.137816 305.775921 
L 76.454229 304.754685 
L 76.770642 303.265043 
L 77.087055 301.150783 
L 77.719881 294.306743 
L 78.352707 282.643725 
L 78.985532 264.806229 
L 79.618358 240.325194 
L 80.567597 193.765553 
L 81.833249 129.50174 
L 82.466075 104.519123 
L 83.098901 87.505063 
L 83.415314 82.20586 
L 83.731727 78.987134 
L 84.04814 77.724423 
L 84.364553 78.250876 
L 84.680966 80.373096 
L 85.313792 88.560746 
L 86.263031 107.334004 
L 87.845096 140.824479 
L 88.794335 155.461554 
L 90.059987 169.937916 
L 91.325639 184.921113 
L 93.224116 208.142899 
L 94.173355 217.205523 
L 95.75542 229.640468 
L 97.970311 247.518486 
L 99.552376 259.589834 
L 100.501615 265.153324 
L 101.450854 269.356853 
L 104.614983 281.538807 
L 107.4627 294.68905 
L 108.411939 297.709775 
L 109.361178 299.840055 
L 110.310417 301.306735 
L 111.259656 302.353951 
L 114.740199 305.655811 
L 115.373025 305.929399 
L 116.005851 305.957185 
L 116.638676 305.74586 
L 117.587915 305.085259 
L 118.853567 304.067799 
L 119.486393 303.771043 
L 120.119219 303.720901 
L 120.752045 303.904546 
L 122.017697 304.649947 
L 123.916175 305.760999 
L 126.447479 306.970722 
L 127.713131 307.309192 
L 128.66237 307.362024 
L 129.928021 307.202709 
L 131.826499 306.923806 
L 133.092151 307.036927 
L 135.939868 307.51823 
L 137.521933 307.576656 
L 137.521933 307.576656 
" style="fill:none;stroke:#d62728;stroke-linecap:round;stroke-width:1.5;"/>
   </g>
   <g id="line2d_15">
    <path clip-path="url(#p2448da2902)" d="M 74.208243 307.462143 
L 74.940781 307.158143 
L 75.30705 306.824116 
L 75.673319 306.269186 
L 76.039588 305.377464 
L 76.405857 303.991531 
L 76.772127 301.9082 
L 77.138396 298.879517 
L 77.504665 294.621593 
L 77.870934 288.833288 
L 78.603472 271.558848 
L 79.336011 245.601678 
L 80.434818 192.523737 
L 81.899895 118.293516 
L 82.632433 92.068575 
L 82.998702 83.264049 
L 83.364971 77.443826 
L 83.73124 74.462366 
L 84.097509 74.030449 
L 84.463779 75.761046 
L 84.830048 79.217311 
L 85.562586 89.564497 
L 88.492739 137.269854 
L 89.957816 159.888384 
L 91.789161 192.867003 
L 92.887969 211.419247 
L 93.986776 226.007695 
L 95.085584 237.151746 
L 96.55066 249.538858 
L 98.015737 260.343659 
L 99.480813 269.541471 
L 100.94589 277.30384 
L 102.044697 281.896038 
L 103.143505 285.394418 
L 104.242312 288.179841 
L 105.707389 291.272101 
L 106.439927 292.47221 
L 107.172465 293.32548 
L 107.905004 293.825041 
L 109.736349 294.638184 
L 110.468888 295.397718 
L 111.201426 296.531994 
L 113.76531 300.960333 
L 114.864117 302.204848 
L 115.962925 303.101967 
L 117.794271 304.211706 
L 120.724424 305.884077 
L 121.456962 306.061563 
L 122.1895 306.031537 
L 123.288308 305.693341 
L 124.387115 305.356346 
L 125.119653 305.331078 
L 125.852192 305.519473 
L 126.950999 306.096268 
L 128.416076 306.905966 
L 129.514883 307.224155 
L 130.613691 307.248747 
L 133.910113 306.992971 
L 137.572804 307.42307 
L 139.037881 307.242401 
L 140.869227 306.966031 
L 141.968034 306.998241 
L 147.095802 307.577018 
L 147.095802 307.577018 
" style="fill:none;stroke:#2ca02c;stroke-linecap:round;stroke-width:1.5;"/>
   </g>
   <g id="line2d_16">
    <path clip-path="url(#p2448da2902)" d="M 74.071096 307.45839 
L 74.722168 307.206687 
L 75.047704 306.95333 
L 75.37324 306.554752 
L 75.698776 305.943608 
L 76.024312 305.030217 
L 76.349849 303.699473 
L 76.675385 301.80932 
L 77.000921 299.191695 
L 77.651993 291.001785 
L 78.303065 277.533031 
L 78.954138 257.472043 
L 79.60521 230.40899 
L 80.581818 179.387148 
L 81.883963 108.716887 
L 82.535035 81.215044 
L 83.186107 62.921009 
L 83.511644 57.571272 
L 83.83718 54.700629 
L 84.162716 54.144 
L 84.488252 55.663582 
L 84.813788 58.97684 
L 85.46486 69.793848 
L 86.441469 92.545857 
L 89.69683 176.170406 
L 90.673438 194.990117 
L 91.650047 209.800333 
L 92.626655 221.483084 
L 93.9288 233.884105 
L 95.230944 244.027333 
L 97.184161 256.995098 
L 99.462914 270.929964 
L 100.439523 275.59658 
L 101.416131 279.186795 
L 103.043812 283.975026 
L 104.345956 287.355583 
L 105.322565 289.282753 
L 106.299173 290.658908 
L 107.926854 292.841379 
L 110.856679 297.258605 
L 111.833287 298.353084 
L 112.809896 299.138088 
L 113.786504 299.541589 
L 115.739721 299.98332 
L 116.390793 300.403418 
L 117.367402 301.408907 
L 119.971691 304.465844 
L 121.273835 305.519487 
L 122.57598 306.315375 
L 123.878124 306.840437 
L 124.854733 306.999025 
L 126.156877 306.939039 
L 130.714383 306.4843 
L 132.016528 306.47685 
L 133.318672 306.696289 
L 136.574034 307.462253 
L 138.52725 307.572534 
L 138.852787 307.576943 
L 138.852787 307.576943 
" style="fill:none;stroke:#ff7f0e;stroke-linecap:round;stroke-width:1.5;"/>
   </g>
   <g id="line2d_17">
    <path clip-path="url(#p2448da2902)" d="M 73.918242 307.407947 
L 74.335857 307.240322 
L 74.753473 306.936396 
L 75.171088 306.405782 
L 75.588703 305.513774 
L 76.006319 304.069903 
L 76.423934 301.819617 
L 76.841549 298.443117 
L 77.259165 293.565919 
L 77.67678 286.785034 
L 78.094395 277.712492 
L 78.929626 251.576741 
L 79.764856 214.705715 
L 82.270548 88.753768 
L 82.688164 75.178872 
L 83.105779 65.468747 
L 83.523394 59.700616 
L 83.94101 57.696836 
L 84.358625 59.088225 
L 84.77624 63.389887 
L 85.193856 70.073556 
L 86.029086 88.575849 
L 87.699547 135.09595 
L 89.370009 179.437802 
L 90.205239 196.875593 
L 91.04047 210.174555 
L 91.8757 219.445713 
L 92.710931 225.409934 
L 93.546162 229.239531 
L 95.216623 235.626232 
L 96.051854 239.915832 
L 97.3047 248.116759 
L 102.316083 283.870089 
L 103.151314 288.376497 
L 103.986544 291.830487 
L 104.821775 294.177741 
L 105.657006 295.551818 
L 106.492236 296.189415 
L 107.327467 296.33805 
L 108.162698 296.197408 
L 109.833159 295.558823 
L 110.668389 295.298188 
L 111.50362 295.326258 
L 111.921235 295.521046 
L 112.338851 295.866602 
L 113.174081 297.035262 
L 114.009312 298.744331 
L 116.097388 303.421781 
L 116.932619 304.648006 
L 117.76785 305.276904 
L 118.60308 305.379542 
L 119.855926 305.020194 
L 120.691157 304.801278 
L 121.526388 304.782202 
L 122.361618 304.980529 
L 123.614464 305.539054 
L 125.284925 306.304407 
L 126.120156 306.491933 
L 126.955387 306.463502 
L 128.208232 306.086967 
L 129.461078 305.682978 
L 130.296309 305.610684 
L 131.13154 305.739483 
L 132.384386 306.186686 
L 134.890077 307.135907 
L 136.560539 307.453712 
L 138.231 307.511337 
L 139.901461 307.36158 
L 142.824768 306.997844 
L 144.49523 307.149487 
L 146.583306 307.383196 
L 148.253767 307.272175 
L 150.759459 306.99791 
L 152.012305 307.097742 
L 155.353228 307.532305 
L 157.023689 307.577494 
L 157.023689 307.577494 
" style="fill:none;stroke:#1f77b4;stroke-linecap:round;stroke-width:1.5;"/>
   </g>
   <g id="line2d_18">
    <path clip-path="url(#p2448da2902)" d="M 77.21917 307.57408 
L 80.548489 307.465139 
L 82.546081 307.179323 
L 83.877808 306.75892 
L 85.209536 306.029424 
L 86.541264 304.863678 
L 87.872992 303.136222 
L 89.204719 300.741321 
L 90.536447 297.602971 
L 91.868175 293.676657 
L 93.199902 288.952827 
L 94.53163 283.473344 
L 96.529222 274.126479 
L 100.524405 254.562252 
L 102.521996 246.028819 
L 104.519588 238.655077 
L 106.517179 232.232609 
L 107.848907 228.496869 
L 109.180635 225.400564 
L 109.846498 224.185077 
L 110.512362 223.246858 
L 111.178226 222.623608 
L 111.84409 222.344008 
L 112.509954 222.423316 
L 113.175818 222.86021 
L 113.841682 223.635466 
L 114.507545 224.7128 
L 115.839273 227.563165 
L 121.832048 242.22273 
L 125.161367 249.882727 
L 132.485869 267.607997 
L 134.483461 271.379571 
L 137.146916 275.778825 
L 140.476235 281.289462 
L 144.471418 288.077955 
L 146.46901 290.982817 
L 147.800738 292.587323 
L 149.132465 293.929004 
L 151.130057 295.567265 
L 153.793512 297.3994 
L 158.454559 300.335978 
L 161.783878 302.233848 
L 164.447334 303.522115 
L 168.442517 305.126721 
L 171.771836 306.27243 
L 173.769428 306.702553 
L 175.767019 306.852833 
L 178.430475 306.731735 
L 182.425658 306.489887 
L 185.089113 306.571326 
L 195.077071 307.202755 
L 201.069845 307.372722 
L 207.06262 307.564685 
L 209.726075 307.580646 
L 209.726075 307.580646 
" style="fill:none;stroke:#9467bd;stroke-linecap:round;stroke-width:1.5;"/>
   </g>
   <g id="line2d_19">
    <path clip-path="url(#p2448da2902)" d="M 78.78455 307.565387 
L 81.762619 307.405521 
L 83.54946 307.035938 
L 84.740688 306.528126 
L 85.931916 305.68687 
L 87.123144 304.391858 
L 88.314371 302.529918 
L 89.505599 300.013975 
L 90.696827 296.796381 
L 91.888054 292.873727 
L 93.079282 288.286073 
L 94.866124 280.352184 
L 101.417876 249.21128 
L 103.204718 242.356765 
L 104.991559 236.394295 
L 106.182787 232.983927 
L 107.374015 230.173504 
L 108.565242 228.111444 
L 109.160856 227.39207 
L 109.75647 226.883353 
L 110.352084 226.577063 
L 110.947698 226.45682 
L 111.543311 226.499261 
L 112.734539 226.955569 
L 114.521381 228.112636 
L 119.286292 231.470932 
L 120.477519 232.852851 
L 121.668747 234.822936 
L 122.859975 237.489127 
L 124.051202 240.834568 
L 125.838044 246.779603 
L 129.411727 259.165382 
L 131.794182 266.411753 
L 133.581024 271.223969 
L 135.367866 275.306539 
L 136.559093 277.479978 
L 137.750321 279.191378 
L 138.941549 280.540268 
L 141.324004 282.985213 
L 142.515232 284.519157 
L 143.70646 286.41546 
L 145.493301 289.79369 
L 147.875756 294.277061 
L 149.066984 296.066113 
L 150.258212 297.434534 
L 151.44944 298.427851 
L 153.236281 299.488798 
L 156.21435 301.123992 
L 160.383647 303.575928 
L 162.170489 304.306892 
L 163.95733 304.775022 
L 166.339786 305.098403 
L 183.612588 306.600127 
L 189.568726 307.337897 
L 193.142409 307.530858 
L 197.311706 307.580415 
L 197.311706 307.580415 
" style="fill:none;stroke:#d62728;stroke-linecap:round;stroke-width:1.5;"/>
   </g>
   <g id="line2d_20">
    <path clip-path="url(#p2448da2902)" d="M 77.018041 307.57429 
L 80.500997 307.433293 
L 82.242475 307.12686 
L 83.403461 306.711345 
L 84.564446 306.033628 
L 85.725431 305.012299 
L 86.886417 303.584132 
L 88.047402 301.718119 
L 89.208387 299.415147 
L 90.369373 296.688696 
L 91.530358 293.533617 
L 92.691343 289.901 
L 93.852329 285.69875 
L 95.013314 280.826392 
L 96.754792 272.182221 
L 99.076763 258.863931 
L 100.818241 248.961251 
L 101.979226 243.155561 
L 103.140211 238.316069 
L 104.301197 234.493176 
L 105.462182 231.511144 
L 107.20366 227.907385 
L 110.106124 222.437462 
L 111.267109 220.678222 
L 111.847602 220.038838 
L 112.428094 219.609923 
L 113.008587 219.418801 
L 113.58908 219.481445 
L 114.169572 219.801747 
L 114.750065 220.372253 
L 115.330558 221.17612 
L 116.491543 223.386485 
L 117.652528 226.220137 
L 119.394006 231.250409 
L 121.135484 236.937162 
L 123.457455 245.286802 
L 126.359918 255.785833 
L 128.101396 261.103346 
L 129.262382 264.024632 
L 131.00386 267.639102 
L 136.228294 277.603763 
L 139.130757 283.276189 
L 140.872235 286.256876 
L 142.613713 288.798426 
L 144.355191 290.85388 
L 146.096669 292.464967 
L 154.804059 299.443611 
L 156.545538 300.443625 
L 159.448001 301.783368 
L 165.252928 304.196669 
L 169.896869 305.862416 
L 172.799332 306.680289 
L 175.121303 307.077312 
L 177.443274 307.226513 
L 186.731157 307.476286 
L 191.955591 307.578428 
L 192.536083 307.580427 
L 192.536083 307.580427 
" style="fill:none;stroke:#2ca02c;stroke-linecap:round;stroke-width:1.5;"/>
   </g>
   <g id="line2d_21">
    <path clip-path="url(#p2448da2902)" d="M 75.315239 307.580195 
L 80.347637 307.481542 
L 82.863836 307.24853 
L 84.541302 306.914399 
L 86.218768 306.305674 
L 87.057501 305.839075 
L 87.896234 305.221037 
L 88.734967 304.412045 
L 89.573699 303.36789 
L 90.412432 302.041082 
L 91.251165 300.383023 
L 92.089898 298.347304 
L 92.928631 295.894429 
L 93.767364 292.997868 
L 95.44483 285.871535 
L 97.122296 277.233877 
L 102.154694 249.345056 
L 104.670892 237.379043 
L 106.348358 230.322659 
L 108.025824 224.298414 
L 108.864557 221.82793 
L 109.70329 219.78931 
L 110.542023 218.206076 
L 111.380756 217.073582 
L 112.219489 216.365825 
L 113.058222 216.048692 
L 113.896955 216.094519 
L 114.735688 216.49244 
L 115.574421 217.250709 
L 116.413154 218.390186 
L 117.251887 219.931382 
L 118.09062 221.879678 
L 118.929352 224.213727 
L 120.606818 229.799925 
L 124.800483 244.810051 
L 126.477949 249.803615 
L 132.34908 265.663324 
L 135.704011 276.004071 
L 137.381477 280.45261 
L 139.058943 284.053081 
L 140.736409 286.851276 
L 142.413875 289.010723 
L 144.091341 290.755784 
L 150.801204 297.030844 
L 152.47867 298.308361 
L 154.994869 299.818329 
L 158.349801 301.70261 
L 163.382198 304.744568 
L 165.059664 305.491666 
L 166.73713 306.016996 
L 168.414596 306.3277 
L 170.930795 306.499233 
L 175.963193 306.700527 
L 186.866721 307.548278 
L 191.899119 307.519553 
L 195.25405 307.315073 
L 200.286448 306.96932 
L 202.802647 307.07076 
L 209.51251 307.538917 
L 216.222374 307.583567 
L 224.609703 307.497177 
L 232.1583 307.282182 
L 242.223095 307.580422 
L 242.223095 307.580422 
" style="fill:none;stroke:#ff7f0e;stroke-linecap:round;stroke-width:1.5;"/>
   </g>
   <g id="line2d_22">
    <path clip-path="url(#p2448da2902)" d="M 76.964373 307.569944 
L 80.475766 307.430022 
L 82.582602 307.081039 
L 83.987159 306.577302 
L 85.391716 305.70469 
L 86.093994 305.078127 
L 86.796273 304.29365 
L 87.498551 303.326976 
L 88.20083 302.154254 
L 89.605387 299.105905 
L 91.009944 295.024971 
L 92.414501 289.902945 
L 93.819058 283.891497 
L 100.841843 251.938797 
L 103.650958 241.296458 
L 105.757793 234.229482 
L 107.16235 230.380062 
L 107.864629 228.832173 
L 108.566907 227.577164 
L 109.269186 226.633341 
L 109.971464 226.006872 
L 110.673743 225.692261 
L 111.376022 225.674271 
L 112.0783 225.930835 
L 112.780579 226.436354 
L 113.482857 227.164774 
L 114.887414 229.197014 
L 116.291971 231.873435 
L 117.696528 235.075253 
L 119.803364 240.55384 
L 122.612478 247.956303 
L 124.017035 251.168292 
L 125.421592 253.918027 
L 127.528428 257.436252 
L 130.337542 262.091893 
L 132.444378 266.032443 
L 137.360327 275.913483 
L 140.87172 282.842852 
L 142.978556 286.526084 
L 145.085391 289.655547 
L 147.192227 292.276608 
L 149.299063 294.481086 
L 151.405898 296.287866 
L 152.810455 297.257885 
L 154.215012 298.033552 
L 155.619569 298.620177 
L 157.726405 299.210259 
L 161.237798 300.057268 
L 162.642355 300.618605 
L 164.74919 301.789779 
L 168.260583 303.955949 
L 170.367419 304.911152 
L 172.474254 305.525025 
L 174.58109 305.89474 
L 178.092483 306.227517 
L 185.115268 306.638774 
L 194.947167 306.829151 
L 200.565396 307.183822 
L 216.717802 307.580841 
L 216.717802 307.580841 
" style="fill:none;stroke:#1f77b4;stroke-linecap:round;stroke-width:1.5;"/>
   </g>
   <g id="line2d_23">
    <path clip-path="url(#p2448da2902)" d="M 87.075039 307.579195 
L 93.60736 307.462162 
L 96.406926 307.234048 
L 98.273303 306.937419 
L 100.139681 306.461278 
L 102.006058 305.739453 
L 103.872435 304.701306 
L 105.738813 303.279232 
L 107.60519 301.414401 
L 109.471567 299.057692 
L 111.337945 296.169068 
L 113.204322 292.725294 
L 115.070699 288.742785 
L 117.870265 281.968993 
L 122.536209 270.199225 
L 124.402586 265.952883 
L 126.268963 262.191952 
L 128.135341 258.990132 
L 130.001718 256.376347 
L 131.868095 254.312755 
L 133.734473 252.667238 
L 138.400416 249.142096 
L 140.266793 247.834192 
L 141.199982 247.299471 
L 142.133171 246.90555 
L 143.066359 246.698319 
L 143.999548 246.716497 
L 144.932737 246.987035 
L 145.865925 247.522411 
L 146.799114 248.320038 
L 147.732303 249.36353 
L 149.59868 252.069592 
L 151.465057 255.341995 
L 156.131001 263.873627 
L 157.997378 266.755827 
L 159.863755 269.145849 
L 161.730133 271.085578 
L 164.529699 273.508279 
L 167.329265 275.989459 
L 169.195642 277.942179 
L 171.062019 280.173829 
L 178.527529 289.676135 
L 181.327095 292.607241 
L 185.059849 296.119945 
L 187.859415 298.537273 
L 189.725793 299.927288 
L 191.59217 301.044259 
L 193.458547 301.8511 
L 195.324925 302.364945 
L 197.191302 302.645086 
L 200.924057 302.855285 
L 203.723623 303.083193 
L 205.59 303.403218 
L 208.389566 304.147701 
L 213.988698 305.832461 
L 216.788264 306.381953 
L 219.58783 306.666285 
L 223.320585 306.756385 
L 228.919717 306.851947 
L 239.184792 307.339216 
L 263.447697 307.481743 
L 271.846395 307.579806 
L 272.779584 307.581468 
L 272.779584 307.581468 
" style="fill:none;stroke:#9467bd;stroke-linecap:round;stroke-width:1.5;"/>
   </g>
   <g id="line2d_24">
    <path clip-path="url(#p2448da2902)" d="M 87.102003 307.579382 
L 93.025702 307.477534 
L 95.564431 307.282388 
L 98.103159 306.856168 
L 99.795645 306.373953 
L 101.48813 305.679845 
L 103.180616 304.72688 
L 104.873101 303.467488 
L 106.565587 301.854462 
L 108.258072 299.845556 
L 109.950558 297.413416 
L 111.643043 294.559052 
L 113.335529 291.322728 
L 115.874257 285.934095 
L 125.182928 265.415324 
L 127.721656 260.569483 
L 129.414142 257.707801 
L 131.106627 255.184486 
L 132.799113 253.013309 
L 134.491598 251.196523 
L 136.184084 249.739663 
L 137.876569 248.663806 
L 139.569055 248.005687 
L 140.415298 247.845198 
L 141.26154 247.801083 
L 142.107783 247.87357 
L 143.800269 248.356536 
L 145.492754 249.251608 
L 147.18524 250.508073 
L 148.877725 252.097158 
L 150.570211 254.017623 
L 152.262697 256.266789 
L 154.801425 260.136873 
L 159.032639 266.840477 
L 161.571367 270.452432 
L 167.495066 278.250645 
L 170.880038 282.526695 
L 173.418766 285.373262 
L 175.957494 287.782463 
L 178.496223 289.753239 
L 181.034951 291.407291 
L 186.112408 294.620749 
L 195.421078 300.942934 
L 197.959806 302.211554 
L 200.498535 303.203561 
L 203.883506 304.233855 
L 207.268477 305.05495 
L 210.653448 305.638944 
L 214.038419 305.983329 
L 220.808361 306.587563 
L 227.578303 307.316229 
L 230.963275 307.447941 
L 236.886974 307.377336 
L 242.810673 307.390524 
L 255.504315 307.581423 
L 255.504315 307.581423 
" style="fill:none;stroke:#d62728;stroke-linecap:round;stroke-width:1.5;"/>
   </g>
   <g id="line2d_25">
    <path clip-path="url(#p2448da2902)" d="M 87.556997 307.578246 
L 93.310213 307.472035 
L 96.186821 307.217985 
L 98.10456 306.857213 
L 100.022299 306.249963 
L 101.940037 305.310789 
L 103.857776 303.969963 
L 105.775515 302.191238 
L 107.693254 299.977776 
L 109.610992 297.36056 
L 111.528731 294.375116 
L 113.44647 291.042921 
L 115.364208 287.373316 
L 118.240816 281.292827 
L 126.87064 262.143661 
L 128.788379 258.508367 
L 130.706118 255.360164 
L 132.623856 252.87004 
L 133.582726 251.92569 
L 134.541595 251.202172 
L 135.500464 250.704659 
L 136.459334 250.428372 
L 137.418203 250.358801 
L 138.377072 250.473513 
L 139.335942 250.745167 
L 141.25368 251.646605 
L 143.171419 252.870742 
L 146.048027 255.07492 
L 151.801243 260.037589 
L 157.554459 264.976557 
L 159.472198 266.891937 
L 162.348806 270.097766 
L 167.143153 275.467217 
L 172.896369 281.609441 
L 175.772977 285.079707 
L 179.608454 289.76888 
L 181.526193 291.837023 
L 183.443931 293.609775 
L 185.36167 295.094066 
L 187.279409 296.346969 
L 190.156017 297.929009 
L 193.032625 299.241806 
L 195.909233 300.304053 
L 204.539057 303.215336 
L 208.374534 304.530999 
L 211.251142 305.196534 
L 214.12775 305.582732 
L 222.757574 306.30278 
L 227.551921 306.52789 
L 239.058353 306.79979 
L 247.688177 307.442834 
L 252.482524 307.497981 
L 265.906694 307.430002 
L 277.413126 307.580102 
L 278.371996 307.581611 
L 278.371996 307.581611 
" style="fill:none;stroke:#2ca02c;stroke-linecap:round;stroke-width:1.5;"/>
   </g>
   <g id="line2d_26">
    <path clip-path="url(#p2448da2902)" d="M 88.939243 307.579416 
L 94.905221 307.470841 
L 97.462068 307.2507 
L 99.166633 306.957102 
L 100.871199 306.480106 
L 102.575764 305.756269 
L 104.280329 304.725431 
L 105.984894 303.340102 
L 107.689459 301.572186 
L 109.394024 299.414989 
L 111.098589 296.880789 
L 112.803154 293.995491 
L 115.360002 289.079433 
L 117.91685 283.540061 
L 120.473697 277.453648 
L 127.291958 260.680153 
L 128.996523 257.206822 
L 130.701088 254.282866 
L 132.405653 251.952959 
L 134.110218 250.234753 
L 134.962501 249.606193 
L 135.814783 249.128631 
L 136.667066 248.796269 
L 137.519348 248.599135 
L 139.223914 248.547692 
L 140.928479 248.812009 
L 146.042174 250.043251 
L 147.746739 250.61589 
L 148.599022 251.029115 
L 149.451304 251.566853 
L 150.303587 252.25397 
L 151.155869 253.107019 
L 152.860434 255.320831 
L 154.565 258.105651 
L 158.826412 265.687459 
L 160.530977 268.243654 
L 162.235543 270.383978 
L 164.79239 273.100258 
L 167.349238 275.812973 
L 169.906085 278.94174 
L 175.019781 285.661296 
L 176.724346 287.575066 
L 179.281194 290.005374 
L 187.804019 297.149655 
L 191.213149 299.894928 
L 193.769997 301.659906 
L 195.474562 302.634956 
L 197.179127 303.419338 
L 198.883692 304.002954 
L 200.588257 304.398365 
L 203.145105 304.727036 
L 210.815648 305.424526 
L 215.077061 305.8634 
L 235.531842 307.133635 
L 247.463798 307.412605 
L 255.134341 307.569247 
L 258.543471 307.581402 
L 258.543471 307.581402 
" style="fill:none;stroke:#ff7f0e;stroke-linecap:round;stroke-width:1.5;"/>
   </g>
   <g id="line2d_27">
    <path clip-path="url(#p2448da2902)" d="M 89.703719 307.57795 
L 95.421513 307.452213 
L 97.871996 307.207461 
L 99.505651 306.884165 
L 101.139306 306.358399 
L 102.772962 305.554823 
L 104.406617 304.399242 
L 106.040272 302.835318 
L 107.673928 300.843063 
L 109.307583 298.450903 
L 111.758066 294.280805 
L 115.025377 288.108878 
L 118.292688 281.546311 
L 125.644137 266.181606 
L 127.277792 263.434249 
L 128.911447 261.171257 
L 130.545103 259.303148 
L 134.629241 254.904336 
L 137.079724 251.662236 
L 139.530207 248.380598 
L 141.163863 246.708003 
L 141.98069 246.145784 
L 142.797518 245.801241 
L 143.614346 245.685922 
L 144.431173 245.798968 
L 145.248001 246.128165 
L 146.064829 246.652122 
L 147.698484 248.170832 
L 149.332139 250.115587 
L 152.59945 254.521768 
L 156.683589 259.994222 
L 159.950899 263.979035 
L 163.21821 268.009196 
L 164.851865 270.330759 
L 166.485521 272.956517 
L 168.936004 277.365465 
L 173.020142 284.78813 
L 174.653798 287.393398 
L 176.287453 289.708666 
L 177.921108 291.742424 
L 179.554764 293.512242 
L 181.188419 295.025978 
L 182.822074 296.283581 
L 184.45573 297.292427 
L 186.089385 298.08152 
L 188.539868 298.972721 
L 197.524973 301.838512 
L 204.059594 304.085481 
L 207.326905 304.974765 
L 210.594215 305.652195 
L 214.678354 306.262633 
L 217.945665 306.514605 
L 221.212975 306.498173 
L 226.930769 306.351365 
L 231.014908 306.564765 
L 244.900978 307.457997 
L 250.618772 307.572116 
L 252.252427 307.579095 
L 252.252427 307.579095 
" style="fill:none;stroke:#1f77b4;stroke-linecap:round;stroke-width:1.5;"/>
   </g>
   <g id="line2d_28">
    <path clip-path="url(#p2448da2902)" d="M 97.874118 307.581318 
L 107.989926 307.456636 
L 112.485841 307.180445 
L 115.857777 306.761372 
L 119.229713 306.057446 
L 121.477671 305.374987 
L 123.725628 304.484883 
L 125.973586 303.361727 
L 128.221543 301.988089 
L 130.4695 300.354762 
L 132.717458 298.459655 
L 134.965415 296.303855 
L 137.213373 293.883484 
L 139.46133 291.181152 
L 141.709288 288.167734 
L 143.957245 284.824637 
L 147.329181 279.282973 
L 151.825096 271.737442 
L 154.073053 268.42654 
L 156.321011 265.702477 
L 157.444989 264.595011 
L 158.568968 263.661111 
L 159.692947 262.894784 
L 160.816926 262.283822 
L 163.064883 261.455368 
L 165.31284 261.004263 
L 168.684776 260.666093 
L 173.180691 260.451304 
L 175.428649 260.571346 
L 177.676606 261.025908 
L 179.924564 261.918178 
L 182.172521 263.258189 
L 184.420478 264.962611 
L 187.792414 267.915284 
L 194.536287 274.256758 
L 197.908223 277.680847 
L 204.652095 284.716903 
L 206.900052 286.73689 
L 209.14801 288.490294 
L 212.519946 290.765813 
L 219.263818 295.227143 
L 222.635754 297.380452 
L 224.883712 298.591712 
L 227.131669 299.581364 
L 230.503605 300.73314 
L 234.99952 301.951707 
L 242.867371 303.805707 
L 250.735222 305.480401 
L 254.107158 306.014808 
L 257.479094 306.350521 
L 261.975009 306.556037 
L 269.84286 306.897785 
L 279.958668 307.463646 
L 286.702541 307.560755 
L 296.818349 307.448942 
L 304.6862 307.407868 
L 321.54588 307.581888 
L 321.54588 307.581888 
" style="fill:none;stroke:#9467bd;stroke-linecap:round;stroke-width:1.5;"/>
   </g>
   <g id="line2d_29">
    <path clip-path="url(#p2448da2902)" d="M 95.261442 307.57912 
L 103.495429 307.472918 
L 108.200565 307.225004 
L 112.905701 306.778289 
L 117.610837 306.136666 
L 121.139689 305.408084 
L 123.492257 304.687748 
L 125.844824 303.693138 
L 128.197392 302.368661 
L 130.54996 300.690498 
L 132.902528 298.666183 
L 135.255096 296.323229 
L 137.607664 293.698198 
L 141.136516 289.337798 
L 149.370503 278.68962 
L 152.899355 274.648857 
L 156.428207 270.982273 
L 162.309627 265.226829 
L 164.662195 263.166076 
L 167.014763 261.479767 
L 168.191047 260.824078 
L 169.367331 260.303842 
L 170.543614 259.915103 
L 172.896182 259.477902 
L 175.24875 259.378685 
L 177.601318 259.539185 
L 179.953886 260.024516 
L 181.13017 260.443422 
L 182.306454 261.012374 
L 183.482738 261.749127 
L 184.659022 262.660838 
L 187.01159 264.971726 
L 189.364158 267.747606 
L 194.069293 273.44425 
L 196.421861 275.918948 
L 199.950713 279.151776 
L 207.008417 285.398673 
L 210.537269 288.51129 
L 212.889837 290.388134 
L 215.242405 292.050108 
L 218.771256 294.194554 
L 223.476392 296.675016 
L 228.181528 298.913405 
L 231.71038 300.410876 
L 235.239232 301.717608 
L 239.944368 303.185336 
L 244.649503 304.377255 
L 248.178355 305.041757 
L 251.707207 305.478288 
L 256.412343 305.805896 
L 264.64633 306.3153 
L 278.761738 307.417541 
L 284.643158 307.441239 
L 295.229713 307.422857 
L 304.639985 307.424037 
L 314.050256 307.436625 
L 329.341948 307.581934 
L 329.341948 307.581934 
" style="fill:none;stroke:#d62728;stroke-linecap:round;stroke-width:1.5;"/>
   </g>
   <g id="line2d_30">
    <path clip-path="url(#p2448da2902)" d="M 102.641537 307.577552 
L 109.835326 307.442694 
L 112.918378 307.195756 
L 116.00143 306.683967 
L 118.056798 306.137734 
L 120.112167 305.399968 
L 122.167535 304.463873 
L 124.222903 303.33735 
L 127.305955 301.330305 
L 130.389008 298.998228 
L 133.47206 296.350756 
L 135.527428 294.35808 
L 137.582797 292.098246 
L 139.638165 289.474552 
L 141.693533 286.404804 
L 143.748901 282.866673 
L 146.831954 276.876733 
L 150.94269 268.790696 
L 152.998058 265.333948 
L 155.053427 262.555113 
L 156.081111 261.447526 
L 157.108795 260.526718 
L 158.136479 259.78373 
L 159.164163 259.205333 
L 160.191847 258.776204 
L 161.219531 258.48101 
L 163.274899 258.240295 
L 165.330268 258.405899 
L 167.385636 258.934153 
L 169.441004 259.782048 
L 171.496372 260.875072 
L 178.690161 265.050295 
L 184.856266 268.277004 
L 186.911634 269.644389 
L 188.967002 271.258043 
L 192.050055 274.042222 
L 203.35458 284.919558 
L 209.520685 291.086884 
L 211.576053 292.800065 
L 213.631421 294.191738 
L 215.686789 295.260965 
L 217.742158 296.076869 
L 234.185103 301.544886 
L 241.378892 303.566765 
L 248.572681 305.766372 
L 251.655733 306.357175 
L 254.738786 306.628391 
L 258.849522 306.676668 
L 263.987943 306.744393 
L 278.37552 307.299171 
L 288.652362 307.283898 
L 305.095307 307.578471 
L 307.150676 307.581793 
L 307.150676 307.581793 
" style="fill:none;stroke:#2ca02c;stroke-linecap:round;stroke-width:1.5;"/>
   </g>
   <g id="line2d_31">
    <path clip-path="url(#p2448da2902)" d="M 101.909065 307.577735 
L 109.674303 307.436613 
L 113.556921 307.162572 
L 117.43954 306.676181 
L 121.322159 305.946233 
L 124.234123 305.131398 
L 126.175433 304.36806 
L 128.116742 303.355823 
L 130.058052 302.037316 
L 131.999361 300.369406 
L 133.94067 298.327352 
L 135.88198 295.90616 
L 137.823289 293.123022 
L 140.735253 288.379276 
L 148.500491 274.936686 
L 151.412455 270.561001 
L 154.324419 266.708586 
L 156.265729 264.49263 
L 158.207038 262.66135 
L 160.148348 261.296592 
L 162.089657 260.406151 
L 164.030966 259.894347 
L 171.796204 258.676588 
L 173.737514 258.462408 
L 175.678823 258.542273 
L 176.649478 258.736565 
L 177.620132 259.046435 
L 179.561442 260.014194 
L 181.502751 261.404111 
L 183.444061 263.144576 
L 185.38537 265.179128 
L 188.297334 268.691448 
L 193.150608 274.930077 
L 195.091917 277.051093 
L 197.033227 278.748228 
L 198.974536 280.035619 
L 201.8865 281.525104 
L 203.82781 282.53104 
L 205.769119 283.756021 
L 207.710428 285.279645 
L 209.651738 287.078333 
L 217.416975 294.81872 
L 220.32894 297.201971 
L 223.240904 299.218092 
L 226.152868 300.892682 
L 229.064832 302.212634 
L 231.006141 302.886694 
L 233.918106 303.610506 
L 236.83007 304.080044 
L 244.595307 305.199747 
L 251.38989 306.364889 
L 254.301854 306.617746 
L 258.184473 306.679253 
L 264.979056 306.681253 
L 271.773639 307.023212 
L 280.509532 307.379418 
L 290.216079 307.566093 
L 295.069352 307.581758 
L 295.069352 307.581758 
" style="fill:none;stroke:#ff7f0e;stroke-linecap:round;stroke-width:1.5;"/>
   </g>
   <g id="line2d_32">
    <path clip-path="url(#p2448da2902)" d="M 98.5297 307.581302 
L 107.671399 307.483053 
L 112.75012 307.203645 
L 116.813098 306.733553 
L 119.860331 306.154022 
L 121.891819 305.594382 
L 123.923308 304.831423 
L 125.954796 303.803887 
L 127.986285 302.463609 
L 130.017774 300.790628 
L 132.049262 298.797353 
L 134.080751 296.519846 
L 137.127984 292.671744 
L 141.190961 287.004353 
L 147.285427 278.394884 
L 152.364149 271.740079 
L 156.427126 266.766318 
L 158.458615 264.612026 
L 160.490103 262.887406 
L 161.505848 262.226546 
L 162.521592 261.70929 
L 163.537336 261.332222 
L 165.568825 260.942171 
L 167.600314 260.8785 
L 172.679035 260.877014 
L 175.726268 260.810699 
L 177.757757 261.060009 
L 178.773501 261.352552 
L 179.789246 261.78224 
L 180.80499 262.358318 
L 181.820734 263.081445 
L 183.852223 264.931735 
L 185.883711 267.199414 
L 194.009666 277.030284 
L 196.041155 279.129201 
L 198.072643 280.979226 
L 200.104132 282.541025 
L 202.135621 283.790906 
L 204.167109 284.74997 
L 207.214342 285.840333 
L 210.261575 286.921998 
L 212.293064 287.830788 
L 214.324553 288.934043 
L 217.371785 290.860075 
L 227.529229 297.529574 
L 231.592206 300.012363 
L 234.639439 301.582622 
L 237.686672 302.82132 
L 241.749649 304.13589 
L 246.828371 305.566037 
L 249.875604 306.240508 
L 252.922837 306.69635 
L 256.985814 307.024136 
L 265.111769 307.338935 
L 271.206235 307.375325 
L 283.395166 307.255714 
L 298.631331 307.577341 
L 300.66282 307.581376 
L 300.66282 307.581376 
" style="fill:none;stroke:#1f77b4;stroke-linecap:round;stroke-width:1.5;"/>
   </g>
   <g id="line2d_33">
    <path clip-path="url(#p2448da2902)" d="M 129.372787 307.580927 
L 141.059345 307.463754 
L 148.07128 307.149272 
L 152.745903 306.76687 
L 156.251871 306.307904 
L 159.757838 305.578559 
L 162.09515 304.884038 
L 164.432461 303.999019 
L 166.769773 302.922676 
L 169.107085 301.667795 
L 172.613052 299.486676 
L 176.11902 296.97402 
L 179.624987 294.139137 
L 184.29961 289.970901 
L 188.974234 285.774041 
L 192.480201 282.927077 
L 195.986169 280.409189 
L 206.504071 273.41025 
L 208.841383 271.973353 
L 211.178694 270.746408 
L 213.516006 269.8093 
L 215.853317 269.192964 
L 218.190629 268.873937 
L 220.527941 268.791352 
L 224.033908 268.963728 
L 227.539876 269.37125 
L 231.045843 270.006142 
L 234.551811 270.920533 
L 238.057778 272.137725 
L 241.563745 273.663236 
L 243.901057 274.880089 
L 246.238369 276.300497 
L 248.57568 277.961944 
L 250.912992 279.873388 
L 254.418959 283.101834 
L 259.093583 287.48566 
L 261.430894 289.430907 
L 263.768206 291.117765 
L 266.105518 292.555287 
L 269.611485 294.375581 
L 274.286108 296.509821 
L 278.960732 298.415055 
L 282.466699 299.554488 
L 285.972667 300.397646 
L 296.490569 302.556957 
L 305.839815 304.839942 
L 309.345783 305.454114 
L 312.85175 305.876107 
L 317.526374 306.198011 
L 346.742769 307.421052 
L 354.92336 307.560704 
L 361.935295 307.581968 
L 361.935295 307.581968 
" style="fill:none;stroke:#9467bd;stroke-linecap:round;stroke-width:1.5;"/>
   </g>
   <g id="line2d_34">
    <path clip-path="url(#p2448da2902)" d="M 133.427689 307.579859 
L 142.751392 307.4852 
L 148.079223 307.210935 
L 152.075096 306.743646 
L 154.739012 306.24023 
L 157.402927 305.54013 
L 160.066843 304.616542 
L 162.730758 303.46609 
L 166.726631 301.392509 
L 180.046208 293.784167 
L 184.042081 291.335121 
L 188.037955 288.561145 
L 190.70187 286.459367 
L 193.365785 284.126922 
L 197.361659 280.26997 
L 202.689489 275.089202 
L 205.353405 272.860071 
L 208.01732 271.066224 
L 209.349278 270.358225 
L 210.681236 269.780789 
L 212.013193 269.331804 
L 214.677109 268.791677 
L 217.341024 268.654563 
L 220.00494 268.808831 
L 224.000813 269.332885 
L 231.992559 270.60793 
L 234.656474 271.214808 
L 237.32039 272.109695 
L 239.984305 273.398511 
L 242.648221 275.108338 
L 245.312136 277.171548 
L 254.63584 284.999215 
L 257.299756 286.872434 
L 259.963671 288.510262 
L 263.959544 290.664017 
L 273.283248 295.546766 
L 277.279121 297.583384 
L 279.943037 298.772886 
L 282.606952 299.781431 
L 285.270867 300.609804 
L 289.266741 301.568529 
L 293.262614 302.264645 
L 298.590445 302.905107 
L 305.250233 303.630812 
L 309.246106 304.253906 
L 319.901768 306.157777 
L 323.897641 306.581785 
L 330.55743 306.975405 
L 342.545049 307.467544 
L 351.868753 307.573356 
L 366.520288 307.493434 
L 378.507907 307.445543 
L 398.487273 307.582277 
L 398.487273 307.582277 
" style="fill:none;stroke:#d62728;stroke-linecap:round;stroke-width:1.5;"/>
   </g>
   <g id="line2d_35">
    <path clip-path="url(#p2448da2902)" d="M 123.316519 307.580767 
L 134.285773 307.477293 
L 140.379803 307.211006 
L 147.692639 306.620227 
L 153.786669 305.955253 
L 157.443087 305.370689 
L 161.099505 304.505409 
L 163.537117 303.728667 
L 165.974729 302.780042 
L 168.412341 301.660928 
L 172.068759 299.677005 
L 175.725177 297.350357 
L 179.381595 294.700189 
L 183.038013 291.722687 
L 186.694432 288.41052 
L 192.788462 282.410692 
L 196.44488 278.923026 
L 198.882492 276.813582 
L 201.320104 274.937257 
L 203.757716 273.318767 
L 206.195328 271.96718 
L 208.63294 270.882244 
L 211.070552 270.056382 
L 213.508164 269.476953 
L 215.945776 269.133564 
L 218.383388 269.028191 
L 220.821 269.179008 
L 223.258612 269.609828 
L 225.696224 270.326546 
L 228.133836 271.2933 
L 233.00906 273.608076 
L 236.665478 275.263933 
L 246.415926 279.32071 
L 248.853539 280.694284 
L 251.291151 282.282443 
L 256.166375 285.823304 
L 259.822793 288.432502 
L 263.479211 290.733451 
L 265.916823 292.043796 
L 269.573241 293.687729 
L 273.229659 295.046659 
L 280.542495 297.43561 
L 289.074137 300.040624 
L 296.386973 302.055358 
L 302.481003 303.464785 
L 308.575033 304.632008 
L 314.669064 305.577735 
L 319.544288 306.119293 
L 324.419512 306.463923 
L 330.513542 306.675216 
L 342.701602 306.997663 
L 356.108468 307.510255 
L 365.858916 307.580384 
L 365.858916 307.580384 
" style="fill:none;stroke:#2ca02c;stroke-linecap:round;stroke-width:1.5;"/>
   </g>
   <g id="line2d_36">
    <path clip-path="url(#p2448da2902)" d="M 126.019156 307.581606 
L 137.800296 307.480024 
L 143.036358 307.264199 
L 148.27242 306.830411 
L 153.508483 306.135645 
L 157.435529 305.422897 
L 161.362576 304.477987 
L 163.980607 303.653584 
L 166.598638 302.618159 
L 169.216669 301.336093 
L 171.8347 299.79428 
L 174.452732 297.998375 
L 177.070763 295.956729 
L 179.688794 293.666623 
L 182.306825 291.120283 
L 186.233872 286.873742 
L 191.469934 281.010759 
L 194.087965 278.39847 
L 196.705996 276.194037 
L 199.324027 274.419317 
L 201.942058 272.988254 
L 205.869105 271.181331 
L 211.105167 268.978352 
L 213.723198 268.040699 
L 216.34123 267.356343 
L 218.959261 267.013096 
L 221.577292 267.036683 
L 224.195323 267.39965 
L 226.813354 268.061053 
L 229.431385 269.002934 
L 232.049416 270.234868 
L 234.667447 271.765767 
L 237.285479 273.568323 
L 241.212525 276.602501 
L 247.757603 281.691644 
L 252.993665 285.386633 
L 263.46579 292.376323 
L 267.392836 294.73519 
L 270.010868 296.072915 
L 272.628899 297.166356 
L 275.24693 298.018497 
L 279.173977 298.983912 
L 284.410039 300.192388 
L 289.646101 301.687199 
L 296.191179 303.567098 
L 300.118225 304.463817 
L 305.354288 305.384107 
L 310.59035 306.047746 
L 315.826412 306.498881 
L 322.37149 306.854385 
L 330.225583 307.056462 
L 338.079677 307.066836 
L 353.787864 306.921804 
L 364.259988 307.255781 
L 374.732113 307.520311 
L 386.513253 307.582156 
L 386.513253 307.582156 
" style="fill:none;stroke:#ff7f0e;stroke-linecap:round;stroke-width:1.5;"/>
   </g>
   <g id="line2d_37">
    <path clip-path="url(#p2448da2902)" d="M 123.763305 307.582166 
L 138.740189 307.465989 
L 146.228631 307.21151 
L 151.220926 306.853177 
L 154.965147 306.360159 
L 157.461295 305.863859 
L 159.957442 305.199151 
L 162.453589 304.347713 
L 164.949737 303.30507 
L 167.445884 302.079957 
L 171.190105 299.936266 
L 174.934326 297.4652 
L 178.678548 294.683229 
L 182.422769 291.62073 
L 189.911211 285.083695 
L 196.151579 279.768183 
L 199.895801 276.829918 
L 202.391948 275.078377 
L 204.888095 273.579377 
L 207.384243 272.406731 
L 209.88039 271.610807 
L 212.376538 271.199211 
L 214.872685 271.125054 
L 218.616906 271.414073 
L 222.361127 271.759254 
L 224.857275 271.824528 
L 228.601496 271.64285 
L 232.345717 271.49429 
L 234.841864 271.728428 
L 236.089938 272.005656 
L 237.338012 272.402452 
L 239.834159 273.54521 
L 242.330306 275.06482 
L 251.066822 280.973919 
L 256.059117 283.852705 
L 261.051412 286.819375 
L 266.043707 290.150852 
L 271.036002 293.461371 
L 273.532149 294.899511 
L 276.028296 296.124992 
L 279.772518 297.614843 
L 294.749402 302.844845 
L 298.493623 303.768862 
L 302.237844 304.415516 
L 312.222434 305.740937 
L 317.214729 306.23852 
L 322.207023 306.501145 
L 358.401161 307.494828 
L 370.881898 307.581127 
L 372.129972 307.582201 
L 372.129972 307.582201 
" style="fill:none;stroke:#1f77b4;stroke-linecap:round;stroke-width:1.5;"/>
   </g>
   <g id="patch_3">
    <path d="M 57.6 307.584 
L 57.6 41.472 
" style="fill:none;stroke:#ffffff;stroke-linecap:square;stroke-linejoin:miter;stroke-width:0.8;"/>
   </g>
   <g id="patch_4">
    <path d="M 414.72 307.584 
L 414.72 41.472 
" style="fill:none;stroke:#ffffff;stroke-linecap:square;stroke-linejoin:miter;stroke-width:0.8;"/>
   </g>
   <g id="patch_5">
    <path d="M 57.6 307.584 
L 414.72 307.584 
" style="fill:none;stroke:#ffffff;stroke-linecap:square;stroke-linejoin:miter;stroke-width:0.8;"/>
   </g>
   <g id="patch_6">
    <path d="M 57.6 41.472 
L 414.72 41.472 
" style="fill:none;stroke:#ffffff;stroke-linecap:square;stroke-linejoin:miter;stroke-width:0.8;"/>
   </g>
   <g id="text_14">
    <!-- Density plots of PG(h, 0) using each method for h $\in$ {1,4,7,10,15}.  -->
    <g style="fill:#262626;" transform="translate(30.3 22.008)scale(0.12 -0.12)">
     <defs>
      <path id="DejaVuSans-32"/>
      <path d="M 18.109375 8.203125 
L 18.109375 -20.796875 
L 9.078125 -20.796875 
L 9.078125 54.6875 
L 18.109375 54.6875 
L 18.109375 46.390625 
Q 20.953125 51.265625 25.265625 53.625 
Q 29.59375 56 35.59375 56 
Q 45.5625 56 51.78125 48.09375 
Q 58.015625 40.1875 58.015625 27.296875 
Q 58.015625 14.40625 51.78125 6.484375 
Q 45.5625 -1.421875 35.59375 -1.421875 
Q 29.59375 -1.421875 25.265625 0.953125 
Q 20.953125 3.328125 18.109375 8.203125 
z
M 48.6875 27.296875 
Q 48.6875 37.203125 44.609375 42.84375 
Q 40.53125 48.484375 33.40625 48.484375 
Q 26.265625 48.484375 22.1875 42.84375 
Q 18.109375 37.203125 18.109375 27.296875 
Q 18.109375 17.390625 22.1875 11.75 
Q 26.265625 6.109375 33.40625 6.109375 
Q 40.53125 6.109375 44.609375 11.75 
Q 48.6875 17.390625 48.6875 27.296875 
z
" id="DejaVuSans-112"/>
      <path d="M 9.421875 75.984375 
L 18.40625 75.984375 
L 18.40625 0 
L 9.421875 0 
z
" id="DejaVuSans-108"/>
      <path d="M 30.609375 48.390625 
Q 23.390625 48.390625 19.1875 42.75 
Q 14.984375 37.109375 14.984375 27.296875 
Q 14.984375 17.484375 19.15625 11.84375 
Q 23.34375 6.203125 30.609375 6.203125 
Q 37.796875 6.203125 41.984375 11.859375 
Q 46.1875 17.53125 46.1875 27.296875 
Q 46.1875 37.015625 41.984375 42.703125 
Q 37.796875 48.390625 30.609375 48.390625 
z
M 30.609375 56 
Q 42.328125 56 49.015625 48.375 
Q 55.71875 40.765625 55.71875 27.296875 
Q 55.71875 13.875 49.015625 6.21875 
Q 42.328125 -1.421875 30.609375 -1.421875 
Q 18.84375 -1.421875 12.171875 6.21875 
Q 5.515625 13.875 5.515625 27.296875 
Q 5.515625 40.765625 12.171875 48.375 
Q 18.84375 56 30.609375 56 
z
" id="DejaVuSans-111"/>
      <path d="M 37.109375 75.984375 
L 37.109375 68.5 
L 28.515625 68.5 
Q 23.6875 68.5 21.796875 66.546875 
Q 19.921875 64.59375 19.921875 59.515625 
L 19.921875 54.6875 
L 34.71875 54.6875 
L 34.71875 47.703125 
L 19.921875 47.703125 
L 19.921875 0 
L 10.890625 0 
L 10.890625 47.703125 
L 2.296875 47.703125 
L 2.296875 54.6875 
L 10.890625 54.6875 
L 10.890625 58.5 
Q 10.890625 67.625 15.140625 71.796875 
Q 19.390625 75.984375 28.609375 75.984375 
z
" id="DejaVuSans-102"/>
      <path d="M 19.671875 64.796875 
L 19.671875 37.40625 
L 32.078125 37.40625 
Q 38.96875 37.40625 42.71875 40.96875 
Q 46.484375 44.53125 46.484375 51.125 
Q 46.484375 57.671875 42.71875 61.234375 
Q 38.96875 64.796875 32.078125 64.796875 
z
M 9.8125 72.90625 
L 32.078125 72.90625 
Q 44.34375 72.90625 50.609375 67.359375 
Q 56.890625 61.8125 56.890625 51.125 
Q 56.890625 40.328125 50.609375 34.8125 
Q 44.34375 29.296875 32.078125 29.296875 
L 19.671875 29.296875 
L 19.671875 0 
L 9.8125 0 
z
" id="DejaVuSans-80"/>
      <path d="M 59.515625 10.40625 
L 59.515625 29.984375 
L 43.40625 29.984375 
L 43.40625 38.09375 
L 69.28125 38.09375 
L 69.28125 6.78125 
Q 63.578125 2.734375 56.6875 0.65625 
Q 49.8125 -1.421875 42 -1.421875 
Q 24.90625 -1.421875 15.25 8.5625 
Q 5.609375 18.5625 5.609375 36.375 
Q 5.609375 54.25 15.25 64.234375 
Q 24.90625 74.21875 42 74.21875 
Q 49.125 74.21875 55.546875 72.453125 
Q 61.96875 70.703125 67.390625 67.28125 
L 67.390625 56.78125 
Q 61.921875 61.421875 55.765625 63.765625 
Q 49.609375 66.109375 42.828125 66.109375 
Q 29.4375 66.109375 22.71875 58.640625 
Q 16.015625 51.171875 16.015625 36.375 
Q 16.015625 21.625 22.71875 14.15625 
Q 29.4375 6.6875 42.828125 6.6875 
Q 48.046875 6.6875 52.140625 7.59375 
Q 56.25 8.5 59.515625 10.40625 
z
" id="DejaVuSans-71"/>
      <path d="M 31 75.875 
Q 24.46875 64.65625 21.28125 53.65625 
Q 18.109375 42.671875 18.109375 31.390625 
Q 18.109375 20.125 21.3125 9.0625 
Q 24.515625 -2 31 -13.1875 
L 23.1875 -13.1875 
Q 15.875 -1.703125 12.234375 9.375 
Q 8.59375 20.453125 8.59375 31.390625 
Q 8.59375 42.28125 12.203125 53.3125 
Q 15.828125 64.359375 23.1875 75.875 
z
" id="DejaVuSans-40"/>
      <path d="M 54.890625 33.015625 
L 54.890625 0 
L 45.90625 0 
L 45.90625 32.71875 
Q 45.90625 40.484375 42.875 44.328125 
Q 39.84375 48.1875 33.796875 48.1875 
Q 26.515625 48.1875 22.3125 43.546875 
Q 18.109375 38.921875 18.109375 30.90625 
L 18.109375 0 
L 9.078125 0 
L 9.078125 75.984375 
L 18.109375 75.984375 
L 18.109375 46.1875 
Q 21.34375 51.125 25.703125 53.5625 
Q 30.078125 56 35.796875 56 
Q 45.21875 56 50.046875 50.171875 
Q 54.890625 44.34375 54.890625 33.015625 
z
" id="DejaVuSans-104"/>
      <path d="M 11.71875 12.40625 
L 22.015625 12.40625 
L 22.015625 4 
L 14.015625 -11.625 
L 7.71875 -11.625 
L 11.71875 4 
z
" id="DejaVuSans-44"/>
      <path d="M 8.015625 75.875 
L 15.828125 75.875 
Q 23.140625 64.359375 26.78125 53.3125 
Q 30.421875 42.28125 30.421875 31.390625 
Q 30.421875 20.453125 26.78125 9.375 
Q 23.140625 -1.703125 15.828125 -13.1875 
L 8.015625 -13.1875 
Q 14.5 -2 17.703125 9.0625 
Q 20.90625 20.125 20.90625 31.390625 
Q 20.90625 42.671875 17.703125 53.65625 
Q 14.5 64.65625 8.015625 75.875 
z
" id="DejaVuSans-41"/>
      <path d="M 8.5 21.578125 
L 8.5 54.6875 
L 17.484375 54.6875 
L 17.484375 21.921875 
Q 17.484375 14.15625 20.5 10.265625 
Q 23.53125 6.390625 29.59375 6.390625 
Q 36.859375 6.390625 41.078125 11.03125 
Q 45.3125 15.671875 45.3125 23.6875 
L 45.3125 54.6875 
L 54.296875 54.6875 
L 54.296875 0 
L 45.3125 0 
L 45.3125 8.40625 
Q 42.046875 3.421875 37.71875 1 
Q 33.40625 -1.421875 27.6875 -1.421875 
Q 18.265625 -1.421875 13.375 4.4375 
Q 8.5 10.296875 8.5 21.578125 
z
M 31.109375 56 
z
" id="DejaVuSans-117"/>
      <path d="M 45.40625 27.984375 
Q 45.40625 37.75 41.375 43.109375 
Q 37.359375 48.484375 30.078125 48.484375 
Q 22.859375 48.484375 18.828125 43.109375 
Q 14.796875 37.75 14.796875 27.984375 
Q 14.796875 18.265625 18.828125 12.890625 
Q 22.859375 7.515625 30.078125 7.515625 
Q 37.359375 7.515625 41.375 12.890625 
Q 45.40625 18.265625 45.40625 27.984375 
z
M 54.390625 6.78125 
Q 54.390625 -7.171875 48.1875 -13.984375 
Q 42 -20.796875 29.203125 -20.796875 
Q 24.46875 -20.796875 20.265625 -20.09375 
Q 16.0625 -19.390625 12.109375 -17.921875 
L 12.109375 -9.1875 
Q 16.0625 -11.328125 19.921875 -12.34375 
Q 23.78125 -13.375 27.78125 -13.375 
Q 36.625 -13.375 41.015625 -8.765625 
Q 45.40625 -4.15625 45.40625 5.171875 
L 45.40625 9.625 
Q 42.625 4.78125 38.28125 2.390625 
Q 33.9375 0 27.875 0 
Q 17.828125 0 11.671875 7.65625 
Q 5.515625 15.328125 5.515625 27.984375 
Q 5.515625 40.671875 11.671875 48.328125 
Q 17.828125 56 27.875 56 
Q 33.9375 56 38.28125 53.609375 
Q 42.625 51.21875 45.40625 46.390625 
L 45.40625 54.6875 
L 54.390625 54.6875 
z
" id="DejaVuSans-103"/>
      <path d="M 34.28125 27.484375 
Q 23.390625 27.484375 19.1875 25 
Q 14.984375 22.515625 14.984375 16.5 
Q 14.984375 11.71875 18.140625 8.90625 
Q 21.296875 6.109375 26.703125 6.109375 
Q 34.1875 6.109375 38.703125 11.40625 
Q 43.21875 16.703125 43.21875 25.484375 
L 43.21875 27.484375 
z
M 52.203125 31.203125 
L 52.203125 0 
L 43.21875 0 
L 43.21875 8.296875 
Q 40.140625 3.328125 35.546875 0.953125 
Q 30.953125 -1.421875 24.3125 -1.421875 
Q 15.921875 -1.421875 10.953125 3.296875 
Q 6 8.015625 6 15.921875 
Q 6 25.140625 12.171875 29.828125 
Q 18.359375 34.515625 30.609375 34.515625 
L 43.21875 34.515625 
L 43.21875 35.40625 
Q 43.21875 41.609375 39.140625 45 
Q 35.0625 48.390625 27.6875 48.390625 
Q 23 48.390625 18.546875 47.265625 
Q 14.109375 46.140625 10.015625 43.890625 
L 10.015625 52.203125 
Q 14.9375 54.109375 19.578125 55.046875 
Q 24.21875 56 28.609375 56 
Q 40.484375 56 46.34375 49.84375 
Q 52.203125 43.703125 52.203125 31.203125 
z
" id="DejaVuSans-97"/>
      <path d="M 48.78125 52.59375 
L 48.78125 44.1875 
Q 44.96875 46.296875 41.140625 47.34375 
Q 37.3125 48.390625 33.40625 48.390625 
Q 24.65625 48.390625 19.8125 42.84375 
Q 14.984375 37.3125 14.984375 27.296875 
Q 14.984375 17.28125 19.8125 11.734375 
Q 24.65625 6.203125 33.40625 6.203125 
Q 37.3125 6.203125 41.140625 7.25 
Q 44.96875 8.296875 48.78125 10.40625 
L 48.78125 2.09375 
Q 45.015625 0.34375 40.984375 -0.53125 
Q 36.96875 -1.421875 32.421875 -1.421875 
Q 20.0625 -1.421875 12.78125 6.34375 
Q 5.515625 14.109375 5.515625 27.296875 
Q 5.515625 40.671875 12.859375 48.328125 
Q 20.21875 56 33.015625 56 
Q 37.15625 56 41.109375 55.140625 
Q 45.0625 54.296875 48.78125 52.59375 
z
" id="DejaVuSans-99"/>
      <path d="M 52 44.1875 
Q 55.375 50.25 60.0625 53.125 
Q 64.75 56 71.09375 56 
Q 79.640625 56 84.28125 50.015625 
Q 88.921875 44.046875 88.921875 33.015625 
L 88.921875 0 
L 79.890625 0 
L 79.890625 32.71875 
Q 79.890625 40.578125 77.09375 44.375 
Q 74.3125 48.1875 68.609375 48.1875 
Q 61.625 48.1875 57.5625 43.546875 
Q 53.515625 38.921875 53.515625 30.90625 
L 53.515625 0 
L 44.484375 0 
L 44.484375 32.71875 
Q 44.484375 40.625 41.703125 44.40625 
Q 38.921875 48.1875 33.109375 48.1875 
Q 26.21875 48.1875 22.15625 43.53125 
Q 18.109375 38.875 18.109375 30.90625 
L 18.109375 0 
L 9.078125 0 
L 9.078125 54.6875 
L 18.109375 54.6875 
L 18.109375 46.1875 
Q 21.1875 51.21875 25.484375 53.609375 
Q 29.78125 56 35.6875 56 
Q 41.65625 56 45.828125 52.96875 
Q 50 49.953125 52 44.1875 
z
" id="DejaVuSans-109"/>
      <path d="M 45.40625 46.390625 
L 45.40625 75.984375 
L 54.390625 75.984375 
L 54.390625 0 
L 45.40625 0 
L 45.40625 8.203125 
Q 42.578125 3.328125 38.25 0.953125 
Q 33.9375 -1.421875 27.875 -1.421875 
Q 17.96875 -1.421875 11.734375 6.484375 
Q 5.515625 14.40625 5.515625 27.296875 
Q 5.515625 40.1875 11.734375 48.09375 
Q 17.96875 56 27.875 56 
Q 33.9375 56 38.25 53.625 
Q 42.578125 51.265625 45.40625 46.390625 
z
M 14.796875 27.296875 
Q 14.796875 17.390625 18.875 11.75 
Q 22.953125 6.109375 30.078125 6.109375 
Q 37.203125 6.109375 41.296875 11.75 
Q 45.40625 17.390625 45.40625 27.296875 
Q 45.40625 37.203125 41.296875 42.84375 
Q 37.203125 48.484375 30.078125 48.484375 
Q 22.953125 48.484375 18.875 42.84375 
Q 14.796875 37.203125 14.796875 27.296875 
z
" id="DejaVuSans-100"/>
      <path d="M 41.109375 46.296875 
Q 39.59375 47.171875 37.8125 47.578125 
Q 36.03125 48 33.890625 48 
Q 26.265625 48 22.1875 43.046875 
Q 18.109375 38.09375 18.109375 28.8125 
L 18.109375 0 
L 9.078125 0 
L 9.078125 54.6875 
L 18.109375 54.6875 
L 18.109375 46.1875 
Q 20.953125 51.171875 25.484375 53.578125 
Q 30.03125 56 36.53125 56 
Q 37.453125 56 38.578125 55.875 
Q 39.703125 55.765625 41.0625 55.515625 
z
" id="DejaVuSans-114"/>
      <path d="M 16.75 30.609375 
Q 17.09375 27 20.171875 21.140625 
Q 23.78125 14.359375 30.609375 10.546875 
Q 37.3125 6.84375 44.53125 6.78125 
L 78.5625 6.78125 
L 78.5625 -0.984375 
L 44.53125 -0.984375 
Q 35.15625 -0.984375 26.484375 3.84375 
Q 17.828125 8.6875 13.1875 17.28125 
Q 8.546875 25.875 8.546875 35.015625 
Q 8.546875 44.046875 13.1875 52.640625 
Q 17.828125 61.234375 26.484375 66.109375 
Q 35.15625 71 44.53125 71 
L 78.5625 71 
L 78.5625 63.234375 
L 44.53125 63.234375 
Q 37.3125 63.1875 30.609375 59.421875 
Q 23.828125 55.5625 20.171875 48.828125 
Q 17.046875 42.96875 16.609375 38.421875 
L 78.5625 38.421875 
L 78.5625 30.609375 
z
" id="DejaVuSans-8712"/>
      <path d="M 51.125 -9.28125 
L 51.125 -16.3125 
L 48.09375 -16.3125 
Q 35.9375 -16.3125 31.8125 -12.6875 
Q 27.6875 -9.078125 27.6875 1.703125 
L 27.6875 13.375 
Q 27.6875 20.75 25.046875 23.578125 
Q 22.40625 26.421875 15.484375 26.421875 
L 12.5 26.421875 
L 12.5 33.40625 
L 15.484375 33.40625 
Q 22.46875 33.40625 25.078125 36.203125 
Q 27.6875 39.015625 27.6875 46.296875 
L 27.6875 58.015625 
Q 27.6875 68.796875 31.8125 72.390625 
Q 35.9375 75.984375 48.09375 75.984375 
L 51.125 75.984375 
L 51.125 69 
L 47.796875 69 
Q 40.921875 69 38.8125 66.84375 
Q 36.71875 64.703125 36.71875 57.8125 
L 36.71875 45.703125 
Q 36.71875 38.03125 34.5 34.5625 
Q 32.28125 31.109375 26.90625 29.890625 
Q 32.328125 28.5625 34.515625 25.09375 
Q 36.71875 21.625 36.71875 14.015625 
L 36.71875 1.90625 
Q 36.71875 -4.984375 38.8125 -7.125 
Q 40.921875 -9.28125 47.796875 -9.28125 
z
" id="DejaVuSans-123"/>
      <path d="M 8.203125 72.90625 
L 55.078125 72.90625 
L 55.078125 68.703125 
L 28.609375 0 
L 18.3125 0 
L 43.21875 64.59375 
L 8.203125 64.59375 
z
" id="DejaVuSans-55"/>
      <path d="M 12.5 -9.28125 
L 15.921875 -9.28125 
Q 22.75 -9.28125 24.828125 -7.171875 
Q 26.90625 -5.078125 26.90625 1.90625 
L 26.90625 14.015625 
Q 26.90625 21.625 29.09375 25.09375 
Q 31.296875 28.5625 36.71875 29.890625 
Q 31.296875 31.109375 29.09375 34.5625 
Q 26.90625 38.03125 26.90625 45.703125 
L 26.90625 57.8125 
Q 26.90625 64.75 24.828125 66.875 
Q 22.75 69 15.921875 69 
L 12.5 69 
L 12.5 75.984375 
L 15.578125 75.984375 
Q 27.734375 75.984375 31.8125 72.390625 
Q 35.890625 68.796875 35.890625 58.015625 
L 35.890625 46.296875 
Q 35.890625 39.015625 38.515625 36.203125 
Q 41.15625 33.40625 48.09375 33.40625 
L 51.125 33.40625 
L 51.125 26.421875 
L 48.09375 26.421875 
Q 41.15625 26.421875 38.515625 23.578125 
Q 35.890625 20.75 35.890625 13.375 
L 35.890625 1.703125 
Q 35.890625 -9.078125 31.8125 -12.6875 
Q 27.734375 -16.3125 15.578125 -16.3125 
L 12.5 -16.3125 
z
" id="DejaVuSans-125"/>
     </defs>
     <use transform="translate(0 0.015625)" xlink:href="#DejaVuSans-68"/>
     <use transform="translate(77.001953 0.015625)" xlink:href="#DejaVuSans-101"/>
     <use transform="translate(138.525391 0.015625)" xlink:href="#DejaVuSans-110"/>
     <use transform="translate(201.904297 0.015625)" xlink:href="#DejaVuSans-115"/>
     <use transform="translate(254.003906 0.015625)" xlink:href="#DejaVuSans-105"/>
     <use transform="translate(281.787109 0.015625)" xlink:href="#DejaVuSans-116"/>
     <use transform="translate(320.996094 0.015625)" xlink:href="#DejaVuSans-121"/>
     <use transform="translate(380.175781 0.015625)" xlink:href="#DejaVuSans-32"/>
     <use transform="translate(411.962891 0.015625)" xlink:href="#DejaVuSans-112"/>
     <use transform="translate(475.439453 0.015625)" xlink:href="#DejaVuSans-108"/>
     <use transform="translate(503.222656 0.015625)" xlink:href="#DejaVuSans-111"/>
     <use transform="translate(564.404297 0.015625)" xlink:href="#DejaVuSans-116"/>
     <use transform="translate(603.613281 0.015625)" xlink:href="#DejaVuSans-115"/>
     <use transform="translate(655.712891 0.015625)" xlink:href="#DejaVuSans-32"/>
     <use transform="translate(687.5 0.015625)" xlink:href="#DejaVuSans-111"/>
     <use transform="translate(748.681641 0.015625)" xlink:href="#DejaVuSans-102"/>
     <use transform="translate(783.886719 0.015625)" xlink:href="#DejaVuSans-32"/>
     <use transform="translate(815.673828 0.015625)" xlink:href="#DejaVuSans-80"/>
     <use transform="translate(875.976562 0.015625)" xlink:href="#DejaVuSans-71"/>
     <use transform="translate(953.466797 0.015625)" xlink:href="#DejaVuSans-40"/>
     <use transform="translate(992.480469 0.015625)" xlink:href="#DejaVuSans-104"/>
     <use transform="translate(1055.859375 0.015625)" xlink:href="#DejaVuSans-44"/>
     <use transform="translate(1087.646484 0.015625)" xlink:href="#DejaVuSans-32"/>
     <use transform="translate(1119.433594 0.015625)" xlink:href="#DejaVuSans-48"/>
     <use transform="translate(1183.056641 0.015625)" xlink:href="#DejaVuSans-41"/>
     <use transform="translate(1222.070312 0.015625)" xlink:href="#DejaVuSans-32"/>
     <use transform="translate(1253.857422 0.015625)" xlink:href="#DejaVuSans-117"/>
     <use transform="translate(1317.236328 0.015625)" xlink:href="#DejaVuSans-115"/>
     <use transform="translate(1369.335938 0.015625)" xlink:href="#DejaVuSans-105"/>
     <use transform="translate(1397.119141 0.015625)" xlink:href="#DejaVuSans-110"/>
     <use transform="translate(1460.498047 0.015625)" xlink:href="#DejaVuSans-103"/>
     <use transform="translate(1523.974609 0.015625)" xlink:href="#DejaVuSans-32"/>
     <use transform="translate(1555.761719 0.015625)" xlink:href="#DejaVuSans-101"/>
     <use transform="translate(1617.285156 0.015625)" xlink:href="#DejaVuSans-97"/>
     <use transform="translate(1678.564453 0.015625)" xlink:href="#DejaVuSans-99"/>
     <use transform="translate(1733.544922 0.015625)" xlink:href="#DejaVuSans-104"/>
     <use transform="translate(1796.923828 0.015625)" xlink:href="#DejaVuSans-32"/>
     <use transform="translate(1828.710938 0.015625)" xlink:href="#DejaVuSans-109"/>
     <use transform="translate(1926.123047 0.015625)" xlink:href="#DejaVuSans-101"/>
     <use transform="translate(1987.646484 0.015625)" xlink:href="#DejaVuSans-116"/>
     <use transform="translate(2026.855469 0.015625)" xlink:href="#DejaVuSans-104"/>
     <use transform="translate(2090.234375 0.015625)" xlink:href="#DejaVuSans-111"/>
     <use transform="translate(2151.416016 0.015625)" xlink:href="#DejaVuSans-100"/>
     <use transform="translate(2214.892578 0.015625)" xlink:href="#DejaVuSans-32"/>
     <use transform="translate(2246.679688 0.015625)" xlink:href="#DejaVuSans-102"/>
     <use transform="translate(2281.884766 0.015625)" xlink:href="#DejaVuSans-111"/>
     <use transform="translate(2343.066406 0.015625)" xlink:href="#DejaVuSans-114"/>
     <use transform="translate(2384.179688 0.015625)" xlink:href="#DejaVuSans-32"/>
     <use transform="translate(2415.966797 0.015625)" xlink:href="#DejaVuSans-104"/>
     <use transform="translate(2479.345703 0.015625)" xlink:href="#DejaVuSans-32"/>
     <use transform="translate(2530.615234 0.015625)" xlink:href="#DejaVuSans-8712"/>
     <use transform="translate(2637.207031 0.015625)" xlink:href="#DejaVuSans-32"/>
     <use transform="translate(2668.994141 0.015625)" xlink:href="#DejaVuSans-123"/>
     <use transform="translate(2732.617188 0.015625)" xlink:href="#DejaVuSans-49"/>
     <use transform="translate(2796.240234 0.015625)" xlink:href="#DejaVuSans-44"/>
     <use transform="translate(2828.027344 0.015625)" xlink:href="#DejaVuSans-52"/>
     <use transform="translate(2891.650391 0.015625)" xlink:href="#DejaVuSans-44"/>
     <use transform="translate(2923.4375 0.015625)" xlink:href="#DejaVuSans-55"/>
     <use transform="translate(2987.060547 0.015625)" xlink:href="#DejaVuSans-44"/>
     <use transform="translate(3018.847656 0.015625)" xlink:href="#DejaVuSans-49"/>
     <use transform="translate(3082.470703 0.015625)" xlink:href="#DejaVuSans-48"/>
     <use transform="translate(3146.09375 0.015625)" xlink:href="#DejaVuSans-44"/>
     <use transform="translate(3177.880859 0.015625)" xlink:href="#DejaVuSans-49"/>
     <use transform="translate(3241.503906 0.015625)" xlink:href="#DejaVuSans-53"/>
     <use transform="translate(3303.376953 0.015625)" xlink:href="#DejaVuSans-125"/>
     <use transform="translate(3367 0.015625)" xlink:href="#DejaVuSans-46"/>
     <use transform="translate(3398.787109 0.015625)" xlink:href="#DejaVuSans-32"/>
    </g>
    <!-- A plot from the $pypolyagamma$ package is used as a reference. -->
    <g style="fill:#262626;" transform="translate(45 35.472)scale(0.12 -0.12)">
     <defs>
      <path d="M 34.1875 63.1875 
L 20.796875 26.90625 
L 47.609375 26.90625 
z
M 28.609375 72.90625 
L 39.796875 72.90625 
L 67.578125 0 
L 57.328125 0 
L 50.6875 18.703125 
L 17.828125 18.703125 
L 11.1875 0 
L 0.78125 0 
z
" id="DejaVuSans-65"/>
      <path d="M 49.609375 33.6875 
Q 49.609375 40.875 46.484375 44.671875 
Q 43.359375 48.484375 37.5 48.484375 
Q 33.5 48.484375 29.859375 46.4375 
Q 26.21875 44.390625 23.390625 40.484375 
Q 20.609375 36.625 18.9375 31.15625 
Q 17.28125 25.6875 17.28125 20.3125 
Q 17.28125 13.484375 20.40625 9.796875 
Q 23.53125 6.109375 29.296875 6.109375 
Q 33.546875 6.109375 37.1875 8.109375 
Q 40.828125 10.109375 43.40625 13.921875 
Q 46.1875 17.921875 47.890625 23.34375 
Q 49.609375 28.765625 49.609375 33.6875 
z
M 21.78125 46.390625 
Q 25.390625 51.125 30.296875 53.5625 
Q 35.203125 56 41.21875 56 
Q 49.609375 56 54.25 50.5 
Q 58.890625 45.015625 58.890625 35.109375 
Q 58.890625 27 56 19.65625 
Q 53.125 12.3125 47.703125 6.5 
Q 44.09375 2.640625 39.546875 0.609375 
Q 35.015625 -1.421875 29.984375 -1.421875 
Q 24.171875 -1.421875 20.21875 1 
Q 16.265625 3.421875 14.3125 8.203125 
L 8.6875 -20.796875 
L -0.296875 -20.796875 
L 14.40625 54.6875 
L 23.390625 54.6875 
z
" id="DejaVuSans-Oblique-112"/>
      <path d="M 24.8125 -5.078125 
Q 18.5625 -15.578125 14.625 -18.1875 
Q 10.6875 -20.796875 4.59375 -20.796875 
L -2.484375 -20.796875 
L -0.984375 -13.28125 
L 4.203125 -13.28125 
Q 7.953125 -13.28125 10.59375 -11.234375 
Q 13.234375 -9.1875 16.5 -3.21875 
L 19.28125 2 
L 7.171875 54.6875 
L 16.703125 54.6875 
L 25.78125 12.796875 
L 50.875 54.6875 
L 60.296875 54.6875 
z
" id="DejaVuSans-Oblique-121"/>
      <path d="M 25.390625 -1.421875 
Q 15.765625 -1.421875 10.171875 4.515625 
Q 4.59375 10.453125 4.59375 20.703125 
Q 4.59375 26.65625 6.515625 32.828125 
Q 8.453125 39.015625 11.53125 43.21875 
Q 16.359375 49.75 22.3125 52.875 
Q 28.265625 56 35.796875 56 
Q 45.125 56 50.859375 50.1875 
Q 56.59375 44.390625 56.59375 35.015625 
Q 56.59375 28.515625 54.6875 22.0625 
Q 52.78125 15.625 49.703125 11.375 
Q 44.921875 4.828125 38.96875 1.703125 
Q 33.015625 -1.421875 25.390625 -1.421875 
z
M 13.921875 21 
Q 13.921875 13.578125 17.015625 9.890625 
Q 20.125 6.203125 26.421875 6.203125 
Q 35.453125 6.203125 41.375 14.078125 
Q 47.3125 21.96875 47.3125 34.078125 
Q 47.3125 41.15625 44.140625 44.765625 
Q 40.96875 48.390625 34.8125 48.390625 
Q 29.734375 48.390625 25.78125 46.015625 
Q 21.828125 43.65625 18.703125 38.8125 
Q 16.40625 35.203125 15.15625 30.5625 
Q 13.921875 25.921875 13.921875 21 
z
" id="DejaVuSans-Oblique-111"/>
      <path d="M 18.3125 75.984375 
L 27.296875 75.984375 
L 12.5 0 
L 3.515625 0 
z
" id="DejaVuSans-Oblique-108"/>
      <path d="M 53.71875 31.203125 
L 47.609375 0 
L 38.625 0 
L 40.28125 8.296875 
Q 36.328125 3.421875 31.265625 1 
Q 26.21875 -1.421875 20.015625 -1.421875 
Q 13.03125 -1.421875 8.5625 2.84375 
Q 4.109375 7.125 4.109375 13.8125 
Q 4.109375 23.390625 11.75 28.953125 
Q 19.390625 34.515625 32.8125 34.515625 
L 45.3125 34.515625 
L 45.796875 36.921875 
Q 45.90625 37.3125 45.953125 37.765625 
Q 46 38.234375 46 39.203125 
Q 46 43.5625 42.453125 45.96875 
Q 38.921875 48.390625 32.515625 48.390625 
Q 28.125 48.390625 23.5 47.265625 
Q 18.890625 46.140625 14.015625 43.890625 
L 15.578125 52.203125 
Q 20.65625 54.109375 25.515625 55.046875 
Q 30.375 56 34.90625 56 
Q 44.578125 56 49.625 51.796875 
Q 54.6875 47.609375 54.6875 39.59375 
Q 54.6875 37.984375 54.4375 35.8125 
Q 54.203125 33.640625 53.71875 31.203125 
z
M 44 27.484375 
L 35.015625 27.484375 
Q 23.96875 27.484375 18.671875 24.53125 
Q 13.375 21.578125 13.375 15.375 
Q 13.375 11.078125 16.078125 8.640625 
Q 18.796875 6.203125 23.578125 6.203125 
Q 30.90625 6.203125 36.375 11.453125 
Q 41.84375 16.703125 43.609375 25.484375 
z
" id="DejaVuSans-Oblique-97"/>
      <path d="M 59.625 54.6875 
L 50.296875 6.78125 
Q 47.609375 -7.125 40.015625 -13.953125 
Q 32.421875 -20.796875 19.578125 -20.796875 
Q 14.84375 -20.796875 10.78125 -20.09375 
Q 6.734375 -19.390625 3.21875 -17.921875 
L 4.890625 -9.1875 
Q 8.203125 -11.328125 11.90625 -12.34375 
Q 15.625 -13.375 19.828125 -13.375 
Q 28.375 -13.375 33.859375 -8.703125 
Q 39.359375 -4.046875 41.109375 4.6875 
L 41.890625 8.796875 
Q 38.140625 4.5 33.15625 2.25 
Q 28.171875 0 22.40625 0 
Q 14.109375 0 9.34375 5.484375 
Q 4.59375 10.984375 4.59375 20.609375 
Q 4.59375 28.171875 7.46875 35.421875 
Q 10.359375 42.671875 15.578125 48.296875 
Q 19.046875 52 23.65625 54 
Q 28.265625 56 33.296875 56 
Q 38.8125 56 42.90625 53.4375 
Q 47.015625 50.875 49.03125 46.1875 
L 50.59375 54.6875 
z
M 46.09375 34.625 
Q 46.09375 41.265625 42.96875 44.875 
Q 39.84375 48.484375 34.078125 48.484375 
Q 30.515625 48.484375 27.296875 47.0625 
Q 24.078125 45.65625 21.78125 43.109375 
Q 18.0625 38.921875 15.984375 33.234375 
Q 13.921875 27.546875 13.921875 21.484375 
Q 13.921875 14.75 17.0625 11.125 
Q 20.21875 7.515625 26.125 7.515625 
Q 34.671875 7.515625 40.375 15.25 
Q 46.09375 23 46.09375 34.625 
z
" id="DejaVuSans-Oblique-103"/>
      <path d="M 89.796875 33.015625 
L 83.40625 0 
L 74.421875 0 
L 80.71875 32.71875 
Q 81.109375 34.8125 81.296875 36.328125 
Q 81.5 37.84375 81.5 38.921875 
Q 81.5 43.3125 79.046875 45.75 
Q 76.609375 48.1875 72.21875 48.1875 
Q 65.671875 48.1875 60.546875 43.28125 
Q 55.421875 38.375 53.90625 30.515625 
L 47.90625 0 
L 38.921875 0 
L 45.3125 32.71875 
Q 45.703125 34.515625 45.890625 36.046875 
Q 46.09375 37.59375 46.09375 38.8125 
Q 46.09375 43.265625 43.65625 45.71875 
Q 41.21875 48.1875 36.921875 48.1875 
Q 30.28125 48.1875 25.140625 43.28125 
Q 20.015625 38.375 18.5 30.515625 
L 12.5 0 
L 3.515625 0 
L 14.203125 54.6875 
L 23.1875 54.6875 
L 21.484375 46.1875 
Q 25.140625 50.984375 30.046875 53.484375 
Q 34.96875 56 40.578125 56 
Q 46.53125 56 50.359375 52.875 
Q 54.203125 49.75 54.984375 44.1875 
Q 59.078125 49.953125 64.46875 52.96875 
Q 69.875 56 75.875 56 
Q 82.90625 56 86.734375 51.953125 
Q 90.578125 47.90625 90.578125 40.484375 
Q 90.578125 38.875 90.375 36.9375 
Q 90.1875 35.015625 89.796875 33.015625 
z
" id="DejaVuSans-Oblique-109"/>
      <path d="M 9.078125 75.984375 
L 18.109375 75.984375 
L 18.109375 31.109375 
L 44.921875 54.6875 
L 56.390625 54.6875 
L 27.390625 29.109375 
L 57.625 0 
L 45.90625 0 
L 18.109375 26.703125 
L 18.109375 0 
L 9.078125 0 
z
" id="DejaVuSans-107"/>
     </defs>
     <use transform="translate(0 0.015625)" xlink:href="#DejaVuSans-65"/>
     <use transform="translate(68.408203 0.015625)" xlink:href="#DejaVuSans-32"/>
     <use transform="translate(100.195312 0.015625)" xlink:href="#DejaVuSans-112"/>
     <use transform="translate(163.671875 0.015625)" xlink:href="#DejaVuSans-108"/>
     <use transform="translate(191.455078 0.015625)" xlink:href="#DejaVuSans-111"/>
     <use transform="translate(252.636719 0.015625)" xlink:href="#DejaVuSans-116"/>
     <use transform="translate(291.845703 0.015625)" xlink:href="#DejaVuSans-32"/>
     <use transform="translate(323.632812 0.015625)" xlink:href="#DejaVuSans-102"/>
     <use transform="translate(358.837891 0.015625)" xlink:href="#DejaVuSans-114"/>
     <use transform="translate(399.951172 0.015625)" xlink:href="#DejaVuSans-111"/>
     <use transform="translate(461.132812 0.015625)" xlink:href="#DejaVuSans-109"/>
     <use transform="translate(558.544922 0.015625)" xlink:href="#DejaVuSans-32"/>
     <use transform="translate(590.332031 0.015625)" xlink:href="#DejaVuSans-116"/>
     <use transform="translate(629.541016 0.015625)" xlink:href="#DejaVuSans-104"/>
     <use transform="translate(692.919922 0.015625)" xlink:href="#DejaVuSans-101"/>
     <use transform="translate(754.443359 0.015625)" xlink:href="#DejaVuSans-32"/>
     <use transform="translate(786.230469 0.015625)" xlink:href="#DejaVuSans-Oblique-112"/>
     <use transform="translate(849.707031 0.015625)" xlink:href="#DejaVuSans-Oblique-121"/>
     <use transform="translate(908.886719 0.015625)" xlink:href="#DejaVuSans-Oblique-112"/>
     <use transform="translate(972.363281 0.015625)" xlink:href="#DejaVuSans-Oblique-111"/>
     <use transform="translate(1033.544922 0.015625)" xlink:href="#DejaVuSans-Oblique-108"/>
     <use transform="translate(1061.328125 0.015625)" xlink:href="#DejaVuSans-Oblique-121"/>
     <use transform="translate(1120.507812 0.015625)" xlink:href="#DejaVuSans-Oblique-97"/>
     <use transform="translate(1181.787109 0.015625)" xlink:href="#DejaVuSans-Oblique-103"/>
     <use transform="translate(1245.263672 0.015625)" xlink:href="#DejaVuSans-Oblique-97"/>
     <use transform="translate(1306.542969 0.015625)" xlink:href="#DejaVuSans-Oblique-109"/>
     <use transform="translate(1403.955078 0.015625)" xlink:href="#DejaVuSans-Oblique-109"/>
     <use transform="translate(1501.367188 0.015625)" xlink:href="#DejaVuSans-Oblique-97"/>
     <use transform="translate(1562.646484 0.015625)" xlink:href="#DejaVuSans-32"/>
     <use transform="translate(1594.433594 0.015625)" xlink:href="#DejaVuSans-112"/>
     <use transform="translate(1657.910156 0.015625)" xlink:href="#DejaVuSans-97"/>
     <use transform="translate(1719.189453 0.015625)" xlink:href="#DejaVuSans-99"/>
     <use transform="translate(1774.169922 0.015625)" xlink:href="#DejaVuSans-107"/>
     <use transform="translate(1832.080078 0.015625)" xlink:href="#DejaVuSans-97"/>
     <use transform="translate(1893.359375 0.015625)" xlink:href="#DejaVuSans-103"/>
     <use transform="translate(1956.835938 0.015625)" xlink:href="#DejaVuSans-101"/>
     <use transform="translate(2018.359375 0.015625)" xlink:href="#DejaVuSans-32"/>
     <use transform="translate(2050.146484 0.015625)" xlink:href="#DejaVuSans-105"/>
     <use transform="translate(2077.929688 0.015625)" xlink:href="#DejaVuSans-115"/>
     <use transform="translate(2130.029297 0.015625)" xlink:href="#DejaVuSans-32"/>
     <use transform="translate(2161.816406 0.015625)" xlink:href="#DejaVuSans-117"/>
     <use transform="translate(2225.195312 0.015625)" xlink:href="#DejaVuSans-115"/>
     <use transform="translate(2277.294922 0.015625)" xlink:href="#DejaVuSans-101"/>
     <use transform="translate(2338.818359 0.015625)" xlink:href="#DejaVuSans-100"/>
     <use transform="translate(2402.294922 0.015625)" xlink:href="#DejaVuSans-32"/>
     <use transform="translate(2434.082031 0.015625)" xlink:href="#DejaVuSans-97"/>
     <use transform="translate(2495.361328 0.015625)" xlink:href="#DejaVuSans-115"/>
     <use transform="translate(2547.460938 0.015625)" xlink:href="#DejaVuSans-32"/>
     <use transform="translate(2579.248047 0.015625)" xlink:href="#DejaVuSans-97"/>
     <use transform="translate(2640.527344 0.015625)" xlink:href="#DejaVuSans-32"/>
     <use transform="translate(2672.314453 0.015625)" xlink:href="#DejaVuSans-114"/>
     <use transform="translate(2713.427734 0.015625)" xlink:href="#DejaVuSans-101"/>
     <use transform="translate(2774.951172 0.015625)" xlink:href="#DejaVuSans-102"/>
     <use transform="translate(2810.15625 0.015625)" xlink:href="#DejaVuSans-101"/>
     <use transform="translate(2871.679688 0.015625)" xlink:href="#DejaVuSans-114"/>
     <use transform="translate(2912.792969 0.015625)" xlink:href="#DejaVuSans-101"/>
     <use transform="translate(2974.316406 0.015625)" xlink:href="#DejaVuSans-110"/>
     <use transform="translate(3037.695312 0.015625)" xlink:href="#DejaVuSans-99"/>
     <use transform="translate(3092.675781 0.015625)" xlink:href="#DejaVuSans-101"/>
     <use transform="translate(3154.199219 0.015625)" xlink:href="#DejaVuSans-46"/>
    </g>
   </g>
   <g id="legend_1">
    <g id="patch_7">
     <path d="M 298.02 122.8845 
L 407.72 122.8845 
Q 409.72 122.8845 409.72 120.8845 
L 409.72 48.472 
Q 409.72 46.472 407.72 46.472 
L 298.02 46.472 
Q 296.02 46.472 296.02 48.472 
L 296.02 120.8845 
Q 296.02 122.8845 298.02 122.8845 
z
" style="fill:#eaeaf2;opacity:0.8;stroke:#cccccc;stroke-linejoin:miter;"/>
    </g>
    <g id="line2d_38">
     <path d="M 300.02 54.570438 
L 320.02 54.570438 
" style="fill:none;stroke:#1f77b4;stroke-linecap:round;stroke-width:1.5;"/>
    </g>
    <g id="line2d_39"/>
    <g id="text_15">
     <!-- devroye -->
     <g style="fill:#262626;" transform="translate(328.02 58.070438)scale(0.1 -0.1)">
      <defs>
       <path d="M 2.984375 54.6875 
L 12.5 54.6875 
L 29.59375 8.796875 
L 46.6875 54.6875 
L 56.203125 54.6875 
L 35.6875 0 
L 23.484375 0 
z
" id="DejaVuSans-118"/>
      </defs>
      <use xlink:href="#DejaVuSans-100"/>
      <use x="63.476562" xlink:href="#DejaVuSans-101"/>
      <use x="125" xlink:href="#DejaVuSans-118"/>
      <use x="184.179688" xlink:href="#DejaVuSans-114"/>
      <use x="223.042969" xlink:href="#DejaVuSans-111"/>
      <use x="284.224609" xlink:href="#DejaVuSans-121"/>
      <use x="343.404297" xlink:href="#DejaVuSans-101"/>
     </g>
    </g>
    <g id="line2d_40">
     <path d="M 300.02 69.248563 
L 320.02 69.248563 
" style="fill:none;stroke:#ff7f0e;stroke-linecap:round;stroke-width:1.5;"/>
    </g>
    <g id="line2d_41"/>
    <g id="text_16">
     <!-- alternate -->
     <g style="fill:#262626;" transform="translate(328.02 72.748563)scale(0.1 -0.1)">
      <use xlink:href="#DejaVuSans-97"/>
      <use x="61.279297" xlink:href="#DejaVuSans-108"/>
      <use x="89.0625" xlink:href="#DejaVuSans-116"/>
      <use x="128.271484" xlink:href="#DejaVuSans-101"/>
      <use x="189.794922" xlink:href="#DejaVuSans-114"/>
      <use x="229.158203" xlink:href="#DejaVuSans-110"/>
      <use x="292.537109" xlink:href="#DejaVuSans-97"/>
      <use x="353.816406" xlink:href="#DejaVuSans-116"/>
      <use x="393.025391" xlink:href="#DejaVuSans-101"/>
     </g>
    </g>
    <g id="line2d_42">
     <path d="M 300.02 83.926688 
L 320.02 83.926688 
" style="fill:none;stroke:#2ca02c;stroke-linecap:round;stroke-width:1.5;"/>
    </g>
    <g id="line2d_43"/>
    <g id="text_17">
     <!-- gamma -->
     <g style="fill:#262626;" transform="translate(328.02 87.426688)scale(0.1 -0.1)">
      <use xlink:href="#DejaVuSans-103"/>
      <use x="63.476562" xlink:href="#DejaVuSans-97"/>
      <use x="124.755859" xlink:href="#DejaVuSans-109"/>
      <use x="222.167969" xlink:href="#DejaVuSans-109"/>
      <use x="319.580078" xlink:href="#DejaVuSans-97"/>
     </g>
    </g>
    <g id="line2d_44">
     <path d="M 300.02 98.604813 
L 320.02 98.604813 
" style="fill:none;stroke:#d62728;stroke-linecap:round;stroke-width:1.5;"/>
    </g>
    <g id="line2d_45"/>
    <g id="text_18">
     <!-- saddle -->
     <g style="fill:#262626;" transform="translate(328.02 102.104813)scale(0.1 -0.1)">
      <use xlink:href="#DejaVuSans-115"/>
      <use x="52.099609" xlink:href="#DejaVuSans-97"/>
      <use x="113.378906" xlink:href="#DejaVuSans-100"/>
      <use x="176.855469" xlink:href="#DejaVuSans-100"/>
      <use x="240.332031" xlink:href="#DejaVuSans-108"/>
      <use x="268.115234" xlink:href="#DejaVuSans-101"/>
     </g>
    </g>
    <g id="line2d_46">
     <path d="M 300.02 113.2845 
L 320.02 113.2845 
" style="fill:none;stroke:#9467bd;stroke-linecap:round;stroke-width:1.5;"/>
    </g>
    <g id="line2d_47"/>
    <g id="text_19">
     <!-- $pypolyagamma$ -->
     <g style="fill:#262626;" transform="translate(328.02 116.7845)scale(0.1 -0.1)">
      <use transform="translate(0 0.015625)" xlink:href="#DejaVuSans-Oblique-112"/>
      <use transform="translate(63.476562 0.015625)" xlink:href="#DejaVuSans-Oblique-121"/>
      <use transform="translate(122.65625 0.015625)" xlink:href="#DejaVuSans-Oblique-112"/>
      <use transform="translate(186.132812 0.015625)" xlink:href="#DejaVuSans-Oblique-111"/>
      <use transform="translate(247.314453 0.015625)" xlink:href="#DejaVuSans-Oblique-108"/>
      <use transform="translate(275.097656 0.015625)" xlink:href="#DejaVuSans-Oblique-121"/>
      <use transform="translate(334.277344 0.015625)" xlink:href="#DejaVuSans-Oblique-97"/>
      <use transform="translate(395.556641 0.015625)" xlink:href="#DejaVuSans-Oblique-103"/>
      <use transform="translate(459.033203 0.015625)" xlink:href="#DejaVuSans-Oblique-97"/>
      <use transform="translate(520.3125 0.015625)" xlink:href="#DejaVuSans-Oblique-109"/>
      <use transform="translate(617.724609 0.015625)" xlink:href="#DejaVuSans-Oblique-109"/>
      <use transform="translate(715.136719 0.015625)" xlink:href="#DejaVuSans-Oblique-97"/>
     </g>
    </g>
   </g>
  </g>
 </g>
 <defs>
  <clipPath id="p2448da2902">
   <rect height="266.112" width="357.12" x="57.6" y="41.472"/>
  </clipPath>
 </defs>
</svg>
