<?xml version="1.0" encoding="utf-8" standalone="no"?>
<!DOCTYPE svg PUBLIC "-//W3C//DTD SVG 1.1//EN"
  "http://www.w3.org/Graphics/SVG/1.1/DTD/svg11.dtd">
<!-- Created with matplotlib (https://matplotlib.org/) -->
<svg height="345.6pt" version="1.1" viewBox="0 0 460.8 345.6" width="460.8pt" xmlns="http://www.w3.org/2000/svg" xmlns:xlink="http://www.w3.org/1999/xlink">
 <metadata>
  <rdf:RDF xmlns:cc="http://creativecommons.org/ns#" xmlns:dc="http://purl.org/dc/elements/1.1/" xmlns:rdf="http://www.w3.org/1999/02/22-rdf-syntax-ns#">
   <cc:Work>
    <dc:type rdf:resource="http://purl.org/dc/dcmitype/StillImage"/>
    <dc:date>2021-01-22T19:38:46.260112</dc:date>
    <dc:format>image/svg+xml</dc:format>
    <dc:creator>
     <cc:Agent>
      <dc:title>Matplotlib v3.3.3, https://matplotlib.org/</dc:title>
     </cc:Agent>
    </dc:creator>
   </cc:Work>
  </rdf:RDF>
 </metadata>
 <defs>
  <style type="text/css">*{stroke-linecap:butt;stroke-linejoin:round;}</style>
 </defs>
 <g id="figure_1">
  <g id="patch_1">
   <path d="M 0 345.6 
L 460.8 345.6 
L 460.8 0 
L 0 0 
z
" style="fill:#ffffff;"/>
  </g>
  <g id="axes_1">
   <g id="patch_2">
    <path d="M 57.6 307.584 
L 414.72 307.584 
L 414.72 41.472 
L 57.6 41.472 
z
" style="fill:#eaeaf2;"/>
   </g>
   <g id="matplotlib.axis_1">
    <g id="xtick_1">
     <g id="line2d_1">
      <path clip-path="url(#pd0958aa75c)" d="M 79.689373 307.584 
L 79.689373 41.472 
" style="fill:none;stroke:#ffffff;stroke-linecap:round;stroke-width:0.8;"/>
     </g>
     <g id="text_1">
      <!-- 0 -->
      <g style="fill:#262626;" transform="translate(76.508123 322.182437)scale(0.1 -0.1)">
       <defs>
        <path d="M 31.78125 66.40625 
Q 24.171875 66.40625 20.328125 58.90625 
Q 16.5 51.421875 16.5 36.375 
Q 16.5 21.390625 20.328125 13.890625 
Q 24.171875 6.390625 31.78125 6.390625 
Q 39.453125 6.390625 43.28125 13.890625 
Q 47.125 21.390625 47.125 36.375 
Q 47.125 51.421875 43.28125 58.90625 
Q 39.453125 66.40625 31.78125 66.40625 
z
M 31.78125 74.21875 
Q 44.046875 74.21875 50.515625 64.515625 
Q 56.984375 54.828125 56.984375 36.375 
Q 56.984375 17.96875 50.515625 8.265625 
Q 44.046875 -1.421875 31.78125 -1.421875 
Q 19.53125 -1.421875 13.0625 8.265625 
Q 6.59375 17.96875 6.59375 36.375 
Q 6.59375 54.828125 13.0625 64.515625 
Q 19.53125 74.21875 31.78125 74.21875 
z
" id="DejaVuSans-48"/>
       </defs>
       <use xlink:href="#DejaVuSans-48"/>
      </g>
     </g>
    </g>
    <g id="xtick_2">
     <g id="line2d_2">
      <path clip-path="url(#pd0958aa75c)" d="M 120.329864 307.584 
L 120.329864 41.472 
" style="fill:none;stroke:#ffffff;stroke-linecap:round;stroke-width:0.8;"/>
     </g>
     <g id="text_2">
      <!-- 1 -->
      <g style="fill:#262626;" transform="translate(117.148614 322.182437)scale(0.1 -0.1)">
       <defs>
        <path d="M 12.40625 8.296875 
L 28.515625 8.296875 
L 28.515625 63.921875 
L 10.984375 60.40625 
L 10.984375 69.390625 
L 28.421875 72.90625 
L 38.28125 72.90625 
L 38.28125 8.296875 
L 54.390625 8.296875 
L 54.390625 0 
L 12.40625 0 
z
" id="DejaVuSans-49"/>
       </defs>
       <use xlink:href="#DejaVuSans-49"/>
      </g>
     </g>
    </g>
    <g id="xtick_3">
     <g id="line2d_3">
      <path clip-path="url(#pd0958aa75c)" d="M 160.970356 307.584 
L 160.970356 41.472 
" style="fill:none;stroke:#ffffff;stroke-linecap:round;stroke-width:0.8;"/>
     </g>
     <g id="text_3">
      <!-- 2 -->
      <g style="fill:#262626;" transform="translate(157.789106 322.182437)scale(0.1 -0.1)">
       <defs>
        <path d="M 19.1875 8.296875 
L 53.609375 8.296875 
L 53.609375 0 
L 7.328125 0 
L 7.328125 8.296875 
Q 12.9375 14.109375 22.625 23.890625 
Q 32.328125 33.6875 34.8125 36.53125 
Q 39.546875 41.84375 41.421875 45.53125 
Q 43.3125 49.21875 43.3125 52.78125 
Q 43.3125 58.59375 39.234375 62.25 
Q 35.15625 65.921875 28.609375 65.921875 
Q 23.96875 65.921875 18.8125 64.3125 
Q 13.671875 62.703125 7.8125 59.421875 
L 7.8125 69.390625 
Q 13.765625 71.78125 18.9375 73 
Q 24.125 74.21875 28.421875 74.21875 
Q 39.75 74.21875 46.484375 68.546875 
Q 53.21875 62.890625 53.21875 53.421875 
Q 53.21875 48.921875 51.53125 44.890625 
Q 49.859375 40.875 45.40625 35.40625 
Q 44.1875 33.984375 37.640625 27.21875 
Q 31.109375 20.453125 19.1875 8.296875 
z
" id="DejaVuSans-50"/>
       </defs>
       <use xlink:href="#DejaVuSans-50"/>
      </g>
     </g>
    </g>
    <g id="xtick_4">
     <g id="line2d_4">
      <path clip-path="url(#pd0958aa75c)" d="M 201.610847 307.584 
L 201.610847 41.472 
" style="fill:none;stroke:#ffffff;stroke-linecap:round;stroke-width:0.8;"/>
     </g>
     <g id="text_4">
      <!-- 3 -->
      <g style="fill:#262626;" transform="translate(198.429597 322.182437)scale(0.1 -0.1)">
       <defs>
        <path d="M 40.578125 39.3125 
Q 47.65625 37.796875 51.625 33 
Q 55.609375 28.21875 55.609375 21.1875 
Q 55.609375 10.40625 48.1875 4.484375 
Q 40.765625 -1.421875 27.09375 -1.421875 
Q 22.515625 -1.421875 17.65625 -0.515625 
Q 12.796875 0.390625 7.625 2.203125 
L 7.625 11.71875 
Q 11.71875 9.328125 16.59375 8.109375 
Q 21.484375 6.890625 26.8125 6.890625 
Q 36.078125 6.890625 40.9375 10.546875 
Q 45.796875 14.203125 45.796875 21.1875 
Q 45.796875 27.640625 41.28125 31.265625 
Q 36.765625 34.90625 28.71875 34.90625 
L 20.21875 34.90625 
L 20.21875 43.015625 
L 29.109375 43.015625 
Q 36.375 43.015625 40.234375 45.921875 
Q 44.09375 48.828125 44.09375 54.296875 
Q 44.09375 59.90625 40.109375 62.90625 
Q 36.140625 65.921875 28.71875 65.921875 
Q 24.65625 65.921875 20.015625 65.03125 
Q 15.375 64.15625 9.8125 62.3125 
L 9.8125 71.09375 
Q 15.4375 72.65625 20.34375 73.4375 
Q 25.25 74.21875 29.59375 74.21875 
Q 40.828125 74.21875 47.359375 69.109375 
Q 53.90625 64.015625 53.90625 55.328125 
Q 53.90625 49.265625 50.4375 45.09375 
Q 46.96875 40.921875 40.578125 39.3125 
z
" id="DejaVuSans-51"/>
       </defs>
       <use xlink:href="#DejaVuSans-51"/>
      </g>
     </g>
    </g>
    <g id="xtick_5">
     <g id="line2d_5">
      <path clip-path="url(#pd0958aa75c)" d="M 242.251339 307.584 
L 242.251339 41.472 
" style="fill:none;stroke:#ffffff;stroke-linecap:round;stroke-width:0.8;"/>
     </g>
     <g id="text_5">
      <!-- 4 -->
      <g style="fill:#262626;" transform="translate(239.070089 322.182437)scale(0.1 -0.1)">
       <defs>
        <path d="M 37.796875 64.3125 
L 12.890625 25.390625 
L 37.796875 25.390625 
z
M 35.203125 72.90625 
L 47.609375 72.90625 
L 47.609375 25.390625 
L 58.015625 25.390625 
L 58.015625 17.1875 
L 47.609375 17.1875 
L 47.609375 0 
L 37.796875 0 
L 37.796875 17.1875 
L 4.890625 17.1875 
L 4.890625 26.703125 
z
" id="DejaVuSans-52"/>
       </defs>
       <use xlink:href="#DejaVuSans-52"/>
      </g>
     </g>
    </g>
    <g id="xtick_6">
     <g id="line2d_6">
      <path clip-path="url(#pd0958aa75c)" d="M 282.89183 307.584 
L 282.89183 41.472 
" style="fill:none;stroke:#ffffff;stroke-linecap:round;stroke-width:0.8;"/>
     </g>
     <g id="text_6">
      <!-- 5 -->
      <g style="fill:#262626;" transform="translate(279.71058 322.182437)scale(0.1 -0.1)">
       <defs>
        <path d="M 10.796875 72.90625 
L 49.515625 72.90625 
L 49.515625 64.59375 
L 19.828125 64.59375 
L 19.828125 46.734375 
Q 21.96875 47.46875 24.109375 47.828125 
Q 26.265625 48.1875 28.421875 48.1875 
Q 40.625 48.1875 47.75 41.5 
Q 54.890625 34.8125 54.890625 23.390625 
Q 54.890625 11.625 47.5625 5.09375 
Q 40.234375 -1.421875 26.90625 -1.421875 
Q 22.3125 -1.421875 17.546875 -0.640625 
Q 12.796875 0.140625 7.71875 1.703125 
L 7.71875 11.625 
Q 12.109375 9.234375 16.796875 8.0625 
Q 21.484375 6.890625 26.703125 6.890625 
Q 35.15625 6.890625 40.078125 11.328125 
Q 45.015625 15.765625 45.015625 23.390625 
Q 45.015625 31 40.078125 35.4375 
Q 35.15625 39.890625 26.703125 39.890625 
Q 22.75 39.890625 18.8125 39.015625 
Q 14.890625 38.140625 10.796875 36.28125 
z
" id="DejaVuSans-53"/>
       </defs>
       <use xlink:href="#DejaVuSans-53"/>
      </g>
     </g>
    </g>
    <g id="xtick_7">
     <g id="line2d_7">
      <path clip-path="url(#pd0958aa75c)" d="M 323.532322 307.584 
L 323.532322 41.472 
" style="fill:none;stroke:#ffffff;stroke-linecap:round;stroke-width:0.8;"/>
     </g>
     <g id="text_7">
      <!-- 6 -->
      <g style="fill:#262626;" transform="translate(320.351072 322.182437)scale(0.1 -0.1)">
       <defs>
        <path d="M 33.015625 40.375 
Q 26.375 40.375 22.484375 35.828125 
Q 18.609375 31.296875 18.609375 23.390625 
Q 18.609375 15.53125 22.484375 10.953125 
Q 26.375 6.390625 33.015625 6.390625 
Q 39.65625 6.390625 43.53125 10.953125 
Q 47.40625 15.53125 47.40625 23.390625 
Q 47.40625 31.296875 43.53125 35.828125 
Q 39.65625 40.375 33.015625 40.375 
z
M 52.59375 71.296875 
L 52.59375 62.3125 
Q 48.875 64.0625 45.09375 64.984375 
Q 41.3125 65.921875 37.59375 65.921875 
Q 27.828125 65.921875 22.671875 59.328125 
Q 17.53125 52.734375 16.796875 39.40625 
Q 19.671875 43.65625 24.015625 45.921875 
Q 28.375 48.1875 33.59375 48.1875 
Q 44.578125 48.1875 50.953125 41.515625 
Q 57.328125 34.859375 57.328125 23.390625 
Q 57.328125 12.15625 50.6875 5.359375 
Q 44.046875 -1.421875 33.015625 -1.421875 
Q 20.359375 -1.421875 13.671875 8.265625 
Q 6.984375 17.96875 6.984375 36.375 
Q 6.984375 53.65625 15.1875 63.9375 
Q 23.390625 74.21875 37.203125 74.21875 
Q 40.921875 74.21875 44.703125 73.484375 
Q 48.484375 72.75 52.59375 71.296875 
z
" id="DejaVuSans-54"/>
       </defs>
       <use xlink:href="#DejaVuSans-54"/>
      </g>
     </g>
    </g>
    <g id="xtick_8">
     <g id="line2d_8">
      <path clip-path="url(#pd0958aa75c)" d="M 364.172813 307.584 
L 364.172813 41.472 
" style="fill:none;stroke:#ffffff;stroke-linecap:round;stroke-width:0.8;"/>
     </g>
     <g id="text_8">
      <!-- 7 -->
      <g style="fill:#262626;" transform="translate(360.991563 322.182437)scale(0.1 -0.1)">
       <defs>
        <path d="M 8.203125 72.90625 
L 55.078125 72.90625 
L 55.078125 68.703125 
L 28.609375 0 
L 18.3125 0 
L 43.21875 64.59375 
L 8.203125 64.59375 
z
" id="DejaVuSans-55"/>
       </defs>
       <use xlink:href="#DejaVuSans-55"/>
      </g>
     </g>
    </g>
    <g id="xtick_9">
     <g id="line2d_9">
      <path clip-path="url(#pd0958aa75c)" d="M 404.813305 307.584 
L 404.813305 41.472 
" style="fill:none;stroke:#ffffff;stroke-linecap:round;stroke-width:0.8;"/>
     </g>
     <g id="text_9">
      <!-- 8 -->
      <g style="fill:#262626;" transform="translate(401.632055 322.182437)scale(0.1 -0.1)">
       <defs>
        <path d="M 31.78125 34.625 
Q 24.75 34.625 20.71875 30.859375 
Q 16.703125 27.09375 16.703125 20.515625 
Q 16.703125 13.921875 20.71875 10.15625 
Q 24.75 6.390625 31.78125 6.390625 
Q 38.8125 6.390625 42.859375 10.171875 
Q 46.921875 13.96875 46.921875 20.515625 
Q 46.921875 27.09375 42.890625 30.859375 
Q 38.875 34.625 31.78125 34.625 
z
M 21.921875 38.8125 
Q 15.578125 40.375 12.03125 44.71875 
Q 8.5 49.078125 8.5 55.328125 
Q 8.5 64.0625 14.71875 69.140625 
Q 20.953125 74.21875 31.78125 74.21875 
Q 42.671875 74.21875 48.875 69.140625 
Q 55.078125 64.0625 55.078125 55.328125 
Q 55.078125 49.078125 51.53125 44.71875 
Q 48 40.375 41.703125 38.8125 
Q 48.828125 37.15625 52.796875 32.3125 
Q 56.78125 27.484375 56.78125 20.515625 
Q 56.78125 9.90625 50.3125 4.234375 
Q 43.84375 -1.421875 31.78125 -1.421875 
Q 19.734375 -1.421875 13.25 4.234375 
Q 6.78125 9.90625 6.78125 20.515625 
Q 6.78125 27.484375 10.78125 32.3125 
Q 14.796875 37.15625 21.921875 38.8125 
z
M 18.3125 54.390625 
Q 18.3125 48.734375 21.84375 45.5625 
Q 25.390625 42.390625 31.78125 42.390625 
Q 38.140625 42.390625 41.71875 45.5625 
Q 45.3125 48.734375 45.3125 54.390625 
Q 45.3125 60.0625 41.71875 63.234375 
Q 38.140625 66.40625 31.78125 66.40625 
Q 25.390625 66.40625 21.84375 63.234375 
Q 18.3125 60.0625 18.3125 54.390625 
z
" id="DejaVuSans-56"/>
       </defs>
       <use xlink:href="#DejaVuSans-56"/>
      </g>
     </g>
    </g>
   </g>
   <g id="matplotlib.axis_2">
    <g id="ytick_1">
     <g id="line2d_10">
      <path clip-path="url(#pd0958aa75c)" d="M 57.6 307.584 
L 414.72 307.584 
" style="fill:none;stroke:#ffffff;stroke-linecap:round;stroke-width:0.8;"/>
     </g>
     <g id="text_10">
      <!-- 0.0 -->
      <g style="fill:#262626;" transform="translate(34.696875 311.383219)scale(0.1 -0.1)">
       <defs>
        <path d="M 10.6875 12.40625 
L 21 12.40625 
L 21 0 
L 10.6875 0 
z
" id="DejaVuSans-46"/>
       </defs>
       <use xlink:href="#DejaVuSans-48"/>
       <use x="63.623047" xlink:href="#DejaVuSans-46"/>
       <use x="95.410156" xlink:href="#DejaVuSans-48"/>
      </g>
     </g>
    </g>
    <g id="ytick_2">
     <g id="line2d_11">
      <path clip-path="url(#pd0958aa75c)" d="M 57.6 275.407425 
L 414.72 275.407425 
" style="fill:none;stroke:#ffffff;stroke-linecap:round;stroke-width:0.8;"/>
     </g>
     <g id="text_11">
      <!-- 0.1 -->
      <g style="fill:#262626;" transform="translate(34.696875 279.206643)scale(0.1 -0.1)">
       <use xlink:href="#DejaVuSans-48"/>
       <use x="63.623047" xlink:href="#DejaVuSans-46"/>
       <use x="95.410156" xlink:href="#DejaVuSans-49"/>
      </g>
     </g>
    </g>
    <g id="ytick_3">
     <g id="line2d_12">
      <path clip-path="url(#pd0958aa75c)" d="M 57.6 243.230849 
L 414.72 243.230849 
" style="fill:none;stroke:#ffffff;stroke-linecap:round;stroke-width:0.8;"/>
     </g>
     <g id="text_12">
      <!-- 0.2 -->
      <g style="fill:#262626;" transform="translate(34.696875 247.030068)scale(0.1 -0.1)">
       <use xlink:href="#DejaVuSans-48"/>
       <use x="63.623047" xlink:href="#DejaVuSans-46"/>
       <use x="95.410156" xlink:href="#DejaVuSans-50"/>
      </g>
     </g>
    </g>
    <g id="ytick_4">
     <g id="line2d_13">
      <path clip-path="url(#pd0958aa75c)" d="M 57.6 211.054274 
L 414.72 211.054274 
" style="fill:none;stroke:#ffffff;stroke-linecap:round;stroke-width:0.8;"/>
     </g>
     <g id="text_13">
      <!-- 0.3 -->
      <g style="fill:#262626;" transform="translate(34.696875 214.853492)scale(0.1 -0.1)">
       <use xlink:href="#DejaVuSans-48"/>
       <use x="63.623047" xlink:href="#DejaVuSans-46"/>
       <use x="95.410156" xlink:href="#DejaVuSans-51"/>
      </g>
     </g>
    </g>
    <g id="ytick_5">
     <g id="line2d_14">
      <path clip-path="url(#pd0958aa75c)" d="M 57.6 178.877698 
L 414.72 178.877698 
" style="fill:none;stroke:#ffffff;stroke-linecap:round;stroke-width:0.8;"/>
     </g>
     <g id="text_14">
      <!-- 0.4 -->
      <g style="fill:#262626;" transform="translate(34.696875 182.676917)scale(0.1 -0.1)">
       <use xlink:href="#DejaVuSans-48"/>
       <use x="63.623047" xlink:href="#DejaVuSans-46"/>
       <use x="95.410156" xlink:href="#DejaVuSans-52"/>
      </g>
     </g>
    </g>
    <g id="ytick_6">
     <g id="line2d_15">
      <path clip-path="url(#pd0958aa75c)" d="M 57.6 146.701123 
L 414.72 146.701123 
" style="fill:none;stroke:#ffffff;stroke-linecap:round;stroke-width:0.8;"/>
     </g>
     <g id="text_15">
      <!-- 0.5 -->
      <g style="fill:#262626;" transform="translate(34.696875 150.500341)scale(0.1 -0.1)">
       <use xlink:href="#DejaVuSans-48"/>
       <use x="63.623047" xlink:href="#DejaVuSans-46"/>
       <use x="95.410156" xlink:href="#DejaVuSans-53"/>
      </g>
     </g>
    </g>
    <g id="ytick_7">
     <g id="line2d_16">
      <path clip-path="url(#pd0958aa75c)" d="M 57.6 114.524547 
L 414.72 114.524547 
" style="fill:none;stroke:#ffffff;stroke-linecap:round;stroke-width:0.8;"/>
     </g>
     <g id="text_16">
      <!-- 0.6 -->
      <g style="fill:#262626;" transform="translate(34.696875 118.323766)scale(0.1 -0.1)">
       <use xlink:href="#DejaVuSans-48"/>
       <use x="63.623047" xlink:href="#DejaVuSans-46"/>
       <use x="95.410156" xlink:href="#DejaVuSans-54"/>
      </g>
     </g>
    </g>
    <g id="ytick_8">
     <g id="line2d_17">
      <path clip-path="url(#pd0958aa75c)" d="M 57.6 82.347972 
L 414.72 82.347972 
" style="fill:none;stroke:#ffffff;stroke-linecap:round;stroke-width:0.8;"/>
     </g>
     <g id="text_17">
      <!-- 0.7 -->
      <g style="fill:#262626;" transform="translate(34.696875 86.14719)scale(0.1 -0.1)">
       <use xlink:href="#DejaVuSans-48"/>
       <use x="63.623047" xlink:href="#DejaVuSans-46"/>
       <use x="95.410156" xlink:href="#DejaVuSans-55"/>
      </g>
     </g>
    </g>
    <g id="ytick_9">
     <g id="line2d_18">
      <path clip-path="url(#pd0958aa75c)" d="M 57.6 50.171396 
L 414.72 50.171396 
" style="fill:none;stroke:#ffffff;stroke-linecap:round;stroke-width:0.8;"/>
     </g>
     <g id="text_18">
      <!-- 0.8 -->
      <g style="fill:#262626;" transform="translate(34.696875 53.970615)scale(0.1 -0.1)">
       <use xlink:href="#DejaVuSans-48"/>
       <use x="63.623047" xlink:href="#DejaVuSans-46"/>
       <use x="95.410156" xlink:href="#DejaVuSans-56"/>
      </g>
     </g>
    </g>
    <g id="text_19">
     <!-- Density -->
     <g style="fill:#262626;" transform="translate(28.617187 193.536594)rotate(-90)scale(0.1 -0.1)">
      <defs>
       <path d="M 19.671875 64.796875 
L 19.671875 8.109375 
L 31.59375 8.109375 
Q 46.6875 8.109375 53.6875 14.9375 
Q 60.6875 21.78125 60.6875 36.53125 
Q 60.6875 51.171875 53.6875 57.984375 
Q 46.6875 64.796875 31.59375 64.796875 
z
M 9.8125 72.90625 
L 30.078125 72.90625 
Q 51.265625 72.90625 61.171875 64.09375 
Q 71.09375 55.28125 71.09375 36.53125 
Q 71.09375 17.671875 61.125 8.828125 
Q 51.171875 0 30.078125 0 
L 9.8125 0 
z
" id="DejaVuSans-68"/>
       <path d="M 56.203125 29.59375 
L 56.203125 25.203125 
L 14.890625 25.203125 
Q 15.484375 15.921875 20.484375 11.0625 
Q 25.484375 6.203125 34.421875 6.203125 
Q 39.59375 6.203125 44.453125 7.46875 
Q 49.3125 8.734375 54.109375 11.28125 
L 54.109375 2.78125 
Q 49.265625 0.734375 44.1875 -0.34375 
Q 39.109375 -1.421875 33.890625 -1.421875 
Q 20.796875 -1.421875 13.15625 6.1875 
Q 5.515625 13.8125 5.515625 26.8125 
Q 5.515625 40.234375 12.765625 48.109375 
Q 20.015625 56 32.328125 56 
Q 43.359375 56 49.78125 48.890625 
Q 56.203125 41.796875 56.203125 29.59375 
z
M 47.21875 32.234375 
Q 47.125 39.59375 43.09375 43.984375 
Q 39.0625 48.390625 32.421875 48.390625 
Q 24.90625 48.390625 20.390625 44.140625 
Q 15.875 39.890625 15.1875 32.171875 
z
" id="DejaVuSans-101"/>
       <path d="M 54.890625 33.015625 
L 54.890625 0 
L 45.90625 0 
L 45.90625 32.71875 
Q 45.90625 40.484375 42.875 44.328125 
Q 39.84375 48.1875 33.796875 48.1875 
Q 26.515625 48.1875 22.3125 43.546875 
Q 18.109375 38.921875 18.109375 30.90625 
L 18.109375 0 
L 9.078125 0 
L 9.078125 54.6875 
L 18.109375 54.6875 
L 18.109375 46.1875 
Q 21.34375 51.125 25.703125 53.5625 
Q 30.078125 56 35.796875 56 
Q 45.21875 56 50.046875 50.171875 
Q 54.890625 44.34375 54.890625 33.015625 
z
" id="DejaVuSans-110"/>
       <path d="M 44.28125 53.078125 
L 44.28125 44.578125 
Q 40.484375 46.53125 36.375 47.5 
Q 32.28125 48.484375 27.875 48.484375 
Q 21.1875 48.484375 17.84375 46.4375 
Q 14.5 44.390625 14.5 40.28125 
Q 14.5 37.15625 16.890625 35.375 
Q 19.28125 33.59375 26.515625 31.984375 
L 29.59375 31.296875 
Q 39.15625 29.25 43.1875 25.515625 
Q 47.21875 21.78125 47.21875 15.09375 
Q 47.21875 7.46875 41.1875 3.015625 
Q 35.15625 -1.421875 24.609375 -1.421875 
Q 20.21875 -1.421875 15.453125 -0.5625 
Q 10.6875 0.296875 5.421875 2 
L 5.421875 11.28125 
Q 10.40625 8.6875 15.234375 7.390625 
Q 20.0625 6.109375 24.8125 6.109375 
Q 31.15625 6.109375 34.5625 8.28125 
Q 37.984375 10.453125 37.984375 14.40625 
Q 37.984375 18.0625 35.515625 20.015625 
Q 33.0625 21.96875 24.703125 23.78125 
L 21.578125 24.515625 
Q 13.234375 26.265625 9.515625 29.90625 
Q 5.8125 33.546875 5.8125 39.890625 
Q 5.8125 47.609375 11.28125 51.796875 
Q 16.75 56 26.8125 56 
Q 31.78125 56 36.171875 55.265625 
Q 40.578125 54.546875 44.28125 53.078125 
z
" id="DejaVuSans-115"/>
       <path d="M 9.421875 54.6875 
L 18.40625 54.6875 
L 18.40625 0 
L 9.421875 0 
z
M 9.421875 75.984375 
L 18.40625 75.984375 
L 18.40625 64.59375 
L 9.421875 64.59375 
z
" id="DejaVuSans-105"/>
       <path d="M 18.3125 70.21875 
L 18.3125 54.6875 
L 36.8125 54.6875 
L 36.8125 47.703125 
L 18.3125 47.703125 
L 18.3125 18.015625 
Q 18.3125 11.328125 20.140625 9.421875 
Q 21.96875 7.515625 27.59375 7.515625 
L 36.8125 7.515625 
L 36.8125 0 
L 27.59375 0 
Q 17.1875 0 13.234375 3.875 
Q 9.28125 7.765625 9.28125 18.015625 
L 9.28125 47.703125 
L 2.6875 47.703125 
L 2.6875 54.6875 
L 9.28125 54.6875 
L 9.28125 70.21875 
z
" id="DejaVuSans-116"/>
       <path d="M 32.171875 -5.078125 
Q 28.375 -14.84375 24.75 -17.8125 
Q 21.140625 -20.796875 15.09375 -20.796875 
L 7.90625 -20.796875 
L 7.90625 -13.28125 
L 13.1875 -13.28125 
Q 16.890625 -13.28125 18.9375 -11.515625 
Q 21 -9.765625 23.484375 -3.21875 
L 25.09375 0.875 
L 2.984375 54.6875 
L 12.5 54.6875 
L 29.59375 11.921875 
L 46.6875 54.6875 
L 56.203125 54.6875 
z
" id="DejaVuSans-121"/>
      </defs>
      <use xlink:href="#DejaVuSans-68"/>
      <use x="77.001953" xlink:href="#DejaVuSans-101"/>
      <use x="138.525391" xlink:href="#DejaVuSans-110"/>
      <use x="201.904297" xlink:href="#DejaVuSans-115"/>
      <use x="254.003906" xlink:href="#DejaVuSans-105"/>
      <use x="281.787109" xlink:href="#DejaVuSans-116"/>
      <use x="320.996094" xlink:href="#DejaVuSans-121"/>
     </g>
    </g>
   </g>
   <g id="line2d_19">
    <path clip-path="url(#pd0958aa75c)" d="M 75.486778 307.4044 
L 76.050384 307.056092 
L 76.332187 306.711648 
L 76.61399 306.177031 
L 76.895793 305.368681 
L 77.177596 304.177925 
L 77.741202 300.078869 
L 78.304809 292.496109 
L 78.868415 279.834293 
L 79.432021 260.743015 
L 79.995627 234.752109 
L 81.12284 167.519563 
L 82.250052 101.645394 
L 82.813658 77.883023 
L 83.377265 62.547375 
L 83.659068 57.974426 
L 83.940871 55.250641 
L 84.222674 54.144 
L 84.504477 54.397507 
L 84.78628 55.754252 
L 85.349886 60.867138 
L 86.195296 72.152866 
L 87.322508 91.084585 
L 89.29513 130.146779 
L 90.985948 161.026913 
L 94.367585 219.167214 
L 95.212995 229.110097 
L 96.058404 236.347769 
L 97.185616 243.526013 
L 98.876435 253.955421 
L 103.948891 287.742284 
L 104.7943 291.201082 
L 105.639709 293.6292 
L 107.894134 298.908649 
L 108.739544 300.403881 
L 109.30315 301.06126 
L 110.148559 301.630348 
L 111.275771 302.001658 
L 113.530196 302.598176 
L 114.375606 303.14543 
L 116.911833 305.227584 
L 118.039046 305.698549 
L 120.293471 306.320965 
L 122.547895 306.633552 
L 123.675108 306.572078 
L 126.211336 306.112956 
L 127.056745 306.366388 
L 129.592973 307.403387 
L 131.001988 307.558587 
L 131.565595 307.574355 
L 131.565595 307.574355 
" style="fill:none;stroke:#d62728;stroke-linecap:round;stroke-width:1.5;"/>
   </g>
   <g id="line2d_20">
    <path clip-path="url(#pd0958aa75c)" d="M 74.305342 307.45552 
L 75.040665 307.15994 
L 75.408326 306.845269 
L 75.775987 306.332271 
L 76.143649 305.520538 
L 76.51131 304.273874 
L 76.878971 302.415563 
L 77.246632 299.727119 
L 77.614293 295.952571 
L 77.981955 290.810218 
L 78.717277 275.29816 
L 79.4526 251.40159 
L 80.187922 218.894752 
L 82.761551 88.584906 
L 83.496873 67.742909 
L 83.864534 61.954966 
L 84.232196 59.127329 
L 84.599857 58.980734 
L 84.967518 61.145116 
L 85.335179 65.208945 
L 86.070502 77.431387 
L 87.173485 101.220347 
L 89.747114 158.904756 
L 90.850098 178.926174 
L 91.953081 194.229357 
L 93.056065 205.390106 
L 95.629694 228.263557 
L 98.203322 253.449774 
L 99.306306 262.453278 
L 100.40929 269.631242 
L 101.144612 272.952576 
L 101.879934 274.93867 
L 102.247596 275.492422 
L 102.982918 276.053423 
L 103.718241 276.481061 
L 104.085902 276.858716 
L 104.453563 277.428593 
L 105.188886 279.247433 
L 105.924208 281.896865 
L 108.497837 292.232792 
L 109.233159 294.15373 
L 109.968481 295.521408 
L 111.071465 296.983236 
L 112.909771 299.324408 
L 114.012755 300.704557 
L 114.748077 301.352527 
L 115.4834 301.666598 
L 116.218722 301.666292 
L 118.057028 301.354101 
L 118.792351 301.583138 
L 119.527673 302.099922 
L 122.101302 304.330166 
L 123.204286 304.846866 
L 125.042592 305.629246 
L 127.983882 307.163327 
L 129.086865 307.434167 
L 130.55751 307.559322 
L 134.601784 307.56053 
L 136.44009 307.402407 
L 137.910735 307.040587 
L 140.116702 306.414213 
L 141.219686 306.42011 
L 142.322669 306.68958 
L 144.528637 307.343081 
L 145.999282 307.528571 
L 147.469927 307.576176 
L 147.469927 307.576176 
" style="fill:none;stroke:#2ca02c;stroke-linecap:round;stroke-width:1.5;"/>
   </g>
   <g id="line2d_21">
    <path clip-path="url(#pd0958aa75c)" d="M 73.832727 307.426037 
L 74.319895 307.249718 
L 74.807062 306.907465 
L 75.29423 306.27407 
L 75.781397 305.156461 
L 76.268565 303.276272 
L 76.755732 300.260415 
L 77.2429 295.648213 
L 77.730067 288.923574 
L 78.217235 279.577235 
L 78.704402 267.196763 
L 79.678737 232.795239 
L 81.14024 163.971817 
L 82.114575 119.163292 
L 83.08891 86.708212 
L 83.576078 76.99272 
L 84.063245 71.811939 
L 84.550413 70.839942 
L 85.03758 73.488471 
L 85.524748 79.029977 
L 86.499083 95.843992 
L 90.396423 173.893936 
L 91.857925 195.721668 
L 92.83226 207.41295 
L 93.806595 216.789396 
L 94.78093 224.28027 
L 97.216768 241.841889 
L 98.67827 253.060041 
L 99.652606 258.975679 
L 100.626941 263.213561 
L 103.062778 271.921113 
L 105.985783 283.81427 
L 106.960118 286.802945 
L 110.857458 297.049799 
L 111.831793 298.982314 
L 112.318961 299.611944 
L 112.806128 300.011313 
L 113.293296 300.214995 
L 114.267631 300.276552 
L 115.241966 300.296192 
L 116.216301 300.542594 
L 119.139306 301.591488 
L 120.113641 301.956796 
L 121.087976 302.511661 
L 124.010981 304.426624 
L 125.472484 304.977473 
L 127.421154 305.435303 
L 131.318494 306.132327 
L 135.215834 307.404965 
L 137.164504 307.562574 
L 143.010514 307.584 
L 160.061377 307.484944 
L 162.497215 307.14527 
L 163.958717 306.992333 
L 165.42022 307.072876 
L 169.31756 307.54479 
L 170.779063 307.577384 
L 170.779063 307.577384 
" style="fill:none;stroke:#ff7f0e;stroke-linecap:round;stroke-width:1.5;"/>
   </g>
   <g id="line2d_22">
    <path clip-path="url(#pd0958aa75c)" d="M 74.181578 307.431813 
L 74.853476 307.150847 
L 75.189425 306.877518 
L 75.525374 306.457145 
L 75.861324 305.826002 
L 76.197273 304.900919 
L 76.533222 303.577136 
L 76.869171 301.727619 
L 77.541069 295.843611 
L 78.212967 285.91781 
L 78.884865 270.677251 
L 79.556763 249.368555 
L 80.56461 206.910121 
L 82.580305 112.221287 
L 83.252203 89.081961 
L 83.924101 74.017674 
L 84.26005 69.742975 
L 84.595999 67.601565 
L 84.931948 67.475939 
L 85.267897 69.19062 
L 85.603846 72.525318 
L 86.275745 83.034744 
L 87.283592 104.43155 
L 88.963337 141.257199 
L 90.307133 165.26113 
L 91.65093 184.659656 
L 92.994726 200.746437 
L 94.338522 214.419519 
L 96.018268 229.447586 
L 98.033962 245.327416 
L 101.057504 267.156634 
L 102.4013 275.496366 
L 103.409147 280.455013 
L 104.416994 284.240621 
L 105.424842 287.082428 
L 106.432689 289.243871 
L 107.440536 290.846366 
L 108.448383 291.944803 
L 110.800027 294.066561 
L 111.807874 295.561216 
L 113.823568 298.850533 
L 114.831415 299.93374 
L 116.175212 300.867551 
L 118.526855 302.268598 
L 119.198753 302.475164 
L 120.206601 302.488606 
L 122.222295 302.239837 
L 122.894193 302.393009 
L 123.90204 302.94469 
L 126.589633 304.825618 
L 127.933429 305.375436 
L 130.285073 306.084225 
L 131.628869 306.27184 
L 134.652411 306.50481 
L 139.355697 307.525104 
L 141.035443 307.576817 
L 141.035443 307.576817 
" style="fill:none;stroke:#1f77b4;stroke-linecap:round;stroke-width:1.5;"/>
   </g>
   <g id="line2d_23">
    <path clip-path="url(#pd0958aa75c)" d="M 76.631617 307.5788 
L 81.045753 307.463201 
L 82.701054 307.267521 
L 84.356355 306.833704 
L 85.459889 306.316918 
L 86.563423 305.527009 
L 87.666957 304.371438 
L 88.770491 302.754599 
L 89.874026 300.591179 
L 90.97756 297.820053 
L 92.081094 294.414209 
L 93.184628 290.383888 
L 94.839929 283.274303 
L 97.046997 272.287202 
L 100.909366 252.335456 
L 102.564668 245.056983 
L 104.219969 238.996269 
L 105.87527 233.943199 
L 108.082338 228.102445 
L 109.737639 224.239562 
L 110.841173 222.093312 
L 111.944707 220.48876 
L 112.496474 219.936258 
L 113.048241 219.56567 
L 113.600008 219.380718 
L 114.151775 219.378708 
L 114.703542 219.551242 
L 115.25531 219.885485 
L 116.358844 220.975359 
L 117.462378 222.518766 
L 118.565912 224.409306 
L 120.221213 227.760819 
L 121.876514 231.648469 
L 124.083582 237.546555 
L 126.842417 245.722843 
L 134.567156 269.347694 
L 136.222457 273.616047 
L 137.877758 277.145897 
L 138.981292 279.067801 
L 140.636593 281.441936 
L 147.257798 290.036915 
L 149.464866 292.910934 
L 151.120167 294.796282 
L 152.775468 296.403115 
L 154.43077 297.755103 
L 156.637838 299.228133 
L 158.293139 300.086509 
L 159.94844 300.690404 
L 161.603741 301.031003 
L 166.569644 301.738405 
L 168.224946 302.393713 
L 170.432014 303.635742 
L 173.742616 305.593817 
L 175.397917 306.339408 
L 177.053218 306.869483 
L 179.260286 307.287855 
L 182.019122 307.50813 
L 186.433258 307.579957 
L 186.433258 307.579957 
" style="fill:none;stroke:#d62728;stroke-linecap:round;stroke-width:1.5;"/>
   </g>
   <g id="line2d_24">
    <path clip-path="url(#pd0958aa75c)" d="M 74.950925 307.577783 
L 79.44694 307.46987 
L 81.694948 307.224982 
L 83.193619 306.884111 
L 84.692291 306.30591 
L 86.190963 305.3745 
L 86.940298 304.729461 
L 87.689634 303.934328 
L 88.43897 302.962861 
L 89.188306 301.786826 
L 89.937642 300.377155 
L 90.686978 298.705695 
L 92.185649 294.483577 
L 93.684321 289.009005 
L 95.182993 282.348884 
L 97.431 270.823382 
L 100.428344 255.255619 
L 101.927015 248.423302 
L 103.425687 242.510539 
L 104.924359 237.500152 
L 106.42303 233.30154 
L 107.921702 229.838269 
L 109.420374 227.071886 
L 110.919045 224.981373 
L 111.668381 224.184346 
L 112.417717 223.552571 
L 113.167053 223.089883 
L 113.916389 222.804929 
L 114.665724 222.71174 
L 115.41506 222.829203 
L 116.164396 223.179292 
L 116.913732 223.784139 
L 117.663068 224.662319 
L 118.412404 225.824901 
L 119.161739 227.271936 
L 120.660411 230.951773 
L 122.159083 235.433391 
L 126.655098 249.58304 
L 128.903105 255.45789 
L 131.900449 262.309565 
L 139.393807 278.771394 
L 140.892479 281.459056 
L 142.39115 283.629503 
L 143.889822 285.275503 
L 146.13783 287.135637 
L 147.636501 288.37134 
L 149.135173 289.845916 
L 153.631188 294.78842 
L 155.12986 295.887365 
L 156.628531 296.598088 
L 160.375211 297.915363 
L 161.873882 298.728078 
L 164.12189 300.346818 
L 167.119233 302.661032 
L 168.617905 303.612735 
L 170.116576 304.334782 
L 171.615248 304.820353 
L 173.11392 305.105544 
L 176.111263 305.343586 
L 179.857942 305.65639 
L 184.353957 306.355669 
L 188.100637 306.870972 
L 191.847316 307.173199 
L 195.593995 307.261688 
L 213.578055 307.329186 
L 222.570085 307.575141 
L 224.068757 307.580662 
L 224.068757 307.580662 
" style="fill:none;stroke:#2ca02c;stroke-linecap:round;stroke-width:1.5;"/>
   </g>
   <g id="line2d_25">
    <path clip-path="url(#pd0958aa75c)" d="M 77.48032 307.578036 
L 82.137339 307.438251 
L 84.133204 307.183689 
L 85.46378 306.869473 
L 86.794357 306.37819 
L 88.124934 305.624703 
L 89.45551 304.473332 
L 90.120799 303.689432 
L 90.786087 302.728933 
L 91.451375 301.561983 
L 92.781952 298.499553 
L 94.112529 294.341212 
L 95.443105 289.061786 
L 96.773682 282.784633 
L 98.769547 271.958112 
L 101.4307 255.789333 
L 106.087719 226.59785 
L 107.418295 219.79029 
L 108.748872 214.476261 
L 109.41416 212.470583 
L 110.079449 210.922387 
L 110.744737 209.831426 
L 111.410025 209.183373 
L 112.075314 208.951007 
L 112.740602 209.096453 
L 113.40589 209.574422 
L 114.071179 210.336173 
L 115.401755 212.523998 
L 116.732332 215.350286 
L 118.062909 218.644185 
L 120.058774 224.35928 
L 122.054639 230.899444 
L 126.711657 247.458848 
L 130.703387 261.517035 
L 132.699252 267.751734 
L 134.029829 271.297672 
L 135.360405 274.256723 
L 136.690982 276.605626 
L 138.021559 278.384823 
L 139.352135 279.714491 
L 143.343865 283.12795 
L 144.674442 284.687197 
L 146.670307 287.47814 
L 149.996749 292.192842 
L 151.992614 294.627706 
L 154.653767 297.558408 
L 156.649632 299.489432 
L 157.980209 300.519316 
L 159.310785 301.277074 
L 160.641362 301.778477 
L 163.302515 302.390627 
L 165.29838 302.957405 
L 167.294245 303.82709 
L 171.285975 305.8215 
L 172.616552 306.274657 
L 174.612417 306.65387 
L 177.938859 306.87052 
L 182.595877 307.275833 
L 185.922319 307.442113 
L 189.24876 307.337235 
L 195.236355 307.056878 
L 198.562797 307.131469 
L 208.542122 307.573916 
L 209.872699 307.580217 
L 209.872699 307.580217 
" style="fill:none;stroke:#ff7f0e;stroke-linecap:round;stroke-width:1.5;"/>
   </g>
   <g id="line2d_26">
    <path clip-path="url(#pd0958aa75c)" d="M 76.565551 307.572779 
L 79.939116 307.46578 
L 81.963255 307.197704 
L 83.312681 306.807215 
L 84.662107 306.126966 
L 86.011532 305.026689 
L 87.360958 303.36868 
L 88.710384 301.030765 
L 90.05981 297.929004 
L 91.409236 294.032436 
L 92.758662 289.36739 
L 94.108088 284.016494 
L 96.132227 275.028307 
L 100.180505 256.533601 
L 102.204644 248.688783 
L 103.55407 244.212621 
L 105.578209 238.416865 
L 107.602348 233.508017 
L 108.951774 230.831491 
L 110.3012 228.852438 
L 110.975912 228.189256 
L 111.650625 227.769251 
L 112.325338 227.601815 
L 113.000051 227.686979 
L 113.674764 228.015279 
L 114.349477 228.568461 
L 115.02419 229.320837 
L 116.373616 231.294202 
L 118.397755 234.890434 
L 121.096607 239.60715 
L 123.120746 242.630072 
L 126.494311 247.458479 
L 128.51845 250.923663 
L 130.542589 254.946633 
L 142.012709 279.397125 
L 144.036848 283.643107 
L 145.386274 286.062055 
L 146.7357 288.031977 
L 148.085126 289.546791 
L 149.434552 290.681651 
L 151.458691 291.952936 
L 154.157543 293.543123 
L 156.181682 295.039313 
L 158.880534 297.445302 
L 161.579385 299.782191 
L 163.603524 301.147446 
L 165.627663 302.146747 
L 168.326515 303.151427 
L 172.374793 304.401937 
L 174.398932 304.821131 
L 176.423071 305.037975 
L 181.146062 305.395514 
L 184.519627 306.021134 
L 187.893191 306.634088 
L 191.266756 306.995676 
L 195.315034 307.169278 
L 204.086303 307.482133 
L 210.15872 307.578852 
L 210.833433 307.58071 
L 210.833433 307.58071 
" style="fill:none;stroke:#1f77b4;stroke-linecap:round;stroke-width:1.5;"/>
   </g>
   <g id="line2d_27">
    <path clip-path="url(#pd0958aa75c)" d="M 84.467343 307.581318 
L 93.085632 307.477819 
L 97.394777 307.197741 
L 99.980264 306.808297 
L 101.703922 306.374095 
L 103.42758 305.730899 
L 105.151238 304.810336 
L 106.874896 303.546793 
L 108.598554 301.889924 
L 110.322212 299.81666 
L 112.045869 297.338947 
L 113.769527 294.503081 
L 116.355014 289.72964 
L 119.80233 282.720858 
L 124.111475 273.284004 
L 128.42062 263.845986 
L 131.006107 258.836942 
L 132.729765 255.976778 
L 134.453423 253.594902 
L 136.177081 251.767498 
L 137.038909 251.082378 
L 137.900738 250.556879 
L 138.762567 250.192444 
L 139.624396 249.986404 
L 140.486225 249.931593 
L 141.348054 250.016404 
L 143.071712 250.539788 
L 144.79537 251.403527 
L 152.551831 255.887611 
L 155.137318 256.891299 
L 161.170121 258.840247 
L 162.03195 259.336396 
L 162.893778 259.960765 
L 163.755607 260.732376 
L 165.479265 262.755573 
L 167.202923 265.390644 
L 169.78841 270.119142 
L 173.235726 276.534946 
L 174.959384 279.329042 
L 176.683042 281.749932 
L 178.4067 283.842742 
L 180.992187 286.580868 
L 186.163161 291.598959 
L 189.610476 294.694075 
L 192.195963 296.682577 
L 194.78145 298.327676 
L 197.366937 299.665438 
L 199.952424 300.751262 
L 203.39974 301.917319 
L 208.570714 303.367814 
L 212.01803 304.098258 
L 215.465345 304.536065 
L 221.498148 305.163092 
L 230.978267 306.451043 
L 238.734727 307.040918 
L 246.491188 307.462009 
L 253.38582 307.574192 
L 255.971307 307.581313 
L 255.971307 307.581313 
" style="fill:none;stroke:#d62728;stroke-linecap:round;stroke-width:1.5;"/>
   </g>
   <g id="line2d_28">
    <path clip-path="url(#pd0958aa75c)" d="M 87.185249 307.580014 
L 93.641288 307.48242 
L 96.408162 307.288023 
L 99.175036 306.849594 
L 101.019618 306.34071 
L 102.864201 305.597412 
L 104.708784 304.575202 
L 106.553366 303.24485 
L 108.397949 301.590962 
L 110.242531 299.597857 
L 112.087114 297.229885 
L 113.931697 294.424966 
L 115.776279 291.119256 
L 117.620862 287.300849 
L 120.387736 280.848191 
L 124.076901 272.138746 
L 125.921483 268.270031 
L 127.766066 264.846264 
L 130.53294 260.350624 
L 136.988979 250.635515 
L 138.833562 248.130575 
L 140.678144 246.135618 
L 141.600436 245.417442 
L 142.522727 244.922472 
L 143.445018 244.666847 
L 144.367309 244.655073 
L 145.289601 244.879535 
L 146.211892 245.321384 
L 147.134183 245.952655 
L 148.978766 247.644619 
L 151.74564 250.735306 
L 162.813135 263.727079 
L 173.880631 278.180814 
L 185.870418 292.72288 
L 187.715 294.547994 
L 189.559583 296.141339 
L 191.404166 297.507667 
L 193.248748 298.671114 
L 196.015622 300.122557 
L 199.704787 301.741124 
L 204.316244 303.494602 
L 207.083118 304.323756 
L 209.849992 304.924867 
L 213.539157 305.436504 
L 217.228322 305.723514 
L 230.1404 306.430782 
L 239.363313 307.302257 
L 243.97477 307.47045 
L 249.508517 307.415902 
L 255.964556 307.354559 
L 270.721217 307.581342 
L 270.721217 307.581342 
" style="fill:none;stroke:#2ca02c;stroke-linecap:round;stroke-width:1.5;"/>
   </g>
   <g id="line2d_29">
    <path clip-path="url(#pd0958aa75c)" d="M 90.442825 307.576537 
L 95.893441 307.468019 
L 98.618748 307.240109 
L 100.43562 306.935356 
L 102.252492 306.434623 
L 104.069364 305.655293 
L 105.886236 304.498822 
L 107.703107 302.859588 
L 109.519979 300.646486 
L 111.336851 297.816599 
L 113.153723 294.408484 
L 115.87903 288.518534 
L 122.238082 274.247119 
L 127.688697 262.831491 
L 130.414005 257.687704 
L 132.230877 254.765504 
L 134.047749 252.344563 
L 135.86462 250.401221 
L 137.681492 248.8495 
L 139.498364 247.608541 
L 141.315236 246.658642 
L 143.132108 246.055247 
L 144.040543 245.91493 
L 144.948979 245.900609 
L 145.857415 246.024301 
L 146.765851 246.294997 
L 147.674287 246.717776 
L 148.582723 247.293364 
L 150.399595 248.884368 
L 152.216467 250.994234 
L 154.033338 253.506014 
L 156.758646 257.726382 
L 162.209261 266.341536 
L 165.843005 271.616913 
L 168.568313 275.26622 
L 171.29362 278.620989 
L 174.927364 282.702568 
L 178.561108 286.464443 
L 181.286415 288.945279 
L 183.103287 290.33292 
L 184.920159 291.491526 
L 188.553903 293.411971 
L 191.27921 294.962973 
L 194.004518 296.84146 
L 197.638262 299.474541 
L 199.455133 300.601856 
L 201.272005 301.523571 
L 203.088877 302.252493 
L 205.814185 303.092255 
L 210.356364 304.170994 
L 214.898544 304.998973 
L 219.440723 305.573669 
L 235.79257 307.242198 
L 241.243185 307.48705 
L 246.6938 307.4885 
L 257.595031 307.381488 
L 271.22157 307.58139 
L 271.22157 307.58139 
" style="fill:none;stroke:#ff7f0e;stroke-linecap:round;stroke-width:1.5;"/>
   </g>
   <g id="line2d_30">
    <path clip-path="url(#pd0958aa75c)" d="M 88.450542 307.578707 
L 94.449079 307.478504 
L 97.876814 307.201097 
L 100.447615 306.730609 
L 102.161482 306.218786 
L 103.87535 305.490129 
L 105.589217 304.482315 
L 107.303085 303.120385 
L 109.016952 301.320597 
L 110.73082 299.00384 
L 112.444687 296.120538 
L 114.158555 292.682549 
L 116.729356 286.726873 
L 121.014025 276.44435 
L 122.727892 272.79216 
L 125.298693 267.941361 
L 130.440296 258.676772 
L 136.438832 247.164879 
L 138.1527 244.786347 
L 139.009633 243.904773 
L 139.866567 243.247396 
L 140.723501 242.816613 
L 141.580435 242.605957 
L 142.437368 242.601647 
L 143.294302 242.784696 
L 144.151236 243.133241 
L 145.865103 244.237737 
L 147.578971 245.754878 
L 149.292838 247.567289 
L 151.86364 250.677295 
L 155.291375 255.268791 
L 165.57458 269.52135 
L 169.002315 274.980605 
L 174.143917 283.304615 
L 176.714718 287.075895 
L 179.28552 290.476588 
L 180.999387 292.486299 
L 182.713255 294.231519 
L 184.427122 295.664166 
L 186.14099 296.75931 
L 187.854857 297.525888 
L 189.568725 298.007228 
L 191.282592 298.275852 
L 197.281128 298.906204 
L 199.85193 299.545072 
L 204.136598 300.994564 
L 209.278201 302.646288 
L 216.133671 304.823392 
L 219.561406 305.878929 
L 222.132207 306.472255 
L 224.703008 306.828469 
L 227.27381 306.974101 
L 231.558478 306.959346 
L 237.557015 306.939924 
L 243.555551 307.185687 
L 252.124888 307.527783 
L 258.980358 307.581304 
L 258.980358 307.581304 
" style="fill:none;stroke:#1f77b4;stroke-linecap:round;stroke-width:1.5;"/>
   </g>
   <g id="line2d_31">
    <path clip-path="url(#pd0958aa75c)" d="M 104.982762 307.580148 
L 113.522728 307.474349 
L 117.79271 307.199445 
L 120.995197 306.726522 
L 123.130189 306.19797 
L 125.26518 305.427881 
L 127.400172 304.348384 
L 129.535163 302.896791 
L 131.670154 301.032991 
L 133.805146 298.759072 
L 135.940137 296.131842 
L 139.142624 291.767021 
L 147.68259 279.887738 
L 154.087564 271.291405 
L 156.222555 268.704753 
L 158.357546 266.41154 
L 160.492538 264.459827 
L 162.627529 262.848554 
L 164.762521 261.542865 
L 166.897512 260.496831 
L 169.032503 259.672549 
L 171.167495 259.053683 
L 173.302486 258.654718 
L 175.437477 258.522941 
L 177.572469 258.727081 
L 179.70746 259.331377 
L 181.842452 260.363868 
L 183.977443 261.79403 
L 186.112434 263.532414 
L 190.382417 267.44142 
L 196.787391 273.244419 
L 209.597339 284.647243 
L 212.799827 286.981968 
L 216.002314 288.948808 
L 222.407288 292.627418 
L 226.67727 295.492835 
L 229.879758 297.60811 
L 232.014749 298.815886 
L 234.14974 299.805488 
L 237.352227 300.94303 
L 249.09468 304.378344 
L 252.297167 305.115307 
L 255.499654 305.584269 
L 258.702141 305.807835 
L 270.444594 306.294989 
L 281.119551 307.138008 
L 285.389533 307.194726 
L 298.199482 307.112807 
L 312.076925 307.559411 
L 317.414404 307.581168 
L 317.414404 307.581168 
" style="fill:none;stroke:#d62728;stroke-linecap:round;stroke-width:1.5;"/>
   </g>
   <g id="line2d_32">
    <path clip-path="url(#pd0958aa75c)" d="M 100.758642 307.579899 
L 109.778177 307.469746 
L 114.789029 307.21574 
L 118.797711 306.825083 
L 121.804223 306.340235 
L 123.808564 305.866265 
L 125.812905 305.223458 
L 127.817246 304.369975 
L 129.821587 303.268702 
L 131.825928 301.890202 
L 133.830269 300.215169 
L 135.83461 298.236911 
L 137.838951 295.962152 
L 139.843292 293.408243 
L 142.849803 289.105649 
L 145.856315 284.332212 
L 153.873679 271.112441 
L 156.88019 266.797459 
L 159.886701 262.966571 
L 161.891042 260.66908 
L 163.895383 258.633613 
L 165.899724 256.970181 
L 166.901895 256.317033 
L 167.904065 255.799535 
L 168.906236 255.424092 
L 169.908406 255.190686 
L 170.910577 255.092465 
L 172.914918 255.243662 
L 174.919259 255.723517 
L 178.927941 257.069074 
L 181.934452 258.249403 
L 183.938793 259.274991 
L 185.943134 260.649757 
L 187.947475 262.457697 
L 189.951816 264.687047 
L 192.958328 268.55845 
L 196.96701 273.776792 
L 198.971351 276.108104 
L 201.977862 279.192114 
L 205.986544 282.848882 
L 213.001738 288.916064 
L 217.01042 292.065172 
L 220.016931 294.172256 
L 223.023443 296.054838 
L 226.029954 297.69674 
L 229.036466 299.043297 
L 232.042977 300.049777 
L 235.049489 300.760039 
L 258.09941 305.114651 
L 265.114604 306.30203 
L 269.123286 306.706637 
L 273.131968 306.870333 
L 284.155843 307.158106 
L 293.175378 307.519878 
L 300.190571 307.579745 
L 300.190571 307.579745 
" style="fill:none;stroke:#2ca02c;stroke-linecap:round;stroke-width:1.5;"/>
   </g>
   <g id="line2d_33">
    <path clip-path="url(#pd0958aa75c)" d="M 105.573585 307.581458 
L 115.548777 307.45646 
L 119.538854 307.203628 
L 122.531411 306.793869 
L 124.52645 306.335371 
L 126.521488 305.659438 
L 128.516526 304.703572 
L 130.511565 303.415256 
L 132.506603 301.760708 
L 134.501641 299.726207 
L 136.49668 297.314258 
L 138.491718 294.542527 
L 140.486756 291.450698 
L 143.479314 286.374215 
L 155.449544 265.378801 
L 157.444582 262.360657 
L 158.442102 261.061734 
L 159.439621 259.94557 
L 160.43714 259.036071 
L 161.434659 258.346472 
L 162.432178 257.877169 
L 163.429697 257.615114 
L 164.427217 257.534902 
L 166.422255 257.773058 
L 171.409851 258.83725 
L 173.404889 258.915365 
L 176.397447 258.66943 
L 179.390004 258.427808 
L 181.385042 258.522758 
L 183.380081 258.948424 
L 185.375119 259.762814 
L 187.370158 260.985191 
L 189.365196 262.602397 
L 191.360234 264.573467 
L 193.355273 266.832106 
L 197.345349 271.838126 
L 201.335426 276.826763 
L 204.327983 280.259389 
L 207.320541 283.397919 
L 210.313098 286.259103 
L 213.305656 288.845627 
L 216.298214 291.162899 
L 219.290771 293.202755 
L 222.283329 294.962051 
L 226.273405 297.005431 
L 236.248597 301.807152 
L 239.241154 302.997073 
L 243.231231 304.318066 
L 247.221308 305.404173 
L 250.213865 306.024258 
L 253.206423 306.448502 
L 258.194019 306.878758 
L 264.179134 307.207333 
L 271.161768 307.327353 
L 285.127036 307.357767 
L 293.10719 307.479197 
L 303.082382 307.580161 
L 304.079901 307.58162 
L 304.079901 307.58162 
" style="fill:none;stroke:#ff7f0e;stroke-linecap:round;stroke-width:1.5;"/>
   </g>
   <g id="line2d_34">
    <path clip-path="url(#pd0958aa75c)" d="M 98.04025 307.581737 
L 109.400596 307.46646 
L 113.944734 307.25064 
L 117.352838 306.914336 
L 120.760942 306.319573 
L 124.169046 305.394789 
L 127.577149 304.140296 
L 129.849218 303.11966 
L 132.121288 301.909061 
L 134.393357 300.424132 
L 136.665426 298.54943 
L 138.937495 296.168424 
L 141.209564 293.206284 
L 143.481633 289.677076 
L 146.889737 283.648418 
L 150.297841 277.533384 
L 152.56991 273.837291 
L 154.841979 270.579149 
L 157.114048 267.712794 
L 160.522152 263.901647 
L 163.930256 260.49969 
L 166.202325 258.509966 
L 168.474394 256.830419 
L 170.746463 255.541798 
L 171.882498 255.072523 
L 173.018533 254.737921 
L 174.154567 254.552709 
L 175.290602 254.530993 
L 176.426636 254.684181 
L 177.562671 255.018672 
L 178.698706 255.533813 
L 179.83474 256.220604 
L 182.106809 258.031546 
L 184.378878 260.235051 
L 190.059051 265.940195 
L 193.467155 268.978657 
L 198.011293 273.013851 
L 201.419397 276.445744 
L 209.371639 284.861628 
L 211.643708 286.924299 
L 215.051812 289.666059 
L 218.459916 292.084185 
L 221.86802 294.192237 
L 225.276123 295.937822 
L 228.684227 297.369986 
L 238.908538 301.43102 
L 242.316642 302.725755 
L 245.724746 303.774261 
L 249.13285 304.574214 
L 253.676988 305.393932 
L 257.085092 305.842507 
L 261.62923 306.169619 
L 269.581472 306.578867 
L 278.669749 307.222542 
L 284.349922 307.301931 
L 307.070613 307.349392 
L 319.566994 307.569701 
L 324.111132 307.581764 
L 324.111132 307.581764 
" style="fill:none;stroke:#1f77b4;stroke-linecap:round;stroke-width:1.5;"/>
   </g>
   <g id="line2d_35">
    <path clip-path="url(#pd0958aa75c)" d="M 126.722227 307.581296 
L 139.387656 307.477376 
L 146.986913 307.224035 
L 152.053085 306.883777 
L 155.852713 306.377525 
L 158.385799 305.827584 
L 160.918885 305.063606 
L 163.451971 304.083737 
L 167.2516 302.301598 
L 178.650486 296.416436 
L 182.450114 294.179087 
L 184.9832 292.45338 
L 188.782829 289.498624 
L 202.714801 277.979001 
L 209.047515 273.285635 
L 211.580601 271.617051 
L 214.113687 270.20162 
L 216.646773 269.101893 
L 219.179859 268.324706 
L 221.712945 267.83942 
L 224.24603 267.619517 
L 226.779116 267.671425 
L 229.312202 268.026439 
L 231.845288 268.70148 
L 234.378374 269.657464 
L 243.244174 273.464196 
L 250.843431 276.208884 
L 253.376517 277.490596 
L 255.909603 279.039219 
L 266.041946 285.714593 
L 276.17429 291.699759 
L 286.306633 298.335805 
L 288.839719 299.635946 
L 291.372804 300.661241 
L 293.90589 301.423151 
L 297.705519 302.212987 
L 307.837862 304.006168 
L 314.170577 305.164295 
L 319.236748 305.831083 
L 324.30292 306.233331 
L 345.834149 307.313458 
L 354.69995 307.403138 
L 378.764265 307.58219 
L 378.764265 307.58219 
" style="fill:none;stroke:#d62728;stroke-linecap:round;stroke-width:1.5;"/>
   </g>
   <g id="line2d_36">
    <path clip-path="url(#pd0958aa75c)" d="M 125.613079 307.581588 
L 137.954123 307.486065 
L 144.810259 307.244447 
L 151.666394 306.79413 
L 155.780076 306.345242 
L 158.52253 305.885957 
L 161.264984 305.230033 
L 164.007438 304.332558 
L 166.749892 303.183089 
L 169.492347 301.810987 
L 173.606028 299.450515 
L 177.719709 296.831853 
L 181.833391 293.927208 
L 185.947072 290.666352 
L 190.060753 287.101304 
L 198.288116 279.588831 
L 203.773024 274.680073 
L 206.515478 272.478113 
L 209.257933 270.618269 
L 210.62916 269.858349 
L 212.000387 269.229605 
L 213.371614 268.740433 
L 214.742841 268.393834 
L 216.114068 268.186503 
L 217.485295 268.108325 
L 220.227749 268.266057 
L 229.826339 269.4647 
L 235.311248 269.670638 
L 238.053702 270.078192 
L 239.424929 270.440335 
L 240.796156 270.922838 
L 243.53861 272.243607 
L 246.281064 273.964176 
L 250.394746 276.99817 
L 262.73579 286.515055 
L 266.849471 289.349467 
L 270.963152 291.844428 
L 273.705606 293.295297 
L 277.819288 295.162309 
L 281.932969 296.72799 
L 290.160332 299.491145 
L 297.016467 301.672709 
L 301.130148 302.719533 
L 305.24383 303.486648 
L 312.099965 304.412192 
L 323.069782 305.696317 
L 329.925918 306.256554 
L 338.15328 306.68821 
L 360.092914 307.396604 
L 368.320276 307.436392 
L 382.032548 307.487437 
L 398.487273 307.582237 
L 398.487273 307.582237 
" style="fill:none;stroke:#2ca02c;stroke-linecap:round;stroke-width:1.5;"/>
   </g>
   <g id="line2d_37">
    <path clip-path="url(#pd0958aa75c)" d="M 123.377644 307.582091 
L 138.695563 307.467019 
L 149.300276 307.172388 
L 154.013482 306.840784 
L 157.548386 306.375732 
L 159.904989 305.905143 
L 162.261592 305.258536 
L 164.618195 304.389868 
L 166.974798 303.259463 
L 169.331401 301.849794 
L 171.688004 300.179679 
L 175.222908 297.324814 
L 181.114416 292.399886 
L 184.64932 289.72939 
L 189.362526 286.551351 
L 195.254033 282.618632 
L 197.610636 280.829758 
L 199.967239 278.811255 
L 202.323842 276.513069 
L 204.680445 273.930929 
L 211.750254 265.714319 
L 214.106857 263.606598 
L 215.285158 262.805459 
L 216.46346 262.19295 
L 217.641761 261.771984 
L 218.820063 261.535857 
L 219.998364 261.469631 
L 221.176665 261.552367 
L 223.533268 262.067525 
L 225.889871 262.897576 
L 229.424776 264.48394 
L 231.781379 265.730808 
L 234.137982 267.15398 
L 237.672886 269.621423 
L 247.099298 276.591248 
L 254.169106 281.485437 
L 257.704011 284.236203 
L 264.77382 290.194556 
L 268.308724 293.023939 
L 271.843628 295.500506 
L 274.200231 296.908311 
L 276.556834 298.119529 
L 278.913437 299.144958 
L 281.27004 299.993438 
L 283.626643 300.666942 
L 285.983246 301.166423 
L 289.51815 301.623431 
L 298.944562 302.401726 
L 302.479466 303.034647 
L 310.727577 304.754422 
L 314.262481 305.217949 
L 333.115304 306.930692 
L 339.006812 307.293052 
L 346.07662 307.506718 
L 357.859635 307.581988 
L 357.859635 307.581988 
" style="fill:none;stroke:#ff7f0e;stroke-linecap:round;stroke-width:1.5;"/>
   </g>
   <g id="line2d_38">
    <path clip-path="url(#pd0958aa75c)" d="M 116.088024 307.582237 
L 133.707584 307.470222 
L 148.616442 307.195669 
L 152.682495 306.891128 
L 155.393196 306.53639 
L 158.103898 306.018812 
L 160.8146 305.30341 
L 163.525301 304.361486 
L 166.236003 303.179981 
L 168.946704 301.769691 
L 173.012757 299.303827 
L 177.078809 296.544582 
L 181.144861 293.561313 
L 185.210914 290.342355 
L 197.409071 280.340261 
L 201.475123 277.460789 
L 206.896526 273.917697 
L 212.31793 270.62018 
L 215.028631 269.160111 
L 217.739333 267.924977 
L 220.450034 267.002584 
L 223.160736 266.476746 
L 224.516087 266.382217 
L 225.871437 266.404891 
L 227.226788 266.543972 
L 229.93749 267.149839 
L 232.648191 268.127795 
L 235.358893 269.379298 
L 239.424945 271.560986 
L 247.55705 276.299986 
L 252.978453 279.688572 
L 258.399856 283.401652 
L 263.82126 287.104367 
L 267.887312 289.612426 
L 273.308715 292.622215 
L 280.085469 296.127524 
L 285.506872 298.662426 
L 289.572925 300.299813 
L 293.638977 301.636818 
L 296.349678 302.324526 
L 299.06038 302.836992 
L 303.126432 303.324819 
L 313.969239 304.288294 
L 322.101343 305.432777 
L 328.878097 306.292812 
L 334.299501 306.758627 
L 339.720904 307.00009 
L 346.497658 307.048606 
L 358.695815 307.061992 
L 384.44748 307.580143 
L 385.802831 307.581662 
L 385.802831 307.581662 
" style="fill:none;stroke:#1f77b4;stroke-linecap:round;stroke-width:1.5;"/>
   </g>
   <g id="patch_3">
    <path d="M 57.6 307.584 
L 57.6 41.472 
" style="fill:none;stroke:#ffffff;stroke-linecap:square;stroke-linejoin:miter;stroke-width:0.8;"/>
   </g>
   <g id="patch_4">
    <path d="M 414.72 307.584 
L 414.72 41.472 
" style="fill:none;stroke:#ffffff;stroke-linecap:square;stroke-linejoin:miter;stroke-width:0.8;"/>
   </g>
   <g id="patch_5">
    <path d="M 57.6 307.584 
L 414.72 307.584 
" style="fill:none;stroke:#ffffff;stroke-linecap:square;stroke-linejoin:miter;stroke-width:0.8;"/>
   </g>
   <g id="patch_6">
    <path d="M 57.6 41.472 
L 414.72 41.472 
" style="fill:none;stroke:#ffffff;stroke-linecap:square;stroke-linejoin:miter;stroke-width:0.8;"/>
   </g>
   <g id="text_20">
    <!-- Density plots of PG(h, 0) using each method for h $\in$ {1,4,7,10,15}. -->
    <g style="fill:#262626;" transform="translate(32.22 35.472)scale(0.12 -0.12)">
     <defs>
      <path id="DejaVuSans-32"/>
      <path d="M 18.109375 8.203125 
L 18.109375 -20.796875 
L 9.078125 -20.796875 
L 9.078125 54.6875 
L 18.109375 54.6875 
L 18.109375 46.390625 
Q 20.953125 51.265625 25.265625 53.625 
Q 29.59375 56 35.59375 56 
Q 45.5625 56 51.78125 48.09375 
Q 58.015625 40.1875 58.015625 27.296875 
Q 58.015625 14.40625 51.78125 6.484375 
Q 45.5625 -1.421875 35.59375 -1.421875 
Q 29.59375 -1.421875 25.265625 0.953125 
Q 20.953125 3.328125 18.109375 8.203125 
z
M 48.6875 27.296875 
Q 48.6875 37.203125 44.609375 42.84375 
Q 40.53125 48.484375 33.40625 48.484375 
Q 26.265625 48.484375 22.1875 42.84375 
Q 18.109375 37.203125 18.109375 27.296875 
Q 18.109375 17.390625 22.1875 11.75 
Q 26.265625 6.109375 33.40625 6.109375 
Q 40.53125 6.109375 44.609375 11.75 
Q 48.6875 17.390625 48.6875 27.296875 
z
" id="DejaVuSans-112"/>
      <path d="M 9.421875 75.984375 
L 18.40625 75.984375 
L 18.40625 0 
L 9.421875 0 
z
" id="DejaVuSans-108"/>
      <path d="M 30.609375 48.390625 
Q 23.390625 48.390625 19.1875 42.75 
Q 14.984375 37.109375 14.984375 27.296875 
Q 14.984375 17.484375 19.15625 11.84375 
Q 23.34375 6.203125 30.609375 6.203125 
Q 37.796875 6.203125 41.984375 11.859375 
Q 46.1875 17.53125 46.1875 27.296875 
Q 46.1875 37.015625 41.984375 42.703125 
Q 37.796875 48.390625 30.609375 48.390625 
z
M 30.609375 56 
Q 42.328125 56 49.015625 48.375 
Q 55.71875 40.765625 55.71875 27.296875 
Q 55.71875 13.875 49.015625 6.21875 
Q 42.328125 -1.421875 30.609375 -1.421875 
Q 18.84375 -1.421875 12.171875 6.21875 
Q 5.515625 13.875 5.515625 27.296875 
Q 5.515625 40.765625 12.171875 48.375 
Q 18.84375 56 30.609375 56 
z
" id="DejaVuSans-111"/>
      <path d="M 37.109375 75.984375 
L 37.109375 68.5 
L 28.515625 68.5 
Q 23.6875 68.5 21.796875 66.546875 
Q 19.921875 64.59375 19.921875 59.515625 
L 19.921875 54.6875 
L 34.71875 54.6875 
L 34.71875 47.703125 
L 19.921875 47.703125 
L 19.921875 0 
L 10.890625 0 
L 10.890625 47.703125 
L 2.296875 47.703125 
L 2.296875 54.6875 
L 10.890625 54.6875 
L 10.890625 58.5 
Q 10.890625 67.625 15.140625 71.796875 
Q 19.390625 75.984375 28.609375 75.984375 
z
" id="DejaVuSans-102"/>
      <path d="M 19.671875 64.796875 
L 19.671875 37.40625 
L 32.078125 37.40625 
Q 38.96875 37.40625 42.71875 40.96875 
Q 46.484375 44.53125 46.484375 51.125 
Q 46.484375 57.671875 42.71875 61.234375 
Q 38.96875 64.796875 32.078125 64.796875 
z
M 9.8125 72.90625 
L 32.078125 72.90625 
Q 44.34375 72.90625 50.609375 67.359375 
Q 56.890625 61.8125 56.890625 51.125 
Q 56.890625 40.328125 50.609375 34.8125 
Q 44.34375 29.296875 32.078125 29.296875 
L 19.671875 29.296875 
L 19.671875 0 
L 9.8125 0 
z
" id="DejaVuSans-80"/>
      <path d="M 59.515625 10.40625 
L 59.515625 29.984375 
L 43.40625 29.984375 
L 43.40625 38.09375 
L 69.28125 38.09375 
L 69.28125 6.78125 
Q 63.578125 2.734375 56.6875 0.65625 
Q 49.8125 -1.421875 42 -1.421875 
Q 24.90625 -1.421875 15.25 8.5625 
Q 5.609375 18.5625 5.609375 36.375 
Q 5.609375 54.25 15.25 64.234375 
Q 24.90625 74.21875 42 74.21875 
Q 49.125 74.21875 55.546875 72.453125 
Q 61.96875 70.703125 67.390625 67.28125 
L 67.390625 56.78125 
Q 61.921875 61.421875 55.765625 63.765625 
Q 49.609375 66.109375 42.828125 66.109375 
Q 29.4375 66.109375 22.71875 58.640625 
Q 16.015625 51.171875 16.015625 36.375 
Q 16.015625 21.625 22.71875 14.15625 
Q 29.4375 6.6875 42.828125 6.6875 
Q 48.046875 6.6875 52.140625 7.59375 
Q 56.25 8.5 59.515625 10.40625 
z
" id="DejaVuSans-71"/>
      <path d="M 31 75.875 
Q 24.46875 64.65625 21.28125 53.65625 
Q 18.109375 42.671875 18.109375 31.390625 
Q 18.109375 20.125 21.3125 9.0625 
Q 24.515625 -2 31 -13.1875 
L 23.1875 -13.1875 
Q 15.875 -1.703125 12.234375 9.375 
Q 8.59375 20.453125 8.59375 31.390625 
Q 8.59375 42.28125 12.203125 53.3125 
Q 15.828125 64.359375 23.1875 75.875 
z
" id="DejaVuSans-40"/>
      <path d="M 54.890625 33.015625 
L 54.890625 0 
L 45.90625 0 
L 45.90625 32.71875 
Q 45.90625 40.484375 42.875 44.328125 
Q 39.84375 48.1875 33.796875 48.1875 
Q 26.515625 48.1875 22.3125 43.546875 
Q 18.109375 38.921875 18.109375 30.90625 
L 18.109375 0 
L 9.078125 0 
L 9.078125 75.984375 
L 18.109375 75.984375 
L 18.109375 46.1875 
Q 21.34375 51.125 25.703125 53.5625 
Q 30.078125 56 35.796875 56 
Q 45.21875 56 50.046875 50.171875 
Q 54.890625 44.34375 54.890625 33.015625 
z
" id="DejaVuSans-104"/>
      <path d="M 11.71875 12.40625 
L 22.015625 12.40625 
L 22.015625 4 
L 14.015625 -11.625 
L 7.71875 -11.625 
L 11.71875 4 
z
" id="DejaVuSans-44"/>
      <path d="M 8.015625 75.875 
L 15.828125 75.875 
Q 23.140625 64.359375 26.78125 53.3125 
Q 30.421875 42.28125 30.421875 31.390625 
Q 30.421875 20.453125 26.78125 9.375 
Q 23.140625 -1.703125 15.828125 -13.1875 
L 8.015625 -13.1875 
Q 14.5 -2 17.703125 9.0625 
Q 20.90625 20.125 20.90625 31.390625 
Q 20.90625 42.671875 17.703125 53.65625 
Q 14.5 64.65625 8.015625 75.875 
z
" id="DejaVuSans-41"/>
      <path d="M 8.5 21.578125 
L 8.5 54.6875 
L 17.484375 54.6875 
L 17.484375 21.921875 
Q 17.484375 14.15625 20.5 10.265625 
Q 23.53125 6.390625 29.59375 6.390625 
Q 36.859375 6.390625 41.078125 11.03125 
Q 45.3125 15.671875 45.3125 23.6875 
L 45.3125 54.6875 
L 54.296875 54.6875 
L 54.296875 0 
L 45.3125 0 
L 45.3125 8.40625 
Q 42.046875 3.421875 37.71875 1 
Q 33.40625 -1.421875 27.6875 -1.421875 
Q 18.265625 -1.421875 13.375 4.4375 
Q 8.5 10.296875 8.5 21.578125 
z
M 31.109375 56 
z
" id="DejaVuSans-117"/>
      <path d="M 45.40625 27.984375 
Q 45.40625 37.75 41.375 43.109375 
Q 37.359375 48.484375 30.078125 48.484375 
Q 22.859375 48.484375 18.828125 43.109375 
Q 14.796875 37.75 14.796875 27.984375 
Q 14.796875 18.265625 18.828125 12.890625 
Q 22.859375 7.515625 30.078125 7.515625 
Q 37.359375 7.515625 41.375 12.890625 
Q 45.40625 18.265625 45.40625 27.984375 
z
M 54.390625 6.78125 
Q 54.390625 -7.171875 48.1875 -13.984375 
Q 42 -20.796875 29.203125 -20.796875 
Q 24.46875 -20.796875 20.265625 -20.09375 
Q 16.0625 -19.390625 12.109375 -17.921875 
L 12.109375 -9.1875 
Q 16.0625 -11.328125 19.921875 -12.34375 
Q 23.78125 -13.375 27.78125 -13.375 
Q 36.625 -13.375 41.015625 -8.765625 
Q 45.40625 -4.15625 45.40625 5.171875 
L 45.40625 9.625 
Q 42.625 4.78125 38.28125 2.390625 
Q 33.9375 0 27.875 0 
Q 17.828125 0 11.671875 7.65625 
Q 5.515625 15.328125 5.515625 27.984375 
Q 5.515625 40.671875 11.671875 48.328125 
Q 17.828125 56 27.875 56 
Q 33.9375 56 38.28125 53.609375 
Q 42.625 51.21875 45.40625 46.390625 
L 45.40625 54.6875 
L 54.390625 54.6875 
z
" id="DejaVuSans-103"/>
      <path d="M 34.28125 27.484375 
Q 23.390625 27.484375 19.1875 25 
Q 14.984375 22.515625 14.984375 16.5 
Q 14.984375 11.71875 18.140625 8.90625 
Q 21.296875 6.109375 26.703125 6.109375 
Q 34.1875 6.109375 38.703125 11.40625 
Q 43.21875 16.703125 43.21875 25.484375 
L 43.21875 27.484375 
z
M 52.203125 31.203125 
L 52.203125 0 
L 43.21875 0 
L 43.21875 8.296875 
Q 40.140625 3.328125 35.546875 0.953125 
Q 30.953125 -1.421875 24.3125 -1.421875 
Q 15.921875 -1.421875 10.953125 3.296875 
Q 6 8.015625 6 15.921875 
Q 6 25.140625 12.171875 29.828125 
Q 18.359375 34.515625 30.609375 34.515625 
L 43.21875 34.515625 
L 43.21875 35.40625 
Q 43.21875 41.609375 39.140625 45 
Q 35.0625 48.390625 27.6875 48.390625 
Q 23 48.390625 18.546875 47.265625 
Q 14.109375 46.140625 10.015625 43.890625 
L 10.015625 52.203125 
Q 14.9375 54.109375 19.578125 55.046875 
Q 24.21875 56 28.609375 56 
Q 40.484375 56 46.34375 49.84375 
Q 52.203125 43.703125 52.203125 31.203125 
z
" id="DejaVuSans-97"/>
      <path d="M 48.78125 52.59375 
L 48.78125 44.1875 
Q 44.96875 46.296875 41.140625 47.34375 
Q 37.3125 48.390625 33.40625 48.390625 
Q 24.65625 48.390625 19.8125 42.84375 
Q 14.984375 37.3125 14.984375 27.296875 
Q 14.984375 17.28125 19.8125 11.734375 
Q 24.65625 6.203125 33.40625 6.203125 
Q 37.3125 6.203125 41.140625 7.25 
Q 44.96875 8.296875 48.78125 10.40625 
L 48.78125 2.09375 
Q 45.015625 0.34375 40.984375 -0.53125 
Q 36.96875 -1.421875 32.421875 -1.421875 
Q 20.0625 -1.421875 12.78125 6.34375 
Q 5.515625 14.109375 5.515625 27.296875 
Q 5.515625 40.671875 12.859375 48.328125 
Q 20.21875 56 33.015625 56 
Q 37.15625 56 41.109375 55.140625 
Q 45.0625 54.296875 48.78125 52.59375 
z
" id="DejaVuSans-99"/>
      <path d="M 52 44.1875 
Q 55.375 50.25 60.0625 53.125 
Q 64.75 56 71.09375 56 
Q 79.640625 56 84.28125 50.015625 
Q 88.921875 44.046875 88.921875 33.015625 
L 88.921875 0 
L 79.890625 0 
L 79.890625 32.71875 
Q 79.890625 40.578125 77.09375 44.375 
Q 74.3125 48.1875 68.609375 48.1875 
Q 61.625 48.1875 57.5625 43.546875 
Q 53.515625 38.921875 53.515625 30.90625 
L 53.515625 0 
L 44.484375 0 
L 44.484375 32.71875 
Q 44.484375 40.625 41.703125 44.40625 
Q 38.921875 48.1875 33.109375 48.1875 
Q 26.21875 48.1875 22.15625 43.53125 
Q 18.109375 38.875 18.109375 30.90625 
L 18.109375 0 
L 9.078125 0 
L 9.078125 54.6875 
L 18.109375 54.6875 
L 18.109375 46.1875 
Q 21.1875 51.21875 25.484375 53.609375 
Q 29.78125 56 35.6875 56 
Q 41.65625 56 45.828125 52.96875 
Q 50 49.953125 52 44.1875 
z
" id="DejaVuSans-109"/>
      <path d="M 45.40625 46.390625 
L 45.40625 75.984375 
L 54.390625 75.984375 
L 54.390625 0 
L 45.40625 0 
L 45.40625 8.203125 
Q 42.578125 3.328125 38.25 0.953125 
Q 33.9375 -1.421875 27.875 -1.421875 
Q 17.96875 -1.421875 11.734375 6.484375 
Q 5.515625 14.40625 5.515625 27.296875 
Q 5.515625 40.1875 11.734375 48.09375 
Q 17.96875 56 27.875 56 
Q 33.9375 56 38.25 53.625 
Q 42.578125 51.265625 45.40625 46.390625 
z
M 14.796875 27.296875 
Q 14.796875 17.390625 18.875 11.75 
Q 22.953125 6.109375 30.078125 6.109375 
Q 37.203125 6.109375 41.296875 11.75 
Q 45.40625 17.390625 45.40625 27.296875 
Q 45.40625 37.203125 41.296875 42.84375 
Q 37.203125 48.484375 30.078125 48.484375 
Q 22.953125 48.484375 18.875 42.84375 
Q 14.796875 37.203125 14.796875 27.296875 
z
" id="DejaVuSans-100"/>
      <path d="M 41.109375 46.296875 
Q 39.59375 47.171875 37.8125 47.578125 
Q 36.03125 48 33.890625 48 
Q 26.265625 48 22.1875 43.046875 
Q 18.109375 38.09375 18.109375 28.8125 
L 18.109375 0 
L 9.078125 0 
L 9.078125 54.6875 
L 18.109375 54.6875 
L 18.109375 46.1875 
Q 20.953125 51.171875 25.484375 53.578125 
Q 30.03125 56 36.53125 56 
Q 37.453125 56 38.578125 55.875 
Q 39.703125 55.765625 41.0625 55.515625 
z
" id="DejaVuSans-114"/>
      <path d="M 16.75 30.609375 
Q 17.09375 27 20.171875 21.140625 
Q 23.78125 14.359375 30.609375 10.546875 
Q 37.3125 6.84375 44.53125 6.78125 
L 78.5625 6.78125 
L 78.5625 -0.984375 
L 44.53125 -0.984375 
Q 35.15625 -0.984375 26.484375 3.84375 
Q 17.828125 8.6875 13.1875 17.28125 
Q 8.546875 25.875 8.546875 35.015625 
Q 8.546875 44.046875 13.1875 52.640625 
Q 17.828125 61.234375 26.484375 66.109375 
Q 35.15625 71 44.53125 71 
L 78.5625 71 
L 78.5625 63.234375 
L 44.53125 63.234375 
Q 37.3125 63.1875 30.609375 59.421875 
Q 23.828125 55.5625 20.171875 48.828125 
Q 17.046875 42.96875 16.609375 38.421875 
L 78.5625 38.421875 
L 78.5625 30.609375 
z
" id="DejaVuSans-8712"/>
      <path d="M 51.125 -9.28125 
L 51.125 -16.3125 
L 48.09375 -16.3125 
Q 35.9375 -16.3125 31.8125 -12.6875 
Q 27.6875 -9.078125 27.6875 1.703125 
L 27.6875 13.375 
Q 27.6875 20.75 25.046875 23.578125 
Q 22.40625 26.421875 15.484375 26.421875 
L 12.5 26.421875 
L 12.5 33.40625 
L 15.484375 33.40625 
Q 22.46875 33.40625 25.078125 36.203125 
Q 27.6875 39.015625 27.6875 46.296875 
L 27.6875 58.015625 
Q 27.6875 68.796875 31.8125 72.390625 
Q 35.9375 75.984375 48.09375 75.984375 
L 51.125 75.984375 
L 51.125 69 
L 47.796875 69 
Q 40.921875 69 38.8125 66.84375 
Q 36.71875 64.703125 36.71875 57.8125 
L 36.71875 45.703125 
Q 36.71875 38.03125 34.5 34.5625 
Q 32.28125 31.109375 26.90625 29.890625 
Q 32.328125 28.5625 34.515625 25.09375 
Q 36.71875 21.625 36.71875 14.015625 
L 36.71875 1.90625 
Q 36.71875 -4.984375 38.8125 -7.125 
Q 40.921875 -9.28125 47.796875 -9.28125 
z
" id="DejaVuSans-123"/>
      <path d="M 12.5 -9.28125 
L 15.921875 -9.28125 
Q 22.75 -9.28125 24.828125 -7.171875 
Q 26.90625 -5.078125 26.90625 1.90625 
L 26.90625 14.015625 
Q 26.90625 21.625 29.09375 25.09375 
Q 31.296875 28.5625 36.71875 29.890625 
Q 31.296875 31.109375 29.09375 34.5625 
Q 26.90625 38.03125 26.90625 45.703125 
L 26.90625 57.8125 
Q 26.90625 64.75 24.828125 66.875 
Q 22.75 69 15.921875 69 
L 12.5 69 
L 12.5 75.984375 
L 15.578125 75.984375 
Q 27.734375 75.984375 31.8125 72.390625 
Q 35.890625 68.796875 35.890625 58.015625 
L 35.890625 46.296875 
Q 35.890625 39.015625 38.515625 36.203125 
Q 41.15625 33.40625 48.09375 33.40625 
L 51.125 33.40625 
L 51.125 26.421875 
L 48.09375 26.421875 
Q 41.15625 26.421875 38.515625 23.578125 
Q 35.890625 20.75 35.890625 13.375 
L 35.890625 1.703125 
Q 35.890625 -9.078125 31.8125 -12.6875 
Q 27.734375 -16.3125 15.578125 -16.3125 
L 12.5 -16.3125 
z
" id="DejaVuSans-125"/>
     </defs>
     <use transform="translate(0 0.015625)" xlink:href="#DejaVuSans-68"/>
     <use transform="translate(77.001953 0.015625)" xlink:href="#DejaVuSans-101"/>
     <use transform="translate(138.525391 0.015625)" xlink:href="#DejaVuSans-110"/>
     <use transform="translate(201.904297 0.015625)" xlink:href="#DejaVuSans-115"/>
     <use transform="translate(254.003906 0.015625)" xlink:href="#DejaVuSans-105"/>
     <use transform="translate(281.787109 0.015625)" xlink:href="#DejaVuSans-116"/>
     <use transform="translate(320.996094 0.015625)" xlink:href="#DejaVuSans-121"/>
     <use transform="translate(380.175781 0.015625)" xlink:href="#DejaVuSans-32"/>
     <use transform="translate(411.962891 0.015625)" xlink:href="#DejaVuSans-112"/>
     <use transform="translate(475.439453 0.015625)" xlink:href="#DejaVuSans-108"/>
     <use transform="translate(503.222656 0.015625)" xlink:href="#DejaVuSans-111"/>
     <use transform="translate(564.404297 0.015625)" xlink:href="#DejaVuSans-116"/>
     <use transform="translate(603.613281 0.015625)" xlink:href="#DejaVuSans-115"/>
     <use transform="translate(655.712891 0.015625)" xlink:href="#DejaVuSans-32"/>
     <use transform="translate(687.5 0.015625)" xlink:href="#DejaVuSans-111"/>
     <use transform="translate(748.681641 0.015625)" xlink:href="#DejaVuSans-102"/>
     <use transform="translate(783.886719 0.015625)" xlink:href="#DejaVuSans-32"/>
     <use transform="translate(815.673828 0.015625)" xlink:href="#DejaVuSans-80"/>
     <use transform="translate(875.976562 0.015625)" xlink:href="#DejaVuSans-71"/>
     <use transform="translate(953.466797 0.015625)" xlink:href="#DejaVuSans-40"/>
     <use transform="translate(992.480469 0.015625)" xlink:href="#DejaVuSans-104"/>
     <use transform="translate(1055.859375 0.015625)" xlink:href="#DejaVuSans-44"/>
     <use transform="translate(1087.646484 0.015625)" xlink:href="#DejaVuSans-32"/>
     <use transform="translate(1119.433594 0.015625)" xlink:href="#DejaVuSans-48"/>
     <use transform="translate(1183.056641 0.015625)" xlink:href="#DejaVuSans-41"/>
     <use transform="translate(1222.070312 0.015625)" xlink:href="#DejaVuSans-32"/>
     <use transform="translate(1253.857422 0.015625)" xlink:href="#DejaVuSans-117"/>
     <use transform="translate(1317.236328 0.015625)" xlink:href="#DejaVuSans-115"/>
     <use transform="translate(1369.335938 0.015625)" xlink:href="#DejaVuSans-105"/>
     <use transform="translate(1397.119141 0.015625)" xlink:href="#DejaVuSans-110"/>
     <use transform="translate(1460.498047 0.015625)" xlink:href="#DejaVuSans-103"/>
     <use transform="translate(1523.974609 0.015625)" xlink:href="#DejaVuSans-32"/>
     <use transform="translate(1555.761719 0.015625)" xlink:href="#DejaVuSans-101"/>
     <use transform="translate(1617.285156 0.015625)" xlink:href="#DejaVuSans-97"/>
     <use transform="translate(1678.564453 0.015625)" xlink:href="#DejaVuSans-99"/>
     <use transform="translate(1733.544922 0.015625)" xlink:href="#DejaVuSans-104"/>
     <use transform="translate(1796.923828 0.015625)" xlink:href="#DejaVuSans-32"/>
     <use transform="translate(1828.710938 0.015625)" xlink:href="#DejaVuSans-109"/>
     <use transform="translate(1926.123047 0.015625)" xlink:href="#DejaVuSans-101"/>
     <use transform="translate(1987.646484 0.015625)" xlink:href="#DejaVuSans-116"/>
     <use transform="translate(2026.855469 0.015625)" xlink:href="#DejaVuSans-104"/>
     <use transform="translate(2090.234375 0.015625)" xlink:href="#DejaVuSans-111"/>
     <use transform="translate(2151.416016 0.015625)" xlink:href="#DejaVuSans-100"/>
     <use transform="translate(2214.892578 0.015625)" xlink:href="#DejaVuSans-32"/>
     <use transform="translate(2246.679688 0.015625)" xlink:href="#DejaVuSans-102"/>
     <use transform="translate(2281.884766 0.015625)" xlink:href="#DejaVuSans-111"/>
     <use transform="translate(2343.066406 0.015625)" xlink:href="#DejaVuSans-114"/>
     <use transform="translate(2384.179688 0.015625)" xlink:href="#DejaVuSans-32"/>
     <use transform="translate(2415.966797 0.015625)" xlink:href="#DejaVuSans-104"/>
     <use transform="translate(2479.345703 0.015625)" xlink:href="#DejaVuSans-32"/>
     <use transform="translate(2530.615234 0.015625)" xlink:href="#DejaVuSans-8712"/>
     <use transform="translate(2637.207031 0.015625)" xlink:href="#DejaVuSans-32"/>
     <use transform="translate(2668.994141 0.015625)" xlink:href="#DejaVuSans-123"/>
     <use transform="translate(2732.617188 0.015625)" xlink:href="#DejaVuSans-49"/>
     <use transform="translate(2796.240234 0.015625)" xlink:href="#DejaVuSans-44"/>
     <use transform="translate(2828.027344 0.015625)" xlink:href="#DejaVuSans-52"/>
     <use transform="translate(2891.650391 0.015625)" xlink:href="#DejaVuSans-44"/>
     <use transform="translate(2923.4375 0.015625)" xlink:href="#DejaVuSans-55"/>
     <use transform="translate(2987.060547 0.015625)" xlink:href="#DejaVuSans-44"/>
     <use transform="translate(3018.847656 0.015625)" xlink:href="#DejaVuSans-49"/>
     <use transform="translate(3082.470703 0.015625)" xlink:href="#DejaVuSans-48"/>
     <use transform="translate(3146.09375 0.015625)" xlink:href="#DejaVuSans-44"/>
     <use transform="translate(3177.880859 0.015625)" xlink:href="#DejaVuSans-49"/>
     <use transform="translate(3241.503906 0.015625)" xlink:href="#DejaVuSans-53"/>
     <use transform="translate(3303.376953 0.015625)" xlink:href="#DejaVuSans-125"/>
     <use transform="translate(3367 0.015625)" xlink:href="#DejaVuSans-46"/>
    </g>
   </g>
   <g id="legend_1">
    <g id="patch_7">
     <path d="M 330.265313 108.1845 
L 407.72 108.1845 
Q 409.72 108.1845 409.72 106.1845 
L 409.72 48.472 
Q 409.72 46.472 407.72 46.472 
L 330.265313 46.472 
Q 328.265313 46.472 328.265313 48.472 
L 328.265313 106.1845 
Q 328.265313 108.1845 330.265313 108.1845 
z
" style="fill:#eaeaf2;opacity:0.8;stroke:#cccccc;stroke-linejoin:miter;"/>
    </g>
    <g id="line2d_39">
     <path d="M 332.265313 54.570438 
L 352.265313 54.570438 
" style="fill:none;stroke:#1f77b4;stroke-linecap:round;stroke-width:1.5;"/>
    </g>
    <g id="line2d_40"/>
    <g id="text_21">
     <!-- devroye -->
     <g style="fill:#262626;" transform="translate(360.265313 58.070438)scale(0.1 -0.1)">
      <defs>
       <path d="M 2.984375 54.6875 
L 12.5 54.6875 
L 29.59375 8.796875 
L 46.6875 54.6875 
L 56.203125 54.6875 
L 35.6875 0 
L 23.484375 0 
z
" id="DejaVuSans-118"/>
      </defs>
      <use xlink:href="#DejaVuSans-100"/>
      <use x="63.476562" xlink:href="#DejaVuSans-101"/>
      <use x="125" xlink:href="#DejaVuSans-118"/>
      <use x="184.179688" xlink:href="#DejaVuSans-114"/>
      <use x="223.042969" xlink:href="#DejaVuSans-111"/>
      <use x="284.224609" xlink:href="#DejaVuSans-121"/>
      <use x="343.404297" xlink:href="#DejaVuSans-101"/>
     </g>
    </g>
    <g id="line2d_41">
     <path d="M 332.265313 69.248563 
L 352.265313 69.248563 
" style="fill:none;stroke:#ff7f0e;stroke-linecap:round;stroke-width:1.5;"/>
    </g>
    <g id="line2d_42"/>
    <g id="text_22">
     <!-- alternate -->
     <g style="fill:#262626;" transform="translate(360.265313 72.748563)scale(0.1 -0.1)">
      <use xlink:href="#DejaVuSans-97"/>
      <use x="61.279297" xlink:href="#DejaVuSans-108"/>
      <use x="89.0625" xlink:href="#DejaVuSans-116"/>
      <use x="128.271484" xlink:href="#DejaVuSans-101"/>
      <use x="189.794922" xlink:href="#DejaVuSans-114"/>
      <use x="229.158203" xlink:href="#DejaVuSans-110"/>
      <use x="292.537109" xlink:href="#DejaVuSans-97"/>
      <use x="353.816406" xlink:href="#DejaVuSans-116"/>
      <use x="393.025391" xlink:href="#DejaVuSans-101"/>
     </g>
    </g>
    <g id="line2d_43">
     <path d="M 332.265313 83.926688 
L 352.265313 83.926688 
" style="fill:none;stroke:#2ca02c;stroke-linecap:round;stroke-width:1.5;"/>
    </g>
    <g id="line2d_44"/>
    <g id="text_23">
     <!-- gamma -->
     <g style="fill:#262626;" transform="translate(360.265313 87.426688)scale(0.1 -0.1)">
      <use xlink:href="#DejaVuSans-103"/>
      <use x="63.476562" xlink:href="#DejaVuSans-97"/>
      <use x="124.755859" xlink:href="#DejaVuSans-109"/>
      <use x="222.167969" xlink:href="#DejaVuSans-109"/>
      <use x="319.580078" xlink:href="#DejaVuSans-97"/>
     </g>
    </g>
    <g id="line2d_45">
     <path d="M 332.265313 98.604813 
L 352.265313 98.604813 
" style="fill:none;stroke:#d62728;stroke-linecap:round;stroke-width:1.5;"/>
    </g>
    <g id="line2d_46"/>
    <g id="text_24">
     <!-- saddle -->
     <g style="fill:#262626;" transform="translate(360.265313 102.104813)scale(0.1 -0.1)">
      <use xlink:href="#DejaVuSans-115"/>
      <use x="52.099609" xlink:href="#DejaVuSans-97"/>
      <use x="113.378906" xlink:href="#DejaVuSans-100"/>
      <use x="176.855469" xlink:href="#DejaVuSans-100"/>
      <use x="240.332031" xlink:href="#DejaVuSans-108"/>
      <use x="268.115234" xlink:href="#DejaVuSans-101"/>
     </g>
    </g>
   </g>
  </g>
 </g>
 <defs>
  <clipPath id="pd0958aa75c">
   <rect height="266.112" width="357.12" x="57.6" y="41.472"/>
  </clipPath>
 </defs>
</svg>
