<?xml version="1.0" encoding="utf-8" standalone="no"?>
<!DOCTYPE svg PUBLIC "-//W3C//DTD SVG 1.1//EN"
  "http://www.w3.org/Graphics/SVG/1.1/DTD/svg11.dtd">
<!-- Created with matplotlib (https://matplotlib.org/) -->
<svg height="345.6pt" version="1.1" viewBox="0 0 460.8 345.6" width="460.8pt" xmlns="http://www.w3.org/2000/svg" xmlns:xlink="http://www.w3.org/1999/xlink">
 <metadata>
  <rdf:RDF xmlns:cc="http://creativecommons.org/ns#" xmlns:dc="http://purl.org/dc/elements/1.1/" xmlns:rdf="http://www.w3.org/1999/02/22-rdf-syntax-ns#">
   <cc:Work>
    <dc:type rdf:resource="http://purl.org/dc/dcmitype/StillImage"/>
    <dc:date>2021-02-04T13:48:39.742210</dc:date>
    <dc:format>image/svg+xml</dc:format>
    <dc:creator>
     <cc:Agent>
      <dc:title>Matplotlib v3.3.3, https://matplotlib.org/</dc:title>
     </cc:Agent>
    </dc:creator>
   </cc:Work>
  </rdf:RDF>
 </metadata>
 <defs>
  <style type="text/css">*{stroke-linecap:butt;stroke-linejoin:round;}</style>
 </defs>
 <g id="figure_1">
  <g id="patch_1">
   <path d="M 0 345.6 
L 460.8 345.6 
L 460.8 0 
L 0 0 
z
" style="fill:#ffffff;"/>
  </g>
  <g id="axes_1">
   <g id="patch_2">
    <path d="M 57.6 307.584 
L 414.72 307.584 
L 414.72 41.472 
L 57.6 41.472 
z
" style="fill:#eaeaf2;"/>
   </g>
   <g id="matplotlib.axis_1">
    <g id="xtick_1">
     <g id="line2d_1">
      <path clip-path="url(#pea7686615a)" d="M 76.203999 307.584 
L 76.203999 41.472 
" style="fill:none;stroke:#ffffff;stroke-linecap:round;stroke-width:0.8;"/>
     </g>
     <g id="text_1">
      <!-- 0 -->
      <g style="fill:#262626;" transform="translate(73.022749 322.182437)scale(0.1 -0.1)">
       <defs>
        <path d="M 31.78125 66.40625 
Q 24.171875 66.40625 20.328125 58.90625 
Q 16.5 51.421875 16.5 36.375 
Q 16.5 21.390625 20.328125 13.890625 
Q 24.171875 6.390625 31.78125 6.390625 
Q 39.453125 6.390625 43.28125 13.890625 
Q 47.125 21.390625 47.125 36.375 
Q 47.125 51.421875 43.28125 58.90625 
Q 39.453125 66.40625 31.78125 66.40625 
z
M 31.78125 74.21875 
Q 44.046875 74.21875 50.515625 64.515625 
Q 56.984375 54.828125 56.984375 36.375 
Q 56.984375 17.96875 50.515625 8.265625 
Q 44.046875 -1.421875 31.78125 -1.421875 
Q 19.53125 -1.421875 13.0625 8.265625 
Q 6.59375 17.96875 6.59375 36.375 
Q 6.59375 54.828125 13.0625 64.515625 
Q 19.53125 74.21875 31.78125 74.21875 
z
" id="DejaVuSans-48"/>
       </defs>
       <use xlink:href="#DejaVuSans-48"/>
      </g>
     </g>
    </g>
    <g id="xtick_2">
     <g id="line2d_2">
      <path clip-path="url(#pea7686615a)" d="M 143.170886 307.584 
L 143.170886 41.472 
" style="fill:none;stroke:#ffffff;stroke-linecap:round;stroke-width:0.8;"/>
     </g>
     <g id="text_2">
      <!-- 2 -->
      <g style="fill:#262626;" transform="translate(139.989636 322.182437)scale(0.1 -0.1)">
       <defs>
        <path d="M 19.1875 8.296875 
L 53.609375 8.296875 
L 53.609375 0 
L 7.328125 0 
L 7.328125 8.296875 
Q 12.9375 14.109375 22.625 23.890625 
Q 32.328125 33.6875 34.8125 36.53125 
Q 39.546875 41.84375 41.421875 45.53125 
Q 43.3125 49.21875 43.3125 52.78125 
Q 43.3125 58.59375 39.234375 62.25 
Q 35.15625 65.921875 28.609375 65.921875 
Q 23.96875 65.921875 18.8125 64.3125 
Q 13.671875 62.703125 7.8125 59.421875 
L 7.8125 69.390625 
Q 13.765625 71.78125 18.9375 73 
Q 24.125 74.21875 28.421875 74.21875 
Q 39.75 74.21875 46.484375 68.546875 
Q 53.21875 62.890625 53.21875 53.421875 
Q 53.21875 48.921875 51.53125 44.890625 
Q 49.859375 40.875 45.40625 35.40625 
Q 44.1875 33.984375 37.640625 27.21875 
Q 31.109375 20.453125 19.1875 8.296875 
z
" id="DejaVuSans-50"/>
       </defs>
       <use xlink:href="#DejaVuSans-50"/>
      </g>
     </g>
    </g>
    <g id="xtick_3">
     <g id="line2d_3">
      <path clip-path="url(#pea7686615a)" d="M 210.137774 307.584 
L 210.137774 41.472 
" style="fill:none;stroke:#ffffff;stroke-linecap:round;stroke-width:0.8;"/>
     </g>
     <g id="text_3">
      <!-- 4 -->
      <g style="fill:#262626;" transform="translate(206.956524 322.182437)scale(0.1 -0.1)">
       <defs>
        <path d="M 37.796875 64.3125 
L 12.890625 25.390625 
L 37.796875 25.390625 
z
M 35.203125 72.90625 
L 47.609375 72.90625 
L 47.609375 25.390625 
L 58.015625 25.390625 
L 58.015625 17.1875 
L 47.609375 17.1875 
L 47.609375 0 
L 37.796875 0 
L 37.796875 17.1875 
L 4.890625 17.1875 
L 4.890625 26.703125 
z
" id="DejaVuSans-52"/>
       </defs>
       <use xlink:href="#DejaVuSans-52"/>
      </g>
     </g>
    </g>
    <g id="xtick_4">
     <g id="line2d_4">
      <path clip-path="url(#pea7686615a)" d="M 277.104661 307.584 
L 277.104661 41.472 
" style="fill:none;stroke:#ffffff;stroke-linecap:round;stroke-width:0.8;"/>
     </g>
     <g id="text_4">
      <!-- 6 -->
      <g style="fill:#262626;" transform="translate(273.923411 322.182437)scale(0.1 -0.1)">
       <defs>
        <path d="M 33.015625 40.375 
Q 26.375 40.375 22.484375 35.828125 
Q 18.609375 31.296875 18.609375 23.390625 
Q 18.609375 15.53125 22.484375 10.953125 
Q 26.375 6.390625 33.015625 6.390625 
Q 39.65625 6.390625 43.53125 10.953125 
Q 47.40625 15.53125 47.40625 23.390625 
Q 47.40625 31.296875 43.53125 35.828125 
Q 39.65625 40.375 33.015625 40.375 
z
M 52.59375 71.296875 
L 52.59375 62.3125 
Q 48.875 64.0625 45.09375 64.984375 
Q 41.3125 65.921875 37.59375 65.921875 
Q 27.828125 65.921875 22.671875 59.328125 
Q 17.53125 52.734375 16.796875 39.40625 
Q 19.671875 43.65625 24.015625 45.921875 
Q 28.375 48.1875 33.59375 48.1875 
Q 44.578125 48.1875 50.953125 41.515625 
Q 57.328125 34.859375 57.328125 23.390625 
Q 57.328125 12.15625 50.6875 5.359375 
Q 44.046875 -1.421875 33.015625 -1.421875 
Q 20.359375 -1.421875 13.671875 8.265625 
Q 6.984375 17.96875 6.984375 36.375 
Q 6.984375 53.65625 15.1875 63.9375 
Q 23.390625 74.21875 37.203125 74.21875 
Q 40.921875 74.21875 44.703125 73.484375 
Q 48.484375 72.75 52.59375 71.296875 
z
" id="DejaVuSans-54"/>
       </defs>
       <use xlink:href="#DejaVuSans-54"/>
      </g>
     </g>
    </g>
    <g id="xtick_5">
     <g id="line2d_5">
      <path clip-path="url(#pea7686615a)" d="M 344.071548 307.584 
L 344.071548 41.472 
" style="fill:none;stroke:#ffffff;stroke-linecap:round;stroke-width:0.8;"/>
     </g>
     <g id="text_5">
      <!-- 8 -->
      <g style="fill:#262626;" transform="translate(340.890298 322.182437)scale(0.1 -0.1)">
       <defs>
        <path d="M 31.78125 34.625 
Q 24.75 34.625 20.71875 30.859375 
Q 16.703125 27.09375 16.703125 20.515625 
Q 16.703125 13.921875 20.71875 10.15625 
Q 24.75 6.390625 31.78125 6.390625 
Q 38.8125 6.390625 42.859375 10.171875 
Q 46.921875 13.96875 46.921875 20.515625 
Q 46.921875 27.09375 42.890625 30.859375 
Q 38.875 34.625 31.78125 34.625 
z
M 21.921875 38.8125 
Q 15.578125 40.375 12.03125 44.71875 
Q 8.5 49.078125 8.5 55.328125 
Q 8.5 64.0625 14.71875 69.140625 
Q 20.953125 74.21875 31.78125 74.21875 
Q 42.671875 74.21875 48.875 69.140625 
Q 55.078125 64.0625 55.078125 55.328125 
Q 55.078125 49.078125 51.53125 44.71875 
Q 48 40.375 41.703125 38.8125 
Q 48.828125 37.15625 52.796875 32.3125 
Q 56.78125 27.484375 56.78125 20.515625 
Q 56.78125 9.90625 50.3125 4.234375 
Q 43.84375 -1.421875 31.78125 -1.421875 
Q 19.734375 -1.421875 13.25 4.234375 
Q 6.78125 9.90625 6.78125 20.515625 
Q 6.78125 27.484375 10.78125 32.3125 
Q 14.796875 37.15625 21.921875 38.8125 
z
M 18.3125 54.390625 
Q 18.3125 48.734375 21.84375 45.5625 
Q 25.390625 42.390625 31.78125 42.390625 
Q 38.140625 42.390625 41.71875 45.5625 
Q 45.3125 48.734375 45.3125 54.390625 
Q 45.3125 60.0625 41.71875 63.234375 
Q 38.140625 66.40625 31.78125 66.40625 
Q 25.390625 66.40625 21.84375 63.234375 
Q 18.3125 60.0625 18.3125 54.390625 
z
" id="DejaVuSans-56"/>
       </defs>
       <use xlink:href="#DejaVuSans-56"/>
      </g>
     </g>
    </g>
    <g id="xtick_6">
     <g id="line2d_6">
      <path clip-path="url(#pea7686615a)" d="M 411.038435 307.584 
L 411.038435 41.472 
" style="fill:none;stroke:#ffffff;stroke-linecap:round;stroke-width:0.8;"/>
     </g>
     <g id="text_6">
      <!-- 10 -->
      <g style="fill:#262626;" transform="translate(404.675935 322.182437)scale(0.1 -0.1)">
       <defs>
        <path d="M 12.40625 8.296875 
L 28.515625 8.296875 
L 28.515625 63.921875 
L 10.984375 60.40625 
L 10.984375 69.390625 
L 28.421875 72.90625 
L 38.28125 72.90625 
L 38.28125 8.296875 
L 54.390625 8.296875 
L 54.390625 0 
L 12.40625 0 
z
" id="DejaVuSans-49"/>
       </defs>
       <use xlink:href="#DejaVuSans-49"/>
       <use x="63.623047" xlink:href="#DejaVuSans-48"/>
      </g>
     </g>
    </g>
   </g>
   <g id="matplotlib.axis_2">
    <g id="ytick_1">
     <g id="line2d_7">
      <path clip-path="url(#pea7686615a)" d="M 57.6 307.584 
L 414.72 307.584 
" style="fill:none;stroke:#ffffff;stroke-linecap:round;stroke-width:0.8;"/>
     </g>
     <g id="text_7">
      <!-- 0.0 -->
      <g style="fill:#262626;" transform="translate(34.696875 311.383219)scale(0.1 -0.1)">
       <defs>
        <path d="M 10.6875 12.40625 
L 21 12.40625 
L 21 0 
L 10.6875 0 
z
" id="DejaVuSans-46"/>
       </defs>
       <use xlink:href="#DejaVuSans-48"/>
       <use x="63.623047" xlink:href="#DejaVuSans-46"/>
       <use x="95.410156" xlink:href="#DejaVuSans-48"/>
      </g>
     </g>
    </g>
    <g id="ytick_2">
     <g id="line2d_8">
      <path clip-path="url(#pea7686615a)" d="M 57.6 272.779783 
L 414.72 272.779783 
" style="fill:none;stroke:#ffffff;stroke-linecap:round;stroke-width:0.8;"/>
     </g>
     <g id="text_8">
      <!-- 0.1 -->
      <g style="fill:#262626;" transform="translate(34.696875 276.579002)scale(0.1 -0.1)">
       <use xlink:href="#DejaVuSans-48"/>
       <use x="63.623047" xlink:href="#DejaVuSans-46"/>
       <use x="95.410156" xlink:href="#DejaVuSans-49"/>
      </g>
     </g>
    </g>
    <g id="ytick_3">
     <g id="line2d_9">
      <path clip-path="url(#pea7686615a)" d="M 57.6 237.975567 
L 414.72 237.975567 
" style="fill:none;stroke:#ffffff;stroke-linecap:round;stroke-width:0.8;"/>
     </g>
     <g id="text_9">
      <!-- 0.2 -->
      <g style="fill:#262626;" transform="translate(34.696875 241.774786)scale(0.1 -0.1)">
       <use xlink:href="#DejaVuSans-48"/>
       <use x="63.623047" xlink:href="#DejaVuSans-46"/>
       <use x="95.410156" xlink:href="#DejaVuSans-50"/>
      </g>
     </g>
    </g>
    <g id="ytick_4">
     <g id="line2d_10">
      <path clip-path="url(#pea7686615a)" d="M 57.6 203.17135 
L 414.72 203.17135 
" style="fill:none;stroke:#ffffff;stroke-linecap:round;stroke-width:0.8;"/>
     </g>
     <g id="text_10">
      <!-- 0.3 -->
      <g style="fill:#262626;" transform="translate(34.696875 206.970569)scale(0.1 -0.1)">
       <defs>
        <path d="M 40.578125 39.3125 
Q 47.65625 37.796875 51.625 33 
Q 55.609375 28.21875 55.609375 21.1875 
Q 55.609375 10.40625 48.1875 4.484375 
Q 40.765625 -1.421875 27.09375 -1.421875 
Q 22.515625 -1.421875 17.65625 -0.515625 
Q 12.796875 0.390625 7.625 2.203125 
L 7.625 11.71875 
Q 11.71875 9.328125 16.59375 8.109375 
Q 21.484375 6.890625 26.8125 6.890625 
Q 36.078125 6.890625 40.9375 10.546875 
Q 45.796875 14.203125 45.796875 21.1875 
Q 45.796875 27.640625 41.28125 31.265625 
Q 36.765625 34.90625 28.71875 34.90625 
L 20.21875 34.90625 
L 20.21875 43.015625 
L 29.109375 43.015625 
Q 36.375 43.015625 40.234375 45.921875 
Q 44.09375 48.828125 44.09375 54.296875 
Q 44.09375 59.90625 40.109375 62.90625 
Q 36.140625 65.921875 28.71875 65.921875 
Q 24.65625 65.921875 20.015625 65.03125 
Q 15.375 64.15625 9.8125 62.3125 
L 9.8125 71.09375 
Q 15.4375 72.65625 20.34375 73.4375 
Q 25.25 74.21875 29.59375 74.21875 
Q 40.828125 74.21875 47.359375 69.109375 
Q 53.90625 64.015625 53.90625 55.328125 
Q 53.90625 49.265625 50.4375 45.09375 
Q 46.96875 40.921875 40.578125 39.3125 
z
" id="DejaVuSans-51"/>
       </defs>
       <use xlink:href="#DejaVuSans-48"/>
       <use x="63.623047" xlink:href="#DejaVuSans-46"/>
       <use x="95.410156" xlink:href="#DejaVuSans-51"/>
      </g>
     </g>
    </g>
    <g id="ytick_5">
     <g id="line2d_11">
      <path clip-path="url(#pea7686615a)" d="M 57.6 168.367134 
L 414.72 168.367134 
" style="fill:none;stroke:#ffffff;stroke-linecap:round;stroke-width:0.8;"/>
     </g>
     <g id="text_11">
      <!-- 0.4 -->
      <g style="fill:#262626;" transform="translate(34.696875 172.166353)scale(0.1 -0.1)">
       <use xlink:href="#DejaVuSans-48"/>
       <use x="63.623047" xlink:href="#DejaVuSans-46"/>
       <use x="95.410156" xlink:href="#DejaVuSans-52"/>
      </g>
     </g>
    </g>
    <g id="ytick_6">
     <g id="line2d_12">
      <path clip-path="url(#pea7686615a)" d="M 57.6 133.562917 
L 414.72 133.562917 
" style="fill:none;stroke:#ffffff;stroke-linecap:round;stroke-width:0.8;"/>
     </g>
     <g id="text_12">
      <!-- 0.5 -->
      <g style="fill:#262626;" transform="translate(34.696875 137.362136)scale(0.1 -0.1)">
       <defs>
        <path d="M 10.796875 72.90625 
L 49.515625 72.90625 
L 49.515625 64.59375 
L 19.828125 64.59375 
L 19.828125 46.734375 
Q 21.96875 47.46875 24.109375 47.828125 
Q 26.265625 48.1875 28.421875 48.1875 
Q 40.625 48.1875 47.75 41.5 
Q 54.890625 34.8125 54.890625 23.390625 
Q 54.890625 11.625 47.5625 5.09375 
Q 40.234375 -1.421875 26.90625 -1.421875 
Q 22.3125 -1.421875 17.546875 -0.640625 
Q 12.796875 0.140625 7.71875 1.703125 
L 7.71875 11.625 
Q 12.109375 9.234375 16.796875 8.0625 
Q 21.484375 6.890625 26.703125 6.890625 
Q 35.15625 6.890625 40.078125 11.328125 
Q 45.015625 15.765625 45.015625 23.390625 
Q 45.015625 31 40.078125 35.4375 
Q 35.15625 39.890625 26.703125 39.890625 
Q 22.75 39.890625 18.8125 39.015625 
Q 14.890625 38.140625 10.796875 36.28125 
z
" id="DejaVuSans-53"/>
       </defs>
       <use xlink:href="#DejaVuSans-48"/>
       <use x="63.623047" xlink:href="#DejaVuSans-46"/>
       <use x="95.410156" xlink:href="#DejaVuSans-53"/>
      </g>
     </g>
    </g>
    <g id="ytick_7">
     <g id="line2d_13">
      <path clip-path="url(#pea7686615a)" d="M 57.6 98.758701 
L 414.72 98.758701 
" style="fill:none;stroke:#ffffff;stroke-linecap:round;stroke-width:0.8;"/>
     </g>
     <g id="text_13">
      <!-- 0.6 -->
      <g style="fill:#262626;" transform="translate(34.696875 102.55792)scale(0.1 -0.1)">
       <use xlink:href="#DejaVuSans-48"/>
       <use x="63.623047" xlink:href="#DejaVuSans-46"/>
       <use x="95.410156" xlink:href="#DejaVuSans-54"/>
      </g>
     </g>
    </g>
    <g id="ytick_8">
     <g id="line2d_14">
      <path clip-path="url(#pea7686615a)" d="M 57.6 63.954484 
L 414.72 63.954484 
" style="fill:none;stroke:#ffffff;stroke-linecap:round;stroke-width:0.8;"/>
     </g>
     <g id="text_14">
      <!-- 0.7 -->
      <g style="fill:#262626;" transform="translate(34.696875 67.753703)scale(0.1 -0.1)">
       <defs>
        <path d="M 8.203125 72.90625 
L 55.078125 72.90625 
L 55.078125 68.703125 
L 28.609375 0 
L 18.3125 0 
L 43.21875 64.59375 
L 8.203125 64.59375 
z
" id="DejaVuSans-55"/>
       </defs>
       <use xlink:href="#DejaVuSans-48"/>
       <use x="63.623047" xlink:href="#DejaVuSans-46"/>
       <use x="95.410156" xlink:href="#DejaVuSans-55"/>
      </g>
     </g>
    </g>
    <g id="text_15">
     <!-- Density -->
     <g style="fill:#262626;" transform="translate(28.617187 193.536594)rotate(-90)scale(0.1 -0.1)">
      <defs>
       <path d="M 19.671875 64.796875 
L 19.671875 8.109375 
L 31.59375 8.109375 
Q 46.6875 8.109375 53.6875 14.9375 
Q 60.6875 21.78125 60.6875 36.53125 
Q 60.6875 51.171875 53.6875 57.984375 
Q 46.6875 64.796875 31.59375 64.796875 
z
M 9.8125 72.90625 
L 30.078125 72.90625 
Q 51.265625 72.90625 61.171875 64.09375 
Q 71.09375 55.28125 71.09375 36.53125 
Q 71.09375 17.671875 61.125 8.828125 
Q 51.171875 0 30.078125 0 
L 9.8125 0 
z
" id="DejaVuSans-68"/>
       <path d="M 56.203125 29.59375 
L 56.203125 25.203125 
L 14.890625 25.203125 
Q 15.484375 15.921875 20.484375 11.0625 
Q 25.484375 6.203125 34.421875 6.203125 
Q 39.59375 6.203125 44.453125 7.46875 
Q 49.3125 8.734375 54.109375 11.28125 
L 54.109375 2.78125 
Q 49.265625 0.734375 44.1875 -0.34375 
Q 39.109375 -1.421875 33.890625 -1.421875 
Q 20.796875 -1.421875 13.15625 6.1875 
Q 5.515625 13.8125 5.515625 26.8125 
Q 5.515625 40.234375 12.765625 48.109375 
Q 20.015625 56 32.328125 56 
Q 43.359375 56 49.78125 48.890625 
Q 56.203125 41.796875 56.203125 29.59375 
z
M 47.21875 32.234375 
Q 47.125 39.59375 43.09375 43.984375 
Q 39.0625 48.390625 32.421875 48.390625 
Q 24.90625 48.390625 20.390625 44.140625 
Q 15.875 39.890625 15.1875 32.171875 
z
" id="DejaVuSans-101"/>
       <path d="M 54.890625 33.015625 
L 54.890625 0 
L 45.90625 0 
L 45.90625 32.71875 
Q 45.90625 40.484375 42.875 44.328125 
Q 39.84375 48.1875 33.796875 48.1875 
Q 26.515625 48.1875 22.3125 43.546875 
Q 18.109375 38.921875 18.109375 30.90625 
L 18.109375 0 
L 9.078125 0 
L 9.078125 54.6875 
L 18.109375 54.6875 
L 18.109375 46.1875 
Q 21.34375 51.125 25.703125 53.5625 
Q 30.078125 56 35.796875 56 
Q 45.21875 56 50.046875 50.171875 
Q 54.890625 44.34375 54.890625 33.015625 
z
" id="DejaVuSans-110"/>
       <path d="M 44.28125 53.078125 
L 44.28125 44.578125 
Q 40.484375 46.53125 36.375 47.5 
Q 32.28125 48.484375 27.875 48.484375 
Q 21.1875 48.484375 17.84375 46.4375 
Q 14.5 44.390625 14.5 40.28125 
Q 14.5 37.15625 16.890625 35.375 
Q 19.28125 33.59375 26.515625 31.984375 
L 29.59375 31.296875 
Q 39.15625 29.25 43.1875 25.515625 
Q 47.21875 21.78125 47.21875 15.09375 
Q 47.21875 7.46875 41.1875 3.015625 
Q 35.15625 -1.421875 24.609375 -1.421875 
Q 20.21875 -1.421875 15.453125 -0.5625 
Q 10.6875 0.296875 5.421875 2 
L 5.421875 11.28125 
Q 10.40625 8.6875 15.234375 7.390625 
Q 20.0625 6.109375 24.8125 6.109375 
Q 31.15625 6.109375 34.5625 8.28125 
Q 37.984375 10.453125 37.984375 14.40625 
Q 37.984375 18.0625 35.515625 20.015625 
Q 33.0625 21.96875 24.703125 23.78125 
L 21.578125 24.515625 
Q 13.234375 26.265625 9.515625 29.90625 
Q 5.8125 33.546875 5.8125 39.890625 
Q 5.8125 47.609375 11.28125 51.796875 
Q 16.75 56 26.8125 56 
Q 31.78125 56 36.171875 55.265625 
Q 40.578125 54.546875 44.28125 53.078125 
z
" id="DejaVuSans-115"/>
       <path d="M 9.421875 54.6875 
L 18.40625 54.6875 
L 18.40625 0 
L 9.421875 0 
z
M 9.421875 75.984375 
L 18.40625 75.984375 
L 18.40625 64.59375 
L 9.421875 64.59375 
z
" id="DejaVuSans-105"/>
       <path d="M 18.3125 70.21875 
L 18.3125 54.6875 
L 36.8125 54.6875 
L 36.8125 47.703125 
L 18.3125 47.703125 
L 18.3125 18.015625 
Q 18.3125 11.328125 20.140625 9.421875 
Q 21.96875 7.515625 27.59375 7.515625 
L 36.8125 7.515625 
L 36.8125 0 
L 27.59375 0 
Q 17.1875 0 13.234375 3.875 
Q 9.28125 7.765625 9.28125 18.015625 
L 9.28125 47.703125 
L 2.6875 47.703125 
L 2.6875 54.6875 
L 9.28125 54.6875 
L 9.28125 70.21875 
z
" id="DejaVuSans-116"/>
       <path d="M 32.171875 -5.078125 
Q 28.375 -14.84375 24.75 -17.8125 
Q 21.140625 -20.796875 15.09375 -20.796875 
L 7.90625 -20.796875 
L 7.90625 -13.28125 
L 13.1875 -13.28125 
Q 16.890625 -13.28125 18.9375 -11.515625 
Q 21 -9.765625 23.484375 -3.21875 
L 25.09375 0.875 
L 2.984375 54.6875 
L 12.5 54.6875 
L 29.59375 11.921875 
L 46.6875 54.6875 
L 56.203125 54.6875 
z
" id="DejaVuSans-121"/>
      </defs>
      <use xlink:href="#DejaVuSans-68"/>
      <use x="77.001953" xlink:href="#DejaVuSans-101"/>
      <use x="138.525391" xlink:href="#DejaVuSans-110"/>
      <use x="201.904297" xlink:href="#DejaVuSans-115"/>
      <use x="254.003906" xlink:href="#DejaVuSans-105"/>
      <use x="281.787109" xlink:href="#DejaVuSans-116"/>
      <use x="320.996094" xlink:href="#DejaVuSans-121"/>
     </g>
    </g>
   </g>
   <g id="line2d_15">
    <path clip-path="url(#pea7686615a)" d="M 73.863247 307.530482 
L 74.240948 307.374813 
L 74.618649 306.872848 
L 74.99635 305.474485 
L 75.37405 302.102844 
L 75.751751 295.051727 
L 76.129452 282.231282 
L 76.507152 261.913068 
L 77.262554 199.648003 
L 78.017955 129.604988 
L 78.395656 102.308912 
L 78.773357 83.563846 
L 79.151057 73.403314 
L 79.528758 70.436002 
L 79.906459 72.759074 
L 80.28416 78.641019 
L 81.039561 96.182267 
L 82.928065 143.395993 
L 84.061167 166.251255 
L 85.94967 199.522913 
L 87.082772 217.062781 
L 88.971276 241.653439 
L 89.726677 250.101228 
L 90.482079 256.743343 
L 91.615181 264.479322 
L 92.370582 268.454827 
L 95.769889 283.00177 
L 98.036093 290.198858 
L 98.791495 292.060078 
L 100.679998 295.590743 
L 101.8131 297.192111 
L 102.946202 298.908645 
L 103.701604 300.058887 
L 104.457005 300.875526 
L 107.478611 303.031465 
L 109.367115 303.884995 
L 111.255618 305.290046 
L 112.38872 305.701101 
L 116.921129 306.566898 
L 118.054231 306.833754 
L 119.187333 307.15165 
L 120.320435 307.234426 
L 122.58664 307.109595 
L 124.475143 306.967776 
L 125.608245 307.141975 
L 127.119048 307.408746 
L 129.007552 307.521661 
L 130.518355 307.425297 
L 132.406858 307.284996 
L 138.45007 307.554034 
L 141.093975 307.574003 
L 149.02569 307.583451 
L 149.02569 307.583451 
" style="fill:none;stroke:#9467bd;stroke-linecap:round;stroke-width:1.5;"/>
   </g>
   <g id="line2d_16">
    <path clip-path="url(#pea7686615a)" d="M 74.253845 307.539436 
L 74.641613 307.364744 
L 75.029381 306.691704 
L 75.417148 304.563522 
L 75.804916 299.023474 
L 76.192684 287.111313 
L 76.580452 265.879266 
L 77.355987 195.33556 
L 78.131522 118.820951 
L 78.51929 92.050796 
L 78.907058 75.249754 
L 79.294825 67.069322 
L 79.682593 65.503466 
L 80.070361 68.808082 
L 80.458128 75.599937 
L 81.233664 95.034853 
L 82.396967 125.930585 
L 85.499108 192.568797 
L 86.274644 205.577248 
L 87.437947 219.982086 
L 89.376785 242.54151 
L 91.315624 259.04152 
L 92.091159 263.363827 
L 94.029998 271.385151 
L 95.193301 277.815194 
L 96.356604 281.759125 
L 97.519907 286.145571 
L 98.295442 289.638492 
L 99.070978 294.909576 
L 99.846513 300.282703 
L 100.234281 301.880228 
L 100.622048 302.65824 
L 101.009816 302.913003 
L 101.785351 303.076507 
L 102.560887 303.586043 
L 103.72419 304.532658 
L 104.499725 305.005734 
L 105.275261 305.221212 
L 106.438564 305.33284 
L 108.377402 305.923631 
L 109.540705 306.043071 
L 111.479544 306.611383 
L 114.969453 306.980035 
L 116.132756 306.886514 
L 123.500342 307.471159 
L 126.602484 307.513567 
L 128.153555 307.583069 
L 151.419616 307.583367 
L 151.419616 307.583367 
" style="fill:none;stroke:#d62728;stroke-linecap:round;stroke-width:1.5;"/>
   </g>
   <g id="line2d_17">
    <path clip-path="url(#pea7686615a)" d="M 73.943533 307.525095 
L 74.269245 307.389882 
L 74.594956 307.009381 
L 74.920667 306.052729 
L 75.246379 303.901151 
L 75.57209 299.566266 
L 75.897801 291.730264 
L 76.223513 278.999466 
L 76.874935 235.793921 
L 78.503492 94.54315 
L 78.829203 79.477866 
L 79.154914 71.075888 
L 79.480626 68.532875 
L 79.806337 70.620509 
L 80.132048 75.981166 
L 81.109182 100.022718 
L 83.714873 162.683286 
L 84.692007 181.79495 
L 86.320563 206.277125 
L 87.623408 223.623437 
L 88.926254 239.00245 
L 89.903388 247.963641 
L 92.834789 270.273101 
L 93.811923 275.865005 
L 94.789057 280.187784 
L 95.44048 282.291915 
L 96.091902 283.805092 
L 97.394748 286.301204 
L 98.04617 288.119645 
L 100.000438 294.508625 
L 100.977572 296.776763 
L 101.628995 297.936597 
L 102.280417 298.687971 
L 103.257551 299.50247 
L 104.234685 300.825484 
L 104.886108 301.619257 
L 107.491798 303.848884 
L 108.143221 304.100328 
L 109.771778 304.382772 
L 113.028891 305.78619 
L 114.006025 306.094447 
L 119.217405 306.958365 
L 122.474519 307.168004 
L 124.754498 307.196093 
L 126.383054 307.294507 
L 128.663033 307.305294 
L 131.920147 307.483714 
L 133.548703 307.465699 
L 135.502971 307.537005 
L 138.760084 307.583442 
L 138.760084 307.583442 
" style="fill:none;stroke:#2ca02c;stroke-linecap:round;stroke-width:1.5;"/>
   </g>
   <g id="line2d_18">
    <path clip-path="url(#pea7686615a)" d="M 73.832727 307.544291 
L 74.172317 307.44388 
L 74.511907 307.142265 
L 74.851496 306.337087 
L 75.191086 304.424337 
L 75.530676 300.374962 
L 75.870265 292.722476 
L 76.209855 279.789217 
L 76.549445 260.202185 
L 77.228624 201.005344 
L 78.247393 98.874308 
L 78.586983 75.185708 
L 78.926573 60.311133 
L 79.266162 54.144 
L 79.605752 55.312294 
L 79.945342 61.781134 
L 80.624521 82.592763 
L 81.98288 124.563698 
L 83.341239 157.07464 
L 85.039187 192.318806 
L 86.057956 209.444123 
L 87.076725 222.4762 
L 88.774674 239.734498 
L 90.812212 257.535273 
L 91.491392 262.485198 
L 93.52893 274.221426 
L 94.208109 277.022379 
L 95.906058 282.190903 
L 98.283185 291.501465 
L 98.962365 293.013091 
L 99.981134 294.590453 
L 100.999903 296.085488 
L 103.037441 299.476319 
L 105.754159 302.325194 
L 108.470876 304.001997 
L 110.848004 304.820927 
L 111.866773 305.292579 
L 114.923081 306.212119 
L 116.621029 306.821449 
L 117.639798 306.970363 
L 120.356516 307.084509 
L 121.375285 307.244131 
L 130.883796 307.365778 
L 132.242155 307.46469 
L 134.958873 307.466682 
L 140.731898 307.580243 
L 141.411077 307.583447 
L 141.411077 307.583447 
" style="fill:none;stroke:#ff7f0e;stroke-linecap:round;stroke-width:1.5;"/>
   </g>
   <g id="line2d_19">
    <path clip-path="url(#pea7686615a)" d="M 73.899041 307.513855 
L 74.288932 307.309448 
L 74.678822 306.65412 
L 75.068713 304.849586 
L 75.458603 300.574374 
L 75.848493 291.842905 
L 76.238384 276.435319 
L 76.628274 252.88353 
L 77.408055 185.414711 
L 78.187835 116.557378 
L 78.577726 91.941231 
L 78.967616 76.329714 
L 79.357507 69.282019 
L 79.747397 69.247328 
L 80.137287 74.252775 
L 80.917068 92.21147 
L 83.25641 151.562259 
L 84.426081 177.996745 
L 85.595752 198.392459 
L 87.155314 220.911413 
L 88.324985 234.884278 
L 89.104766 241.642553 
L 90.664327 253.416017 
L 92.223889 267.072059 
L 93.003669 271.328254 
L 96.122792 284.212359 
L 97.292463 287.912853 
L 100.801477 296.973519 
L 101.191367 297.496783 
L 101.971148 298.001541 
L 103.140819 298.458823 
L 103.9206 299.144584 
L 106.259942 302.222982 
L 107.429613 303.545575 
L 108.209394 304.382156 
L 108.599284 304.612381 
L 108.989174 304.68385 
L 109.768955 304.473917 
L 110.548736 304.217539 
L 110.938626 304.237956 
L 111.328517 304.402672 
L 112.108297 305.065799 
L 112.888078 305.750422 
L 113.667859 306.084394 
L 114.447639 306.122138 
L 115.617311 306.087577 
L 116.786982 306.325064 
L 117.956653 306.539343 
L 120.685885 306.750804 
L 124.194899 307.329729 
L 125.36457 307.268899 
L 126.534241 307.233223 
L 131.992706 307.482437 
L 135.111829 307.535375 
L 137.061281 307.482199 
L 139.010733 307.46509 
L 141.350075 307.558857 
L 144.859088 307.542493 
L 147.588321 307.509191 
L 151.097334 307.582287 
L 151.487224 307.583455 
L 151.487224 307.583455 
" style="fill:none;stroke:#1f77b4;stroke-linecap:round;stroke-width:1.5;"/>
   </g>
   <g id="line2d_20">
    <path clip-path="url(#pea7686615a)" d="M 77.370221 307.58232 
L 79.985924 307.498247 
L 81.293775 307.227629 
L 81.947701 306.935926 
L 82.601627 306.48098 
L 83.255553 305.813724 
L 83.909478 304.886284 
L 84.563404 303.65747 
L 85.21733 302.098738 
L 86.525181 297.960222 
L 87.833033 292.542699 
L 89.140884 286.082168 
L 91.756587 271.634156 
L 95.026216 253.240261 
L 96.334067 247.073093 
L 97.641918 241.955175 
L 98.94977 237.771348 
L 100.257621 234.508144 
L 100.911547 233.245672 
L 101.565473 232.266669 
L 102.219399 231.616615 
L 102.873324 231.342911 
L 103.52725 231.477339 
L 104.181176 232.01616 
L 104.835101 232.904596 
L 106.142953 235.287111 
L 108.10473 238.891183 
L 110.720433 243.598065 
L 112.028284 246.339144 
L 113.336136 249.63154 
L 115.297913 255.564049 
L 117.25969 261.316584 
L 119.221467 266.506551 
L 120.529319 269.383883 
L 122.491096 273.308634 
L 123.798947 276.457143 
L 125.760724 281.503732 
L 127.068576 284.269115 
L 129.030353 287.488511 
L 132.953907 293.574182 
L 134.915685 296.10285 
L 136.223536 297.543432 
L 137.531387 298.710961 
L 139.493165 300.055048 
L 142.108867 301.634427 
L 143.416719 302.142187 
L 145.378496 302.70986 
L 151.263828 305.068213 
L 153.225605 305.698778 
L 155.841308 306.181794 
L 160.418788 306.786602 
L 163.688416 307.072986 
L 168.919822 307.355584 
L 173.497302 307.366343 
L 178.728708 307.577244 
L 200.962182 307.561112 
L 207.501439 307.583723 
L 207.501439 307.583723 
" style="fill:none;stroke:#9467bd;stroke-linecap:round;stroke-width:1.5;"/>
   </g>
   <g id="line2d_21">
    <path clip-path="url(#pea7686615a)" d="M 76.115573 307.58343 
L 80.037208 307.468192 
L 81.017617 307.279623 
L 81.998026 306.866714 
L 82.978435 306.07067 
L 83.958843 304.723496 
L 84.939252 302.691661 
L 85.919661 299.8769 
L 86.90007 296.193512 
L 87.880479 291.616742 
L 89.351092 283.495774 
L 93.762932 258.490194 
L 95.233545 251.231979 
L 96.213954 247.350254 
L 98.664976 239.043588 
L 99.645385 236.144683 
L 100.135589 235.012273 
L 100.625794 234.159759 
L 101.115998 233.592333 
L 101.606202 233.273384 
L 102.586611 233.089073 
L 104.057225 232.909756 
L 105.037633 232.737463 
L 105.527838 232.783277 
L 106.018042 232.993762 
L 106.508247 233.402186 
L 106.998451 234.017247 
L 107.97886 235.813071 
L 108.959269 238.207191 
L 110.429882 242.523211 
L 113.371108 251.525076 
L 117.782948 263.443734 
L 121.214379 272.217504 
L 123.665401 278.181507 
L 125.136014 281.183151 
L 127.096832 284.699793 
L 129.05765 287.756277 
L 133.469489 293.875741 
L 135.430307 296.115733 
L 136.90092 297.526798 
L 138.861738 299.056698 
L 142.293169 301.464998 
L 144.744191 302.836219 
L 147.195213 303.926383 
L 151.116848 305.277137 
L 153.56787 305.95853 
L 155.528688 306.225319 
L 161.411141 306.744429 
L 164.352368 306.994733 
L 167.293594 307.167398 
L 171.215229 307.552178 
L 173.666252 307.58298 
L 173.666252 307.58298 
" style="fill:none;stroke:#d62728;stroke-linecap:round;stroke-width:1.5;"/>
   </g>
   <g id="line2d_22">
    <path clip-path="url(#pea7686615a)" d="M 76.643634 307.583503 
L 80.322884 307.492264 
L 81.549301 307.259925 
L 82.16251 307.01722 
L 82.775718 306.636329 
L 83.388927 306.066066 
L 84.002135 305.25019 
L 84.615344 304.133087 
L 85.228552 302.667996 
L 85.841761 300.82741 
L 87.068178 296.064121 
L 88.907803 287.139216 
L 91.360637 273.96164 
L 95.039888 253.392021 
L 96.879513 244.503239 
L 98.10593 239.397544 
L 99.332347 235.53597 
L 99.945555 234.199227 
L 100.558764 233.235503 
L 101.171972 232.571315 
L 101.785181 232.123567 
L 102.398389 231.836255 
L 103.011598 231.698646 
L 103.624806 231.733891 
L 104.238015 231.967899 
L 104.851223 232.401758 
L 106.07764 233.730518 
L 107.917266 236.277834 
L 109.143683 238.312622 
L 110.370099 240.998759 
L 111.596516 244.520566 
L 114.04935 252.871345 
L 115.888976 259.1034 
L 117.115393 262.737797 
L 118.34181 265.849898 
L 120.181435 269.930263 
L 123.860686 277.870571 
L 126.926728 284.486622 
L 128.153145 286.683565 
L 129.992771 289.376353 
L 134.28523 295.06087 
L 136.124855 297.031349 
L 137.964481 298.727691 
L 139.190898 299.612933 
L 142.25694 301.342182 
L 144.096565 302.280539 
L 149.002233 304.296194 
L 156.360735 306.171459 
L 164.945653 307.026254 
L 175.370197 307.461758 
L 180.889074 307.495718 
L 198.672119 307.583726 
L 198.672119 307.583726 
" style="fill:none;stroke:#2ca02c;stroke-linecap:round;stroke-width:1.5;"/>
   </g>
   <g id="line2d_23">
    <path clip-path="url(#pea7686615a)" d="M 77.255794 307.583008 
L 80.426309 307.488979 
L 81.694515 307.261425 
L 82.96272 306.705389 
L 83.596823 306.217989 
L 84.230926 305.530206 
L 84.865029 304.594344 
L 85.499132 303.37092 
L 86.133235 301.836863 
L 87.401441 297.847466 
L 88.669647 292.796505 
L 89.937853 286.84466 
L 91.206059 279.844017 
L 92.474265 271.574599 
L 96.912985 240.283444 
L 98.181191 234.042722 
L 98.815294 231.590216 
L 99.449397 229.59827 
L 100.0835 228.074206 
L 100.717603 226.997993 
L 101.351706 226.312919 
L 101.985809 225.941373 
L 102.619912 225.817838 
L 103.254015 225.915956 
L 103.888118 226.249981 
L 104.522221 226.848343 
L 105.156323 227.714597 
L 106.424529 230.012452 
L 108.326838 233.845001 
L 108.960941 235.371562 
L 110.229147 239.306193 
L 112.765559 248.15782 
L 120.374794 271.331395 
L 121.643 274.635838 
L 124.179412 280.358085 
L 126.081721 284.296054 
L 127.349926 286.286451 
L 129.886338 289.511839 
L 134.325059 296.172048 
L 135.593265 297.680954 
L 136.861471 298.874838 
L 138.763779 300.218219 
L 144.470706 303.712467 
L 145.738912 304.183713 
L 148.909427 305.147237 
L 150.811735 305.724809 
L 152.714044 306.010888 
L 155.250456 306.296718 
L 160.323279 307.11833 
L 162.225588 307.098276 
L 165.396103 307.050067 
L 171.737132 307.340761 
L 174.273544 307.356841 
L 178.078162 307.47634 
L 203.44228 307.58371 
L 203.44228 307.58371 
" style="fill:none;stroke:#ff7f0e;stroke-linecap:round;stroke-width:1.5;"/>
   </g>
   <g id="line2d_24">
    <path clip-path="url(#pea7686615a)" d="M 75.867565 307.583546 
L 79.838796 307.48951 
L 80.973433 307.300403 
L 82.108071 306.840009 
L 82.675389 306.436887 
L 83.242708 305.871987 
L 83.810027 305.108993 
L 84.377345 304.114127 
L 84.944664 302.85965 
L 86.079302 299.512419 
L 87.213939 295.081823 
L 88.348576 289.756696 
L 90.050533 280.485843 
L 95.156401 250.519718 
L 96.291038 245.706783 
L 97.425676 241.807448 
L 98.560313 238.687028 
L 99.694951 236.314681 
L 100.829588 234.736086 
L 101.964225 233.776878 
L 103.666182 232.795673 
L 104.2335 232.653187 
L 104.800819 232.739303 
L 105.368138 233.133188 
L 105.935456 233.862186 
L 107.070094 236.103791 
L 108.77205 239.803323 
L 111.041325 244.258839 
L 112.175962 247.313279 
L 116.714512 261.180092 
L 117.849149 263.791251 
L 120.685743 269.514008 
L 121.82038 272.43947 
L 124.089655 278.646667 
L 125.224293 281.210687 
L 127.493567 285.494505 
L 129.195524 288.342916 
L 131.464798 291.605454 
L 133.166755 293.667502 
L 134.868711 295.20873 
L 136.570667 296.788437 
L 139.40726 299.640559 
L 141.109217 300.953327 
L 143.378491 302.355846 
L 145.080447 303.170915 
L 147.349722 303.89186 
L 152.455591 305.520159 
L 154.157547 305.977507 
L 155.859503 306.175706 
L 160.398053 306.500678 
L 163.801965 306.925694 
L 170.609789 307.380879 
L 174.58102 307.391013 
L 177.984933 307.39797 
L 182.523482 307.526192 
L 188.763988 307.583473 
L 188.763988 307.583473 
" style="fill:none;stroke:#1f77b4;stroke-linecap:round;stroke-width:1.5;"/>
   </g>
   <g id="line2d_25">
    <path clip-path="url(#pea7686615a)" d="M 82.799791 307.583739 
L 90.266807 307.47789 
L 92.506911 307.278022 
L 94.000314 306.993302 
L 95.493717 306.512465 
L 96.98712 305.77387 
L 98.480523 304.703255 
L 99.973927 303.22962 
L 101.46733 301.335571 
L 102.960733 299.059994 
L 105.200837 295.078844 
L 107.440942 290.54759 
L 109.681047 285.397603 
L 111.921151 279.485574 
L 115.654659 269.299426 
L 117.148062 265.858928 
L 118.641465 262.97127 
L 120.134868 260.595752 
L 122.374973 257.623902 
L 124.615077 255.073333 
L 126.10848 253.862007 
L 126.855182 253.478765 
L 128.348585 253.089713 
L 129.841988 252.988854 
L 130.58869 253.035672 
L 131.335391 253.19983 
L 132.082093 253.532907 
L 132.828794 254.067462 
L 133.575496 254.803613 
L 135.068899 256.747092 
L 138.802406 262.294329 
L 140.29581 264.015102 
L 142.535914 266.225909 
L 144.029317 268.174138 
L 145.52272 270.788494 
L 150.002929 279.578083 
L 151.496333 281.535994 
L 153.736437 283.814066 
L 156.723243 286.875532 
L 159.710049 290.257959 
L 164.190259 295.520233 
L 165.683662 296.835166 
L 167.923766 298.346824 
L 170.910572 299.975188 
L 173.897379 301.277193 
L 176.884185 302.605163 
L 179.870991 304.016553 
L 182.111096 304.691998 
L 187.338006 305.801941 
L 190.324812 306.231471 
L 200.031932 307.04916 
L 209.739052 307.384193 
L 218.699471 307.472581 
L 231.393397 307.583745 
L 231.393397 307.583745 
" style="fill:none;stroke:#9467bd;stroke-linecap:round;stroke-width:1.5;"/>
   </g>
   <g id="line2d_26">
    <path clip-path="url(#pea7686615a)" d="M 82.936535 307.583776 
L 90.536375 307.475355 
L 92.816327 307.252421 
L 94.336295 306.947129 
L 95.856263 306.424412 
L 97.376231 305.595146 
L 98.896199 304.403079 
L 100.416167 302.814199 
L 101.936135 300.774069 
L 103.456103 298.237472 
L 104.976071 295.244477 
L 107.256024 290.12006 
L 110.29596 282.558454 
L 117.135816 265.181847 
L 118.655784 262.286358 
L 119.415768 261.219194 
L 120.935736 259.673064 
L 122.455704 258.287221 
L 123.975672 256.525044 
L 126.255624 253.738874 
L 127.775592 252.443275 
L 129.29556 251.64901 
L 130.815528 251.275825 
L 131.575512 251.291054 
L 132.335496 251.499122 
L 133.095481 251.947797 
L 133.855465 252.666067 
L 134.615449 253.64691 
L 136.135417 256.171439 
L 144.495241 271.327391 
L 151.335097 281.513712 
L 154.375033 285.518364 
L 158.934937 291.960271 
L 160.454906 293.522133 
L 161.974874 294.729157 
L 165.01481 296.727476 
L 167.294762 298.075194 
L 174.894602 301.956349 
L 177.934538 303.250411 
L 180.974474 304.265734 
L 184.01441 305.036839 
L 187.054346 305.598281 
L 192.374235 306.232496 
L 200.734059 307.08026 
L 213.653787 307.427938 
L 232.653388 307.582066 
L 234.173356 307.583663 
L 234.173356 307.583663 
" style="fill:none;stroke:#d62728;stroke-linecap:round;stroke-width:1.5;"/>
   </g>
   <g id="line2d_27">
    <path clip-path="url(#pea7686615a)" d="M 83.971234 307.583719 
L 90.243729 307.48692 
L 92.03587 307.311397 
L 93.828011 306.953756 
L 95.620152 306.3344 
L 97.412294 305.354277 
L 99.204435 303.883531 
L 100.996576 301.850514 
L 102.788718 299.286351 
L 104.580859 296.22239 
L 106.373 292.642278 
L 108.165141 288.5152 
L 113.541565 275.082693 
L 118.917989 263.405738 
L 120.71013 259.985242 
L 122.502272 257.191344 
L 124.294413 255.05454 
L 126.086554 253.516288 
L 126.982625 252.968805 
L 127.878696 252.586252 
L 128.774766 252.382507 
L 129.670837 252.36433 
L 130.566907 252.53379 
L 131.462978 252.89273 
L 132.359049 253.441787 
L 133.255119 254.176179 
L 134.15119 255.085598 
L 135.943331 257.380155 
L 138.631543 261.604322 
L 144.007967 270.363645 
L 145.800108 273.214326 
L 147.59225 275.51834 
L 150.280462 278.641091 
L 152.072603 281.084254 
L 154.760815 284.861436 
L 159.241168 290.492743 
L 161.92938 293.650097 
L 163.721521 295.387251 
L 165.513663 296.789234 
L 168.201874 298.546113 
L 169.994016 299.458046 
L 172.682228 300.432637 
L 174.474369 301.169841 
L 177.162581 302.72516 
L 178.954722 303.664652 
L 180.746863 304.307113 
L 183.435075 304.888544 
L 187.019358 305.563463 
L 190.603641 306.314785 
L 193.291852 306.63071 
L 196.876135 306.778488 
L 207.628983 307.188279 
L 214.797548 307.52208 
L 220.173972 307.422517 
L 224.654325 307.479912 
L 230.030749 307.544868 
L 262.289292 307.583793 
L 262.289292 307.583793 
" style="fill:none;stroke:#2ca02c;stroke-linecap:round;stroke-width:1.5;"/>
   </g>
   <g id="line2d_28">
    <path clip-path="url(#pea7686615a)" d="M 85.257621 307.583635 
L 91.492605 307.480051 
L 93.830724 307.229001 
L 95.38947 306.893724 
L 96.948216 306.347767 
L 98.506962 305.475946 
L 100.065708 304.123266 
L 101.624454 302.193765 
L 103.1832 299.755026 
L 104.741946 296.936036 
L 106.300692 293.725147 
L 107.859438 290.017013 
L 109.418184 285.788744 
L 115.653167 267.888812 
L 117.991286 262.318819 
L 119.550032 259.157503 
L 123.446897 252.347267 
L 125.005643 250.008461 
L 125.785016 249.233399 
L 126.564389 248.806523 
L 127.343762 248.728829 
L 128.123135 248.958871 
L 128.902508 249.431428 
L 130.461254 250.83761 
L 132.02 252.597016 
L 133.578746 254.711643 
L 135.916865 258.543482 
L 138.254984 262.320027 
L 142.151849 267.873242 
L 149.945579 279.002999 
L 153.063071 284.089312 
L 154.621817 286.064542 
L 159.298055 290.93706 
L 162.415547 294.812299 
L 163.974293 296.289724 
L 166.312412 297.974205 
L 171.768023 301.63946 
L 173.326769 302.343713 
L 176.444261 303.378385 
L 182.679245 305.064686 
L 185.017364 305.574948 
L 189.693602 306.213332 
L 197.487332 307.035056 
L 201.384197 307.159777 
L 228.662252 307.558264 
L 236.455982 307.572131 
L 240.352846 307.583743 
L 240.352846 307.583743 
" style="fill:none;stroke:#ff7f0e;stroke-linecap:round;stroke-width:1.5;"/>
   </g>
   <g id="line2d_29">
    <path clip-path="url(#pea7686615a)" d="M 84.781122 307.583551 
L 90.178466 307.48872 
L 92.491613 307.222821 
L 94.033711 306.882113 
L 95.575809 306.364187 
L 97.117907 305.583921 
L 98.660006 304.413083 
L 100.202104 302.758512 
L 101.744202 300.657369 
L 104.057349 297.004672 
L 105.599447 294.305016 
L 107.141545 291.1807 
L 108.683644 287.510039 
L 113.309938 275.312189 
L 116.394134 267.211893 
L 117.936233 263.831067 
L 119.478331 261.2045 
L 121.020429 259.182287 
L 123.333576 256.678604 
L 126.417773 253.566109 
L 127.188822 252.977004 
L 127.959871 252.560392 
L 128.73092 252.343868 
L 129.501969 252.331701 
L 130.273018 252.509814 
L 131.044067 252.854488 
L 132.586165 253.949468 
L 134.128263 255.491446 
L 135.670362 257.40126 
L 138.754558 261.652361 
L 140.296656 263.997351 
L 146.465049 274.144159 
L 152.633441 282.686562 
L 155.717638 286.422721 
L 162.657079 294.242839 
L 164.199178 295.470007 
L 170.36757 299.488012 
L 172.680718 300.959052 
L 175.764914 302.555017 
L 178.078061 303.43924 
L 181.162257 304.237098 
L 185.788552 305.293675 
L 195.041141 306.734614 
L 201.209534 306.991735 
L 225.883104 307.565749 
L 238.21989 307.583791 
L 238.21989 307.583791 
" style="fill:none;stroke:#1f77b4;stroke-linecap:round;stroke-width:1.5;"/>
   </g>
   <g id="line2d_30">
    <path clip-path="url(#pea7686615a)" d="M 95.130493 307.583514 
L 101.994707 307.501516 
L 106.897718 307.225839 
L 109.839524 306.885682 
L 111.800728 306.483962 
L 113.761932 305.880444 
L 115.723136 304.982877 
L 117.68434 303.708505 
L 119.645544 302.055991 
L 121.606748 300.054375 
L 123.567952 297.691589 
L 125.529156 294.968023 
L 129.451564 288.906595 
L 136.315778 277.901174 
L 139.257584 273.35559 
L 141.218788 270.789218 
L 143.179992 268.635624 
L 145.141196 266.86097 
L 147.1024 265.498118 
L 149.063604 264.57062 
L 151.024808 263.983923 
L 152.986012 263.63611 
L 154.947217 263.558371 
L 156.908421 263.799886 
L 158.869625 264.395381 
L 160.830829 265.407229 
L 162.792033 266.834617 
L 164.753237 268.644598 
L 167.695043 271.869115 
L 170.636849 275.096325 
L 173.578655 277.944553 
L 177.501063 281.574291 
L 190.248889 294.298328 
L 192.210093 295.791707 
L 194.171297 296.916687 
L 205.938522 302.309152 
L 208.880328 303.14895 
L 215.744542 304.774528 
L 218.686348 305.521999 
L 220.647552 305.825664 
L 232.414776 306.886402 
L 238.298388 307.200648 
L 244.182 307.315653 
L 255.949225 307.478664 
L 267.716449 307.546156 
L 290.270295 307.583827 
L 290.270295 307.583827 
" style="fill:none;stroke:#9467bd;stroke-linecap:round;stroke-width:1.5;"/>
   </g>
   <g id="line2d_31">
    <path clip-path="url(#pea7686615a)" d="M 94.46158 307.583805 
L 103.591585 307.498938 
L 106.330586 307.326001 
L 109.069588 306.936566 
L 110.895589 306.50688 
L 112.72159 305.915136 
L 114.547591 305.147527 
L 116.373592 304.170188 
L 118.199593 302.921283 
L 120.025594 301.365161 
L 121.851595 299.519507 
L 124.590597 296.327414 
L 128.242599 291.627159 
L 130.0686 288.996048 
L 131.894601 285.99804 
L 136.459603 277.996705 
L 138.285604 275.433079 
L 140.111605 273.297037 
L 142.850607 270.23686 
L 147.41561 264.747076 
L 148.32861 263.949694 
L 149.241611 263.357246 
L 150.154611 262.97089 
L 151.067612 262.773065 
L 151.980612 262.738667 
L 152.893613 262.842108 
L 154.719614 263.357045 
L 159.284616 265.033066 
L 162.023618 265.918426 
L 163.849619 266.866496 
L 164.762619 267.550441 
L 165.67562 268.401147 
L 167.501621 270.558247 
L 170.240622 274.141996 
L 172.066624 276.12997 
L 177.544627 281.341388 
L 182.109629 286.044737 
L 185.761631 289.803482 
L 188.500633 292.677384 
L 190.326634 294.320491 
L 193.065635 296.441557 
L 196.717638 298.97504 
L 198.543639 299.982648 
L 200.36964 300.72367 
L 203.108641 301.478571 
L 211.325646 303.517892 
L 216.803649 305.229912 
L 219.54265 305.663418 
L 227.759655 306.48309 
L 234.150659 306.928812 
L 243.280664 307.300839 
L 250.584668 307.364486 
L 256.975672 307.507724 
L 276.148683 307.583826 
L 276.148683 307.583826 
" style="fill:none;stroke:#d62728;stroke-linecap:round;stroke-width:1.5;"/>
   </g>
   <g id="line2d_32">
    <path clip-path="url(#pea7686615a)" d="M 91.752842 307.583825 
L 103.779613 307.475291 
L 106.786305 307.291447 
L 109.792998 306.864754 
L 111.79746 306.375997 
L 113.801921 305.669567 
L 115.806383 304.671096 
L 117.810845 303.312144 
L 119.815306 301.600096 
L 121.819768 299.584355 
L 123.82423 297.259254 
L 125.828692 294.59732 
L 127.833153 291.608871 
L 130.839846 286.589428 
L 134.84877 279.704444 
L 136.853231 276.645495 
L 138.857693 273.936227 
L 140.862155 271.514098 
L 143.868847 268.297323 
L 146.87554 265.532622 
L 148.880002 263.991809 
L 149.882233 263.364209 
L 150.884463 262.882079 
L 151.886694 262.589898 
L 152.888925 262.515814 
L 153.891156 262.652606 
L 155.895618 263.363798 
L 157.90008 264.354843 
L 159.904541 265.678048 
L 161.909003 267.494115 
L 164.915696 270.43009 
L 166.920157 271.918083 
L 169.92685 273.797433 
L 171.931312 275.446342 
L 173.935773 277.651709 
L 179.949159 285.209276 
L 181.95362 287.180591 
L 184.960313 289.715615 
L 191.975929 295.251229 
L 193.980391 296.381228 
L 200.996007 299.825547 
L 205.00493 301.818452 
L 208.011623 303.035659 
L 210.016085 303.646005 
L 213.022777 304.282875 
L 220.038393 305.564026 
L 235.071856 307.093828 
L 247.098627 307.355418 
L 259.125397 307.500294 
L 279.170015 307.574678 
L 291.196785 307.583828 
L 291.196785 307.583828 
" style="fill:none;stroke:#2ca02c;stroke-linecap:round;stroke-width:1.5;"/>
   </g>
   <g id="line2d_33">
    <path clip-path="url(#pea7686615a)" d="M 95.027717 307.583693 
L 104.419028 307.470033 
L 109.114683 307.169428 
L 110.992945 306.898285 
L 112.871208 306.410874 
L 114.74947 305.642845 
L 116.627732 304.596849 
L 118.505994 303.264668 
L 120.384256 301.545181 
L 122.262518 299.300045 
L 124.140781 296.526156 
L 132.59296 282.696901 
L 139.166878 270.191275 
L 141.04514 267.421559 
L 142.923402 265.313484 
L 144.801664 263.690644 
L 146.679926 262.503998 
L 147.619057 262.098836 
L 149.49732 261.648071 
L 151.375582 261.556341 
L 153.253844 261.720955 
L 155.132106 262.101505 
L 157.010368 262.722612 
L 157.949499 263.179143 
L 158.88863 263.769109 
L 160.766892 265.327139 
L 164.523417 268.964722 
L 166.401679 271.074522 
L 171.097334 276.928913 
L 179.549514 285.471447 
L 182.366907 288.229967 
L 187.062563 292.235434 
L 190.819087 295.252122 
L 193.63648 297.298585 
L 197.393004 299.717798 
L 200.210398 301.31172 
L 202.08866 302.206431 
L 203.966922 302.898525 
L 205.845184 303.360882 
L 210.54084 304.329409 
L 215.236495 305.611454 
L 218.053888 306.093371 
L 221.810412 306.481469 
L 235.897379 307.233904 
L 246.22782 307.451987 
L 281.914801 307.583752 
L 281.914801 307.583752 
" style="fill:none;stroke:#ff7f0e;stroke-linecap:round;stroke-width:1.5;"/>
   </g>
   <g id="line2d_34">
    <path clip-path="url(#pea7686615a)" d="M 96.133193 307.58356 
L 103.589573 307.477625 
L 107.317763 307.170238 
L 110.113905 306.684755 
L 111.978 306.133204 
L 113.842095 305.314003 
L 115.70619 304.179271 
L 117.570286 302.752705 
L 121.298476 299.473802 
L 123.162571 297.611746 
L 125.026666 295.394621 
L 127.822808 291.502413 
L 131.550998 286.054542 
L 133.415093 283.036757 
L 137.143283 276.693582 
L 139.007378 274.079924 
L 141.803521 270.809408 
L 143.667616 268.791549 
L 145.531711 267.101876 
L 147.395806 265.952505 
L 149.259901 265.210107 
L 152.056044 264.349012 
L 153.920139 264.005172 
L 155.784234 264.055591 
L 157.648329 264.502713 
L 159.512424 265.212068 
L 161.376519 266.174664 
L 163.240614 267.521382 
L 165.104709 269.234195 
L 171.629041 275.842927 
L 179.085421 283.569841 
L 182.813611 287.139502 
L 186.541802 290.39303 
L 189.337944 292.56954 
L 197.726372 298.492084 
L 200.522514 300.133792 
L 203.318657 301.488946 
L 206.114799 302.594646 
L 208.910942 303.404033 
L 212.639132 304.225817 
L 216.367322 304.818892 
L 220.095512 305.393486 
L 225.687797 306.376322 
L 229.415987 306.752306 
L 233.144177 306.950622 
L 261.105603 307.514597 
L 281.610648 307.583829 
L 281.610648 307.583829 
" style="fill:none;stroke:#1f77b4;stroke-linecap:round;stroke-width:1.5;"/>
   </g>
   <g id="line2d_35">
    <path clip-path="url(#pea7686615a)" d="M 114.844011 307.583836 
L 129.097441 307.498919 
L 133.37347 307.349413 
L 137.649499 306.945809 
L 141.925528 306.230939 
L 144.776214 305.517218 
L 147.626901 304.528909 
L 150.477587 303.286314 
L 153.328273 301.717725 
L 156.178959 299.729425 
L 160.454988 296.279122 
L 164.731017 292.488498 
L 170.432389 287.108184 
L 174.708418 283.01727 
L 178.984447 279.311956 
L 181.835133 277.022569 
L 184.685819 275.102859 
L 187.536505 273.662765 
L 190.387191 272.665468 
L 191.812534 272.330811 
L 193.237877 272.118379 
L 194.66322 272.034257 
L 197.513906 272.214674 
L 200.364592 272.768179 
L 203.215278 273.674858 
L 206.065965 274.898517 
L 208.916651 276.328138 
L 211.767337 277.981306 
L 214.618023 279.920399 
L 224.595424 287.119426 
L 230.296796 290.268586 
L 237.423511 294.931757 
L 240.274197 296.348807 
L 250.251598 300.906009 
L 253.102284 301.918228 
L 255.95297 302.645529 
L 270.206401 305.547061 
L 273.057087 305.933275 
L 278.758459 306.398849 
L 294.437232 307.29509 
L 300.138604 307.317201 
L 305.839976 307.427664 
L 312.966691 307.539462 
L 345.749581 307.571533 
L 398.487273 307.58386 
L 398.487273 307.58386 
" style="fill:none;stroke:#9467bd;stroke-linecap:round;stroke-width:1.5;"/>
   </g>
   <g id="line2d_36">
    <path clip-path="url(#pea7686615a)" d="M 112.3661 307.583858 
L 129.658783 307.479605 
L 134.599549 307.261839 
L 138.305124 306.899737 
L 142.010699 306.284795 
L 145.716274 305.416478 
L 148.186657 304.647263 
L 150.657041 303.581507 
L 153.127424 302.102183 
L 155.597807 300.24706 
L 159.303382 297.085967 
L 165.479341 291.737124 
L 174.125682 284.81269 
L 176.596065 282.50199 
L 179.066449 279.874131 
L 182.772024 275.838853 
L 184.007215 274.761294 
L 185.242407 273.899196 
L 186.477599 273.239254 
L 187.71279 272.741497 
L 190.183174 272.075859 
L 192.653557 271.718701 
L 195.12394 271.64782 
L 197.594323 271.888701 
L 205.005473 273.169975 
L 206.240665 273.58024 
L 207.475857 274.152487 
L 209.94624 275.720663 
L 216.122198 280.401791 
L 221.062965 284.32443 
L 224.76854 287.229781 
L 227.238923 288.885812 
L 230.944498 290.997016 
L 234.650073 293.130201 
L 240.826031 297.011597 
L 247.001989 300.170632 
L 249.472373 301.320171 
L 251.942756 302.272638 
L 254.413139 303.018561 
L 256.883523 303.547474 
L 261.824289 304.206086 
L 268.000248 305.134686 
L 272.941014 305.771585 
L 280.352164 306.540033 
L 293.939272 307.210889 
L 303.820805 307.388335 
L 324.819063 307.54838 
L 343.346938 307.567979 
L 358.169238 307.583858 
L 358.169238 307.583858 
" style="fill:none;stroke:#d62728;stroke-linecap:round;stroke-width:1.5;"/>
   </g>
   <g id="line2d_37">
    <path clip-path="url(#pea7686615a)" d="M 115.625 307.583845 
L 129.842616 307.485045 
L 134.581821 307.229779 
L 138.136225 306.853703 
L 141.690629 306.259622 
L 145.245033 305.408597 
L 147.614635 304.603537 
L 149.984238 303.535322 
L 152.353841 302.204665 
L 154.723443 300.645696 
L 157.093046 298.886738 
L 160.64745 295.897005 
L 164.201854 292.555349 
L 168.941059 287.685444 
L 172.495463 284.039018 
L 176.049867 280.737441 
L 178.419469 278.838031 
L 180.789072 277.244949 
L 183.158675 275.887723 
L 185.528277 274.71131 
L 187.89788 273.812046 
L 190.267483 273.298601 
L 192.637085 273.129721 
L 197.37629 273.215556 
L 200.930694 273.42904 
L 203.300297 273.948599 
L 205.6699 274.884062 
L 212.778707 278.423841 
L 215.14831 279.762907 
L 217.517913 281.374869 
L 219.887515 283.272758 
L 224.626721 287.373503 
L 226.996323 289.024752 
L 229.365926 290.235448 
L 234.105131 292.396287 
L 236.474734 293.796758 
L 241.213939 296.768491 
L 243.583542 298.02247 
L 247.137945 299.601495 
L 251.877151 301.324307 
L 257.801157 303.367357 
L 261.355561 304.298505 
L 266.094766 305.306126 
L 269.64917 305.848133 
L 274.388376 306.263373 
L 282.681985 306.691129 
L 296.899601 307.2853 
L 308.747614 307.519065 
L 331.258839 307.571102 
L 351.400461 307.583854 
L 351.400461 307.583854 
" style="fill:none;stroke:#2ca02c;stroke-linecap:round;stroke-width:1.5;"/>
   </g>
   <g id="line2d_38">
    <path clip-path="url(#pea7686615a)" d="M 119.001112 307.583798 
L 130.628077 307.475164 
L 135.278863 307.232827 
L 139.929649 306.77852 
L 142.255042 306.408786 
L 144.580435 305.844307 
L 146.905828 305.007986 
L 149.231221 303.906409 
L 151.556614 302.605644 
L 153.882007 301.12537 
L 156.2074 299.419093 
L 158.532793 297.463642 
L 164.346276 292.095514 
L 168.997062 287.557851 
L 172.485152 283.88878 
L 178.298634 277.648962 
L 180.624027 275.578081 
L 182.94942 273.871541 
L 185.274813 272.414898 
L 187.600206 271.143649 
L 189.925599 270.138694 
L 191.088296 269.777899 
L 192.250992 269.54059 
L 193.413689 269.451249 
L 194.576385 269.52767 
L 195.739082 269.772217 
L 196.901778 270.168579 
L 199.227171 271.28494 
L 207.366047 275.711863 
L 212.016833 278.141326 
L 214.342226 279.69432 
L 216.667619 281.51403 
L 225.969191 289.202837 
L 232.945371 294.051058 
L 235.270764 295.75708 
L 237.596157 297.177227 
L 239.92155 298.29906 
L 243.409639 299.651255 
L 245.735032 300.330938 
L 250.385818 301.557472 
L 253.873908 302.815774 
L 257.361998 304.010547 
L 259.687391 304.599417 
L 263.17548 305.187341 
L 267.826266 305.628769 
L 272.477052 306.125096 
L 278.290535 306.788908 
L 282.941321 307.012744 
L 306.195251 307.47185 
L 350.377719 307.583853 
L 350.377719 307.583853 
" style="fill:none;stroke:#ff7f0e;stroke-linecap:round;stroke-width:1.5;"/>
   </g>
   <g id="line2d_39">
    <path clip-path="url(#pea7686615a)" d="M 115.213696 307.583604 
L 127.455117 307.476083 
L 132.351686 307.285927 
L 137.248254 306.828268 
L 142.144822 306.123307 
L 145.817249 305.334989 
L 148.265533 304.559251 
L 150.713817 303.486014 
L 153.162101 302.104551 
L 155.610385 300.457382 
L 158.05867 298.582001 
L 161.731096 295.442523 
L 165.403522 291.948774 
L 172.748375 284.41983 
L 175.196659 282.193503 
L 177.644943 280.207564 
L 183.765653 275.704177 
L 186.213938 274.181804 
L 187.43808 273.617186 
L 188.662222 273.200857 
L 191.110506 272.696449 
L 194.782932 272.234222 
L 197.231216 272.221345 
L 199.679501 272.673448 
L 207.024353 274.859523 
L 208.248495 275.360258 
L 210.696779 276.72008 
L 213.145064 278.424684 
L 216.81749 281.250407 
L 224.162342 287.251502 
L 226.610627 288.792213 
L 236.403763 294.310639 
L 240.07619 296.37337 
L 243.748616 298.015907 
L 251.093468 300.954181 
L 254.765895 302.104078 
L 263.334889 304.409933 
L 267.007316 305.108735 
L 270.679742 305.538225 
L 285.369447 306.854353 
L 295.162584 307.290917 
L 304.95572 307.400955 
L 340.455841 307.582296 
L 358.817972 307.583859 
L 358.817972 307.583859 
" style="fill:none;stroke:#1f77b4;stroke-linecap:round;stroke-width:1.5;"/>
   </g>
   <g id="patch_3">
    <path d="M 57.6 307.584 
L 57.6 41.472 
" style="fill:none;stroke:#ffffff;stroke-linecap:square;stroke-linejoin:miter;stroke-width:0.8;"/>
   </g>
   <g id="patch_4">
    <path d="M 414.72 307.584 
L 414.72 41.472 
" style="fill:none;stroke:#ffffff;stroke-linecap:square;stroke-linejoin:miter;stroke-width:0.8;"/>
   </g>
   <g id="patch_5">
    <path d="M 57.6 307.584 
L 414.72 307.584 
" style="fill:none;stroke:#ffffff;stroke-linecap:square;stroke-linejoin:miter;stroke-width:0.8;"/>
   </g>
   <g id="patch_6">
    <path d="M 57.6 41.472 
L 414.72 41.472 
" style="fill:none;stroke:#ffffff;stroke-linecap:square;stroke-linejoin:miter;stroke-width:0.8;"/>
   </g>
   <g id="text_16">
    <!-- Density plots of 20000 PG(h, 0) samples using each method for h $\in$ {1,4,7,10,15}.  -->
    <g style="fill:#262626;" transform="translate(45.9 25.374)scale(0.09 -0.09)">
     <defs>
      <path id="DejaVuSans-32"/>
      <path d="M 18.109375 8.203125 
L 18.109375 -20.796875 
L 9.078125 -20.796875 
L 9.078125 54.6875 
L 18.109375 54.6875 
L 18.109375 46.390625 
Q 20.953125 51.265625 25.265625 53.625 
Q 29.59375 56 35.59375 56 
Q 45.5625 56 51.78125 48.09375 
Q 58.015625 40.1875 58.015625 27.296875 
Q 58.015625 14.40625 51.78125 6.484375 
Q 45.5625 -1.421875 35.59375 -1.421875 
Q 29.59375 -1.421875 25.265625 0.953125 
Q 20.953125 3.328125 18.109375 8.203125 
z
M 48.6875 27.296875 
Q 48.6875 37.203125 44.609375 42.84375 
Q 40.53125 48.484375 33.40625 48.484375 
Q 26.265625 48.484375 22.1875 42.84375 
Q 18.109375 37.203125 18.109375 27.296875 
Q 18.109375 17.390625 22.1875 11.75 
Q 26.265625 6.109375 33.40625 6.109375 
Q 40.53125 6.109375 44.609375 11.75 
Q 48.6875 17.390625 48.6875 27.296875 
z
" id="DejaVuSans-112"/>
      <path d="M 9.421875 75.984375 
L 18.40625 75.984375 
L 18.40625 0 
L 9.421875 0 
z
" id="DejaVuSans-108"/>
      <path d="M 30.609375 48.390625 
Q 23.390625 48.390625 19.1875 42.75 
Q 14.984375 37.109375 14.984375 27.296875 
Q 14.984375 17.484375 19.15625 11.84375 
Q 23.34375 6.203125 30.609375 6.203125 
Q 37.796875 6.203125 41.984375 11.859375 
Q 46.1875 17.53125 46.1875 27.296875 
Q 46.1875 37.015625 41.984375 42.703125 
Q 37.796875 48.390625 30.609375 48.390625 
z
M 30.609375 56 
Q 42.328125 56 49.015625 48.375 
Q 55.71875 40.765625 55.71875 27.296875 
Q 55.71875 13.875 49.015625 6.21875 
Q 42.328125 -1.421875 30.609375 -1.421875 
Q 18.84375 -1.421875 12.171875 6.21875 
Q 5.515625 13.875 5.515625 27.296875 
Q 5.515625 40.765625 12.171875 48.375 
Q 18.84375 56 30.609375 56 
z
" id="DejaVuSans-111"/>
      <path d="M 37.109375 75.984375 
L 37.109375 68.5 
L 28.515625 68.5 
Q 23.6875 68.5 21.796875 66.546875 
Q 19.921875 64.59375 19.921875 59.515625 
L 19.921875 54.6875 
L 34.71875 54.6875 
L 34.71875 47.703125 
L 19.921875 47.703125 
L 19.921875 0 
L 10.890625 0 
L 10.890625 47.703125 
L 2.296875 47.703125 
L 2.296875 54.6875 
L 10.890625 54.6875 
L 10.890625 58.5 
Q 10.890625 67.625 15.140625 71.796875 
Q 19.390625 75.984375 28.609375 75.984375 
z
" id="DejaVuSans-102"/>
      <path d="M 19.671875 64.796875 
L 19.671875 37.40625 
L 32.078125 37.40625 
Q 38.96875 37.40625 42.71875 40.96875 
Q 46.484375 44.53125 46.484375 51.125 
Q 46.484375 57.671875 42.71875 61.234375 
Q 38.96875 64.796875 32.078125 64.796875 
z
M 9.8125 72.90625 
L 32.078125 72.90625 
Q 44.34375 72.90625 50.609375 67.359375 
Q 56.890625 61.8125 56.890625 51.125 
Q 56.890625 40.328125 50.609375 34.8125 
Q 44.34375 29.296875 32.078125 29.296875 
L 19.671875 29.296875 
L 19.671875 0 
L 9.8125 0 
z
" id="DejaVuSans-80"/>
      <path d="M 59.515625 10.40625 
L 59.515625 29.984375 
L 43.40625 29.984375 
L 43.40625 38.09375 
L 69.28125 38.09375 
L 69.28125 6.78125 
Q 63.578125 2.734375 56.6875 0.65625 
Q 49.8125 -1.421875 42 -1.421875 
Q 24.90625 -1.421875 15.25 8.5625 
Q 5.609375 18.5625 5.609375 36.375 
Q 5.609375 54.25 15.25 64.234375 
Q 24.90625 74.21875 42 74.21875 
Q 49.125 74.21875 55.546875 72.453125 
Q 61.96875 70.703125 67.390625 67.28125 
L 67.390625 56.78125 
Q 61.921875 61.421875 55.765625 63.765625 
Q 49.609375 66.109375 42.828125 66.109375 
Q 29.4375 66.109375 22.71875 58.640625 
Q 16.015625 51.171875 16.015625 36.375 
Q 16.015625 21.625 22.71875 14.15625 
Q 29.4375 6.6875 42.828125 6.6875 
Q 48.046875 6.6875 52.140625 7.59375 
Q 56.25 8.5 59.515625 10.40625 
z
" id="DejaVuSans-71"/>
      <path d="M 31 75.875 
Q 24.46875 64.65625 21.28125 53.65625 
Q 18.109375 42.671875 18.109375 31.390625 
Q 18.109375 20.125 21.3125 9.0625 
Q 24.515625 -2 31 -13.1875 
L 23.1875 -13.1875 
Q 15.875 -1.703125 12.234375 9.375 
Q 8.59375 20.453125 8.59375 31.390625 
Q 8.59375 42.28125 12.203125 53.3125 
Q 15.828125 64.359375 23.1875 75.875 
z
" id="DejaVuSans-40"/>
      <path d="M 54.890625 33.015625 
L 54.890625 0 
L 45.90625 0 
L 45.90625 32.71875 
Q 45.90625 40.484375 42.875 44.328125 
Q 39.84375 48.1875 33.796875 48.1875 
Q 26.515625 48.1875 22.3125 43.546875 
Q 18.109375 38.921875 18.109375 30.90625 
L 18.109375 0 
L 9.078125 0 
L 9.078125 75.984375 
L 18.109375 75.984375 
L 18.109375 46.1875 
Q 21.34375 51.125 25.703125 53.5625 
Q 30.078125 56 35.796875 56 
Q 45.21875 56 50.046875 50.171875 
Q 54.890625 44.34375 54.890625 33.015625 
z
" id="DejaVuSans-104"/>
      <path d="M 11.71875 12.40625 
L 22.015625 12.40625 
L 22.015625 4 
L 14.015625 -11.625 
L 7.71875 -11.625 
L 11.71875 4 
z
" id="DejaVuSans-44"/>
      <path d="M 8.015625 75.875 
L 15.828125 75.875 
Q 23.140625 64.359375 26.78125 53.3125 
Q 30.421875 42.28125 30.421875 31.390625 
Q 30.421875 20.453125 26.78125 9.375 
Q 23.140625 -1.703125 15.828125 -13.1875 
L 8.015625 -13.1875 
Q 14.5 -2 17.703125 9.0625 
Q 20.90625 20.125 20.90625 31.390625 
Q 20.90625 42.671875 17.703125 53.65625 
Q 14.5 64.65625 8.015625 75.875 
z
" id="DejaVuSans-41"/>
      <path d="M 34.28125 27.484375 
Q 23.390625 27.484375 19.1875 25 
Q 14.984375 22.515625 14.984375 16.5 
Q 14.984375 11.71875 18.140625 8.90625 
Q 21.296875 6.109375 26.703125 6.109375 
Q 34.1875 6.109375 38.703125 11.40625 
Q 43.21875 16.703125 43.21875 25.484375 
L 43.21875 27.484375 
z
M 52.203125 31.203125 
L 52.203125 0 
L 43.21875 0 
L 43.21875 8.296875 
Q 40.140625 3.328125 35.546875 0.953125 
Q 30.953125 -1.421875 24.3125 -1.421875 
Q 15.921875 -1.421875 10.953125 3.296875 
Q 6 8.015625 6 15.921875 
Q 6 25.140625 12.171875 29.828125 
Q 18.359375 34.515625 30.609375 34.515625 
L 43.21875 34.515625 
L 43.21875 35.40625 
Q 43.21875 41.609375 39.140625 45 
Q 35.0625 48.390625 27.6875 48.390625 
Q 23 48.390625 18.546875 47.265625 
Q 14.109375 46.140625 10.015625 43.890625 
L 10.015625 52.203125 
Q 14.9375 54.109375 19.578125 55.046875 
Q 24.21875 56 28.609375 56 
Q 40.484375 56 46.34375 49.84375 
Q 52.203125 43.703125 52.203125 31.203125 
z
" id="DejaVuSans-97"/>
      <path d="M 52 44.1875 
Q 55.375 50.25 60.0625 53.125 
Q 64.75 56 71.09375 56 
Q 79.640625 56 84.28125 50.015625 
Q 88.921875 44.046875 88.921875 33.015625 
L 88.921875 0 
L 79.890625 0 
L 79.890625 32.71875 
Q 79.890625 40.578125 77.09375 44.375 
Q 74.3125 48.1875 68.609375 48.1875 
Q 61.625 48.1875 57.5625 43.546875 
Q 53.515625 38.921875 53.515625 30.90625 
L 53.515625 0 
L 44.484375 0 
L 44.484375 32.71875 
Q 44.484375 40.625 41.703125 44.40625 
Q 38.921875 48.1875 33.109375 48.1875 
Q 26.21875 48.1875 22.15625 43.53125 
Q 18.109375 38.875 18.109375 30.90625 
L 18.109375 0 
L 9.078125 0 
L 9.078125 54.6875 
L 18.109375 54.6875 
L 18.109375 46.1875 
Q 21.1875 51.21875 25.484375 53.609375 
Q 29.78125 56 35.6875 56 
Q 41.65625 56 45.828125 52.96875 
Q 50 49.953125 52 44.1875 
z
" id="DejaVuSans-109"/>
      <path d="M 8.5 21.578125 
L 8.5 54.6875 
L 17.484375 54.6875 
L 17.484375 21.921875 
Q 17.484375 14.15625 20.5 10.265625 
Q 23.53125 6.390625 29.59375 6.390625 
Q 36.859375 6.390625 41.078125 11.03125 
Q 45.3125 15.671875 45.3125 23.6875 
L 45.3125 54.6875 
L 54.296875 54.6875 
L 54.296875 0 
L 45.3125 0 
L 45.3125 8.40625 
Q 42.046875 3.421875 37.71875 1 
Q 33.40625 -1.421875 27.6875 -1.421875 
Q 18.265625 -1.421875 13.375 4.4375 
Q 8.5 10.296875 8.5 21.578125 
z
M 31.109375 56 
z
" id="DejaVuSans-117"/>
      <path d="M 45.40625 27.984375 
Q 45.40625 37.75 41.375 43.109375 
Q 37.359375 48.484375 30.078125 48.484375 
Q 22.859375 48.484375 18.828125 43.109375 
Q 14.796875 37.75 14.796875 27.984375 
Q 14.796875 18.265625 18.828125 12.890625 
Q 22.859375 7.515625 30.078125 7.515625 
Q 37.359375 7.515625 41.375 12.890625 
Q 45.40625 18.265625 45.40625 27.984375 
z
M 54.390625 6.78125 
Q 54.390625 -7.171875 48.1875 -13.984375 
Q 42 -20.796875 29.203125 -20.796875 
Q 24.46875 -20.796875 20.265625 -20.09375 
Q 16.0625 -19.390625 12.109375 -17.921875 
L 12.109375 -9.1875 
Q 16.0625 -11.328125 19.921875 -12.34375 
Q 23.78125 -13.375 27.78125 -13.375 
Q 36.625 -13.375 41.015625 -8.765625 
Q 45.40625 -4.15625 45.40625 5.171875 
L 45.40625 9.625 
Q 42.625 4.78125 38.28125 2.390625 
Q 33.9375 0 27.875 0 
Q 17.828125 0 11.671875 7.65625 
Q 5.515625 15.328125 5.515625 27.984375 
Q 5.515625 40.671875 11.671875 48.328125 
Q 17.828125 56 27.875 56 
Q 33.9375 56 38.28125 53.609375 
Q 42.625 51.21875 45.40625 46.390625 
L 45.40625 54.6875 
L 54.390625 54.6875 
z
" id="DejaVuSans-103"/>
      <path d="M 48.78125 52.59375 
L 48.78125 44.1875 
Q 44.96875 46.296875 41.140625 47.34375 
Q 37.3125 48.390625 33.40625 48.390625 
Q 24.65625 48.390625 19.8125 42.84375 
Q 14.984375 37.3125 14.984375 27.296875 
Q 14.984375 17.28125 19.8125 11.734375 
Q 24.65625 6.203125 33.40625 6.203125 
Q 37.3125 6.203125 41.140625 7.25 
Q 44.96875 8.296875 48.78125 10.40625 
L 48.78125 2.09375 
Q 45.015625 0.34375 40.984375 -0.53125 
Q 36.96875 -1.421875 32.421875 -1.421875 
Q 20.0625 -1.421875 12.78125 6.34375 
Q 5.515625 14.109375 5.515625 27.296875 
Q 5.515625 40.671875 12.859375 48.328125 
Q 20.21875 56 33.015625 56 
Q 37.15625 56 41.109375 55.140625 
Q 45.0625 54.296875 48.78125 52.59375 
z
" id="DejaVuSans-99"/>
      <path d="M 45.40625 46.390625 
L 45.40625 75.984375 
L 54.390625 75.984375 
L 54.390625 0 
L 45.40625 0 
L 45.40625 8.203125 
Q 42.578125 3.328125 38.25 0.953125 
Q 33.9375 -1.421875 27.875 -1.421875 
Q 17.96875 -1.421875 11.734375 6.484375 
Q 5.515625 14.40625 5.515625 27.296875 
Q 5.515625 40.1875 11.734375 48.09375 
Q 17.96875 56 27.875 56 
Q 33.9375 56 38.25 53.625 
Q 42.578125 51.265625 45.40625 46.390625 
z
M 14.796875 27.296875 
Q 14.796875 17.390625 18.875 11.75 
Q 22.953125 6.109375 30.078125 6.109375 
Q 37.203125 6.109375 41.296875 11.75 
Q 45.40625 17.390625 45.40625 27.296875 
Q 45.40625 37.203125 41.296875 42.84375 
Q 37.203125 48.484375 30.078125 48.484375 
Q 22.953125 48.484375 18.875 42.84375 
Q 14.796875 37.203125 14.796875 27.296875 
z
" id="DejaVuSans-100"/>
      <path d="M 41.109375 46.296875 
Q 39.59375 47.171875 37.8125 47.578125 
Q 36.03125 48 33.890625 48 
Q 26.265625 48 22.1875 43.046875 
Q 18.109375 38.09375 18.109375 28.8125 
L 18.109375 0 
L 9.078125 0 
L 9.078125 54.6875 
L 18.109375 54.6875 
L 18.109375 46.1875 
Q 20.953125 51.171875 25.484375 53.578125 
Q 30.03125 56 36.53125 56 
Q 37.453125 56 38.578125 55.875 
Q 39.703125 55.765625 41.0625 55.515625 
z
" id="DejaVuSans-114"/>
      <path d="M 16.75 30.609375 
Q 17.09375 27 20.171875 21.140625 
Q 23.78125 14.359375 30.609375 10.546875 
Q 37.3125 6.84375 44.53125 6.78125 
L 78.5625 6.78125 
L 78.5625 -0.984375 
L 44.53125 -0.984375 
Q 35.15625 -0.984375 26.484375 3.84375 
Q 17.828125 8.6875 13.1875 17.28125 
Q 8.546875 25.875 8.546875 35.015625 
Q 8.546875 44.046875 13.1875 52.640625 
Q 17.828125 61.234375 26.484375 66.109375 
Q 35.15625 71 44.53125 71 
L 78.5625 71 
L 78.5625 63.234375 
L 44.53125 63.234375 
Q 37.3125 63.1875 30.609375 59.421875 
Q 23.828125 55.5625 20.171875 48.828125 
Q 17.046875 42.96875 16.609375 38.421875 
L 78.5625 38.421875 
L 78.5625 30.609375 
z
" id="DejaVuSans-8712"/>
      <path d="M 51.125 -9.28125 
L 51.125 -16.3125 
L 48.09375 -16.3125 
Q 35.9375 -16.3125 31.8125 -12.6875 
Q 27.6875 -9.078125 27.6875 1.703125 
L 27.6875 13.375 
Q 27.6875 20.75 25.046875 23.578125 
Q 22.40625 26.421875 15.484375 26.421875 
L 12.5 26.421875 
L 12.5 33.40625 
L 15.484375 33.40625 
Q 22.46875 33.40625 25.078125 36.203125 
Q 27.6875 39.015625 27.6875 46.296875 
L 27.6875 58.015625 
Q 27.6875 68.796875 31.8125 72.390625 
Q 35.9375 75.984375 48.09375 75.984375 
L 51.125 75.984375 
L 51.125 69 
L 47.796875 69 
Q 40.921875 69 38.8125 66.84375 
Q 36.71875 64.703125 36.71875 57.8125 
L 36.71875 45.703125 
Q 36.71875 38.03125 34.5 34.5625 
Q 32.28125 31.109375 26.90625 29.890625 
Q 32.328125 28.5625 34.515625 25.09375 
Q 36.71875 21.625 36.71875 14.015625 
L 36.71875 1.90625 
Q 36.71875 -4.984375 38.8125 -7.125 
Q 40.921875 -9.28125 47.796875 -9.28125 
z
" id="DejaVuSans-123"/>
      <path d="M 12.5 -9.28125 
L 15.921875 -9.28125 
Q 22.75 -9.28125 24.828125 -7.171875 
Q 26.90625 -5.078125 26.90625 1.90625 
L 26.90625 14.015625 
Q 26.90625 21.625 29.09375 25.09375 
Q 31.296875 28.5625 36.71875 29.890625 
Q 31.296875 31.109375 29.09375 34.5625 
Q 26.90625 38.03125 26.90625 45.703125 
L 26.90625 57.8125 
Q 26.90625 64.75 24.828125 66.875 
Q 22.75 69 15.921875 69 
L 12.5 69 
L 12.5 75.984375 
L 15.578125 75.984375 
Q 27.734375 75.984375 31.8125 72.390625 
Q 35.890625 68.796875 35.890625 58.015625 
L 35.890625 46.296875 
Q 35.890625 39.015625 38.515625 36.203125 
Q 41.15625 33.40625 48.09375 33.40625 
L 51.125 33.40625 
L 51.125 26.421875 
L 48.09375 26.421875 
Q 41.15625 26.421875 38.515625 23.578125 
Q 35.890625 20.75 35.890625 13.375 
L 35.890625 1.703125 
Q 35.890625 -9.078125 31.8125 -12.6875 
Q 27.734375 -16.3125 15.578125 -16.3125 
L 12.5 -16.3125 
z
" id="DejaVuSans-125"/>
     </defs>
     <use transform="translate(0 0.015625)" xlink:href="#DejaVuSans-68"/>
     <use transform="translate(77.001953 0.015625)" xlink:href="#DejaVuSans-101"/>
     <use transform="translate(138.525391 0.015625)" xlink:href="#DejaVuSans-110"/>
     <use transform="translate(201.904297 0.015625)" xlink:href="#DejaVuSans-115"/>
     <use transform="translate(254.003906 0.015625)" xlink:href="#DejaVuSans-105"/>
     <use transform="translate(281.787109 0.015625)" xlink:href="#DejaVuSans-116"/>
     <use transform="translate(320.996094 0.015625)" xlink:href="#DejaVuSans-121"/>
     <use transform="translate(380.175781 0.015625)" xlink:href="#DejaVuSans-32"/>
     <use transform="translate(411.962891 0.015625)" xlink:href="#DejaVuSans-112"/>
     <use transform="translate(475.439453 0.015625)" xlink:href="#DejaVuSans-108"/>
     <use transform="translate(503.222656 0.015625)" xlink:href="#DejaVuSans-111"/>
     <use transform="translate(564.404297 0.015625)" xlink:href="#DejaVuSans-116"/>
     <use transform="translate(603.613281 0.015625)" xlink:href="#DejaVuSans-115"/>
     <use transform="translate(655.712891 0.015625)" xlink:href="#DejaVuSans-32"/>
     <use transform="translate(687.5 0.015625)" xlink:href="#DejaVuSans-111"/>
     <use transform="translate(748.681641 0.015625)" xlink:href="#DejaVuSans-102"/>
     <use transform="translate(783.886719 0.015625)" xlink:href="#DejaVuSans-32"/>
     <use transform="translate(815.673828 0.015625)" xlink:href="#DejaVuSans-50"/>
     <use transform="translate(879.296875 0.015625)" xlink:href="#DejaVuSans-48"/>
     <use transform="translate(942.919922 0.015625)" xlink:href="#DejaVuSans-48"/>
     <use transform="translate(1006.542969 0.015625)" xlink:href="#DejaVuSans-48"/>
     <use transform="translate(1070.166016 0.015625)" xlink:href="#DejaVuSans-48"/>
     <use transform="translate(1133.789062 0.015625)" xlink:href="#DejaVuSans-32"/>
     <use transform="translate(1165.576172 0.015625)" xlink:href="#DejaVuSans-80"/>
     <use transform="translate(1225.878906 0.015625)" xlink:href="#DejaVuSans-71"/>
     <use transform="translate(1303.369141 0.015625)" xlink:href="#DejaVuSans-40"/>
     <use transform="translate(1342.382812 0.015625)" xlink:href="#DejaVuSans-104"/>
     <use transform="translate(1405.761719 0.015625)" xlink:href="#DejaVuSans-44"/>
     <use transform="translate(1437.548828 0.015625)" xlink:href="#DejaVuSans-32"/>
     <use transform="translate(1469.335938 0.015625)" xlink:href="#DejaVuSans-48"/>
     <use transform="translate(1532.958984 0.015625)" xlink:href="#DejaVuSans-41"/>
     <use transform="translate(1571.972656 0.015625)" xlink:href="#DejaVuSans-32"/>
     <use transform="translate(1603.759766 0.015625)" xlink:href="#DejaVuSans-115"/>
     <use transform="translate(1655.859375 0.015625)" xlink:href="#DejaVuSans-97"/>
     <use transform="translate(1717.138672 0.015625)" xlink:href="#DejaVuSans-109"/>
     <use transform="translate(1814.550781 0.015625)" xlink:href="#DejaVuSans-112"/>
     <use transform="translate(1878.027344 0.015625)" xlink:href="#DejaVuSans-108"/>
     <use transform="translate(1905.810547 0.015625)" xlink:href="#DejaVuSans-101"/>
     <use transform="translate(1967.333984 0.015625)" xlink:href="#DejaVuSans-115"/>
     <use transform="translate(2019.433594 0.015625)" xlink:href="#DejaVuSans-32"/>
     <use transform="translate(2051.220703 0.015625)" xlink:href="#DejaVuSans-117"/>
     <use transform="translate(2114.599609 0.015625)" xlink:href="#DejaVuSans-115"/>
     <use transform="translate(2166.699219 0.015625)" xlink:href="#DejaVuSans-105"/>
     <use transform="translate(2194.482422 0.015625)" xlink:href="#DejaVuSans-110"/>
     <use transform="translate(2257.861328 0.015625)" xlink:href="#DejaVuSans-103"/>
     <use transform="translate(2321.337891 0.015625)" xlink:href="#DejaVuSans-32"/>
     <use transform="translate(2353.125 0.015625)" xlink:href="#DejaVuSans-101"/>
     <use transform="translate(2414.648438 0.015625)" xlink:href="#DejaVuSans-97"/>
     <use transform="translate(2475.927734 0.015625)" xlink:href="#DejaVuSans-99"/>
     <use transform="translate(2530.908203 0.015625)" xlink:href="#DejaVuSans-104"/>
     <use transform="translate(2594.287109 0.015625)" xlink:href="#DejaVuSans-32"/>
     <use transform="translate(2626.074219 0.015625)" xlink:href="#DejaVuSans-109"/>
     <use transform="translate(2723.486328 0.015625)" xlink:href="#DejaVuSans-101"/>
     <use transform="translate(2785.009766 0.015625)" xlink:href="#DejaVuSans-116"/>
     <use transform="translate(2824.21875 0.015625)" xlink:href="#DejaVuSans-104"/>
     <use transform="translate(2887.597656 0.015625)" xlink:href="#DejaVuSans-111"/>
     <use transform="translate(2948.779297 0.015625)" xlink:href="#DejaVuSans-100"/>
     <use transform="translate(3012.255859 0.015625)" xlink:href="#DejaVuSans-32"/>
     <use transform="translate(3044.042969 0.015625)" xlink:href="#DejaVuSans-102"/>
     <use transform="translate(3079.248047 0.015625)" xlink:href="#DejaVuSans-111"/>
     <use transform="translate(3140.429688 0.015625)" xlink:href="#DejaVuSans-114"/>
     <use transform="translate(3181.542969 0.015625)" xlink:href="#DejaVuSans-32"/>
     <use transform="translate(3213.330078 0.015625)" xlink:href="#DejaVuSans-104"/>
     <use transform="translate(3276.708984 0.015625)" xlink:href="#DejaVuSans-32"/>
     <use transform="translate(3327.978516 0.015625)" xlink:href="#DejaVuSans-8712"/>
     <use transform="translate(3434.570312 0.015625)" xlink:href="#DejaVuSans-32"/>
     <use transform="translate(3466.357422 0.015625)" xlink:href="#DejaVuSans-123"/>
     <use transform="translate(3529.980469 0.015625)" xlink:href="#DejaVuSans-49"/>
     <use transform="translate(3593.603516 0.015625)" xlink:href="#DejaVuSans-44"/>
     <use transform="translate(3625.390625 0.015625)" xlink:href="#DejaVuSans-52"/>
     <use transform="translate(3689.013672 0.015625)" xlink:href="#DejaVuSans-44"/>
     <use transform="translate(3720.800781 0.015625)" xlink:href="#DejaVuSans-55"/>
     <use transform="translate(3784.423828 0.015625)" xlink:href="#DejaVuSans-44"/>
     <use transform="translate(3816.210938 0.015625)" xlink:href="#DejaVuSans-49"/>
     <use transform="translate(3879.833984 0.015625)" xlink:href="#DejaVuSans-48"/>
     <use transform="translate(3943.457031 0.015625)" xlink:href="#DejaVuSans-44"/>
     <use transform="translate(3975.244141 0.015625)" xlink:href="#DejaVuSans-49"/>
     <use transform="translate(4038.867188 0.015625)" xlink:href="#DejaVuSans-53"/>
     <use transform="translate(4100.740234 0.015625)" xlink:href="#DejaVuSans-125"/>
     <use transform="translate(4164.363281 0.015625)" xlink:href="#DejaVuSans-46"/>
     <use transform="translate(4196.150391 0.015625)" xlink:href="#DejaVuSans-32"/>
    </g>
    <!-- A plot from the $pypolyagamma$ package is used as a reference. -->
    <g style="fill:#262626;" transform="translate(92.79 35.472)scale(0.09 -0.09)">
     <defs>
      <path d="M 34.1875 63.1875 
L 20.796875 26.90625 
L 47.609375 26.90625 
z
M 28.609375 72.90625 
L 39.796875 72.90625 
L 67.578125 0 
L 57.328125 0 
L 50.6875 18.703125 
L 17.828125 18.703125 
L 11.1875 0 
L 0.78125 0 
z
" id="DejaVuSans-65"/>
      <path d="M 49.609375 33.6875 
Q 49.609375 40.875 46.484375 44.671875 
Q 43.359375 48.484375 37.5 48.484375 
Q 33.5 48.484375 29.859375 46.4375 
Q 26.21875 44.390625 23.390625 40.484375 
Q 20.609375 36.625 18.9375 31.15625 
Q 17.28125 25.6875 17.28125 20.3125 
Q 17.28125 13.484375 20.40625 9.796875 
Q 23.53125 6.109375 29.296875 6.109375 
Q 33.546875 6.109375 37.1875 8.109375 
Q 40.828125 10.109375 43.40625 13.921875 
Q 46.1875 17.921875 47.890625 23.34375 
Q 49.609375 28.765625 49.609375 33.6875 
z
M 21.78125 46.390625 
Q 25.390625 51.125 30.296875 53.5625 
Q 35.203125 56 41.21875 56 
Q 49.609375 56 54.25 50.5 
Q 58.890625 45.015625 58.890625 35.109375 
Q 58.890625 27 56 19.65625 
Q 53.125 12.3125 47.703125 6.5 
Q 44.09375 2.640625 39.546875 0.609375 
Q 35.015625 -1.421875 29.984375 -1.421875 
Q 24.171875 -1.421875 20.21875 1 
Q 16.265625 3.421875 14.3125 8.203125 
L 8.6875 -20.796875 
L -0.296875 -20.796875 
L 14.40625 54.6875 
L 23.390625 54.6875 
z
" id="DejaVuSans-Oblique-112"/>
      <path d="M 24.8125 -5.078125 
Q 18.5625 -15.578125 14.625 -18.1875 
Q 10.6875 -20.796875 4.59375 -20.796875 
L -2.484375 -20.796875 
L -0.984375 -13.28125 
L 4.203125 -13.28125 
Q 7.953125 -13.28125 10.59375 -11.234375 
Q 13.234375 -9.1875 16.5 -3.21875 
L 19.28125 2 
L 7.171875 54.6875 
L 16.703125 54.6875 
L 25.78125 12.796875 
L 50.875 54.6875 
L 60.296875 54.6875 
z
" id="DejaVuSans-Oblique-121"/>
      <path d="M 25.390625 -1.421875 
Q 15.765625 -1.421875 10.171875 4.515625 
Q 4.59375 10.453125 4.59375 20.703125 
Q 4.59375 26.65625 6.515625 32.828125 
Q 8.453125 39.015625 11.53125 43.21875 
Q 16.359375 49.75 22.3125 52.875 
Q 28.265625 56 35.796875 56 
Q 45.125 56 50.859375 50.1875 
Q 56.59375 44.390625 56.59375 35.015625 
Q 56.59375 28.515625 54.6875 22.0625 
Q 52.78125 15.625 49.703125 11.375 
Q 44.921875 4.828125 38.96875 1.703125 
Q 33.015625 -1.421875 25.390625 -1.421875 
z
M 13.921875 21 
Q 13.921875 13.578125 17.015625 9.890625 
Q 20.125 6.203125 26.421875 6.203125 
Q 35.453125 6.203125 41.375 14.078125 
Q 47.3125 21.96875 47.3125 34.078125 
Q 47.3125 41.15625 44.140625 44.765625 
Q 40.96875 48.390625 34.8125 48.390625 
Q 29.734375 48.390625 25.78125 46.015625 
Q 21.828125 43.65625 18.703125 38.8125 
Q 16.40625 35.203125 15.15625 30.5625 
Q 13.921875 25.921875 13.921875 21 
z
" id="DejaVuSans-Oblique-111"/>
      <path d="M 18.3125 75.984375 
L 27.296875 75.984375 
L 12.5 0 
L 3.515625 0 
z
" id="DejaVuSans-Oblique-108"/>
      <path d="M 53.71875 31.203125 
L 47.609375 0 
L 38.625 0 
L 40.28125 8.296875 
Q 36.328125 3.421875 31.265625 1 
Q 26.21875 -1.421875 20.015625 -1.421875 
Q 13.03125 -1.421875 8.5625 2.84375 
Q 4.109375 7.125 4.109375 13.8125 
Q 4.109375 23.390625 11.75 28.953125 
Q 19.390625 34.515625 32.8125 34.515625 
L 45.3125 34.515625 
L 45.796875 36.921875 
Q 45.90625 37.3125 45.953125 37.765625 
Q 46 38.234375 46 39.203125 
Q 46 43.5625 42.453125 45.96875 
Q 38.921875 48.390625 32.515625 48.390625 
Q 28.125 48.390625 23.5 47.265625 
Q 18.890625 46.140625 14.015625 43.890625 
L 15.578125 52.203125 
Q 20.65625 54.109375 25.515625 55.046875 
Q 30.375 56 34.90625 56 
Q 44.578125 56 49.625 51.796875 
Q 54.6875 47.609375 54.6875 39.59375 
Q 54.6875 37.984375 54.4375 35.8125 
Q 54.203125 33.640625 53.71875 31.203125 
z
M 44 27.484375 
L 35.015625 27.484375 
Q 23.96875 27.484375 18.671875 24.53125 
Q 13.375 21.578125 13.375 15.375 
Q 13.375 11.078125 16.078125 8.640625 
Q 18.796875 6.203125 23.578125 6.203125 
Q 30.90625 6.203125 36.375 11.453125 
Q 41.84375 16.703125 43.609375 25.484375 
z
" id="DejaVuSans-Oblique-97"/>
      <path d="M 59.625 54.6875 
L 50.296875 6.78125 
Q 47.609375 -7.125 40.015625 -13.953125 
Q 32.421875 -20.796875 19.578125 -20.796875 
Q 14.84375 -20.796875 10.78125 -20.09375 
Q 6.734375 -19.390625 3.21875 -17.921875 
L 4.890625 -9.1875 
Q 8.203125 -11.328125 11.90625 -12.34375 
Q 15.625 -13.375 19.828125 -13.375 
Q 28.375 -13.375 33.859375 -8.703125 
Q 39.359375 -4.046875 41.109375 4.6875 
L 41.890625 8.796875 
Q 38.140625 4.5 33.15625 2.25 
Q 28.171875 0 22.40625 0 
Q 14.109375 0 9.34375 5.484375 
Q 4.59375 10.984375 4.59375 20.609375 
Q 4.59375 28.171875 7.46875 35.421875 
Q 10.359375 42.671875 15.578125 48.296875 
Q 19.046875 52 23.65625 54 
Q 28.265625 56 33.296875 56 
Q 38.8125 56 42.90625 53.4375 
Q 47.015625 50.875 49.03125 46.1875 
L 50.59375 54.6875 
z
M 46.09375 34.625 
Q 46.09375 41.265625 42.96875 44.875 
Q 39.84375 48.484375 34.078125 48.484375 
Q 30.515625 48.484375 27.296875 47.0625 
Q 24.078125 45.65625 21.78125 43.109375 
Q 18.0625 38.921875 15.984375 33.234375 
Q 13.921875 27.546875 13.921875 21.484375 
Q 13.921875 14.75 17.0625 11.125 
Q 20.21875 7.515625 26.125 7.515625 
Q 34.671875 7.515625 40.375 15.25 
Q 46.09375 23 46.09375 34.625 
z
" id="DejaVuSans-Oblique-103"/>
      <path d="M 89.796875 33.015625 
L 83.40625 0 
L 74.421875 0 
L 80.71875 32.71875 
Q 81.109375 34.8125 81.296875 36.328125 
Q 81.5 37.84375 81.5 38.921875 
Q 81.5 43.3125 79.046875 45.75 
Q 76.609375 48.1875 72.21875 48.1875 
Q 65.671875 48.1875 60.546875 43.28125 
Q 55.421875 38.375 53.90625 30.515625 
L 47.90625 0 
L 38.921875 0 
L 45.3125 32.71875 
Q 45.703125 34.515625 45.890625 36.046875 
Q 46.09375 37.59375 46.09375 38.8125 
Q 46.09375 43.265625 43.65625 45.71875 
Q 41.21875 48.1875 36.921875 48.1875 
Q 30.28125 48.1875 25.140625 43.28125 
Q 20.015625 38.375 18.5 30.515625 
L 12.5 0 
L 3.515625 0 
L 14.203125 54.6875 
L 23.1875 54.6875 
L 21.484375 46.1875 
Q 25.140625 50.984375 30.046875 53.484375 
Q 34.96875 56 40.578125 56 
Q 46.53125 56 50.359375 52.875 
Q 54.203125 49.75 54.984375 44.1875 
Q 59.078125 49.953125 64.46875 52.96875 
Q 69.875 56 75.875 56 
Q 82.90625 56 86.734375 51.953125 
Q 90.578125 47.90625 90.578125 40.484375 
Q 90.578125 38.875 90.375 36.9375 
Q 90.1875 35.015625 89.796875 33.015625 
z
" id="DejaVuSans-Oblique-109"/>
      <path d="M 9.078125 75.984375 
L 18.109375 75.984375 
L 18.109375 31.109375 
L 44.921875 54.6875 
L 56.390625 54.6875 
L 27.390625 29.109375 
L 57.625 0 
L 45.90625 0 
L 18.109375 26.703125 
L 18.109375 0 
L 9.078125 0 
z
" id="DejaVuSans-107"/>
     </defs>
     <use transform="translate(0 0.015625)" xlink:href="#DejaVuSans-65"/>
     <use transform="translate(68.408203 0.015625)" xlink:href="#DejaVuSans-32"/>
     <use transform="translate(100.195312 0.015625)" xlink:href="#DejaVuSans-112"/>
     <use transform="translate(163.671875 0.015625)" xlink:href="#DejaVuSans-108"/>
     <use transform="translate(191.455078 0.015625)" xlink:href="#DejaVuSans-111"/>
     <use transform="translate(252.636719 0.015625)" xlink:href="#DejaVuSans-116"/>
     <use transform="translate(291.845703 0.015625)" xlink:href="#DejaVuSans-32"/>
     <use transform="translate(323.632812 0.015625)" xlink:href="#DejaVuSans-102"/>
     <use transform="translate(358.837891 0.015625)" xlink:href="#DejaVuSans-114"/>
     <use transform="translate(399.951172 0.015625)" xlink:href="#DejaVuSans-111"/>
     <use transform="translate(461.132812 0.015625)" xlink:href="#DejaVuSans-109"/>
     <use transform="translate(558.544922 0.015625)" xlink:href="#DejaVuSans-32"/>
     <use transform="translate(590.332031 0.015625)" xlink:href="#DejaVuSans-116"/>
     <use transform="translate(629.541016 0.015625)" xlink:href="#DejaVuSans-104"/>
     <use transform="translate(692.919922 0.015625)" xlink:href="#DejaVuSans-101"/>
     <use transform="translate(754.443359 0.015625)" xlink:href="#DejaVuSans-32"/>
     <use transform="translate(786.230469 0.015625)" xlink:href="#DejaVuSans-Oblique-112"/>
     <use transform="translate(849.707031 0.015625)" xlink:href="#DejaVuSans-Oblique-121"/>
     <use transform="translate(908.886719 0.015625)" xlink:href="#DejaVuSans-Oblique-112"/>
     <use transform="translate(972.363281 0.015625)" xlink:href="#DejaVuSans-Oblique-111"/>
     <use transform="translate(1033.544922 0.015625)" xlink:href="#DejaVuSans-Oblique-108"/>
     <use transform="translate(1061.328125 0.015625)" xlink:href="#DejaVuSans-Oblique-121"/>
     <use transform="translate(1120.507812 0.015625)" xlink:href="#DejaVuSans-Oblique-97"/>
     <use transform="translate(1181.787109 0.015625)" xlink:href="#DejaVuSans-Oblique-103"/>
     <use transform="translate(1245.263672 0.015625)" xlink:href="#DejaVuSans-Oblique-97"/>
     <use transform="translate(1306.542969 0.015625)" xlink:href="#DejaVuSans-Oblique-109"/>
     <use transform="translate(1403.955078 0.015625)" xlink:href="#DejaVuSans-Oblique-109"/>
     <use transform="translate(1501.367188 0.015625)" xlink:href="#DejaVuSans-Oblique-97"/>
     <use transform="translate(1562.646484 0.015625)" xlink:href="#DejaVuSans-32"/>
     <use transform="translate(1594.433594 0.015625)" xlink:href="#DejaVuSans-112"/>
     <use transform="translate(1657.910156 0.015625)" xlink:href="#DejaVuSans-97"/>
     <use transform="translate(1719.189453 0.015625)" xlink:href="#DejaVuSans-99"/>
     <use transform="translate(1774.169922 0.015625)" xlink:href="#DejaVuSans-107"/>
     <use transform="translate(1832.080078 0.015625)" xlink:href="#DejaVuSans-97"/>
     <use transform="translate(1893.359375 0.015625)" xlink:href="#DejaVuSans-103"/>
     <use transform="translate(1956.835938 0.015625)" xlink:href="#DejaVuSans-101"/>
     <use transform="translate(2018.359375 0.015625)" xlink:href="#DejaVuSans-32"/>
     <use transform="translate(2050.146484 0.015625)" xlink:href="#DejaVuSans-105"/>
     <use transform="translate(2077.929688 0.015625)" xlink:href="#DejaVuSans-115"/>
     <use transform="translate(2130.029297 0.015625)" xlink:href="#DejaVuSans-32"/>
     <use transform="translate(2161.816406 0.015625)" xlink:href="#DejaVuSans-117"/>
     <use transform="translate(2225.195312 0.015625)" xlink:href="#DejaVuSans-115"/>
     <use transform="translate(2277.294922 0.015625)" xlink:href="#DejaVuSans-101"/>
     <use transform="translate(2338.818359 0.015625)" xlink:href="#DejaVuSans-100"/>
     <use transform="translate(2402.294922 0.015625)" xlink:href="#DejaVuSans-32"/>
     <use transform="translate(2434.082031 0.015625)" xlink:href="#DejaVuSans-97"/>
     <use transform="translate(2495.361328 0.015625)" xlink:href="#DejaVuSans-115"/>
     <use transform="translate(2547.460938 0.015625)" xlink:href="#DejaVuSans-32"/>
     <use transform="translate(2579.248047 0.015625)" xlink:href="#DejaVuSans-97"/>
     <use transform="translate(2640.527344 0.015625)" xlink:href="#DejaVuSans-32"/>
     <use transform="translate(2672.314453 0.015625)" xlink:href="#DejaVuSans-114"/>
     <use transform="translate(2713.427734 0.015625)" xlink:href="#DejaVuSans-101"/>
     <use transform="translate(2774.951172 0.015625)" xlink:href="#DejaVuSans-102"/>
     <use transform="translate(2810.15625 0.015625)" xlink:href="#DejaVuSans-101"/>
     <use transform="translate(2871.679688 0.015625)" xlink:href="#DejaVuSans-114"/>
     <use transform="translate(2912.792969 0.015625)" xlink:href="#DejaVuSans-101"/>
     <use transform="translate(2974.316406 0.015625)" xlink:href="#DejaVuSans-110"/>
     <use transform="translate(3037.695312 0.015625)" xlink:href="#DejaVuSans-99"/>
     <use transform="translate(3092.675781 0.015625)" xlink:href="#DejaVuSans-101"/>
     <use transform="translate(3154.199219 0.015625)" xlink:href="#DejaVuSans-46"/>
    </g>
   </g>
   <g id="legend_1">
    <g id="patch_7">
     <path d="M 298.02 122.8845 
L 407.72 122.8845 
Q 409.72 122.8845 409.72 120.8845 
L 409.72 48.472 
Q 409.72 46.472 407.72 46.472 
L 298.02 46.472 
Q 296.02 46.472 296.02 48.472 
L 296.02 120.8845 
Q 296.02 122.8845 298.02 122.8845 
z
" style="fill:#eaeaf2;opacity:0.8;stroke:#cccccc;stroke-linejoin:miter;"/>
    </g>
    <g id="line2d_40">
     <path d="M 300.02 54.570438 
L 320.02 54.570438 
" style="fill:none;stroke:#1f77b4;stroke-linecap:round;stroke-width:1.5;"/>
    </g>
    <g id="line2d_41"/>
    <g id="text_17">
     <!-- devroye -->
     <g style="fill:#262626;" transform="translate(328.02 58.070438)scale(0.1 -0.1)">
      <defs>
       <path d="M 2.984375 54.6875 
L 12.5 54.6875 
L 29.59375 8.796875 
L 46.6875 54.6875 
L 56.203125 54.6875 
L 35.6875 0 
L 23.484375 0 
z
" id="DejaVuSans-118"/>
      </defs>
      <use xlink:href="#DejaVuSans-100"/>
      <use x="63.476562" xlink:href="#DejaVuSans-101"/>
      <use x="125" xlink:href="#DejaVuSans-118"/>
      <use x="184.179688" xlink:href="#DejaVuSans-114"/>
      <use x="223.042969" xlink:href="#DejaVuSans-111"/>
      <use x="284.224609" xlink:href="#DejaVuSans-121"/>
      <use x="343.404297" xlink:href="#DejaVuSans-101"/>
     </g>
    </g>
    <g id="line2d_42">
     <path d="M 300.02 69.248563 
L 320.02 69.248563 
" style="fill:none;stroke:#ff7f0e;stroke-linecap:round;stroke-width:1.5;"/>
    </g>
    <g id="line2d_43"/>
    <g id="text_18">
     <!-- alternate -->
     <g style="fill:#262626;" transform="translate(328.02 72.748563)scale(0.1 -0.1)">
      <use xlink:href="#DejaVuSans-97"/>
      <use x="61.279297" xlink:href="#DejaVuSans-108"/>
      <use x="89.0625" xlink:href="#DejaVuSans-116"/>
      <use x="128.271484" xlink:href="#DejaVuSans-101"/>
      <use x="189.794922" xlink:href="#DejaVuSans-114"/>
      <use x="229.158203" xlink:href="#DejaVuSans-110"/>
      <use x="292.537109" xlink:href="#DejaVuSans-97"/>
      <use x="353.816406" xlink:href="#DejaVuSans-116"/>
      <use x="393.025391" xlink:href="#DejaVuSans-101"/>
     </g>
    </g>
    <g id="line2d_44">
     <path d="M 300.02 83.926688 
L 320.02 83.926688 
" style="fill:none;stroke:#2ca02c;stroke-linecap:round;stroke-width:1.5;"/>
    </g>
    <g id="line2d_45"/>
    <g id="text_19">
     <!-- gamma -->
     <g style="fill:#262626;" transform="translate(328.02 87.426688)scale(0.1 -0.1)">
      <use xlink:href="#DejaVuSans-103"/>
      <use x="63.476562" xlink:href="#DejaVuSans-97"/>
      <use x="124.755859" xlink:href="#DejaVuSans-109"/>
      <use x="222.167969" xlink:href="#DejaVuSans-109"/>
      <use x="319.580078" xlink:href="#DejaVuSans-97"/>
     </g>
    </g>
    <g id="line2d_46">
     <path d="M 300.02 98.604813 
L 320.02 98.604813 
" style="fill:none;stroke:#d62728;stroke-linecap:round;stroke-width:1.5;"/>
    </g>
    <g id="line2d_47"/>
    <g id="text_20">
     <!-- saddle -->
     <g style="fill:#262626;" transform="translate(328.02 102.104813)scale(0.1 -0.1)">
      <use xlink:href="#DejaVuSans-115"/>
      <use x="52.099609" xlink:href="#DejaVuSans-97"/>
      <use x="113.378906" xlink:href="#DejaVuSans-100"/>
      <use x="176.855469" xlink:href="#DejaVuSans-100"/>
      <use x="240.332031" xlink:href="#DejaVuSans-108"/>
      <use x="268.115234" xlink:href="#DejaVuSans-101"/>
     </g>
    </g>
    <g id="line2d_48">
     <path d="M 300.02 113.2845 
L 320.02 113.2845 
" style="fill:none;stroke:#9467bd;stroke-linecap:round;stroke-width:1.5;"/>
    </g>
    <g id="line2d_49"/>
    <g id="text_21">
     <!-- $pypolyagamma$ -->
     <g style="fill:#262626;" transform="translate(328.02 116.7845)scale(0.1 -0.1)">
      <use transform="translate(0 0.015625)" xlink:href="#DejaVuSans-Oblique-112"/>
      <use transform="translate(63.476562 0.015625)" xlink:href="#DejaVuSans-Oblique-121"/>
      <use transform="translate(122.65625 0.015625)" xlink:href="#DejaVuSans-Oblique-112"/>
      <use transform="translate(186.132812 0.015625)" xlink:href="#DejaVuSans-Oblique-111"/>
      <use transform="translate(247.314453 0.015625)" xlink:href="#DejaVuSans-Oblique-108"/>
      <use transform="translate(275.097656 0.015625)" xlink:href="#DejaVuSans-Oblique-121"/>
      <use transform="translate(334.277344 0.015625)" xlink:href="#DejaVuSans-Oblique-97"/>
      <use transform="translate(395.556641 0.015625)" xlink:href="#DejaVuSans-Oblique-103"/>
      <use transform="translate(459.033203 0.015625)" xlink:href="#DejaVuSans-Oblique-97"/>
      <use transform="translate(520.3125 0.015625)" xlink:href="#DejaVuSans-Oblique-109"/>
      <use transform="translate(617.724609 0.015625)" xlink:href="#DejaVuSans-Oblique-109"/>
      <use transform="translate(715.136719 0.015625)" xlink:href="#DejaVuSans-Oblique-97"/>
     </g>
    </g>
   </g>
  </g>
 </g>
 <defs>
  <clipPath id="pea7686615a">
   <rect height="266.112" width="357.12" x="57.6" y="41.472"/>
  </clipPath>
 </defs>
</svg>
