<?xml version="1.0" encoding="utf-8" standalone="no"?>
<!DOCTYPE svg PUBLIC "-//W3C//DTD SVG 1.1//EN"
  "http://www.w3.org/Graphics/SVG/1.1/DTD/svg11.dtd">
<!-- Created with matplotlib (https://matplotlib.org/) -->
<svg height="345.6pt" version="1.1" viewBox="0 0 460.8 345.6" width="460.8pt" xmlns="http://www.w3.org/2000/svg" xmlns:xlink="http://www.w3.org/1999/xlink">
 <metadata>
  <rdf:RDF xmlns:cc="http://creativecommons.org/ns#" xmlns:dc="http://purl.org/dc/elements/1.1/" xmlns:rdf="http://www.w3.org/1999/02/22-rdf-syntax-ns#">
   <cc:Work>
    <dc:type rdf:resource="http://purl.org/dc/dcmitype/StillImage"/>
    <dc:date>2021-01-26T09:59:07.892344</dc:date>
    <dc:format>image/svg+xml</dc:format>
    <dc:creator>
     <cc:Agent>
      <dc:title>Matplotlib v3.3.3, https://matplotlib.org/</dc:title>
     </cc:Agent>
    </dc:creator>
   </cc:Work>
  </rdf:RDF>
 </metadata>
 <defs>
  <style type="text/css">*{stroke-linecap:butt;stroke-linejoin:round;}</style>
 </defs>
 <g id="figure_1">
  <g id="patch_1">
   <path d="M 0 345.6 
L 460.8 345.6 
L 460.8 0 
L 0 0 
z
" style="fill:#ffffff;"/>
  </g>
  <g id="axes_1">
   <g id="patch_2">
    <path d="M 57.6 307.584 
L 414.72 307.584 
L 414.72 41.472 
L 57.6 41.472 
z
" style="fill:#eaeaf2;"/>
   </g>
   <g id="matplotlib.axis_1">
    <g id="xtick_1">
     <g id="line2d_1">
      <path clip-path="url(#peb18a69eda)" d="M 79.299392 307.584 
L 79.299392 41.472 
" style="fill:none;stroke:#ffffff;stroke-linecap:round;stroke-width:0.8;"/>
     </g>
     <g id="text_1">
      <!-- 0 -->
      <g style="fill:#262626;" transform="translate(76.118142 322.182437)scale(0.1 -0.1)">
       <defs>
        <path d="M 31.78125 66.40625 
Q 24.171875 66.40625 20.328125 58.90625 
Q 16.5 51.421875 16.5 36.375 
Q 16.5 21.390625 20.328125 13.890625 
Q 24.171875 6.390625 31.78125 6.390625 
Q 39.453125 6.390625 43.28125 13.890625 
Q 47.125 21.390625 47.125 36.375 
Q 47.125 51.421875 43.28125 58.90625 
Q 39.453125 66.40625 31.78125 66.40625 
z
M 31.78125 74.21875 
Q 44.046875 74.21875 50.515625 64.515625 
Q 56.984375 54.828125 56.984375 36.375 
Q 56.984375 17.96875 50.515625 8.265625 
Q 44.046875 -1.421875 31.78125 -1.421875 
Q 19.53125 -1.421875 13.0625 8.265625 
Q 6.59375 17.96875 6.59375 36.375 
Q 6.59375 54.828125 13.0625 64.515625 
Q 19.53125 74.21875 31.78125 74.21875 
z
" id="DejaVuSans-48"/>
       </defs>
       <use xlink:href="#DejaVuSans-48"/>
      </g>
     </g>
    </g>
    <g id="xtick_2">
     <g id="line2d_2">
      <path clip-path="url(#peb18a69eda)" d="M 156.779274 307.584 
L 156.779274 41.472 
" style="fill:none;stroke:#ffffff;stroke-linecap:round;stroke-width:0.8;"/>
     </g>
     <g id="text_2">
      <!-- 2 -->
      <g style="fill:#262626;" transform="translate(153.598024 322.182437)scale(0.1 -0.1)">
       <defs>
        <path d="M 19.1875 8.296875 
L 53.609375 8.296875 
L 53.609375 0 
L 7.328125 0 
L 7.328125 8.296875 
Q 12.9375 14.109375 22.625 23.890625 
Q 32.328125 33.6875 34.8125 36.53125 
Q 39.546875 41.84375 41.421875 45.53125 
Q 43.3125 49.21875 43.3125 52.78125 
Q 43.3125 58.59375 39.234375 62.25 
Q 35.15625 65.921875 28.609375 65.921875 
Q 23.96875 65.921875 18.8125 64.3125 
Q 13.671875 62.703125 7.8125 59.421875 
L 7.8125 69.390625 
Q 13.765625 71.78125 18.9375 73 
Q 24.125 74.21875 28.421875 74.21875 
Q 39.75 74.21875 46.484375 68.546875 
Q 53.21875 62.890625 53.21875 53.421875 
Q 53.21875 48.921875 51.53125 44.890625 
Q 49.859375 40.875 45.40625 35.40625 
Q 44.1875 33.984375 37.640625 27.21875 
Q 31.109375 20.453125 19.1875 8.296875 
z
" id="DejaVuSans-50"/>
       </defs>
       <use xlink:href="#DejaVuSans-50"/>
      </g>
     </g>
    </g>
    <g id="xtick_3">
     <g id="line2d_3">
      <path clip-path="url(#peb18a69eda)" d="M 234.259155 307.584 
L 234.259155 41.472 
" style="fill:none;stroke:#ffffff;stroke-linecap:round;stroke-width:0.8;"/>
     </g>
     <g id="text_3">
      <!-- 4 -->
      <g style="fill:#262626;" transform="translate(231.077905 322.182437)scale(0.1 -0.1)">
       <defs>
        <path d="M 37.796875 64.3125 
L 12.890625 25.390625 
L 37.796875 25.390625 
z
M 35.203125 72.90625 
L 47.609375 72.90625 
L 47.609375 25.390625 
L 58.015625 25.390625 
L 58.015625 17.1875 
L 47.609375 17.1875 
L 47.609375 0 
L 37.796875 0 
L 37.796875 17.1875 
L 4.890625 17.1875 
L 4.890625 26.703125 
z
" id="DejaVuSans-52"/>
       </defs>
       <use xlink:href="#DejaVuSans-52"/>
      </g>
     </g>
    </g>
    <g id="xtick_4">
     <g id="line2d_4">
      <path clip-path="url(#peb18a69eda)" d="M 311.739036 307.584 
L 311.739036 41.472 
" style="fill:none;stroke:#ffffff;stroke-linecap:round;stroke-width:0.8;"/>
     </g>
     <g id="text_4">
      <!-- 6 -->
      <g style="fill:#262626;" transform="translate(308.557786 322.182437)scale(0.1 -0.1)">
       <defs>
        <path d="M 33.015625 40.375 
Q 26.375 40.375 22.484375 35.828125 
Q 18.609375 31.296875 18.609375 23.390625 
Q 18.609375 15.53125 22.484375 10.953125 
Q 26.375 6.390625 33.015625 6.390625 
Q 39.65625 6.390625 43.53125 10.953125 
Q 47.40625 15.53125 47.40625 23.390625 
Q 47.40625 31.296875 43.53125 35.828125 
Q 39.65625 40.375 33.015625 40.375 
z
M 52.59375 71.296875 
L 52.59375 62.3125 
Q 48.875 64.0625 45.09375 64.984375 
Q 41.3125 65.921875 37.59375 65.921875 
Q 27.828125 65.921875 22.671875 59.328125 
Q 17.53125 52.734375 16.796875 39.40625 
Q 19.671875 43.65625 24.015625 45.921875 
Q 28.375 48.1875 33.59375 48.1875 
Q 44.578125 48.1875 50.953125 41.515625 
Q 57.328125 34.859375 57.328125 23.390625 
Q 57.328125 12.15625 50.6875 5.359375 
Q 44.046875 -1.421875 33.015625 -1.421875 
Q 20.359375 -1.421875 13.671875 8.265625 
Q 6.984375 17.96875 6.984375 36.375 
Q 6.984375 53.65625 15.1875 63.9375 
Q 23.390625 74.21875 37.203125 74.21875 
Q 40.921875 74.21875 44.703125 73.484375 
Q 48.484375 72.75 52.59375 71.296875 
z
" id="DejaVuSans-54"/>
       </defs>
       <use xlink:href="#DejaVuSans-54"/>
      </g>
     </g>
    </g>
    <g id="xtick_5">
     <g id="line2d_5">
      <path clip-path="url(#peb18a69eda)" d="M 389.218917 307.584 
L 389.218917 41.472 
" style="fill:none;stroke:#ffffff;stroke-linecap:round;stroke-width:0.8;"/>
     </g>
     <g id="text_5">
      <!-- 8 -->
      <g style="fill:#262626;" transform="translate(386.037667 322.182437)scale(0.1 -0.1)">
       <defs>
        <path d="M 31.78125 34.625 
Q 24.75 34.625 20.71875 30.859375 
Q 16.703125 27.09375 16.703125 20.515625 
Q 16.703125 13.921875 20.71875 10.15625 
Q 24.75 6.390625 31.78125 6.390625 
Q 38.8125 6.390625 42.859375 10.171875 
Q 46.921875 13.96875 46.921875 20.515625 
Q 46.921875 27.09375 42.890625 30.859375 
Q 38.875 34.625 31.78125 34.625 
z
M 21.921875 38.8125 
Q 15.578125 40.375 12.03125 44.71875 
Q 8.5 49.078125 8.5 55.328125 
Q 8.5 64.0625 14.71875 69.140625 
Q 20.953125 74.21875 31.78125 74.21875 
Q 42.671875 74.21875 48.875 69.140625 
Q 55.078125 64.0625 55.078125 55.328125 
Q 55.078125 49.078125 51.53125 44.71875 
Q 48 40.375 41.703125 38.8125 
Q 48.828125 37.15625 52.796875 32.3125 
Q 56.78125 27.484375 56.78125 20.515625 
Q 56.78125 9.90625 50.3125 4.234375 
Q 43.84375 -1.421875 31.78125 -1.421875 
Q 19.734375 -1.421875 13.25 4.234375 
Q 6.78125 9.90625 6.78125 20.515625 
Q 6.78125 27.484375 10.78125 32.3125 
Q 14.796875 37.15625 21.921875 38.8125 
z
M 18.3125 54.390625 
Q 18.3125 48.734375 21.84375 45.5625 
Q 25.390625 42.390625 31.78125 42.390625 
Q 38.140625 42.390625 41.71875 45.5625 
Q 45.3125 48.734375 45.3125 54.390625 
Q 45.3125 60.0625 41.71875 63.234375 
Q 38.140625 66.40625 31.78125 66.40625 
Q 25.390625 66.40625 21.84375 63.234375 
Q 18.3125 60.0625 18.3125 54.390625 
z
" id="DejaVuSans-56"/>
       </defs>
       <use xlink:href="#DejaVuSans-56"/>
      </g>
     </g>
    </g>
   </g>
   <g id="matplotlib.axis_2">
    <g id="ytick_1">
     <g id="line2d_6">
      <path clip-path="url(#peb18a69eda)" d="M 57.6 307.584 
L 414.72 307.584 
" style="fill:none;stroke:#ffffff;stroke-linecap:round;stroke-width:0.8;"/>
     </g>
     <g id="text_6">
      <!-- 0.0 -->
      <g style="fill:#262626;" transform="translate(34.696875 311.383219)scale(0.1 -0.1)">
       <defs>
        <path d="M 10.6875 12.40625 
L 21 12.40625 
L 21 0 
L 10.6875 0 
z
" id="DejaVuSans-46"/>
       </defs>
       <use xlink:href="#DejaVuSans-48"/>
       <use x="63.623047" xlink:href="#DejaVuSans-46"/>
       <use x="95.410156" xlink:href="#DejaVuSans-48"/>
      </g>
     </g>
    </g>
    <g id="ytick_2">
     <g id="line2d_7">
      <path clip-path="url(#peb18a69eda)" d="M 57.6 268.60387 
L 414.72 268.60387 
" style="fill:none;stroke:#ffffff;stroke-linecap:round;stroke-width:0.8;"/>
     </g>
     <g id="text_7">
      <!-- 0.1 -->
      <g style="fill:#262626;" transform="translate(34.696875 272.403089)scale(0.1 -0.1)">
       <defs>
        <path d="M 12.40625 8.296875 
L 28.515625 8.296875 
L 28.515625 63.921875 
L 10.984375 60.40625 
L 10.984375 69.390625 
L 28.421875 72.90625 
L 38.28125 72.90625 
L 38.28125 8.296875 
L 54.390625 8.296875 
L 54.390625 0 
L 12.40625 0 
z
" id="DejaVuSans-49"/>
       </defs>
       <use xlink:href="#DejaVuSans-48"/>
       <use x="63.623047" xlink:href="#DejaVuSans-46"/>
       <use x="95.410156" xlink:href="#DejaVuSans-49"/>
      </g>
     </g>
    </g>
    <g id="ytick_3">
     <g id="line2d_8">
      <path clip-path="url(#peb18a69eda)" d="M 57.6 229.62374 
L 414.72 229.62374 
" style="fill:none;stroke:#ffffff;stroke-linecap:round;stroke-width:0.8;"/>
     </g>
     <g id="text_8">
      <!-- 0.2 -->
      <g style="fill:#262626;" transform="translate(34.696875 233.422958)scale(0.1 -0.1)">
       <use xlink:href="#DejaVuSans-48"/>
       <use x="63.623047" xlink:href="#DejaVuSans-46"/>
       <use x="95.410156" xlink:href="#DejaVuSans-50"/>
      </g>
     </g>
    </g>
    <g id="ytick_4">
     <g id="line2d_9">
      <path clip-path="url(#peb18a69eda)" d="M 57.6 190.643609 
L 414.72 190.643609 
" style="fill:none;stroke:#ffffff;stroke-linecap:round;stroke-width:0.8;"/>
     </g>
     <g id="text_9">
      <!-- 0.3 -->
      <g style="fill:#262626;" transform="translate(34.696875 194.442828)scale(0.1 -0.1)">
       <defs>
        <path d="M 40.578125 39.3125 
Q 47.65625 37.796875 51.625 33 
Q 55.609375 28.21875 55.609375 21.1875 
Q 55.609375 10.40625 48.1875 4.484375 
Q 40.765625 -1.421875 27.09375 -1.421875 
Q 22.515625 -1.421875 17.65625 -0.515625 
Q 12.796875 0.390625 7.625 2.203125 
L 7.625 11.71875 
Q 11.71875 9.328125 16.59375 8.109375 
Q 21.484375 6.890625 26.8125 6.890625 
Q 36.078125 6.890625 40.9375 10.546875 
Q 45.796875 14.203125 45.796875 21.1875 
Q 45.796875 27.640625 41.28125 31.265625 
Q 36.765625 34.90625 28.71875 34.90625 
L 20.21875 34.90625 
L 20.21875 43.015625 
L 29.109375 43.015625 
Q 36.375 43.015625 40.234375 45.921875 
Q 44.09375 48.828125 44.09375 54.296875 
Q 44.09375 59.90625 40.109375 62.90625 
Q 36.140625 65.921875 28.71875 65.921875 
Q 24.65625 65.921875 20.015625 65.03125 
Q 15.375 64.15625 9.8125 62.3125 
L 9.8125 71.09375 
Q 15.4375 72.65625 20.34375 73.4375 
Q 25.25 74.21875 29.59375 74.21875 
Q 40.828125 74.21875 47.359375 69.109375 
Q 53.90625 64.015625 53.90625 55.328125 
Q 53.90625 49.265625 50.4375 45.09375 
Q 46.96875 40.921875 40.578125 39.3125 
z
" id="DejaVuSans-51"/>
       </defs>
       <use xlink:href="#DejaVuSans-48"/>
       <use x="63.623047" xlink:href="#DejaVuSans-46"/>
       <use x="95.410156" xlink:href="#DejaVuSans-51"/>
      </g>
     </g>
    </g>
    <g id="ytick_5">
     <g id="line2d_10">
      <path clip-path="url(#peb18a69eda)" d="M 57.6 151.663479 
L 414.72 151.663479 
" style="fill:none;stroke:#ffffff;stroke-linecap:round;stroke-width:0.8;"/>
     </g>
     <g id="text_10">
      <!-- 0.4 -->
      <g style="fill:#262626;" transform="translate(34.696875 155.462698)scale(0.1 -0.1)">
       <use xlink:href="#DejaVuSans-48"/>
       <use x="63.623047" xlink:href="#DejaVuSans-46"/>
       <use x="95.410156" xlink:href="#DejaVuSans-52"/>
      </g>
     </g>
    </g>
    <g id="ytick_6">
     <g id="line2d_11">
      <path clip-path="url(#peb18a69eda)" d="M 57.6 112.683349 
L 414.72 112.683349 
" style="fill:none;stroke:#ffffff;stroke-linecap:round;stroke-width:0.8;"/>
     </g>
     <g id="text_11">
      <!-- 0.5 -->
      <g style="fill:#262626;" transform="translate(34.696875 116.482568)scale(0.1 -0.1)">
       <defs>
        <path d="M 10.796875 72.90625 
L 49.515625 72.90625 
L 49.515625 64.59375 
L 19.828125 64.59375 
L 19.828125 46.734375 
Q 21.96875 47.46875 24.109375 47.828125 
Q 26.265625 48.1875 28.421875 48.1875 
Q 40.625 48.1875 47.75 41.5 
Q 54.890625 34.8125 54.890625 23.390625 
Q 54.890625 11.625 47.5625 5.09375 
Q 40.234375 -1.421875 26.90625 -1.421875 
Q 22.3125 -1.421875 17.546875 -0.640625 
Q 12.796875 0.140625 7.71875 1.703125 
L 7.71875 11.625 
Q 12.109375 9.234375 16.796875 8.0625 
Q 21.484375 6.890625 26.703125 6.890625 
Q 35.15625 6.890625 40.078125 11.328125 
Q 45.015625 15.765625 45.015625 23.390625 
Q 45.015625 31 40.078125 35.4375 
Q 35.15625 39.890625 26.703125 39.890625 
Q 22.75 39.890625 18.8125 39.015625 
Q 14.890625 38.140625 10.796875 36.28125 
z
" id="DejaVuSans-53"/>
       </defs>
       <use xlink:href="#DejaVuSans-48"/>
       <use x="63.623047" xlink:href="#DejaVuSans-46"/>
       <use x="95.410156" xlink:href="#DejaVuSans-53"/>
      </g>
     </g>
    </g>
    <g id="ytick_7">
     <g id="line2d_12">
      <path clip-path="url(#peb18a69eda)" d="M 57.6 73.703219 
L 414.72 73.703219 
" style="fill:none;stroke:#ffffff;stroke-linecap:round;stroke-width:0.8;"/>
     </g>
     <g id="text_12">
      <!-- 0.6 -->
      <g style="fill:#262626;" transform="translate(34.696875 77.502437)scale(0.1 -0.1)">
       <use xlink:href="#DejaVuSans-48"/>
       <use x="63.623047" xlink:href="#DejaVuSans-46"/>
       <use x="95.410156" xlink:href="#DejaVuSans-54"/>
      </g>
     </g>
    </g>
    <g id="text_13">
     <!-- Density -->
     <g style="fill:#262626;" transform="translate(28.617187 193.536594)rotate(-90)scale(0.1 -0.1)">
      <defs>
       <path d="M 19.671875 64.796875 
L 19.671875 8.109375 
L 31.59375 8.109375 
Q 46.6875 8.109375 53.6875 14.9375 
Q 60.6875 21.78125 60.6875 36.53125 
Q 60.6875 51.171875 53.6875 57.984375 
Q 46.6875 64.796875 31.59375 64.796875 
z
M 9.8125 72.90625 
L 30.078125 72.90625 
Q 51.265625 72.90625 61.171875 64.09375 
Q 71.09375 55.28125 71.09375 36.53125 
Q 71.09375 17.671875 61.125 8.828125 
Q 51.171875 0 30.078125 0 
L 9.8125 0 
z
" id="DejaVuSans-68"/>
       <path d="M 56.203125 29.59375 
L 56.203125 25.203125 
L 14.890625 25.203125 
Q 15.484375 15.921875 20.484375 11.0625 
Q 25.484375 6.203125 34.421875 6.203125 
Q 39.59375 6.203125 44.453125 7.46875 
Q 49.3125 8.734375 54.109375 11.28125 
L 54.109375 2.78125 
Q 49.265625 0.734375 44.1875 -0.34375 
Q 39.109375 -1.421875 33.890625 -1.421875 
Q 20.796875 -1.421875 13.15625 6.1875 
Q 5.515625 13.8125 5.515625 26.8125 
Q 5.515625 40.234375 12.765625 48.109375 
Q 20.015625 56 32.328125 56 
Q 43.359375 56 49.78125 48.890625 
Q 56.203125 41.796875 56.203125 29.59375 
z
M 47.21875 32.234375 
Q 47.125 39.59375 43.09375 43.984375 
Q 39.0625 48.390625 32.421875 48.390625 
Q 24.90625 48.390625 20.390625 44.140625 
Q 15.875 39.890625 15.1875 32.171875 
z
" id="DejaVuSans-101"/>
       <path d="M 54.890625 33.015625 
L 54.890625 0 
L 45.90625 0 
L 45.90625 32.71875 
Q 45.90625 40.484375 42.875 44.328125 
Q 39.84375 48.1875 33.796875 48.1875 
Q 26.515625 48.1875 22.3125 43.546875 
Q 18.109375 38.921875 18.109375 30.90625 
L 18.109375 0 
L 9.078125 0 
L 9.078125 54.6875 
L 18.109375 54.6875 
L 18.109375 46.1875 
Q 21.34375 51.125 25.703125 53.5625 
Q 30.078125 56 35.796875 56 
Q 45.21875 56 50.046875 50.171875 
Q 54.890625 44.34375 54.890625 33.015625 
z
" id="DejaVuSans-110"/>
       <path d="M 44.28125 53.078125 
L 44.28125 44.578125 
Q 40.484375 46.53125 36.375 47.5 
Q 32.28125 48.484375 27.875 48.484375 
Q 21.1875 48.484375 17.84375 46.4375 
Q 14.5 44.390625 14.5 40.28125 
Q 14.5 37.15625 16.890625 35.375 
Q 19.28125 33.59375 26.515625 31.984375 
L 29.59375 31.296875 
Q 39.15625 29.25 43.1875 25.515625 
Q 47.21875 21.78125 47.21875 15.09375 
Q 47.21875 7.46875 41.1875 3.015625 
Q 35.15625 -1.421875 24.609375 -1.421875 
Q 20.21875 -1.421875 15.453125 -0.5625 
Q 10.6875 0.296875 5.421875 2 
L 5.421875 11.28125 
Q 10.40625 8.6875 15.234375 7.390625 
Q 20.0625 6.109375 24.8125 6.109375 
Q 31.15625 6.109375 34.5625 8.28125 
Q 37.984375 10.453125 37.984375 14.40625 
Q 37.984375 18.0625 35.515625 20.015625 
Q 33.0625 21.96875 24.703125 23.78125 
L 21.578125 24.515625 
Q 13.234375 26.265625 9.515625 29.90625 
Q 5.8125 33.546875 5.8125 39.890625 
Q 5.8125 47.609375 11.28125 51.796875 
Q 16.75 56 26.8125 56 
Q 31.78125 56 36.171875 55.265625 
Q 40.578125 54.546875 44.28125 53.078125 
z
" id="DejaVuSans-115"/>
       <path d="M 9.421875 54.6875 
L 18.40625 54.6875 
L 18.40625 0 
L 9.421875 0 
z
M 9.421875 75.984375 
L 18.40625 75.984375 
L 18.40625 64.59375 
L 9.421875 64.59375 
z
" id="DejaVuSans-105"/>
       <path d="M 18.3125 70.21875 
L 18.3125 54.6875 
L 36.8125 54.6875 
L 36.8125 47.703125 
L 18.3125 47.703125 
L 18.3125 18.015625 
Q 18.3125 11.328125 20.140625 9.421875 
Q 21.96875 7.515625 27.59375 7.515625 
L 36.8125 7.515625 
L 36.8125 0 
L 27.59375 0 
Q 17.1875 0 13.234375 3.875 
Q 9.28125 7.765625 9.28125 18.015625 
L 9.28125 47.703125 
L 2.6875 47.703125 
L 2.6875 54.6875 
L 9.28125 54.6875 
L 9.28125 70.21875 
z
" id="DejaVuSans-116"/>
       <path d="M 32.171875 -5.078125 
Q 28.375 -14.84375 24.75 -17.8125 
Q 21.140625 -20.796875 15.09375 -20.796875 
L 7.90625 -20.796875 
L 7.90625 -13.28125 
L 13.1875 -13.28125 
Q 16.890625 -13.28125 18.9375 -11.515625 
Q 21 -9.765625 23.484375 -3.21875 
L 25.09375 0.875 
L 2.984375 54.6875 
L 12.5 54.6875 
L 29.59375 11.921875 
L 46.6875 54.6875 
L 56.203125 54.6875 
z
" id="DejaVuSans-121"/>
      </defs>
      <use xlink:href="#DejaVuSans-68"/>
      <use x="77.001953" xlink:href="#DejaVuSans-101"/>
      <use x="138.525391" xlink:href="#DejaVuSans-110"/>
      <use x="201.904297" xlink:href="#DejaVuSans-115"/>
      <use x="254.003906" xlink:href="#DejaVuSans-105"/>
      <use x="281.787109" xlink:href="#DejaVuSans-116"/>
      <use x="320.996094" xlink:href="#DejaVuSans-121"/>
     </g>
    </g>
   </g>
   <g id="line2d_13">
    <path clip-path="url(#peb18a69eda)" d="M 73.832727 307.402008 
L 74.298941 307.205282 
L 74.765154 306.829931 
L 75.231367 306.146756 
L 75.697581 304.960461 
L 76.163794 302.994994 
L 76.630008 299.887638 
L 77.096221 295.199529 
L 77.562435 288.449586 
L 78.028648 279.175121 
L 78.494861 267.015516 
L 79.427288 233.666251 
L 80.825928 167.784172 
L 81.758355 124.834726 
L 82.690782 93.028445 
L 83.156995 83.025296 
L 83.623209 77.187471 
L 84.089422 75.2969 
L 84.555636 76.917136 
L 85.021849 81.489279 
L 85.488062 88.415999 
L 86.420489 107.073207 
L 89.21777 170.283603 
L 90.150197 186.437014 
L 91.082623 199.443156 
L 92.481264 215.544323 
L 94.346117 234.158113 
L 95.278544 241.572169 
L 96.210971 247.209016 
L 97.143398 251.473577 
L 98.542038 257.342656 
L 99.474465 261.996002 
L 101.339318 272.963814 
L 103.204172 283.421315 
L 104.136599 287.735788 
L 105.069026 291.056712 
L 106.001452 293.214896 
L 106.933879 294.432678 
L 108.798733 296.299939 
L 110.197373 298.429581 
L 111.596013 300.457633 
L 112.52844 301.323827 
L 113.460867 301.831417 
L 115.791934 302.814291 
L 118.589214 304.321112 
L 119.521641 304.522594 
L 121.386495 304.539606 
L 125.582416 304.527693 
L 126.514842 304.711812 
L 127.913483 305.287203 
L 130.24455 306.369797 
L 131.64319 306.726675 
L 133.04183 306.875894 
L 136.305324 307.055773 
L 140.035031 307.539864 
L 143.764738 307.583833 
L 156.3525 307.484228 
L 161.014635 307.044971 
L 166.609195 307.577646 
L 166.609195 307.577646 
" style="fill:none;stroke:#9467bd;stroke-linecap:round;stroke-width:1.5;"/>
   </g>
   <g id="line2d_14">
    <path clip-path="url(#peb18a69eda)" d="M 74.823946 307.490937 
L 75.415765 307.289093 
L 76.007584 306.74131 
L 76.303494 306.213101 
L 76.599403 305.4095 
L 76.895313 304.220198 
L 77.191222 302.507905 
L 77.783041 296.841133 
L 78.37486 286.916515 
L 78.966679 271.321509 
L 79.558498 249.321991 
L 80.446226 205.868489 
L 82.221683 114.186359 
L 82.813502 93.149071 
L 83.405321 79.634779 
L 83.701231 75.739969 
L 83.99714 73.669233 
L 84.29305 73.308923 
L 84.588959 74.512549 
L 84.884869 77.105039 
L 85.476687 85.63789 
L 86.364416 103.394235 
L 87.843963 133.325886 
L 89.027601 152.635978 
L 91.098967 182.422142 
L 92.578515 200.922192 
L 94.058062 216.421104 
L 95.833519 232.697641 
L 97.608976 247.276568 
L 99.088523 257.639494 
L 104.414894 290.222335 
L 105.598532 296.269189 
L 106.48626 299.436149 
L 107.078079 300.759517 
L 107.669898 301.498544 
L 108.261717 301.802039 
L 109.445355 301.901591 
L 110.333083 302.062186 
L 112.700359 302.846762 
L 114.475816 303.466364 
L 115.363544 303.514864 
L 117.139001 303.468587 
L 118.02673 303.82095 
L 118.914458 304.47632 
L 121.873553 307.01713 
L 122.761281 307.359889 
L 123.944919 307.519028 
L 125.424466 307.441159 
L 127.199923 307.064174 
L 128.383561 306.889272 
L 129.27129 306.949131 
L 133.118113 307.563604 
L 133.709932 307.576257 
L 133.709932 307.576257 
" style="fill:none;stroke:#d62728;stroke-linecap:round;stroke-width:1.5;"/>
   </g>
   <g id="line2d_15">
    <path clip-path="url(#peb18a69eda)" d="M 74.201141 307.462143 
L 74.919825 307.158143 
L 75.279167 306.824116 
L 75.638509 306.269186 
L 75.997852 305.377464 
L 76.357194 303.991531 
L 76.716536 301.9082 
L 77.075878 298.879517 
L 77.43522 294.621593 
L 77.794563 288.833288 
L 78.513247 271.558848 
L 79.231931 245.601678 
L 80.309958 192.523737 
L 81.747327 118.293516 
L 82.466011 92.068575 
L 82.825353 83.264049 
L 83.184695 77.443826 
L 83.544037 74.462366 
L 83.90338 74.030449 
L 84.262722 75.761046 
L 84.622064 79.217311 
L 85.340748 89.564497 
L 88.215486 137.269854 
L 89.652855 159.888384 
L 91.449565 192.867003 
L 92.527592 211.419247 
L 93.605619 226.007695 
L 94.683645 237.151746 
L 96.121014 249.538858 
L 97.558383 260.343659 
L 98.995751 269.541471 
L 100.43312 277.30384 
L 101.511147 281.896038 
L 102.589173 285.394418 
L 104.026542 289.01585 
L 105.104568 291.272101 
L 105.823253 292.47221 
L 106.541937 293.32548 
L 107.260621 293.825041 
L 109.057332 294.638184 
L 109.776017 295.397718 
L 110.494701 296.531994 
L 113.010096 300.960333 
L 114.088123 302.204848 
L 115.166149 303.101967 
L 116.96286 304.211706 
L 119.837598 305.884077 
L 120.556282 306.061563 
L 121.274967 306.031537 
L 122.352993 305.693341 
L 123.43102 305.356346 
L 124.149704 305.331078 
L 124.868388 305.519473 
L 125.946415 306.096268 
L 127.383784 306.905966 
L 128.46181 307.224155 
L 129.539837 307.248747 
L 132.773916 306.992971 
L 136.367338 307.42307 
L 137.804707 307.242401 
L 139.601418 306.966031 
L 140.679444 306.998241 
L 145.710235 307.577018 
L 145.710235 307.577018 
" style="fill:none;stroke:#2ca02c;stroke-linecap:round;stroke-width:1.5;"/>
   </g>
   <g id="line2d_16">
    <path clip-path="url(#peb18a69eda)" d="M 74.066588 307.45839 
L 74.705347 307.206687 
L 75.024726 306.95333 
L 75.344106 306.554752 
L 75.663485 305.943608 
L 75.982865 305.030217 
L 76.302244 303.699473 
L 76.621624 301.80932 
L 77.260383 295.656857 
L 77.899142 285.022938 
L 78.537901 268.380807 
L 79.17666 244.78947 
L 80.134799 197.375393 
L 82.051076 93.943983 
L 82.689835 70.817787 
L 83.328594 57.571272 
L 83.647973 54.700629 
L 83.967353 54.144 
L 84.286732 55.663582 
L 84.606112 58.97684 
L 85.244871 69.793848 
L 86.20301 92.545857 
L 89.396805 176.170406 
L 90.354943 194.990117 
L 91.313082 209.800333 
L 92.271221 221.483084 
L 93.548739 233.884105 
L 94.826257 244.027333 
L 96.742534 256.995098 
L 98.978191 270.929964 
L 99.936329 275.59658 
L 100.894468 279.186795 
L 102.491365 283.975026 
L 103.768883 287.355583 
L 104.727022 289.282753 
L 105.685161 290.658908 
L 107.282058 292.841379 
L 110.156474 297.258605 
L 111.114613 298.353084 
L 112.072751 299.138088 
L 113.03089 299.541589 
L 114.947167 299.98332 
L 115.585926 300.403418 
L 116.544065 301.408907 
L 119.099101 304.465844 
L 120.376619 305.519487 
L 121.654137 306.315375 
L 122.931655 306.840437 
L 123.889794 306.999025 
L 125.167312 306.939039 
L 129.638625 306.4843 
L 130.916143 306.47685 
L 132.193661 306.696289 
L 135.387457 307.462253 
L 137.303734 307.572534 
L 137.623113 307.576943 
L 137.623113 307.576943 
" style="fill:none;stroke:#ff7f0e;stroke-linecap:round;stroke-width:1.5;"/>
   </g>
   <g id="line2d_17">
    <path clip-path="url(#peb18a69eda)" d="M 73.916625 307.407947 
L 74.326342 307.240322 
L 74.736059 306.936396 
L 75.145777 306.405782 
L 75.555494 305.513774 
L 75.965211 304.069903 
L 76.374929 301.819617 
L 76.784646 298.443117 
L 77.194363 293.565919 
L 77.60408 286.785034 
L 78.013798 277.712492 
L 78.833232 251.576741 
L 79.652667 214.705715 
L 82.11097 88.753768 
L 82.520688 75.178872 
L 82.930405 65.468747 
L 83.340122 59.700616 
L 83.74984 57.696836 
L 84.159557 59.088225 
L 84.569274 63.389887 
L 84.978991 70.073556 
L 85.798426 88.575849 
L 87.437295 135.09595 
L 89.076164 179.437802 
L 89.895599 196.875593 
L 90.715033 210.174555 
L 91.534468 219.445713 
L 92.353902 225.409934 
L 93.173337 229.239531 
L 94.812206 235.626232 
L 95.631641 239.915832 
L 96.860793 248.116759 
L 101.7774 283.870089 
L 102.596834 288.376497 
L 103.416269 291.830487 
L 104.235704 294.177741 
L 105.055138 295.551818 
L 105.874573 296.189415 
L 106.694007 296.33805 
L 107.513442 296.197408 
L 109.152311 295.558823 
L 109.971745 295.298188 
L 110.79118 295.326258 
L 111.200897 295.521046 
L 111.610615 295.866602 
L 112.430049 297.035262 
L 113.249484 298.744331 
L 115.29807 303.421781 
L 116.117505 304.648006 
L 116.936939 305.276904 
L 117.756374 305.379542 
L 118.985526 305.020194 
L 119.80496 304.801278 
L 120.624395 304.782202 
L 121.443829 304.980529 
L 122.672981 305.539054 
L 124.31185 306.304407 
L 125.131285 306.491933 
L 125.950719 306.463502 
L 127.179871 306.086967 
L 128.409023 305.682978 
L 129.228458 305.610684 
L 130.047892 305.739483 
L 131.277044 306.186686 
L 133.735348 307.135907 
L 135.374217 307.453712 
L 137.013086 307.511337 
L 138.651955 307.36158 
L 141.519976 306.997844 
L 143.158845 307.149487 
L 145.207432 307.383196 
L 146.846301 307.272175 
L 149.304604 306.99791 
L 150.533756 307.097742 
L 153.811494 307.532305 
L 155.450364 307.577494 
L 155.450364 307.577494 
" style="fill:none;stroke:#1f77b4;stroke-linecap:round;stroke-width:1.5;"/>
   </g>
   <g id="line2d_18">
    <path clip-path="url(#peb18a69eda)" d="M 77.155125 307.57408 
L 80.421479 307.465139 
L 82.381292 307.179323 
L 83.687834 306.75892 
L 84.994376 306.029424 
L 86.300917 304.863678 
L 87.607459 303.136222 
L 88.914001 300.741321 
L 90.220543 297.602971 
L 91.527084 293.676657 
L 92.833626 288.952827 
L 94.140168 283.473344 
L 96.099981 274.126479 
L 100.019606 254.562252 
L 101.979419 246.028819 
L 103.939231 238.655077 
L 105.899044 232.232609 
L 107.205586 228.496869 
L 108.512127 225.400564 
L 109.165398 224.185077 
L 109.818669 223.246858 
L 110.47194 222.623608 
L 111.125211 222.344008 
L 111.778482 222.423316 
L 112.431753 222.86021 
L 113.085024 223.635466 
L 113.738294 224.7128 
L 115.044836 227.563165 
L 120.924274 242.22273 
L 124.190629 249.882727 
L 131.376608 267.607997 
L 133.336421 271.379571 
L 135.949505 275.778825 
L 139.215859 281.289462 
L 143.135484 288.077955 
L 145.095297 290.982817 
L 146.401839 292.587323 
L 147.708381 293.929004 
L 149.668193 295.567265 
L 152.281277 297.3994 
L 156.854173 300.335978 
L 160.120527 302.233848 
L 162.733611 303.522115 
L 166.653236 305.126721 
L 169.919591 306.27243 
L 171.879403 306.702553 
L 173.839216 306.852833 
L 176.4523 306.731735 
L 180.371925 306.489887 
L 182.985008 306.571326 
L 192.784072 307.202755 
L 198.66351 307.372722 
L 204.542948 307.564685 
L 207.156031 307.580646 
L 207.156031 307.580646 
" style="fill:none;stroke:#9467bd;stroke-linecap:round;stroke-width:1.5;"/>
   </g>
   <g id="line2d_19">
    <path clip-path="url(#peb18a69eda)" d="M 78.76307 307.565409 
L 81.445545 307.429213 
L 83.05503 307.132557 
L 84.12802 306.73306 
L 85.20101 306.074583 
L 86.274 305.05663 
L 87.34699 303.575278 
L 88.41998 301.537334 
L 89.49297 298.874174 
L 90.56596 295.552224 
L 91.63895 291.579092 
L 93.248435 284.523785 
L 95.394415 273.690216 
L 98.613384 257.195107 
L 100.222869 249.975176 
L 101.832354 243.689879 
L 103.441839 238.243818 
L 105.051324 233.591767 
L 106.124314 231.007249 
L 107.197304 228.940129 
L 108.270294 227.479007 
L 108.806789 226.994293 
L 109.343284 226.676971 
L 109.879779 226.525111 
L 110.416274 226.533183 
L 110.952769 226.692337 
L 112.025759 227.414449 
L 113.098749 228.572103 
L 114.708234 230.824283 
L 119.000193 237.610579 
L 120.609678 240.479295 
L 122.219163 243.836541 
L 124.365143 248.964046 
L 128.120608 257.961739 
L 131.339578 265.684924 
L 134.558548 273.600418 
L 136.168033 276.862505 
L 137.777518 279.485936 
L 140.459992 283.162289 
L 142.605972 286.298548 
L 148.507417 295.505587 
L 149.580407 296.67594 
L 151.189892 298.054207 
L 158.700822 303.464354 
L 160.310306 304.186839 
L 161.919791 304.577846 
L 164.065771 304.77382 
L 167.821236 305.06094 
L 170.503711 305.564777 
L 177.478146 307.134183 
L 180.16062 307.434757 
L 183.37959 307.560783 
L 185.52557 307.579302 
L 185.52557 307.579302 
" style="fill:none;stroke:#d62728;stroke-linecap:round;stroke-width:1.5;"/>
   </g>
   <g id="line2d_20">
    <path clip-path="url(#peb18a69eda)" d="M 77.509862 307.572322 
L 80.575341 307.461321 
L 82.414629 307.182988 
L 83.64082 306.777068 
L 84.867012 306.06936 
L 86.093203 304.924768 
L 87.319395 303.203364 
L 88.545587 300.788556 
L 89.771778 297.616628 
L 90.99797 293.696894 
L 92.224161 289.114654 
L 94.063449 281.329608 
L 102.64679 243.353145 
L 105.712269 230.571029 
L 106.938461 226.306469 
L 108.164652 223.04107 
L 108.777748 221.875597 
L 109.390844 221.056165 
L 110.00394 220.597526 
L 110.617035 220.505113 
L 111.230131 220.775091 
L 111.843227 221.394511 
L 112.456323 222.341429 
L 113.069419 223.58502 
L 114.29561 226.796248 
L 118.587281 239.84483 
L 119.813472 242.510172 
L 121.039664 244.508391 
L 122.878951 246.813181 
L 124.105143 248.402042 
L 125.331334 250.39948 
L 126.557526 252.98819 
L 127.783718 256.201395 
L 129.623005 261.925812 
L 132.688484 271.880063 
L 133.914676 275.325986 
L 135.140867 278.289101 
L 136.367059 280.793077 
L 138.206346 283.907423 
L 140.658729 287.449318 
L 143.111113 290.647105 
L 144.9504 292.699053 
L 146.789687 294.331241 
L 148.628975 295.608921 
L 157.212316 300.867667 
L 159.051603 301.596166 
L 161.503987 302.282646 
L 166.408753 303.344628 
L 172.539711 304.591832 
L 174.992094 305.417369 
L 178.670669 306.708749 
L 180.509956 307.10145 
L 182.349244 307.27964 
L 185.414723 307.294965 
L 189.706393 307.32894 
L 198.90283 307.578823 
L 199.515926 307.580681 
L 199.515926 307.580681 
" style="fill:none;stroke:#2ca02c;stroke-linecap:round;stroke-width:1.5;"/>
   </g>
   <g id="line2d_21">
    <path clip-path="url(#peb18a69eda)" d="M 75.297469 307.580103 
L 80.234997 307.472272 
L 82.703761 307.207405 
L 84.349603 306.824285 
L 85.995446 306.140664 
L 86.818367 305.632366 
L 87.641289 304.977408 
L 88.46421 304.145451 
L 89.287131 303.10395 
L 90.110053 301.818754 
L 90.932974 300.254997 
L 91.755895 298.3787 
L 92.578817 296.159401 
L 93.401738 293.573776 
L 95.047581 287.269794 
L 96.693423 279.556043 
L 99.162187 266.103984 
L 104.099715 237.863746 
L 105.745558 229.497913 
L 107.391401 222.315346 
L 108.214322 219.282318 
L 109.037243 216.679327 
L 109.860165 214.550928 
L 110.683086 212.94252 
L 111.506007 211.896699 
L 112.328929 211.447 
L 113.15185 211.610849 
L 113.974771 212.383853 
L 114.797693 213.736922 
L 115.620614 215.616726 
L 116.443535 217.949148 
L 118.089378 223.607426 
L 123.026906 242.28954 
L 124.672748 247.635632 
L 126.318591 252.344537 
L 132.07904 267.777436 
L 136.193647 279.685645 
L 137.83949 283.780087 
L 139.485332 287.224851 
L 141.131175 290.033378 
L 142.777018 292.355858 
L 145.245782 295.360972 
L 147.714546 297.994577 
L 149.360388 299.331108 
L 150.18331 299.806706 
L 151.829152 300.366768 
L 155.943759 301.097654 
L 157.589602 301.868512 
L 163.350051 305.259235 
L 164.995894 305.717547 
L 166.641736 305.892426 
L 169.933422 305.830607 
L 172.402186 305.901861 
L 174.87095 306.231907 
L 181.45432 307.347044 
L 184.746006 307.543487 
L 190.506455 307.56122 
L 195.443983 307.38159 
L 199.55859 307.26095 
L 204.496118 307.473846 
L 209.433646 307.577701 
L 220.954544 307.53035 
L 230.006679 307.30369 
L 238.235892 307.577107 
L 239.058814 307.580377 
L 239.058814 307.580377 
" style="fill:none;stroke:#ff7f0e;stroke-linecap:round;stroke-width:1.5;"/>
   </g>
   <g id="line2d_22">
    <path clip-path="url(#peb18a69eda)" d="M 75.403899 307.579012 
L 79.590839 307.489748 
L 81.68431 307.267191 
L 83.079956 306.93113 
L 84.475603 306.32184 
L 85.87125 305.288347 
L 86.569073 304.555854 
L 87.266897 303.647 
L 87.96472 302.537868 
L 88.662543 301.206707 
L 90.05819 297.812453 
L 91.453837 293.397913 
L 92.849484 288.025931 
L 94.942954 278.624242 
L 101.223365 248.75259 
L 103.316835 240.133483 
L 104.712482 235.24365 
L 106.108128 231.287026 
L 106.805952 229.712627 
L 107.503775 228.426203 
L 108.201599 227.43444 
L 108.899422 226.7382 
L 109.597245 226.332894 
L 110.295069 226.208902 
L 110.992892 226.351911 
L 111.690716 226.743079 
L 112.388539 227.35909 
L 113.784186 229.150717 
L 115.179833 231.461652 
L 122.85589 245.422712 
L 124.251537 248.670092 
L 126.345007 254.314721 
L 129.834124 263.945005 
L 131.927594 268.976132 
L 134.021064 273.439392 
L 136.114534 277.474312 
L 138.208005 281.133523 
L 140.301475 284.423158 
L 142.394945 287.34967 
L 144.488415 289.959347 
L 147.279709 293.046983 
L 149.373179 295.046929 
L 151.466649 296.720585 
L 153.560119 298.112328 
L 157.74706 300.525258 
L 161.236177 302.305107 
L 164.02747 303.472006 
L 166.818764 304.426906 
L 168.912234 304.955413 
L 171.005704 305.281853 
L 180.775232 306.358588 
L 184.962172 306.943118 
L 187.753466 307.118557 
L 191.242583 307.05643 
L 196.127346 306.940471 
L 201.709934 307.164955 
L 210.781638 307.556122 
L 214.270755 307.580792 
L 214.270755 307.580792 
" style="fill:none;stroke:#1f77b4;stroke-linecap:round;stroke-width:1.5;"/>
   </g>
   <g id="line2d_23">
    <path clip-path="url(#peb18a69eda)" d="M 86.824598 307.579195 
L 93.233378 307.462162 
L 95.979998 307.234048 
L 97.811078 306.937419 
L 99.642158 306.461278 
L 101.473238 305.739453 
L 103.304318 304.701306 
L 105.135398 303.279232 
L 106.966478 301.414401 
L 108.797558 299.057692 
L 110.628638 296.169068 
L 112.459718 292.725294 
L 114.290798 288.742785 
L 117.037418 281.968993 
L 121.615118 270.199225 
L 123.446198 265.952883 
L 125.277278 262.191952 
L 127.108358 258.990132 
L 128.939438 256.376347 
L 130.770518 254.312755 
L 132.601598 252.667238 
L 137.179298 249.142096 
L 139.010378 247.834192 
L 139.925918 247.299471 
L 140.841458 246.90555 
L 141.756998 246.698319 
L 142.672538 246.716497 
L 143.588078 246.987035 
L 144.503618 247.522411 
L 145.419158 248.320038 
L 146.334698 249.36353 
L 148.165778 252.069592 
L 149.996858 255.341995 
L 154.574558 263.873627 
L 156.405638 266.755827 
L 158.236718 269.145849 
L 160.067798 271.085578 
L 162.814418 273.508279 
L 165.561038 275.989459 
L 167.392118 277.942179 
L 169.223198 280.173829 
L 176.547518 289.676135 
L 179.294138 292.607241 
L 182.956298 296.119945 
L 185.702918 298.537273 
L 187.533998 299.927288 
L 189.365078 301.044259 
L 191.196158 301.8511 
L 193.027238 302.364945 
L 194.858318 302.645086 
L 198.520478 302.855285 
L 201.267098 303.083193 
L 203.098178 303.403218 
L 205.844798 304.147701 
L 211.338038 305.832461 
L 214.084658 306.381953 
L 216.831278 306.666285 
L 220.493438 306.756385 
L 225.986678 306.851947 
L 236.057618 307.339216 
L 259.861658 307.481743 
L 268.101518 307.579806 
L 269.017058 307.581468 
L 269.017058 307.581468 
" style="fill:none;stroke:#9467bd;stroke-linecap:round;stroke-width:1.5;"/>
   </g>
   <g id="line2d_24">
    <path clip-path="url(#peb18a69eda)" d="M 86.648272 307.578994 
L 92.474207 307.468778 
L 94.971037 307.257941 
L 97.467866 306.802661 
L 99.132419 306.2982 
L 100.796972 305.592194 
L 102.461525 304.657477 
L 104.126077 303.46935 
L 105.79063 301.994521 
L 107.455183 300.179608 
L 109.119736 297.949343 
L 110.784289 295.222936 
L 112.448842 291.947772 
L 114.113395 288.13704 
L 116.610224 281.658996 
L 120.771606 270.502818 
L 122.436159 266.506376 
L 124.100712 262.967135 
L 125.765265 259.912026 
L 127.429817 257.304981 
L 129.09437 255.074692 
L 130.758923 253.152099 
L 132.423476 251.505554 
L 134.088029 250.159125 
L 135.752582 249.18369 
L 136.584858 248.861442 
L 137.417135 248.66039 
L 138.249411 248.583926 
L 139.081687 248.630296 
L 140.74624 249.058109 
L 142.410793 249.839473 
L 144.075346 250.859168 
L 145.739899 252.0685 
L 147.404452 253.525005 
L 149.069005 255.355221 
L 150.733558 257.655543 
L 152.39811 260.395232 
L 156.559493 267.742916 
L 158.224045 270.217151 
L 159.888598 272.255585 
L 161.553151 273.948876 
L 165.714533 277.870182 
L 168.211363 280.653246 
L 174.037298 287.54942 
L 175.70185 289.151863 
L 177.366403 290.522754 
L 179.863233 292.274316 
L 190.682826 299.214773 
L 194.011932 301.006734 
L 196.508761 302.127624 
L 199.837867 303.380927 
L 203.999249 304.696653 
L 207.328355 305.480704 
L 210.65746 305.97771 
L 218.147948 306.706452 
L 223.973883 307.115655 
L 229.799818 307.28062 
L 252.271282 307.581456 
L 252.271282 307.581456 
" style="fill:none;stroke:#d62728;stroke-linecap:round;stroke-width:1.5;"/>
   </g>
   <g id="line2d_25">
    <path clip-path="url(#peb18a69eda)" d="M 87.882832 307.575418 
L 92.955956 307.458708 
L 95.492518 307.225145 
L 97.183559 306.926698 
L 98.874601 306.461034 
L 100.565642 305.781059 
L 102.256684 304.841548 
L 103.947725 303.599724 
L 105.638766 302.015213 
L 107.329808 300.052288 
L 109.020849 297.685483 
L 110.711891 294.906457 
L 112.402932 291.729297 
L 114.939494 286.312862 
L 118.321577 278.332102 
L 121.70366 270.446643 
L 124.240222 265.189204 
L 126.776784 260.631017 
L 129.313346 256.62614 
L 131.849908 253.081246 
L 133.540949 251.061923 
L 135.231991 249.457473 
L 136.077511 248.851113 
L 136.923032 248.392332 
L 137.768553 248.089084 
L 138.614074 247.94489 
L 139.459594 247.95893 
L 140.305115 248.126534 
L 141.150636 248.439895 
L 142.841677 249.461651 
L 144.532718 250.926776 
L 146.22376 252.726855 
L 148.760322 255.816879 
L 159.752091 270.038652 
L 167.361777 280.154686 
L 169.052819 282.032701 
L 170.74386 283.662182 
L 173.280422 285.708752 
L 178.353546 289.489177 
L 180.890108 291.689272 
L 185.963233 296.232267 
L 188.499795 298.154822 
L 191.036357 299.720056 
L 193.572919 300.967309 
L 197.800522 302.695694 
L 202.873647 304.604339 
L 205.410209 305.273072 
L 207.946771 305.677309 
L 220.629581 307.010217 
L 226.548226 307.286836 
L 231.62135 307.355323 
L 243.45864 307.220556 
L 251.913847 307.548981 
L 256.141451 307.579808 
L 256.141451 307.579808 
" style="fill:none;stroke:#2ca02c;stroke-linecap:round;stroke-width:1.5;"/>
   </g>
   <g id="line2d_26">
    <path clip-path="url(#peb18a69eda)" d="M 89.93326 307.576825 
L 94.986689 307.470085 
L 97.513404 307.241783 
L 99.197881 306.936446 
L 100.882357 306.441218 
L 102.566834 305.689829 
L 104.25131 304.612328 
L 105.935787 303.137518 
L 107.620263 301.197266 
L 109.30474 298.737855 
L 110.989216 295.739749 
L 112.673693 292.237835 
L 115.200408 286.261581 
L 124.465028 263.183114 
L 126.991743 257.587553 
L 128.67622 254.209842 
L 130.360696 251.247656 
L 132.045173 248.85229 
L 132.887411 247.915561 
L 133.729649 247.173914 
L 134.571888 246.636972 
L 135.414126 246.307469 
L 136.256364 246.180302 
L 137.098602 246.242364 
L 137.940841 246.47325 
L 139.625317 247.333192 
L 142.152032 249.172701 
L 148.0477 253.851117 
L 149.732176 255.499834 
L 151.416653 257.500042 
L 153.101129 259.870473 
L 155.627844 263.904325 
L 158.996797 269.340958 
L 162.36575 274.289641 
L 169.103656 283.805475 
L 170.788133 285.845194 
L 172.472609 287.577397 
L 174.157086 289.024361 
L 177.526039 291.472611 
L 180.894992 293.987599 
L 186.79066 298.603136 
L 188.475136 299.661899 
L 190.159613 300.49941 
L 191.844089 301.110639 
L 194.370804 301.699183 
L 199.424234 302.646527 
L 201.950948 303.355889 
L 207.846616 305.180065 
L 210.373331 305.706833 
L 213.742284 306.131328 
L 218.795714 306.490178 
L 225.53362 306.73875 
L 244.062861 307.225519 
L 251.643006 307.53395 
L 257.538674 307.581038 
L 257.538674 307.581038 
" style="fill:none;stroke:#ff7f0e;stroke-linecap:round;stroke-width:1.5;"/>
   </g>
   <g id="line2d_27">
    <path clip-path="url(#peb18a69eda)" d="M 90.710014 307.574476 
L 95.363908 307.458884 
L 97.690855 307.226075 
L 99.242153 306.918995 
L 100.793451 306.422166 
L 102.344749 305.66931 
L 103.896048 304.597924 
L 105.447346 303.161382 
L 106.998644 301.33884 
L 108.549942 299.138075 
L 110.10124 296.588641 
L 112.428187 292.190179 
L 114.755134 287.1807 
L 117.082082 281.628155 
L 122.511625 268.088324 
L 124.062923 264.803848 
L 125.614221 262.071957 
L 127.165519 259.923741 
L 128.716817 258.271592 
L 131.043764 256.328699 
L 134.146361 253.824437 
L 138.800255 249.871298 
L 140.351553 248.869599 
L 141.902851 248.18082 
L 143.454149 247.870381 
L 144.229798 247.877635 
L 145.005447 248.004894 
L 145.781097 248.260582 
L 146.556746 248.651656 
L 147.332395 249.182377 
L 148.883693 250.65967 
L 150.434991 252.637667 
L 151.986289 254.989144 
L 159.74278 267.414754 
L 168.274919 279.811326 
L 174.480112 289.592278 
L 176.03141 291.652082 
L 177.582708 293.392908 
L 179.134006 294.805429 
L 180.685304 295.93321 
L 183.012251 297.263882 
L 187.666145 299.489751 
L 192.32004 301.559582 
L 194.646987 302.412924 
L 196.973934 303.05747 
L 199.300881 303.481884 
L 207.057372 304.596036 
L 212.486915 305.596593 
L 215.589511 305.899075 
L 228.775545 306.829426 
L 235.756387 307.406088 
L 241.18593 307.561257 
L 245.064176 307.581071 
L 245.064176 307.581071 
" style="fill:none;stroke:#1f77b4;stroke-linecap:round;stroke-width:1.5;"/>
   </g>
   <g id="line2d_28">
    <path clip-path="url(#peb18a69eda)" d="M 97.419442 307.581318 
L 107.343938 307.456636 
L 111.754825 307.180445 
L 115.06299 306.761372 
L 118.371156 306.057446 
L 120.576599 305.374987 
L 122.782043 304.484883 
L 124.987486 303.361727 
L 127.19293 301.988089 
L 129.398374 300.354762 
L 131.603817 298.459655 
L 133.809261 296.303855 
L 136.014704 293.883484 
L 138.220148 291.181152 
L 140.425591 288.167734 
L 142.631035 284.824637 
L 145.9392 279.282973 
L 150.350087 271.737442 
L 152.555531 268.42654 
L 154.760975 265.702477 
L 155.863696 264.595011 
L 156.966418 263.661111 
L 158.06914 262.894784 
L 159.171862 262.283822 
L 161.377305 261.455368 
L 163.582749 261.004263 
L 166.890914 260.666093 
L 171.301801 260.451304 
L 173.507245 260.571346 
L 175.712688 261.025908 
L 177.918132 261.918178 
L 180.123575 263.258189 
L 182.329019 264.962611 
L 185.637184 267.915284 
L 192.253515 274.256758 
L 196.664402 278.871057 
L 201.075289 283.61316 
L 203.280733 285.760447 
L 205.486176 287.645189 
L 207.69162 289.282446 
L 218.718838 296.697818 
L 220.924281 298.013687 
L 223.129725 299.113291 
L 225.335168 300.002028 
L 228.643334 301.059541 
L 234.156943 302.503573 
L 244.081439 304.80225 
L 248.492326 305.678474 
L 251.800491 306.149328 
L 255.108656 306.420959 
L 279.368536 307.537739 
L 287.087588 307.537408 
L 302.525693 307.439274 
L 316.861076 307.581888 
L 316.861076 307.581888 
" style="fill:none;stroke:#9467bd;stroke-linecap:round;stroke-width:1.5;"/>
   </g>
   <g id="line2d_29">
    <path clip-path="url(#peb18a69eda)" d="M 94.802959 307.579826 
L 104.03954 307.462246 
L 109.812403 307.161278 
L 114.430694 306.735564 
L 117.894412 306.208372 
L 120.203557 305.65509 
L 122.512703 304.852543 
L 124.821848 303.734018 
L 127.130994 302.26097 
L 129.440139 300.431685 
L 131.749284 298.276271 
L 134.05843 295.841742 
L 137.522148 291.773138 
L 142.140438 285.837371 
L 146.758729 279.892542 
L 150.222447 275.866203 
L 153.686165 272.255081 
L 162.922746 263.000966 
L 165.231892 261.130223 
L 166.386464 260.390489 
L 167.541037 259.799973 
L 168.69561 259.359903 
L 169.850183 259.061661 
L 172.159328 258.825463 
L 174.468473 258.96493 
L 176.777619 259.454316 
L 177.932191 259.864658 
L 179.086764 260.416626 
L 180.241337 261.132653 
L 181.395909 262.027196 
L 182.550482 263.101914 
L 184.859627 265.721878 
L 191.787063 274.412462 
L 194.096209 276.67712 
L 196.405354 278.585193 
L 203.33279 283.879154 
L 213.723944 292.481589 
L 217.187662 294.710036 
L 221.805953 297.305981 
L 228.733389 300.992541 
L 232.197107 302.559835 
L 234.506252 303.390185 
L 236.815398 304.027767 
L 239.124543 304.48915 
L 242.588261 304.93739 
L 249.515697 305.481821 
L 265.679715 306.542084 
L 282.998305 307.375713 
L 288.771168 307.531936 
L 296.853177 307.499113 
L 308.398904 307.421393 
L 324.562921 307.58194 
L 324.562921 307.58194 
" style="fill:none;stroke:#d62728;stroke-linecap:round;stroke-width:1.5;"/>
   </g>
   <g id="line2d_30">
    <path clip-path="url(#peb18a69eda)" d="M 97.87149 307.581604 
L 107.492738 307.474862 
L 112.303362 307.200867 
L 116.151861 306.729043 
L 119.038235 306.136031 
L 120.962485 305.574181 
L 122.886734 304.833413 
L 124.810984 303.870049 
L 126.735234 302.646771 
L 128.659483 301.144077 
L 130.583733 299.36675 
L 132.507982 297.340836 
L 135.394357 293.916485 
L 138.280731 290.130744 
L 142.12923 284.634355 
L 145.015605 280.174956 
L 148.864104 273.796817 
L 152.712603 267.478958 
L 154.636853 264.723944 
L 156.561102 262.440187 
L 158.485352 260.702464 
L 160.409602 259.50514 
L 162.333851 258.782473 
L 164.258101 258.44516 
L 166.18235 258.412322 
L 168.1066 258.625581 
L 170.03085 259.045996 
L 171.955099 259.64492 
L 174.841474 260.83153 
L 177.727848 262.342992 
L 180.614222 264.213152 
L 183.500597 266.464442 
L 186.386971 269.020043 
L 191.197595 273.621543 
L 195.046094 277.563548 
L 201.780968 284.681775 
L 203.705217 286.441198 
L 206.591592 288.717796 
L 219.099214 297.616956 
L 221.023464 298.643105 
L 222.947713 299.453693 
L 225.834088 300.397219 
L 231.606837 302.208438 
L 237.379585 304.10656 
L 240.26596 304.83021 
L 244.114459 305.543715 
L 249.887208 306.335773 
L 255.659957 306.902836 
L 260.470581 307.158323 
L 266.243329 307.186272 
L 272.978203 307.247762 
L 285.485825 307.568625 
L 289.334325 307.581344 
L 289.334325 307.581344 
" style="fill:none;stroke:#2ca02c;stroke-linecap:round;stroke-width:1.5;"/>
   </g>
   <g id="line2d_31">
    <path clip-path="url(#peb18a69eda)" d="M 97.618395 307.581438 
L 107.594468 307.460356 
L 112.582504 307.154452 
L 115.575326 306.773498 
L 118.568148 306.125997 
L 120.563362 305.486259 
L 122.558577 304.645846 
L 124.553791 303.584605 
L 126.549006 302.279551 
L 128.54422 300.688037 
L 130.539435 298.74041 
L 132.534649 296.356785 
L 134.529864 293.488495 
L 136.525078 290.165987 
L 143.508329 277.593496 
L 145.503544 274.69099 
L 147.498758 272.339682 
L 149.493973 270.48814 
L 151.489187 268.990039 
L 156.477224 265.558334 
L 159.470046 263.081207 
L 163.460475 259.577748 
L 165.455689 258.2081 
L 166.453296 257.720522 
L 167.450904 257.390015 
L 168.448511 257.224053 
L 169.446118 257.21964 
L 170.443725 257.363984 
L 172.43894 258.012068 
L 174.434155 258.970505 
L 177.426976 260.679233 
L 179.422191 261.991331 
L 181.417405 263.566364 
L 183.41262 265.516209 
L 185.407835 267.85894 
L 188.400656 271.849583 
L 191.393478 275.817618 
L 193.388693 278.180045 
L 195.383907 280.256461 
L 198.376729 282.956292 
L 205.35998 288.92823 
L 210.348016 293.344093 
L 213.340838 295.694326 
L 216.33366 297.689066 
L 219.326482 299.325424 
L 222.319303 300.610952 
L 225.312125 301.578318 
L 229.302554 302.541146 
L 235.288198 303.687247 
L 243.269056 305.11456 
L 250.252307 306.501332 
L 253.245129 306.844222 
L 257.235558 307.051494 
L 265.216416 307.192294 
L 272.199667 307.080666 
L 277.187703 307.067207 
L 283.173347 307.305735 
L 290.156598 307.537943 
L 296.142241 307.580323 
L 296.142241 307.580323 
" style="fill:none;stroke:#ff7f0e;stroke-linecap:round;stroke-width:1.5;"/>
   </g>
   <g id="line2d_32">
    <path clip-path="url(#peb18a69eda)" d="M 92.846092 307.581825 
L 103.982321 307.472166 
L 109.550435 307.232383 
L 113.262511 306.902299 
L 116.046569 306.483655 
L 118.830626 305.844914 
L 121.614683 304.904202 
L 123.470721 304.054877 
L 125.326759 302.982369 
L 127.182797 301.654124 
L 129.038835 300.060435 
L 131.822893 297.240972 
L 137.391007 290.968176 
L 142.959121 284.575205 
L 145.743178 280.890518 
L 148.527236 276.713695 
L 153.167331 269.471912 
L 155.023369 266.940299 
L 156.879407 264.847024 
L 158.735445 263.270979 
L 160.591483 262.203249 
L 162.447522 261.546376 
L 165.231579 260.978332 
L 168.943655 260.218052 
L 173.58375 259.100082 
L 175.439788 259.051558 
L 176.367807 259.21436 
L 177.295826 259.529775 
L 178.223846 260.011538 
L 179.151865 260.665926 
L 180.079884 261.490934 
L 181.935922 263.602759 
L 183.79196 266.173793 
L 188.432055 272.936508 
L 190.288093 275.210937 
L 192.144131 277.112679 
L 194.00017 278.702482 
L 197.712246 281.435731 
L 203.28036 285.598568 
L 206.064417 287.574072 
L 208.848474 289.2297 
L 211.632532 290.586235 
L 216.272627 292.812297 
L 219.056684 294.452008 
L 225.552818 298.535353 
L 228.336875 299.904553 
L 232.048951 301.406556 
L 241.329141 304.900679 
L 244.113199 305.607675 
L 246.897256 306.060523 
L 250.609332 306.39566 
L 269.169713 307.504897 
L 277.521885 307.581272 
L 277.521885 307.581272 
" style="fill:none;stroke:#1f77b4;stroke-linecap:round;stroke-width:1.5;"/>
   </g>
   <g id="line2d_33">
    <path clip-path="url(#peb18a69eda)" d="M 128.322401 307.580927 
L 139.787941 307.463754 
L 146.667265 307.149272 
L 151.25348 306.76687 
L 154.693142 306.307904 
L 158.132804 305.578559 
L 160.425912 304.884038 
L 162.71902 303.999019 
L 165.012128 302.922676 
L 168.45179 300.978827 
L 171.891451 298.685448 
L 175.331113 296.063958 
L 178.770775 293.129196 
L 189.089761 283.837316 
L 192.529422 281.218006 
L 198.262192 277.301454 
L 206.28807 271.973353 
L 208.581178 270.746408 
L 210.874286 269.8093 
L 213.167394 269.192964 
L 215.460501 268.873937 
L 217.753609 268.791352 
L 221.193271 268.963728 
L 224.632933 269.37125 
L 228.072595 270.006142 
L 231.512257 270.920533 
L 234.951919 272.137725 
L 238.39158 273.663236 
L 240.684688 274.880089 
L 242.977796 276.300497 
L 245.270904 277.961944 
L 247.564012 279.873388 
L 251.003674 283.101834 
L 255.58989 287.48566 
L 257.882997 289.430907 
L 260.176105 291.117765 
L 262.469213 292.555287 
L 265.908875 294.375581 
L 270.495091 296.509821 
L 275.081307 298.415055 
L 278.520969 299.554488 
L 281.96063 300.397646 
L 292.279616 302.556957 
L 301.452047 304.839942 
L 304.891709 305.454114 
L 308.331371 305.876107 
L 312.917587 306.198011 
L 341.581436 307.421052 
L 349.607313 307.560704 
L 356.486637 307.581968 
L 356.486637 307.581968 
" style="fill:none;stroke:#9467bd;stroke-linecap:round;stroke-width:1.5;"/>
   </g>
   <g id="line2d_34">
    <path clip-path="url(#peb18a69eda)" d="M 132.159988 307.581319 
L 142.866295 307.471419 
L 147.624654 307.20044 
L 151.193423 306.758631 
L 153.572602 306.296885 
L 155.951781 305.673472 
L 158.330961 304.875807 
L 160.71014 303.906103 
L 164.278909 302.173344 
L 169.037268 299.524042 
L 176.174806 295.224196 
L 182.122755 291.3607 
L 188.070703 287.270058 
L 191.639472 284.58782 
L 195.208241 281.591751 
L 202.345779 275.291922 
L 204.724959 273.531896 
L 207.104138 272.110559 
L 209.483317 271.044769 
L 211.862497 270.291409 
L 214.241676 269.773602 
L 217.810445 269.272949 
L 221.379214 268.971178 
L 224.947983 268.865597 
L 227.327163 268.970641 
L 229.706342 269.29977 
L 232.085521 269.938203 
L 234.464701 270.95608 
L 236.84388 272.379251 
L 239.223059 274.170628 
L 242.791828 277.322508 
L 247.550187 281.665678 
L 249.929367 283.628196 
L 252.308546 285.365034 
L 254.687725 286.869825 
L 258.256494 288.771415 
L 268.962802 294.011648 
L 278.479519 299.259985 
L 280.858698 300.290619 
L 283.237878 301.125776 
L 285.617057 301.772269 
L 289.185826 302.457173 
L 293.944185 303.072836 
L 302.271313 304.139071 
L 312.97762 305.662987 
L 317.735979 306.051295 
L 341.527772 307.328044 
L 360.561207 307.560139 
L 368.888335 307.582286 
L 368.888335 307.582286 
" style="fill:none;stroke:#d62728;stroke-linecap:round;stroke-width:1.5;"/>
   </g>
   <g id="line2d_35">
    <path clip-path="url(#peb18a69eda)" d="M 127.71895 307.5814 
L 138.54148 307.484327 
L 144.553996 307.204481 
L 149.36401 306.747148 
L 154.174023 306.024699 
L 157.781533 305.251901 
L 161.389043 304.211151 
L 164.996553 302.857556 
L 168.604063 301.198884 
L 172.211573 299.275989 
L 175.819083 297.098458 
L 179.426593 294.593035 
L 181.8316 292.66908 
L 184.236606 290.488698 
L 186.641613 288.028386 
L 190.249123 283.873678 
L 196.26164 276.683437 
L 198.666646 274.239591 
L 201.071653 272.301691 
L 202.274156 271.552834 
L 203.47666 270.954659 
L 204.679163 270.501795 
L 205.881666 270.182491 
L 208.286673 269.871026 
L 210.69168 269.840581 
L 216.704196 269.881564 
L 222.716713 269.660059 
L 225.12172 269.8277 
L 227.526726 270.295176 
L 229.931733 271.080124 
L 232.33674 272.136414 
L 235.94425 274.051992 
L 241.956766 277.584775 
L 250.37429 282.788724 
L 263.601826 291.192144 
L 268.41184 294.197568 
L 272.01935 296.186012 
L 275.62686 297.886908 
L 279.23437 299.34147 
L 284.044383 300.987203 
L 287.651893 302.003084 
L 291.259403 302.802398 
L 296.069416 303.583709 
L 304.48694 304.858811 
L 310.499456 305.776989 
L 315.30947 306.277372 
L 327.334503 307.173153 
L 332.144516 307.344692 
L 338.157033 307.321771 
L 346.574556 307.285478 
L 367.017113 307.580668 
L 367.017113 307.580668 
" style="fill:none;stroke:#2ca02c;stroke-linecap:round;stroke-width:1.5;"/>
   </g>
   <g id="line2d_36">
    <path clip-path="url(#peb18a69eda)" d="M 131.60386 307.581311 
L 141.675261 307.482578 
L 147.270484 307.194557 
L 151.746662 306.71247 
L 155.103796 306.151674 
L 158.46093 305.349645 
L 160.699019 304.630644 
L 162.937108 303.728241 
L 165.175198 302.624956 
L 167.413287 301.323558 
L 170.770421 299.049492 
L 174.127554 296.469596 
L 177.484688 293.618634 
L 180.841822 290.478223 
L 186.437045 284.786811 
L 190.913223 280.373718 
L 194.270357 277.383958 
L 197.627491 274.665184 
L 200.984625 272.254673 
L 203.222714 270.912609 
L 205.460803 269.87149 
L 207.698892 269.179525 
L 209.936981 268.829375 
L 212.175071 268.756782 
L 215.532204 268.952512 
L 222.246472 269.427318 
L 230.079784 269.773123 
L 232.317873 270.207407 
L 234.555962 270.973038 
L 236.794052 272.119941 
L 239.032141 273.646571 
L 241.27023 275.505102 
L 244.627364 278.712957 
L 249.103542 283.062387 
L 251.341631 284.95451 
L 253.579721 286.561211 
L 255.81781 287.91881 
L 263.651122 292.353825 
L 269.246345 296.123851 
L 272.603479 298.254311 
L 275.960612 300.057396 
L 279.317746 301.507808 
L 282.67488 302.639068 
L 286.032014 303.482316 
L 289.389148 304.086189 
L 296.103415 304.968682 
L 311.77004 306.908968 
L 316.246218 307.153762 
L 321.841441 307.192926 
L 331.912842 307.126488 
L 354.293734 307.581691 
L 354.293734 307.581691 
" style="fill:none;stroke:#ff7f0e;stroke-linecap:round;stroke-width:1.5;"/>
   </g>
   <g id="line2d_37">
    <path clip-path="url(#peb18a69eda)" d="M 120.496334 307.581113 
L 133.068789 307.461973 
L 140.053486 307.184772 
L 147.038183 306.700551 
L 151.229001 306.194554 
L 154.02288 305.664214 
L 156.816758 304.913694 
L 159.610637 303.909726 
L 162.404516 302.65288 
L 165.198395 301.175141 
L 169.389213 298.651902 
L 174.97697 294.929175 
L 179.167789 291.921629 
L 183.358607 288.657748 
L 187.549425 285.095935 
L 193.137182 280.275465 
L 195.931061 278.147622 
L 198.72494 276.365143 
L 201.518819 274.948604 
L 204.312698 273.843118 
L 207.106576 272.970293 
L 209.900455 272.284448 
L 212.694334 271.797509 
L 215.488213 271.563811 
L 218.282091 271.642024 
L 221.07597 272.05763 
L 223.869849 272.780112 
L 228.060667 274.23018 
L 232.251485 275.716988 
L 235.045364 276.545425 
L 239.236182 277.529923 
L 243.427 278.553173 
L 246.220879 279.514611 
L 249.014758 280.805917 
L 251.808637 282.410038 
L 255.999455 285.193899 
L 264.381091 290.921752 
L 268.571909 293.489707 
L 272.762728 295.709539 
L 276.953546 297.583075 
L 282.541303 299.747306 
L 288.129061 301.670584 
L 292.319879 302.91082 
L 296.510697 303.955477 
L 300.701515 304.802646 
L 304.892334 305.431548 
L 309.083152 305.834122 
L 314.670909 306.106243 
L 325.846424 306.55984 
L 337.02194 307.098303 
L 352.388273 307.509304 
L 362.166849 307.530305 
L 380.327061 307.472362 
L 398.487273 307.582347 
L 398.487273 307.582347 
" style="fill:none;stroke:#1f77b4;stroke-linecap:round;stroke-width:1.5;"/>
   </g>
   <g id="patch_3">
    <path d="M 57.6 307.584 
L 57.6 41.472 
" style="fill:none;stroke:#ffffff;stroke-linecap:square;stroke-linejoin:miter;stroke-width:0.8;"/>
   </g>
   <g id="patch_4">
    <path d="M 414.72 307.584 
L 414.72 41.472 
" style="fill:none;stroke:#ffffff;stroke-linecap:square;stroke-linejoin:miter;stroke-width:0.8;"/>
   </g>
   <g id="patch_5">
    <path d="M 57.6 307.584 
L 414.72 307.584 
" style="fill:none;stroke:#ffffff;stroke-linecap:square;stroke-linejoin:miter;stroke-width:0.8;"/>
   </g>
   <g id="patch_6">
    <path d="M 57.6 41.472 
L 414.72 41.472 
" style="fill:none;stroke:#ffffff;stroke-linecap:square;stroke-linejoin:miter;stroke-width:0.8;"/>
   </g>
   <g id="text_14">
    <!-- Density plots of PG(h, 0) using each method for h $\in$ {1,4,7,10,15}.  -->
    <g style="fill:#262626;" transform="translate(30.3 22.008)scale(0.12 -0.12)">
     <defs>
      <path id="DejaVuSans-32"/>
      <path d="M 18.109375 8.203125 
L 18.109375 -20.796875 
L 9.078125 -20.796875 
L 9.078125 54.6875 
L 18.109375 54.6875 
L 18.109375 46.390625 
Q 20.953125 51.265625 25.265625 53.625 
Q 29.59375 56 35.59375 56 
Q 45.5625 56 51.78125 48.09375 
Q 58.015625 40.1875 58.015625 27.296875 
Q 58.015625 14.40625 51.78125 6.484375 
Q 45.5625 -1.421875 35.59375 -1.421875 
Q 29.59375 -1.421875 25.265625 0.953125 
Q 20.953125 3.328125 18.109375 8.203125 
z
M 48.6875 27.296875 
Q 48.6875 37.203125 44.609375 42.84375 
Q 40.53125 48.484375 33.40625 48.484375 
Q 26.265625 48.484375 22.1875 42.84375 
Q 18.109375 37.203125 18.109375 27.296875 
Q 18.109375 17.390625 22.1875 11.75 
Q 26.265625 6.109375 33.40625 6.109375 
Q 40.53125 6.109375 44.609375 11.75 
Q 48.6875 17.390625 48.6875 27.296875 
z
" id="DejaVuSans-112"/>
      <path d="M 9.421875 75.984375 
L 18.40625 75.984375 
L 18.40625 0 
L 9.421875 0 
z
" id="DejaVuSans-108"/>
      <path d="M 30.609375 48.390625 
Q 23.390625 48.390625 19.1875 42.75 
Q 14.984375 37.109375 14.984375 27.296875 
Q 14.984375 17.484375 19.15625 11.84375 
Q 23.34375 6.203125 30.609375 6.203125 
Q 37.796875 6.203125 41.984375 11.859375 
Q 46.1875 17.53125 46.1875 27.296875 
Q 46.1875 37.015625 41.984375 42.703125 
Q 37.796875 48.390625 30.609375 48.390625 
z
M 30.609375 56 
Q 42.328125 56 49.015625 48.375 
Q 55.71875 40.765625 55.71875 27.296875 
Q 55.71875 13.875 49.015625 6.21875 
Q 42.328125 -1.421875 30.609375 -1.421875 
Q 18.84375 -1.421875 12.171875 6.21875 
Q 5.515625 13.875 5.515625 27.296875 
Q 5.515625 40.765625 12.171875 48.375 
Q 18.84375 56 30.609375 56 
z
" id="DejaVuSans-111"/>
      <path d="M 37.109375 75.984375 
L 37.109375 68.5 
L 28.515625 68.5 
Q 23.6875 68.5 21.796875 66.546875 
Q 19.921875 64.59375 19.921875 59.515625 
L 19.921875 54.6875 
L 34.71875 54.6875 
L 34.71875 47.703125 
L 19.921875 47.703125 
L 19.921875 0 
L 10.890625 0 
L 10.890625 47.703125 
L 2.296875 47.703125 
L 2.296875 54.6875 
L 10.890625 54.6875 
L 10.890625 58.5 
Q 10.890625 67.625 15.140625 71.796875 
Q 19.390625 75.984375 28.609375 75.984375 
z
" id="DejaVuSans-102"/>
      <path d="M 19.671875 64.796875 
L 19.671875 37.40625 
L 32.078125 37.40625 
Q 38.96875 37.40625 42.71875 40.96875 
Q 46.484375 44.53125 46.484375 51.125 
Q 46.484375 57.671875 42.71875 61.234375 
Q 38.96875 64.796875 32.078125 64.796875 
z
M 9.8125 72.90625 
L 32.078125 72.90625 
Q 44.34375 72.90625 50.609375 67.359375 
Q 56.890625 61.8125 56.890625 51.125 
Q 56.890625 40.328125 50.609375 34.8125 
Q 44.34375 29.296875 32.078125 29.296875 
L 19.671875 29.296875 
L 19.671875 0 
L 9.8125 0 
z
" id="DejaVuSans-80"/>
      <path d="M 59.515625 10.40625 
L 59.515625 29.984375 
L 43.40625 29.984375 
L 43.40625 38.09375 
L 69.28125 38.09375 
L 69.28125 6.78125 
Q 63.578125 2.734375 56.6875 0.65625 
Q 49.8125 -1.421875 42 -1.421875 
Q 24.90625 -1.421875 15.25 8.5625 
Q 5.609375 18.5625 5.609375 36.375 
Q 5.609375 54.25 15.25 64.234375 
Q 24.90625 74.21875 42 74.21875 
Q 49.125 74.21875 55.546875 72.453125 
Q 61.96875 70.703125 67.390625 67.28125 
L 67.390625 56.78125 
Q 61.921875 61.421875 55.765625 63.765625 
Q 49.609375 66.109375 42.828125 66.109375 
Q 29.4375 66.109375 22.71875 58.640625 
Q 16.015625 51.171875 16.015625 36.375 
Q 16.015625 21.625 22.71875 14.15625 
Q 29.4375 6.6875 42.828125 6.6875 
Q 48.046875 6.6875 52.140625 7.59375 
Q 56.25 8.5 59.515625 10.40625 
z
" id="DejaVuSans-71"/>
      <path d="M 31 75.875 
Q 24.46875 64.65625 21.28125 53.65625 
Q 18.109375 42.671875 18.109375 31.390625 
Q 18.109375 20.125 21.3125 9.0625 
Q 24.515625 -2 31 -13.1875 
L 23.1875 -13.1875 
Q 15.875 -1.703125 12.234375 9.375 
Q 8.59375 20.453125 8.59375 31.390625 
Q 8.59375 42.28125 12.203125 53.3125 
Q 15.828125 64.359375 23.1875 75.875 
z
" id="DejaVuSans-40"/>
      <path d="M 54.890625 33.015625 
L 54.890625 0 
L 45.90625 0 
L 45.90625 32.71875 
Q 45.90625 40.484375 42.875 44.328125 
Q 39.84375 48.1875 33.796875 48.1875 
Q 26.515625 48.1875 22.3125 43.546875 
Q 18.109375 38.921875 18.109375 30.90625 
L 18.109375 0 
L 9.078125 0 
L 9.078125 75.984375 
L 18.109375 75.984375 
L 18.109375 46.1875 
Q 21.34375 51.125 25.703125 53.5625 
Q 30.078125 56 35.796875 56 
Q 45.21875 56 50.046875 50.171875 
Q 54.890625 44.34375 54.890625 33.015625 
z
" id="DejaVuSans-104"/>
      <path d="M 11.71875 12.40625 
L 22.015625 12.40625 
L 22.015625 4 
L 14.015625 -11.625 
L 7.71875 -11.625 
L 11.71875 4 
z
" id="DejaVuSans-44"/>
      <path d="M 8.015625 75.875 
L 15.828125 75.875 
Q 23.140625 64.359375 26.78125 53.3125 
Q 30.421875 42.28125 30.421875 31.390625 
Q 30.421875 20.453125 26.78125 9.375 
Q 23.140625 -1.703125 15.828125 -13.1875 
L 8.015625 -13.1875 
Q 14.5 -2 17.703125 9.0625 
Q 20.90625 20.125 20.90625 31.390625 
Q 20.90625 42.671875 17.703125 53.65625 
Q 14.5 64.65625 8.015625 75.875 
z
" id="DejaVuSans-41"/>
      <path d="M 8.5 21.578125 
L 8.5 54.6875 
L 17.484375 54.6875 
L 17.484375 21.921875 
Q 17.484375 14.15625 20.5 10.265625 
Q 23.53125 6.390625 29.59375 6.390625 
Q 36.859375 6.390625 41.078125 11.03125 
Q 45.3125 15.671875 45.3125 23.6875 
L 45.3125 54.6875 
L 54.296875 54.6875 
L 54.296875 0 
L 45.3125 0 
L 45.3125 8.40625 
Q 42.046875 3.421875 37.71875 1 
Q 33.40625 -1.421875 27.6875 -1.421875 
Q 18.265625 -1.421875 13.375 4.4375 
Q 8.5 10.296875 8.5 21.578125 
z
M 31.109375 56 
z
" id="DejaVuSans-117"/>
      <path d="M 45.40625 27.984375 
Q 45.40625 37.75 41.375 43.109375 
Q 37.359375 48.484375 30.078125 48.484375 
Q 22.859375 48.484375 18.828125 43.109375 
Q 14.796875 37.75 14.796875 27.984375 
Q 14.796875 18.265625 18.828125 12.890625 
Q 22.859375 7.515625 30.078125 7.515625 
Q 37.359375 7.515625 41.375 12.890625 
Q 45.40625 18.265625 45.40625 27.984375 
z
M 54.390625 6.78125 
Q 54.390625 -7.171875 48.1875 -13.984375 
Q 42 -20.796875 29.203125 -20.796875 
Q 24.46875 -20.796875 20.265625 -20.09375 
Q 16.0625 -19.390625 12.109375 -17.921875 
L 12.109375 -9.1875 
Q 16.0625 -11.328125 19.921875 -12.34375 
Q 23.78125 -13.375 27.78125 -13.375 
Q 36.625 -13.375 41.015625 -8.765625 
Q 45.40625 -4.15625 45.40625 5.171875 
L 45.40625 9.625 
Q 42.625 4.78125 38.28125 2.390625 
Q 33.9375 0 27.875 0 
Q 17.828125 0 11.671875 7.65625 
Q 5.515625 15.328125 5.515625 27.984375 
Q 5.515625 40.671875 11.671875 48.328125 
Q 17.828125 56 27.875 56 
Q 33.9375 56 38.28125 53.609375 
Q 42.625 51.21875 45.40625 46.390625 
L 45.40625 54.6875 
L 54.390625 54.6875 
z
" id="DejaVuSans-103"/>
      <path d="M 34.28125 27.484375 
Q 23.390625 27.484375 19.1875 25 
Q 14.984375 22.515625 14.984375 16.5 
Q 14.984375 11.71875 18.140625 8.90625 
Q 21.296875 6.109375 26.703125 6.109375 
Q 34.1875 6.109375 38.703125 11.40625 
Q 43.21875 16.703125 43.21875 25.484375 
L 43.21875 27.484375 
z
M 52.203125 31.203125 
L 52.203125 0 
L 43.21875 0 
L 43.21875 8.296875 
Q 40.140625 3.328125 35.546875 0.953125 
Q 30.953125 -1.421875 24.3125 -1.421875 
Q 15.921875 -1.421875 10.953125 3.296875 
Q 6 8.015625 6 15.921875 
Q 6 25.140625 12.171875 29.828125 
Q 18.359375 34.515625 30.609375 34.515625 
L 43.21875 34.515625 
L 43.21875 35.40625 
Q 43.21875 41.609375 39.140625 45 
Q 35.0625 48.390625 27.6875 48.390625 
Q 23 48.390625 18.546875 47.265625 
Q 14.109375 46.140625 10.015625 43.890625 
L 10.015625 52.203125 
Q 14.9375 54.109375 19.578125 55.046875 
Q 24.21875 56 28.609375 56 
Q 40.484375 56 46.34375 49.84375 
Q 52.203125 43.703125 52.203125 31.203125 
z
" id="DejaVuSans-97"/>
      <path d="M 48.78125 52.59375 
L 48.78125 44.1875 
Q 44.96875 46.296875 41.140625 47.34375 
Q 37.3125 48.390625 33.40625 48.390625 
Q 24.65625 48.390625 19.8125 42.84375 
Q 14.984375 37.3125 14.984375 27.296875 
Q 14.984375 17.28125 19.8125 11.734375 
Q 24.65625 6.203125 33.40625 6.203125 
Q 37.3125 6.203125 41.140625 7.25 
Q 44.96875 8.296875 48.78125 10.40625 
L 48.78125 2.09375 
Q 45.015625 0.34375 40.984375 -0.53125 
Q 36.96875 -1.421875 32.421875 -1.421875 
Q 20.0625 -1.421875 12.78125 6.34375 
Q 5.515625 14.109375 5.515625 27.296875 
Q 5.515625 40.671875 12.859375 48.328125 
Q 20.21875 56 33.015625 56 
Q 37.15625 56 41.109375 55.140625 
Q 45.0625 54.296875 48.78125 52.59375 
z
" id="DejaVuSans-99"/>
      <path d="M 52 44.1875 
Q 55.375 50.25 60.0625 53.125 
Q 64.75 56 71.09375 56 
Q 79.640625 56 84.28125 50.015625 
Q 88.921875 44.046875 88.921875 33.015625 
L 88.921875 0 
L 79.890625 0 
L 79.890625 32.71875 
Q 79.890625 40.578125 77.09375 44.375 
Q 74.3125 48.1875 68.609375 48.1875 
Q 61.625 48.1875 57.5625 43.546875 
Q 53.515625 38.921875 53.515625 30.90625 
L 53.515625 0 
L 44.484375 0 
L 44.484375 32.71875 
Q 44.484375 40.625 41.703125 44.40625 
Q 38.921875 48.1875 33.109375 48.1875 
Q 26.21875 48.1875 22.15625 43.53125 
Q 18.109375 38.875 18.109375 30.90625 
L 18.109375 0 
L 9.078125 0 
L 9.078125 54.6875 
L 18.109375 54.6875 
L 18.109375 46.1875 
Q 21.1875 51.21875 25.484375 53.609375 
Q 29.78125 56 35.6875 56 
Q 41.65625 56 45.828125 52.96875 
Q 50 49.953125 52 44.1875 
z
" id="DejaVuSans-109"/>
      <path d="M 45.40625 46.390625 
L 45.40625 75.984375 
L 54.390625 75.984375 
L 54.390625 0 
L 45.40625 0 
L 45.40625 8.203125 
Q 42.578125 3.328125 38.25 0.953125 
Q 33.9375 -1.421875 27.875 -1.421875 
Q 17.96875 -1.421875 11.734375 6.484375 
Q 5.515625 14.40625 5.515625 27.296875 
Q 5.515625 40.1875 11.734375 48.09375 
Q 17.96875 56 27.875 56 
Q 33.9375 56 38.25 53.625 
Q 42.578125 51.265625 45.40625 46.390625 
z
M 14.796875 27.296875 
Q 14.796875 17.390625 18.875 11.75 
Q 22.953125 6.109375 30.078125 6.109375 
Q 37.203125 6.109375 41.296875 11.75 
Q 45.40625 17.390625 45.40625 27.296875 
Q 45.40625 37.203125 41.296875 42.84375 
Q 37.203125 48.484375 30.078125 48.484375 
Q 22.953125 48.484375 18.875 42.84375 
Q 14.796875 37.203125 14.796875 27.296875 
z
" id="DejaVuSans-100"/>
      <path d="M 41.109375 46.296875 
Q 39.59375 47.171875 37.8125 47.578125 
Q 36.03125 48 33.890625 48 
Q 26.265625 48 22.1875 43.046875 
Q 18.109375 38.09375 18.109375 28.8125 
L 18.109375 0 
L 9.078125 0 
L 9.078125 54.6875 
L 18.109375 54.6875 
L 18.109375 46.1875 
Q 20.953125 51.171875 25.484375 53.578125 
Q 30.03125 56 36.53125 56 
Q 37.453125 56 38.578125 55.875 
Q 39.703125 55.765625 41.0625 55.515625 
z
" id="DejaVuSans-114"/>
      <path d="M 16.75 30.609375 
Q 17.09375 27 20.171875 21.140625 
Q 23.78125 14.359375 30.609375 10.546875 
Q 37.3125 6.84375 44.53125 6.78125 
L 78.5625 6.78125 
L 78.5625 -0.984375 
L 44.53125 -0.984375 
Q 35.15625 -0.984375 26.484375 3.84375 
Q 17.828125 8.6875 13.1875 17.28125 
Q 8.546875 25.875 8.546875 35.015625 
Q 8.546875 44.046875 13.1875 52.640625 
Q 17.828125 61.234375 26.484375 66.109375 
Q 35.15625 71 44.53125 71 
L 78.5625 71 
L 78.5625 63.234375 
L 44.53125 63.234375 
Q 37.3125 63.1875 30.609375 59.421875 
Q 23.828125 55.5625 20.171875 48.828125 
Q 17.046875 42.96875 16.609375 38.421875 
L 78.5625 38.421875 
L 78.5625 30.609375 
z
" id="DejaVuSans-8712"/>
      <path d="M 51.125 -9.28125 
L 51.125 -16.3125 
L 48.09375 -16.3125 
Q 35.9375 -16.3125 31.8125 -12.6875 
Q 27.6875 -9.078125 27.6875 1.703125 
L 27.6875 13.375 
Q 27.6875 20.75 25.046875 23.578125 
Q 22.40625 26.421875 15.484375 26.421875 
L 12.5 26.421875 
L 12.5 33.40625 
L 15.484375 33.40625 
Q 22.46875 33.40625 25.078125 36.203125 
Q 27.6875 39.015625 27.6875 46.296875 
L 27.6875 58.015625 
Q 27.6875 68.796875 31.8125 72.390625 
Q 35.9375 75.984375 48.09375 75.984375 
L 51.125 75.984375 
L 51.125 69 
L 47.796875 69 
Q 40.921875 69 38.8125 66.84375 
Q 36.71875 64.703125 36.71875 57.8125 
L 36.71875 45.703125 
Q 36.71875 38.03125 34.5 34.5625 
Q 32.28125 31.109375 26.90625 29.890625 
Q 32.328125 28.5625 34.515625 25.09375 
Q 36.71875 21.625 36.71875 14.015625 
L 36.71875 1.90625 
Q 36.71875 -4.984375 38.8125 -7.125 
Q 40.921875 -9.28125 47.796875 -9.28125 
z
" id="DejaVuSans-123"/>
      <path d="M 8.203125 72.90625 
L 55.078125 72.90625 
L 55.078125 68.703125 
L 28.609375 0 
L 18.3125 0 
L 43.21875 64.59375 
L 8.203125 64.59375 
z
" id="DejaVuSans-55"/>
      <path d="M 12.5 -9.28125 
L 15.921875 -9.28125 
Q 22.75 -9.28125 24.828125 -7.171875 
Q 26.90625 -5.078125 26.90625 1.90625 
L 26.90625 14.015625 
Q 26.90625 21.625 29.09375 25.09375 
Q 31.296875 28.5625 36.71875 29.890625 
Q 31.296875 31.109375 29.09375 34.5625 
Q 26.90625 38.03125 26.90625 45.703125 
L 26.90625 57.8125 
Q 26.90625 64.75 24.828125 66.875 
Q 22.75 69 15.921875 69 
L 12.5 69 
L 12.5 75.984375 
L 15.578125 75.984375 
Q 27.734375 75.984375 31.8125 72.390625 
Q 35.890625 68.796875 35.890625 58.015625 
L 35.890625 46.296875 
Q 35.890625 39.015625 38.515625 36.203125 
Q 41.15625 33.40625 48.09375 33.40625 
L 51.125 33.40625 
L 51.125 26.421875 
L 48.09375 26.421875 
Q 41.15625 26.421875 38.515625 23.578125 
Q 35.890625 20.75 35.890625 13.375 
L 35.890625 1.703125 
Q 35.890625 -9.078125 31.8125 -12.6875 
Q 27.734375 -16.3125 15.578125 -16.3125 
L 12.5 -16.3125 
z
" id="DejaVuSans-125"/>
     </defs>
     <use transform="translate(0 0.015625)" xlink:href="#DejaVuSans-68"/>
     <use transform="translate(77.001953 0.015625)" xlink:href="#DejaVuSans-101"/>
     <use transform="translate(138.525391 0.015625)" xlink:href="#DejaVuSans-110"/>
     <use transform="translate(201.904297 0.015625)" xlink:href="#DejaVuSans-115"/>
     <use transform="translate(254.003906 0.015625)" xlink:href="#DejaVuSans-105"/>
     <use transform="translate(281.787109 0.015625)" xlink:href="#DejaVuSans-116"/>
     <use transform="translate(320.996094 0.015625)" xlink:href="#DejaVuSans-121"/>
     <use transform="translate(380.175781 0.015625)" xlink:href="#DejaVuSans-32"/>
     <use transform="translate(411.962891 0.015625)" xlink:href="#DejaVuSans-112"/>
     <use transform="translate(475.439453 0.015625)" xlink:href="#DejaVuSans-108"/>
     <use transform="translate(503.222656 0.015625)" xlink:href="#DejaVuSans-111"/>
     <use transform="translate(564.404297 0.015625)" xlink:href="#DejaVuSans-116"/>
     <use transform="translate(603.613281 0.015625)" xlink:href="#DejaVuSans-115"/>
     <use transform="translate(655.712891 0.015625)" xlink:href="#DejaVuSans-32"/>
     <use transform="translate(687.5 0.015625)" xlink:href="#DejaVuSans-111"/>
     <use transform="translate(748.681641 0.015625)" xlink:href="#DejaVuSans-102"/>
     <use transform="translate(783.886719 0.015625)" xlink:href="#DejaVuSans-32"/>
     <use transform="translate(815.673828 0.015625)" xlink:href="#DejaVuSans-80"/>
     <use transform="translate(875.976562 0.015625)" xlink:href="#DejaVuSans-71"/>
     <use transform="translate(953.466797 0.015625)" xlink:href="#DejaVuSans-40"/>
     <use transform="translate(992.480469 0.015625)" xlink:href="#DejaVuSans-104"/>
     <use transform="translate(1055.859375 0.015625)" xlink:href="#DejaVuSans-44"/>
     <use transform="translate(1087.646484 0.015625)" xlink:href="#DejaVuSans-32"/>
     <use transform="translate(1119.433594 0.015625)" xlink:href="#DejaVuSans-48"/>
     <use transform="translate(1183.056641 0.015625)" xlink:href="#DejaVuSans-41"/>
     <use transform="translate(1222.070312 0.015625)" xlink:href="#DejaVuSans-32"/>
     <use transform="translate(1253.857422 0.015625)" xlink:href="#DejaVuSans-117"/>
     <use transform="translate(1317.236328 0.015625)" xlink:href="#DejaVuSans-115"/>
     <use transform="translate(1369.335938 0.015625)" xlink:href="#DejaVuSans-105"/>
     <use transform="translate(1397.119141 0.015625)" xlink:href="#DejaVuSans-110"/>
     <use transform="translate(1460.498047 0.015625)" xlink:href="#DejaVuSans-103"/>
     <use transform="translate(1523.974609 0.015625)" xlink:href="#DejaVuSans-32"/>
     <use transform="translate(1555.761719 0.015625)" xlink:href="#DejaVuSans-101"/>
     <use transform="translate(1617.285156 0.015625)" xlink:href="#DejaVuSans-97"/>
     <use transform="translate(1678.564453 0.015625)" xlink:href="#DejaVuSans-99"/>
     <use transform="translate(1733.544922 0.015625)" xlink:href="#DejaVuSans-104"/>
     <use transform="translate(1796.923828 0.015625)" xlink:href="#DejaVuSans-32"/>
     <use transform="translate(1828.710938 0.015625)" xlink:href="#DejaVuSans-109"/>
     <use transform="translate(1926.123047 0.015625)" xlink:href="#DejaVuSans-101"/>
     <use transform="translate(1987.646484 0.015625)" xlink:href="#DejaVuSans-116"/>
     <use transform="translate(2026.855469 0.015625)" xlink:href="#DejaVuSans-104"/>
     <use transform="translate(2090.234375 0.015625)" xlink:href="#DejaVuSans-111"/>
     <use transform="translate(2151.416016 0.015625)" xlink:href="#DejaVuSans-100"/>
     <use transform="translate(2214.892578 0.015625)" xlink:href="#DejaVuSans-32"/>
     <use transform="translate(2246.679688 0.015625)" xlink:href="#DejaVuSans-102"/>
     <use transform="translate(2281.884766 0.015625)" xlink:href="#DejaVuSans-111"/>
     <use transform="translate(2343.066406 0.015625)" xlink:href="#DejaVuSans-114"/>
     <use transform="translate(2384.179688 0.015625)" xlink:href="#DejaVuSans-32"/>
     <use transform="translate(2415.966797 0.015625)" xlink:href="#DejaVuSans-104"/>
     <use transform="translate(2479.345703 0.015625)" xlink:href="#DejaVuSans-32"/>
     <use transform="translate(2530.615234 0.015625)" xlink:href="#DejaVuSans-8712"/>
     <use transform="translate(2637.207031 0.015625)" xlink:href="#DejaVuSans-32"/>
     <use transform="translate(2668.994141 0.015625)" xlink:href="#DejaVuSans-123"/>
     <use transform="translate(2732.617188 0.015625)" xlink:href="#DejaVuSans-49"/>
     <use transform="translate(2796.240234 0.015625)" xlink:href="#DejaVuSans-44"/>
     <use transform="translate(2828.027344 0.015625)" xlink:href="#DejaVuSans-52"/>
     <use transform="translate(2891.650391 0.015625)" xlink:href="#DejaVuSans-44"/>
     <use transform="translate(2923.4375 0.015625)" xlink:href="#DejaVuSans-55"/>
     <use transform="translate(2987.060547 0.015625)" xlink:href="#DejaVuSans-44"/>
     <use transform="translate(3018.847656 0.015625)" xlink:href="#DejaVuSans-49"/>
     <use transform="translate(3082.470703 0.015625)" xlink:href="#DejaVuSans-48"/>
     <use transform="translate(3146.09375 0.015625)" xlink:href="#DejaVuSans-44"/>
     <use transform="translate(3177.880859 0.015625)" xlink:href="#DejaVuSans-49"/>
     <use transform="translate(3241.503906 0.015625)" xlink:href="#DejaVuSans-53"/>
     <use transform="translate(3303.376953 0.015625)" xlink:href="#DejaVuSans-125"/>
     <use transform="translate(3367 0.015625)" xlink:href="#DejaVuSans-46"/>
     <use transform="translate(3398.787109 0.015625)" xlink:href="#DejaVuSans-32"/>
    </g>
    <!-- The package $pypolyagamma$ is used as a reference. -->
    <g style="fill:#262626;" transform="translate(79.08 35.472)scale(0.12 -0.12)">
     <defs>
      <path d="M -0.296875 72.90625 
L 61.375 72.90625 
L 61.375 64.59375 
L 35.5 64.59375 
L 35.5 0 
L 25.59375 0 
L 25.59375 64.59375 
L -0.296875 64.59375 
z
" id="DejaVuSans-84"/>
      <path d="M 9.078125 75.984375 
L 18.109375 75.984375 
L 18.109375 31.109375 
L 44.921875 54.6875 
L 56.390625 54.6875 
L 27.390625 29.109375 
L 57.625 0 
L 45.90625 0 
L 18.109375 26.703125 
L 18.109375 0 
L 9.078125 0 
z
" id="DejaVuSans-107"/>
      <path d="M 49.609375 33.6875 
Q 49.609375 40.875 46.484375 44.671875 
Q 43.359375 48.484375 37.5 48.484375 
Q 33.5 48.484375 29.859375 46.4375 
Q 26.21875 44.390625 23.390625 40.484375 
Q 20.609375 36.625 18.9375 31.15625 
Q 17.28125 25.6875 17.28125 20.3125 
Q 17.28125 13.484375 20.40625 9.796875 
Q 23.53125 6.109375 29.296875 6.109375 
Q 33.546875 6.109375 37.1875 8.109375 
Q 40.828125 10.109375 43.40625 13.921875 
Q 46.1875 17.921875 47.890625 23.34375 
Q 49.609375 28.765625 49.609375 33.6875 
z
M 21.78125 46.390625 
Q 25.390625 51.125 30.296875 53.5625 
Q 35.203125 56 41.21875 56 
Q 49.609375 56 54.25 50.5 
Q 58.890625 45.015625 58.890625 35.109375 
Q 58.890625 27 56 19.65625 
Q 53.125 12.3125 47.703125 6.5 
Q 44.09375 2.640625 39.546875 0.609375 
Q 35.015625 -1.421875 29.984375 -1.421875 
Q 24.171875 -1.421875 20.21875 1 
Q 16.265625 3.421875 14.3125 8.203125 
L 8.6875 -20.796875 
L -0.296875 -20.796875 
L 14.40625 54.6875 
L 23.390625 54.6875 
z
" id="DejaVuSans-Oblique-112"/>
      <path d="M 24.8125 -5.078125 
Q 18.5625 -15.578125 14.625 -18.1875 
Q 10.6875 -20.796875 4.59375 -20.796875 
L -2.484375 -20.796875 
L -0.984375 -13.28125 
L 4.203125 -13.28125 
Q 7.953125 -13.28125 10.59375 -11.234375 
Q 13.234375 -9.1875 16.5 -3.21875 
L 19.28125 2 
L 7.171875 54.6875 
L 16.703125 54.6875 
L 25.78125 12.796875 
L 50.875 54.6875 
L 60.296875 54.6875 
z
" id="DejaVuSans-Oblique-121"/>
      <path d="M 25.390625 -1.421875 
Q 15.765625 -1.421875 10.171875 4.515625 
Q 4.59375 10.453125 4.59375 20.703125 
Q 4.59375 26.65625 6.515625 32.828125 
Q 8.453125 39.015625 11.53125 43.21875 
Q 16.359375 49.75 22.3125 52.875 
Q 28.265625 56 35.796875 56 
Q 45.125 56 50.859375 50.1875 
Q 56.59375 44.390625 56.59375 35.015625 
Q 56.59375 28.515625 54.6875 22.0625 
Q 52.78125 15.625 49.703125 11.375 
Q 44.921875 4.828125 38.96875 1.703125 
Q 33.015625 -1.421875 25.390625 -1.421875 
z
M 13.921875 21 
Q 13.921875 13.578125 17.015625 9.890625 
Q 20.125 6.203125 26.421875 6.203125 
Q 35.453125 6.203125 41.375 14.078125 
Q 47.3125 21.96875 47.3125 34.078125 
Q 47.3125 41.15625 44.140625 44.765625 
Q 40.96875 48.390625 34.8125 48.390625 
Q 29.734375 48.390625 25.78125 46.015625 
Q 21.828125 43.65625 18.703125 38.8125 
Q 16.40625 35.203125 15.15625 30.5625 
Q 13.921875 25.921875 13.921875 21 
z
" id="DejaVuSans-Oblique-111"/>
      <path d="M 18.3125 75.984375 
L 27.296875 75.984375 
L 12.5 0 
L 3.515625 0 
z
" id="DejaVuSans-Oblique-108"/>
      <path d="M 53.71875 31.203125 
L 47.609375 0 
L 38.625 0 
L 40.28125 8.296875 
Q 36.328125 3.421875 31.265625 1 
Q 26.21875 -1.421875 20.015625 -1.421875 
Q 13.03125 -1.421875 8.5625 2.84375 
Q 4.109375 7.125 4.109375 13.8125 
Q 4.109375 23.390625 11.75 28.953125 
Q 19.390625 34.515625 32.8125 34.515625 
L 45.3125 34.515625 
L 45.796875 36.921875 
Q 45.90625 37.3125 45.953125 37.765625 
Q 46 38.234375 46 39.203125 
Q 46 43.5625 42.453125 45.96875 
Q 38.921875 48.390625 32.515625 48.390625 
Q 28.125 48.390625 23.5 47.265625 
Q 18.890625 46.140625 14.015625 43.890625 
L 15.578125 52.203125 
Q 20.65625 54.109375 25.515625 55.046875 
Q 30.375 56 34.90625 56 
Q 44.578125 56 49.625 51.796875 
Q 54.6875 47.609375 54.6875 39.59375 
Q 54.6875 37.984375 54.4375 35.8125 
Q 54.203125 33.640625 53.71875 31.203125 
z
M 44 27.484375 
L 35.015625 27.484375 
Q 23.96875 27.484375 18.671875 24.53125 
Q 13.375 21.578125 13.375 15.375 
Q 13.375 11.078125 16.078125 8.640625 
Q 18.796875 6.203125 23.578125 6.203125 
Q 30.90625 6.203125 36.375 11.453125 
Q 41.84375 16.703125 43.609375 25.484375 
z
" id="DejaVuSans-Oblique-97"/>
      <path d="M 59.625 54.6875 
L 50.296875 6.78125 
Q 47.609375 -7.125 40.015625 -13.953125 
Q 32.421875 -20.796875 19.578125 -20.796875 
Q 14.84375 -20.796875 10.78125 -20.09375 
Q 6.734375 -19.390625 3.21875 -17.921875 
L 4.890625 -9.1875 
Q 8.203125 -11.328125 11.90625 -12.34375 
Q 15.625 -13.375 19.828125 -13.375 
Q 28.375 -13.375 33.859375 -8.703125 
Q 39.359375 -4.046875 41.109375 4.6875 
L 41.890625 8.796875 
Q 38.140625 4.5 33.15625 2.25 
Q 28.171875 0 22.40625 0 
Q 14.109375 0 9.34375 5.484375 
Q 4.59375 10.984375 4.59375 20.609375 
Q 4.59375 28.171875 7.46875 35.421875 
Q 10.359375 42.671875 15.578125 48.296875 
Q 19.046875 52 23.65625 54 
Q 28.265625 56 33.296875 56 
Q 38.8125 56 42.90625 53.4375 
Q 47.015625 50.875 49.03125 46.1875 
L 50.59375 54.6875 
z
M 46.09375 34.625 
Q 46.09375 41.265625 42.96875 44.875 
Q 39.84375 48.484375 34.078125 48.484375 
Q 30.515625 48.484375 27.296875 47.0625 
Q 24.078125 45.65625 21.78125 43.109375 
Q 18.0625 38.921875 15.984375 33.234375 
Q 13.921875 27.546875 13.921875 21.484375 
Q 13.921875 14.75 17.0625 11.125 
Q 20.21875 7.515625 26.125 7.515625 
Q 34.671875 7.515625 40.375 15.25 
Q 46.09375 23 46.09375 34.625 
z
" id="DejaVuSans-Oblique-103"/>
      <path d="M 89.796875 33.015625 
L 83.40625 0 
L 74.421875 0 
L 80.71875 32.71875 
Q 81.109375 34.8125 81.296875 36.328125 
Q 81.5 37.84375 81.5 38.921875 
Q 81.5 43.3125 79.046875 45.75 
Q 76.609375 48.1875 72.21875 48.1875 
Q 65.671875 48.1875 60.546875 43.28125 
Q 55.421875 38.375 53.90625 30.515625 
L 47.90625 0 
L 38.921875 0 
L 45.3125 32.71875 
Q 45.703125 34.515625 45.890625 36.046875 
Q 46.09375 37.59375 46.09375 38.8125 
Q 46.09375 43.265625 43.65625 45.71875 
Q 41.21875 48.1875 36.921875 48.1875 
Q 30.28125 48.1875 25.140625 43.28125 
Q 20.015625 38.375 18.5 30.515625 
L 12.5 0 
L 3.515625 0 
L 14.203125 54.6875 
L 23.1875 54.6875 
L 21.484375 46.1875 
Q 25.140625 50.984375 30.046875 53.484375 
Q 34.96875 56 40.578125 56 
Q 46.53125 56 50.359375 52.875 
Q 54.203125 49.75 54.984375 44.1875 
Q 59.078125 49.953125 64.46875 52.96875 
Q 69.875 56 75.875 56 
Q 82.90625 56 86.734375 51.953125 
Q 90.578125 47.90625 90.578125 40.484375 
Q 90.578125 38.875 90.375 36.9375 
Q 90.1875 35.015625 89.796875 33.015625 
z
" id="DejaVuSans-Oblique-109"/>
     </defs>
     <use transform="translate(0 0.015625)" xlink:href="#DejaVuSans-84"/>
     <use transform="translate(61.083984 0.015625)" xlink:href="#DejaVuSans-104"/>
     <use transform="translate(124.462891 0.015625)" xlink:href="#DejaVuSans-101"/>
     <use transform="translate(185.986328 0.015625)" xlink:href="#DejaVuSans-32"/>
     <use transform="translate(217.773438 0.015625)" xlink:href="#DejaVuSans-112"/>
     <use transform="translate(281.25 0.015625)" xlink:href="#DejaVuSans-97"/>
     <use transform="translate(342.529297 0.015625)" xlink:href="#DejaVuSans-99"/>
     <use transform="translate(397.509766 0.015625)" xlink:href="#DejaVuSans-107"/>
     <use transform="translate(455.419922 0.015625)" xlink:href="#DejaVuSans-97"/>
     <use transform="translate(516.699219 0.015625)" xlink:href="#DejaVuSans-103"/>
     <use transform="translate(580.175781 0.015625)" xlink:href="#DejaVuSans-101"/>
     <use transform="translate(641.699219 0.015625)" xlink:href="#DejaVuSans-32"/>
     <use transform="translate(673.486328 0.015625)" xlink:href="#DejaVuSans-Oblique-112"/>
     <use transform="translate(736.962891 0.015625)" xlink:href="#DejaVuSans-Oblique-121"/>
     <use transform="translate(796.142578 0.015625)" xlink:href="#DejaVuSans-Oblique-112"/>
     <use transform="translate(859.619141 0.015625)" xlink:href="#DejaVuSans-Oblique-111"/>
     <use transform="translate(920.800781 0.015625)" xlink:href="#DejaVuSans-Oblique-108"/>
     <use transform="translate(948.583984 0.015625)" xlink:href="#DejaVuSans-Oblique-121"/>
     <use transform="translate(1007.763672 0.015625)" xlink:href="#DejaVuSans-Oblique-97"/>
     <use transform="translate(1069.042969 0.015625)" xlink:href="#DejaVuSans-Oblique-103"/>
     <use transform="translate(1132.519531 0.015625)" xlink:href="#DejaVuSans-Oblique-97"/>
     <use transform="translate(1193.798828 0.015625)" xlink:href="#DejaVuSans-Oblique-109"/>
     <use transform="translate(1291.210938 0.015625)" xlink:href="#DejaVuSans-Oblique-109"/>
     <use transform="translate(1388.623047 0.015625)" xlink:href="#DejaVuSans-Oblique-97"/>
     <use transform="translate(1449.902344 0.015625)" xlink:href="#DejaVuSans-32"/>
     <use transform="translate(1481.689453 0.015625)" xlink:href="#DejaVuSans-105"/>
     <use transform="translate(1509.472656 0.015625)" xlink:href="#DejaVuSans-115"/>
     <use transform="translate(1561.572266 0.015625)" xlink:href="#DejaVuSans-32"/>
     <use transform="translate(1593.359375 0.015625)" xlink:href="#DejaVuSans-117"/>
     <use transform="translate(1656.738281 0.015625)" xlink:href="#DejaVuSans-115"/>
     <use transform="translate(1708.837891 0.015625)" xlink:href="#DejaVuSans-101"/>
     <use transform="translate(1770.361328 0.015625)" xlink:href="#DejaVuSans-100"/>
     <use transform="translate(1833.837891 0.015625)" xlink:href="#DejaVuSans-32"/>
     <use transform="translate(1865.625 0.015625)" xlink:href="#DejaVuSans-97"/>
     <use transform="translate(1926.904297 0.015625)" xlink:href="#DejaVuSans-115"/>
     <use transform="translate(1979.003906 0.015625)" xlink:href="#DejaVuSans-32"/>
     <use transform="translate(2010.791016 0.015625)" xlink:href="#DejaVuSans-97"/>
     <use transform="translate(2072.070312 0.015625)" xlink:href="#DejaVuSans-32"/>
     <use transform="translate(2103.857422 0.015625)" xlink:href="#DejaVuSans-114"/>
     <use transform="translate(2144.970703 0.015625)" xlink:href="#DejaVuSans-101"/>
     <use transform="translate(2206.494141 0.015625)" xlink:href="#DejaVuSans-102"/>
     <use transform="translate(2241.699219 0.015625)" xlink:href="#DejaVuSans-101"/>
     <use transform="translate(2303.222656 0.015625)" xlink:href="#DejaVuSans-114"/>
     <use transform="translate(2344.335938 0.015625)" xlink:href="#DejaVuSans-101"/>
     <use transform="translate(2405.859375 0.015625)" xlink:href="#DejaVuSans-110"/>
     <use transform="translate(2469.238281 0.015625)" xlink:href="#DejaVuSans-99"/>
     <use transform="translate(2524.21875 0.015625)" xlink:href="#DejaVuSans-101"/>
     <use transform="translate(2585.742188 0.015625)" xlink:href="#DejaVuSans-46"/>
    </g>
   </g>
   <g id="legend_1">
    <g id="patch_7">
     <path d="M 298.02 122.8845 
L 407.72 122.8845 
Q 409.72 122.8845 409.72 120.8845 
L 409.72 48.472 
Q 409.72 46.472 407.72 46.472 
L 298.02 46.472 
Q 296.02 46.472 296.02 48.472 
L 296.02 120.8845 
Q 296.02 122.8845 298.02 122.8845 
z
" style="fill:#eaeaf2;opacity:0.8;stroke:#cccccc;stroke-linejoin:miter;"/>
    </g>
    <g id="line2d_38">
     <path d="M 300.02 54.570438 
L 320.02 54.570438 
" style="fill:none;stroke:#1f77b4;stroke-linecap:round;stroke-width:1.5;"/>
    </g>
    <g id="line2d_39"/>
    <g id="text_15">
     <!-- devroye -->
     <g style="fill:#262626;" transform="translate(328.02 58.070438)scale(0.1 -0.1)">
      <defs>
       <path d="M 2.984375 54.6875 
L 12.5 54.6875 
L 29.59375 8.796875 
L 46.6875 54.6875 
L 56.203125 54.6875 
L 35.6875 0 
L 23.484375 0 
z
" id="DejaVuSans-118"/>
      </defs>
      <use xlink:href="#DejaVuSans-100"/>
      <use x="63.476562" xlink:href="#DejaVuSans-101"/>
      <use x="125" xlink:href="#DejaVuSans-118"/>
      <use x="184.179688" xlink:href="#DejaVuSans-114"/>
      <use x="223.042969" xlink:href="#DejaVuSans-111"/>
      <use x="284.224609" xlink:href="#DejaVuSans-121"/>
      <use x="343.404297" xlink:href="#DejaVuSans-101"/>
     </g>
    </g>
    <g id="line2d_40">
     <path d="M 300.02 69.248563 
L 320.02 69.248563 
" style="fill:none;stroke:#ff7f0e;stroke-linecap:round;stroke-width:1.5;"/>
    </g>
    <g id="line2d_41"/>
    <g id="text_16">
     <!-- alternate -->
     <g style="fill:#262626;" transform="translate(328.02 72.748563)scale(0.1 -0.1)">
      <use xlink:href="#DejaVuSans-97"/>
      <use x="61.279297" xlink:href="#DejaVuSans-108"/>
      <use x="89.0625" xlink:href="#DejaVuSans-116"/>
      <use x="128.271484" xlink:href="#DejaVuSans-101"/>
      <use x="189.794922" xlink:href="#DejaVuSans-114"/>
      <use x="229.158203" xlink:href="#DejaVuSans-110"/>
      <use x="292.537109" xlink:href="#DejaVuSans-97"/>
      <use x="353.816406" xlink:href="#DejaVuSans-116"/>
      <use x="393.025391" xlink:href="#DejaVuSans-101"/>
     </g>
    </g>
    <g id="line2d_42">
     <path d="M 300.02 83.926688 
L 320.02 83.926688 
" style="fill:none;stroke:#2ca02c;stroke-linecap:round;stroke-width:1.5;"/>
    </g>
    <g id="line2d_43"/>
    <g id="text_17">
     <!-- gamma -->
     <g style="fill:#262626;" transform="translate(328.02 87.426688)scale(0.1 -0.1)">
      <use xlink:href="#DejaVuSans-103"/>
      <use x="63.476562" xlink:href="#DejaVuSans-97"/>
      <use x="124.755859" xlink:href="#DejaVuSans-109"/>
      <use x="222.167969" xlink:href="#DejaVuSans-109"/>
      <use x="319.580078" xlink:href="#DejaVuSans-97"/>
     </g>
    </g>
    <g id="line2d_44">
     <path d="M 300.02 98.604813 
L 320.02 98.604813 
" style="fill:none;stroke:#d62728;stroke-linecap:round;stroke-width:1.5;"/>
    </g>
    <g id="line2d_45"/>
    <g id="text_18">
     <!-- saddle -->
     <g style="fill:#262626;" transform="translate(328.02 102.104813)scale(0.1 -0.1)">
      <use xlink:href="#DejaVuSans-115"/>
      <use x="52.099609" xlink:href="#DejaVuSans-97"/>
      <use x="113.378906" xlink:href="#DejaVuSans-100"/>
      <use x="176.855469" xlink:href="#DejaVuSans-100"/>
      <use x="240.332031" xlink:href="#DejaVuSans-108"/>
      <use x="268.115234" xlink:href="#DejaVuSans-101"/>
     </g>
    </g>
    <g id="line2d_46">
     <path d="M 300.02 113.2845 
L 320.02 113.2845 
" style="fill:none;stroke:#9467bd;stroke-linecap:round;stroke-width:1.5;"/>
    </g>
    <g id="line2d_47"/>
    <g id="text_19">
     <!-- $pypolyagamma$ -->
     <g style="fill:#262626;" transform="translate(328.02 116.7845)scale(0.1 -0.1)">
      <use transform="translate(0 0.015625)" xlink:href="#DejaVuSans-Oblique-112"/>
      <use transform="translate(63.476562 0.015625)" xlink:href="#DejaVuSans-Oblique-121"/>
      <use transform="translate(122.65625 0.015625)" xlink:href="#DejaVuSans-Oblique-112"/>
      <use transform="translate(186.132812 0.015625)" xlink:href="#DejaVuSans-Oblique-111"/>
      <use transform="translate(247.314453 0.015625)" xlink:href="#DejaVuSans-Oblique-108"/>
      <use transform="translate(275.097656 0.015625)" xlink:href="#DejaVuSans-Oblique-121"/>
      <use transform="translate(334.277344 0.015625)" xlink:href="#DejaVuSans-Oblique-97"/>
      <use transform="translate(395.556641 0.015625)" xlink:href="#DejaVuSans-Oblique-103"/>
      <use transform="translate(459.033203 0.015625)" xlink:href="#DejaVuSans-Oblique-97"/>
      <use transform="translate(520.3125 0.015625)" xlink:href="#DejaVuSans-Oblique-109"/>
      <use transform="translate(617.724609 0.015625)" xlink:href="#DejaVuSans-Oblique-109"/>
      <use transform="translate(715.136719 0.015625)" xlink:href="#DejaVuSans-Oblique-97"/>
     </g>
    </g>
   </g>
  </g>
 </g>
 <defs>
  <clipPath id="peb18a69eda">
   <rect height="266.112" width="357.12" x="57.6" y="41.472"/>
  </clipPath>
 </defs>
</svg>
