<?xml version="1.0" encoding="utf-8" standalone="no"?>
<!DOCTYPE svg PUBLIC "-//W3C//DTD SVG 1.1//EN"
  "http://www.w3.org/Graphics/SVG/1.1/DTD/svg11.dtd">
<!-- Created with matplotlib (https://matplotlib.org/) -->
<svg height="345.6pt" version="1.1" viewBox="0 0 460.8 345.6" width="460.8pt" xmlns="http://www.w3.org/2000/svg" xmlns:xlink="http://www.w3.org/1999/xlink">
 <metadata>
  <rdf:RDF xmlns:cc="http://creativecommons.org/ns#" xmlns:dc="http://purl.org/dc/elements/1.1/" xmlns:rdf="http://www.w3.org/1999/02/22-rdf-syntax-ns#">
   <cc:Work>
    <dc:type rdf:resource="http://purl.org/dc/dcmitype/StillImage"/>
    <dc:date>2021-01-19T00:39:04.322510</dc:date>
    <dc:format>image/svg+xml</dc:format>
    <dc:creator>
     <cc:Agent>
      <dc:title>Matplotlib v3.3.3, https://matplotlib.org/</dc:title>
     </cc:Agent>
    </dc:creator>
   </cc:Work>
  </rdf:RDF>
 </metadata>
 <defs>
  <style type="text/css">*{stroke-linecap:butt;stroke-linejoin:round;}</style>
 </defs>
 <g id="figure_1">
  <g id="patch_1">
   <path d="M 0 345.6 
L 460.8 345.6 
L 460.8 0 
L 0 0 
z
" style="fill:#ffffff;"/>
  </g>
  <g id="axes_1">
   <g id="patch_2">
    <path d="M 57.6 307.584 
L 414.72 307.584 
L 414.72 41.472 
L 57.6 41.472 
z
" style="fill:#eaeaf2;"/>
   </g>
   <g id="matplotlib.axis_1">
    <g id="xtick_1">
     <g id="line2d_1">
      <path clip-path="url(#p8c31fa43b2)" d="M 81.113052 307.584 
L 81.113052 41.472 
" style="fill:none;stroke:#ffffff;stroke-linecap:round;stroke-width:0.8;"/>
     </g>
     <g id="text_1">
      <!-- 0 -->
      <g style="fill:#262626;" transform="translate(77.931802 322.182437)scale(0.1 -0.1)">
       <defs>
        <path d="M 31.78125 66.40625 
Q 24.171875 66.40625 20.328125 58.90625 
Q 16.5 51.421875 16.5 36.375 
Q 16.5 21.390625 20.328125 13.890625 
Q 24.171875 6.390625 31.78125 6.390625 
Q 39.453125 6.390625 43.28125 13.890625 
Q 47.125 21.390625 47.125 36.375 
Q 47.125 51.421875 43.28125 58.90625 
Q 39.453125 66.40625 31.78125 66.40625 
z
M 31.78125 74.21875 
Q 44.046875 74.21875 50.515625 64.515625 
Q 56.984375 54.828125 56.984375 36.375 
Q 56.984375 17.96875 50.515625 8.265625 
Q 44.046875 -1.421875 31.78125 -1.421875 
Q 19.53125 -1.421875 13.0625 8.265625 
Q 6.59375 17.96875 6.59375 36.375 
Q 6.59375 54.828125 13.0625 64.515625 
Q 19.53125 74.21875 31.78125 74.21875 
z
" id="DejaVuSans-48"/>
       </defs>
       <use xlink:href="#DejaVuSans-48"/>
      </g>
     </g>
    </g>
    <g id="xtick_2">
     <g id="line2d_2">
      <path clip-path="url(#p8c31fa43b2)" d="M 134.832548 307.584 
L 134.832548 41.472 
" style="fill:none;stroke:#ffffff;stroke-linecap:round;stroke-width:0.8;"/>
     </g>
     <g id="text_2">
      <!-- 1 -->
      <g style="fill:#262626;" transform="translate(131.651298 322.182437)scale(0.1 -0.1)">
       <defs>
        <path d="M 12.40625 8.296875 
L 28.515625 8.296875 
L 28.515625 63.921875 
L 10.984375 60.40625 
L 10.984375 69.390625 
L 28.421875 72.90625 
L 38.28125 72.90625 
L 38.28125 8.296875 
L 54.390625 8.296875 
L 54.390625 0 
L 12.40625 0 
z
" id="DejaVuSans-49"/>
       </defs>
       <use xlink:href="#DejaVuSans-49"/>
      </g>
     </g>
    </g>
    <g id="xtick_3">
     <g id="line2d_3">
      <path clip-path="url(#p8c31fa43b2)" d="M 188.552045 307.584 
L 188.552045 41.472 
" style="fill:none;stroke:#ffffff;stroke-linecap:round;stroke-width:0.8;"/>
     </g>
     <g id="text_3">
      <!-- 2 -->
      <g style="fill:#262626;" transform="translate(185.370795 322.182437)scale(0.1 -0.1)">
       <defs>
        <path d="M 19.1875 8.296875 
L 53.609375 8.296875 
L 53.609375 0 
L 7.328125 0 
L 7.328125 8.296875 
Q 12.9375 14.109375 22.625 23.890625 
Q 32.328125 33.6875 34.8125 36.53125 
Q 39.546875 41.84375 41.421875 45.53125 
Q 43.3125 49.21875 43.3125 52.78125 
Q 43.3125 58.59375 39.234375 62.25 
Q 35.15625 65.921875 28.609375 65.921875 
Q 23.96875 65.921875 18.8125 64.3125 
Q 13.671875 62.703125 7.8125 59.421875 
L 7.8125 69.390625 
Q 13.765625 71.78125 18.9375 73 
Q 24.125 74.21875 28.421875 74.21875 
Q 39.75 74.21875 46.484375 68.546875 
Q 53.21875 62.890625 53.21875 53.421875 
Q 53.21875 48.921875 51.53125 44.890625 
Q 49.859375 40.875 45.40625 35.40625 
Q 44.1875 33.984375 37.640625 27.21875 
Q 31.109375 20.453125 19.1875 8.296875 
z
" id="DejaVuSans-50"/>
       </defs>
       <use xlink:href="#DejaVuSans-50"/>
      </g>
     </g>
    </g>
    <g id="xtick_4">
     <g id="line2d_4">
      <path clip-path="url(#p8c31fa43b2)" d="M 242.271542 307.584 
L 242.271542 41.472 
" style="fill:none;stroke:#ffffff;stroke-linecap:round;stroke-width:0.8;"/>
     </g>
     <g id="text_4">
      <!-- 3 -->
      <g style="fill:#262626;" transform="translate(239.090292 322.182437)scale(0.1 -0.1)">
       <defs>
        <path d="M 40.578125 39.3125 
Q 47.65625 37.796875 51.625 33 
Q 55.609375 28.21875 55.609375 21.1875 
Q 55.609375 10.40625 48.1875 4.484375 
Q 40.765625 -1.421875 27.09375 -1.421875 
Q 22.515625 -1.421875 17.65625 -0.515625 
Q 12.796875 0.390625 7.625 2.203125 
L 7.625 11.71875 
Q 11.71875 9.328125 16.59375 8.109375 
Q 21.484375 6.890625 26.8125 6.890625 
Q 36.078125 6.890625 40.9375 10.546875 
Q 45.796875 14.203125 45.796875 21.1875 
Q 45.796875 27.640625 41.28125 31.265625 
Q 36.765625 34.90625 28.71875 34.90625 
L 20.21875 34.90625 
L 20.21875 43.015625 
L 29.109375 43.015625 
Q 36.375 43.015625 40.234375 45.921875 
Q 44.09375 48.828125 44.09375 54.296875 
Q 44.09375 59.90625 40.109375 62.90625 
Q 36.140625 65.921875 28.71875 65.921875 
Q 24.65625 65.921875 20.015625 65.03125 
Q 15.375 64.15625 9.8125 62.3125 
L 9.8125 71.09375 
Q 15.4375 72.65625 20.34375 73.4375 
Q 25.25 74.21875 29.59375 74.21875 
Q 40.828125 74.21875 47.359375 69.109375 
Q 53.90625 64.015625 53.90625 55.328125 
Q 53.90625 49.265625 50.4375 45.09375 
Q 46.96875 40.921875 40.578125 39.3125 
z
" id="DejaVuSans-51"/>
       </defs>
       <use xlink:href="#DejaVuSans-51"/>
      </g>
     </g>
    </g>
    <g id="xtick_5">
     <g id="line2d_5">
      <path clip-path="url(#p8c31fa43b2)" d="M 295.991038 307.584 
L 295.991038 41.472 
" style="fill:none;stroke:#ffffff;stroke-linecap:round;stroke-width:0.8;"/>
     </g>
     <g id="text_5">
      <!-- 4 -->
      <g style="fill:#262626;" transform="translate(292.809788 322.182437)scale(0.1 -0.1)">
       <defs>
        <path d="M 37.796875 64.3125 
L 12.890625 25.390625 
L 37.796875 25.390625 
z
M 35.203125 72.90625 
L 47.609375 72.90625 
L 47.609375 25.390625 
L 58.015625 25.390625 
L 58.015625 17.1875 
L 47.609375 17.1875 
L 47.609375 0 
L 37.796875 0 
L 37.796875 17.1875 
L 4.890625 17.1875 
L 4.890625 26.703125 
z
" id="DejaVuSans-52"/>
       </defs>
       <use xlink:href="#DejaVuSans-52"/>
      </g>
     </g>
    </g>
    <g id="xtick_6">
     <g id="line2d_6">
      <path clip-path="url(#p8c31fa43b2)" d="M 349.710535 307.584 
L 349.710535 41.472 
" style="fill:none;stroke:#ffffff;stroke-linecap:round;stroke-width:0.8;"/>
     </g>
     <g id="text_6">
      <!-- 5 -->
      <g style="fill:#262626;" transform="translate(346.529285 322.182437)scale(0.1 -0.1)">
       <defs>
        <path d="M 10.796875 72.90625 
L 49.515625 72.90625 
L 49.515625 64.59375 
L 19.828125 64.59375 
L 19.828125 46.734375 
Q 21.96875 47.46875 24.109375 47.828125 
Q 26.265625 48.1875 28.421875 48.1875 
Q 40.625 48.1875 47.75 41.5 
Q 54.890625 34.8125 54.890625 23.390625 
Q 54.890625 11.625 47.5625 5.09375 
Q 40.234375 -1.421875 26.90625 -1.421875 
Q 22.3125 -1.421875 17.546875 -0.640625 
Q 12.796875 0.140625 7.71875 1.703125 
L 7.71875 11.625 
Q 12.109375 9.234375 16.796875 8.0625 
Q 21.484375 6.890625 26.703125 6.890625 
Q 35.15625 6.890625 40.078125 11.328125 
Q 45.015625 15.765625 45.015625 23.390625 
Q 45.015625 31 40.078125 35.4375 
Q 35.15625 39.890625 26.703125 39.890625 
Q 22.75 39.890625 18.8125 39.015625 
Q 14.890625 38.140625 10.796875 36.28125 
z
" id="DejaVuSans-53"/>
       </defs>
       <use xlink:href="#DejaVuSans-53"/>
      </g>
     </g>
    </g>
    <g id="xtick_7">
     <g id="line2d_7">
      <path clip-path="url(#p8c31fa43b2)" d="M 403.430032 307.584 
L 403.430032 41.472 
" style="fill:none;stroke:#ffffff;stroke-linecap:round;stroke-width:0.8;"/>
     </g>
     <g id="text_7">
      <!-- 6 -->
      <g style="fill:#262626;" transform="translate(400.248782 322.182437)scale(0.1 -0.1)">
       <defs>
        <path d="M 33.015625 40.375 
Q 26.375 40.375 22.484375 35.828125 
Q 18.609375 31.296875 18.609375 23.390625 
Q 18.609375 15.53125 22.484375 10.953125 
Q 26.375 6.390625 33.015625 6.390625 
Q 39.65625 6.390625 43.53125 10.953125 
Q 47.40625 15.53125 47.40625 23.390625 
Q 47.40625 31.296875 43.53125 35.828125 
Q 39.65625 40.375 33.015625 40.375 
z
M 52.59375 71.296875 
L 52.59375 62.3125 
Q 48.875 64.0625 45.09375 64.984375 
Q 41.3125 65.921875 37.59375 65.921875 
Q 27.828125 65.921875 22.671875 59.328125 
Q 17.53125 52.734375 16.796875 39.40625 
Q 19.671875 43.65625 24.015625 45.921875 
Q 28.375 48.1875 33.59375 48.1875 
Q 44.578125 48.1875 50.953125 41.515625 
Q 57.328125 34.859375 57.328125 23.390625 
Q 57.328125 12.15625 50.6875 5.359375 
Q 44.046875 -1.421875 33.015625 -1.421875 
Q 20.359375 -1.421875 13.671875 8.265625 
Q 6.984375 17.96875 6.984375 36.375 
Q 6.984375 53.65625 15.1875 63.9375 
Q 23.390625 74.21875 37.203125 74.21875 
Q 40.921875 74.21875 44.703125 73.484375 
Q 48.484375 72.75 52.59375 71.296875 
z
" id="DejaVuSans-54"/>
       </defs>
       <use xlink:href="#DejaVuSans-54"/>
      </g>
     </g>
    </g>
   </g>
   <g id="matplotlib.axis_2">
    <g id="ytick_1">
     <g id="line2d_8">
      <path clip-path="url(#p8c31fa43b2)" d="M 57.6 307.584 
L 414.72 307.584 
" style="fill:none;stroke:#ffffff;stroke-linecap:round;stroke-width:0.8;"/>
     </g>
     <g id="text_8">
      <!-- 0.0 -->
      <g style="fill:#262626;" transform="translate(34.696875 311.383219)scale(0.1 -0.1)">
       <defs>
        <path d="M 10.6875 12.40625 
L 21 12.40625 
L 21 0 
L 10.6875 0 
z
" id="DejaVuSans-46"/>
       </defs>
       <use xlink:href="#DejaVuSans-48"/>
       <use x="63.623047" xlink:href="#DejaVuSans-46"/>
       <use x="95.410156" xlink:href="#DejaVuSans-48"/>
      </g>
     </g>
    </g>
    <g id="ytick_2">
     <g id="line2d_9">
      <path clip-path="url(#p8c31fa43b2)" d="M 57.6 258.710669 
L 414.72 258.710669 
" style="fill:none;stroke:#ffffff;stroke-linecap:round;stroke-width:0.8;"/>
     </g>
     <g id="text_9">
      <!-- 0.2 -->
      <g style="fill:#262626;" transform="translate(34.696875 262.509888)scale(0.1 -0.1)">
       <use xlink:href="#DejaVuSans-48"/>
       <use x="63.623047" xlink:href="#DejaVuSans-46"/>
       <use x="95.410156" xlink:href="#DejaVuSans-50"/>
      </g>
     </g>
    </g>
    <g id="ytick_3">
     <g id="line2d_10">
      <path clip-path="url(#p8c31fa43b2)" d="M 57.6 209.837338 
L 414.72 209.837338 
" style="fill:none;stroke:#ffffff;stroke-linecap:round;stroke-width:0.8;"/>
     </g>
     <g id="text_10">
      <!-- 0.4 -->
      <g style="fill:#262626;" transform="translate(34.696875 213.636557)scale(0.1 -0.1)">
       <use xlink:href="#DejaVuSans-48"/>
       <use x="63.623047" xlink:href="#DejaVuSans-46"/>
       <use x="95.410156" xlink:href="#DejaVuSans-52"/>
      </g>
     </g>
    </g>
    <g id="ytick_4">
     <g id="line2d_11">
      <path clip-path="url(#p8c31fa43b2)" d="M 57.6 160.964007 
L 414.72 160.964007 
" style="fill:none;stroke:#ffffff;stroke-linecap:round;stroke-width:0.8;"/>
     </g>
     <g id="text_11">
      <!-- 0.6 -->
      <g style="fill:#262626;" transform="translate(34.696875 164.763226)scale(0.1 -0.1)">
       <use xlink:href="#DejaVuSans-48"/>
       <use x="63.623047" xlink:href="#DejaVuSans-46"/>
       <use x="95.410156" xlink:href="#DejaVuSans-54"/>
      </g>
     </g>
    </g>
    <g id="ytick_5">
     <g id="line2d_12">
      <path clip-path="url(#p8c31fa43b2)" d="M 57.6 112.090677 
L 414.72 112.090677 
" style="fill:none;stroke:#ffffff;stroke-linecap:round;stroke-width:0.8;"/>
     </g>
     <g id="text_12">
      <!-- 0.8 -->
      <g style="fill:#262626;" transform="translate(34.696875 115.889895)scale(0.1 -0.1)">
       <defs>
        <path d="M 31.78125 34.625 
Q 24.75 34.625 20.71875 30.859375 
Q 16.703125 27.09375 16.703125 20.515625 
Q 16.703125 13.921875 20.71875 10.15625 
Q 24.75 6.390625 31.78125 6.390625 
Q 38.8125 6.390625 42.859375 10.171875 
Q 46.921875 13.96875 46.921875 20.515625 
Q 46.921875 27.09375 42.890625 30.859375 
Q 38.875 34.625 31.78125 34.625 
z
M 21.921875 38.8125 
Q 15.578125 40.375 12.03125 44.71875 
Q 8.5 49.078125 8.5 55.328125 
Q 8.5 64.0625 14.71875 69.140625 
Q 20.953125 74.21875 31.78125 74.21875 
Q 42.671875 74.21875 48.875 69.140625 
Q 55.078125 64.0625 55.078125 55.328125 
Q 55.078125 49.078125 51.53125 44.71875 
Q 48 40.375 41.703125 38.8125 
Q 48.828125 37.15625 52.796875 32.3125 
Q 56.78125 27.484375 56.78125 20.515625 
Q 56.78125 9.90625 50.3125 4.234375 
Q 43.84375 -1.421875 31.78125 -1.421875 
Q 19.734375 -1.421875 13.25 4.234375 
Q 6.78125 9.90625 6.78125 20.515625 
Q 6.78125 27.484375 10.78125 32.3125 
Q 14.796875 37.15625 21.921875 38.8125 
z
M 18.3125 54.390625 
Q 18.3125 48.734375 21.84375 45.5625 
Q 25.390625 42.390625 31.78125 42.390625 
Q 38.140625 42.390625 41.71875 45.5625 
Q 45.3125 48.734375 45.3125 54.390625 
Q 45.3125 60.0625 41.71875 63.234375 
Q 38.140625 66.40625 31.78125 66.40625 
Q 25.390625 66.40625 21.84375 63.234375 
Q 18.3125 60.0625 18.3125 54.390625 
z
" id="DejaVuSans-56"/>
       </defs>
       <use xlink:href="#DejaVuSans-48"/>
       <use x="63.623047" xlink:href="#DejaVuSans-46"/>
       <use x="95.410156" xlink:href="#DejaVuSans-56"/>
      </g>
     </g>
    </g>
    <g id="ytick_6">
     <g id="line2d_13">
      <path clip-path="url(#p8c31fa43b2)" d="M 57.6 63.217346 
L 414.72 63.217346 
" style="fill:none;stroke:#ffffff;stroke-linecap:round;stroke-width:0.8;"/>
     </g>
     <g id="text_13">
      <!-- 1.0 -->
      <g style="fill:#262626;" transform="translate(34.696875 67.016564)scale(0.1 -0.1)">
       <use xlink:href="#DejaVuSans-49"/>
       <use x="63.623047" xlink:href="#DejaVuSans-46"/>
       <use x="95.410156" xlink:href="#DejaVuSans-48"/>
      </g>
     </g>
    </g>
    <g id="text_14">
     <!-- Density -->
     <g style="fill:#262626;" transform="translate(28.617187 193.536594)rotate(-90)scale(0.1 -0.1)">
      <defs>
       <path d="M 19.671875 64.796875 
L 19.671875 8.109375 
L 31.59375 8.109375 
Q 46.6875 8.109375 53.6875 14.9375 
Q 60.6875 21.78125 60.6875 36.53125 
Q 60.6875 51.171875 53.6875 57.984375 
Q 46.6875 64.796875 31.59375 64.796875 
z
M 9.8125 72.90625 
L 30.078125 72.90625 
Q 51.265625 72.90625 61.171875 64.09375 
Q 71.09375 55.28125 71.09375 36.53125 
Q 71.09375 17.671875 61.125 8.828125 
Q 51.171875 0 30.078125 0 
L 9.8125 0 
z
" id="DejaVuSans-68"/>
       <path d="M 56.203125 29.59375 
L 56.203125 25.203125 
L 14.890625 25.203125 
Q 15.484375 15.921875 20.484375 11.0625 
Q 25.484375 6.203125 34.421875 6.203125 
Q 39.59375 6.203125 44.453125 7.46875 
Q 49.3125 8.734375 54.109375 11.28125 
L 54.109375 2.78125 
Q 49.265625 0.734375 44.1875 -0.34375 
Q 39.109375 -1.421875 33.890625 -1.421875 
Q 20.796875 -1.421875 13.15625 6.1875 
Q 5.515625 13.8125 5.515625 26.8125 
Q 5.515625 40.234375 12.765625 48.109375 
Q 20.015625 56 32.328125 56 
Q 43.359375 56 49.78125 48.890625 
Q 56.203125 41.796875 56.203125 29.59375 
z
M 47.21875 32.234375 
Q 47.125 39.59375 43.09375 43.984375 
Q 39.0625 48.390625 32.421875 48.390625 
Q 24.90625 48.390625 20.390625 44.140625 
Q 15.875 39.890625 15.1875 32.171875 
z
" id="DejaVuSans-101"/>
       <path d="M 54.890625 33.015625 
L 54.890625 0 
L 45.90625 0 
L 45.90625 32.71875 
Q 45.90625 40.484375 42.875 44.328125 
Q 39.84375 48.1875 33.796875 48.1875 
Q 26.515625 48.1875 22.3125 43.546875 
Q 18.109375 38.921875 18.109375 30.90625 
L 18.109375 0 
L 9.078125 0 
L 9.078125 54.6875 
L 18.109375 54.6875 
L 18.109375 46.1875 
Q 21.34375 51.125 25.703125 53.5625 
Q 30.078125 56 35.796875 56 
Q 45.21875 56 50.046875 50.171875 
Q 54.890625 44.34375 54.890625 33.015625 
z
" id="DejaVuSans-110"/>
       <path d="M 44.28125 53.078125 
L 44.28125 44.578125 
Q 40.484375 46.53125 36.375 47.5 
Q 32.28125 48.484375 27.875 48.484375 
Q 21.1875 48.484375 17.84375 46.4375 
Q 14.5 44.390625 14.5 40.28125 
Q 14.5 37.15625 16.890625 35.375 
Q 19.28125 33.59375 26.515625 31.984375 
L 29.59375 31.296875 
Q 39.15625 29.25 43.1875 25.515625 
Q 47.21875 21.78125 47.21875 15.09375 
Q 47.21875 7.46875 41.1875 3.015625 
Q 35.15625 -1.421875 24.609375 -1.421875 
Q 20.21875 -1.421875 15.453125 -0.5625 
Q 10.6875 0.296875 5.421875 2 
L 5.421875 11.28125 
Q 10.40625 8.6875 15.234375 7.390625 
Q 20.0625 6.109375 24.8125 6.109375 
Q 31.15625 6.109375 34.5625 8.28125 
Q 37.984375 10.453125 37.984375 14.40625 
Q 37.984375 18.0625 35.515625 20.015625 
Q 33.0625 21.96875 24.703125 23.78125 
L 21.578125 24.515625 
Q 13.234375 26.265625 9.515625 29.90625 
Q 5.8125 33.546875 5.8125 39.890625 
Q 5.8125 47.609375 11.28125 51.796875 
Q 16.75 56 26.8125 56 
Q 31.78125 56 36.171875 55.265625 
Q 40.578125 54.546875 44.28125 53.078125 
z
" id="DejaVuSans-115"/>
       <path d="M 9.421875 54.6875 
L 18.40625 54.6875 
L 18.40625 0 
L 9.421875 0 
z
M 9.421875 75.984375 
L 18.40625 75.984375 
L 18.40625 64.59375 
L 9.421875 64.59375 
z
" id="DejaVuSans-105"/>
       <path d="M 18.3125 70.21875 
L 18.3125 54.6875 
L 36.8125 54.6875 
L 36.8125 47.703125 
L 18.3125 47.703125 
L 18.3125 18.015625 
Q 18.3125 11.328125 20.140625 9.421875 
Q 21.96875 7.515625 27.59375 7.515625 
L 36.8125 7.515625 
L 36.8125 0 
L 27.59375 0 
Q 17.1875 0 13.234375 3.875 
Q 9.28125 7.765625 9.28125 18.015625 
L 9.28125 47.703125 
L 2.6875 47.703125 
L 2.6875 54.6875 
L 9.28125 54.6875 
L 9.28125 70.21875 
z
" id="DejaVuSans-116"/>
       <path d="M 32.171875 -5.078125 
Q 28.375 -14.84375 24.75 -17.8125 
Q 21.140625 -20.796875 15.09375 -20.796875 
L 7.90625 -20.796875 
L 7.90625 -13.28125 
L 13.1875 -13.28125 
Q 16.890625 -13.28125 18.9375 -11.515625 
Q 21 -9.765625 23.484375 -3.21875 
L 25.09375 0.875 
L 2.984375 54.6875 
L 12.5 54.6875 
L 29.59375 11.921875 
L 46.6875 54.6875 
L 56.203125 54.6875 
z
" id="DejaVuSans-121"/>
      </defs>
      <use xlink:href="#DejaVuSans-68"/>
      <use x="77.001953" xlink:href="#DejaVuSans-101"/>
      <use x="138.525391" xlink:href="#DejaVuSans-110"/>
      <use x="201.904297" xlink:href="#DejaVuSans-115"/>
      <use x="254.003906" xlink:href="#DejaVuSans-105"/>
      <use x="281.787109" xlink:href="#DejaVuSans-116"/>
      <use x="320.996094" xlink:href="#DejaVuSans-121"/>
     </g>
    </g>
   </g>
   <g id="line2d_14">
    <path clip-path="url(#p8c31fa43b2)" d="M 73.956563 307.467794 
L 74.881772 307.21089 
L 75.344377 306.942009 
L 75.806982 306.508533 
L 76.269586 305.829554 
L 76.732191 304.796169 
L 77.194796 303.267848 
L 77.657401 301.071263 
L 78.120005 298.002969 
L 78.58261 293.837162 
L 79.045215 288.339333 
L 79.50782 281.285765 
L 80.433029 261.818443 
L 81.358238 234.816893 
L 82.746053 183.00776 
L 84.596472 111.216365 
L 85.521681 83.483273 
L 86.44689 64.820464 
L 86.909495 59.072582 
L 87.3721 55.581664 
L 87.834705 54.144 
L 88.297309 54.508189 
L 88.759914 56.406046 
L 89.222519 59.57966 
L 90.147728 68.885526 
L 91.072938 81.109383 
L 92.460752 103.35094 
L 94.773776 146.149325 
L 96.624195 179.334152 
L 98.012009 200.38326 
L 98.937218 211.905688 
L 99.862428 221.404227 
L 100.787637 229.21909 
L 102.175451 238.954055 
L 104.02587 250.348073 
L 105.413684 257.942965 
L 106.338894 262.213672 
L 107.264103 265.674429 
L 108.189313 268.35882 
L 109.577127 271.439853 
L 111.427546 275.321698 
L 112.81536 278.698133 
L 114.665779 283.783564 
L 117.441407 291.604938 
L 118.366617 293.628307 
L 119.291826 295.142796 
L 120.217036 296.203058 
L 121.60485 297.295338 
L 124.843083 299.397022 
L 125.768293 299.808583 
L 126.693502 300.031635 
L 127.618712 300.063336 
L 129.46913 299.799112 
L 130.856945 299.722977 
L 131.782154 299.90368 
L 132.707364 300.314237 
L 133.632573 300.946888 
L 135.020387 302.232968 
L 138.25862 305.547622 
L 139.18383 306.153404 
L 140.109039 306.496819 
L 141.034249 306.601604 
L 142.422063 306.48258 
L 144.272482 306.324133 
L 145.660296 306.466972 
L 149.361134 307.147694 
L 150.748948 307.105314 
L 155.8376 306.663607 
L 158.150624 306.780175 
L 160.926252 307.205377 
L 163.239276 307.486069 
L 166.014904 307.576692 
L 166.014904 307.576692 
" style="fill:none;stroke:#2ca02c;stroke-linecap:round;stroke-width:1.5;"/>
   </g>
   <g id="line2d_15">
    <path clip-path="url(#p8c31fa43b2)" d="M 73.934757 307.353074 
L 74.575021 307.100187 
L 75.215285 306.615917 
L 75.855548 305.733156 
L 76.495812 304.201302 
L 77.136075 301.670695 
L 77.776339 297.690819 
L 78.416603 291.732332 
L 79.056866 283.240925 
L 79.69713 271.724635 
L 80.337393 256.865893 
L 81.61792 217.396486 
L 84.819238 103.455571 
L 85.459502 88.419961 
L 86.099766 78.169068 
L 86.740029 72.777608 
L 87.380293 71.858758 
L 88.020556 74.677195 
L 88.66082 80.30383 
L 89.941347 96.242647 
L 92.502401 130.398269 
L 97.62451 194.056053 
L 98.905037 206.326425 
L 100.185564 215.528529 
L 102.106355 226.193858 
L 104.027146 237.132107 
L 105.947937 248.417158 
L 107.228464 254.731339 
L 108.508991 259.778346 
L 114.271363 279.732608 
L 115.55189 282.884346 
L 116.832418 285.230026 
L 118.753208 288.329922 
L 120.033736 290.830453 
L 122.59479 296.291433 
L 123.235053 297.328784 
L 123.875317 298.135316 
L 124.515581 298.724323 
L 125.796108 299.472418 
L 127.076635 300.145151 
L 128.357162 301.149665 
L 131.55848 304.157694 
L 132.839007 304.778916 
L 134.119534 304.979122 
L 135.400062 304.899214 
L 137.961116 304.568783 
L 139.241643 304.617221 
L 141.162434 305.015593 
L 143.083225 305.43209 
L 145.644279 305.711479 
L 152.046915 306.313184 
L 157.809287 307.479619 
L 161.010605 307.578854 
L 184.700358 307.573871 
L 187.901676 307.448101 
L 193.664048 306.994678 
L 196.865366 307.359797 
L 199.42642 307.542602 
L 201.347211 307.577167 
L 201.347211 307.577167 
" style="fill:none;stroke:#ff7f0e;stroke-linecap:round;stroke-width:1.5;"/>
   </g>
   <g id="line2d_16">
    <path clip-path="url(#p8c31fa43b2)" d="M 73.832727 307.429894 
L 74.720857 307.145386 
L 75.164922 306.868612 
L 75.608987 306.442939 
L 76.053052 305.80384 
L 76.497117 304.867094 
L 76.941181 303.526622 
L 77.385246 301.653788 
L 77.829311 299.098903 
L 78.273376 295.695602 
L 78.717441 291.268565 
L 79.605571 278.667172 
L 80.4937 260.204399 
L 81.38183 235.569771 
L 82.714025 189.321923 
L 84.934349 109.758379 
L 85.822479 86.32734 
L 86.710609 71.07314 
L 87.154674 66.74455 
L 87.598738 64.576144 
L 88.042803 64.448934 
L 88.486868 66.185231 
L 88.930933 69.56197 
L 89.819063 80.203886 
L 91.151258 101.870439 
L 93.371582 139.160342 
L 94.703777 157.890948 
L 96.035971 173.772222 
L 97.368166 187.46111 
L 99.144425 203.051566 
L 100.920685 216.440267 
L 103.141009 231.293623 
L 105.361334 244.542557 
L 109.357917 266.646972 
L 110.690112 273.14938 
L 112.022307 278.576731 
L 113.354501 282.789468 
L 114.686696 285.95239 
L 116.018891 288.348693 
L 117.351085 290.155133 
L 118.239215 291.057293 
L 119.57141 292.03505 
L 121.791734 293.495965 
L 122.679864 294.351284 
L 124.012058 295.990714 
L 125.788318 298.26445 
L 126.676448 299.160495 
L 127.564577 299.837294 
L 128.896772 300.569638 
L 132.449291 302.201588 
L 133.337421 302.410758 
L 134.225551 302.455331 
L 136.00181 302.237195 
L 137.334005 302.172464 
L 138.222135 302.327567 
L 139.110264 302.662779 
L 140.886524 303.666512 
L 142.662783 304.608697 
L 144.439043 305.226171 
L 147.547497 305.983601 
L 149.323756 306.22857 
L 154.20847 306.571115 
L 159.093184 307.466567 
L 161.757573 307.572382 
L 162.201638 307.576726 
L 162.201638 307.576726 
" style="fill:none;stroke:#1f77b4;stroke-linecap:round;stroke-width:1.5;"/>
   </g>
   <g id="line2d_17">
    <path clip-path="url(#p8c31fa43b2)" d="M 76.283303 307.577513 
L 81.787656 307.467585 
L 84.539832 307.212225 
L 86.374617 306.850779 
L 88.209401 306.236563 
L 90.044185 305.2661 
L 91.87897 303.833955 
L 93.713754 301.849247 
L 95.548538 299.247395 
L 97.383323 295.98767 
L 99.218107 292.032815 
L 101.052891 287.320874 
L 102.887676 281.754513 
L 104.72246 275.235693 
L 106.557244 267.752482 
L 109.309421 255.18191 
L 112.061597 242.521096 
L 113.896381 235.141015 
L 114.813773 231.988923 
L 115.731166 229.257015 
L 116.648558 226.966212 
L 117.56595 225.117404 
L 118.483342 223.693737 
L 119.400734 222.664187 
L 120.318126 221.987791 
L 121.235519 221.617993 
L 122.152911 221.506677 
L 123.070303 221.60763 
L 123.987695 221.879301 
L 125.822479 222.803179 
L 127.657264 224.095592 
L 129.492048 225.693094 
L 131.326832 227.60354 
L 133.161617 229.835442 
L 135.913793 233.679364 
L 141.418146 242.069433 
L 145.087714 247.988604 
L 147.839891 252.85628 
L 151.50946 259.917394 
L 155.179028 267.046112 
L 157.931205 271.871443 
L 159.765989 274.694033 
L 161.600773 277.212093 
L 164.35295 280.593213 
L 176.279048 294.46992 
L 178.113832 296.176623 
L 179.948616 297.566178 
L 181.783401 298.615234 
L 183.618185 299.353125 
L 186.370361 300.07215 
L 190.03993 300.9342 
L 192.792106 301.84045 
L 200.131244 304.563716 
L 202.88342 305.225444 
L 205.635596 305.611685 
L 208.387773 305.767826 
L 213.892126 305.753751 
L 218.479087 305.833958 
L 222.148655 306.114752 
L 233.157361 307.299804 
L 236.82693 307.334685 
L 245.083459 307.306405 
L 257.926949 307.578311 
L 258.844341 307.580493 
L 258.844341 307.580493 
" style="fill:none;stroke:#2ca02c;stroke-linecap:round;stroke-width:1.5;"/>
   </g>
   <g id="line2d_18">
    <path clip-path="url(#p8c31fa43b2)" d="M 73.914753 307.579843 
L 81.20755 307.451596 
L 83.942349 307.23668 
L 86.677147 306.774517 
L 88.500346 306.226322 
L 90.323545 305.37644 
L 92.146744 304.104503 
L 93.058344 303.27019 
L 93.969944 302.28362 
L 95.793143 299.80608 
L 97.616342 296.608756 
L 99.439541 292.685868 
L 101.26274 288.078803 
L 103.085939 282.841603 
L 104.909138 276.99895 
L 106.732337 270.532244 
L 108.555536 263.425163 
L 111.290335 251.790768 
L 114.936733 236.302898 
L 116.759932 229.686429 
L 118.583131 224.34852 
L 119.494731 222.207366 
L 120.40633 220.414318 
L 121.31793 218.951823 
L 122.22953 217.794673 
L 123.141129 216.913814 
L 124.052729 216.279913 
L 124.964328 215.866352 
L 125.875928 215.651462 
L 126.787527 215.619941 
L 127.699127 215.763509 
L 128.610726 216.080858 
L 129.522326 216.576948 
L 130.433925 217.261679 
L 131.345525 218.14798 
L 132.257125 219.249417 
L 133.168724 220.577516 
L 134.080324 222.139133 
L 135.903523 225.954423 
L 137.726722 230.593474 
L 140.461521 238.584865 
L 145.019518 252.209743 
L 146.842717 256.996653 
L 148.665916 261.090737 
L 150.489116 264.35171 
L 151.400715 265.649094 
L 152.312315 266.727836 
L 153.223914 267.601329 
L 154.135514 268.292307 
L 155.958713 269.263362 
L 158.693511 270.390479 
L 159.605111 270.885611 
L 160.516711 271.519292 
L 161.42831 272.325704 
L 162.33991 273.325757 
L 163.251509 274.525334 
L 165.074708 277.471826 
L 167.809507 282.770726 
L 170.544306 288.131991 
L 172.367505 291.304003 
L 174.190704 294.008106 
L 176.013903 296.215808 
L 177.837102 297.941289 
L 179.660301 299.221985 
L 181.4835 300.121257 
L 183.306699 300.734907 
L 186.953097 301.57586 
L 196.069093 303.494804 
L 201.53869 304.238197 
L 205.185088 305.048879 
L 208.831487 305.845283 
L 211.566285 306.228315 
L 220.682281 307.038071 
L 224.328679 307.220053 
L 227.975077 307.134719 
L 236.179473 306.758043 
L 239.825871 306.903932 
L 249.853466 307.524616 
L 255.323064 307.579824 
L 255.323064 307.579824 
" style="fill:none;stroke:#ff7f0e;stroke-linecap:round;stroke-width:1.5;"/>
   </g>
   <g id="line2d_19">
    <path clip-path="url(#p8c31fa43b2)" d="M 77.733759 307.573019 
L 82.38087 307.449041 
L 84.704425 307.201969 
L 86.253461 306.874412 
L 87.802498 306.338467 
L 89.351535 305.511633 
L 90.900572 304.304425 
L 92.449608 302.629354 
L 93.998645 300.410451 
L 95.547682 297.591562 
L 97.096719 294.142797 
L 98.645755 290.065692 
L 100.194792 285.39795 
L 102.518347 277.470703 
L 106.390939 262.958929 
L 109.489013 251.710852 
L 111.812568 244.171488 
L 114.136123 237.532821 
L 116.459678 231.709348 
L 118.008715 228.257557 
L 119.557751 225.20779 
L 121.106788 222.684172 
L 121.881306 221.67298 
L 122.655825 220.860118 
L 123.430343 220.267804 
L 124.204862 219.914951 
L 124.97938 219.815271 
L 125.753898 219.975641 
L 126.528417 220.394921 
L 127.302935 221.063381 
L 128.077453 221.962855 
L 129.62649 224.346042 
L 131.175527 227.280466 
L 138.146192 241.322956 
L 142.793302 249.84291 
L 145.116858 253.813669 
L 147.440413 257.337466 
L 149.763968 260.352282 
L 156.734633 268.710469 
L 158.28367 271.045453 
L 160.607225 275.005541 
L 164.479817 281.828247 
L 166.028853 284.160486 
L 167.57789 286.09838 
L 169.126927 287.640375 
L 170.675964 288.861431 
L 172.999519 290.344516 
L 186.940849 298.425404 
L 190.038923 299.913449 
L 193.911515 301.499613 
L 200.107662 303.78631 
L 203.205735 304.711243 
L 205.52929 305.177132 
L 207.852845 305.435184 
L 215.598029 305.996858 
L 225.666768 307.408058 
L 229.53936 307.549602 
L 231.862915 307.573653 
L 231.862915 307.573653 
" style="fill:none;stroke:#1f77b4;stroke-linecap:round;stroke-width:1.5;"/>
   </g>
   <g id="line2d_20">
    <path clip-path="url(#p8c31fa43b2)" d="M 93.698883 307.577838 
L 101.769116 307.447489 
L 105.227787 307.205861 
L 107.533568 306.902117 
L 109.839349 306.429957 
L 112.14513 305.736653 
L 114.450911 304.765702 
L 116.756691 303.45881 
L 119.062472 301.760092 
L 121.368253 299.623109 
L 123.674034 297.018965 
L 125.979815 293.943316 
L 128.285596 290.422918 
L 130.591376 286.524441 
L 135.202938 278.10761 
L 138.661609 271.957902 
L 140.96739 268.236459 
L 143.273171 264.884033 
L 145.578952 261.856143 
L 149.037623 257.752138 
L 152.496294 254.100045 
L 154.802075 251.992646 
L 157.107856 250.202937 
L 159.413637 248.711394 
L 162.872308 246.864913 
L 166.330979 245.355227 
L 168.63676 244.655047 
L 169.789651 244.461745 
L 170.942541 244.406045 
L 172.095432 244.509466 
L 173.248322 244.787931 
L 174.401212 245.250125 
L 175.554103 245.896784 
L 176.706993 246.720955 
L 179.012774 248.842999 
L 181.318555 251.463619 
L 183.624336 254.420335 
L 187.083007 259.226759 
L 195.15324 270.715264 
L 197.459021 273.479454 
L 199.764802 275.759854 
L 202.070582 277.572613 
L 205.529254 279.803862 
L 207.835035 281.33872 
L 210.140815 283.142775 
L 212.446596 285.254178 
L 219.363939 291.987958 
L 221.66972 293.813264 
L 223.9755 295.322745 
L 226.281281 296.556932 
L 228.587062 297.576352 
L 232.045733 298.816722 
L 236.657295 300.127378 
L 252.797761 304.140551 
L 256.256432 304.755897 
L 260.867994 305.306247 
L 271.244008 306.17059 
L 283.925802 307.043077 
L 290.843145 307.290063 
L 298.913378 307.320623 
L 308.136501 307.42283 
L 320.818296 307.577287 
L 323.124076 307.581301 
L 323.124076 307.581301 
" style="fill:none;stroke:#2ca02c;stroke-linecap:round;stroke-width:1.5;"/>
   </g>
   <g id="line2d_21">
    <path clip-path="url(#p8c31fa43b2)" d="M 95.566162 307.578918 
L 103.259524 307.471712 
L 107.655731 307.182847 
L 110.952887 306.730223 
L 114.250042 306.000359 
L 116.448146 305.329283 
L 118.646249 304.481348 
L 120.844353 303.41729 
L 123.042456 302.082606 
L 125.24056 300.410497 
L 127.438664 298.328589 
L 129.636767 295.767673 
L 131.834871 292.672428 
L 134.032974 289.01586 
L 136.231078 284.816973 
L 138.429182 280.154296 
L 141.726337 272.593074 
L 149.419699 254.734576 
L 152.716855 247.742663 
L 154.914958 243.650433 
L 156.01401 241.865223 
L 157.113062 240.293716 
L 158.212114 238.959099 
L 159.311166 237.875808 
L 160.410217 237.047836 
L 161.509269 236.468388 
L 162.608321 236.120928 
L 163.707373 235.981399 
L 164.806425 236.021236 
L 165.905476 236.210673 
L 168.10358 236.931461 
L 170.301684 237.983959 
L 172.499787 239.312642 
L 174.697891 240.954533 
L 176.895994 242.995344 
L 179.094098 245.515532 
L 181.292201 248.540073 
L 183.490305 252.002361 
L 191.183668 264.819587 
L 193.381771 267.95961 
L 196.678927 272.141275 
L 199.976082 275.889623 
L 203.273237 279.225843 
L 205.471341 281.157474 
L 208.768496 283.645852 
L 214.263755 287.565608 
L 217.560911 290.305775 
L 224.155221 296.119536 
L 226.353325 297.719641 
L 228.551429 298.995309 
L 230.749532 299.936037 
L 232.947636 300.596322 
L 237.343843 301.512435 
L 240.640998 302.263682 
L 249.433413 304.54888 
L 253.82962 305.216346 
L 265.91919 306.735957 
L 269.216345 306.876614 
L 273.612552 306.81884 
L 280.206863 306.703116 
L 288.999277 306.902328 
L 298.890743 307.269901 
L 306.584106 307.525826 
L 314.277468 307.580836 
L 314.277468 307.580836 
" style="fill:none;stroke:#ff7f0e;stroke-linecap:round;stroke-width:1.5;"/>
   </g>
   <g id="line2d_22">
    <path clip-path="url(#p8c31fa43b2)" d="M 88.901262 307.58126 
L 100.449123 307.471634 
L 105.068267 307.27109 
L 108.532625 306.933263 
L 110.842197 306.521636 
L 113.151769 305.864092 
L 115.461341 304.868883 
L 117.770913 303.467154 
L 120.080485 301.643965 
L 122.390057 299.453483 
L 125.854416 295.718729 
L 130.47356 290.362832 
L 132.783132 287.484109 
L 135.092704 284.296197 
L 137.402276 280.646892 
L 139.711848 276.462956 
L 142.02142 271.805412 
L 148.950136 257.215723 
L 151.259708 252.929615 
L 153.569281 249.145415 
L 155.878853 245.897452 
L 158.188425 243.230819 
L 159.343211 242.141589 
L 160.497997 241.234051 
L 161.652783 240.523411 
L 162.807569 240.0235 
L 163.962355 239.744944 
L 165.117141 239.693643 
L 166.271927 239.869713 
L 167.426713 240.266975 
L 168.581499 240.872954 
L 169.736285 241.669285 
L 172.045857 243.734674 
L 174.355429 246.231477 
L 180.12936 252.748209 
L 182.438932 255.028519 
L 187.058076 259.101171 
L 189.367648 261.211687 
L 191.67722 263.590559 
L 193.986792 266.3185 
L 196.296364 269.375485 
L 204.379866 280.691124 
L 206.689438 283.485345 
L 208.999011 285.947172 
L 211.308583 288.081182 
L 213.618155 289.902773 
L 215.927727 291.421614 
L 218.237299 292.650097 
L 220.546871 293.625545 
L 224.011229 294.784092 
L 230.939945 297.007072 
L 236.713876 298.876915 
L 242.487806 300.421615 
L 257.500024 304.289416 
L 263.273954 305.322305 
L 269.047885 306.144253 
L 273.667029 306.580504 
L 278.286173 306.805612 
L 286.369675 306.911998 
L 296.76275 307.049864 
L 314.08454 307.565239 
L 318.703684 307.580839 
L 318.703684 307.580839 
" style="fill:none;stroke:#1f77b4;stroke-linecap:round;stroke-width:1.5;"/>
   </g>
   <g id="line2d_23">
    <path clip-path="url(#p8c31fa43b2)" d="M 112.031684 307.580155 
L 122.454397 307.483723 
L 127.665754 307.25847 
L 131.574271 306.913885 
L 135.482789 306.34688 
L 139.391306 305.480498 
L 141.996985 304.689797 
L 144.602663 303.689707 
L 147.208341 302.443574 
L 149.81402 300.915061 
L 152.419698 299.0749 
L 155.025376 296.912679 
L 157.631055 294.451329 
L 161.539572 290.353054 
L 168.053768 283.343181 
L 171.962285 279.453192 
L 179.77932 271.829652 
L 183.687838 267.601754 
L 188.899194 261.886038 
L 191.504873 259.427882 
L 192.807712 258.392519 
L 194.110551 257.513329 
L 195.41339 256.8031 
L 196.716229 256.267979 
L 198.019069 255.907667 
L 199.321908 255.716147 
L 200.624747 255.682744 
L 201.927586 255.793314 
L 204.533264 256.379016 
L 207.138943 257.328561 
L 211.04746 259.111085 
L 216.258817 261.47991 
L 220.167334 262.929509 
L 230.590048 266.416672 
L 233.195726 267.587244 
L 235.801404 268.949514 
L 238.407083 270.512461 
L 241.012761 272.28671 
L 243.618439 274.280062 
L 247.526957 277.649049 
L 260.555348 289.517214 
L 264.463866 292.475522 
L 267.069544 294.199186 
L 269.675222 295.707932 
L 272.280901 297.000026 
L 274.886579 298.088414 
L 278.795097 299.398488 
L 282.703614 300.430548 
L 290.520649 302.152142 
L 299.640523 303.985577 
L 304.85188 304.773062 
L 312.668915 305.634025 
L 321.788789 306.469675 
L 327.000146 306.688115 
L 346.542733 307.039937 
L 356.965446 307.455029 
L 366.085321 307.569909 
L 371.296677 307.581479 
L 371.296677 307.581479 
" style="fill:none;stroke:#2ca02c;stroke-linecap:round;stroke-width:1.5;"/>
   </g>
   <g id="line2d_24">
    <path clip-path="url(#p8c31fa43b2)" d="M 112.11717 307.581366 
L 125.068581 307.461391 
L 130.824764 307.186868 
L 135.141902 306.765484 
L 139.459039 306.069663 
L 142.33713 305.410549 
L 145.215222 304.560103 
L 148.093313 303.477492 
L 150.971405 302.107137 
L 153.849496 300.380426 
L 156.727588 298.228248 
L 159.605679 295.603797 
L 162.483771 292.508149 
L 165.361862 289.006454 
L 169.678999 283.278406 
L 175.435182 275.603222 
L 178.313274 272.064125 
L 181.191365 268.845984 
L 184.069457 265.99175 
L 186.947548 263.499598 
L 189.82564 261.320988 
L 192.703731 259.383408 
L 195.581823 257.642858 
L 198.459914 256.136319 
L 201.338006 254.987541 
L 202.777052 254.595859 
L 204.216097 254.346997 
L 205.655143 254.248831 
L 207.094189 254.301116 
L 208.533235 254.495627 
L 211.411326 255.249184 
L 214.289418 256.367633 
L 217.167509 257.745414 
L 220.045601 259.3617 
L 222.923692 261.250123 
L 225.801783 263.41937 
L 231.557966 268.225414 
L 235.875104 271.676357 
L 240.192241 274.795052 
L 248.826515 280.90871 
L 256.021744 286.04831 
L 260.338881 288.918801 
L 263.216973 290.662102 
L 266.095064 292.202516 
L 268.973156 293.507071 
L 273.290293 295.10042 
L 280.485522 297.58069 
L 294.875979 302.955417 
L 299.193116 304.136261 
L 303.510254 305.00716 
L 307.827391 305.578033 
L 313.583574 306.032591 
L 335.16926 307.331174 
L 342.364489 307.404221 
L 365.389221 307.233417 
L 398.487273 307.581685 
L 398.487273 307.581685 
" style="fill:none;stroke:#ff7f0e;stroke-linecap:round;stroke-width:1.5;"/>
   </g>
   <g id="line2d_25">
    <path clip-path="url(#p8c31fa43b2)" d="M 104.129871 307.581582 
L 118.871358 307.459854 
L 126.242101 307.163086 
L 132.138695 306.692918 
L 136.561141 306.158832 
L 140.983587 305.426395 
L 143.931885 304.77893 
L 146.880182 303.929353 
L 149.828479 302.778183 
L 152.776777 301.212354 
L 154.250925 300.242756 
L 155.725074 299.137536 
L 158.673371 296.511294 
L 161.621669 293.361784 
L 164.569966 289.785104 
L 168.992412 283.942993 
L 174.889007 276.145666 
L 177.837304 272.584422 
L 180.785601 269.385674 
L 183.733899 266.582453 
L 186.682196 264.141702 
L 189.630493 261.976567 
L 194.052939 259.0324 
L 198.475385 256.376345 
L 201.423683 254.927998 
L 202.897831 254.370769 
L 204.37198 253.958601 
L 205.846129 253.713349 
L 207.320277 253.65183 
L 208.794426 253.784736 
L 210.268575 254.116291 
L 211.742723 254.64448 
L 213.216872 255.361636 
L 214.691021 256.255114 
L 216.165169 257.307895 
L 219.113467 259.804049 
L 223.535913 264.115337 
L 227.958359 268.382441 
L 230.906656 270.869274 
L 233.854953 272.972849 
L 236.803251 274.739918 
L 242.699845 277.809174 
L 247.122291 280.235871 
L 251.544737 282.969367 
L 261.863778 289.616747 
L 266.286224 292.193991 
L 270.70867 294.517942 
L 273.656967 295.874509 
L 276.605264 297.0316 
L 279.553562 297.976293 
L 283.976008 299.080456 
L 291.346751 300.784937 
L 301.665792 303.514659 
L 304.614089 304.046537 
L 307.562386 304.393189 
L 311.984832 304.659121 
L 320.829724 305.058509 
L 328.200468 305.65941 
L 344.416103 307.072413 
L 350.312698 307.366056 
L 357.683441 307.479017 
L 384.218117 307.519186 
L 397.485455 307.5818 
L 397.485455 307.5818 
" style="fill:none;stroke:#1f77b4;stroke-linecap:round;stroke-width:1.5;"/>
   </g>
   <g id="patch_3">
    <path d="M 57.6 307.584 
L 57.6 41.472 
" style="fill:none;stroke:#ffffff;stroke-linecap:square;stroke-linejoin:miter;stroke-width:0.8;"/>
   </g>
   <g id="patch_4">
    <path d="M 414.72 307.584 
L 414.72 41.472 
" style="fill:none;stroke:#ffffff;stroke-linecap:square;stroke-linejoin:miter;stroke-width:0.8;"/>
   </g>
   <g id="patch_5">
    <path d="M 57.6 307.584 
L 414.72 307.584 
" style="fill:none;stroke:#ffffff;stroke-linecap:square;stroke-linejoin:miter;stroke-width:0.8;"/>
   </g>
   <g id="patch_6">
    <path d="M 57.6 41.472 
L 414.72 41.472 
" style="fill:none;stroke:#ffffff;stroke-linecap:square;stroke-linejoin:miter;stroke-width:0.8;"/>
   </g>
   <g id="text_15">
    <!-- Density plots of PG(h, 0) using each method for h $\in$ {1,4,7,10}. -->
    <g style="fill:#262626;" transform="translate(41.64 35.472)scale(0.12 -0.12)">
     <defs>
      <path id="DejaVuSans-32"/>
      <path d="M 18.109375 8.203125 
L 18.109375 -20.796875 
L 9.078125 -20.796875 
L 9.078125 54.6875 
L 18.109375 54.6875 
L 18.109375 46.390625 
Q 20.953125 51.265625 25.265625 53.625 
Q 29.59375 56 35.59375 56 
Q 45.5625 56 51.78125 48.09375 
Q 58.015625 40.1875 58.015625 27.296875 
Q 58.015625 14.40625 51.78125 6.484375 
Q 45.5625 -1.421875 35.59375 -1.421875 
Q 29.59375 -1.421875 25.265625 0.953125 
Q 20.953125 3.328125 18.109375 8.203125 
z
M 48.6875 27.296875 
Q 48.6875 37.203125 44.609375 42.84375 
Q 40.53125 48.484375 33.40625 48.484375 
Q 26.265625 48.484375 22.1875 42.84375 
Q 18.109375 37.203125 18.109375 27.296875 
Q 18.109375 17.390625 22.1875 11.75 
Q 26.265625 6.109375 33.40625 6.109375 
Q 40.53125 6.109375 44.609375 11.75 
Q 48.6875 17.390625 48.6875 27.296875 
z
" id="DejaVuSans-112"/>
      <path d="M 9.421875 75.984375 
L 18.40625 75.984375 
L 18.40625 0 
L 9.421875 0 
z
" id="DejaVuSans-108"/>
      <path d="M 30.609375 48.390625 
Q 23.390625 48.390625 19.1875 42.75 
Q 14.984375 37.109375 14.984375 27.296875 
Q 14.984375 17.484375 19.15625 11.84375 
Q 23.34375 6.203125 30.609375 6.203125 
Q 37.796875 6.203125 41.984375 11.859375 
Q 46.1875 17.53125 46.1875 27.296875 
Q 46.1875 37.015625 41.984375 42.703125 
Q 37.796875 48.390625 30.609375 48.390625 
z
M 30.609375 56 
Q 42.328125 56 49.015625 48.375 
Q 55.71875 40.765625 55.71875 27.296875 
Q 55.71875 13.875 49.015625 6.21875 
Q 42.328125 -1.421875 30.609375 -1.421875 
Q 18.84375 -1.421875 12.171875 6.21875 
Q 5.515625 13.875 5.515625 27.296875 
Q 5.515625 40.765625 12.171875 48.375 
Q 18.84375 56 30.609375 56 
z
" id="DejaVuSans-111"/>
      <path d="M 37.109375 75.984375 
L 37.109375 68.5 
L 28.515625 68.5 
Q 23.6875 68.5 21.796875 66.546875 
Q 19.921875 64.59375 19.921875 59.515625 
L 19.921875 54.6875 
L 34.71875 54.6875 
L 34.71875 47.703125 
L 19.921875 47.703125 
L 19.921875 0 
L 10.890625 0 
L 10.890625 47.703125 
L 2.296875 47.703125 
L 2.296875 54.6875 
L 10.890625 54.6875 
L 10.890625 58.5 
Q 10.890625 67.625 15.140625 71.796875 
Q 19.390625 75.984375 28.609375 75.984375 
z
" id="DejaVuSans-102"/>
      <path d="M 19.671875 64.796875 
L 19.671875 37.40625 
L 32.078125 37.40625 
Q 38.96875 37.40625 42.71875 40.96875 
Q 46.484375 44.53125 46.484375 51.125 
Q 46.484375 57.671875 42.71875 61.234375 
Q 38.96875 64.796875 32.078125 64.796875 
z
M 9.8125 72.90625 
L 32.078125 72.90625 
Q 44.34375 72.90625 50.609375 67.359375 
Q 56.890625 61.8125 56.890625 51.125 
Q 56.890625 40.328125 50.609375 34.8125 
Q 44.34375 29.296875 32.078125 29.296875 
L 19.671875 29.296875 
L 19.671875 0 
L 9.8125 0 
z
" id="DejaVuSans-80"/>
      <path d="M 59.515625 10.40625 
L 59.515625 29.984375 
L 43.40625 29.984375 
L 43.40625 38.09375 
L 69.28125 38.09375 
L 69.28125 6.78125 
Q 63.578125 2.734375 56.6875 0.65625 
Q 49.8125 -1.421875 42 -1.421875 
Q 24.90625 -1.421875 15.25 8.5625 
Q 5.609375 18.5625 5.609375 36.375 
Q 5.609375 54.25 15.25 64.234375 
Q 24.90625 74.21875 42 74.21875 
Q 49.125 74.21875 55.546875 72.453125 
Q 61.96875 70.703125 67.390625 67.28125 
L 67.390625 56.78125 
Q 61.921875 61.421875 55.765625 63.765625 
Q 49.609375 66.109375 42.828125 66.109375 
Q 29.4375 66.109375 22.71875 58.640625 
Q 16.015625 51.171875 16.015625 36.375 
Q 16.015625 21.625 22.71875 14.15625 
Q 29.4375 6.6875 42.828125 6.6875 
Q 48.046875 6.6875 52.140625 7.59375 
Q 56.25 8.5 59.515625 10.40625 
z
" id="DejaVuSans-71"/>
      <path d="M 31 75.875 
Q 24.46875 64.65625 21.28125 53.65625 
Q 18.109375 42.671875 18.109375 31.390625 
Q 18.109375 20.125 21.3125 9.0625 
Q 24.515625 -2 31 -13.1875 
L 23.1875 -13.1875 
Q 15.875 -1.703125 12.234375 9.375 
Q 8.59375 20.453125 8.59375 31.390625 
Q 8.59375 42.28125 12.203125 53.3125 
Q 15.828125 64.359375 23.1875 75.875 
z
" id="DejaVuSans-40"/>
      <path d="M 54.890625 33.015625 
L 54.890625 0 
L 45.90625 0 
L 45.90625 32.71875 
Q 45.90625 40.484375 42.875 44.328125 
Q 39.84375 48.1875 33.796875 48.1875 
Q 26.515625 48.1875 22.3125 43.546875 
Q 18.109375 38.921875 18.109375 30.90625 
L 18.109375 0 
L 9.078125 0 
L 9.078125 75.984375 
L 18.109375 75.984375 
L 18.109375 46.1875 
Q 21.34375 51.125 25.703125 53.5625 
Q 30.078125 56 35.796875 56 
Q 45.21875 56 50.046875 50.171875 
Q 54.890625 44.34375 54.890625 33.015625 
z
" id="DejaVuSans-104"/>
      <path d="M 11.71875 12.40625 
L 22.015625 12.40625 
L 22.015625 4 
L 14.015625 -11.625 
L 7.71875 -11.625 
L 11.71875 4 
z
" id="DejaVuSans-44"/>
      <path d="M 8.015625 75.875 
L 15.828125 75.875 
Q 23.140625 64.359375 26.78125 53.3125 
Q 30.421875 42.28125 30.421875 31.390625 
Q 30.421875 20.453125 26.78125 9.375 
Q 23.140625 -1.703125 15.828125 -13.1875 
L 8.015625 -13.1875 
Q 14.5 -2 17.703125 9.0625 
Q 20.90625 20.125 20.90625 31.390625 
Q 20.90625 42.671875 17.703125 53.65625 
Q 14.5 64.65625 8.015625 75.875 
z
" id="DejaVuSans-41"/>
      <path d="M 8.5 21.578125 
L 8.5 54.6875 
L 17.484375 54.6875 
L 17.484375 21.921875 
Q 17.484375 14.15625 20.5 10.265625 
Q 23.53125 6.390625 29.59375 6.390625 
Q 36.859375 6.390625 41.078125 11.03125 
Q 45.3125 15.671875 45.3125 23.6875 
L 45.3125 54.6875 
L 54.296875 54.6875 
L 54.296875 0 
L 45.3125 0 
L 45.3125 8.40625 
Q 42.046875 3.421875 37.71875 1 
Q 33.40625 -1.421875 27.6875 -1.421875 
Q 18.265625 -1.421875 13.375 4.4375 
Q 8.5 10.296875 8.5 21.578125 
z
M 31.109375 56 
z
" id="DejaVuSans-117"/>
      <path d="M 45.40625 27.984375 
Q 45.40625 37.75 41.375 43.109375 
Q 37.359375 48.484375 30.078125 48.484375 
Q 22.859375 48.484375 18.828125 43.109375 
Q 14.796875 37.75 14.796875 27.984375 
Q 14.796875 18.265625 18.828125 12.890625 
Q 22.859375 7.515625 30.078125 7.515625 
Q 37.359375 7.515625 41.375 12.890625 
Q 45.40625 18.265625 45.40625 27.984375 
z
M 54.390625 6.78125 
Q 54.390625 -7.171875 48.1875 -13.984375 
Q 42 -20.796875 29.203125 -20.796875 
Q 24.46875 -20.796875 20.265625 -20.09375 
Q 16.0625 -19.390625 12.109375 -17.921875 
L 12.109375 -9.1875 
Q 16.0625 -11.328125 19.921875 -12.34375 
Q 23.78125 -13.375 27.78125 -13.375 
Q 36.625 -13.375 41.015625 -8.765625 
Q 45.40625 -4.15625 45.40625 5.171875 
L 45.40625 9.625 
Q 42.625 4.78125 38.28125 2.390625 
Q 33.9375 0 27.875 0 
Q 17.828125 0 11.671875 7.65625 
Q 5.515625 15.328125 5.515625 27.984375 
Q 5.515625 40.671875 11.671875 48.328125 
Q 17.828125 56 27.875 56 
Q 33.9375 56 38.28125 53.609375 
Q 42.625 51.21875 45.40625 46.390625 
L 45.40625 54.6875 
L 54.390625 54.6875 
z
" id="DejaVuSans-103"/>
      <path d="M 34.28125 27.484375 
Q 23.390625 27.484375 19.1875 25 
Q 14.984375 22.515625 14.984375 16.5 
Q 14.984375 11.71875 18.140625 8.90625 
Q 21.296875 6.109375 26.703125 6.109375 
Q 34.1875 6.109375 38.703125 11.40625 
Q 43.21875 16.703125 43.21875 25.484375 
L 43.21875 27.484375 
z
M 52.203125 31.203125 
L 52.203125 0 
L 43.21875 0 
L 43.21875 8.296875 
Q 40.140625 3.328125 35.546875 0.953125 
Q 30.953125 -1.421875 24.3125 -1.421875 
Q 15.921875 -1.421875 10.953125 3.296875 
Q 6 8.015625 6 15.921875 
Q 6 25.140625 12.171875 29.828125 
Q 18.359375 34.515625 30.609375 34.515625 
L 43.21875 34.515625 
L 43.21875 35.40625 
Q 43.21875 41.609375 39.140625 45 
Q 35.0625 48.390625 27.6875 48.390625 
Q 23 48.390625 18.546875 47.265625 
Q 14.109375 46.140625 10.015625 43.890625 
L 10.015625 52.203125 
Q 14.9375 54.109375 19.578125 55.046875 
Q 24.21875 56 28.609375 56 
Q 40.484375 56 46.34375 49.84375 
Q 52.203125 43.703125 52.203125 31.203125 
z
" id="DejaVuSans-97"/>
      <path d="M 48.78125 52.59375 
L 48.78125 44.1875 
Q 44.96875 46.296875 41.140625 47.34375 
Q 37.3125 48.390625 33.40625 48.390625 
Q 24.65625 48.390625 19.8125 42.84375 
Q 14.984375 37.3125 14.984375 27.296875 
Q 14.984375 17.28125 19.8125 11.734375 
Q 24.65625 6.203125 33.40625 6.203125 
Q 37.3125 6.203125 41.140625 7.25 
Q 44.96875 8.296875 48.78125 10.40625 
L 48.78125 2.09375 
Q 45.015625 0.34375 40.984375 -0.53125 
Q 36.96875 -1.421875 32.421875 -1.421875 
Q 20.0625 -1.421875 12.78125 6.34375 
Q 5.515625 14.109375 5.515625 27.296875 
Q 5.515625 40.671875 12.859375 48.328125 
Q 20.21875 56 33.015625 56 
Q 37.15625 56 41.109375 55.140625 
Q 45.0625 54.296875 48.78125 52.59375 
z
" id="DejaVuSans-99"/>
      <path d="M 52 44.1875 
Q 55.375 50.25 60.0625 53.125 
Q 64.75 56 71.09375 56 
Q 79.640625 56 84.28125 50.015625 
Q 88.921875 44.046875 88.921875 33.015625 
L 88.921875 0 
L 79.890625 0 
L 79.890625 32.71875 
Q 79.890625 40.578125 77.09375 44.375 
Q 74.3125 48.1875 68.609375 48.1875 
Q 61.625 48.1875 57.5625 43.546875 
Q 53.515625 38.921875 53.515625 30.90625 
L 53.515625 0 
L 44.484375 0 
L 44.484375 32.71875 
Q 44.484375 40.625 41.703125 44.40625 
Q 38.921875 48.1875 33.109375 48.1875 
Q 26.21875 48.1875 22.15625 43.53125 
Q 18.109375 38.875 18.109375 30.90625 
L 18.109375 0 
L 9.078125 0 
L 9.078125 54.6875 
L 18.109375 54.6875 
L 18.109375 46.1875 
Q 21.1875 51.21875 25.484375 53.609375 
Q 29.78125 56 35.6875 56 
Q 41.65625 56 45.828125 52.96875 
Q 50 49.953125 52 44.1875 
z
" id="DejaVuSans-109"/>
      <path d="M 45.40625 46.390625 
L 45.40625 75.984375 
L 54.390625 75.984375 
L 54.390625 0 
L 45.40625 0 
L 45.40625 8.203125 
Q 42.578125 3.328125 38.25 0.953125 
Q 33.9375 -1.421875 27.875 -1.421875 
Q 17.96875 -1.421875 11.734375 6.484375 
Q 5.515625 14.40625 5.515625 27.296875 
Q 5.515625 40.1875 11.734375 48.09375 
Q 17.96875 56 27.875 56 
Q 33.9375 56 38.25 53.625 
Q 42.578125 51.265625 45.40625 46.390625 
z
M 14.796875 27.296875 
Q 14.796875 17.390625 18.875 11.75 
Q 22.953125 6.109375 30.078125 6.109375 
Q 37.203125 6.109375 41.296875 11.75 
Q 45.40625 17.390625 45.40625 27.296875 
Q 45.40625 37.203125 41.296875 42.84375 
Q 37.203125 48.484375 30.078125 48.484375 
Q 22.953125 48.484375 18.875 42.84375 
Q 14.796875 37.203125 14.796875 27.296875 
z
" id="DejaVuSans-100"/>
      <path d="M 41.109375 46.296875 
Q 39.59375 47.171875 37.8125 47.578125 
Q 36.03125 48 33.890625 48 
Q 26.265625 48 22.1875 43.046875 
Q 18.109375 38.09375 18.109375 28.8125 
L 18.109375 0 
L 9.078125 0 
L 9.078125 54.6875 
L 18.109375 54.6875 
L 18.109375 46.1875 
Q 20.953125 51.171875 25.484375 53.578125 
Q 30.03125 56 36.53125 56 
Q 37.453125 56 38.578125 55.875 
Q 39.703125 55.765625 41.0625 55.515625 
z
" id="DejaVuSans-114"/>
      <path d="M 16.75 30.609375 
Q 17.09375 27 20.171875 21.140625 
Q 23.78125 14.359375 30.609375 10.546875 
Q 37.3125 6.84375 44.53125 6.78125 
L 78.5625 6.78125 
L 78.5625 -0.984375 
L 44.53125 -0.984375 
Q 35.15625 -0.984375 26.484375 3.84375 
Q 17.828125 8.6875 13.1875 17.28125 
Q 8.546875 25.875 8.546875 35.015625 
Q 8.546875 44.046875 13.1875 52.640625 
Q 17.828125 61.234375 26.484375 66.109375 
Q 35.15625 71 44.53125 71 
L 78.5625 71 
L 78.5625 63.234375 
L 44.53125 63.234375 
Q 37.3125 63.1875 30.609375 59.421875 
Q 23.828125 55.5625 20.171875 48.828125 
Q 17.046875 42.96875 16.609375 38.421875 
L 78.5625 38.421875 
L 78.5625 30.609375 
z
" id="DejaVuSans-8712"/>
      <path d="M 51.125 -9.28125 
L 51.125 -16.3125 
L 48.09375 -16.3125 
Q 35.9375 -16.3125 31.8125 -12.6875 
Q 27.6875 -9.078125 27.6875 1.703125 
L 27.6875 13.375 
Q 27.6875 20.75 25.046875 23.578125 
Q 22.40625 26.421875 15.484375 26.421875 
L 12.5 26.421875 
L 12.5 33.40625 
L 15.484375 33.40625 
Q 22.46875 33.40625 25.078125 36.203125 
Q 27.6875 39.015625 27.6875 46.296875 
L 27.6875 58.015625 
Q 27.6875 68.796875 31.8125 72.390625 
Q 35.9375 75.984375 48.09375 75.984375 
L 51.125 75.984375 
L 51.125 69 
L 47.796875 69 
Q 40.921875 69 38.8125 66.84375 
Q 36.71875 64.703125 36.71875 57.8125 
L 36.71875 45.703125 
Q 36.71875 38.03125 34.5 34.5625 
Q 32.28125 31.109375 26.90625 29.890625 
Q 32.328125 28.5625 34.515625 25.09375 
Q 36.71875 21.625 36.71875 14.015625 
L 36.71875 1.90625 
Q 36.71875 -4.984375 38.8125 -7.125 
Q 40.921875 -9.28125 47.796875 -9.28125 
z
" id="DejaVuSans-123"/>
      <path d="M 8.203125 72.90625 
L 55.078125 72.90625 
L 55.078125 68.703125 
L 28.609375 0 
L 18.3125 0 
L 43.21875 64.59375 
L 8.203125 64.59375 
z
" id="DejaVuSans-55"/>
      <path d="M 12.5 -9.28125 
L 15.921875 -9.28125 
Q 22.75 -9.28125 24.828125 -7.171875 
Q 26.90625 -5.078125 26.90625 1.90625 
L 26.90625 14.015625 
Q 26.90625 21.625 29.09375 25.09375 
Q 31.296875 28.5625 36.71875 29.890625 
Q 31.296875 31.109375 29.09375 34.5625 
Q 26.90625 38.03125 26.90625 45.703125 
L 26.90625 57.8125 
Q 26.90625 64.75 24.828125 66.875 
Q 22.75 69 15.921875 69 
L 12.5 69 
L 12.5 75.984375 
L 15.578125 75.984375 
Q 27.734375 75.984375 31.8125 72.390625 
Q 35.890625 68.796875 35.890625 58.015625 
L 35.890625 46.296875 
Q 35.890625 39.015625 38.515625 36.203125 
Q 41.15625 33.40625 48.09375 33.40625 
L 51.125 33.40625 
L 51.125 26.421875 
L 48.09375 26.421875 
Q 41.15625 26.421875 38.515625 23.578125 
Q 35.890625 20.75 35.890625 13.375 
L 35.890625 1.703125 
Q 35.890625 -9.078125 31.8125 -12.6875 
Q 27.734375 -16.3125 15.578125 -16.3125 
L 12.5 -16.3125 
z
" id="DejaVuSans-125"/>
     </defs>
     <use transform="translate(0 0.015625)" xlink:href="#DejaVuSans-68"/>
     <use transform="translate(77.001953 0.015625)" xlink:href="#DejaVuSans-101"/>
     <use transform="translate(138.525391 0.015625)" xlink:href="#DejaVuSans-110"/>
     <use transform="translate(201.904297 0.015625)" xlink:href="#DejaVuSans-115"/>
     <use transform="translate(254.003906 0.015625)" xlink:href="#DejaVuSans-105"/>
     <use transform="translate(281.787109 0.015625)" xlink:href="#DejaVuSans-116"/>
     <use transform="translate(320.996094 0.015625)" xlink:href="#DejaVuSans-121"/>
     <use transform="translate(380.175781 0.015625)" xlink:href="#DejaVuSans-32"/>
     <use transform="translate(411.962891 0.015625)" xlink:href="#DejaVuSans-112"/>
     <use transform="translate(475.439453 0.015625)" xlink:href="#DejaVuSans-108"/>
     <use transform="translate(503.222656 0.015625)" xlink:href="#DejaVuSans-111"/>
     <use transform="translate(564.404297 0.015625)" xlink:href="#DejaVuSans-116"/>
     <use transform="translate(603.613281 0.015625)" xlink:href="#DejaVuSans-115"/>
     <use transform="translate(655.712891 0.015625)" xlink:href="#DejaVuSans-32"/>
     <use transform="translate(687.5 0.015625)" xlink:href="#DejaVuSans-111"/>
     <use transform="translate(748.681641 0.015625)" xlink:href="#DejaVuSans-102"/>
     <use transform="translate(783.886719 0.015625)" xlink:href="#DejaVuSans-32"/>
     <use transform="translate(815.673828 0.015625)" xlink:href="#DejaVuSans-80"/>
     <use transform="translate(875.976562 0.015625)" xlink:href="#DejaVuSans-71"/>
     <use transform="translate(953.466797 0.015625)" xlink:href="#DejaVuSans-40"/>
     <use transform="translate(992.480469 0.015625)" xlink:href="#DejaVuSans-104"/>
     <use transform="translate(1055.859375 0.015625)" xlink:href="#DejaVuSans-44"/>
     <use transform="translate(1087.646484 0.015625)" xlink:href="#DejaVuSans-32"/>
     <use transform="translate(1119.433594 0.015625)" xlink:href="#DejaVuSans-48"/>
     <use transform="translate(1183.056641 0.015625)" xlink:href="#DejaVuSans-41"/>
     <use transform="translate(1222.070312 0.015625)" xlink:href="#DejaVuSans-32"/>
     <use transform="translate(1253.857422 0.015625)" xlink:href="#DejaVuSans-117"/>
     <use transform="translate(1317.236328 0.015625)" xlink:href="#DejaVuSans-115"/>
     <use transform="translate(1369.335938 0.015625)" xlink:href="#DejaVuSans-105"/>
     <use transform="translate(1397.119141 0.015625)" xlink:href="#DejaVuSans-110"/>
     <use transform="translate(1460.498047 0.015625)" xlink:href="#DejaVuSans-103"/>
     <use transform="translate(1523.974609 0.015625)" xlink:href="#DejaVuSans-32"/>
     <use transform="translate(1555.761719 0.015625)" xlink:href="#DejaVuSans-101"/>
     <use transform="translate(1617.285156 0.015625)" xlink:href="#DejaVuSans-97"/>
     <use transform="translate(1678.564453 0.015625)" xlink:href="#DejaVuSans-99"/>
     <use transform="translate(1733.544922 0.015625)" xlink:href="#DejaVuSans-104"/>
     <use transform="translate(1796.923828 0.015625)" xlink:href="#DejaVuSans-32"/>
     <use transform="translate(1828.710938 0.015625)" xlink:href="#DejaVuSans-109"/>
     <use transform="translate(1926.123047 0.015625)" xlink:href="#DejaVuSans-101"/>
     <use transform="translate(1987.646484 0.015625)" xlink:href="#DejaVuSans-116"/>
     <use transform="translate(2026.855469 0.015625)" xlink:href="#DejaVuSans-104"/>
     <use transform="translate(2090.234375 0.015625)" xlink:href="#DejaVuSans-111"/>
     <use transform="translate(2151.416016 0.015625)" xlink:href="#DejaVuSans-100"/>
     <use transform="translate(2214.892578 0.015625)" xlink:href="#DejaVuSans-32"/>
     <use transform="translate(2246.679688 0.015625)" xlink:href="#DejaVuSans-102"/>
     <use transform="translate(2281.884766 0.015625)" xlink:href="#DejaVuSans-111"/>
     <use transform="translate(2343.066406 0.015625)" xlink:href="#DejaVuSans-114"/>
     <use transform="translate(2384.179688 0.015625)" xlink:href="#DejaVuSans-32"/>
     <use transform="translate(2415.966797 0.015625)" xlink:href="#DejaVuSans-104"/>
     <use transform="translate(2479.345703 0.015625)" xlink:href="#DejaVuSans-32"/>
     <use transform="translate(2530.615234 0.015625)" xlink:href="#DejaVuSans-8712"/>
     <use transform="translate(2637.207031 0.015625)" xlink:href="#DejaVuSans-32"/>
     <use transform="translate(2668.994141 0.015625)" xlink:href="#DejaVuSans-123"/>
     <use transform="translate(2732.617188 0.015625)" xlink:href="#DejaVuSans-49"/>
     <use transform="translate(2796.240234 0.015625)" xlink:href="#DejaVuSans-44"/>
     <use transform="translate(2828.027344 0.015625)" xlink:href="#DejaVuSans-52"/>
     <use transform="translate(2891.650391 0.015625)" xlink:href="#DejaVuSans-44"/>
     <use transform="translate(2923.4375 0.015625)" xlink:href="#DejaVuSans-55"/>
     <use transform="translate(2987.060547 0.015625)" xlink:href="#DejaVuSans-44"/>
     <use transform="translate(3018.847656 0.015625)" xlink:href="#DejaVuSans-49"/>
     <use transform="translate(3082.470703 0.015625)" xlink:href="#DejaVuSans-48"/>
     <use transform="translate(3146.09375 0.015625)" xlink:href="#DejaVuSans-125"/>
     <use transform="translate(3209.716797 0.015625)" xlink:href="#DejaVuSans-46"/>
    </g>
   </g>
   <g id="legend_1">
    <g id="patch_7">
     <path d="M 330.265313 93.506375 
L 407.72 93.506375 
Q 409.72 93.506375 409.72 91.506375 
L 409.72 48.472 
Q 409.72 46.472 407.72 46.472 
L 330.265313 46.472 
Q 328.265313 46.472 328.265313 48.472 
L 328.265313 91.506375 
Q 328.265313 93.506375 330.265313 93.506375 
z
" style="fill:#eaeaf2;opacity:0.8;stroke:#cccccc;stroke-linejoin:miter;"/>
    </g>
    <g id="line2d_26">
     <path d="M 332.265313 54.570438 
L 352.265313 54.570438 
" style="fill:none;stroke:#1f77b4;stroke-linecap:round;stroke-width:1.5;"/>
    </g>
    <g id="line2d_27"/>
    <g id="text_16">
     <!-- devroye -->
     <g style="fill:#262626;" transform="translate(360.265313 58.070438)scale(0.1 -0.1)">
      <defs>
       <path d="M 2.984375 54.6875 
L 12.5 54.6875 
L 29.59375 8.796875 
L 46.6875 54.6875 
L 56.203125 54.6875 
L 35.6875 0 
L 23.484375 0 
z
" id="DejaVuSans-118"/>
      </defs>
      <use xlink:href="#DejaVuSans-100"/>
      <use x="63.476562" xlink:href="#DejaVuSans-101"/>
      <use x="125" xlink:href="#DejaVuSans-118"/>
      <use x="184.179688" xlink:href="#DejaVuSans-114"/>
      <use x="223.042969" xlink:href="#DejaVuSans-111"/>
      <use x="284.224609" xlink:href="#DejaVuSans-121"/>
      <use x="343.404297" xlink:href="#DejaVuSans-101"/>
     </g>
    </g>
    <g id="line2d_28">
     <path d="M 332.265313 69.248563 
L 352.265313 69.248563 
" style="fill:none;stroke:#ff7f0e;stroke-linecap:round;stroke-width:1.5;"/>
    </g>
    <g id="line2d_29"/>
    <g id="text_17">
     <!-- alternate -->
     <g style="fill:#262626;" transform="translate(360.265313 72.748563)scale(0.1 -0.1)">
      <use xlink:href="#DejaVuSans-97"/>
      <use x="61.279297" xlink:href="#DejaVuSans-108"/>
      <use x="89.0625" xlink:href="#DejaVuSans-116"/>
      <use x="128.271484" xlink:href="#DejaVuSans-101"/>
      <use x="189.794922" xlink:href="#DejaVuSans-114"/>
      <use x="229.158203" xlink:href="#DejaVuSans-110"/>
      <use x="292.537109" xlink:href="#DejaVuSans-97"/>
      <use x="353.816406" xlink:href="#DejaVuSans-116"/>
      <use x="393.025391" xlink:href="#DejaVuSans-101"/>
     </g>
    </g>
    <g id="line2d_30">
     <path d="M 332.265313 83.926688 
L 352.265313 83.926688 
" style="fill:none;stroke:#2ca02c;stroke-linecap:round;stroke-width:1.5;"/>
    </g>
    <g id="line2d_31"/>
    <g id="text_18">
     <!-- gamma -->
     <g style="fill:#262626;" transform="translate(360.265313 87.426688)scale(0.1 -0.1)">
      <use xlink:href="#DejaVuSans-103"/>
      <use x="63.476562" xlink:href="#DejaVuSans-97"/>
      <use x="124.755859" xlink:href="#DejaVuSans-109"/>
      <use x="222.167969" xlink:href="#DejaVuSans-109"/>
      <use x="319.580078" xlink:href="#DejaVuSans-97"/>
     </g>
    </g>
   </g>
  </g>
 </g>
 <defs>
  <clipPath id="p8c31fa43b2">
   <rect height="266.112" width="357.12" x="57.6" y="41.472"/>
  </clipPath>
 </defs>
</svg>
