<?xml version="1.0" encoding="utf-8" standalone="no"?>
<!DOCTYPE svg PUBLIC "-//W3C//DTD SVG 1.1//EN"
  "http://www.w3.org/Graphics/SVG/1.1/DTD/svg11.dtd">
<!-- Created with matplotlib (https://matplotlib.org/) -->
<svg height="345.6pt" version="1.1" viewBox="0 0 460.8 345.6" width="460.8pt" xmlns="http://www.w3.org/2000/svg" xmlns:xlink="http://www.w3.org/1999/xlink">
 <metadata>
  <rdf:RDF xmlns:cc="http://creativecommons.org/ns#" xmlns:dc="http://purl.org/dc/elements/1.1/" xmlns:rdf="http://www.w3.org/1999/02/22-rdf-syntax-ns#">
   <cc:Work>
    <dc:type rdf:resource="http://purl.org/dc/dcmitype/StillImage"/>
    <dc:date>2021-03-06T01:51:15.927318</dc:date>
    <dc:format>image/svg+xml</dc:format>
    <dc:creator>
     <cc:Agent>
      <dc:title>Matplotlib v3.3.3, https://matplotlib.org/</dc:title>
     </cc:Agent>
    </dc:creator>
   </cc:Work>
  </rdf:RDF>
 </metadata>
 <defs>
  <style type="text/css">*{stroke-linecap:butt;stroke-linejoin:round;}</style>
 </defs>
 <g id="figure_1">
  <g id="patch_1">
   <path d="M 0 345.6 
L 460.8 345.6 
L 460.8 0 
L 0 0 
z
" style="fill:#ffffff;"/>
  </g>
  <g id="axes_1">
   <g id="patch_2">
    <path d="M 57.6 307.584 
L 414.72 307.584 
L 414.72 41.472 
L 57.6 41.472 
z
" style="fill:#eaeaf2;"/>
   </g>
   <g id="matplotlib.axis_1">
    <g id="xtick_1">
     <g id="line2d_1">
      <path clip-path="url(#pe50b0d5086)" d="M 75.677082 307.584 
L 75.677082 41.472 
" style="fill:none;stroke:#ffffff;stroke-linecap:round;stroke-width:0.8;"/>
     </g>
     <g id="text_1">
      <!-- 0 -->
      <g style="fill:#262626;" transform="translate(72.495832 322.182437)scale(0.1 -0.1)">
       <defs>
        <path d="M 31.78125 66.40625 
Q 24.171875 66.40625 20.328125 58.90625 
Q 16.5 51.421875 16.5 36.375 
Q 16.5 21.390625 20.328125 13.890625 
Q 24.171875 6.390625 31.78125 6.390625 
Q 39.453125 6.390625 43.28125 13.890625 
Q 47.125 21.390625 47.125 36.375 
Q 47.125 51.421875 43.28125 58.90625 
Q 39.453125 66.40625 31.78125 66.40625 
z
M 31.78125 74.21875 
Q 44.046875 74.21875 50.515625 64.515625 
Q 56.984375 54.828125 56.984375 36.375 
Q 56.984375 17.96875 50.515625 8.265625 
Q 44.046875 -1.421875 31.78125 -1.421875 
Q 19.53125 -1.421875 13.0625 8.265625 
Q 6.59375 17.96875 6.59375 36.375 
Q 6.59375 54.828125 13.0625 64.515625 
Q 19.53125 74.21875 31.78125 74.21875 
z
" id="DejaVuSans-48"/>
       </defs>
       <use xlink:href="#DejaVuSans-48"/>
      </g>
     </g>
    </g>
    <g id="xtick_2">
     <g id="line2d_2">
      <path clip-path="url(#pe50b0d5086)" d="M 128.104576 307.584 
L 128.104576 41.472 
" style="fill:none;stroke:#ffffff;stroke-linecap:round;stroke-width:0.8;"/>
     </g>
     <g id="text_2">
      <!-- 2 -->
      <g style="fill:#262626;" transform="translate(124.923326 322.182437)scale(0.1 -0.1)">
       <defs>
        <path d="M 19.1875 8.296875 
L 53.609375 8.296875 
L 53.609375 0 
L 7.328125 0 
L 7.328125 8.296875 
Q 12.9375 14.109375 22.625 23.890625 
Q 32.328125 33.6875 34.8125 36.53125 
Q 39.546875 41.84375 41.421875 45.53125 
Q 43.3125 49.21875 43.3125 52.78125 
Q 43.3125 58.59375 39.234375 62.25 
Q 35.15625 65.921875 28.609375 65.921875 
Q 23.96875 65.921875 18.8125 64.3125 
Q 13.671875 62.703125 7.8125 59.421875 
L 7.8125 69.390625 
Q 13.765625 71.78125 18.9375 73 
Q 24.125 74.21875 28.421875 74.21875 
Q 39.75 74.21875 46.484375 68.546875 
Q 53.21875 62.890625 53.21875 53.421875 
Q 53.21875 48.921875 51.53125 44.890625 
Q 49.859375 40.875 45.40625 35.40625 
Q 44.1875 33.984375 37.640625 27.21875 
Q 31.109375 20.453125 19.1875 8.296875 
z
" id="DejaVuSans-50"/>
       </defs>
       <use xlink:href="#DejaVuSans-50"/>
      </g>
     </g>
    </g>
    <g id="xtick_3">
     <g id="line2d_3">
      <path clip-path="url(#pe50b0d5086)" d="M 180.53207 307.584 
L 180.53207 41.472 
" style="fill:none;stroke:#ffffff;stroke-linecap:round;stroke-width:0.8;"/>
     </g>
     <g id="text_3">
      <!-- 4 -->
      <g style="fill:#262626;" transform="translate(177.35082 322.182437)scale(0.1 -0.1)">
       <defs>
        <path d="M 37.796875 64.3125 
L 12.890625 25.390625 
L 37.796875 25.390625 
z
M 35.203125 72.90625 
L 47.609375 72.90625 
L 47.609375 25.390625 
L 58.015625 25.390625 
L 58.015625 17.1875 
L 47.609375 17.1875 
L 47.609375 0 
L 37.796875 0 
L 37.796875 17.1875 
L 4.890625 17.1875 
L 4.890625 26.703125 
z
" id="DejaVuSans-52"/>
       </defs>
       <use xlink:href="#DejaVuSans-52"/>
      </g>
     </g>
    </g>
    <g id="xtick_4">
     <g id="line2d_4">
      <path clip-path="url(#pe50b0d5086)" d="M 232.959564 307.584 
L 232.959564 41.472 
" style="fill:none;stroke:#ffffff;stroke-linecap:round;stroke-width:0.8;"/>
     </g>
     <g id="text_4">
      <!-- 6 -->
      <g style="fill:#262626;" transform="translate(229.778314 322.182437)scale(0.1 -0.1)">
       <defs>
        <path d="M 33.015625 40.375 
Q 26.375 40.375 22.484375 35.828125 
Q 18.609375 31.296875 18.609375 23.390625 
Q 18.609375 15.53125 22.484375 10.953125 
Q 26.375 6.390625 33.015625 6.390625 
Q 39.65625 6.390625 43.53125 10.953125 
Q 47.40625 15.53125 47.40625 23.390625 
Q 47.40625 31.296875 43.53125 35.828125 
Q 39.65625 40.375 33.015625 40.375 
z
M 52.59375 71.296875 
L 52.59375 62.3125 
Q 48.875 64.0625 45.09375 64.984375 
Q 41.3125 65.921875 37.59375 65.921875 
Q 27.828125 65.921875 22.671875 59.328125 
Q 17.53125 52.734375 16.796875 39.40625 
Q 19.671875 43.65625 24.015625 45.921875 
Q 28.375 48.1875 33.59375 48.1875 
Q 44.578125 48.1875 50.953125 41.515625 
Q 57.328125 34.859375 57.328125 23.390625 
Q 57.328125 12.15625 50.6875 5.359375 
Q 44.046875 -1.421875 33.015625 -1.421875 
Q 20.359375 -1.421875 13.671875 8.265625 
Q 6.984375 17.96875 6.984375 36.375 
Q 6.984375 53.65625 15.1875 63.9375 
Q 23.390625 74.21875 37.203125 74.21875 
Q 40.921875 74.21875 44.703125 73.484375 
Q 48.484375 72.75 52.59375 71.296875 
z
" id="DejaVuSans-54"/>
       </defs>
       <use xlink:href="#DejaVuSans-54"/>
      </g>
     </g>
    </g>
    <g id="xtick_5">
     <g id="line2d_5">
      <path clip-path="url(#pe50b0d5086)" d="M 285.387058 307.584 
L 285.387058 41.472 
" style="fill:none;stroke:#ffffff;stroke-linecap:round;stroke-width:0.8;"/>
     </g>
     <g id="text_5">
      <!-- 8 -->
      <g style="fill:#262626;" transform="translate(282.205808 322.182437)scale(0.1 -0.1)">
       <defs>
        <path d="M 31.78125 34.625 
Q 24.75 34.625 20.71875 30.859375 
Q 16.703125 27.09375 16.703125 20.515625 
Q 16.703125 13.921875 20.71875 10.15625 
Q 24.75 6.390625 31.78125 6.390625 
Q 38.8125 6.390625 42.859375 10.171875 
Q 46.921875 13.96875 46.921875 20.515625 
Q 46.921875 27.09375 42.890625 30.859375 
Q 38.875 34.625 31.78125 34.625 
z
M 21.921875 38.8125 
Q 15.578125 40.375 12.03125 44.71875 
Q 8.5 49.078125 8.5 55.328125 
Q 8.5 64.0625 14.71875 69.140625 
Q 20.953125 74.21875 31.78125 74.21875 
Q 42.671875 74.21875 48.875 69.140625 
Q 55.078125 64.0625 55.078125 55.328125 
Q 55.078125 49.078125 51.53125 44.71875 
Q 48 40.375 41.703125 38.8125 
Q 48.828125 37.15625 52.796875 32.3125 
Q 56.78125 27.484375 56.78125 20.515625 
Q 56.78125 9.90625 50.3125 4.234375 
Q 43.84375 -1.421875 31.78125 -1.421875 
Q 19.734375 -1.421875 13.25 4.234375 
Q 6.78125 9.90625 6.78125 20.515625 
Q 6.78125 27.484375 10.78125 32.3125 
Q 14.796875 37.15625 21.921875 38.8125 
z
M 18.3125 54.390625 
Q 18.3125 48.734375 21.84375 45.5625 
Q 25.390625 42.390625 31.78125 42.390625 
Q 38.140625 42.390625 41.71875 45.5625 
Q 45.3125 48.734375 45.3125 54.390625 
Q 45.3125 60.0625 41.71875 63.234375 
Q 38.140625 66.40625 31.78125 66.40625 
Q 25.390625 66.40625 21.84375 63.234375 
Q 18.3125 60.0625 18.3125 54.390625 
z
" id="DejaVuSans-56"/>
       </defs>
       <use xlink:href="#DejaVuSans-56"/>
      </g>
     </g>
    </g>
    <g id="xtick_6">
     <g id="line2d_6">
      <path clip-path="url(#pe50b0d5086)" d="M 337.814552 307.584 
L 337.814552 41.472 
" style="fill:none;stroke:#ffffff;stroke-linecap:round;stroke-width:0.8;"/>
     </g>
     <g id="text_6">
      <!-- 10 -->
      <g style="fill:#262626;" transform="translate(331.452052 322.182437)scale(0.1 -0.1)">
       <defs>
        <path d="M 12.40625 8.296875 
L 28.515625 8.296875 
L 28.515625 63.921875 
L 10.984375 60.40625 
L 10.984375 69.390625 
L 28.421875 72.90625 
L 38.28125 72.90625 
L 38.28125 8.296875 
L 54.390625 8.296875 
L 54.390625 0 
L 12.40625 0 
z
" id="DejaVuSans-49"/>
       </defs>
       <use xlink:href="#DejaVuSans-49"/>
       <use x="63.623047" xlink:href="#DejaVuSans-48"/>
      </g>
     </g>
    </g>
    <g id="xtick_7">
     <g id="line2d_7">
      <path clip-path="url(#pe50b0d5086)" d="M 390.242046 307.584 
L 390.242046 41.472 
" style="fill:none;stroke:#ffffff;stroke-linecap:round;stroke-width:0.8;"/>
     </g>
     <g id="text_7">
      <!-- 12 -->
      <g style="fill:#262626;" transform="translate(383.879546 322.182437)scale(0.1 -0.1)">
       <use xlink:href="#DejaVuSans-49"/>
       <use x="63.623047" xlink:href="#DejaVuSans-50"/>
      </g>
     </g>
    </g>
   </g>
   <g id="matplotlib.axis_2">
    <g id="ytick_1">
     <g id="line2d_8">
      <path clip-path="url(#pe50b0d5086)" d="M 57.6 307.584 
L 414.72 307.584 
" style="fill:none;stroke:#ffffff;stroke-linecap:round;stroke-width:0.8;"/>
     </g>
     <g id="text_8">
      <!-- 0.0 -->
      <g style="fill:#262626;" transform="translate(34.696875 311.383219)scale(0.1 -0.1)">
       <defs>
        <path d="M 10.6875 12.40625 
L 21 12.40625 
L 21 0 
L 10.6875 0 
z
" id="DejaVuSans-46"/>
       </defs>
       <use xlink:href="#DejaVuSans-48"/>
       <use x="63.623047" xlink:href="#DejaVuSans-46"/>
       <use x="95.410156" xlink:href="#DejaVuSans-48"/>
      </g>
     </g>
    </g>
    <g id="ytick_2">
     <g id="line2d_9">
      <path clip-path="url(#pe50b0d5086)" d="M 57.6 271.139883 
L 414.72 271.139883 
" style="fill:none;stroke:#ffffff;stroke-linecap:round;stroke-width:0.8;"/>
     </g>
     <g id="text_9">
      <!-- 0.1 -->
      <g style="fill:#262626;" transform="translate(34.696875 274.939101)scale(0.1 -0.1)">
       <use xlink:href="#DejaVuSans-48"/>
       <use x="63.623047" xlink:href="#DejaVuSans-46"/>
       <use x="95.410156" xlink:href="#DejaVuSans-49"/>
      </g>
     </g>
    </g>
    <g id="ytick_3">
     <g id="line2d_10">
      <path clip-path="url(#pe50b0d5086)" d="M 57.6 234.695765 
L 414.72 234.695765 
" style="fill:none;stroke:#ffffff;stroke-linecap:round;stroke-width:0.8;"/>
     </g>
     <g id="text_10">
      <!-- 0.2 -->
      <g style="fill:#262626;" transform="translate(34.696875 238.494984)scale(0.1 -0.1)">
       <use xlink:href="#DejaVuSans-48"/>
       <use x="63.623047" xlink:href="#DejaVuSans-46"/>
       <use x="95.410156" xlink:href="#DejaVuSans-50"/>
      </g>
     </g>
    </g>
    <g id="ytick_4">
     <g id="line2d_11">
      <path clip-path="url(#pe50b0d5086)" d="M 57.6 198.251648 
L 414.72 198.251648 
" style="fill:none;stroke:#ffffff;stroke-linecap:round;stroke-width:0.8;"/>
     </g>
     <g id="text_11">
      <!-- 0.3 -->
      <g style="fill:#262626;" transform="translate(34.696875 202.050867)scale(0.1 -0.1)">
       <defs>
        <path d="M 40.578125 39.3125 
Q 47.65625 37.796875 51.625 33 
Q 55.609375 28.21875 55.609375 21.1875 
Q 55.609375 10.40625 48.1875 4.484375 
Q 40.765625 -1.421875 27.09375 -1.421875 
Q 22.515625 -1.421875 17.65625 -0.515625 
Q 12.796875 0.390625 7.625 2.203125 
L 7.625 11.71875 
Q 11.71875 9.328125 16.59375 8.109375 
Q 21.484375 6.890625 26.8125 6.890625 
Q 36.078125 6.890625 40.9375 10.546875 
Q 45.796875 14.203125 45.796875 21.1875 
Q 45.796875 27.640625 41.28125 31.265625 
Q 36.765625 34.90625 28.71875 34.90625 
L 20.21875 34.90625 
L 20.21875 43.015625 
L 29.109375 43.015625 
Q 36.375 43.015625 40.234375 45.921875 
Q 44.09375 48.828125 44.09375 54.296875 
Q 44.09375 59.90625 40.109375 62.90625 
Q 36.140625 65.921875 28.71875 65.921875 
Q 24.65625 65.921875 20.015625 65.03125 
Q 15.375 64.15625 9.8125 62.3125 
L 9.8125 71.09375 
Q 15.4375 72.65625 20.34375 73.4375 
Q 25.25 74.21875 29.59375 74.21875 
Q 40.828125 74.21875 47.359375 69.109375 
Q 53.90625 64.015625 53.90625 55.328125 
Q 53.90625 49.265625 50.4375 45.09375 
Q 46.96875 40.921875 40.578125 39.3125 
z
" id="DejaVuSans-51"/>
       </defs>
       <use xlink:href="#DejaVuSans-48"/>
       <use x="63.623047" xlink:href="#DejaVuSans-46"/>
       <use x="95.410156" xlink:href="#DejaVuSans-51"/>
      </g>
     </g>
    </g>
    <g id="ytick_5">
     <g id="line2d_12">
      <path clip-path="url(#pe50b0d5086)" d="M 57.6 161.80753 
L 414.72 161.80753 
" style="fill:none;stroke:#ffffff;stroke-linecap:round;stroke-width:0.8;"/>
     </g>
     <g id="text_12">
      <!-- 0.4 -->
      <g style="fill:#262626;" transform="translate(34.696875 165.606749)scale(0.1 -0.1)">
       <use xlink:href="#DejaVuSans-48"/>
       <use x="63.623047" xlink:href="#DejaVuSans-46"/>
       <use x="95.410156" xlink:href="#DejaVuSans-52"/>
      </g>
     </g>
    </g>
    <g id="ytick_6">
     <g id="line2d_13">
      <path clip-path="url(#pe50b0d5086)" d="M 57.6 125.363413 
L 414.72 125.363413 
" style="fill:none;stroke:#ffffff;stroke-linecap:round;stroke-width:0.8;"/>
     </g>
     <g id="text_13">
      <!-- 0.5 -->
      <g style="fill:#262626;" transform="translate(34.696875 129.162632)scale(0.1 -0.1)">
       <defs>
        <path d="M 10.796875 72.90625 
L 49.515625 72.90625 
L 49.515625 64.59375 
L 19.828125 64.59375 
L 19.828125 46.734375 
Q 21.96875 47.46875 24.109375 47.828125 
Q 26.265625 48.1875 28.421875 48.1875 
Q 40.625 48.1875 47.75 41.5 
Q 54.890625 34.8125 54.890625 23.390625 
Q 54.890625 11.625 47.5625 5.09375 
Q 40.234375 -1.421875 26.90625 -1.421875 
Q 22.3125 -1.421875 17.546875 -0.640625 
Q 12.796875 0.140625 7.71875 1.703125 
L 7.71875 11.625 
Q 12.109375 9.234375 16.796875 8.0625 
Q 21.484375 6.890625 26.703125 6.890625 
Q 35.15625 6.890625 40.078125 11.328125 
Q 45.015625 15.765625 45.015625 23.390625 
Q 45.015625 31 40.078125 35.4375 
Q 35.15625 39.890625 26.703125 39.890625 
Q 22.75 39.890625 18.8125 39.015625 
Q 14.890625 38.140625 10.796875 36.28125 
z
" id="DejaVuSans-53"/>
       </defs>
       <use xlink:href="#DejaVuSans-48"/>
       <use x="63.623047" xlink:href="#DejaVuSans-46"/>
       <use x="95.410156" xlink:href="#DejaVuSans-53"/>
      </g>
     </g>
    </g>
    <g id="ytick_7">
     <g id="line2d_14">
      <path clip-path="url(#pe50b0d5086)" d="M 57.6 88.919296 
L 414.72 88.919296 
" style="fill:none;stroke:#ffffff;stroke-linecap:round;stroke-width:0.8;"/>
     </g>
     <g id="text_14">
      <!-- 0.6 -->
      <g style="fill:#262626;" transform="translate(34.696875 92.718514)scale(0.1 -0.1)">
       <use xlink:href="#DejaVuSans-48"/>
       <use x="63.623047" xlink:href="#DejaVuSans-46"/>
       <use x="95.410156" xlink:href="#DejaVuSans-54"/>
      </g>
     </g>
    </g>
    <g id="ytick_8">
     <g id="line2d_15">
      <path clip-path="url(#pe50b0d5086)" d="M 57.6 52.475178 
L 414.72 52.475178 
" style="fill:none;stroke:#ffffff;stroke-linecap:round;stroke-width:0.8;"/>
     </g>
     <g id="text_15">
      <!-- 0.7 -->
      <g style="fill:#262626;" transform="translate(34.696875 56.274397)scale(0.1 -0.1)">
       <defs>
        <path d="M 8.203125 72.90625 
L 55.078125 72.90625 
L 55.078125 68.703125 
L 28.609375 0 
L 18.3125 0 
L 43.21875 64.59375 
L 8.203125 64.59375 
z
" id="DejaVuSans-55"/>
       </defs>
       <use xlink:href="#DejaVuSans-48"/>
       <use x="63.623047" xlink:href="#DejaVuSans-46"/>
       <use x="95.410156" xlink:href="#DejaVuSans-55"/>
      </g>
     </g>
    </g>
    <g id="text_16">
     <!-- Density -->
     <g style="fill:#262626;" transform="translate(28.617187 193.536594)rotate(-90)scale(0.1 -0.1)">
      <defs>
       <path d="M 19.671875 64.796875 
L 19.671875 8.109375 
L 31.59375 8.109375 
Q 46.6875 8.109375 53.6875 14.9375 
Q 60.6875 21.78125 60.6875 36.53125 
Q 60.6875 51.171875 53.6875 57.984375 
Q 46.6875 64.796875 31.59375 64.796875 
z
M 9.8125 72.90625 
L 30.078125 72.90625 
Q 51.265625 72.90625 61.171875 64.09375 
Q 71.09375 55.28125 71.09375 36.53125 
Q 71.09375 17.671875 61.125 8.828125 
Q 51.171875 0 30.078125 0 
L 9.8125 0 
z
" id="DejaVuSans-68"/>
       <path d="M 56.203125 29.59375 
L 56.203125 25.203125 
L 14.890625 25.203125 
Q 15.484375 15.921875 20.484375 11.0625 
Q 25.484375 6.203125 34.421875 6.203125 
Q 39.59375 6.203125 44.453125 7.46875 
Q 49.3125 8.734375 54.109375 11.28125 
L 54.109375 2.78125 
Q 49.265625 0.734375 44.1875 -0.34375 
Q 39.109375 -1.421875 33.890625 -1.421875 
Q 20.796875 -1.421875 13.15625 6.1875 
Q 5.515625 13.8125 5.515625 26.8125 
Q 5.515625 40.234375 12.765625 48.109375 
Q 20.015625 56 32.328125 56 
Q 43.359375 56 49.78125 48.890625 
Q 56.203125 41.796875 56.203125 29.59375 
z
M 47.21875 32.234375 
Q 47.125 39.59375 43.09375 43.984375 
Q 39.0625 48.390625 32.421875 48.390625 
Q 24.90625 48.390625 20.390625 44.140625 
Q 15.875 39.890625 15.1875 32.171875 
z
" id="DejaVuSans-101"/>
       <path d="M 54.890625 33.015625 
L 54.890625 0 
L 45.90625 0 
L 45.90625 32.71875 
Q 45.90625 40.484375 42.875 44.328125 
Q 39.84375 48.1875 33.796875 48.1875 
Q 26.515625 48.1875 22.3125 43.546875 
Q 18.109375 38.921875 18.109375 30.90625 
L 18.109375 0 
L 9.078125 0 
L 9.078125 54.6875 
L 18.109375 54.6875 
L 18.109375 46.1875 
Q 21.34375 51.125 25.703125 53.5625 
Q 30.078125 56 35.796875 56 
Q 45.21875 56 50.046875 50.171875 
Q 54.890625 44.34375 54.890625 33.015625 
z
" id="DejaVuSans-110"/>
       <path d="M 44.28125 53.078125 
L 44.28125 44.578125 
Q 40.484375 46.53125 36.375 47.5 
Q 32.28125 48.484375 27.875 48.484375 
Q 21.1875 48.484375 17.84375 46.4375 
Q 14.5 44.390625 14.5 40.28125 
Q 14.5 37.15625 16.890625 35.375 
Q 19.28125 33.59375 26.515625 31.984375 
L 29.59375 31.296875 
Q 39.15625 29.25 43.1875 25.515625 
Q 47.21875 21.78125 47.21875 15.09375 
Q 47.21875 7.46875 41.1875 3.015625 
Q 35.15625 -1.421875 24.609375 -1.421875 
Q 20.21875 -1.421875 15.453125 -0.5625 
Q 10.6875 0.296875 5.421875 2 
L 5.421875 11.28125 
Q 10.40625 8.6875 15.234375 7.390625 
Q 20.0625 6.109375 24.8125 6.109375 
Q 31.15625 6.109375 34.5625 8.28125 
Q 37.984375 10.453125 37.984375 14.40625 
Q 37.984375 18.0625 35.515625 20.015625 
Q 33.0625 21.96875 24.703125 23.78125 
L 21.578125 24.515625 
Q 13.234375 26.265625 9.515625 29.90625 
Q 5.8125 33.546875 5.8125 39.890625 
Q 5.8125 47.609375 11.28125 51.796875 
Q 16.75 56 26.8125 56 
Q 31.78125 56 36.171875 55.265625 
Q 40.578125 54.546875 44.28125 53.078125 
z
" id="DejaVuSans-115"/>
       <path d="M 9.421875 54.6875 
L 18.40625 54.6875 
L 18.40625 0 
L 9.421875 0 
z
M 9.421875 75.984375 
L 18.40625 75.984375 
L 18.40625 64.59375 
L 9.421875 64.59375 
z
" id="DejaVuSans-105"/>
       <path d="M 18.3125 70.21875 
L 18.3125 54.6875 
L 36.8125 54.6875 
L 36.8125 47.703125 
L 18.3125 47.703125 
L 18.3125 18.015625 
Q 18.3125 11.328125 20.140625 9.421875 
Q 21.96875 7.515625 27.59375 7.515625 
L 36.8125 7.515625 
L 36.8125 0 
L 27.59375 0 
Q 17.1875 0 13.234375 3.875 
Q 9.28125 7.765625 9.28125 18.015625 
L 9.28125 47.703125 
L 2.6875 47.703125 
L 2.6875 54.6875 
L 9.28125 54.6875 
L 9.28125 70.21875 
z
" id="DejaVuSans-116"/>
       <path d="M 32.171875 -5.078125 
Q 28.375 -14.84375 24.75 -17.8125 
Q 21.140625 -20.796875 15.09375 -20.796875 
L 7.90625 -20.796875 
L 7.90625 -13.28125 
L 13.1875 -13.28125 
Q 16.890625 -13.28125 18.9375 -11.515625 
Q 21 -9.765625 23.484375 -3.21875 
L 25.09375 0.875 
L 2.984375 54.6875 
L 12.5 54.6875 
L 29.59375 11.921875 
L 46.6875 54.6875 
L 56.203125 54.6875 
z
" id="DejaVuSans-121"/>
      </defs>
      <use xlink:href="#DejaVuSans-68"/>
      <use x="77.001953" xlink:href="#DejaVuSans-101"/>
      <use x="138.525391" xlink:href="#DejaVuSans-110"/>
      <use x="201.904297" xlink:href="#DejaVuSans-115"/>
      <use x="254.003906" xlink:href="#DejaVuSans-105"/>
      <use x="281.787109" xlink:href="#DejaVuSans-116"/>
      <use x="320.996094" xlink:href="#DejaVuSans-121"/>
     </g>
    </g>
   </g>
   <g id="line2d_16">
    <path clip-path="url(#pe50b0d5086)" d="M 73.844539 307.52796 
L 74.140236 307.364956 
L 74.435932 306.83934 
L 74.731629 305.375089 
L 75.027326 301.844584 
L 75.323023 294.461233 
L 75.61872 281.036715 
L 75.914417 259.761151 
L 76.505811 194.562287 
L 77.392902 92.636785 
L 77.688599 73.008491 
L 77.984295 62.369216 
L 78.279992 59.262092 
L 78.575689 61.694622 
L 78.871386 67.853712 
L 79.46278 86.221466 
L 80.941265 135.659802 
L 82.124052 166.832463 
L 83.898234 207.020476 
L 85.081021 228.585619 
L 86.263809 247.392762 
L 87.1509 257.278766 
L 88.037991 264.664237 
L 88.925081 270.007764 
L 91.290657 283.142983 
L 93.064838 290.439525 
L 93.951929 292.816185 
L 95.134717 295.654309 
L 96.613201 298.49988 
L 97.500292 300.180325 
L 98.091686 300.858004 
L 99.274473 301.946064 
L 100.161564 302.816959 
L 101.640049 303.710706 
L 103.118533 305.181959 
L 104.005624 305.612382 
L 107.553987 306.518975 
L 108.441078 306.798404 
L 109.328168 307.131278 
L 110.215259 307.217954 
L 111.989441 307.087242 
L 113.467925 306.938741 
L 114.355016 307.121147 
L 115.537804 307.400489 
L 117.016288 307.518724 
L 118.199076 307.417819 
L 119.67756 307.270908 
L 124.408711 307.552622 
L 126.478589 307.573532 
L 130.026952 307.525281 
L 132.688225 307.583425 
L 132.688225 307.583425 
" style="fill:none;stroke:#9467bd;stroke-linecap:round;stroke-width:1.5;"/>
   </g>
   <g id="line2d_17">
    <path clip-path="url(#pe50b0d5086)" d="M 74.149079 307.529656 
L 74.452727 307.321231 
L 74.756375 306.532272 
L 75.060022 304.080583 
L 75.36367 297.808863 
L 75.667317 284.561753 
L 75.970965 261.381159 
L 76.57826 186.596507 
L 77.185555 108.08227 
L 77.489202 81.013908 
L 77.79285 64.010755 
L 78.096497 55.686203 
L 78.400145 54.144 
L 78.703792 57.710224 
L 79.311087 74.584508 
L 81.132973 136.109549 
L 82.954858 185.639633 
L 83.8658 205.463727 
L 85.384038 231.076734 
L 86.294981 243.97076 
L 87.205923 254.268973 
L 87.813218 259.294154 
L 91.760636 283.961336 
L 93.278874 291.341588 
L 94.493464 301.119076 
L 94.797111 302.014453 
L 95.100759 302.356951 
L 95.708054 302.752052 
L 97.226292 304.673155 
L 97.833587 304.962977 
L 100.870062 305.815617 
L 101.781005 305.780636 
L 103.906537 306.435435 
L 105.121127 306.632971 
L 106.335718 306.862135 
L 109.979488 307.10941 
L 113.623258 307.434797 
L 114.534201 307.456834 
L 116.052439 307.582236 
L 134.574938 307.583341 
L 134.574938 307.583341 
" style="fill:none;stroke:#d62728;stroke-linecap:round;stroke-width:1.5;"/>
   </g>
   <g id="line2d_18">
    <path clip-path="url(#pe50b0d5086)" d="M 73.832727 307.533141 
L 74.11048 307.397164 
L 74.388233 306.978282 
L 74.665986 305.84663 
L 74.943739 303.161739 
L 75.221492 297.558416 
L 75.499244 287.251899 
L 75.776997 270.506878 
L 76.332503 215.668949 
L 77.443514 89.27393 
L 77.721267 72.548938 
L 77.99902 63.524779 
L 78.276773 60.741237 
L 78.554526 62.383213 
L 79.110032 73.059489 
L 79.94329 97.281529 
L 82.443066 180.468184 
L 83.83183 207.525743 
L 84.942842 226.971005 
L 86.609359 248.763357 
L 87.72037 260.364137 
L 88.553629 266.624925 
L 90.497899 279.091762 
L 91.331158 284.687741 
L 91.886663 287.426976 
L 92.442169 289.057638 
L 93.275428 290.743738 
L 94.108686 293.315435 
L 94.941945 295.820268 
L 95.497451 296.832447 
L 96.330709 297.991547 
L 97.719474 300.228911 
L 100.774755 304.174826 
L 101.330261 304.724933 
L 101.885766 304.919518 
L 102.441272 304.697411 
L 102.996778 304.4715 
L 103.552284 304.595892 
L 105.496554 305.736629 
L 106.885318 306.539907 
L 107.440824 306.603541 
L 108.551835 306.462343 
L 109.385094 306.687089 
L 110.496105 307.024582 
L 112.440375 307.205863 
L 118.273185 307.477211 
L 122.717231 307.489634 
L 124.939254 307.501072 
L 126.328018 307.494348 
L 127.716783 307.540475 
L 129.105547 307.583299 
L 129.105547 307.583299 
" style="fill:none;stroke:#2ca02c;stroke-linecap:round;stroke-width:1.5;"/>
   </g>
   <g id="line2d_19">
    <path clip-path="url(#pe50b0d5086)" d="M 73.922676 307.529463 
L 74.190165 307.388212 
L 74.457654 306.961594 
L 74.725143 305.82767 
L 74.992633 303.171969 
L 75.260122 297.683297 
L 75.527611 287.655625 
L 75.7951 271.42794 
L 76.330078 218.290275 
L 77.400035 91.78197 
L 77.935013 62.558838 
L 78.202502 58.538342 
L 78.469992 59.875827 
L 78.737481 65.020072 
L 79.539948 90.666814 
L 80.609905 124.632671 
L 83.017307 190.36316 
L 83.819775 207.335556 
L 84.622242 220.09766 
L 87.832112 261.413129 
L 88.634579 268.349036 
L 89.437047 273.312181 
L 91.57696 283.801118 
L 92.646917 288.136097 
L 93.984362 292.574931 
L 95.589297 296.637331 
L 96.659254 298.770573 
L 97.72921 301.191025 
L 98.264189 301.792353 
L 99.334145 302.499132 
L 100.93908 304.330674 
L 102.276526 304.677234 
L 103.613972 305.839283 
L 105.753885 306.689746 
L 107.091331 306.686395 
L 109.231244 306.878583 
L 110.836179 306.824358 
L 115.650983 307.546194 
L 127.153017 307.583406 
L 127.153017 307.583406 
" style="fill:none;stroke:#ff7f0e;stroke-linecap:round;stroke-width:1.5;"/>
   </g>
   <g id="line2d_20">
    <path clip-path="url(#pe50b0d5086)" d="M 73.870215 307.511169 
L 74.175586 307.298985 
L 74.480956 306.618805 
L 74.786327 304.745949 
L 75.091698 300.308868 
L 75.397069 291.246153 
L 75.70244 275.251519 
L 76.313181 218.306688 
L 77.229294 109.048442 
L 77.534665 83.395477 
L 77.840035 67.091552 
L 78.145406 59.678696 
L 78.450777 59.53552 
L 78.756148 64.595187 
L 79.366889 82.813333 
L 81.504485 153.296764 
L 82.420598 179.089389 
L 83.642081 205.150803 
L 84.863564 226.708651 
L 85.474306 235.03767 
L 88.528014 267.478367 
L 89.444126 272.899446 
L 91.887093 285.715905 
L 92.803205 288.957928 
L 93.719318 292.097773 
L 94.63543 295.652454 
L 95.246172 297.043315 
L 95.856914 297.562718 
L 96.773026 298.02003 
L 97.383768 298.724344 
L 99.521363 302.367516 
L 100.742847 304.216811 
L 101.048218 304.464903 
L 101.353588 304.546605 
L 101.96433 304.334343 
L 102.575072 304.061466 
L 102.880442 304.077259 
L 103.185813 304.243815 
L 103.796555 304.931802 
L 104.407296 305.653097 
L 105.018038 306.01044 
L 105.62878 306.053883 
L 106.544892 306.016236 
L 107.461005 306.26213 
L 108.377117 306.488978 
L 110.514713 306.709201 
L 111.736196 306.917932 
L 112.652309 307.167552 
L 113.26305 307.31678 
L 114.179163 307.255032 
L 115.095275 307.216376 
L 119.370467 307.477572 
L 121.813433 307.532834 
L 123.340287 307.477648 
L 124.867141 307.459259 
L 126.699366 307.557716 
L 129.447704 307.540506 
L 131.279928 307.516765 
L 133.112153 307.547997 
L 134.639007 307.58343 
L 134.639007 307.58343 
" style="fill:none;stroke:#1f77b4;stroke-linecap:round;stroke-width:1.5;"/>
   </g>
   <g id="line2d_21">
    <path clip-path="url(#pe50b0d5086)" d="M 76.590102 307.58224 
L 78.637902 307.494206 
L 79.661801 307.210838 
L 80.173751 306.90539 
L 80.685701 306.429008 
L 81.197651 305.730312 
L 81.709601 304.759174 
L 82.22155 303.47246 
L 83.24545 299.850239 
L 84.26935 294.826387 
L 85.293249 288.564834 
L 87.341049 273.817248 
L 90.924698 247.307711 
L 91.948597 241.414073 
L 92.972497 236.553488 
L 93.996397 232.650252 
L 95.020296 229.743008 
L 95.532246 228.717876 
L 96.044196 228.037193 
L 96.556146 227.750592 
L 97.068096 227.891354 
L 97.580045 228.455563 
L 98.091995 229.38586 
L 99.627845 233.194404 
L 103.723443 243.453416 
L 104.747343 246.900943 
L 109.354892 264.571069 
L 110.378791 267.583974 
L 111.914641 271.693652 
L 113.45049 276.787142 
L 114.98634 281.813796 
L 116.010239 284.369748 
L 119.593888 291.932404 
L 121.129738 294.72643 
L 122.665587 297.070341 
L 123.689487 298.292882 
L 125.225336 299.700299 
L 127.273136 301.354096 
L 128.297035 301.88578 
L 129.832885 302.480201 
L 134.440433 304.949674 
L 135.976283 305.60995 
L 137.512132 306.008136 
L 141.095781 306.668367 
L 144.16748 307.048908 
L 148.263079 307.344822 
L 151.846728 307.356087 
L 155.430377 307.570497 
L 162.085724 307.544321 
L 178.468119 307.58371 
L 178.468119 307.58371 
" style="fill:none;stroke:#9467bd;stroke-linecap:round;stroke-width:1.5;"/>
   </g>
   <g id="line2d_22">
    <path clip-path="url(#pe50b0d5086)" d="M 76.927828 307.582156 
L 78.824465 307.504079 
L 79.772784 307.256698 
L 80.246943 306.987244 
L 80.721102 306.562549 
L 81.195262 305.934324 
L 81.669421 305.057259 
L 82.14358 303.894969 
L 83.091899 300.637787 
L 84.040217 296.147705 
L 84.988536 290.542608 
L 86.411014 280.364258 
L 89.730129 254.967739 
L 91.152607 245.795955 
L 92.100926 240.976015 
L 93.523404 235.234634 
L 94.471722 232.189014 
L 95.420041 230.041297 
L 95.8942 229.391678 
L 96.36836 229.0363 
L 96.842519 228.951315 
L 97.316678 229.089303 
L 98.264997 229.802299 
L 99.213316 230.877043 
L 100.161634 232.497382 
L 101.109953 235.084071 
L 102.532431 240.448952 
L 103.954909 245.493068 
L 105.851546 250.862023 
L 106.799865 253.72575 
L 107.748183 257.153085 
L 111.067298 270.036154 
L 112.489776 274.442748 
L 114.860573 281.431624 
L 116.75721 287.081732 
L 117.705529 289.217256 
L 119.128007 291.637455 
L 121.972963 296.054684 
L 122.921281 297.032575 
L 124.817919 298.71322 
L 126.714556 300.616085 
L 127.662874 301.274742 
L 130.033671 302.674054 
L 131.930308 303.940487 
L 133.826946 304.884318 
L 135.723583 305.637361 
L 137.62022 306.0653 
L 139.042698 306.196295 
L 141.413495 306.244173 
L 143.310132 306.72497 
L 144.73261 306.993578 
L 151.845 307.582551 
L 171.285531 307.583709 
L 171.285531 307.583709 
" style="fill:none;stroke:#d62728;stroke-linecap:round;stroke-width:1.5;"/>
   </g>
   <g id="line2d_23">
    <path clip-path="url(#pe50b0d5086)" d="M 75.535262 307.583426 
L 78.355219 307.502063 
L 79.295204 307.318699 
L 80.235189 306.853953 
L 80.705182 306.436283 
L 81.175175 305.840272 
L 81.645168 305.021787 
L 82.11516 303.939213 
L 83.055146 300.851987 
L 83.995131 296.432078 
L 84.935116 290.750005 
L 86.345095 280.586544 
L 89.165051 259.674956 
L 90.575029 250.503483 
L 91.985007 242.872628 
L 93.394985 236.513637 
L 94.33497 233.16685 
L 95.274956 230.828636 
L 95.744948 230.096029 
L 96.214941 229.671305 
L 96.684934 229.543568 
L 97.154927 229.671118 
L 98.094912 230.399427 
L 99.974883 232.335176 
L 100.914868 233.90397 
L 101.854854 236.310038 
L 103.264832 241.043453 
L 114.074664 280.151017 
L 115.484642 283.608675 
L 117.364613 287.409058 
L 121.124554 294.688261 
L 123.004525 297.709052 
L 123.94451 298.918362 
L 124.884496 299.778008 
L 128.174445 301.919023 
L 129.584423 302.794193 
L 131.464393 303.642807 
L 137.574299 305.791861 
L 146.034167 306.987976 
L 147.914138 307.071564 
L 151.674079 307.424602 
L 154.964028 307.436402 
L 159.193963 307.448948 
L 166.713846 307.574397 
L 169.063809 307.583713 
L 169.063809 307.583713 
" style="fill:none;stroke:#2ca02c;stroke-linecap:round;stroke-width:1.5;"/>
   </g>
   <g id="line2d_24">
    <path clip-path="url(#pe50b0d5086)" d="M 75.846979 307.58293 
L 78.366886 307.490309 
L 79.374849 307.248783 
L 79.878831 307.000741 
L 80.382812 306.616211 
L 80.886794 306.04545 
L 81.390775 305.233066 
L 81.894756 304.124652 
L 82.398738 302.676535 
L 83.406701 298.697517 
L 84.414664 293.424521 
L 85.926608 283.763684 
L 87.438552 272.268144 
L 89.454478 256.624248 
L 90.462441 250.292026 
L 91.974385 242.16847 
L 93.486329 235.134736 
L 94.494292 231.701086 
L 94.998274 230.488783 
L 95.502255 229.626849 
L 96.006237 229.094572 
L 96.510218 228.839759 
L 97.014199 228.790512 
L 97.518181 228.885869 
L 98.022162 229.107343 
L 98.526144 229.486794 
L 99.030125 230.081909 
L 99.534107 230.936058 
L 100.542069 233.396454 
L 101.550032 236.631024 
L 103.061977 242.64613 
L 104.573921 248.839901 
L 106.085865 253.870931 
L 108.605772 261.988202 
L 112.133642 273.671357 
L 115.661512 284.08123 
L 117.677438 288.914232 
L 118.685401 291.04416 
L 119.693364 292.761375 
L 121.205308 294.711363 
L 124.733178 298.998723 
L 126.749104 300.564011 
L 128.261048 301.464398 
L 130.780955 302.68516 
L 132.796881 303.915432 
L 134.308825 304.451799 
L 136.324751 305.176517 
L 138.844658 306.08736 
L 140.356603 306.407073 
L 144.388454 306.838846 
L 148.924287 307.119358 
L 152.956138 307.341244 
L 169.083544 307.541981 
L 176.139284 307.583708 
L 176.139284 307.583708 
" style="fill:none;stroke:#ff7f0e;stroke-linecap:round;stroke-width:1.5;"/>
   </g>
   <g id="line2d_25">
    <path clip-path="url(#pe50b0d5086)" d="M 75.399004 307.583617 
L 78.264659 307.52209 
L 79.219877 307.367495 
L 80.175095 306.947377 
L 80.652704 306.554136 
L 81.130313 305.977761 
L 81.607922 305.167393 
L 82.085531 304.077033 
L 83.040749 300.950326 
L 83.995968 296.579151 
L 84.951186 291.092838 
L 85.906404 284.513839 
L 87.339231 272.79899 
L 89.249668 256.813785 
L 90.682495 246.340064 
L 91.637713 240.283275 
L 92.592931 235.645078 
L 93.07054 234.001263 
L 93.548149 232.785201 
L 94.025758 231.922123 
L 94.503367 231.321905 
L 95.458586 230.639026 
L 95.936195 230.501056 
L 96.413804 230.500711 
L 96.891413 230.641563 
L 97.846631 231.282281 
L 98.801849 232.229498 
L 99.757067 233.496068 
L 100.712286 235.347039 
L 101.667504 237.943652 
L 103.100331 242.954997 
L 105.010767 249.74788 
L 107.876422 258.90972 
L 109.786858 266.215549 
L 111.697295 273.475942 
L 113.130122 277.917691 
L 114.562949 281.346343 
L 116.473385 285.244891 
L 119.816649 291.294783 
L 121.249476 294.070301 
L 123.159913 297.128636 
L 124.115131 298.389243 
L 125.070349 299.347637 
L 126.503176 300.340285 
L 128.413613 301.620366 
L 130.801658 303.472931 
L 131.756876 304.001348 
L 133.189703 304.49308 
L 138.443403 305.869104 
L 142.741885 306.622555 
L 146.085149 307.269445 
L 147.995585 307.386822 
L 164.234294 307.571221 
L 170.443212 307.583714 
L 170.443212 307.583714 
" style="fill:none;stroke:#1f77b4;stroke-linecap:round;stroke-width:1.5;"/>
   </g>
   <g id="line2d_26">
    <path clip-path="url(#pe50b0d5086)" d="M 80.840841 307.583727 
L 86.686669 307.47289 
L 88.440417 307.263605 
L 89.609583 306.96547 
L 90.778749 306.461976 
L 91.947914 305.688581 
L 93.11708 304.56752 
L 94.286245 303.024451 
L 95.455411 301.041159 
L 96.624577 298.65836 
L 98.378325 294.489628 
L 100.132073 289.74487 
L 101.885822 284.352227 
L 103.63957 278.161636 
L 106.562484 267.495538 
L 107.73165 263.892931 
L 108.900815 260.869213 
L 110.069981 258.381765 
L 111.823729 255.269888 
L 113.577478 252.599142 
L 114.746643 251.33074 
L 115.331226 250.929441 
L 116.500392 250.522058 
L 117.669557 250.416446 
L 118.25414 250.465471 
L 118.838723 250.637364 
L 119.423306 250.986135 
L 120.007889 251.545876 
L 121.177054 253.267803 
L 122.930803 256.725813 
L 124.684551 260.160376 
L 125.853717 261.962228 
L 127.607465 264.277204 
L 128.77663 266.317229 
L 129.945796 269.054768 
L 133.453293 278.258504 
L 134.622458 280.308667 
L 136.376207 282.694077 
L 138.714538 285.899792 
L 141.052869 289.441592 
L 144.560366 294.951814 
L 145.729532 296.328704 
L 147.48328 297.911587 
L 149.821611 299.616677 
L 152.159942 300.98003 
L 154.498274 302.370571 
L 156.836605 303.848462 
L 158.590353 304.555733 
L 162.682433 305.717974 
L 165.020764 306.167743 
L 172.62034 307.023959 
L 180.219917 307.374779 
L 186.650327 307.466859 
L 197.172818 307.583733 
L 197.172818 307.583733 
" style="fill:none;stroke:#9467bd;stroke-linecap:round;stroke-width:1.5;"/>
   </g>
   <g id="line2d_27">
    <path clip-path="url(#pe50b0d5086)" d="M 81.782463 307.583648 
L 86.612956 307.488227 
L 88.424391 307.254326 
L 89.632015 306.915001 
L 90.839638 306.337394 
L 92.047261 305.483702 
L 93.254884 304.365625 
L 94.462508 302.934778 
L 95.670131 301.010543 
L 96.877754 298.442421 
L 98.689189 293.628188 
L 101.104436 286.317173 
L 102.91587 280.042996 
L 106.53874 266.526934 
L 107.746364 263.039048 
L 108.953987 260.3375 
L 110.765422 257.105322 
L 112.576857 254.268926 
L 114.388292 251.928815 
L 115.595915 250.670093 
L 116.199726 250.195187 
L 116.803538 249.874287 
L 117.40735 249.732277 
L 118.011161 249.772115 
L 118.614973 249.978948 
L 119.218785 250.333845 
L 119.822596 250.829063 
L 120.426408 251.475675 
L 121.030219 252.298271 
L 122.237843 254.537719 
L 124.049278 258.953235 
L 125.860713 263.27677 
L 129.483582 270.871866 
L 131.295017 274.22687 
L 133.106452 276.836917 
L 134.917887 279.459812 
L 136.12551 281.661756 
L 139.144569 287.74111 
L 140.352192 289.603381 
L 142.163627 291.889201 
L 144.578873 294.667208 
L 149.409366 299.592671 
L 150.61699 300.505438 
L 151.824613 301.123129 
L 155.447483 302.692754 
L 157.862729 303.827522 
L 159.674164 304.416017 
L 162.693222 305.296546 
L 165.108469 306.045596 
L 166.919904 306.382771 
L 170.542773 306.73822 
L 183.222818 307.46057 
L 188.053311 307.533884 
L 200.129544 307.580884 
L 201.940978 307.58373 
L 201.940978 307.58373 
" style="fill:none;stroke:#d62728;stroke-linecap:round;stroke-width:1.5;"/>
   </g>
   <g id="line2d_28">
    <path clip-path="url(#pe50b0d5086)" d="M 82.206038 307.583659 
L 86.611766 307.51239 
L 88.499934 307.289537 
L 89.758714 306.941084 
L 91.017493 306.320657 
L 92.276272 305.338026 
L 93.535051 303.922516 
L 94.793831 302.025557 
L 96.05261 299.664456 
L 97.311389 296.903192 
L 98.570168 293.735929 
L 99.828947 290.066638 
L 101.087727 285.841039 
L 102.975895 278.701834 
L 106.122843 266.625393 
L 108.011012 260.350959 
L 109.269791 257.05666 
L 109.899181 255.821586 
L 110.528571 254.86896 
L 111.78735 253.598325 
L 113.046129 252.739313 
L 114.304908 252.103834 
L 114.934298 251.917505 
L 115.563688 251.849457 
L 116.193077 251.911671 
L 116.822467 252.112258 
L 117.451856 252.460203 
L 118.710636 253.603067 
L 123.745752 259.656074 
L 125.004532 261.692914 
L 129.410259 269.821429 
L 131.298428 273.074142 
L 138.221713 285.880178 
L 141.368661 290.579892 
L 143.88622 294.049239 
L 145.144999 295.563627 
L 146.403778 296.809702 
L 151.438895 300.999411 
L 152.697674 301.754035 
L 154.585843 302.517208 
L 157.103402 303.568873 
L 159.62096 304.602507 
L 162.138519 305.318674 
L 165.285467 306.005325 
L 167.803025 306.318599 
L 182.908376 307.458199 
L 207.45457 307.583786 
L 207.45457 307.583786 
" style="fill:none;stroke:#2ca02c;stroke-linecap:round;stroke-width:1.5;"/>
   </g>
   <g id="line2d_29">
    <path clip-path="url(#pe50b0d5086)" d="M 82.919357 307.583588 
L 87.258724 307.480435 
L 88.498543 307.296226 
L 89.738362 306.920471 
L 90.978181 306.273664 
L 92.218 305.299703 
L 93.457819 303.955327 
L 94.697638 302.192811 
L 95.937457 300.012585 
L 97.797186 296.132215 
L 99.037005 293.088037 
L 100.276824 289.450296 
L 102.756462 280.932392 
L 107.095829 265.952281 
L 108.335648 262.548496 
L 109.575467 259.824992 
L 111.435196 256.485393 
L 112.675015 254.611466 
L 113.914834 253.153474 
L 114.534744 252.63182 
L 115.154653 252.266958 
L 115.774563 252.061146 
L 116.394472 252.004712 
L 117.634291 252.26097 
L 118.874111 252.899425 
L 120.11393 253.911445 
L 121.353749 255.3535 
L 122.593568 257.214713 
L 125.073206 261.64177 
L 128.172754 267.202266 
L 130.032482 270.068497 
L 131.892211 272.999485 
L 133.75194 276.70299 
L 135.611668 280.445277 
L 138.091306 284.882207 
L 139.951035 287.868746 
L 142.430673 291.31917 
L 144.290402 293.547725 
L 147.389949 296.720407 
L 149.249678 298.369995 
L 152.969135 301.247342 
L 154.208954 302.018805 
L 158.548321 304.158392 
L 159.78814 304.640073 
L 161.647869 305.084641 
L 168.466874 306.353258 
L 170.326603 306.728472 
L 172.186331 306.854589 
L 175.905788 307.009438 
L 179.625246 307.174862 
L 183.344703 307.337806 
L 187.06416 307.45948 
L 206.281356 307.583787 
L 206.281356 307.583787 
" style="fill:none;stroke:#ff7f0e;stroke-linecap:round;stroke-width:1.5;"/>
   </g>
   <g id="line2d_30">
    <path clip-path="url(#pe50b0d5086)" d="M 82.184841 307.583488 
L 86.650187 307.489652 
L 88.563907 307.229159 
L 89.83972 306.843867 
L 91.115533 306.196887 
L 92.391347 305.238948 
L 93.66716 303.938503 
L 94.942973 302.267071 
L 96.218786 300.166523 
L 97.494599 297.499321 
L 98.770413 294.178184 
L 100.684132 288.255217 
L 102.597852 281.586077 
L 106.425292 267.524014 
L 107.701105 263.629662 
L 109.614825 258.719356 
L 110.890638 255.962621 
L 112.166451 253.731284 
L 113.442265 252.146908 
L 114.080171 251.652446 
L 114.718078 251.376227 
L 115.355984 251.297813 
L 116.631798 251.482949 
L 119.821331 252.044531 
L 120.459237 252.407072 
L 121.097144 252.965594 
L 121.73505 253.736965 
L 123.010864 255.91219 
L 124.286677 258.766559 
L 127.47621 266.362016 
L 128.752023 268.880059 
L 130.665743 272.075854 
L 132.579463 275.319331 
L 135.131089 280.246576 
L 137.044809 283.807688 
L 139.596435 287.960924 
L 142.148062 291.819419 
L 144.061782 294.259315 
L 145.975501 296.190453 
L 147.889221 297.766335 
L 151.078754 300.142385 
L 152.992474 301.639518 
L 154.268287 302.427225 
L 155.5441 302.990772 
L 163.836886 305.641371 
L 168.302233 306.536735 
L 171.491766 306.938175 
L 174.681299 307.076464 
L 191.26687 307.555782 
L 209.128255 307.583784 
L 209.128255 307.583784 
" style="fill:none;stroke:#1f77b4;stroke-linecap:round;stroke-width:1.5;"/>
   </g>
   <g id="line2d_31">
    <path clip-path="url(#pe50b0d5086)" d="M 90.494385 307.583491 
L 95.868288 307.49763 
L 99.70679 307.208963 
L 102.009891 306.852779 
L 103.545292 306.432131 
L 105.080693 305.800176 
L 106.616094 304.860318 
L 108.151495 303.5259 
L 109.686896 301.795523 
L 111.222296 299.699595 
L 112.757697 297.225479 
L 114.293098 294.373585 
L 117.3639 288.026555 
L 125.808604 270.342503 
L 127.344005 267.877327 
L 128.879406 265.821174 
L 130.414806 264.171021 
L 131.950207 262.975762 
L 133.485608 262.201608 
L 135.021009 261.716942 
L 136.55641 261.484659 
L 138.091811 261.567403 
L 139.627211 261.997879 
L 141.162612 262.833626 
L 142.698013 264.115369 
L 144.233414 265.814329 
L 145.768815 267.888008 
L 150.375017 274.606988 
L 153.445819 278.399683 
L 155.74892 281.385519 
L 161.890523 289.723317 
L 164.961325 293.672335 
L 166.496725 295.236079 
L 168.032126 296.414066 
L 177.244531 302.060613 
L 179.547632 302.93998 
L 184.921535 304.642151 
L 187.224636 305.424841 
L 188.760037 305.742815 
L 197.972442 306.853533 
L 202.578645 307.182585 
L 207.184847 307.303009 
L 216.397252 307.4737 
L 224.841956 307.549952 
L 237.125163 307.568779 
L 243.266766 307.583819 
L 243.266766 307.583819 
" style="fill:none;stroke:#9467bd;stroke-linecap:round;stroke-width:1.5;"/>
   </g>
   <g id="line2d_32">
    <path clip-path="url(#pe50b0d5086)" d="M 91.489549 307.583684 
L 97.338715 307.502387 
L 100.263298 307.238915 
L 101.725589 306.947997 
L 103.187881 306.499377 
L 104.650172 305.884227 
L 106.112463 305.082323 
L 107.574755 304.040949 
L 109.037046 302.704098 
L 110.499338 301.044546 
L 112.692775 298.042843 
L 114.886212 294.556384 
L 116.348504 291.772199 
L 117.810795 288.467589 
L 122.928815 275.97452 
L 124.391107 273.284978 
L 127.315689 268.670061 
L 129.509127 265.317289 
L 130.971418 263.438795 
L 132.433709 262.09764 
L 133.164855 261.660767 
L 133.896001 261.388054 
L 134.627147 261.270314 
L 136.089438 261.355197 
L 139.745167 261.829966 
L 140.476312 262.077776 
L 141.207458 262.467447 
L 141.938604 263.014947 
L 143.400895 264.547721 
L 145.594332 267.486475 
L 149.981207 273.59129 
L 160.217247 286.938971 
L 163.14183 291.059526 
L 164.604121 292.695043 
L 167.528704 295.473903 
L 170.453287 298.053246 
L 172.646724 299.673327 
L 174.840161 300.898167 
L 178.49589 302.576075 
L 180.689327 303.30601 
L 191.656513 306.114467 
L 197.505679 306.827944 
L 200.430262 307.145295 
L 204.08599 307.252142 
L 209.935156 307.425591 
L 216.515467 307.504861 
L 236.987548 307.583817 
L 236.987548 307.583817 
" style="fill:none;stroke:#d62728;stroke-linecap:round;stroke-width:1.5;"/>
   </g>
   <g id="line2d_33">
    <path clip-path="url(#pe50b0d5086)" d="M 91.466799 307.5837 
L 97.32755 307.491554 
L 99.525332 307.279388 
L 101.723113 306.834188 
L 103.188301 306.372409 
L 104.653489 305.735804 
L 106.118677 304.846812 
L 107.583865 303.651994 
L 109.781646 301.399858 
L 111.979428 298.811566 
L 113.444616 296.817333 
L 114.909804 294.490528 
L 116.374991 291.830475 
L 117.840179 288.852467 
L 119.305367 285.506096 
L 125.166118 271.235438 
L 126.631306 268.585435 
L 127.3639 267.578972 
L 128.829088 266.09526 
L 131.759464 263.494595 
L 133.224651 262.199083 
L 134.689839 261.297628 
L 136.155027 260.829097 
L 137.620215 260.69433 
L 139.085403 260.890817 
L 139.817997 261.151816 
L 140.55059 261.554817 
L 141.283184 262.119921 
L 142.748372 263.713311 
L 149.341717 272.363423 
L 153.737281 279.141319 
L 155.935063 281.889488 
L 158.132844 284.538445 
L 163.261002 291.08472 
L 166.191377 294.156479 
L 169.121753 296.881792 
L 171.319535 298.592048 
L 173.517316 299.92902 
L 180.110662 303.41984 
L 182.308443 304.255482 
L 185.238819 305.096717 
L 187.436601 305.510427 
L 196.960321 306.743386 
L 202.088479 307.109634 
L 220.403326 307.521034 
L 236.520392 307.583553 
L 237.252986 307.583818 
L 237.252986 307.583818 
" style="fill:none;stroke:#2ca02c;stroke-linecap:round;stroke-width:1.5;"/>
   </g>
   <g id="line2d_34">
    <path clip-path="url(#pe50b0d5086)" d="M 90.128617 307.583602 
L 95.877993 307.499424 
L 98.342011 307.296384 
L 100.806029 306.862855 
L 102.448708 306.388232 
L 104.091386 305.736685 
L 105.734065 304.881749 
L 107.376744 303.76435 
L 109.019423 302.298843 
L 110.662101 300.407395 
L 112.30478 298.084922 
L 114.768798 294.121181 
L 116.411477 291.197229 
L 118.054156 287.809689 
L 122.160853 278.71788 
L 123.803532 275.605874 
L 126.26755 271.54816 
L 130.374247 265.397191 
L 132.016925 263.442754 
L 132.838265 262.726173 
L 133.659604 262.179398 
L 134.480944 261.777422 
L 135.302283 261.503348 
L 136.123622 261.364835 
L 136.944962 261.391559 
L 137.766301 261.613838 
L 138.587641 262.037225 
L 140.230319 263.344294 
L 143.515677 266.569554 
L 145.979695 269.194492 
L 148.443713 272.211832 
L 155.014428 280.700824 
L 159.942464 286.356057 
L 163.227822 290.682561 
L 164.870501 292.525761 
L 166.51318 294.034185 
L 168.155858 295.212582 
L 171.441216 297.452035 
L 173.905234 299.061964 
L 180.475949 302.524497 
L 182.939967 303.503837 
L 187.868004 305.148027 
L 190.332022 305.733197 
L 193.617379 306.27456 
L 199.366755 306.762635 
L 204.294791 306.985377 
L 216.614882 307.441257 
L 233.863009 307.571835 
L 251.932475 307.582945 
L 253.575154 307.583826 
L 253.575154 307.583826 
" style="fill:none;stroke:#ff7f0e;stroke-linecap:round;stroke-width:1.5;"/>
   </g>
   <g id="line2d_35">
    <path clip-path="url(#pe50b0d5086)" d="M 87.17287 307.583815 
L 96.781166 307.485912 
L 99.183241 307.296486 
L 100.784623 307.029259 
L 102.386006 306.597082 
L 103.987389 305.975666 
L 105.588771 305.146075 
L 107.190154 304.062353 
L 108.791537 302.640116 
L 110.39292 300.765775 
L 111.994302 298.389187 
L 114.396376 294.16898 
L 117.599142 287.995883 
L 120.801907 281.310768 
L 124.805364 272.967028 
L 127.207438 268.310175 
L 128.808821 265.860239 
L 129.609512 264.96639 
L 130.410203 264.279386 
L 132.011586 263.31855 
L 136.015043 261.409053 
L 136.815734 261.177986 
L 137.616426 261.116083 
L 138.417117 261.269561 
L 139.217808 261.660338 
L 140.0185 262.277006 
L 141.619882 263.973502 
L 144.021956 266.629213 
L 147.224722 269.868483 
L 148.826105 271.907948 
L 157.63371 284.340764 
L 160.836475 288.273641 
L 163.238549 290.892701 
L 166.441314 294.065027 
L 168.843389 296.097101 
L 172.846845 299.247215 
L 174.448228 300.460705 
L 176.049611 301.428432 
L 178.451685 302.53823 
L 181.65445 303.682726 
L 184.857216 304.626127 
L 188.059981 305.301987 
L 196.867586 306.767219 
L 202.472426 307.22544 
L 211.28003 307.452069 
L 218.486253 307.451909 
L 224.091092 307.495803 
L 229.695932 307.553241 
L 246.51045 307.583821 
L 246.51045 307.583821 
" style="fill:none;stroke:#1f77b4;stroke-linecap:round;stroke-width:1.5;"/>
   </g>
   <g id="line2d_36">
    <path clip-path="url(#pe50b0d5086)" d="M 105.927839 307.583828 
L 117.086661 307.49491 
L 120.434308 307.338359 
L 123.781955 306.915739 
L 127.129602 306.167186 
L 129.361367 305.419835 
L 131.593131 304.38496 
L 133.824896 303.083816 
L 136.05666 301.441319 
L 138.288425 299.359334 
L 141.636072 295.74646 
L 144.983718 291.77723 
L 149.447248 286.143407 
L 152.794894 281.859738 
L 156.142541 277.979837 
L 158.374306 275.58258 
L 160.60607 273.572416 
L 162.837835 272.064468 
L 165.0696 271.020181 
L 166.185482 270.669756 
L 167.301364 270.447315 
L 168.417246 270.359229 
L 170.649011 270.548147 
L 172.880775 271.127731 
L 175.11254 272.077131 
L 177.344305 273.358446 
L 179.576069 274.855428 
L 181.807834 276.58649 
L 184.039598 278.616949 
L 191.850774 286.155178 
L 196.314303 289.45272 
L 201.893715 294.33561 
L 204.125479 295.819428 
L 211.936655 300.591356 
L 214.16842 301.651268 
L 216.400184 302.412839 
L 227.559007 305.451085 
L 229.790772 305.855496 
L 234.254301 306.343007 
L 246.529006 307.281478 
L 250.992535 307.30463 
L 255.456064 307.420298 
L 261.035476 307.537363 
L 286.700768 307.570945 
L 327.988412 307.583853 
L 327.988412 307.583853 
" style="fill:none;stroke:#9467bd;stroke-linecap:round;stroke-width:1.5;"/>
   </g>
   <g id="line2d_37">
    <path clip-path="url(#pe50b0d5086)" d="M 107.422493 307.583611 
L 116.530489 307.470314 
L 121.995287 307.210364 
L 124.727686 306.848451 
L 127.460085 306.237457 
L 129.281685 305.613192 
L 131.103284 304.735994 
L 132.924883 303.608154 
L 135.657282 301.619102 
L 137.478881 300.124075 
L 139.300481 298.397306 
L 141.12208 296.40362 
L 145.676078 290.929042 
L 147.497677 288.611403 
L 150.230076 284.6439 
L 152.962475 280.678469 
L 154.784075 278.494536 
L 156.605674 276.760705 
L 158.427273 275.422211 
L 162.981271 272.723266 
L 165.71367 271.125264 
L 167.53527 270.369285 
L 168.446069 270.156055 
L 169.356869 270.062965 
L 170.267669 270.087145 
L 172.089268 270.464172 
L 173.910867 271.243132 
L 175.732466 272.353715 
L 181.197264 276.087576 
L 183.018864 277.273347 
L 184.840463 278.701499 
L 186.662062 280.411075 
L 189.394461 283.30809 
L 193.948459 288.475046 
L 195.770059 290.177799 
L 197.591658 291.599671 
L 205.788855 297.18601 
L 208.521254 298.85098 
L 211.253653 300.201324 
L 214.896851 301.78876 
L 217.62925 302.759726 
L 224.915647 304.854824 
L 228.558846 305.53267 
L 234.023644 306.423985 
L 238.577642 306.847228 
L 242.22084 306.990524 
L 246.774839 307.140353 
L 252.239637 307.415692 
L 264.990832 307.515999 
L 272.277229 307.539045 
L 285.939223 307.581976 
L 288.671622 307.583833 
L 288.671622 307.583833 
" style="fill:none;stroke:#d62728;stroke-linecap:round;stroke-width:1.5;"/>
   </g>
   <g id="line2d_38">
    <path clip-path="url(#pe50b0d5086)" d="M 111.089645 307.583618 
L 118.037103 307.481408 
L 121.510832 307.18694 
L 124.116129 306.777805 
L 127.589858 305.980206 
L 130.195154 305.164752 
L 131.932019 304.388501 
L 133.668883 303.311591 
L 135.405748 301.931298 
L 138.011045 299.524058 
L 140.616341 296.892028 
L 143.221638 293.890105 
L 145.826935 290.470877 
L 149.300664 285.819826 
L 155.379689 278.010681 
L 157.984986 274.716282 
L 159.72185 272.939528 
L 161.458715 271.558669 
L 163.195579 270.591591 
L 164.064012 270.281903 
L 164.932444 270.105868 
L 165.800876 270.073794 
L 166.669308 270.18251 
L 168.406173 270.708115 
L 171.011469 271.553461 
L 172.748334 271.827206 
L 175.353631 272.13631 
L 177.090495 272.640611 
L 178.827359 273.562974 
L 180.564224 274.881376 
L 183.169521 277.263088 
L 184.906385 279.047268 
L 187.511682 282.102623 
L 190.116978 285.075131 
L 192.722275 287.521755 
L 198.801301 292.667878 
L 201.406597 294.52405 
L 204.011894 295.987916 
L 207.485623 297.804762 
L 210.09092 299.549008 
L 212.696217 301.29961 
L 214.433081 302.197292 
L 216.169945 302.860282 
L 219.643674 303.82321 
L 226.591132 305.513515 
L 230.933293 306.099032 
L 234.407022 306.416498 
L 241.35448 306.952441 
L 246.565074 307.237817 
L 250.907235 307.348642 
L 258.723125 307.451798 
L 264.80215 307.563375 
L 283.90766 307.58385 
L 283.90766 307.58385 
" style="fill:none;stroke:#2ca02c;stroke-linecap:round;stroke-width:1.5;"/>
   </g>
   <g id="line2d_39">
    <path clip-path="url(#pe50b0d5086)" d="M 104.740508 307.583832 
L 117.305899 307.496076 
L 120.447246 307.332258 
L 123.588594 306.98002 
L 126.729942 306.41194 
L 128.824173 305.77099 
L 130.918405 304.841423 
L 133.012637 303.647426 
L 135.106869 302.201746 
L 137.2011 300.478922 
L 139.295332 298.47794 
L 142.43668 295.063097 
L 145.578028 291.306037 
L 149.766491 285.856738 
L 153.954955 280.514121 
L 157.096302 276.862426 
L 159.190534 274.77527 
L 161.284766 273.090193 
L 163.378998 271.82657 
L 164.426113 271.367402 
L 165.473229 271.041054 
L 166.520345 270.858949 
L 167.567461 270.823117 
L 168.614577 270.922874 
L 170.708809 271.428425 
L 178.03862 273.808506 
L 179.085736 274.44381 
L 180.132852 275.282726 
L 185.368431 280.317903 
L 189.556895 283.64361 
L 191.651126 285.650841 
L 194.792474 288.715658 
L 196.886706 290.406557 
L 200.028054 292.534082 
L 204.216517 295.325882 
L 209.452096 299.076606 
L 211.546328 300.239938 
L 213.64056 301.111467 
L 216.781908 302.147772 
L 219.923255 302.970592 
L 224.111719 303.896557 
L 231.44153 305.952273 
L 233.535762 306.290336 
L 236.677109 306.546715 
L 251.336732 307.284416 
L 265.996354 307.506816 
L 291.127135 307.583999 
L 313.116569 307.583856 
L 313.116569 307.583856 
" style="fill:none;stroke:#ff7f0e;stroke-linecap:round;stroke-width:1.5;"/>
   </g>
   <g id="line2d_40">
    <path clip-path="url(#pe50b0d5086)" d="M 101.887686 307.583852 
L 116.229004 307.493698 
L 121.009443 307.237445 
L 123.877707 306.917682 
L 126.74597 306.375629 
L 128.658146 305.829886 
L 130.570322 305.091534 
L 132.482497 304.128652 
L 134.394673 302.935261 
L 136.306849 301.513108 
L 138.219024 299.843059 
L 140.1312 297.865401 
L 142.043376 295.566528 
L 148.735991 287.180332 
L 153.51643 281.066436 
L 156.384693 277.22547 
L 158.296869 275.141585 
L 159.252957 274.362541 
L 161.165133 273.231738 
L 164.989484 271.556651 
L 167.857747 270.457577 
L 168.813835 270.218135 
L 169.769923 270.095011 
L 170.726011 270.108009 
L 171.682099 270.257725 
L 173.594275 270.89092 
L 175.50645 271.839681 
L 177.418626 273.083342 
L 180.286889 275.424626 
L 184.111241 278.544285 
L 186.023416 280.152003 
L 187.935592 282.024541 
L 190.803856 284.972934 
L 192.716031 286.684745 
L 197.496471 290.718623 
L 203.232998 295.766553 
L 205.145173 297.024404 
L 207.057349 297.913438 
L 210.8817 299.482972 
L 218.530403 303.124131 
L 220.442579 303.834777 
L 222.354754 304.315985 
L 234.783896 306.434164 
L 241.476511 307.060708 
L 245.300863 307.158493 
L 251.03739 307.264968 
L 258.686092 307.478511 
L 292.149167 307.583851 
L 292.149167 307.583851 
" style="fill:none;stroke:#1f77b4;stroke-linecap:round;stroke-width:1.5;"/>
   </g>
   <g id="line2d_41">
    <path clip-path="url(#pe50b0d5086)" d="M 150.727809 307.583835 
L 163.141959 307.478289 
L 172.170432 307.156794 
L 175.556109 306.813158 
L 178.941786 306.205848 
L 182.327464 305.335558 
L 187.970259 303.608905 
L 190.227377 302.7552 
L 193.613054 301.171774 
L 199.25585 298.185801 
L 202.641527 296.179922 
L 204.898645 294.654832 
L 207.155763 292.911652 
L 212.798559 288.253978 
L 217.312795 285.136633 
L 220.698472 282.806049 
L 222.955591 281.532988 
L 225.212709 280.659167 
L 228.598386 279.794994 
L 231.984063 279.101624 
L 234.241181 278.867933 
L 236.4983 278.957323 
L 238.755418 279.326848 
L 245.526772 280.804353 
L 247.78389 281.517761 
L 250.041009 282.446525 
L 253.426686 284.148559 
L 257.940922 286.781987 
L 263.583718 290.293643 
L 270.355072 294.70066 
L 272.61219 295.834102 
L 278.254986 298.226357 
L 283.897781 300.496576 
L 288.412017 302.005299 
L 294.054813 303.559203 
L 298.569049 304.615282 
L 301.954726 305.172413 
L 309.85464 306.143641 
L 315.497435 306.638884 
L 327.911585 307.270647 
L 334.68294 307.382898 
L 348.225649 307.498273 
L 375.311067 307.58379 
L 375.311067 307.58379 
" style="fill:none;stroke:#9467bd;stroke-linecap:round;stroke-width:1.5;"/>
   </g>
   <g id="line2d_42">
    <path clip-path="url(#pe50b0d5086)" d="M 148.747566 307.583803 
L 161.806984 307.482276 
L 168.930303 307.263609 
L 173.679183 306.870811 
L 178.428062 306.250562 
L 181.989721 305.601027 
L 184.364161 304.970204 
L 186.738601 304.124024 
L 190.30026 302.542534 
L 193.86192 300.685034 
L 199.798019 297.220756 
L 203.359679 294.926959 
L 206.921338 292.175679 
L 210.482998 289.430834 
L 214.044657 287.100453 
L 218.793537 283.987013 
L 222.355196 281.671415 
L 224.729636 280.41303 
L 227.104076 279.534632 
L 229.478515 279.058858 
L 231.852955 278.897992 
L 234.227395 278.97401 
L 237.789054 279.415757 
L 241.350714 280.140785 
L 244.912373 281.184195 
L 248.474033 282.526145 
L 250.848472 283.59164 
L 253.222912 284.858437 
L 259.159011 288.486563 
L 265.095111 291.989172 
L 268.65677 293.777932 
L 285.277848 301.053224 
L 288.839507 302.328984 
L 292.401167 303.36465 
L 295.962827 304.147794 
L 300.711706 304.851781 
L 314.958344 306.716753 
L 319.707223 306.970877 
L 335.141081 307.40778 
L 343.45162 307.497561 
L 385.004315 307.583885 
L 385.004315 307.583885 
" style="fill:none;stroke:#d62728;stroke-linecap:round;stroke-width:1.5;"/>
   </g>
   <g id="line2d_43">
    <path clip-path="url(#pe50b0d5086)" d="M 145.861576 307.58387 
L 162.259757 307.482542 
L 170.458847 307.182157 
L 173.972743 306.923677 
L 177.486639 306.472696 
L 182.171833 305.60251 
L 184.514431 305.002594 
L 186.857028 304.219309 
L 189.199625 303.2283 
L 191.542222 302.030261 
L 195.056118 299.884794 
L 200.912611 295.839564 
L 205.597806 292.70003 
L 213.796896 287.396279 
L 218.482091 284.196271 
L 220.824688 282.917309 
L 223.167285 281.99482 
L 227.85248 280.615851 
L 231.366376 279.797202 
L 233.708973 279.507365 
L 236.05157 279.510257 
L 238.394168 279.758365 
L 244.250661 280.722871 
L 246.593258 281.310818 
L 248.935855 282.204895 
L 251.278453 283.427982 
L 255.963647 286.0794 
L 262.991439 289.755141 
L 273.533126 295.752052 
L 282.903516 300.589449 
L 286.417411 301.843219 
L 291.102606 303.168539 
L 295.7878 304.266963 
L 299.301696 304.865875 
L 309.843384 306.129301 
L 314.528578 306.54513 
L 328.584162 307.314491 
L 348.496239 307.519844 
L 375.436107 307.582503 
L 378.950003 307.583875 
L 378.950003 307.583875 
" style="fill:none;stroke:#2ca02c;stroke-linecap:round;stroke-width:1.5;"/>
   </g>
   <g id="line2d_44">
    <path clip-path="url(#pe50b0d5086)" d="M 142.724433 307.583836 
L 164.57352 307.488726 
L 170.999722 307.277854 
L 174.855443 306.967001 
L 178.711165 306.392664 
L 182.566886 305.500656 
L 186.422607 304.32312 
L 188.993088 303.375725 
L 191.563569 302.243438 
L 194.134049 300.913711 
L 197.989771 298.607579 
L 203.130732 295.160736 
L 215.983136 286.382918 
L 221.124098 283.28431 
L 224.979819 281.172448 
L 227.5503 280.133358 
L 230.120781 279.543139 
L 232.691261 279.319693 
L 235.261742 279.394848 
L 239.117463 279.898942 
L 241.687944 280.391884 
L 244.258425 281.192834 
L 246.828906 282.399913 
L 249.399387 283.719339 
L 251.969867 284.79912 
L 255.825589 286.214152 
L 258.396069 287.387769 
L 266.107512 291.35573 
L 268.677992 292.864644 
L 273.818954 296.060785 
L 276.389435 297.355225 
L 278.959916 298.372625 
L 285.386118 300.491687 
L 290.527079 302.014783 
L 295.668041 303.345797 
L 300.809002 304.392119 
L 309.805685 306.028665 
L 313.661406 306.443299 
L 321.372849 306.881473 
L 336.795734 307.40277 
L 347.077657 307.42368 
L 383.064388 307.574626 
L 398.487273 307.583888 
L 398.487273 307.583888 
" style="fill:none;stroke:#ff7f0e;stroke-linecap:round;stroke-width:1.5;"/>
   </g>
   <g id="line2d_45">
    <path clip-path="url(#pe50b0d5086)" d="M 152.258876 307.583561 
L 161.588527 307.478522 
L 173.25059 306.952996 
L 176.749209 306.520115 
L 180.247828 305.900422 
L 183.746446 305.035538 
L 187.245065 303.846741 
L 190.743684 302.394245 
L 194.242303 300.633454 
L 198.907128 297.930661 
L 202.405747 295.774021 
L 204.73816 294.129797 
L 208.236779 291.28334 
L 210.569191 289.410573 
L 212.901604 287.800333 
L 215.234017 286.458143 
L 223.397461 282.057523 
L 225.729873 280.821268 
L 228.062286 279.859939 
L 230.394698 279.23879 
L 232.727111 278.890659 
L 235.059524 278.754355 
L 237.391936 278.878858 
L 239.724349 279.328734 
L 243.222968 280.420712 
L 250.220206 282.857666 
L 252.552618 283.95832 
L 254.885031 285.325695 
L 265.380888 292.000662 
L 268.879506 293.952519 
L 272.378125 295.572928 
L 287.538807 301.76553 
L 291.037426 303.007864 
L 293.369839 303.649604 
L 296.868458 304.333778 
L 308.530521 306.087036 
L 313.195346 306.503258 
L 322.524996 306.975854 
L 330.68844 307.27474 
L 341.184297 307.409582 
L 358.677392 307.564047 
L 384.33393 307.583886 
L 384.33393 307.583886 
" style="fill:none;stroke:#1f77b4;stroke-linecap:round;stroke-width:1.5;"/>
   </g>
   <g id="patch_3">
    <path d="M 57.6 307.584 
L 57.6 41.472 
" style="fill:none;stroke:#ffffff;stroke-linecap:square;stroke-linejoin:miter;stroke-width:0.8;"/>
   </g>
   <g id="patch_4">
    <path d="M 414.72 307.584 
L 414.72 41.472 
" style="fill:none;stroke:#ffffff;stroke-linecap:square;stroke-linejoin:miter;stroke-width:0.8;"/>
   </g>
   <g id="patch_5">
    <path d="M 57.6 307.584 
L 414.72 307.584 
" style="fill:none;stroke:#ffffff;stroke-linecap:square;stroke-linejoin:miter;stroke-width:0.8;"/>
   </g>
   <g id="patch_6">
    <path d="M 57.6 41.472 
L 414.72 41.472 
" style="fill:none;stroke:#ffffff;stroke-linecap:square;stroke-linejoin:miter;stroke-width:0.8;"/>
   </g>
   <g id="text_17">
    <!-- Density plots of 20000 PG(h, 0) samples using each method for h $\in$ {1,4,7,10,15,25}.  -->
    <g style="fill:#262626;" transform="translate(38.745 25.374)scale(0.09 -0.09)">
     <defs>
      <path id="DejaVuSans-32"/>
      <path d="M 18.109375 8.203125 
L 18.109375 -20.796875 
L 9.078125 -20.796875 
L 9.078125 54.6875 
L 18.109375 54.6875 
L 18.109375 46.390625 
Q 20.953125 51.265625 25.265625 53.625 
Q 29.59375 56 35.59375 56 
Q 45.5625 56 51.78125 48.09375 
Q 58.015625 40.1875 58.015625 27.296875 
Q 58.015625 14.40625 51.78125 6.484375 
Q 45.5625 -1.421875 35.59375 -1.421875 
Q 29.59375 -1.421875 25.265625 0.953125 
Q 20.953125 3.328125 18.109375 8.203125 
z
M 48.6875 27.296875 
Q 48.6875 37.203125 44.609375 42.84375 
Q 40.53125 48.484375 33.40625 48.484375 
Q 26.265625 48.484375 22.1875 42.84375 
Q 18.109375 37.203125 18.109375 27.296875 
Q 18.109375 17.390625 22.1875 11.75 
Q 26.265625 6.109375 33.40625 6.109375 
Q 40.53125 6.109375 44.609375 11.75 
Q 48.6875 17.390625 48.6875 27.296875 
z
" id="DejaVuSans-112"/>
      <path d="M 9.421875 75.984375 
L 18.40625 75.984375 
L 18.40625 0 
L 9.421875 0 
z
" id="DejaVuSans-108"/>
      <path d="M 30.609375 48.390625 
Q 23.390625 48.390625 19.1875 42.75 
Q 14.984375 37.109375 14.984375 27.296875 
Q 14.984375 17.484375 19.15625 11.84375 
Q 23.34375 6.203125 30.609375 6.203125 
Q 37.796875 6.203125 41.984375 11.859375 
Q 46.1875 17.53125 46.1875 27.296875 
Q 46.1875 37.015625 41.984375 42.703125 
Q 37.796875 48.390625 30.609375 48.390625 
z
M 30.609375 56 
Q 42.328125 56 49.015625 48.375 
Q 55.71875 40.765625 55.71875 27.296875 
Q 55.71875 13.875 49.015625 6.21875 
Q 42.328125 -1.421875 30.609375 -1.421875 
Q 18.84375 -1.421875 12.171875 6.21875 
Q 5.515625 13.875 5.515625 27.296875 
Q 5.515625 40.765625 12.171875 48.375 
Q 18.84375 56 30.609375 56 
z
" id="DejaVuSans-111"/>
      <path d="M 37.109375 75.984375 
L 37.109375 68.5 
L 28.515625 68.5 
Q 23.6875 68.5 21.796875 66.546875 
Q 19.921875 64.59375 19.921875 59.515625 
L 19.921875 54.6875 
L 34.71875 54.6875 
L 34.71875 47.703125 
L 19.921875 47.703125 
L 19.921875 0 
L 10.890625 0 
L 10.890625 47.703125 
L 2.296875 47.703125 
L 2.296875 54.6875 
L 10.890625 54.6875 
L 10.890625 58.5 
Q 10.890625 67.625 15.140625 71.796875 
Q 19.390625 75.984375 28.609375 75.984375 
z
" id="DejaVuSans-102"/>
      <path d="M 19.671875 64.796875 
L 19.671875 37.40625 
L 32.078125 37.40625 
Q 38.96875 37.40625 42.71875 40.96875 
Q 46.484375 44.53125 46.484375 51.125 
Q 46.484375 57.671875 42.71875 61.234375 
Q 38.96875 64.796875 32.078125 64.796875 
z
M 9.8125 72.90625 
L 32.078125 72.90625 
Q 44.34375 72.90625 50.609375 67.359375 
Q 56.890625 61.8125 56.890625 51.125 
Q 56.890625 40.328125 50.609375 34.8125 
Q 44.34375 29.296875 32.078125 29.296875 
L 19.671875 29.296875 
L 19.671875 0 
L 9.8125 0 
z
" id="DejaVuSans-80"/>
      <path d="M 59.515625 10.40625 
L 59.515625 29.984375 
L 43.40625 29.984375 
L 43.40625 38.09375 
L 69.28125 38.09375 
L 69.28125 6.78125 
Q 63.578125 2.734375 56.6875 0.65625 
Q 49.8125 -1.421875 42 -1.421875 
Q 24.90625 -1.421875 15.25 8.5625 
Q 5.609375 18.5625 5.609375 36.375 
Q 5.609375 54.25 15.25 64.234375 
Q 24.90625 74.21875 42 74.21875 
Q 49.125 74.21875 55.546875 72.453125 
Q 61.96875 70.703125 67.390625 67.28125 
L 67.390625 56.78125 
Q 61.921875 61.421875 55.765625 63.765625 
Q 49.609375 66.109375 42.828125 66.109375 
Q 29.4375 66.109375 22.71875 58.640625 
Q 16.015625 51.171875 16.015625 36.375 
Q 16.015625 21.625 22.71875 14.15625 
Q 29.4375 6.6875 42.828125 6.6875 
Q 48.046875 6.6875 52.140625 7.59375 
Q 56.25 8.5 59.515625 10.40625 
z
" id="DejaVuSans-71"/>
      <path d="M 31 75.875 
Q 24.46875 64.65625 21.28125 53.65625 
Q 18.109375 42.671875 18.109375 31.390625 
Q 18.109375 20.125 21.3125 9.0625 
Q 24.515625 -2 31 -13.1875 
L 23.1875 -13.1875 
Q 15.875 -1.703125 12.234375 9.375 
Q 8.59375 20.453125 8.59375 31.390625 
Q 8.59375 42.28125 12.203125 53.3125 
Q 15.828125 64.359375 23.1875 75.875 
z
" id="DejaVuSans-40"/>
      <path d="M 54.890625 33.015625 
L 54.890625 0 
L 45.90625 0 
L 45.90625 32.71875 
Q 45.90625 40.484375 42.875 44.328125 
Q 39.84375 48.1875 33.796875 48.1875 
Q 26.515625 48.1875 22.3125 43.546875 
Q 18.109375 38.921875 18.109375 30.90625 
L 18.109375 0 
L 9.078125 0 
L 9.078125 75.984375 
L 18.109375 75.984375 
L 18.109375 46.1875 
Q 21.34375 51.125 25.703125 53.5625 
Q 30.078125 56 35.796875 56 
Q 45.21875 56 50.046875 50.171875 
Q 54.890625 44.34375 54.890625 33.015625 
z
" id="DejaVuSans-104"/>
      <path d="M 11.71875 12.40625 
L 22.015625 12.40625 
L 22.015625 4 
L 14.015625 -11.625 
L 7.71875 -11.625 
L 11.71875 4 
z
" id="DejaVuSans-44"/>
      <path d="M 8.015625 75.875 
L 15.828125 75.875 
Q 23.140625 64.359375 26.78125 53.3125 
Q 30.421875 42.28125 30.421875 31.390625 
Q 30.421875 20.453125 26.78125 9.375 
Q 23.140625 -1.703125 15.828125 -13.1875 
L 8.015625 -13.1875 
Q 14.5 -2 17.703125 9.0625 
Q 20.90625 20.125 20.90625 31.390625 
Q 20.90625 42.671875 17.703125 53.65625 
Q 14.5 64.65625 8.015625 75.875 
z
" id="DejaVuSans-41"/>
      <path d="M 34.28125 27.484375 
Q 23.390625 27.484375 19.1875 25 
Q 14.984375 22.515625 14.984375 16.5 
Q 14.984375 11.71875 18.140625 8.90625 
Q 21.296875 6.109375 26.703125 6.109375 
Q 34.1875 6.109375 38.703125 11.40625 
Q 43.21875 16.703125 43.21875 25.484375 
L 43.21875 27.484375 
z
M 52.203125 31.203125 
L 52.203125 0 
L 43.21875 0 
L 43.21875 8.296875 
Q 40.140625 3.328125 35.546875 0.953125 
Q 30.953125 -1.421875 24.3125 -1.421875 
Q 15.921875 -1.421875 10.953125 3.296875 
Q 6 8.015625 6 15.921875 
Q 6 25.140625 12.171875 29.828125 
Q 18.359375 34.515625 30.609375 34.515625 
L 43.21875 34.515625 
L 43.21875 35.40625 
Q 43.21875 41.609375 39.140625 45 
Q 35.0625 48.390625 27.6875 48.390625 
Q 23 48.390625 18.546875 47.265625 
Q 14.109375 46.140625 10.015625 43.890625 
L 10.015625 52.203125 
Q 14.9375 54.109375 19.578125 55.046875 
Q 24.21875 56 28.609375 56 
Q 40.484375 56 46.34375 49.84375 
Q 52.203125 43.703125 52.203125 31.203125 
z
" id="DejaVuSans-97"/>
      <path d="M 52 44.1875 
Q 55.375 50.25 60.0625 53.125 
Q 64.75 56 71.09375 56 
Q 79.640625 56 84.28125 50.015625 
Q 88.921875 44.046875 88.921875 33.015625 
L 88.921875 0 
L 79.890625 0 
L 79.890625 32.71875 
Q 79.890625 40.578125 77.09375 44.375 
Q 74.3125 48.1875 68.609375 48.1875 
Q 61.625 48.1875 57.5625 43.546875 
Q 53.515625 38.921875 53.515625 30.90625 
L 53.515625 0 
L 44.484375 0 
L 44.484375 32.71875 
Q 44.484375 40.625 41.703125 44.40625 
Q 38.921875 48.1875 33.109375 48.1875 
Q 26.21875 48.1875 22.15625 43.53125 
Q 18.109375 38.875 18.109375 30.90625 
L 18.109375 0 
L 9.078125 0 
L 9.078125 54.6875 
L 18.109375 54.6875 
L 18.109375 46.1875 
Q 21.1875 51.21875 25.484375 53.609375 
Q 29.78125 56 35.6875 56 
Q 41.65625 56 45.828125 52.96875 
Q 50 49.953125 52 44.1875 
z
" id="DejaVuSans-109"/>
      <path d="M 8.5 21.578125 
L 8.5 54.6875 
L 17.484375 54.6875 
L 17.484375 21.921875 
Q 17.484375 14.15625 20.5 10.265625 
Q 23.53125 6.390625 29.59375 6.390625 
Q 36.859375 6.390625 41.078125 11.03125 
Q 45.3125 15.671875 45.3125 23.6875 
L 45.3125 54.6875 
L 54.296875 54.6875 
L 54.296875 0 
L 45.3125 0 
L 45.3125 8.40625 
Q 42.046875 3.421875 37.71875 1 
Q 33.40625 -1.421875 27.6875 -1.421875 
Q 18.265625 -1.421875 13.375 4.4375 
Q 8.5 10.296875 8.5 21.578125 
z
M 31.109375 56 
z
" id="DejaVuSans-117"/>
      <path d="M 45.40625 27.984375 
Q 45.40625 37.75 41.375 43.109375 
Q 37.359375 48.484375 30.078125 48.484375 
Q 22.859375 48.484375 18.828125 43.109375 
Q 14.796875 37.75 14.796875 27.984375 
Q 14.796875 18.265625 18.828125 12.890625 
Q 22.859375 7.515625 30.078125 7.515625 
Q 37.359375 7.515625 41.375 12.890625 
Q 45.40625 18.265625 45.40625 27.984375 
z
M 54.390625 6.78125 
Q 54.390625 -7.171875 48.1875 -13.984375 
Q 42 -20.796875 29.203125 -20.796875 
Q 24.46875 -20.796875 20.265625 -20.09375 
Q 16.0625 -19.390625 12.109375 -17.921875 
L 12.109375 -9.1875 
Q 16.0625 -11.328125 19.921875 -12.34375 
Q 23.78125 -13.375 27.78125 -13.375 
Q 36.625 -13.375 41.015625 -8.765625 
Q 45.40625 -4.15625 45.40625 5.171875 
L 45.40625 9.625 
Q 42.625 4.78125 38.28125 2.390625 
Q 33.9375 0 27.875 0 
Q 17.828125 0 11.671875 7.65625 
Q 5.515625 15.328125 5.515625 27.984375 
Q 5.515625 40.671875 11.671875 48.328125 
Q 17.828125 56 27.875 56 
Q 33.9375 56 38.28125 53.609375 
Q 42.625 51.21875 45.40625 46.390625 
L 45.40625 54.6875 
L 54.390625 54.6875 
z
" id="DejaVuSans-103"/>
      <path d="M 48.78125 52.59375 
L 48.78125 44.1875 
Q 44.96875 46.296875 41.140625 47.34375 
Q 37.3125 48.390625 33.40625 48.390625 
Q 24.65625 48.390625 19.8125 42.84375 
Q 14.984375 37.3125 14.984375 27.296875 
Q 14.984375 17.28125 19.8125 11.734375 
Q 24.65625 6.203125 33.40625 6.203125 
Q 37.3125 6.203125 41.140625 7.25 
Q 44.96875 8.296875 48.78125 10.40625 
L 48.78125 2.09375 
Q 45.015625 0.34375 40.984375 -0.53125 
Q 36.96875 -1.421875 32.421875 -1.421875 
Q 20.0625 -1.421875 12.78125 6.34375 
Q 5.515625 14.109375 5.515625 27.296875 
Q 5.515625 40.671875 12.859375 48.328125 
Q 20.21875 56 33.015625 56 
Q 37.15625 56 41.109375 55.140625 
Q 45.0625 54.296875 48.78125 52.59375 
z
" id="DejaVuSans-99"/>
      <path d="M 45.40625 46.390625 
L 45.40625 75.984375 
L 54.390625 75.984375 
L 54.390625 0 
L 45.40625 0 
L 45.40625 8.203125 
Q 42.578125 3.328125 38.25 0.953125 
Q 33.9375 -1.421875 27.875 -1.421875 
Q 17.96875 -1.421875 11.734375 6.484375 
Q 5.515625 14.40625 5.515625 27.296875 
Q 5.515625 40.1875 11.734375 48.09375 
Q 17.96875 56 27.875 56 
Q 33.9375 56 38.25 53.625 
Q 42.578125 51.265625 45.40625 46.390625 
z
M 14.796875 27.296875 
Q 14.796875 17.390625 18.875 11.75 
Q 22.953125 6.109375 30.078125 6.109375 
Q 37.203125 6.109375 41.296875 11.75 
Q 45.40625 17.390625 45.40625 27.296875 
Q 45.40625 37.203125 41.296875 42.84375 
Q 37.203125 48.484375 30.078125 48.484375 
Q 22.953125 48.484375 18.875 42.84375 
Q 14.796875 37.203125 14.796875 27.296875 
z
" id="DejaVuSans-100"/>
      <path d="M 41.109375 46.296875 
Q 39.59375 47.171875 37.8125 47.578125 
Q 36.03125 48 33.890625 48 
Q 26.265625 48 22.1875 43.046875 
Q 18.109375 38.09375 18.109375 28.8125 
L 18.109375 0 
L 9.078125 0 
L 9.078125 54.6875 
L 18.109375 54.6875 
L 18.109375 46.1875 
Q 20.953125 51.171875 25.484375 53.578125 
Q 30.03125 56 36.53125 56 
Q 37.453125 56 38.578125 55.875 
Q 39.703125 55.765625 41.0625 55.515625 
z
" id="DejaVuSans-114"/>
      <path d="M 16.75 30.609375 
Q 17.09375 27 20.171875 21.140625 
Q 23.78125 14.359375 30.609375 10.546875 
Q 37.3125 6.84375 44.53125 6.78125 
L 78.5625 6.78125 
L 78.5625 -0.984375 
L 44.53125 -0.984375 
Q 35.15625 -0.984375 26.484375 3.84375 
Q 17.828125 8.6875 13.1875 17.28125 
Q 8.546875 25.875 8.546875 35.015625 
Q 8.546875 44.046875 13.1875 52.640625 
Q 17.828125 61.234375 26.484375 66.109375 
Q 35.15625 71 44.53125 71 
L 78.5625 71 
L 78.5625 63.234375 
L 44.53125 63.234375 
Q 37.3125 63.1875 30.609375 59.421875 
Q 23.828125 55.5625 20.171875 48.828125 
Q 17.046875 42.96875 16.609375 38.421875 
L 78.5625 38.421875 
L 78.5625 30.609375 
z
" id="DejaVuSans-8712"/>
      <path d="M 51.125 -9.28125 
L 51.125 -16.3125 
L 48.09375 -16.3125 
Q 35.9375 -16.3125 31.8125 -12.6875 
Q 27.6875 -9.078125 27.6875 1.703125 
L 27.6875 13.375 
Q 27.6875 20.75 25.046875 23.578125 
Q 22.40625 26.421875 15.484375 26.421875 
L 12.5 26.421875 
L 12.5 33.40625 
L 15.484375 33.40625 
Q 22.46875 33.40625 25.078125 36.203125 
Q 27.6875 39.015625 27.6875 46.296875 
L 27.6875 58.015625 
Q 27.6875 68.796875 31.8125 72.390625 
Q 35.9375 75.984375 48.09375 75.984375 
L 51.125 75.984375 
L 51.125 69 
L 47.796875 69 
Q 40.921875 69 38.8125 66.84375 
Q 36.71875 64.703125 36.71875 57.8125 
L 36.71875 45.703125 
Q 36.71875 38.03125 34.5 34.5625 
Q 32.28125 31.109375 26.90625 29.890625 
Q 32.328125 28.5625 34.515625 25.09375 
Q 36.71875 21.625 36.71875 14.015625 
L 36.71875 1.90625 
Q 36.71875 -4.984375 38.8125 -7.125 
Q 40.921875 -9.28125 47.796875 -9.28125 
z
" id="DejaVuSans-123"/>
      <path d="M 12.5 -9.28125 
L 15.921875 -9.28125 
Q 22.75 -9.28125 24.828125 -7.171875 
Q 26.90625 -5.078125 26.90625 1.90625 
L 26.90625 14.015625 
Q 26.90625 21.625 29.09375 25.09375 
Q 31.296875 28.5625 36.71875 29.890625 
Q 31.296875 31.109375 29.09375 34.5625 
Q 26.90625 38.03125 26.90625 45.703125 
L 26.90625 57.8125 
Q 26.90625 64.75 24.828125 66.875 
Q 22.75 69 15.921875 69 
L 12.5 69 
L 12.5 75.984375 
L 15.578125 75.984375 
Q 27.734375 75.984375 31.8125 72.390625 
Q 35.890625 68.796875 35.890625 58.015625 
L 35.890625 46.296875 
Q 35.890625 39.015625 38.515625 36.203125 
Q 41.15625 33.40625 48.09375 33.40625 
L 51.125 33.40625 
L 51.125 26.421875 
L 48.09375 26.421875 
Q 41.15625 26.421875 38.515625 23.578125 
Q 35.890625 20.75 35.890625 13.375 
L 35.890625 1.703125 
Q 35.890625 -9.078125 31.8125 -12.6875 
Q 27.734375 -16.3125 15.578125 -16.3125 
L 12.5 -16.3125 
z
" id="DejaVuSans-125"/>
     </defs>
     <use transform="translate(0 0.015625)" xlink:href="#DejaVuSans-68"/>
     <use transform="translate(77.001953 0.015625)" xlink:href="#DejaVuSans-101"/>
     <use transform="translate(138.525391 0.015625)" xlink:href="#DejaVuSans-110"/>
     <use transform="translate(201.904297 0.015625)" xlink:href="#DejaVuSans-115"/>
     <use transform="translate(254.003906 0.015625)" xlink:href="#DejaVuSans-105"/>
     <use transform="translate(281.787109 0.015625)" xlink:href="#DejaVuSans-116"/>
     <use transform="translate(320.996094 0.015625)" xlink:href="#DejaVuSans-121"/>
     <use transform="translate(380.175781 0.015625)" xlink:href="#DejaVuSans-32"/>
     <use transform="translate(411.962891 0.015625)" xlink:href="#DejaVuSans-112"/>
     <use transform="translate(475.439453 0.015625)" xlink:href="#DejaVuSans-108"/>
     <use transform="translate(503.222656 0.015625)" xlink:href="#DejaVuSans-111"/>
     <use transform="translate(564.404297 0.015625)" xlink:href="#DejaVuSans-116"/>
     <use transform="translate(603.613281 0.015625)" xlink:href="#DejaVuSans-115"/>
     <use transform="translate(655.712891 0.015625)" xlink:href="#DejaVuSans-32"/>
     <use transform="translate(687.5 0.015625)" xlink:href="#DejaVuSans-111"/>
     <use transform="translate(748.681641 0.015625)" xlink:href="#DejaVuSans-102"/>
     <use transform="translate(783.886719 0.015625)" xlink:href="#DejaVuSans-32"/>
     <use transform="translate(815.673828 0.015625)" xlink:href="#DejaVuSans-50"/>
     <use transform="translate(879.296875 0.015625)" xlink:href="#DejaVuSans-48"/>
     <use transform="translate(942.919922 0.015625)" xlink:href="#DejaVuSans-48"/>
     <use transform="translate(1006.542969 0.015625)" xlink:href="#DejaVuSans-48"/>
     <use transform="translate(1070.166016 0.015625)" xlink:href="#DejaVuSans-48"/>
     <use transform="translate(1133.789062 0.015625)" xlink:href="#DejaVuSans-32"/>
     <use transform="translate(1165.576172 0.015625)" xlink:href="#DejaVuSans-80"/>
     <use transform="translate(1225.878906 0.015625)" xlink:href="#DejaVuSans-71"/>
     <use transform="translate(1303.369141 0.015625)" xlink:href="#DejaVuSans-40"/>
     <use transform="translate(1342.382812 0.015625)" xlink:href="#DejaVuSans-104"/>
     <use transform="translate(1405.761719 0.015625)" xlink:href="#DejaVuSans-44"/>
     <use transform="translate(1437.548828 0.015625)" xlink:href="#DejaVuSans-32"/>
     <use transform="translate(1469.335938 0.015625)" xlink:href="#DejaVuSans-48"/>
     <use transform="translate(1532.958984 0.015625)" xlink:href="#DejaVuSans-41"/>
     <use transform="translate(1571.972656 0.015625)" xlink:href="#DejaVuSans-32"/>
     <use transform="translate(1603.759766 0.015625)" xlink:href="#DejaVuSans-115"/>
     <use transform="translate(1655.859375 0.015625)" xlink:href="#DejaVuSans-97"/>
     <use transform="translate(1717.138672 0.015625)" xlink:href="#DejaVuSans-109"/>
     <use transform="translate(1814.550781 0.015625)" xlink:href="#DejaVuSans-112"/>
     <use transform="translate(1878.027344 0.015625)" xlink:href="#DejaVuSans-108"/>
     <use transform="translate(1905.810547 0.015625)" xlink:href="#DejaVuSans-101"/>
     <use transform="translate(1967.333984 0.015625)" xlink:href="#DejaVuSans-115"/>
     <use transform="translate(2019.433594 0.015625)" xlink:href="#DejaVuSans-32"/>
     <use transform="translate(2051.220703 0.015625)" xlink:href="#DejaVuSans-117"/>
     <use transform="translate(2114.599609 0.015625)" xlink:href="#DejaVuSans-115"/>
     <use transform="translate(2166.699219 0.015625)" xlink:href="#DejaVuSans-105"/>
     <use transform="translate(2194.482422 0.015625)" xlink:href="#DejaVuSans-110"/>
     <use transform="translate(2257.861328 0.015625)" xlink:href="#DejaVuSans-103"/>
     <use transform="translate(2321.337891 0.015625)" xlink:href="#DejaVuSans-32"/>
     <use transform="translate(2353.125 0.015625)" xlink:href="#DejaVuSans-101"/>
     <use transform="translate(2414.648438 0.015625)" xlink:href="#DejaVuSans-97"/>
     <use transform="translate(2475.927734 0.015625)" xlink:href="#DejaVuSans-99"/>
     <use transform="translate(2530.908203 0.015625)" xlink:href="#DejaVuSans-104"/>
     <use transform="translate(2594.287109 0.015625)" xlink:href="#DejaVuSans-32"/>
     <use transform="translate(2626.074219 0.015625)" xlink:href="#DejaVuSans-109"/>
     <use transform="translate(2723.486328 0.015625)" xlink:href="#DejaVuSans-101"/>
     <use transform="translate(2785.009766 0.015625)" xlink:href="#DejaVuSans-116"/>
     <use transform="translate(2824.21875 0.015625)" xlink:href="#DejaVuSans-104"/>
     <use transform="translate(2887.597656 0.015625)" xlink:href="#DejaVuSans-111"/>
     <use transform="translate(2948.779297 0.015625)" xlink:href="#DejaVuSans-100"/>
     <use transform="translate(3012.255859 0.015625)" xlink:href="#DejaVuSans-32"/>
     <use transform="translate(3044.042969 0.015625)" xlink:href="#DejaVuSans-102"/>
     <use transform="translate(3079.248047 0.015625)" xlink:href="#DejaVuSans-111"/>
     <use transform="translate(3140.429688 0.015625)" xlink:href="#DejaVuSans-114"/>
     <use transform="translate(3181.542969 0.015625)" xlink:href="#DejaVuSans-32"/>
     <use transform="translate(3213.330078 0.015625)" xlink:href="#DejaVuSans-104"/>
     <use transform="translate(3276.708984 0.015625)" xlink:href="#DejaVuSans-32"/>
     <use transform="translate(3327.978516 0.015625)" xlink:href="#DejaVuSans-8712"/>
     <use transform="translate(3434.570312 0.015625)" xlink:href="#DejaVuSans-32"/>
     <use transform="translate(3466.357422 0.015625)" xlink:href="#DejaVuSans-123"/>
     <use transform="translate(3529.980469 0.015625)" xlink:href="#DejaVuSans-49"/>
     <use transform="translate(3593.603516 0.015625)" xlink:href="#DejaVuSans-44"/>
     <use transform="translate(3625.390625 0.015625)" xlink:href="#DejaVuSans-52"/>
     <use transform="translate(3689.013672 0.015625)" xlink:href="#DejaVuSans-44"/>
     <use transform="translate(3720.800781 0.015625)" xlink:href="#DejaVuSans-55"/>
     <use transform="translate(3784.423828 0.015625)" xlink:href="#DejaVuSans-44"/>
     <use transform="translate(3816.210938 0.015625)" xlink:href="#DejaVuSans-49"/>
     <use transform="translate(3879.833984 0.015625)" xlink:href="#DejaVuSans-48"/>
     <use transform="translate(3943.457031 0.015625)" xlink:href="#DejaVuSans-44"/>
     <use transform="translate(3975.244141 0.015625)" xlink:href="#DejaVuSans-49"/>
     <use transform="translate(4038.867188 0.015625)" xlink:href="#DejaVuSans-53"/>
     <use transform="translate(4102.490234 0.015625)" xlink:href="#DejaVuSans-44"/>
     <use transform="translate(4134.277344 0.015625)" xlink:href="#DejaVuSans-50"/>
     <use transform="translate(4197.900391 0.015625)" xlink:href="#DejaVuSans-53"/>
     <use transform="translate(4259.773438 0.015625)" xlink:href="#DejaVuSans-125"/>
     <use transform="translate(4323.396484 0.015625)" xlink:href="#DejaVuSans-46"/>
     <use transform="translate(4355.183594 0.015625)" xlink:href="#DejaVuSans-32"/>
    </g>
    <!-- A plot from the $pypolyagamma$ package is used as a reference. -->
    <g style="fill:#262626;" transform="translate(92.79 35.472)scale(0.09 -0.09)">
     <defs>
      <path d="M 34.1875 63.1875 
L 20.796875 26.90625 
L 47.609375 26.90625 
z
M 28.609375 72.90625 
L 39.796875 72.90625 
L 67.578125 0 
L 57.328125 0 
L 50.6875 18.703125 
L 17.828125 18.703125 
L 11.1875 0 
L 0.78125 0 
z
" id="DejaVuSans-65"/>
      <path d="M 49.609375 33.6875 
Q 49.609375 40.875 46.484375 44.671875 
Q 43.359375 48.484375 37.5 48.484375 
Q 33.5 48.484375 29.859375 46.4375 
Q 26.21875 44.390625 23.390625 40.484375 
Q 20.609375 36.625 18.9375 31.15625 
Q 17.28125 25.6875 17.28125 20.3125 
Q 17.28125 13.484375 20.40625 9.796875 
Q 23.53125 6.109375 29.296875 6.109375 
Q 33.546875 6.109375 37.1875 8.109375 
Q 40.828125 10.109375 43.40625 13.921875 
Q 46.1875 17.921875 47.890625 23.34375 
Q 49.609375 28.765625 49.609375 33.6875 
z
M 21.78125 46.390625 
Q 25.390625 51.125 30.296875 53.5625 
Q 35.203125 56 41.21875 56 
Q 49.609375 56 54.25 50.5 
Q 58.890625 45.015625 58.890625 35.109375 
Q 58.890625 27 56 19.65625 
Q 53.125 12.3125 47.703125 6.5 
Q 44.09375 2.640625 39.546875 0.609375 
Q 35.015625 -1.421875 29.984375 -1.421875 
Q 24.171875 -1.421875 20.21875 1 
Q 16.265625 3.421875 14.3125 8.203125 
L 8.6875 -20.796875 
L -0.296875 -20.796875 
L 14.40625 54.6875 
L 23.390625 54.6875 
z
" id="DejaVuSans-Oblique-112"/>
      <path d="M 24.8125 -5.078125 
Q 18.5625 -15.578125 14.625 -18.1875 
Q 10.6875 -20.796875 4.59375 -20.796875 
L -2.484375 -20.796875 
L -0.984375 -13.28125 
L 4.203125 -13.28125 
Q 7.953125 -13.28125 10.59375 -11.234375 
Q 13.234375 -9.1875 16.5 -3.21875 
L 19.28125 2 
L 7.171875 54.6875 
L 16.703125 54.6875 
L 25.78125 12.796875 
L 50.875 54.6875 
L 60.296875 54.6875 
z
" id="DejaVuSans-Oblique-121"/>
      <path d="M 25.390625 -1.421875 
Q 15.765625 -1.421875 10.171875 4.515625 
Q 4.59375 10.453125 4.59375 20.703125 
Q 4.59375 26.65625 6.515625 32.828125 
Q 8.453125 39.015625 11.53125 43.21875 
Q 16.359375 49.75 22.3125 52.875 
Q 28.265625 56 35.796875 56 
Q 45.125 56 50.859375 50.1875 
Q 56.59375 44.390625 56.59375 35.015625 
Q 56.59375 28.515625 54.6875 22.0625 
Q 52.78125 15.625 49.703125 11.375 
Q 44.921875 4.828125 38.96875 1.703125 
Q 33.015625 -1.421875 25.390625 -1.421875 
z
M 13.921875 21 
Q 13.921875 13.578125 17.015625 9.890625 
Q 20.125 6.203125 26.421875 6.203125 
Q 35.453125 6.203125 41.375 14.078125 
Q 47.3125 21.96875 47.3125 34.078125 
Q 47.3125 41.15625 44.140625 44.765625 
Q 40.96875 48.390625 34.8125 48.390625 
Q 29.734375 48.390625 25.78125 46.015625 
Q 21.828125 43.65625 18.703125 38.8125 
Q 16.40625 35.203125 15.15625 30.5625 
Q 13.921875 25.921875 13.921875 21 
z
" id="DejaVuSans-Oblique-111"/>
      <path d="M 18.3125 75.984375 
L 27.296875 75.984375 
L 12.5 0 
L 3.515625 0 
z
" id="DejaVuSans-Oblique-108"/>
      <path d="M 53.71875 31.203125 
L 47.609375 0 
L 38.625 0 
L 40.28125 8.296875 
Q 36.328125 3.421875 31.265625 1 
Q 26.21875 -1.421875 20.015625 -1.421875 
Q 13.03125 -1.421875 8.5625 2.84375 
Q 4.109375 7.125 4.109375 13.8125 
Q 4.109375 23.390625 11.75 28.953125 
Q 19.390625 34.515625 32.8125 34.515625 
L 45.3125 34.515625 
L 45.796875 36.921875 
Q 45.90625 37.3125 45.953125 37.765625 
Q 46 38.234375 46 39.203125 
Q 46 43.5625 42.453125 45.96875 
Q 38.921875 48.390625 32.515625 48.390625 
Q 28.125 48.390625 23.5 47.265625 
Q 18.890625 46.140625 14.015625 43.890625 
L 15.578125 52.203125 
Q 20.65625 54.109375 25.515625 55.046875 
Q 30.375 56 34.90625 56 
Q 44.578125 56 49.625 51.796875 
Q 54.6875 47.609375 54.6875 39.59375 
Q 54.6875 37.984375 54.4375 35.8125 
Q 54.203125 33.640625 53.71875 31.203125 
z
M 44 27.484375 
L 35.015625 27.484375 
Q 23.96875 27.484375 18.671875 24.53125 
Q 13.375 21.578125 13.375 15.375 
Q 13.375 11.078125 16.078125 8.640625 
Q 18.796875 6.203125 23.578125 6.203125 
Q 30.90625 6.203125 36.375 11.453125 
Q 41.84375 16.703125 43.609375 25.484375 
z
" id="DejaVuSans-Oblique-97"/>
      <path d="M 59.625 54.6875 
L 50.296875 6.78125 
Q 47.609375 -7.125 40.015625 -13.953125 
Q 32.421875 -20.796875 19.578125 -20.796875 
Q 14.84375 -20.796875 10.78125 -20.09375 
Q 6.734375 -19.390625 3.21875 -17.921875 
L 4.890625 -9.1875 
Q 8.203125 -11.328125 11.90625 -12.34375 
Q 15.625 -13.375 19.828125 -13.375 
Q 28.375 -13.375 33.859375 -8.703125 
Q 39.359375 -4.046875 41.109375 4.6875 
L 41.890625 8.796875 
Q 38.140625 4.5 33.15625 2.25 
Q 28.171875 0 22.40625 0 
Q 14.109375 0 9.34375 5.484375 
Q 4.59375 10.984375 4.59375 20.609375 
Q 4.59375 28.171875 7.46875 35.421875 
Q 10.359375 42.671875 15.578125 48.296875 
Q 19.046875 52 23.65625 54 
Q 28.265625 56 33.296875 56 
Q 38.8125 56 42.90625 53.4375 
Q 47.015625 50.875 49.03125 46.1875 
L 50.59375 54.6875 
z
M 46.09375 34.625 
Q 46.09375 41.265625 42.96875 44.875 
Q 39.84375 48.484375 34.078125 48.484375 
Q 30.515625 48.484375 27.296875 47.0625 
Q 24.078125 45.65625 21.78125 43.109375 
Q 18.0625 38.921875 15.984375 33.234375 
Q 13.921875 27.546875 13.921875 21.484375 
Q 13.921875 14.75 17.0625 11.125 
Q 20.21875 7.515625 26.125 7.515625 
Q 34.671875 7.515625 40.375 15.25 
Q 46.09375 23 46.09375 34.625 
z
" id="DejaVuSans-Oblique-103"/>
      <path d="M 89.796875 33.015625 
L 83.40625 0 
L 74.421875 0 
L 80.71875 32.71875 
Q 81.109375 34.8125 81.296875 36.328125 
Q 81.5 37.84375 81.5 38.921875 
Q 81.5 43.3125 79.046875 45.75 
Q 76.609375 48.1875 72.21875 48.1875 
Q 65.671875 48.1875 60.546875 43.28125 
Q 55.421875 38.375 53.90625 30.515625 
L 47.90625 0 
L 38.921875 0 
L 45.3125 32.71875 
Q 45.703125 34.515625 45.890625 36.046875 
Q 46.09375 37.59375 46.09375 38.8125 
Q 46.09375 43.265625 43.65625 45.71875 
Q 41.21875 48.1875 36.921875 48.1875 
Q 30.28125 48.1875 25.140625 43.28125 
Q 20.015625 38.375 18.5 30.515625 
L 12.5 0 
L 3.515625 0 
L 14.203125 54.6875 
L 23.1875 54.6875 
L 21.484375 46.1875 
Q 25.140625 50.984375 30.046875 53.484375 
Q 34.96875 56 40.578125 56 
Q 46.53125 56 50.359375 52.875 
Q 54.203125 49.75 54.984375 44.1875 
Q 59.078125 49.953125 64.46875 52.96875 
Q 69.875 56 75.875 56 
Q 82.90625 56 86.734375 51.953125 
Q 90.578125 47.90625 90.578125 40.484375 
Q 90.578125 38.875 90.375 36.9375 
Q 90.1875 35.015625 89.796875 33.015625 
z
" id="DejaVuSans-Oblique-109"/>
      <path d="M 9.078125 75.984375 
L 18.109375 75.984375 
L 18.109375 31.109375 
L 44.921875 54.6875 
L 56.390625 54.6875 
L 27.390625 29.109375 
L 57.625 0 
L 45.90625 0 
L 18.109375 26.703125 
L 18.109375 0 
L 9.078125 0 
z
" id="DejaVuSans-107"/>
     </defs>
     <use transform="translate(0 0.015625)" xlink:href="#DejaVuSans-65"/>
     <use transform="translate(68.408203 0.015625)" xlink:href="#DejaVuSans-32"/>
     <use transform="translate(100.195312 0.015625)" xlink:href="#DejaVuSans-112"/>
     <use transform="translate(163.671875 0.015625)" xlink:href="#DejaVuSans-108"/>
     <use transform="translate(191.455078 0.015625)" xlink:href="#DejaVuSans-111"/>
     <use transform="translate(252.636719 0.015625)" xlink:href="#DejaVuSans-116"/>
     <use transform="translate(291.845703 0.015625)" xlink:href="#DejaVuSans-32"/>
     <use transform="translate(323.632812 0.015625)" xlink:href="#DejaVuSans-102"/>
     <use transform="translate(358.837891 0.015625)" xlink:href="#DejaVuSans-114"/>
     <use transform="translate(399.951172 0.015625)" xlink:href="#DejaVuSans-111"/>
     <use transform="translate(461.132812 0.015625)" xlink:href="#DejaVuSans-109"/>
     <use transform="translate(558.544922 0.015625)" xlink:href="#DejaVuSans-32"/>
     <use transform="translate(590.332031 0.015625)" xlink:href="#DejaVuSans-116"/>
     <use transform="translate(629.541016 0.015625)" xlink:href="#DejaVuSans-104"/>
     <use transform="translate(692.919922 0.015625)" xlink:href="#DejaVuSans-101"/>
     <use transform="translate(754.443359 0.015625)" xlink:href="#DejaVuSans-32"/>
     <use transform="translate(786.230469 0.015625)" xlink:href="#DejaVuSans-Oblique-112"/>
     <use transform="translate(849.707031 0.015625)" xlink:href="#DejaVuSans-Oblique-121"/>
     <use transform="translate(908.886719 0.015625)" xlink:href="#DejaVuSans-Oblique-112"/>
     <use transform="translate(972.363281 0.015625)" xlink:href="#DejaVuSans-Oblique-111"/>
     <use transform="translate(1033.544922 0.015625)" xlink:href="#DejaVuSans-Oblique-108"/>
     <use transform="translate(1061.328125 0.015625)" xlink:href="#DejaVuSans-Oblique-121"/>
     <use transform="translate(1120.507812 0.015625)" xlink:href="#DejaVuSans-Oblique-97"/>
     <use transform="translate(1181.787109 0.015625)" xlink:href="#DejaVuSans-Oblique-103"/>
     <use transform="translate(1245.263672 0.015625)" xlink:href="#DejaVuSans-Oblique-97"/>
     <use transform="translate(1306.542969 0.015625)" xlink:href="#DejaVuSans-Oblique-109"/>
     <use transform="translate(1403.955078 0.015625)" xlink:href="#DejaVuSans-Oblique-109"/>
     <use transform="translate(1501.367188 0.015625)" xlink:href="#DejaVuSans-Oblique-97"/>
     <use transform="translate(1562.646484 0.015625)" xlink:href="#DejaVuSans-32"/>
     <use transform="translate(1594.433594 0.015625)" xlink:href="#DejaVuSans-112"/>
     <use transform="translate(1657.910156 0.015625)" xlink:href="#DejaVuSans-97"/>
     <use transform="translate(1719.189453 0.015625)" xlink:href="#DejaVuSans-99"/>
     <use transform="translate(1774.169922 0.015625)" xlink:href="#DejaVuSans-107"/>
     <use transform="translate(1832.080078 0.015625)" xlink:href="#DejaVuSans-97"/>
     <use transform="translate(1893.359375 0.015625)" xlink:href="#DejaVuSans-103"/>
     <use transform="translate(1956.835938 0.015625)" xlink:href="#DejaVuSans-101"/>
     <use transform="translate(2018.359375 0.015625)" xlink:href="#DejaVuSans-32"/>
     <use transform="translate(2050.146484 0.015625)" xlink:href="#DejaVuSans-105"/>
     <use transform="translate(2077.929688 0.015625)" xlink:href="#DejaVuSans-115"/>
     <use transform="translate(2130.029297 0.015625)" xlink:href="#DejaVuSans-32"/>
     <use transform="translate(2161.816406 0.015625)" xlink:href="#DejaVuSans-117"/>
     <use transform="translate(2225.195312 0.015625)" xlink:href="#DejaVuSans-115"/>
     <use transform="translate(2277.294922 0.015625)" xlink:href="#DejaVuSans-101"/>
     <use transform="translate(2338.818359 0.015625)" xlink:href="#DejaVuSans-100"/>
     <use transform="translate(2402.294922 0.015625)" xlink:href="#DejaVuSans-32"/>
     <use transform="translate(2434.082031 0.015625)" xlink:href="#DejaVuSans-97"/>
     <use transform="translate(2495.361328 0.015625)" xlink:href="#DejaVuSans-115"/>
     <use transform="translate(2547.460938 0.015625)" xlink:href="#DejaVuSans-32"/>
     <use transform="translate(2579.248047 0.015625)" xlink:href="#DejaVuSans-97"/>
     <use transform="translate(2640.527344 0.015625)" xlink:href="#DejaVuSans-32"/>
     <use transform="translate(2672.314453 0.015625)" xlink:href="#DejaVuSans-114"/>
     <use transform="translate(2713.427734 0.015625)" xlink:href="#DejaVuSans-101"/>
     <use transform="translate(2774.951172 0.015625)" xlink:href="#DejaVuSans-102"/>
     <use transform="translate(2810.15625 0.015625)" xlink:href="#DejaVuSans-101"/>
     <use transform="translate(2871.679688 0.015625)" xlink:href="#DejaVuSans-114"/>
     <use transform="translate(2912.792969 0.015625)" xlink:href="#DejaVuSans-101"/>
     <use transform="translate(2974.316406 0.015625)" xlink:href="#DejaVuSans-110"/>
     <use transform="translate(3037.695312 0.015625)" xlink:href="#DejaVuSans-99"/>
     <use transform="translate(3092.675781 0.015625)" xlink:href="#DejaVuSans-101"/>
     <use transform="translate(3154.199219 0.015625)" xlink:href="#DejaVuSans-46"/>
    </g>
   </g>
   <g id="legend_1">
    <g id="patch_7">
     <path d="M 298.02 122.8845 
L 407.72 122.8845 
Q 409.72 122.8845 409.72 120.8845 
L 409.72 48.472 
Q 409.72 46.472 407.72 46.472 
L 298.02 46.472 
Q 296.02 46.472 296.02 48.472 
L 296.02 120.8845 
Q 296.02 122.8845 298.02 122.8845 
z
" style="fill:#eaeaf2;opacity:0.8;stroke:#cccccc;stroke-linejoin:miter;"/>
    </g>
    <g id="line2d_46">
     <path d="M 300.02 54.570438 
L 320.02 54.570438 
" style="fill:none;stroke:#1f77b4;stroke-linecap:round;stroke-width:1.5;"/>
    </g>
    <g id="line2d_47"/>
    <g id="text_18">
     <!-- devroye -->
     <g style="fill:#262626;" transform="translate(328.02 58.070438)scale(0.1 -0.1)">
      <defs>
       <path d="M 2.984375 54.6875 
L 12.5 54.6875 
L 29.59375 8.796875 
L 46.6875 54.6875 
L 56.203125 54.6875 
L 35.6875 0 
L 23.484375 0 
z
" id="DejaVuSans-118"/>
      </defs>
      <use xlink:href="#DejaVuSans-100"/>
      <use x="63.476562" xlink:href="#DejaVuSans-101"/>
      <use x="125" xlink:href="#DejaVuSans-118"/>
      <use x="184.179688" xlink:href="#DejaVuSans-114"/>
      <use x="223.042969" xlink:href="#DejaVuSans-111"/>
      <use x="284.224609" xlink:href="#DejaVuSans-121"/>
      <use x="343.404297" xlink:href="#DejaVuSans-101"/>
     </g>
    </g>
    <g id="line2d_48">
     <path d="M 300.02 69.248563 
L 320.02 69.248563 
" style="fill:none;stroke:#ff7f0e;stroke-linecap:round;stroke-width:1.5;"/>
    </g>
    <g id="line2d_49"/>
    <g id="text_19">
     <!-- alternate -->
     <g style="fill:#262626;" transform="translate(328.02 72.748563)scale(0.1 -0.1)">
      <use xlink:href="#DejaVuSans-97"/>
      <use x="61.279297" xlink:href="#DejaVuSans-108"/>
      <use x="89.0625" xlink:href="#DejaVuSans-116"/>
      <use x="128.271484" xlink:href="#DejaVuSans-101"/>
      <use x="189.794922" xlink:href="#DejaVuSans-114"/>
      <use x="229.158203" xlink:href="#DejaVuSans-110"/>
      <use x="292.537109" xlink:href="#DejaVuSans-97"/>
      <use x="353.816406" xlink:href="#DejaVuSans-116"/>
      <use x="393.025391" xlink:href="#DejaVuSans-101"/>
     </g>
    </g>
    <g id="line2d_50">
     <path d="M 300.02 83.926688 
L 320.02 83.926688 
" style="fill:none;stroke:#2ca02c;stroke-linecap:round;stroke-width:1.5;"/>
    </g>
    <g id="line2d_51"/>
    <g id="text_20">
     <!-- gamma -->
     <g style="fill:#262626;" transform="translate(328.02 87.426688)scale(0.1 -0.1)">
      <use xlink:href="#DejaVuSans-103"/>
      <use x="63.476562" xlink:href="#DejaVuSans-97"/>
      <use x="124.755859" xlink:href="#DejaVuSans-109"/>
      <use x="222.167969" xlink:href="#DejaVuSans-109"/>
      <use x="319.580078" xlink:href="#DejaVuSans-97"/>
     </g>
    </g>
    <g id="line2d_52">
     <path d="M 300.02 98.604813 
L 320.02 98.604813 
" style="fill:none;stroke:#d62728;stroke-linecap:round;stroke-width:1.5;"/>
    </g>
    <g id="line2d_53"/>
    <g id="text_21">
     <!-- saddle -->
     <g style="fill:#262626;" transform="translate(328.02 102.104813)scale(0.1 -0.1)">
      <use xlink:href="#DejaVuSans-115"/>
      <use x="52.099609" xlink:href="#DejaVuSans-97"/>
      <use x="113.378906" xlink:href="#DejaVuSans-100"/>
      <use x="176.855469" xlink:href="#DejaVuSans-100"/>
      <use x="240.332031" xlink:href="#DejaVuSans-108"/>
      <use x="268.115234" xlink:href="#DejaVuSans-101"/>
     </g>
    </g>
    <g id="line2d_54">
     <path d="M 300.02 113.2845 
L 320.02 113.2845 
" style="fill:none;stroke:#9467bd;stroke-linecap:round;stroke-width:1.5;"/>
    </g>
    <g id="line2d_55"/>
    <g id="text_22">
     <!-- $pypolyagamma$ -->
     <g style="fill:#262626;" transform="translate(328.02 116.7845)scale(0.1 -0.1)">
      <use transform="translate(0 0.015625)" xlink:href="#DejaVuSans-Oblique-112"/>
      <use transform="translate(63.476562 0.015625)" xlink:href="#DejaVuSans-Oblique-121"/>
      <use transform="translate(122.65625 0.015625)" xlink:href="#DejaVuSans-Oblique-112"/>
      <use transform="translate(186.132812 0.015625)" xlink:href="#DejaVuSans-Oblique-111"/>
      <use transform="translate(247.314453 0.015625)" xlink:href="#DejaVuSans-Oblique-108"/>
      <use transform="translate(275.097656 0.015625)" xlink:href="#DejaVuSans-Oblique-121"/>
      <use transform="translate(334.277344 0.015625)" xlink:href="#DejaVuSans-Oblique-97"/>
      <use transform="translate(395.556641 0.015625)" xlink:href="#DejaVuSans-Oblique-103"/>
      <use transform="translate(459.033203 0.015625)" xlink:href="#DejaVuSans-Oblique-97"/>
      <use transform="translate(520.3125 0.015625)" xlink:href="#DejaVuSans-Oblique-109"/>
      <use transform="translate(617.724609 0.015625)" xlink:href="#DejaVuSans-Oblique-109"/>
      <use transform="translate(715.136719 0.015625)" xlink:href="#DejaVuSans-Oblique-97"/>
     </g>
    </g>
   </g>
  </g>
 </g>
 <defs>
  <clipPath id="pe50b0d5086">
   <rect height="266.112" width="357.12" x="57.6" y="41.472"/>
  </clipPath>
 </defs>
</svg>
