<?xml version="1.0" encoding="utf-8" standalone="no"?>
<!DOCTYPE svg PUBLIC "-//W3C//DTD SVG 1.1//EN"
  "http://www.w3.org/Graphics/SVG/1.1/DTD/svg11.dtd">
<!-- Created with matplotlib (https://matplotlib.org/) -->
<svg height="345.6pt" version="1.1" viewBox="0 0 460.8 345.6" width="460.8pt" xmlns="http://www.w3.org/2000/svg" xmlns:xlink="http://www.w3.org/1999/xlink">
 <metadata>
  <rdf:RDF xmlns:cc="http://creativecommons.org/ns#" xmlns:dc="http://purl.org/dc/elements/1.1/" xmlns:rdf="http://www.w3.org/1999/02/22-rdf-syntax-ns#">
   <cc:Work>
    <dc:type rdf:resource="http://purl.org/dc/dcmitype/StillImage"/>
    <dc:date>2021-04-10T13:09:29.935970</dc:date>
    <dc:format>image/svg+xml</dc:format>
    <dc:creator>
     <cc:Agent>
      <dc:title>Matplotlib v3.3.3, https://matplotlib.org/</dc:title>
     </cc:Agent>
    </dc:creator>
   </cc:Work>
  </rdf:RDF>
 </metadata>
 <defs>
  <style type="text/css">*{stroke-linecap:butt;stroke-linejoin:round;}</style>
 </defs>
 <g id="figure_1">
  <g id="patch_1">
   <path d="M 0 345.6 
L 460.8 345.6 
L 460.8 0 
L 0 0 
z
" style="fill:#ffffff;"/>
  </g>
  <g id="axes_1">
   <g id="patch_2">
    <path d="M 57.6 307.584 
L 414.72 307.584 
L 414.72 41.472 
L 57.6 41.472 
z
" style="fill:#eaeaf2;"/>
   </g>
   <g id="matplotlib.axis_1">
    <g id="xtick_1">
     <g id="line2d_1">
      <path clip-path="url(#p19a4270fd7)" d="M 74.333405 307.584 
L 74.333405 41.472 
" style="fill:none;stroke:#ffffff;stroke-linecap:round;stroke-width:0.8;"/>
     </g>
     <g id="text_1">
      <!-- 0 -->
      <g style="fill:#262626;" transform="translate(71.152155 322.182437)scale(0.1 -0.1)">
       <defs>
        <path d="M 31.78125 66.40625 
Q 24.171875 66.40625 20.328125 58.90625 
Q 16.5 51.421875 16.5 36.375 
Q 16.5 21.390625 20.328125 13.890625 
Q 24.171875 6.390625 31.78125 6.390625 
Q 39.453125 6.390625 43.28125 13.890625 
Q 47.125 21.390625 47.125 36.375 
Q 47.125 51.421875 43.28125 58.90625 
Q 39.453125 66.40625 31.78125 66.40625 
z
M 31.78125 74.21875 
Q 44.046875 74.21875 50.515625 64.515625 
Q 56.984375 54.828125 56.984375 36.375 
Q 56.984375 17.96875 50.515625 8.265625 
Q 44.046875 -1.421875 31.78125 -1.421875 
Q 19.53125 -1.421875 13.0625 8.265625 
Q 6.59375 17.96875 6.59375 36.375 
Q 6.59375 54.828125 13.0625 64.515625 
Q 19.53125 74.21875 31.78125 74.21875 
z
" id="DejaVuSans-48"/>
       </defs>
       <use xlink:href="#DejaVuSans-48"/>
      </g>
     </g>
    </g>
    <g id="xtick_2">
     <g id="line2d_2">
      <path clip-path="url(#p19a4270fd7)" d="M 128.79526 307.584 
L 128.79526 41.472 
" style="fill:none;stroke:#ffffff;stroke-linecap:round;stroke-width:0.8;"/>
     </g>
     <g id="text_2">
      <!-- 2 -->
      <g style="fill:#262626;" transform="translate(125.61401 322.182437)scale(0.1 -0.1)">
       <defs>
        <path d="M 19.1875 8.296875 
L 53.609375 8.296875 
L 53.609375 0 
L 7.328125 0 
L 7.328125 8.296875 
Q 12.9375 14.109375 22.625 23.890625 
Q 32.328125 33.6875 34.8125 36.53125 
Q 39.546875 41.84375 41.421875 45.53125 
Q 43.3125 49.21875 43.3125 52.78125 
Q 43.3125 58.59375 39.234375 62.25 
Q 35.15625 65.921875 28.609375 65.921875 
Q 23.96875 65.921875 18.8125 64.3125 
Q 13.671875 62.703125 7.8125 59.421875 
L 7.8125 69.390625 
Q 13.765625 71.78125 18.9375 73 
Q 24.125 74.21875 28.421875 74.21875 
Q 39.75 74.21875 46.484375 68.546875 
Q 53.21875 62.890625 53.21875 53.421875 
Q 53.21875 48.921875 51.53125 44.890625 
Q 49.859375 40.875 45.40625 35.40625 
Q 44.1875 33.984375 37.640625 27.21875 
Q 31.109375 20.453125 19.1875 8.296875 
z
" id="DejaVuSans-50"/>
       </defs>
       <use xlink:href="#DejaVuSans-50"/>
      </g>
     </g>
    </g>
    <g id="xtick_3">
     <g id="line2d_3">
      <path clip-path="url(#p19a4270fd7)" d="M 183.257115 307.584 
L 183.257115 41.472 
" style="fill:none;stroke:#ffffff;stroke-linecap:round;stroke-width:0.8;"/>
     </g>
     <g id="text_3">
      <!-- 4 -->
      <g style="fill:#262626;" transform="translate(180.075865 322.182437)scale(0.1 -0.1)">
       <defs>
        <path d="M 37.796875 64.3125 
L 12.890625 25.390625 
L 37.796875 25.390625 
z
M 35.203125 72.90625 
L 47.609375 72.90625 
L 47.609375 25.390625 
L 58.015625 25.390625 
L 58.015625 17.1875 
L 47.609375 17.1875 
L 47.609375 0 
L 37.796875 0 
L 37.796875 17.1875 
L 4.890625 17.1875 
L 4.890625 26.703125 
z
" id="DejaVuSans-52"/>
       </defs>
       <use xlink:href="#DejaVuSans-52"/>
      </g>
     </g>
    </g>
    <g id="xtick_4">
     <g id="line2d_4">
      <path clip-path="url(#p19a4270fd7)" d="M 237.718971 307.584 
L 237.718971 41.472 
" style="fill:none;stroke:#ffffff;stroke-linecap:round;stroke-width:0.8;"/>
     </g>
     <g id="text_4">
      <!-- 6 -->
      <g style="fill:#262626;" transform="translate(234.537721 322.182437)scale(0.1 -0.1)">
       <defs>
        <path d="M 33.015625 40.375 
Q 26.375 40.375 22.484375 35.828125 
Q 18.609375 31.296875 18.609375 23.390625 
Q 18.609375 15.53125 22.484375 10.953125 
Q 26.375 6.390625 33.015625 6.390625 
Q 39.65625 6.390625 43.53125 10.953125 
Q 47.40625 15.53125 47.40625 23.390625 
Q 47.40625 31.296875 43.53125 35.828125 
Q 39.65625 40.375 33.015625 40.375 
z
M 52.59375 71.296875 
L 52.59375 62.3125 
Q 48.875 64.0625 45.09375 64.984375 
Q 41.3125 65.921875 37.59375 65.921875 
Q 27.828125 65.921875 22.671875 59.328125 
Q 17.53125 52.734375 16.796875 39.40625 
Q 19.671875 43.65625 24.015625 45.921875 
Q 28.375 48.1875 33.59375 48.1875 
Q 44.578125 48.1875 50.953125 41.515625 
Q 57.328125 34.859375 57.328125 23.390625 
Q 57.328125 12.15625 50.6875 5.359375 
Q 44.046875 -1.421875 33.015625 -1.421875 
Q 20.359375 -1.421875 13.671875 8.265625 
Q 6.984375 17.96875 6.984375 36.375 
Q 6.984375 53.65625 15.1875 63.9375 
Q 23.390625 74.21875 37.203125 74.21875 
Q 40.921875 74.21875 44.703125 73.484375 
Q 48.484375 72.75 52.59375 71.296875 
z
" id="DejaVuSans-54"/>
       </defs>
       <use xlink:href="#DejaVuSans-54"/>
      </g>
     </g>
    </g>
    <g id="xtick_5">
     <g id="line2d_5">
      <path clip-path="url(#p19a4270fd7)" d="M 292.180826 307.584 
L 292.180826 41.472 
" style="fill:none;stroke:#ffffff;stroke-linecap:round;stroke-width:0.8;"/>
     </g>
     <g id="text_5">
      <!-- 8 -->
      <g style="fill:#262626;" transform="translate(288.999576 322.182437)scale(0.1 -0.1)">
       <defs>
        <path d="M 31.78125 34.625 
Q 24.75 34.625 20.71875 30.859375 
Q 16.703125 27.09375 16.703125 20.515625 
Q 16.703125 13.921875 20.71875 10.15625 
Q 24.75 6.390625 31.78125 6.390625 
Q 38.8125 6.390625 42.859375 10.171875 
Q 46.921875 13.96875 46.921875 20.515625 
Q 46.921875 27.09375 42.890625 30.859375 
Q 38.875 34.625 31.78125 34.625 
z
M 21.921875 38.8125 
Q 15.578125 40.375 12.03125 44.71875 
Q 8.5 49.078125 8.5 55.328125 
Q 8.5 64.0625 14.71875 69.140625 
Q 20.953125 74.21875 31.78125 74.21875 
Q 42.671875 74.21875 48.875 69.140625 
Q 55.078125 64.0625 55.078125 55.328125 
Q 55.078125 49.078125 51.53125 44.71875 
Q 48 40.375 41.703125 38.8125 
Q 48.828125 37.15625 52.796875 32.3125 
Q 56.78125 27.484375 56.78125 20.515625 
Q 56.78125 9.90625 50.3125 4.234375 
Q 43.84375 -1.421875 31.78125 -1.421875 
Q 19.734375 -1.421875 13.25 4.234375 
Q 6.78125 9.90625 6.78125 20.515625 
Q 6.78125 27.484375 10.78125 32.3125 
Q 14.796875 37.15625 21.921875 38.8125 
z
M 18.3125 54.390625 
Q 18.3125 48.734375 21.84375 45.5625 
Q 25.390625 42.390625 31.78125 42.390625 
Q 38.140625 42.390625 41.71875 45.5625 
Q 45.3125 48.734375 45.3125 54.390625 
Q 45.3125 60.0625 41.71875 63.234375 
Q 38.140625 66.40625 31.78125 66.40625 
Q 25.390625 66.40625 21.84375 63.234375 
Q 18.3125 60.0625 18.3125 54.390625 
z
" id="DejaVuSans-56"/>
       </defs>
       <use xlink:href="#DejaVuSans-56"/>
      </g>
     </g>
    </g>
    <g id="xtick_6">
     <g id="line2d_6">
      <path clip-path="url(#p19a4270fd7)" d="M 346.642681 307.584 
L 346.642681 41.472 
" style="fill:none;stroke:#ffffff;stroke-linecap:round;stroke-width:0.8;"/>
     </g>
     <g id="text_6">
      <!-- 10 -->
      <g style="fill:#262626;" transform="translate(340.280181 322.182437)scale(0.1 -0.1)">
       <defs>
        <path d="M 12.40625 8.296875 
L 28.515625 8.296875 
L 28.515625 63.921875 
L 10.984375 60.40625 
L 10.984375 69.390625 
L 28.421875 72.90625 
L 38.28125 72.90625 
L 38.28125 8.296875 
L 54.390625 8.296875 
L 54.390625 0 
L 12.40625 0 
z
" id="DejaVuSans-49"/>
       </defs>
       <use xlink:href="#DejaVuSans-49"/>
       <use x="63.623047" xlink:href="#DejaVuSans-48"/>
      </g>
     </g>
    </g>
    <g id="xtick_7">
     <g id="line2d_7">
      <path clip-path="url(#p19a4270fd7)" d="M 401.104536 307.584 
L 401.104536 41.472 
" style="fill:none;stroke:#ffffff;stroke-linecap:round;stroke-width:0.8;"/>
     </g>
     <g id="text_7">
      <!-- 12 -->
      <g style="fill:#262626;" transform="translate(394.742036 322.182437)scale(0.1 -0.1)">
       <use xlink:href="#DejaVuSans-49"/>
       <use x="63.623047" xlink:href="#DejaVuSans-50"/>
      </g>
     </g>
    </g>
    <g id="text_8">
     <!-- x -->
     <g style="fill:#262626;" transform="translate(233.200625 335.860562)scale(0.1 -0.1)">
      <defs>
       <path d="M 54.890625 54.6875 
L 35.109375 28.078125 
L 55.90625 0 
L 45.3125 0 
L 29.390625 21.484375 
L 13.484375 0 
L 2.875 0 
L 24.125 28.609375 
L 4.6875 54.6875 
L 15.28125 54.6875 
L 29.78125 35.203125 
L 44.28125 54.6875 
z
" id="DejaVuSans-120"/>
      </defs>
      <use xlink:href="#DejaVuSans-120"/>
     </g>
    </g>
   </g>
   <g id="matplotlib.axis_2">
    <g id="ytick_1">
     <g id="line2d_8">
      <path clip-path="url(#p19a4270fd7)" d="M 57.6 307.584 
L 414.72 307.584 
" style="fill:none;stroke:#ffffff;stroke-linecap:round;stroke-width:0.8;"/>
     </g>
     <g id="text_9">
      <!-- 0.0 -->
      <g style="fill:#262626;" transform="translate(34.696875 311.383219)scale(0.1 -0.1)">
       <defs>
        <path d="M 10.6875 12.40625 
L 21 12.40625 
L 21 0 
L 10.6875 0 
z
" id="DejaVuSans-46"/>
       </defs>
       <use xlink:href="#DejaVuSans-48"/>
       <use x="63.623047" xlink:href="#DejaVuSans-46"/>
       <use x="95.410156" xlink:href="#DejaVuSans-48"/>
      </g>
     </g>
    </g>
    <g id="ytick_2">
     <g id="line2d_9">
      <path clip-path="url(#p19a4270fd7)" d="M 57.6 273.3274 
L 414.72 273.3274 
" style="fill:none;stroke:#ffffff;stroke-linecap:round;stroke-width:0.8;"/>
     </g>
     <g id="text_10">
      <!-- 0.5 -->
      <g style="fill:#262626;" transform="translate(34.696875 277.126619)scale(0.1 -0.1)">
       <defs>
        <path d="M 10.796875 72.90625 
L 49.515625 72.90625 
L 49.515625 64.59375 
L 19.828125 64.59375 
L 19.828125 46.734375 
Q 21.96875 47.46875 24.109375 47.828125 
Q 26.265625 48.1875 28.421875 48.1875 
Q 40.625 48.1875 47.75 41.5 
Q 54.890625 34.8125 54.890625 23.390625 
Q 54.890625 11.625 47.5625 5.09375 
Q 40.234375 -1.421875 26.90625 -1.421875 
Q 22.3125 -1.421875 17.546875 -0.640625 
Q 12.796875 0.140625 7.71875 1.703125 
L 7.71875 11.625 
Q 12.109375 9.234375 16.796875 8.0625 
Q 21.484375 6.890625 26.703125 6.890625 
Q 35.15625 6.890625 40.078125 11.328125 
Q 45.015625 15.765625 45.015625 23.390625 
Q 45.015625 31 40.078125 35.4375 
Q 35.15625 39.890625 26.703125 39.890625 
Q 22.75 39.890625 18.8125 39.015625 
Q 14.890625 38.140625 10.796875 36.28125 
z
" id="DejaVuSans-53"/>
       </defs>
       <use xlink:href="#DejaVuSans-48"/>
       <use x="63.623047" xlink:href="#DejaVuSans-46"/>
       <use x="95.410156" xlink:href="#DejaVuSans-53"/>
      </g>
     </g>
    </g>
    <g id="ytick_3">
     <g id="line2d_10">
      <path clip-path="url(#p19a4270fd7)" d="M 57.6 239.0708 
L 414.72 239.0708 
" style="fill:none;stroke:#ffffff;stroke-linecap:round;stroke-width:0.8;"/>
     </g>
     <g id="text_11">
      <!-- 1.0 -->
      <g style="fill:#262626;" transform="translate(34.696875 242.870018)scale(0.1 -0.1)">
       <use xlink:href="#DejaVuSans-49"/>
       <use x="63.623047" xlink:href="#DejaVuSans-46"/>
       <use x="95.410156" xlink:href="#DejaVuSans-48"/>
      </g>
     </g>
    </g>
    <g id="ytick_4">
     <g id="line2d_11">
      <path clip-path="url(#p19a4270fd7)" d="M 57.6 204.814199 
L 414.72 204.814199 
" style="fill:none;stroke:#ffffff;stroke-linecap:round;stroke-width:0.8;"/>
     </g>
     <g id="text_12">
      <!-- 1.5 -->
      <g style="fill:#262626;" transform="translate(34.696875 208.613418)scale(0.1 -0.1)">
       <use xlink:href="#DejaVuSans-49"/>
       <use x="63.623047" xlink:href="#DejaVuSans-46"/>
       <use x="95.410156" xlink:href="#DejaVuSans-53"/>
      </g>
     </g>
    </g>
    <g id="ytick_5">
     <g id="line2d_12">
      <path clip-path="url(#p19a4270fd7)" d="M 57.6 170.557599 
L 414.72 170.557599 
" style="fill:none;stroke:#ffffff;stroke-linecap:round;stroke-width:0.8;"/>
     </g>
     <g id="text_13">
      <!-- 2.0 -->
      <g style="fill:#262626;" transform="translate(34.696875 174.356818)scale(0.1 -0.1)">
       <use xlink:href="#DejaVuSans-50"/>
       <use x="63.623047" xlink:href="#DejaVuSans-46"/>
       <use x="95.410156" xlink:href="#DejaVuSans-48"/>
      </g>
     </g>
    </g>
    <g id="ytick_6">
     <g id="line2d_13">
      <path clip-path="url(#p19a4270fd7)" d="M 57.6 136.300999 
L 414.72 136.300999 
" style="fill:none;stroke:#ffffff;stroke-linecap:round;stroke-width:0.8;"/>
     </g>
     <g id="text_14">
      <!-- 2.5 -->
      <g style="fill:#262626;" transform="translate(34.696875 140.100218)scale(0.1 -0.1)">
       <use xlink:href="#DejaVuSans-50"/>
       <use x="63.623047" xlink:href="#DejaVuSans-46"/>
       <use x="95.410156" xlink:href="#DejaVuSans-53"/>
      </g>
     </g>
    </g>
    <g id="ytick_7">
     <g id="line2d_14">
      <path clip-path="url(#p19a4270fd7)" d="M 57.6 102.044399 
L 414.72 102.044399 
" style="fill:none;stroke:#ffffff;stroke-linecap:round;stroke-width:0.8;"/>
     </g>
     <g id="text_15">
      <!-- 3.0 -->
      <g style="fill:#262626;" transform="translate(34.696875 105.843618)scale(0.1 -0.1)">
       <defs>
        <path d="M 40.578125 39.3125 
Q 47.65625 37.796875 51.625 33 
Q 55.609375 28.21875 55.609375 21.1875 
Q 55.609375 10.40625 48.1875 4.484375 
Q 40.765625 -1.421875 27.09375 -1.421875 
Q 22.515625 -1.421875 17.65625 -0.515625 
Q 12.796875 0.390625 7.625 2.203125 
L 7.625 11.71875 
Q 11.71875 9.328125 16.59375 8.109375 
Q 21.484375 6.890625 26.8125 6.890625 
Q 36.078125 6.890625 40.9375 10.546875 
Q 45.796875 14.203125 45.796875 21.1875 
Q 45.796875 27.640625 41.28125 31.265625 
Q 36.765625 34.90625 28.71875 34.90625 
L 20.21875 34.90625 
L 20.21875 43.015625 
L 29.109375 43.015625 
Q 36.375 43.015625 40.234375 45.921875 
Q 44.09375 48.828125 44.09375 54.296875 
Q 44.09375 59.90625 40.109375 62.90625 
Q 36.140625 65.921875 28.71875 65.921875 
Q 24.65625 65.921875 20.015625 65.03125 
Q 15.375 64.15625 9.8125 62.3125 
L 9.8125 71.09375 
Q 15.4375 72.65625 20.34375 73.4375 
Q 25.25 74.21875 29.59375 74.21875 
Q 40.828125 74.21875 47.359375 69.109375 
Q 53.90625 64.015625 53.90625 55.328125 
Q 53.90625 49.265625 50.4375 45.09375 
Q 46.96875 40.921875 40.578125 39.3125 
z
" id="DejaVuSans-51"/>
       </defs>
       <use xlink:href="#DejaVuSans-51"/>
       <use x="63.623047" xlink:href="#DejaVuSans-46"/>
       <use x="95.410156" xlink:href="#DejaVuSans-48"/>
      </g>
     </g>
    </g>
    <g id="ytick_8">
     <g id="line2d_15">
      <path clip-path="url(#p19a4270fd7)" d="M 57.6 67.787799 
L 414.72 67.787799 
" style="fill:none;stroke:#ffffff;stroke-linecap:round;stroke-width:0.8;"/>
     </g>
     <g id="text_16">
      <!-- 3.5 -->
      <g style="fill:#262626;" transform="translate(34.696875 71.587018)scale(0.1 -0.1)">
       <use xlink:href="#DejaVuSans-51"/>
       <use x="63.623047" xlink:href="#DejaVuSans-46"/>
       <use x="95.410156" xlink:href="#DejaVuSans-53"/>
      </g>
     </g>
    </g>
    <g id="text_17">
     <!-- f(x) -->
     <g style="fill:#262626;" transform="translate(28.617188 183.149094)rotate(-90)scale(0.1 -0.1)">
      <defs>
       <path d="M 37.109375 75.984375 
L 37.109375 68.5 
L 28.515625 68.5 
Q 23.6875 68.5 21.796875 66.546875 
Q 19.921875 64.59375 19.921875 59.515625 
L 19.921875 54.6875 
L 34.71875 54.6875 
L 34.71875 47.703125 
L 19.921875 47.703125 
L 19.921875 0 
L 10.890625 0 
L 10.890625 47.703125 
L 2.296875 47.703125 
L 2.296875 54.6875 
L 10.890625 54.6875 
L 10.890625 58.5 
Q 10.890625 67.625 15.140625 71.796875 
Q 19.390625 75.984375 28.609375 75.984375 
z
" id="DejaVuSans-102"/>
       <path d="M 31 75.875 
Q 24.46875 64.65625 21.28125 53.65625 
Q 18.109375 42.671875 18.109375 31.390625 
Q 18.109375 20.125 21.3125 9.0625 
Q 24.515625 -2 31 -13.1875 
L 23.1875 -13.1875 
Q 15.875 -1.703125 12.234375 9.375 
Q 8.59375 20.453125 8.59375 31.390625 
Q 8.59375 42.28125 12.203125 53.3125 
Q 15.828125 64.359375 23.1875 75.875 
z
" id="DejaVuSans-40"/>
       <path d="M 8.015625 75.875 
L 15.828125 75.875 
Q 23.140625 64.359375 26.78125 53.3125 
Q 30.421875 42.28125 30.421875 31.390625 
Q 30.421875 20.453125 26.78125 9.375 
Q 23.140625 -1.703125 15.828125 -13.1875 
L 8.015625 -13.1875 
Q 14.5 -2 17.703125 9.0625 
Q 20.90625 20.125 20.90625 31.390625 
Q 20.90625 42.671875 17.703125 53.65625 
Q 14.5 64.65625 8.015625 75.875 
z
" id="DejaVuSans-41"/>
      </defs>
      <use xlink:href="#DejaVuSans-102"/>
      <use x="35.205078" xlink:href="#DejaVuSans-40"/>
      <use x="74.21875" xlink:href="#DejaVuSans-120"/>
      <use x="133.398438" xlink:href="#DejaVuSans-41"/>
     </g>
    </g>
   </g>
   <g id="line2d_16">
    <path clip-path="url(#p19a4270fd7)" d="M 74.605714 307.48214 
L 74.946169 276.261293 
L 75.627079 117.54561 
L 75.967533 75.994189 
L 76.307988 57.889387 
L 76.648443 54.144 
L 76.988897 58.510957 
L 77.669807 78.015495 
L 79.712535 145.378674 
L 80.7339 172.658521 
L 81.755264 195.432923 
L 82.776628 214.37876 
L 83.797992 230.126995 
L 84.819356 243.214918 
L 85.840721 254.091478 
L 86.862085 263.130226 
L 87.883449 270.64168 
L 88.904813 276.883908 
L 89.926178 282.071373 
L 90.947542 286.3823 
L 91.968906 289.964799 
L 92.99027 292.941956 
L 94.352089 296.144096 
L 95.713908 298.645944 
L 97.075727 300.600651 
L 98.437546 302.127874 
L 99.799365 303.3211 
L 101.161184 304.253375 
L 102.863458 305.137464 
L 104.565731 305.786878 
L 106.60846 306.342895 
L 109.332098 306.826383 
L 112.736645 307.175209 
L 117.503012 307.411665 
L 125.333471 307.542304 
L 145.760755 307.582971 
L 414.72 307.584 
L 414.72 307.584 
" style="fill:none;stroke:#1f77b4;stroke-linecap:round;stroke-width:1.5;"/>
   </g>
   <g id="line2d_17">
    <path clip-path="url(#p19a4270fd7)" d="M 74.605714 307.584 
L 78.691171 307.532965 
L 79.372081 307.36179 
L 80.05299 306.918705 
L 80.7339 306.036502 
L 81.414809 304.571057 
L 82.095719 302.432373 
L 82.776628 299.595102 
L 83.797992 294.117299 
L 85.159811 285.034793 
L 89.926178 250.830793 
L 91.287997 243.560973 
L 92.309361 239.307994 
L 93.330725 236.122579 
L 94.011634 234.584931 
L 94.692544 233.49987 
L 95.373453 232.846864 
L 96.054363 232.600921 
L 96.735272 232.733764 
L 97.416182 233.214875 
L 98.097091 234.01239 
L 99.118456 235.730957 
L 100.13982 237.979787 
L 101.501639 241.623123 
L 103.203912 246.896602 
L 106.60846 258.464563 
L 109.672553 268.625754 
L 112.055736 275.759812 
L 114.098464 281.171912 
L 116.141193 285.894208 
L 117.843466 289.31059 
L 119.54574 292.280566 
L 121.248014 294.837837 
L 122.950287 297.021136 
L 124.652561 298.871075 
L 126.354835 300.427906 
L 128.397563 301.963058 
L 130.440292 303.192166 
L 132.48302 304.169182 
L 134.866203 305.05228 
L 137.589841 305.797812 
L 140.653934 306.387094 
L 144.398936 306.857719 
L 149.165302 307.20494 
L 155.633943 307.430624 
L 166.528494 307.552143 
L 197.509876 307.58371 
L 414.72 307.584 
L 414.72 307.584 
" style="fill:none;stroke:#ff7f0e;stroke-linecap:round;stroke-width:1.5;"/>
   </g>
   <g id="line2d_18">
    <path clip-path="url(#p19a4270fd7)" d="M 74.605714 307.584 
L 87.20254 307.495536 
L 88.904813 307.251343 
L 90.266632 306.813665 
L 91.287997 306.272061 
L 92.309361 305.496029 
L 93.330725 304.44502 
L 94.352089 303.088167 
L 95.373453 301.407227 
L 96.735272 298.657204 
L 98.097091 295.357096 
L 99.799365 290.575012 
L 102.182548 283.063253 
L 106.268005 270.001785 
L 107.970279 265.223833 
L 109.332098 261.900615 
L 110.693917 259.102079 
L 112.055736 256.876418 
L 113.0771 255.59848 
L 114.098464 254.658748 
L 115.119828 254.05289 
L 116.141193 253.771066 
L 117.162557 253.798757 
L 118.183921 254.117599 
L 119.205285 254.706214 
L 120.22665 255.540994 
L 121.588468 256.99343 
L 122.950287 258.777222 
L 124.652561 261.37896 
L 127.035744 265.509232 
L 131.461656 273.819201 
L 135.206658 280.662083 
L 137.930296 285.203502 
L 140.313479 288.778478 
L 142.696662 291.948532 
L 145.079846 294.710221 
L 147.122574 296.763806 
L 149.165302 298.546011 
L 151.548486 300.311283 
L 153.931669 301.774807 
L 156.314852 302.97569 
L 159.03849 304.075025 
L 161.762128 304.93295 
L 164.826221 305.666839 
L 168.230768 306.259921 
L 172.316225 306.745563 
L 177.423046 307.118756 
L 184.232141 307.377597 
L 194.786238 307.528476 
L 218.277615 307.581511 
L 414.72 307.584 
L 414.72 307.584 
" style="fill:none;stroke:#2ca02c;stroke-linecap:round;stroke-width:1.5;"/>
   </g>
   <g id="line2d_19">
    <path clip-path="url(#p19a4270fd7)" d="M 74.605714 307.584 
L 98.097091 307.483003 
L 100.820729 307.217214 
L 102.863458 306.7782 
L 104.565731 306.170089 
L 105.92755 305.478892 
L 107.289369 304.573337 
L 108.651188 303.42936 
L 110.013007 302.030852 
L 111.715281 299.91608 
L 113.417555 297.405814 
L 115.460283 293.927181 
L 117.843466 289.373108 
L 126.01438 273.263993 
L 128.057109 270.0091 
L 129.759382 267.74067 
L 131.121201 266.252057 
L 132.48302 265.070709 
L 133.844839 264.204565 
L 135.206658 263.654381 
L 136.228022 263.445827 
L 137.589841 263.431105 
L 138.95166 263.702997 
L 140.313479 264.241916 
L 141.675298 265.024969 
L 143.377572 266.308396 
L 145.079846 267.881042 
L 147.122574 270.073931 
L 149.846212 273.366486 
L 154.612578 279.593211 
L 159.378945 285.697183 
L 162.443037 289.289127 
L 165.166675 292.17945 
L 167.890313 294.755397 
L 170.613951 297.010075 
L 173.337589 298.952121 
L 176.061227 300.600938 
L 178.784865 301.982633 
L 181.508503 303.126768 
L 184.572595 304.16797 
L 187.977143 305.068745 
L 191.722145 305.809102 
L 195.807602 306.386571 
L 200.914423 306.864866 
L 207.042608 307.203235 
L 215.553977 307.432561 
L 229.512621 307.553311 
L 269.345826 307.583791 
L 414.72 307.584 
L 414.72 307.584 
" style="fill:none;stroke:#d62728;stroke-linecap:round;stroke-width:1.5;"/>
   </g>
   <g id="line2d_20">
    <path clip-path="url(#p19a4270fd7)" d="M 74.605714 307.584 
L 119.205285 307.476824 
L 123.290742 307.219893 
L 126.354835 306.801128 
L 128.738018 306.267038 
L 131.121201 305.492492 
L 133.16393 304.599703 
L 135.206658 303.469083 
L 137.249387 302.084664 
L 139.292115 300.4419 
L 141.675298 298.21102 
L 144.058481 295.678006 
L 147.122574 292.078912 
L 157.336216 279.740278 
L 159.719399 277.373973 
L 161.762128 275.644101 
L 163.804856 274.229539 
L 165.50713 273.31062 
L 167.209404 272.637574 
L 168.911677 272.213566 
L 170.613951 272.036487 
L 172.316225 272.099403 
L 174.018498 272.391112 
L 175.720772 272.896786 
L 177.763501 273.760838 
L 179.806229 274.872456 
L 182.189412 276.431751 
L 184.91305 278.483722 
L 188.658052 281.614275 
L 200.573968 291.816891 
L 204.31897 294.60673 
L 207.723518 296.86284 
L 211.128065 298.836673 
L 214.532613 300.530717 
L 217.93716 301.959661 
L 221.341707 303.146123 
L 225.08671 304.203441 
L 229.172166 305.104207 
L 233.598078 305.836667 
L 238.704899 306.437493 
L 244.49263 306.887617 
L 251.982634 307.229702 
L 262.196276 307.449926 
L 279.219013 307.560273 
L 334.032227 307.583956 
L 414.72 307.584 
L 414.72 307.584 
" style="fill:none;stroke:#9467bd;stroke-linecap:round;stroke-width:1.5;"/>
   </g>
   <g id="line2d_21">
    <path clip-path="url(#p19a4270fd7)" d="M 74.605714 307.584 
L 167.209404 307.476232 
L 173.678044 307.228059 
L 178.44441 306.831952 
L 182.529867 306.263363 
L 185.934414 305.57509 
L 189.338962 304.652278 
L 192.403054 303.597563 
L 195.467147 302.318565 
L 198.53124 300.815811 
L 201.935787 298.901232 
L 206.021244 296.320024 
L 211.808975 292.34218 
L 218.618069 287.697095 
L 222.363072 285.412244 
L 225.427164 283.789299 
L 228.150802 282.578185 
L 230.87444 281.614288 
L 233.257623 280.989137 
L 235.640807 280.575619 
L 238.02399 280.375882 
L 240.407173 280.387069 
L 242.790356 280.601709 
L 245.513994 281.081155 
L 248.237632 281.788451 
L 251.301725 282.82252 
L 254.706272 284.216483 
L 258.791729 286.143861 
L 264.579459 289.151209 
L 275.474011 294.847331 
L 280.580832 297.242785 
L 285.347199 299.227434 
L 289.77311 300.831529 
L 294.199022 302.203528 
L 298.624934 303.353605 
L 303.3913 304.364979 
L 308.498121 305.219106 
L 314.285852 305.947207 
L 320.754492 306.522791 
L 328.244496 306.95879 
L 337.777229 307.277503 
L 351.054964 307.477863 
L 374.546341 307.570282 
L 414.72 307.583725 
L 414.72 307.583725 
" style="fill:none;stroke:#8c564b;stroke-linecap:round;stroke-width:1.5;"/>
   </g>
   <g id="patch_3">
    <path d="M 57.6 307.584 
L 57.6 41.472 
" style="fill:none;stroke:#ffffff;stroke-linecap:square;stroke-linejoin:miter;stroke-width:0.8;"/>
   </g>
   <g id="patch_4">
    <path d="M 414.72 307.584 
L 414.72 41.472 
" style="fill:none;stroke:#ffffff;stroke-linecap:square;stroke-linejoin:miter;stroke-width:0.8;"/>
   </g>
   <g id="patch_5">
    <path d="M 57.6 307.584 
L 414.72 307.584 
" style="fill:none;stroke:#ffffff;stroke-linecap:square;stroke-linejoin:miter;stroke-width:0.8;"/>
   </g>
   <g id="patch_6">
    <path d="M 57.6 41.472 
L 414.72 41.472 
" style="fill:none;stroke:#ffffff;stroke-linecap:square;stroke-linejoin:miter;stroke-width:0.8;"/>
   </g>
   <g id="text_18">
    <!-- Density function plot of PG(h, 0) for h $\in$ (1, 4, 7, 10, 15, 25). -->
    <g style="fill:#262626;" transform="translate(98.235 35.472)scale(0.09 -0.09)">
     <defs>
      <path d="M 19.671875 64.796875 
L 19.671875 8.109375 
L 31.59375 8.109375 
Q 46.6875 8.109375 53.6875 14.9375 
Q 60.6875 21.78125 60.6875 36.53125 
Q 60.6875 51.171875 53.6875 57.984375 
Q 46.6875 64.796875 31.59375 64.796875 
z
M 9.8125 72.90625 
L 30.078125 72.90625 
Q 51.265625 72.90625 61.171875 64.09375 
Q 71.09375 55.28125 71.09375 36.53125 
Q 71.09375 17.671875 61.125 8.828125 
Q 51.171875 0 30.078125 0 
L 9.8125 0 
z
" id="DejaVuSans-68"/>
      <path d="M 56.203125 29.59375 
L 56.203125 25.203125 
L 14.890625 25.203125 
Q 15.484375 15.921875 20.484375 11.0625 
Q 25.484375 6.203125 34.421875 6.203125 
Q 39.59375 6.203125 44.453125 7.46875 
Q 49.3125 8.734375 54.109375 11.28125 
L 54.109375 2.78125 
Q 49.265625 0.734375 44.1875 -0.34375 
Q 39.109375 -1.421875 33.890625 -1.421875 
Q 20.796875 -1.421875 13.15625 6.1875 
Q 5.515625 13.8125 5.515625 26.8125 
Q 5.515625 40.234375 12.765625 48.109375 
Q 20.015625 56 32.328125 56 
Q 43.359375 56 49.78125 48.890625 
Q 56.203125 41.796875 56.203125 29.59375 
z
M 47.21875 32.234375 
Q 47.125 39.59375 43.09375 43.984375 
Q 39.0625 48.390625 32.421875 48.390625 
Q 24.90625 48.390625 20.390625 44.140625 
Q 15.875 39.890625 15.1875 32.171875 
z
" id="DejaVuSans-101"/>
      <path d="M 54.890625 33.015625 
L 54.890625 0 
L 45.90625 0 
L 45.90625 32.71875 
Q 45.90625 40.484375 42.875 44.328125 
Q 39.84375 48.1875 33.796875 48.1875 
Q 26.515625 48.1875 22.3125 43.546875 
Q 18.109375 38.921875 18.109375 30.90625 
L 18.109375 0 
L 9.078125 0 
L 9.078125 54.6875 
L 18.109375 54.6875 
L 18.109375 46.1875 
Q 21.34375 51.125 25.703125 53.5625 
Q 30.078125 56 35.796875 56 
Q 45.21875 56 50.046875 50.171875 
Q 54.890625 44.34375 54.890625 33.015625 
z
" id="DejaVuSans-110"/>
      <path d="M 44.28125 53.078125 
L 44.28125 44.578125 
Q 40.484375 46.53125 36.375 47.5 
Q 32.28125 48.484375 27.875 48.484375 
Q 21.1875 48.484375 17.84375 46.4375 
Q 14.5 44.390625 14.5 40.28125 
Q 14.5 37.15625 16.890625 35.375 
Q 19.28125 33.59375 26.515625 31.984375 
L 29.59375 31.296875 
Q 39.15625 29.25 43.1875 25.515625 
Q 47.21875 21.78125 47.21875 15.09375 
Q 47.21875 7.46875 41.1875 3.015625 
Q 35.15625 -1.421875 24.609375 -1.421875 
Q 20.21875 -1.421875 15.453125 -0.5625 
Q 10.6875 0.296875 5.421875 2 
L 5.421875 11.28125 
Q 10.40625 8.6875 15.234375 7.390625 
Q 20.0625 6.109375 24.8125 6.109375 
Q 31.15625 6.109375 34.5625 8.28125 
Q 37.984375 10.453125 37.984375 14.40625 
Q 37.984375 18.0625 35.515625 20.015625 
Q 33.0625 21.96875 24.703125 23.78125 
L 21.578125 24.515625 
Q 13.234375 26.265625 9.515625 29.90625 
Q 5.8125 33.546875 5.8125 39.890625 
Q 5.8125 47.609375 11.28125 51.796875 
Q 16.75 56 26.8125 56 
Q 31.78125 56 36.171875 55.265625 
Q 40.578125 54.546875 44.28125 53.078125 
z
" id="DejaVuSans-115"/>
      <path d="M 9.421875 54.6875 
L 18.40625 54.6875 
L 18.40625 0 
L 9.421875 0 
z
M 9.421875 75.984375 
L 18.40625 75.984375 
L 18.40625 64.59375 
L 9.421875 64.59375 
z
" id="DejaVuSans-105"/>
      <path d="M 18.3125 70.21875 
L 18.3125 54.6875 
L 36.8125 54.6875 
L 36.8125 47.703125 
L 18.3125 47.703125 
L 18.3125 18.015625 
Q 18.3125 11.328125 20.140625 9.421875 
Q 21.96875 7.515625 27.59375 7.515625 
L 36.8125 7.515625 
L 36.8125 0 
L 27.59375 0 
Q 17.1875 0 13.234375 3.875 
Q 9.28125 7.765625 9.28125 18.015625 
L 9.28125 47.703125 
L 2.6875 47.703125 
L 2.6875 54.6875 
L 9.28125 54.6875 
L 9.28125 70.21875 
z
" id="DejaVuSans-116"/>
      <path d="M 32.171875 -5.078125 
Q 28.375 -14.84375 24.75 -17.8125 
Q 21.140625 -20.796875 15.09375 -20.796875 
L 7.90625 -20.796875 
L 7.90625 -13.28125 
L 13.1875 -13.28125 
Q 16.890625 -13.28125 18.9375 -11.515625 
Q 21 -9.765625 23.484375 -3.21875 
L 25.09375 0.875 
L 2.984375 54.6875 
L 12.5 54.6875 
L 29.59375 11.921875 
L 46.6875 54.6875 
L 56.203125 54.6875 
z
" id="DejaVuSans-121"/>
      <path id="DejaVuSans-32"/>
      <path d="M 8.5 21.578125 
L 8.5 54.6875 
L 17.484375 54.6875 
L 17.484375 21.921875 
Q 17.484375 14.15625 20.5 10.265625 
Q 23.53125 6.390625 29.59375 6.390625 
Q 36.859375 6.390625 41.078125 11.03125 
Q 45.3125 15.671875 45.3125 23.6875 
L 45.3125 54.6875 
L 54.296875 54.6875 
L 54.296875 0 
L 45.3125 0 
L 45.3125 8.40625 
Q 42.046875 3.421875 37.71875 1 
Q 33.40625 -1.421875 27.6875 -1.421875 
Q 18.265625 -1.421875 13.375 4.4375 
Q 8.5 10.296875 8.5 21.578125 
z
M 31.109375 56 
z
" id="DejaVuSans-117"/>
      <path d="M 48.78125 52.59375 
L 48.78125 44.1875 
Q 44.96875 46.296875 41.140625 47.34375 
Q 37.3125 48.390625 33.40625 48.390625 
Q 24.65625 48.390625 19.8125 42.84375 
Q 14.984375 37.3125 14.984375 27.296875 
Q 14.984375 17.28125 19.8125 11.734375 
Q 24.65625 6.203125 33.40625 6.203125 
Q 37.3125 6.203125 41.140625 7.25 
Q 44.96875 8.296875 48.78125 10.40625 
L 48.78125 2.09375 
Q 45.015625 0.34375 40.984375 -0.53125 
Q 36.96875 -1.421875 32.421875 -1.421875 
Q 20.0625 -1.421875 12.78125 6.34375 
Q 5.515625 14.109375 5.515625 27.296875 
Q 5.515625 40.671875 12.859375 48.328125 
Q 20.21875 56 33.015625 56 
Q 37.15625 56 41.109375 55.140625 
Q 45.0625 54.296875 48.78125 52.59375 
z
" id="DejaVuSans-99"/>
      <path d="M 30.609375 48.390625 
Q 23.390625 48.390625 19.1875 42.75 
Q 14.984375 37.109375 14.984375 27.296875 
Q 14.984375 17.484375 19.15625 11.84375 
Q 23.34375 6.203125 30.609375 6.203125 
Q 37.796875 6.203125 41.984375 11.859375 
Q 46.1875 17.53125 46.1875 27.296875 
Q 46.1875 37.015625 41.984375 42.703125 
Q 37.796875 48.390625 30.609375 48.390625 
z
M 30.609375 56 
Q 42.328125 56 49.015625 48.375 
Q 55.71875 40.765625 55.71875 27.296875 
Q 55.71875 13.875 49.015625 6.21875 
Q 42.328125 -1.421875 30.609375 -1.421875 
Q 18.84375 -1.421875 12.171875 6.21875 
Q 5.515625 13.875 5.515625 27.296875 
Q 5.515625 40.765625 12.171875 48.375 
Q 18.84375 56 30.609375 56 
z
" id="DejaVuSans-111"/>
      <path d="M 18.109375 8.203125 
L 18.109375 -20.796875 
L 9.078125 -20.796875 
L 9.078125 54.6875 
L 18.109375 54.6875 
L 18.109375 46.390625 
Q 20.953125 51.265625 25.265625 53.625 
Q 29.59375 56 35.59375 56 
Q 45.5625 56 51.78125 48.09375 
Q 58.015625 40.1875 58.015625 27.296875 
Q 58.015625 14.40625 51.78125 6.484375 
Q 45.5625 -1.421875 35.59375 -1.421875 
Q 29.59375 -1.421875 25.265625 0.953125 
Q 20.953125 3.328125 18.109375 8.203125 
z
M 48.6875 27.296875 
Q 48.6875 37.203125 44.609375 42.84375 
Q 40.53125 48.484375 33.40625 48.484375 
Q 26.265625 48.484375 22.1875 42.84375 
Q 18.109375 37.203125 18.109375 27.296875 
Q 18.109375 17.390625 22.1875 11.75 
Q 26.265625 6.109375 33.40625 6.109375 
Q 40.53125 6.109375 44.609375 11.75 
Q 48.6875 17.390625 48.6875 27.296875 
z
" id="DejaVuSans-112"/>
      <path d="M 9.421875 75.984375 
L 18.40625 75.984375 
L 18.40625 0 
L 9.421875 0 
z
" id="DejaVuSans-108"/>
      <path d="M 19.671875 64.796875 
L 19.671875 37.40625 
L 32.078125 37.40625 
Q 38.96875 37.40625 42.71875 40.96875 
Q 46.484375 44.53125 46.484375 51.125 
Q 46.484375 57.671875 42.71875 61.234375 
Q 38.96875 64.796875 32.078125 64.796875 
z
M 9.8125 72.90625 
L 32.078125 72.90625 
Q 44.34375 72.90625 50.609375 67.359375 
Q 56.890625 61.8125 56.890625 51.125 
Q 56.890625 40.328125 50.609375 34.8125 
Q 44.34375 29.296875 32.078125 29.296875 
L 19.671875 29.296875 
L 19.671875 0 
L 9.8125 0 
z
" id="DejaVuSans-80"/>
      <path d="M 59.515625 10.40625 
L 59.515625 29.984375 
L 43.40625 29.984375 
L 43.40625 38.09375 
L 69.28125 38.09375 
L 69.28125 6.78125 
Q 63.578125 2.734375 56.6875 0.65625 
Q 49.8125 -1.421875 42 -1.421875 
Q 24.90625 -1.421875 15.25 8.5625 
Q 5.609375 18.5625 5.609375 36.375 
Q 5.609375 54.25 15.25 64.234375 
Q 24.90625 74.21875 42 74.21875 
Q 49.125 74.21875 55.546875 72.453125 
Q 61.96875 70.703125 67.390625 67.28125 
L 67.390625 56.78125 
Q 61.921875 61.421875 55.765625 63.765625 
Q 49.609375 66.109375 42.828125 66.109375 
Q 29.4375 66.109375 22.71875 58.640625 
Q 16.015625 51.171875 16.015625 36.375 
Q 16.015625 21.625 22.71875 14.15625 
Q 29.4375 6.6875 42.828125 6.6875 
Q 48.046875 6.6875 52.140625 7.59375 
Q 56.25 8.5 59.515625 10.40625 
z
" id="DejaVuSans-71"/>
      <path d="M 54.890625 33.015625 
L 54.890625 0 
L 45.90625 0 
L 45.90625 32.71875 
Q 45.90625 40.484375 42.875 44.328125 
Q 39.84375 48.1875 33.796875 48.1875 
Q 26.515625 48.1875 22.3125 43.546875 
Q 18.109375 38.921875 18.109375 30.90625 
L 18.109375 0 
L 9.078125 0 
L 9.078125 75.984375 
L 18.109375 75.984375 
L 18.109375 46.1875 
Q 21.34375 51.125 25.703125 53.5625 
Q 30.078125 56 35.796875 56 
Q 45.21875 56 50.046875 50.171875 
Q 54.890625 44.34375 54.890625 33.015625 
z
" id="DejaVuSans-104"/>
      <path d="M 11.71875 12.40625 
L 22.015625 12.40625 
L 22.015625 4 
L 14.015625 -11.625 
L 7.71875 -11.625 
L 11.71875 4 
z
" id="DejaVuSans-44"/>
      <path d="M 41.109375 46.296875 
Q 39.59375 47.171875 37.8125 47.578125 
Q 36.03125 48 33.890625 48 
Q 26.265625 48 22.1875 43.046875 
Q 18.109375 38.09375 18.109375 28.8125 
L 18.109375 0 
L 9.078125 0 
L 9.078125 54.6875 
L 18.109375 54.6875 
L 18.109375 46.1875 
Q 20.953125 51.171875 25.484375 53.578125 
Q 30.03125 56 36.53125 56 
Q 37.453125 56 38.578125 55.875 
Q 39.703125 55.765625 41.0625 55.515625 
z
" id="DejaVuSans-114"/>
      <path d="M 16.75 30.609375 
Q 17.09375 27 20.171875 21.140625 
Q 23.78125 14.359375 30.609375 10.546875 
Q 37.3125 6.84375 44.53125 6.78125 
L 78.5625 6.78125 
L 78.5625 -0.984375 
L 44.53125 -0.984375 
Q 35.15625 -0.984375 26.484375 3.84375 
Q 17.828125 8.6875 13.1875 17.28125 
Q 8.546875 25.875 8.546875 35.015625 
Q 8.546875 44.046875 13.1875 52.640625 
Q 17.828125 61.234375 26.484375 66.109375 
Q 35.15625 71 44.53125 71 
L 78.5625 71 
L 78.5625 63.234375 
L 44.53125 63.234375 
Q 37.3125 63.1875 30.609375 59.421875 
Q 23.828125 55.5625 20.171875 48.828125 
Q 17.046875 42.96875 16.609375 38.421875 
L 78.5625 38.421875 
L 78.5625 30.609375 
z
" id="DejaVuSans-8712"/>
      <path d="M 8.203125 72.90625 
L 55.078125 72.90625 
L 55.078125 68.703125 
L 28.609375 0 
L 18.3125 0 
L 43.21875 64.59375 
L 8.203125 64.59375 
z
" id="DejaVuSans-55"/>
     </defs>
     <use transform="translate(0 0.015625)" xlink:href="#DejaVuSans-68"/>
     <use transform="translate(77.001953 0.015625)" xlink:href="#DejaVuSans-101"/>
     <use transform="translate(138.525391 0.015625)" xlink:href="#DejaVuSans-110"/>
     <use transform="translate(201.904297 0.015625)" xlink:href="#DejaVuSans-115"/>
     <use transform="translate(254.003906 0.015625)" xlink:href="#DejaVuSans-105"/>
     <use transform="translate(281.787109 0.015625)" xlink:href="#DejaVuSans-116"/>
     <use transform="translate(320.996094 0.015625)" xlink:href="#DejaVuSans-121"/>
     <use transform="translate(380.175781 0.015625)" xlink:href="#DejaVuSans-32"/>
     <use transform="translate(411.962891 0.015625)" xlink:href="#DejaVuSans-102"/>
     <use transform="translate(447.167969 0.015625)" xlink:href="#DejaVuSans-117"/>
     <use transform="translate(510.546875 0.015625)" xlink:href="#DejaVuSans-110"/>
     <use transform="translate(573.925781 0.015625)" xlink:href="#DejaVuSans-99"/>
     <use transform="translate(628.90625 0.015625)" xlink:href="#DejaVuSans-116"/>
     <use transform="translate(668.115234 0.015625)" xlink:href="#DejaVuSans-105"/>
     <use transform="translate(695.898438 0.015625)" xlink:href="#DejaVuSans-111"/>
     <use transform="translate(757.080078 0.015625)" xlink:href="#DejaVuSans-110"/>
     <use transform="translate(820.458984 0.015625)" xlink:href="#DejaVuSans-32"/>
     <use transform="translate(852.246094 0.015625)" xlink:href="#DejaVuSans-112"/>
     <use transform="translate(915.722656 0.015625)" xlink:href="#DejaVuSans-108"/>
     <use transform="translate(943.505859 0.015625)" xlink:href="#DejaVuSans-111"/>
     <use transform="translate(1004.6875 0.015625)" xlink:href="#DejaVuSans-116"/>
     <use transform="translate(1043.896484 0.015625)" xlink:href="#DejaVuSans-32"/>
     <use transform="translate(1075.683594 0.015625)" xlink:href="#DejaVuSans-111"/>
     <use transform="translate(1136.865234 0.015625)" xlink:href="#DejaVuSans-102"/>
     <use transform="translate(1172.070312 0.015625)" xlink:href="#DejaVuSans-32"/>
     <use transform="translate(1203.857422 0.015625)" xlink:href="#DejaVuSans-80"/>
     <use transform="translate(1264.160156 0.015625)" xlink:href="#DejaVuSans-71"/>
     <use transform="translate(1341.650391 0.015625)" xlink:href="#DejaVuSans-40"/>
     <use transform="translate(1380.664062 0.015625)" xlink:href="#DejaVuSans-104"/>
     <use transform="translate(1444.042969 0.015625)" xlink:href="#DejaVuSans-44"/>
     <use transform="translate(1475.830078 0.015625)" xlink:href="#DejaVuSans-32"/>
     <use transform="translate(1507.617188 0.015625)" xlink:href="#DejaVuSans-48"/>
     <use transform="translate(1571.240234 0.015625)" xlink:href="#DejaVuSans-41"/>
     <use transform="translate(1610.253906 0.015625)" xlink:href="#DejaVuSans-32"/>
     <use transform="translate(1642.041016 0.015625)" xlink:href="#DejaVuSans-102"/>
     <use transform="translate(1677.246094 0.015625)" xlink:href="#DejaVuSans-111"/>
     <use transform="translate(1738.427734 0.015625)" xlink:href="#DejaVuSans-114"/>
     <use transform="translate(1779.541016 0.015625)" xlink:href="#DejaVuSans-32"/>
     <use transform="translate(1811.328125 0.015625)" xlink:href="#DejaVuSans-104"/>
     <use transform="translate(1874.707031 0.015625)" xlink:href="#DejaVuSans-32"/>
     <use transform="translate(1925.976562 0.015625)" xlink:href="#DejaVuSans-8712"/>
     <use transform="translate(2032.568359 0.015625)" xlink:href="#DejaVuSans-32"/>
     <use transform="translate(2064.355469 0.015625)" xlink:href="#DejaVuSans-40"/>
     <use transform="translate(2103.369141 0.015625)" xlink:href="#DejaVuSans-49"/>
     <use transform="translate(2166.992188 0.015625)" xlink:href="#DejaVuSans-44"/>
     <use transform="translate(2198.779297 0.015625)" xlink:href="#DejaVuSans-32"/>
     <use transform="translate(2230.566406 0.015625)" xlink:href="#DejaVuSans-52"/>
     <use transform="translate(2294.189453 0.015625)" xlink:href="#DejaVuSans-44"/>
     <use transform="translate(2325.976562 0.015625)" xlink:href="#DejaVuSans-32"/>
     <use transform="translate(2357.763672 0.015625)" xlink:href="#DejaVuSans-55"/>
     <use transform="translate(2421.386719 0.015625)" xlink:href="#DejaVuSans-44"/>
     <use transform="translate(2453.173828 0.015625)" xlink:href="#DejaVuSans-32"/>
     <use transform="translate(2484.960938 0.015625)" xlink:href="#DejaVuSans-49"/>
     <use transform="translate(2548.583984 0.015625)" xlink:href="#DejaVuSans-48"/>
     <use transform="translate(2612.207031 0.015625)" xlink:href="#DejaVuSans-44"/>
     <use transform="translate(2643.994141 0.015625)" xlink:href="#DejaVuSans-32"/>
     <use transform="translate(2675.78125 0.015625)" xlink:href="#DejaVuSans-49"/>
     <use transform="translate(2739.404297 0.015625)" xlink:href="#DejaVuSans-53"/>
     <use transform="translate(2803.027344 0.015625)" xlink:href="#DejaVuSans-44"/>
     <use transform="translate(2834.814453 0.015625)" xlink:href="#DejaVuSans-32"/>
     <use transform="translate(2866.601562 0.015625)" xlink:href="#DejaVuSans-50"/>
     <use transform="translate(2930.224609 0.015625)" xlink:href="#DejaVuSans-53"/>
     <use transform="translate(2993.847656 0.015625)" xlink:href="#DejaVuSans-41"/>
     <use transform="translate(3032.861328 0.015625)" xlink:href="#DejaVuSans-46"/>
    </g>
   </g>
   <g id="legend_1">
    <g id="patch_7">
     <path d="M 328.695 137.54075 
L 407.72 137.54075 
Q 409.72 137.54075 409.72 135.54075 
L 409.72 48.472 
Q 409.72 46.472 407.72 46.472 
L 328.695 46.472 
Q 326.695 46.472 326.695 48.472 
L 326.695 135.54075 
Q 326.695 137.54075 328.695 137.54075 
z
" style="fill:#eaeaf2;opacity:0.8;stroke:#cccccc;stroke-linejoin:miter;"/>
    </g>
    <g id="line2d_22">
     <path d="M 330.695 54.570438 
L 350.695 54.570438 
" style="fill:none;stroke:#1f77b4;stroke-linecap:round;stroke-width:1.5;"/>
    </g>
    <g id="line2d_23"/>
    <g id="text_19">
     <!-- PG(1, 0) -->
     <g style="fill:#262626;" transform="translate(358.695 58.070438)scale(0.1 -0.1)">
      <use xlink:href="#DejaVuSans-80"/>
      <use x="60.302734" xlink:href="#DejaVuSans-71"/>
      <use x="137.792969" xlink:href="#DejaVuSans-40"/>
      <use x="176.806641" xlink:href="#DejaVuSans-49"/>
      <use x="240.429688" xlink:href="#DejaVuSans-44"/>
      <use x="272.216797" xlink:href="#DejaVuSans-32"/>
      <use x="304.003906" xlink:href="#DejaVuSans-48"/>
      <use x="367.626953" xlink:href="#DejaVuSans-41"/>
     </g>
    </g>
    <g id="line2d_24">
     <path d="M 330.695 69.248563 
L 350.695 69.248563 
" style="fill:none;stroke:#ff7f0e;stroke-linecap:round;stroke-width:1.5;"/>
    </g>
    <g id="line2d_25"/>
    <g id="text_20">
     <!-- PG(4, 0) -->
     <g style="fill:#262626;" transform="translate(358.695 72.748563)scale(0.1 -0.1)">
      <use xlink:href="#DejaVuSans-80"/>
      <use x="60.302734" xlink:href="#DejaVuSans-71"/>
      <use x="137.792969" xlink:href="#DejaVuSans-40"/>
      <use x="176.806641" xlink:href="#DejaVuSans-52"/>
      <use x="240.429688" xlink:href="#DejaVuSans-44"/>
      <use x="272.216797" xlink:href="#DejaVuSans-32"/>
      <use x="304.003906" xlink:href="#DejaVuSans-48"/>
      <use x="367.626953" xlink:href="#DejaVuSans-41"/>
     </g>
    </g>
    <g id="line2d_26">
     <path d="M 330.695 83.926688 
L 350.695 83.926688 
" style="fill:none;stroke:#2ca02c;stroke-linecap:round;stroke-width:1.5;"/>
    </g>
    <g id="line2d_27"/>
    <g id="text_21">
     <!-- PG(7, 0) -->
     <g style="fill:#262626;" transform="translate(358.695 87.426688)scale(0.1 -0.1)">
      <use xlink:href="#DejaVuSans-80"/>
      <use x="60.302734" xlink:href="#DejaVuSans-71"/>
      <use x="137.792969" xlink:href="#DejaVuSans-40"/>
      <use x="176.806641" xlink:href="#DejaVuSans-55"/>
      <use x="240.429688" xlink:href="#DejaVuSans-44"/>
      <use x="272.216797" xlink:href="#DejaVuSans-32"/>
      <use x="304.003906" xlink:href="#DejaVuSans-48"/>
      <use x="367.626953" xlink:href="#DejaVuSans-41"/>
     </g>
    </g>
    <g id="line2d_28">
     <path d="M 330.695 98.604813 
L 350.695 98.604813 
" style="fill:none;stroke:#d62728;stroke-linecap:round;stroke-width:1.5;"/>
    </g>
    <g id="line2d_29"/>
    <g id="text_22">
     <!-- PG(10, 0) -->
     <g style="fill:#262626;" transform="translate(358.695 102.104813)scale(0.1 -0.1)">
      <use xlink:href="#DejaVuSans-80"/>
      <use x="60.302734" xlink:href="#DejaVuSans-71"/>
      <use x="137.792969" xlink:href="#DejaVuSans-40"/>
      <use x="176.806641" xlink:href="#DejaVuSans-49"/>
      <use x="240.429688" xlink:href="#DejaVuSans-48"/>
      <use x="304.052734" xlink:href="#DejaVuSans-44"/>
      <use x="335.839844" xlink:href="#DejaVuSans-32"/>
      <use x="367.626953" xlink:href="#DejaVuSans-48"/>
      <use x="431.25" xlink:href="#DejaVuSans-41"/>
     </g>
    </g>
    <g id="line2d_30">
     <path d="M 330.695 113.282938 
L 350.695 113.282938 
" style="fill:none;stroke:#9467bd;stroke-linecap:round;stroke-width:1.5;"/>
    </g>
    <g id="line2d_31"/>
    <g id="text_23">
     <!-- PG(15, 0) -->
     <g style="fill:#262626;" transform="translate(358.695 116.782938)scale(0.1 -0.1)">
      <use xlink:href="#DejaVuSans-80"/>
      <use x="60.302734" xlink:href="#DejaVuSans-71"/>
      <use x="137.792969" xlink:href="#DejaVuSans-40"/>
      <use x="176.806641" xlink:href="#DejaVuSans-49"/>
      <use x="240.429688" xlink:href="#DejaVuSans-53"/>
      <use x="304.052734" xlink:href="#DejaVuSans-44"/>
      <use x="335.839844" xlink:href="#DejaVuSans-32"/>
      <use x="367.626953" xlink:href="#DejaVuSans-48"/>
      <use x="431.25" xlink:href="#DejaVuSans-41"/>
     </g>
    </g>
    <g id="line2d_32">
     <path d="M 330.695 127.961063 
L 350.695 127.961063 
" style="fill:none;stroke:#8c564b;stroke-linecap:round;stroke-width:1.5;"/>
    </g>
    <g id="line2d_33"/>
    <g id="text_24">
     <!-- PG(25, 0) -->
     <g style="fill:#262626;" transform="translate(358.695 131.461063)scale(0.1 -0.1)">
      <use xlink:href="#DejaVuSans-80"/>
      <use x="60.302734" xlink:href="#DejaVuSans-71"/>
      <use x="137.792969" xlink:href="#DejaVuSans-40"/>
      <use x="176.806641" xlink:href="#DejaVuSans-50"/>
      <use x="240.429688" xlink:href="#DejaVuSans-53"/>
      <use x="304.052734" xlink:href="#DejaVuSans-44"/>
      <use x="335.839844" xlink:href="#DejaVuSans-32"/>
      <use x="367.626953" xlink:href="#DejaVuSans-48"/>
      <use x="431.25" xlink:href="#DejaVuSans-41"/>
     </g>
    </g>
   </g>
  </g>
 </g>
 <defs>
  <clipPath id="p19a4270fd7">
   <rect height="266.112" width="357.12" x="57.6" y="41.472"/>
  </clipPath>
 </defs>
</svg>
