<?xml version="1.0" encoding="utf-8" standalone="no"?>
<!DOCTYPE svg PUBLIC "-//W3C//DTD SVG 1.1//EN"
  "http://www.w3.org/Graphics/SVG/1.1/DTD/svg11.dtd">
<!-- Created with matplotlib (https://matplotlib.org/) -->
<svg height="359.248562pt" version="1.1" viewBox="0 0 580.714637 359.248562" width="580.714637pt" xmlns="http://www.w3.org/2000/svg" xmlns:xlink="http://www.w3.org/1999/xlink">
 <metadata>
  <rdf:RDF xmlns:cc="http://creativecommons.org/ns#" xmlns:dc="http://purl.org/dc/elements/1.1/" xmlns:rdf="http://www.w3.org/1999/02/22-rdf-syntax-ns#">
   <cc:Work>
    <dc:type rdf:resource="http://purl.org/dc/dcmitype/StillImage"/>
    <dc:date>2021-02-21T15:51:42.649207</dc:date>
    <dc:format>image/svg+xml</dc:format>
    <dc:creator>
     <cc:Agent>
      <dc:title>Matplotlib v3.3.3, https://matplotlib.org/</dc:title>
     </cc:Agent>
    </dc:creator>
   </cc:Work>
  </rdf:RDF>
 </metadata>
 <defs>
  <style type="text/css">*{stroke-linecap:butt;stroke-linejoin:round;}</style>
 </defs>
 <g id="figure_1">
  <g id="patch_1">
   <path d="M 0 359.248562 
L 580.714637 359.248562 
L 580.714637 0 
L 0 0 
z
" style="fill:none;"/>
  </g>
  <g id="axes_1">
   <g id="patch_2">
    <path d="M 104.12 313.949812 
L 461.24 313.949812 
L 461.24 47.837812 
L 104.12 47.837812 
z
" style="fill:none;"/>
   </g>
   <g id="matplotlib.axis_1">
    <g id="xtick_1">
     <g id="line2d_1">
      <defs>
       <path d="M 0 0 
L 0 3.5 
" id="m3cf9b4ee13" style="stroke:#969696;stroke-width:0.4;"/>
      </defs>
      <g>
       <use style="fill:#969696;stroke:#969696;stroke-width:0.4;" x="163.440268" xlink:href="#m3cf9b4ee13" y="313.949812"/>
      </g>
     </g>
     <g id="text_1">
      <!-- 10 -->
      <g style="fill:#969696;" transform="translate(154.532768 331.587625)scale(0.14 -0.14)">
       <defs>
        <path d="M 12.40625 8.296875 
L 28.515625 8.296875 
L 28.515625 63.921875 
L 10.984375 60.40625 
L 10.984375 69.390625 
L 28.421875 72.90625 
L 38.28125 72.90625 
L 38.28125 8.296875 
L 54.390625 8.296875 
L 54.390625 0 
L 12.40625 0 
z
" id="DejaVuSans-49"/>
        <path d="M 31.78125 66.40625 
Q 24.171875 66.40625 20.328125 58.90625 
Q 16.5 51.421875 16.5 36.375 
Q 16.5 21.390625 20.328125 13.890625 
Q 24.171875 6.390625 31.78125 6.390625 
Q 39.453125 6.390625 43.28125 13.890625 
Q 47.125 21.390625 47.125 36.375 
Q 47.125 51.421875 43.28125 58.90625 
Q 39.453125 66.40625 31.78125 66.40625 
z
M 31.78125 74.21875 
Q 44.046875 74.21875 50.515625 64.515625 
Q 56.984375 54.828125 56.984375 36.375 
Q 56.984375 17.96875 50.515625 8.265625 
Q 44.046875 -1.421875 31.78125 -1.421875 
Q 19.53125 -1.421875 13.0625 8.265625 
Q 6.59375 17.96875 6.59375 36.375 
Q 6.59375 54.828125 13.0625 64.515625 
Q 19.53125 74.21875 31.78125 74.21875 
z
" id="DejaVuSans-48"/>
       </defs>
       <use xlink:href="#DejaVuSans-49"/>
       <use x="63.623047" xlink:href="#DejaVuSans-48"/>
      </g>
     </g>
    </g>
    <g id="xtick_2">
     <g id="line2d_2">
      <g>
       <use style="fill:#969696;stroke:#969696;stroke-width:0.4;" x="223.359732" xlink:href="#m3cf9b4ee13" y="313.949812"/>
      </g>
     </g>
     <g id="text_2">
      <!-- 20 -->
      <g style="fill:#969696;" transform="translate(214.452232 331.587625)scale(0.14 -0.14)">
       <defs>
        <path d="M 19.1875 8.296875 
L 53.609375 8.296875 
L 53.609375 0 
L 7.328125 0 
L 7.328125 8.296875 
Q 12.9375 14.109375 22.625 23.890625 
Q 32.328125 33.6875 34.8125 36.53125 
Q 39.546875 41.84375 41.421875 45.53125 
Q 43.3125 49.21875 43.3125 52.78125 
Q 43.3125 58.59375 39.234375 62.25 
Q 35.15625 65.921875 28.609375 65.921875 
Q 23.96875 65.921875 18.8125 64.3125 
Q 13.671875 62.703125 7.8125 59.421875 
L 7.8125 69.390625 
Q 13.765625 71.78125 18.9375 73 
Q 24.125 74.21875 28.421875 74.21875 
Q 39.75 74.21875 46.484375 68.546875 
Q 53.21875 62.890625 53.21875 53.421875 
Q 53.21875 48.921875 51.53125 44.890625 
Q 49.859375 40.875 45.40625 35.40625 
Q 44.1875 33.984375 37.640625 27.21875 
Q 31.109375 20.453125 19.1875 8.296875 
z
" id="DejaVuSans-50"/>
       </defs>
       <use xlink:href="#DejaVuSans-50"/>
       <use x="63.623047" xlink:href="#DejaVuSans-48"/>
      </g>
     </g>
    </g>
    <g id="xtick_3">
     <g id="line2d_3">
      <g>
       <use style="fill:#969696;stroke:#969696;stroke-width:0.4;" x="283.279195" xlink:href="#m3cf9b4ee13" y="313.949812"/>
      </g>
     </g>
     <g id="text_3">
      <!-- 30 -->
      <g style="fill:#969696;" transform="translate(274.371695 331.587625)scale(0.14 -0.14)">
       <defs>
        <path d="M 40.578125 39.3125 
Q 47.65625 37.796875 51.625 33 
Q 55.609375 28.21875 55.609375 21.1875 
Q 55.609375 10.40625 48.1875 4.484375 
Q 40.765625 -1.421875 27.09375 -1.421875 
Q 22.515625 -1.421875 17.65625 -0.515625 
Q 12.796875 0.390625 7.625 2.203125 
L 7.625 11.71875 
Q 11.71875 9.328125 16.59375 8.109375 
Q 21.484375 6.890625 26.8125 6.890625 
Q 36.078125 6.890625 40.9375 10.546875 
Q 45.796875 14.203125 45.796875 21.1875 
Q 45.796875 27.640625 41.28125 31.265625 
Q 36.765625 34.90625 28.71875 34.90625 
L 20.21875 34.90625 
L 20.21875 43.015625 
L 29.109375 43.015625 
Q 36.375 43.015625 40.234375 45.921875 
Q 44.09375 48.828125 44.09375 54.296875 
Q 44.09375 59.90625 40.109375 62.90625 
Q 36.140625 65.921875 28.71875 65.921875 
Q 24.65625 65.921875 20.015625 65.03125 
Q 15.375 64.15625 9.8125 62.3125 
L 9.8125 71.09375 
Q 15.4375 72.65625 20.34375 73.4375 
Q 25.25 74.21875 29.59375 74.21875 
Q 40.828125 74.21875 47.359375 69.109375 
Q 53.90625 64.015625 53.90625 55.328125 
Q 53.90625 49.265625 50.4375 45.09375 
Q 46.96875 40.921875 40.578125 39.3125 
z
" id="DejaVuSans-51"/>
       </defs>
       <use xlink:href="#DejaVuSans-51"/>
       <use x="63.623047" xlink:href="#DejaVuSans-48"/>
      </g>
     </g>
    </g>
    <g id="xtick_4">
     <g id="line2d_4">
      <g>
       <use style="fill:#969696;stroke:#969696;stroke-width:0.4;" x="343.198658" xlink:href="#m3cf9b4ee13" y="313.949812"/>
      </g>
     </g>
     <g id="text_4">
      <!-- 40 -->
      <g style="fill:#969696;" transform="translate(334.291158 331.587625)scale(0.14 -0.14)">
       <defs>
        <path d="M 37.796875 64.3125 
L 12.890625 25.390625 
L 37.796875 25.390625 
z
M 35.203125 72.90625 
L 47.609375 72.90625 
L 47.609375 25.390625 
L 58.015625 25.390625 
L 58.015625 17.1875 
L 47.609375 17.1875 
L 47.609375 0 
L 37.796875 0 
L 37.796875 17.1875 
L 4.890625 17.1875 
L 4.890625 26.703125 
z
" id="DejaVuSans-52"/>
       </defs>
       <use xlink:href="#DejaVuSans-52"/>
       <use x="63.623047" xlink:href="#DejaVuSans-48"/>
      </g>
     </g>
    </g>
    <g id="xtick_5">
     <g id="line2d_5">
      <g>
       <use style="fill:#969696;stroke:#969696;stroke-width:0.4;" x="403.118121" xlink:href="#m3cf9b4ee13" y="313.949812"/>
      </g>
     </g>
     <g id="text_5">
      <!-- 50 -->
      <g style="fill:#969696;" transform="translate(394.210621 331.587625)scale(0.14 -0.14)">
       <defs>
        <path d="M 10.796875 72.90625 
L 49.515625 72.90625 
L 49.515625 64.59375 
L 19.828125 64.59375 
L 19.828125 46.734375 
Q 21.96875 47.46875 24.109375 47.828125 
Q 26.265625 48.1875 28.421875 48.1875 
Q 40.625 48.1875 47.75 41.5 
Q 54.890625 34.8125 54.890625 23.390625 
Q 54.890625 11.625 47.5625 5.09375 
Q 40.234375 -1.421875 26.90625 -1.421875 
Q 22.3125 -1.421875 17.546875 -0.640625 
Q 12.796875 0.140625 7.71875 1.703125 
L 7.71875 11.625 
Q 12.109375 9.234375 16.796875 8.0625 
Q 21.484375 6.890625 26.703125 6.890625 
Q 35.15625 6.890625 40.078125 11.328125 
Q 45.015625 15.765625 45.015625 23.390625 
Q 45.015625 31 40.078125 35.4375 
Q 35.15625 39.890625 26.703125 39.890625 
Q 22.75 39.890625 18.8125 39.015625 
Q 14.890625 38.140625 10.796875 36.28125 
z
" id="DejaVuSans-53"/>
       </defs>
       <use xlink:href="#DejaVuSans-53"/>
       <use x="63.623047" xlink:href="#DejaVuSans-48"/>
      </g>
     </g>
    </g>
    <g id="text_6">
     <!-- value of $h$ -->
     <g style="fill:#969696;" transform="translate(247.89 349.137)scale(0.14 -0.14)">
      <defs>
       <path d="M 2.984375 54.6875 
L 12.5 54.6875 
L 29.59375 8.796875 
L 46.6875 54.6875 
L 56.203125 54.6875 
L 35.6875 0 
L 23.484375 0 
z
" id="DejaVuSans-118"/>
       <path d="M 34.28125 27.484375 
Q 23.390625 27.484375 19.1875 25 
Q 14.984375 22.515625 14.984375 16.5 
Q 14.984375 11.71875 18.140625 8.90625 
Q 21.296875 6.109375 26.703125 6.109375 
Q 34.1875 6.109375 38.703125 11.40625 
Q 43.21875 16.703125 43.21875 25.484375 
L 43.21875 27.484375 
z
M 52.203125 31.203125 
L 52.203125 0 
L 43.21875 0 
L 43.21875 8.296875 
Q 40.140625 3.328125 35.546875 0.953125 
Q 30.953125 -1.421875 24.3125 -1.421875 
Q 15.921875 -1.421875 10.953125 3.296875 
Q 6 8.015625 6 15.921875 
Q 6 25.140625 12.171875 29.828125 
Q 18.359375 34.515625 30.609375 34.515625 
L 43.21875 34.515625 
L 43.21875 35.40625 
Q 43.21875 41.609375 39.140625 45 
Q 35.0625 48.390625 27.6875 48.390625 
Q 23 48.390625 18.546875 47.265625 
Q 14.109375 46.140625 10.015625 43.890625 
L 10.015625 52.203125 
Q 14.9375 54.109375 19.578125 55.046875 
Q 24.21875 56 28.609375 56 
Q 40.484375 56 46.34375 49.84375 
Q 52.203125 43.703125 52.203125 31.203125 
z
" id="DejaVuSans-97"/>
       <path d="M 9.421875 75.984375 
L 18.40625 75.984375 
L 18.40625 0 
L 9.421875 0 
z
" id="DejaVuSans-108"/>
       <path d="M 8.5 21.578125 
L 8.5 54.6875 
L 17.484375 54.6875 
L 17.484375 21.921875 
Q 17.484375 14.15625 20.5 10.265625 
Q 23.53125 6.390625 29.59375 6.390625 
Q 36.859375 6.390625 41.078125 11.03125 
Q 45.3125 15.671875 45.3125 23.6875 
L 45.3125 54.6875 
L 54.296875 54.6875 
L 54.296875 0 
L 45.3125 0 
L 45.3125 8.40625 
Q 42.046875 3.421875 37.71875 1 
Q 33.40625 -1.421875 27.6875 -1.421875 
Q 18.265625 -1.421875 13.375 4.4375 
Q 8.5 10.296875 8.5 21.578125 
z
M 31.109375 56 
z
" id="DejaVuSans-117"/>
       <path d="M 56.203125 29.59375 
L 56.203125 25.203125 
L 14.890625 25.203125 
Q 15.484375 15.921875 20.484375 11.0625 
Q 25.484375 6.203125 34.421875 6.203125 
Q 39.59375 6.203125 44.453125 7.46875 
Q 49.3125 8.734375 54.109375 11.28125 
L 54.109375 2.78125 
Q 49.265625 0.734375 44.1875 -0.34375 
Q 39.109375 -1.421875 33.890625 -1.421875 
Q 20.796875 -1.421875 13.15625 6.1875 
Q 5.515625 13.8125 5.515625 26.8125 
Q 5.515625 40.234375 12.765625 48.109375 
Q 20.015625 56 32.328125 56 
Q 43.359375 56 49.78125 48.890625 
Q 56.203125 41.796875 56.203125 29.59375 
z
M 47.21875 32.234375 
Q 47.125 39.59375 43.09375 43.984375 
Q 39.0625 48.390625 32.421875 48.390625 
Q 24.90625 48.390625 20.390625 44.140625 
Q 15.875 39.890625 15.1875 32.171875 
z
" id="DejaVuSans-101"/>
       <path id="DejaVuSans-32"/>
       <path d="M 30.609375 48.390625 
Q 23.390625 48.390625 19.1875 42.75 
Q 14.984375 37.109375 14.984375 27.296875 
Q 14.984375 17.484375 19.15625 11.84375 
Q 23.34375 6.203125 30.609375 6.203125 
Q 37.796875 6.203125 41.984375 11.859375 
Q 46.1875 17.53125 46.1875 27.296875 
Q 46.1875 37.015625 41.984375 42.703125 
Q 37.796875 48.390625 30.609375 48.390625 
z
M 30.609375 56 
Q 42.328125 56 49.015625 48.375 
Q 55.71875 40.765625 55.71875 27.296875 
Q 55.71875 13.875 49.015625 6.21875 
Q 42.328125 -1.421875 30.609375 -1.421875 
Q 18.84375 -1.421875 12.171875 6.21875 
Q 5.515625 13.875 5.515625 27.296875 
Q 5.515625 40.765625 12.171875 48.375 
Q 18.84375 56 30.609375 56 
z
" id="DejaVuSans-111"/>
       <path d="M 37.109375 75.984375 
L 37.109375 68.5 
L 28.515625 68.5 
Q 23.6875 68.5 21.796875 66.546875 
Q 19.921875 64.59375 19.921875 59.515625 
L 19.921875 54.6875 
L 34.71875 54.6875 
L 34.71875 47.703125 
L 19.921875 47.703125 
L 19.921875 0 
L 10.890625 0 
L 10.890625 47.703125 
L 2.296875 47.703125 
L 2.296875 54.6875 
L 10.890625 54.6875 
L 10.890625 58.5 
Q 10.890625 67.625 15.140625 71.796875 
Q 19.390625 75.984375 28.609375 75.984375 
z
" id="DejaVuSans-102"/>
       <path d="M 55.71875 33.015625 
L 49.3125 0 
L 40.28125 0 
L 46.6875 32.671875 
Q 47.125 34.96875 47.359375 36.71875 
Q 47.609375 38.484375 47.609375 39.5 
Q 47.609375 43.609375 45.015625 45.890625 
Q 42.4375 48.1875 37.796875 48.1875 
Q 30.5625 48.1875 25.265625 43.296875 
Q 19.96875 38.421875 18.40625 30.328125 
L 12.5 0 
L 3.515625 0 
L 18.3125 75.984375 
L 27.296875 75.984375 
L 21.484375 46.09375 
Q 24.90625 50.6875 30.21875 53.34375 
Q 35.546875 56 41.40625 56 
Q 48.640625 56 52.609375 52.09375 
Q 56.59375 48.1875 56.59375 41.109375 
Q 56.59375 39.359375 56.375 37.359375 
Q 56.15625 35.359375 55.71875 33.015625 
z
" id="DejaVuSans-Oblique-104"/>
      </defs>
      <use transform="translate(0 0.015625)" xlink:href="#DejaVuSans-118"/>
      <use transform="translate(59.179688 0.015625)" xlink:href="#DejaVuSans-97"/>
      <use transform="translate(120.458984 0.015625)" xlink:href="#DejaVuSans-108"/>
      <use transform="translate(148.242188 0.015625)" xlink:href="#DejaVuSans-117"/>
      <use transform="translate(211.621094 0.015625)" xlink:href="#DejaVuSans-101"/>
      <use transform="translate(273.144531 0.015625)" xlink:href="#DejaVuSans-32"/>
      <use transform="translate(304.931641 0.015625)" xlink:href="#DejaVuSans-111"/>
      <use transform="translate(366.113281 0.015625)" xlink:href="#DejaVuSans-102"/>
      <use transform="translate(401.318359 0.015625)" xlink:href="#DejaVuSans-32"/>
      <use transform="translate(433.105469 0.015625)" xlink:href="#DejaVuSans-Oblique-104"/>
     </g>
    </g>
   </g>
   <g id="matplotlib.axis_2">
    <g id="ytick_1">
     <g id="line2d_6">
      <path clip-path="url(#p6042d2a80f)" d="M 104.12 266.066275 
L 461.24 266.066275 
" style="fill:none;stroke:#969696;stroke-linecap:square;stroke-width:0.3;"/>
     </g>
     <g id="line2d_7">
      <defs>
       <path d="M 0 0 
L -3.5 0 
" id="m39bbaefd2b" style="stroke:#969696;stroke-width:0.3;"/>
      </defs>
      <g>
       <use style="fill:#969696;stroke:#969696;stroke-width:0.3;" x="104.12" xlink:href="#m39bbaefd2b" y="266.066275"/>
      </g>
     </g>
     <g id="text_7">
      <!-- 20 -->
      <g style="fill:#969696;" transform="translate(79.305 271.385182)scale(0.14 -0.14)">
       <use xlink:href="#DejaVuSans-50"/>
       <use x="63.623047" xlink:href="#DejaVuSans-48"/>
      </g>
     </g>
    </g>
    <g id="ytick_2">
     <g id="line2d_8">
      <path clip-path="url(#p6042d2a80f)" d="M 104.12 211.638785 
L 461.24 211.638785 
" style="fill:none;stroke:#969696;stroke-linecap:square;stroke-width:0.3;"/>
     </g>
     <g id="line2d_9">
      <g>
       <use style="fill:#969696;stroke:#969696;stroke-width:0.3;" x="104.12" xlink:href="#m39bbaefd2b" y="211.638785"/>
      </g>
     </g>
     <g id="text_8">
      <!-- 40 -->
      <g style="fill:#969696;" transform="translate(79.305 216.957691)scale(0.14 -0.14)">
       <use xlink:href="#DejaVuSans-52"/>
       <use x="63.623047" xlink:href="#DejaVuSans-48"/>
      </g>
     </g>
    </g>
    <g id="ytick_3">
     <g id="line2d_10">
      <path clip-path="url(#p6042d2a80f)" d="M 104.12 157.211294 
L 461.24 157.211294 
" style="fill:none;stroke:#969696;stroke-linecap:square;stroke-width:0.3;"/>
     </g>
     <g id="line2d_11">
      <g>
       <use style="fill:#969696;stroke:#969696;stroke-width:0.3;" x="104.12" xlink:href="#m39bbaefd2b" y="157.211294"/>
      </g>
     </g>
     <g id="text_9">
      <!-- 60 -->
      <g style="fill:#969696;" transform="translate(79.305 162.530201)scale(0.14 -0.14)">
       <defs>
        <path d="M 33.015625 40.375 
Q 26.375 40.375 22.484375 35.828125 
Q 18.609375 31.296875 18.609375 23.390625 
Q 18.609375 15.53125 22.484375 10.953125 
Q 26.375 6.390625 33.015625 6.390625 
Q 39.65625 6.390625 43.53125 10.953125 
Q 47.40625 15.53125 47.40625 23.390625 
Q 47.40625 31.296875 43.53125 35.828125 
Q 39.65625 40.375 33.015625 40.375 
z
M 52.59375 71.296875 
L 52.59375 62.3125 
Q 48.875 64.0625 45.09375 64.984375 
Q 41.3125 65.921875 37.59375 65.921875 
Q 27.828125 65.921875 22.671875 59.328125 
Q 17.53125 52.734375 16.796875 39.40625 
Q 19.671875 43.65625 24.015625 45.921875 
Q 28.375 48.1875 33.59375 48.1875 
Q 44.578125 48.1875 50.953125 41.515625 
Q 57.328125 34.859375 57.328125 23.390625 
Q 57.328125 12.15625 50.6875 5.359375 
Q 44.046875 -1.421875 33.015625 -1.421875 
Q 20.359375 -1.421875 13.671875 8.265625 
Q 6.984375 17.96875 6.984375 36.375 
Q 6.984375 53.65625 15.1875 63.9375 
Q 23.390625 74.21875 37.203125 74.21875 
Q 40.921875 74.21875 44.703125 73.484375 
Q 48.484375 72.75 52.59375 71.296875 
z
" id="DejaVuSans-54"/>
       </defs>
       <use xlink:href="#DejaVuSans-54"/>
       <use x="63.623047" xlink:href="#DejaVuSans-48"/>
      </g>
     </g>
    </g>
    <g id="ytick_4">
     <g id="line2d_12">
      <path clip-path="url(#p6042d2a80f)" d="M 104.12 102.783804 
L 461.24 102.783804 
" style="fill:none;stroke:#969696;stroke-linecap:square;stroke-width:0.3;"/>
     </g>
     <g id="line2d_13">
      <g>
       <use style="fill:#969696;stroke:#969696;stroke-width:0.3;" x="104.12" xlink:href="#m39bbaefd2b" y="102.783804"/>
      </g>
     </g>
     <g id="text_10">
      <!-- 80 -->
      <g style="fill:#969696;" transform="translate(79.305 108.10271)scale(0.14 -0.14)">
       <defs>
        <path d="M 31.78125 34.625 
Q 24.75 34.625 20.71875 30.859375 
Q 16.703125 27.09375 16.703125 20.515625 
Q 16.703125 13.921875 20.71875 10.15625 
Q 24.75 6.390625 31.78125 6.390625 
Q 38.8125 6.390625 42.859375 10.171875 
Q 46.921875 13.96875 46.921875 20.515625 
Q 46.921875 27.09375 42.890625 30.859375 
Q 38.875 34.625 31.78125 34.625 
z
M 21.921875 38.8125 
Q 15.578125 40.375 12.03125 44.71875 
Q 8.5 49.078125 8.5 55.328125 
Q 8.5 64.0625 14.71875 69.140625 
Q 20.953125 74.21875 31.78125 74.21875 
Q 42.671875 74.21875 48.875 69.140625 
Q 55.078125 64.0625 55.078125 55.328125 
Q 55.078125 49.078125 51.53125 44.71875 
Q 48 40.375 41.703125 38.8125 
Q 48.828125 37.15625 52.796875 32.3125 
Q 56.78125 27.484375 56.78125 20.515625 
Q 56.78125 9.90625 50.3125 4.234375 
Q 43.84375 -1.421875 31.78125 -1.421875 
Q 19.734375 -1.421875 13.25 4.234375 
Q 6.78125 9.90625 6.78125 20.515625 
Q 6.78125 27.484375 10.78125 32.3125 
Q 14.796875 37.15625 21.921875 38.8125 
z
M 18.3125 54.390625 
Q 18.3125 48.734375 21.84375 45.5625 
Q 25.390625 42.390625 31.78125 42.390625 
Q 38.140625 42.390625 41.71875 45.5625 
Q 45.3125 48.734375 45.3125 54.390625 
Q 45.3125 60.0625 41.71875 63.234375 
Q 38.140625 66.40625 31.78125 66.40625 
Q 25.390625 66.40625 21.84375 63.234375 
Q 18.3125 60.0625 18.3125 54.390625 
z
" id="DejaVuSans-56"/>
       </defs>
       <use xlink:href="#DejaVuSans-56"/>
       <use x="63.623047" xlink:href="#DejaVuSans-48"/>
      </g>
     </g>
    </g>
    <g id="ytick_5">
     <g id="line2d_14">
      <path clip-path="url(#p6042d2a80f)" d="M 104.12 48.356313 
L 461.24 48.356313 
" style="fill:none;stroke:#969696;stroke-linecap:square;stroke-width:0.3;"/>
     </g>
     <g id="line2d_15">
      <g>
       <use style="fill:#969696;stroke:#969696;stroke-width:0.3;" x="104.12" xlink:href="#m39bbaefd2b" y="48.356313"/>
      </g>
     </g>
     <g id="text_11">
      <!-- 100 -->
      <g style="fill:#969696;" transform="translate(70.3975 53.67522)scale(0.14 -0.14)">
       <use xlink:href="#DejaVuSans-49"/>
       <use x="63.623047" xlink:href="#DejaVuSans-48"/>
       <use x="127.246094" xlink:href="#DejaVuSans-48"/>
      </g>
     </g>
    </g>
   </g>
   <g id="line2d_16">
    <path clip-path="url(#p6042d2a80f)" d="M 104.12 205.338223 
L 106.516779 216.549546 
L 108.913557 197.805671 
L 111.310336 281.60432 
L 113.707114 279.711236 
L 116.103893 269.55121 
L 118.500671 272.54048 
L 120.89745 275.275026 
L 123.294228 275.503281 
L 125.691007 276.871098 
L 128.087785 258.332265 
L 130.484564 267.000003 
L 132.881342 242.566205 
L 135.278121 247.282986 
L 137.674899 249.769811 
L 140.071678 251.368453 
L 142.468456 263.989521 
L 147.262013 241.936819 
L 149.658792 239.824202 
L 152.05557 229.848332 
L 154.452349 250.221227 
L 156.849128 235.446401 
L 159.245906 235.614693 
L 161.642685 236.987273 
L 164.039463 226.987449 
L 166.436242 235.820712 
L 168.83302 211.199683 
L 171.229799 215.788987 
L 173.626577 218.316619 
L 176.023356 220.006141 
L 178.420134 232.889109 
L 183.213691 210.752422 
L 185.61047 208.718685 
L 188.007248 198.721106 
L 190.404027 219.093277 
L 192.800805 204.27818 
L 195.197584 216.141421 
L 197.594362 216.151697 
L 199.991141 216.316528 
L 202.387919 216.047112 
L 204.784698 216.075425 
L 209.578255 216.513703 
L 211.975034 216.223561 
L 214.371812 216.341165 
L 216.768591 215.982411 
L 219.165369 216.181578 
L 223.958926 216.094263 
L 226.355705 216.459093 
L 228.752483 216.315129 
L 231.149262 216.476523 
L 233.54604 216.408024 
L 235.942819 216.096353 
L 238.339597 216.23791 
L 240.736376 216.211271 
L 245.529933 216.392104 
L 247.926711 216.357885 
L 250.32349 216.574335 
L 252.720268 216.367739 
L 255.117047 216.61874 
L 257.513826 215.442254 
L 259.910604 216.045904 
L 267.10094 216.422645 
L 269.497718 216.276761 
L 271.894497 216.340947 
L 274.291275 216.169364 
L 276.688054 216.29989 
L 279.084832 215.933538 
L 281.481611 216.431133 
L 286.275168 216.195588 
L 288.671946 215.779832 
L 291.068725 216.001603 
L 293.465503 215.735368 
L 295.862282 215.995447 
L 298.25906 215.911405 
L 303.052617 215.997542 
L 307.846174 215.834363 
L 310.242953 215.828259 
L 312.639732 216.116951 
L 315.03651 216.837111 
L 317.433289 216.841617 
L 319.830067 216.475255 
L 322.226846 216.660464 
L 327.020403 216.525198 
L 329.417181 216.745681 
L 331.81396 216.413393 
L 334.210738 216.623518 
L 336.607517 216.590497 
L 339.004295 216.361036 
L 343.797852 216.354227 
L 346.194631 216.47559 
L 348.591409 216.336481 
L 350.988188 216.470936 
L 353.384966 216.264542 
L 355.781745 216.256187 
L 358.178523 216.63051 
L 360.575302 216.511931 
L 362.972081 216.277904 
L 365.368859 216.538293 
L 367.765638 216.220986 
L 370.162416 216.51361 
L 372.559195 216.115155 
L 377.352752 216.530681 
L 379.74953 216.318262 
L 382.146309 216.469377 
L 384.543087 216.441366 
L 389.336644 216.119155 
L 391.733423 216.155015 
L 394.130201 216.344692 
L 401.320537 216.355474 
L 403.717315 313.939006 
L 425.288322 313.94044 
L 427.685101 313.74071 
L 430.081879 313.939771 
L 432.478658 313.938396 
L 434.875436 313.741742 
L 437.272215 313.938549 
L 458.843221 313.945578 
L 461.24 313.743682 
L 461.24 313.743682 
" style="fill:none;stroke:#1f77b4;stroke-linecap:square;stroke-width:1.5;"/>
   </g>
   <g id="line2d_17">
    <path clip-path="url(#p6042d2a80f)" d="M 104.12 305.130447 
L 106.516779 304.931493 
L 108.913557 304.583712 
L 111.310336 200.739655 
L 113.707114 223.922218 
L 116.103893 236.460575 
L 118.500671 239.844789 
L 120.89745 244.015443 
L 123.294228 243.346989 
L 125.691007 245.660767 
L 128.087785 153.030321 
L 130.484564 155.968464 
L 132.881342 155.442477 
L 135.278121 154.277231 
L 137.674899 171.013855 
L 140.071678 181.816831 
L 142.468456 187.233114 
L 144.865235 191.488952 
L 147.262013 194.940923 
L 149.658792 192.393028 
L 152.05557 101.249237 
L 154.452349 104.14706 
L 156.849128 103.694512 
L 159.245906 97.708114 
L 161.642685 116.119358 
L 164.039463 131.622773 
L 168.83302 141.19124 
L 171.229799 140.293483 
L 173.626577 143.016237 
L 176.023356 47.837812 
L 178.420134 50.674375 
L 180.816913 51.154009 
L 183.213691 114.45226 
L 185.61047 113.659061 
L 188.007248 113.876224 
L 190.404027 111.995442 
L 192.800805 113.256194 
L 195.197584 111.774444 
L 197.594362 111.922275 
L 199.991141 111.844691 
L 202.387919 110.114245 
L 204.784698 112.339187 
L 207.181477 110.063723 
L 214.371812 109.938678 
L 216.768591 109.421206 
L 219.165369 109.408778 
L 221.562148 108.230526 
L 223.958926 108.643116 
L 228.752483 108.206847 
L 231.149262 107.089587 
L 233.54604 107.444071 
L 235.942819 107.402289 
L 238.339597 106.772082 
L 243.133154 106.7972 
L 245.529933 105.493798 
L 247.926711 107.056941 
L 250.32349 105.815148 
L 252.720268 105.758432 
L 255.117047 106.05015 
L 257.513826 104.771591 
L 259.910604 105.151666 
L 262.307383 104.905967 
L 264.704161 104.873436 
L 267.10094 103.966445 
L 269.497718 105.153226 
L 271.894497 103.712024 
L 274.291275 103.637121 
L 276.688054 103.248919 
L 279.084832 105.062876 
L 281.481611 103.46605 
L 283.878389 103.119643 
L 286.275168 103.287957 
L 288.671946 102.250055 
L 291.068725 102.610564 
L 293.465503 103.555341 
L 295.862282 102.135485 
L 298.25906 101.900051 
L 300.655839 101.46075 
L 303.052617 99.879297 
L 307.846174 100.209177 
L 310.242953 98.526276 
L 312.639732 97.054244 
L 315.03651 100.458536 
L 317.433289 98.634837 
L 319.830067 100.075859 
L 322.226846 97.343561 
L 324.623624 98.829143 
L 327.020403 98.76122 
L 329.417181 98.264918 
L 334.210738 97.676957 
L 336.607517 98.991756 
L 339.004295 99.617049 
L 341.401074 96.528433 
L 343.797852 98.067752 
L 346.194631 98.401286 
L 348.591409 99.079463 
L 350.988188 97.445191 
L 353.384966 96.80662 
L 355.781745 96.735546 
L 358.178523 98.273536 
L 360.575302 97.211988 
L 362.972081 97.539742 
L 365.368859 95.961919 
L 367.765638 97.32566 
L 370.162416 97.700908 
L 372.559195 96.959918 
L 374.955973 98.407542 
L 377.352752 97.862459 
L 379.74953 97.879637 
L 382.146309 98.087392 
L 384.543087 97.226787 
L 386.939866 96.847661 
L 389.336644 97.506841 
L 391.733423 96.177161 
L 394.130201 96.894888 
L 396.52698 95.98452 
L 398.923758 97.279377 
L 401.320537 96.27261 
L 403.717315 96.871928 
L 406.114094 95.046588 
L 408.510872 96.693482 
L 410.907651 97.090266 
L 413.30443 95.949224 
L 415.701208 97.149005 
L 418.097987 96.002982 
L 420.494765 96.52372 
L 422.891544 94.061518 
L 425.288322 96.141089 
L 427.685101 94.999007 
L 430.081879 93.298929 
L 432.478658 94.518037 
L 434.875436 96.880772 
L 437.272215 95.785248 
L 439.668993 95.58764 
L 442.065772 96.667876 
L 444.46255 94.438829 
L 446.859329 94.639546 
L 449.256107 95.319022 
L 451.652886 96.370716 
L 454.049664 95.764788 
L 456.446443 93.593208 
L 458.843221 96.331297 
L 461.24 96.531046 
L 461.24 96.531046 
" style="fill:none;stroke:#ff7f0e;stroke-linecap:square;stroke-width:1.5;"/>
   </g>
   <g id="text_12">
    <!-- polyagamma -->
    <g style="fill:#1f77b4;" transform="translate(464.8112 317.606807)scale(0.14 -0.14)">
     <defs>
      <path d="M 18.109375 8.203125 
L 18.109375 -20.796875 
L 9.078125 -20.796875 
L 9.078125 54.6875 
L 18.109375 54.6875 
L 18.109375 46.390625 
Q 20.953125 51.265625 25.265625 53.625 
Q 29.59375 56 35.59375 56 
Q 45.5625 56 51.78125 48.09375 
Q 58.015625 40.1875 58.015625 27.296875 
Q 58.015625 14.40625 51.78125 6.484375 
Q 45.5625 -1.421875 35.59375 -1.421875 
Q 29.59375 -1.421875 25.265625 0.953125 
Q 20.953125 3.328125 18.109375 8.203125 
z
M 48.6875 27.296875 
Q 48.6875 37.203125 44.609375 42.84375 
Q 40.53125 48.484375 33.40625 48.484375 
Q 26.265625 48.484375 22.1875 42.84375 
Q 18.109375 37.203125 18.109375 27.296875 
Q 18.109375 17.390625 22.1875 11.75 
Q 26.265625 6.109375 33.40625 6.109375 
Q 40.53125 6.109375 44.609375 11.75 
Q 48.6875 17.390625 48.6875 27.296875 
z
" id="DejaVuSans-112"/>
      <path d="M 32.171875 -5.078125 
Q 28.375 -14.84375 24.75 -17.8125 
Q 21.140625 -20.796875 15.09375 -20.796875 
L 7.90625 -20.796875 
L 7.90625 -13.28125 
L 13.1875 -13.28125 
Q 16.890625 -13.28125 18.9375 -11.515625 
Q 21 -9.765625 23.484375 -3.21875 
L 25.09375 0.875 
L 2.984375 54.6875 
L 12.5 54.6875 
L 29.59375 11.921875 
L 46.6875 54.6875 
L 56.203125 54.6875 
z
" id="DejaVuSans-121"/>
      <path d="M 45.40625 27.984375 
Q 45.40625 37.75 41.375 43.109375 
Q 37.359375 48.484375 30.078125 48.484375 
Q 22.859375 48.484375 18.828125 43.109375 
Q 14.796875 37.75 14.796875 27.984375 
Q 14.796875 18.265625 18.828125 12.890625 
Q 22.859375 7.515625 30.078125 7.515625 
Q 37.359375 7.515625 41.375 12.890625 
Q 45.40625 18.265625 45.40625 27.984375 
z
M 54.390625 6.78125 
Q 54.390625 -7.171875 48.1875 -13.984375 
Q 42 -20.796875 29.203125 -20.796875 
Q 24.46875 -20.796875 20.265625 -20.09375 
Q 16.0625 -19.390625 12.109375 -17.921875 
L 12.109375 -9.1875 
Q 16.0625 -11.328125 19.921875 -12.34375 
Q 23.78125 -13.375 27.78125 -13.375 
Q 36.625 -13.375 41.015625 -8.765625 
Q 45.40625 -4.15625 45.40625 5.171875 
L 45.40625 9.625 
Q 42.625 4.78125 38.28125 2.390625 
Q 33.9375 0 27.875 0 
Q 17.828125 0 11.671875 7.65625 
Q 5.515625 15.328125 5.515625 27.984375 
Q 5.515625 40.671875 11.671875 48.328125 
Q 17.828125 56 27.875 56 
Q 33.9375 56 38.28125 53.609375 
Q 42.625 51.21875 45.40625 46.390625 
L 45.40625 54.6875 
L 54.390625 54.6875 
z
" id="DejaVuSans-103"/>
      <path d="M 52 44.1875 
Q 55.375 50.25 60.0625 53.125 
Q 64.75 56 71.09375 56 
Q 79.640625 56 84.28125 50.015625 
Q 88.921875 44.046875 88.921875 33.015625 
L 88.921875 0 
L 79.890625 0 
L 79.890625 32.71875 
Q 79.890625 40.578125 77.09375 44.375 
Q 74.3125 48.1875 68.609375 48.1875 
Q 61.625 48.1875 57.5625 43.546875 
Q 53.515625 38.921875 53.515625 30.90625 
L 53.515625 0 
L 44.484375 0 
L 44.484375 32.71875 
Q 44.484375 40.625 41.703125 44.40625 
Q 38.921875 48.1875 33.109375 48.1875 
Q 26.21875 48.1875 22.15625 43.53125 
Q 18.109375 38.875 18.109375 30.90625 
L 18.109375 0 
L 9.078125 0 
L 9.078125 54.6875 
L 18.109375 54.6875 
L 18.109375 46.1875 
Q 21.1875 51.21875 25.484375 53.609375 
Q 29.78125 56 35.6875 56 
Q 41.65625 56 45.828125 52.96875 
Q 50 49.953125 52 44.1875 
z
" id="DejaVuSans-109"/>
     </defs>
     <use xlink:href="#DejaVuSans-112"/>
     <use x="63.476562" xlink:href="#DejaVuSans-111"/>
     <use x="124.658203" xlink:href="#DejaVuSans-108"/>
     <use x="152.441406" xlink:href="#DejaVuSans-121"/>
     <use x="211.621094" xlink:href="#DejaVuSans-97"/>
     <use x="272.900391" xlink:href="#DejaVuSans-103"/>
     <use x="336.376953" xlink:href="#DejaVuSans-97"/>
     <use x="397.65625" xlink:href="#DejaVuSans-109"/>
     <use x="495.068359" xlink:href="#DejaVuSans-109"/>
     <use x="592.480469" xlink:href="#DejaVuSans-97"/>
    </g>
   </g>
   <g id="text_13">
    <!-- pypolyagamma -->
    <g style="fill:#ff7f0e;" transform="translate(464.8112 100.394171)scale(0.14 -0.14)">
     <use xlink:href="#DejaVuSans-112"/>
     <use x="63.476562" xlink:href="#DejaVuSans-121"/>
     <use x="122.65625" xlink:href="#DejaVuSans-112"/>
     <use x="186.132812" xlink:href="#DejaVuSans-111"/>
     <use x="247.314453" xlink:href="#DejaVuSans-108"/>
     <use x="275.097656" xlink:href="#DejaVuSans-121"/>
     <use x="334.277344" xlink:href="#DejaVuSans-97"/>
     <use x="395.556641" xlink:href="#DejaVuSans-103"/>
     <use x="459.033203" xlink:href="#DejaVuSans-97"/>
     <use x="520.3125" xlink:href="#DejaVuSans-109"/>
     <use x="617.724609" xlink:href="#DejaVuSans-109"/>
     <use x="715.136719" xlink:href="#DejaVuSans-97"/>
    </g>
   </g>
   <g id="text_14">
    <!-- Runtime [ms] -->
    <g style="fill:#969696;" transform="translate(235.292188 17.837812)scale(0.14 -0.14)">
     <defs>
      <path d="M 44.390625 34.1875 
Q 47.5625 33.109375 50.5625 29.59375 
Q 53.5625 26.078125 56.59375 19.921875 
L 66.609375 0 
L 56 0 
L 46.6875 18.703125 
Q 43.0625 26.03125 39.671875 28.421875 
Q 36.28125 30.8125 30.421875 30.8125 
L 19.671875 30.8125 
L 19.671875 0 
L 9.8125 0 
L 9.8125 72.90625 
L 32.078125 72.90625 
Q 44.578125 72.90625 50.734375 67.671875 
Q 56.890625 62.453125 56.890625 51.90625 
Q 56.890625 45.015625 53.6875 40.46875 
Q 50.484375 35.9375 44.390625 34.1875 
z
M 19.671875 64.796875 
L 19.671875 38.921875 
L 32.078125 38.921875 
Q 39.203125 38.921875 42.84375 42.21875 
Q 46.484375 45.515625 46.484375 51.90625 
Q 46.484375 58.296875 42.84375 61.546875 
Q 39.203125 64.796875 32.078125 64.796875 
z
" id="DejaVuSans-82"/>
      <path d="M 54.890625 33.015625 
L 54.890625 0 
L 45.90625 0 
L 45.90625 32.71875 
Q 45.90625 40.484375 42.875 44.328125 
Q 39.84375 48.1875 33.796875 48.1875 
Q 26.515625 48.1875 22.3125 43.546875 
Q 18.109375 38.921875 18.109375 30.90625 
L 18.109375 0 
L 9.078125 0 
L 9.078125 54.6875 
L 18.109375 54.6875 
L 18.109375 46.1875 
Q 21.34375 51.125 25.703125 53.5625 
Q 30.078125 56 35.796875 56 
Q 45.21875 56 50.046875 50.171875 
Q 54.890625 44.34375 54.890625 33.015625 
z
" id="DejaVuSans-110"/>
      <path d="M 18.3125 70.21875 
L 18.3125 54.6875 
L 36.8125 54.6875 
L 36.8125 47.703125 
L 18.3125 47.703125 
L 18.3125 18.015625 
Q 18.3125 11.328125 20.140625 9.421875 
Q 21.96875 7.515625 27.59375 7.515625 
L 36.8125 7.515625 
L 36.8125 0 
L 27.59375 0 
Q 17.1875 0 13.234375 3.875 
Q 9.28125 7.765625 9.28125 18.015625 
L 9.28125 47.703125 
L 2.6875 47.703125 
L 2.6875 54.6875 
L 9.28125 54.6875 
L 9.28125 70.21875 
z
" id="DejaVuSans-116"/>
      <path d="M 9.421875 54.6875 
L 18.40625 54.6875 
L 18.40625 0 
L 9.421875 0 
z
M 9.421875 75.984375 
L 18.40625 75.984375 
L 18.40625 64.59375 
L 9.421875 64.59375 
z
" id="DejaVuSans-105"/>
      <path d="M 8.59375 75.984375 
L 29.296875 75.984375 
L 29.296875 69 
L 17.578125 69 
L 17.578125 -6.203125 
L 29.296875 -6.203125 
L 29.296875 -13.1875 
L 8.59375 -13.1875 
z
" id="DejaVuSans-91"/>
      <path d="M 44.28125 53.078125 
L 44.28125 44.578125 
Q 40.484375 46.53125 36.375 47.5 
Q 32.28125 48.484375 27.875 48.484375 
Q 21.1875 48.484375 17.84375 46.4375 
Q 14.5 44.390625 14.5 40.28125 
Q 14.5 37.15625 16.890625 35.375 
Q 19.28125 33.59375 26.515625 31.984375 
L 29.59375 31.296875 
Q 39.15625 29.25 43.1875 25.515625 
Q 47.21875 21.78125 47.21875 15.09375 
Q 47.21875 7.46875 41.1875 3.015625 
Q 35.15625 -1.421875 24.609375 -1.421875 
Q 20.21875 -1.421875 15.453125 -0.5625 
Q 10.6875 0.296875 5.421875 2 
L 5.421875 11.28125 
Q 10.40625 8.6875 15.234375 7.390625 
Q 20.0625 6.109375 24.8125 6.109375 
Q 31.15625 6.109375 34.5625 8.28125 
Q 37.984375 10.453125 37.984375 14.40625 
Q 37.984375 18.0625 35.515625 20.015625 
Q 33.0625 21.96875 24.703125 23.78125 
L 21.578125 24.515625 
Q 13.234375 26.265625 9.515625 29.90625 
Q 5.8125 33.546875 5.8125 39.890625 
Q 5.8125 47.609375 11.28125 51.796875 
Q 16.75 56 26.8125 56 
Q 31.78125 56 36.171875 55.265625 
Q 40.578125 54.546875 44.28125 53.078125 
z
" id="DejaVuSans-115"/>
      <path d="M 30.421875 75.984375 
L 30.421875 -13.1875 
L 9.71875 -13.1875 
L 9.71875 -6.203125 
L 21.390625 -6.203125 
L 21.390625 69 
L 9.71875 69 
L 9.71875 75.984375 
z
" id="DejaVuSans-93"/>
     </defs>
     <use xlink:href="#DejaVuSans-82"/>
     <use x="64.982422" xlink:href="#DejaVuSans-117"/>
     <use x="128.361328" xlink:href="#DejaVuSans-110"/>
     <use x="191.740234" xlink:href="#DejaVuSans-116"/>
     <use x="230.949219" xlink:href="#DejaVuSans-105"/>
     <use x="258.732422" xlink:href="#DejaVuSans-109"/>
     <use x="356.144531" xlink:href="#DejaVuSans-101"/>
     <use x="417.667969" xlink:href="#DejaVuSans-32"/>
     <use x="449.455078" xlink:href="#DejaVuSans-91"/>
     <use x="488.46875" xlink:href="#DejaVuSans-109"/>
     <use x="585.880859" xlink:href="#DejaVuSans-115"/>
     <use x="637.980469" xlink:href="#DejaVuSans-93"/>
    </g>
   </g>
  </g>
  <g id="text_15">
   <!-- Comparison of runtime with $pypolyagamma$, generating 20000 PG(h, 2.5) samples per value of $h$. -->
   <g style="fill:#969696;" transform="translate(7.2 21.637812)scale(0.11 -0.11)">
    <defs>
     <path d="M 64.40625 67.28125 
L 64.40625 56.890625 
Q 59.421875 61.53125 53.78125 63.8125 
Q 48.140625 66.109375 41.796875 66.109375 
Q 29.296875 66.109375 22.65625 58.46875 
Q 16.015625 50.828125 16.015625 36.375 
Q 16.015625 21.96875 22.65625 14.328125 
Q 29.296875 6.6875 41.796875 6.6875 
Q 48.140625 6.6875 53.78125 8.984375 
Q 59.421875 11.28125 64.40625 15.921875 
L 64.40625 5.609375 
Q 59.234375 2.09375 53.4375 0.328125 
Q 47.65625 -1.421875 41.21875 -1.421875 
Q 24.65625 -1.421875 15.125 8.703125 
Q 5.609375 18.84375 5.609375 36.375 
Q 5.609375 53.953125 15.125 64.078125 
Q 24.65625 74.21875 41.21875 74.21875 
Q 47.75 74.21875 53.53125 72.484375 
Q 59.328125 70.75 64.40625 67.28125 
z
" id="DejaVuSans-67"/>
     <path d="M 41.109375 46.296875 
Q 39.59375 47.171875 37.8125 47.578125 
Q 36.03125 48 33.890625 48 
Q 26.265625 48 22.1875 43.046875 
Q 18.109375 38.09375 18.109375 28.8125 
L 18.109375 0 
L 9.078125 0 
L 9.078125 54.6875 
L 18.109375 54.6875 
L 18.109375 46.1875 
Q 20.953125 51.171875 25.484375 53.578125 
Q 30.03125 56 36.53125 56 
Q 37.453125 56 38.578125 55.875 
Q 39.703125 55.765625 41.0625 55.515625 
z
" id="DejaVuSans-114"/>
     <path d="M 4.203125 54.6875 
L 13.1875 54.6875 
L 24.421875 12.015625 
L 35.59375 54.6875 
L 46.1875 54.6875 
L 57.421875 12.015625 
L 68.609375 54.6875 
L 77.59375 54.6875 
L 63.28125 0 
L 52.6875 0 
L 40.921875 44.828125 
L 29.109375 0 
L 18.5 0 
z
" id="DejaVuSans-119"/>
     <path d="M 54.890625 33.015625 
L 54.890625 0 
L 45.90625 0 
L 45.90625 32.71875 
Q 45.90625 40.484375 42.875 44.328125 
Q 39.84375 48.1875 33.796875 48.1875 
Q 26.515625 48.1875 22.3125 43.546875 
Q 18.109375 38.921875 18.109375 30.90625 
L 18.109375 0 
L 9.078125 0 
L 9.078125 75.984375 
L 18.109375 75.984375 
L 18.109375 46.1875 
Q 21.34375 51.125 25.703125 53.5625 
Q 30.078125 56 35.796875 56 
Q 45.21875 56 50.046875 50.171875 
Q 54.890625 44.34375 54.890625 33.015625 
z
" id="DejaVuSans-104"/>
     <path d="M 49.609375 33.6875 
Q 49.609375 40.875 46.484375 44.671875 
Q 43.359375 48.484375 37.5 48.484375 
Q 33.5 48.484375 29.859375 46.4375 
Q 26.21875 44.390625 23.390625 40.484375 
Q 20.609375 36.625 18.9375 31.15625 
Q 17.28125 25.6875 17.28125 20.3125 
Q 17.28125 13.484375 20.40625 9.796875 
Q 23.53125 6.109375 29.296875 6.109375 
Q 33.546875 6.109375 37.1875 8.109375 
Q 40.828125 10.109375 43.40625 13.921875 
Q 46.1875 17.921875 47.890625 23.34375 
Q 49.609375 28.765625 49.609375 33.6875 
z
M 21.78125 46.390625 
Q 25.390625 51.125 30.296875 53.5625 
Q 35.203125 56 41.21875 56 
Q 49.609375 56 54.25 50.5 
Q 58.890625 45.015625 58.890625 35.109375 
Q 58.890625 27 56 19.65625 
Q 53.125 12.3125 47.703125 6.5 
Q 44.09375 2.640625 39.546875 0.609375 
Q 35.015625 -1.421875 29.984375 -1.421875 
Q 24.171875 -1.421875 20.21875 1 
Q 16.265625 3.421875 14.3125 8.203125 
L 8.6875 -20.796875 
L -0.296875 -20.796875 
L 14.40625 54.6875 
L 23.390625 54.6875 
z
" id="DejaVuSans-Oblique-112"/>
     <path d="M 24.8125 -5.078125 
Q 18.5625 -15.578125 14.625 -18.1875 
Q 10.6875 -20.796875 4.59375 -20.796875 
L -2.484375 -20.796875 
L -0.984375 -13.28125 
L 4.203125 -13.28125 
Q 7.953125 -13.28125 10.59375 -11.234375 
Q 13.234375 -9.1875 16.5 -3.21875 
L 19.28125 2 
L 7.171875 54.6875 
L 16.703125 54.6875 
L 25.78125 12.796875 
L 50.875 54.6875 
L 60.296875 54.6875 
z
" id="DejaVuSans-Oblique-121"/>
     <path d="M 25.390625 -1.421875 
Q 15.765625 -1.421875 10.171875 4.515625 
Q 4.59375 10.453125 4.59375 20.703125 
Q 4.59375 26.65625 6.515625 32.828125 
Q 8.453125 39.015625 11.53125 43.21875 
Q 16.359375 49.75 22.3125 52.875 
Q 28.265625 56 35.796875 56 
Q 45.125 56 50.859375 50.1875 
Q 56.59375 44.390625 56.59375 35.015625 
Q 56.59375 28.515625 54.6875 22.0625 
Q 52.78125 15.625 49.703125 11.375 
Q 44.921875 4.828125 38.96875 1.703125 
Q 33.015625 -1.421875 25.390625 -1.421875 
z
M 13.921875 21 
Q 13.921875 13.578125 17.015625 9.890625 
Q 20.125 6.203125 26.421875 6.203125 
Q 35.453125 6.203125 41.375 14.078125 
Q 47.3125 21.96875 47.3125 34.078125 
Q 47.3125 41.15625 44.140625 44.765625 
Q 40.96875 48.390625 34.8125 48.390625 
Q 29.734375 48.390625 25.78125 46.015625 
Q 21.828125 43.65625 18.703125 38.8125 
Q 16.40625 35.203125 15.15625 30.5625 
Q 13.921875 25.921875 13.921875 21 
z
" id="DejaVuSans-Oblique-111"/>
     <path d="M 18.3125 75.984375 
L 27.296875 75.984375 
L 12.5 0 
L 3.515625 0 
z
" id="DejaVuSans-Oblique-108"/>
     <path d="M 53.71875 31.203125 
L 47.609375 0 
L 38.625 0 
L 40.28125 8.296875 
Q 36.328125 3.421875 31.265625 1 
Q 26.21875 -1.421875 20.015625 -1.421875 
Q 13.03125 -1.421875 8.5625 2.84375 
Q 4.109375 7.125 4.109375 13.8125 
Q 4.109375 23.390625 11.75 28.953125 
Q 19.390625 34.515625 32.8125 34.515625 
L 45.3125 34.515625 
L 45.796875 36.921875 
Q 45.90625 37.3125 45.953125 37.765625 
Q 46 38.234375 46 39.203125 
Q 46 43.5625 42.453125 45.96875 
Q 38.921875 48.390625 32.515625 48.390625 
Q 28.125 48.390625 23.5 47.265625 
Q 18.890625 46.140625 14.015625 43.890625 
L 15.578125 52.203125 
Q 20.65625 54.109375 25.515625 55.046875 
Q 30.375 56 34.90625 56 
Q 44.578125 56 49.625 51.796875 
Q 54.6875 47.609375 54.6875 39.59375 
Q 54.6875 37.984375 54.4375 35.8125 
Q 54.203125 33.640625 53.71875 31.203125 
z
M 44 27.484375 
L 35.015625 27.484375 
Q 23.96875 27.484375 18.671875 24.53125 
Q 13.375 21.578125 13.375 15.375 
Q 13.375 11.078125 16.078125 8.640625 
Q 18.796875 6.203125 23.578125 6.203125 
Q 30.90625 6.203125 36.375 11.453125 
Q 41.84375 16.703125 43.609375 25.484375 
z
" id="DejaVuSans-Oblique-97"/>
     <path d="M 59.625 54.6875 
L 50.296875 6.78125 
Q 47.609375 -7.125 40.015625 -13.953125 
Q 32.421875 -20.796875 19.578125 -20.796875 
Q 14.84375 -20.796875 10.78125 -20.09375 
Q 6.734375 -19.390625 3.21875 -17.921875 
L 4.890625 -9.1875 
Q 8.203125 -11.328125 11.90625 -12.34375 
Q 15.625 -13.375 19.828125 -13.375 
Q 28.375 -13.375 33.859375 -8.703125 
Q 39.359375 -4.046875 41.109375 4.6875 
L 41.890625 8.796875 
Q 38.140625 4.5 33.15625 2.25 
Q 28.171875 0 22.40625 0 
Q 14.109375 0 9.34375 5.484375 
Q 4.59375 10.984375 4.59375 20.609375 
Q 4.59375 28.171875 7.46875 35.421875 
Q 10.359375 42.671875 15.578125 48.296875 
Q 19.046875 52 23.65625 54 
Q 28.265625 56 33.296875 56 
Q 38.8125 56 42.90625 53.4375 
Q 47.015625 50.875 49.03125 46.1875 
L 50.59375 54.6875 
z
M 46.09375 34.625 
Q 46.09375 41.265625 42.96875 44.875 
Q 39.84375 48.484375 34.078125 48.484375 
Q 30.515625 48.484375 27.296875 47.0625 
Q 24.078125 45.65625 21.78125 43.109375 
Q 18.0625 38.921875 15.984375 33.234375 
Q 13.921875 27.546875 13.921875 21.484375 
Q 13.921875 14.75 17.0625 11.125 
Q 20.21875 7.515625 26.125 7.515625 
Q 34.671875 7.515625 40.375 15.25 
Q 46.09375 23 46.09375 34.625 
z
" id="DejaVuSans-Oblique-103"/>
     <path d="M 89.796875 33.015625 
L 83.40625 0 
L 74.421875 0 
L 80.71875 32.71875 
Q 81.109375 34.8125 81.296875 36.328125 
Q 81.5 37.84375 81.5 38.921875 
Q 81.5 43.3125 79.046875 45.75 
Q 76.609375 48.1875 72.21875 48.1875 
Q 65.671875 48.1875 60.546875 43.28125 
Q 55.421875 38.375 53.90625 30.515625 
L 47.90625 0 
L 38.921875 0 
L 45.3125 32.71875 
Q 45.703125 34.515625 45.890625 36.046875 
Q 46.09375 37.59375 46.09375 38.8125 
Q 46.09375 43.265625 43.65625 45.71875 
Q 41.21875 48.1875 36.921875 48.1875 
Q 30.28125 48.1875 25.140625 43.28125 
Q 20.015625 38.375 18.5 30.515625 
L 12.5 0 
L 3.515625 0 
L 14.203125 54.6875 
L 23.1875 54.6875 
L 21.484375 46.1875 
Q 25.140625 50.984375 30.046875 53.484375 
Q 34.96875 56 40.578125 56 
Q 46.53125 56 50.359375 52.875 
Q 54.203125 49.75 54.984375 44.1875 
Q 59.078125 49.953125 64.46875 52.96875 
Q 69.875 56 75.875 56 
Q 82.90625 56 86.734375 51.953125 
Q 90.578125 47.90625 90.578125 40.484375 
Q 90.578125 38.875 90.375 36.9375 
Q 90.1875 35.015625 89.796875 33.015625 
z
" id="DejaVuSans-Oblique-109"/>
     <path d="M 11.71875 12.40625 
L 22.015625 12.40625 
L 22.015625 4 
L 14.015625 -11.625 
L 7.71875 -11.625 
L 11.71875 4 
z
" id="DejaVuSans-44"/>
     <path d="M 19.671875 64.796875 
L 19.671875 37.40625 
L 32.078125 37.40625 
Q 38.96875 37.40625 42.71875 40.96875 
Q 46.484375 44.53125 46.484375 51.125 
Q 46.484375 57.671875 42.71875 61.234375 
Q 38.96875 64.796875 32.078125 64.796875 
z
M 9.8125 72.90625 
L 32.078125 72.90625 
Q 44.34375 72.90625 50.609375 67.359375 
Q 56.890625 61.8125 56.890625 51.125 
Q 56.890625 40.328125 50.609375 34.8125 
Q 44.34375 29.296875 32.078125 29.296875 
L 19.671875 29.296875 
L 19.671875 0 
L 9.8125 0 
z
" id="DejaVuSans-80"/>
     <path d="M 59.515625 10.40625 
L 59.515625 29.984375 
L 43.40625 29.984375 
L 43.40625 38.09375 
L 69.28125 38.09375 
L 69.28125 6.78125 
Q 63.578125 2.734375 56.6875 0.65625 
Q 49.8125 -1.421875 42 -1.421875 
Q 24.90625 -1.421875 15.25 8.5625 
Q 5.609375 18.5625 5.609375 36.375 
Q 5.609375 54.25 15.25 64.234375 
Q 24.90625 74.21875 42 74.21875 
Q 49.125 74.21875 55.546875 72.453125 
Q 61.96875 70.703125 67.390625 67.28125 
L 67.390625 56.78125 
Q 61.921875 61.421875 55.765625 63.765625 
Q 49.609375 66.109375 42.828125 66.109375 
Q 29.4375 66.109375 22.71875 58.640625 
Q 16.015625 51.171875 16.015625 36.375 
Q 16.015625 21.625 22.71875 14.15625 
Q 29.4375 6.6875 42.828125 6.6875 
Q 48.046875 6.6875 52.140625 7.59375 
Q 56.25 8.5 59.515625 10.40625 
z
" id="DejaVuSans-71"/>
     <path d="M 31 75.875 
Q 24.46875 64.65625 21.28125 53.65625 
Q 18.109375 42.671875 18.109375 31.390625 
Q 18.109375 20.125 21.3125 9.0625 
Q 24.515625 -2 31 -13.1875 
L 23.1875 -13.1875 
Q 15.875 -1.703125 12.234375 9.375 
Q 8.59375 20.453125 8.59375 31.390625 
Q 8.59375 42.28125 12.203125 53.3125 
Q 15.828125 64.359375 23.1875 75.875 
z
" id="DejaVuSans-40"/>
     <path d="M 10.6875 12.40625 
L 21 12.40625 
L 21 0 
L 10.6875 0 
z
" id="DejaVuSans-46"/>
     <path d="M 8.015625 75.875 
L 15.828125 75.875 
Q 23.140625 64.359375 26.78125 53.3125 
Q 30.421875 42.28125 30.421875 31.390625 
Q 30.421875 20.453125 26.78125 9.375 
Q 23.140625 -1.703125 15.828125 -13.1875 
L 8.015625 -13.1875 
Q 14.5 -2 17.703125 9.0625 
Q 20.90625 20.125 20.90625 31.390625 
Q 20.90625 42.671875 17.703125 53.65625 
Q 14.5 64.65625 8.015625 75.875 
z
" id="DejaVuSans-41"/>
    </defs>
    <use transform="translate(0 0.015625)" xlink:href="#DejaVuSans-67"/>
    <use transform="translate(69.824219 0.015625)" xlink:href="#DejaVuSans-111"/>
    <use transform="translate(131.005859 0.015625)" xlink:href="#DejaVuSans-109"/>
    <use transform="translate(228.417969 0.015625)" xlink:href="#DejaVuSans-112"/>
    <use transform="translate(291.894531 0.015625)" xlink:href="#DejaVuSans-97"/>
    <use transform="translate(353.173828 0.015625)" xlink:href="#DejaVuSans-114"/>
    <use transform="translate(394.287109 0.015625)" xlink:href="#DejaVuSans-105"/>
    <use transform="translate(422.070312 0.015625)" xlink:href="#DejaVuSans-115"/>
    <use transform="translate(474.169922 0.015625)" xlink:href="#DejaVuSans-111"/>
    <use transform="translate(535.351562 0.015625)" xlink:href="#DejaVuSans-110"/>
    <use transform="translate(598.730469 0.015625)" xlink:href="#DejaVuSans-32"/>
    <use transform="translate(630.517578 0.015625)" xlink:href="#DejaVuSans-111"/>
    <use transform="translate(691.699219 0.015625)" xlink:href="#DejaVuSans-102"/>
    <use transform="translate(726.904297 0.015625)" xlink:href="#DejaVuSans-32"/>
    <use transform="translate(758.691406 0.015625)" xlink:href="#DejaVuSans-114"/>
    <use transform="translate(799.804688 0.015625)" xlink:href="#DejaVuSans-117"/>
    <use transform="translate(863.183594 0.015625)" xlink:href="#DejaVuSans-110"/>
    <use transform="translate(926.5625 0.015625)" xlink:href="#DejaVuSans-116"/>
    <use transform="translate(965.771484 0.015625)" xlink:href="#DejaVuSans-105"/>
    <use transform="translate(993.554688 0.015625)" xlink:href="#DejaVuSans-109"/>
    <use transform="translate(1090.966797 0.015625)" xlink:href="#DejaVuSans-101"/>
    <use transform="translate(1152.490234 0.015625)" xlink:href="#DejaVuSans-32"/>
    <use transform="translate(1184.277344 0.015625)" xlink:href="#DejaVuSans-119"/>
    <use transform="translate(1266.064453 0.015625)" xlink:href="#DejaVuSans-105"/>
    <use transform="translate(1293.847656 0.015625)" xlink:href="#DejaVuSans-116"/>
    <use transform="translate(1333.056641 0.015625)" xlink:href="#DejaVuSans-104"/>
    <use transform="translate(1396.435547 0.015625)" xlink:href="#DejaVuSans-32"/>
    <use transform="translate(1428.222656 0.015625)" xlink:href="#DejaVuSans-Oblique-112"/>
    <use transform="translate(1491.699219 0.015625)" xlink:href="#DejaVuSans-Oblique-121"/>
    <use transform="translate(1550.878906 0.015625)" xlink:href="#DejaVuSans-Oblique-112"/>
    <use transform="translate(1614.355469 0.015625)" xlink:href="#DejaVuSans-Oblique-111"/>
    <use transform="translate(1675.537109 0.015625)" xlink:href="#DejaVuSans-Oblique-108"/>
    <use transform="translate(1703.320312 0.015625)" xlink:href="#DejaVuSans-Oblique-121"/>
    <use transform="translate(1762.5 0.015625)" xlink:href="#DejaVuSans-Oblique-97"/>
    <use transform="translate(1823.779297 0.015625)" xlink:href="#DejaVuSans-Oblique-103"/>
    <use transform="translate(1887.255859 0.015625)" xlink:href="#DejaVuSans-Oblique-97"/>
    <use transform="translate(1948.535156 0.015625)" xlink:href="#DejaVuSans-Oblique-109"/>
    <use transform="translate(2045.947266 0.015625)" xlink:href="#DejaVuSans-Oblique-109"/>
    <use transform="translate(2143.359375 0.015625)" xlink:href="#DejaVuSans-Oblique-97"/>
    <use transform="translate(2204.638672 0.015625)" xlink:href="#DejaVuSans-44"/>
    <use transform="translate(2236.425781 0.015625)" xlink:href="#DejaVuSans-32"/>
    <use transform="translate(2268.212891 0.015625)" xlink:href="#DejaVuSans-103"/>
    <use transform="translate(2331.689453 0.015625)" xlink:href="#DejaVuSans-101"/>
    <use transform="translate(2393.212891 0.015625)" xlink:href="#DejaVuSans-110"/>
    <use transform="translate(2456.591797 0.015625)" xlink:href="#DejaVuSans-101"/>
    <use transform="translate(2518.115234 0.015625)" xlink:href="#DejaVuSans-114"/>
    <use transform="translate(2559.228516 0.015625)" xlink:href="#DejaVuSans-97"/>
    <use transform="translate(2620.507812 0.015625)" xlink:href="#DejaVuSans-116"/>
    <use transform="translate(2659.716797 0.015625)" xlink:href="#DejaVuSans-105"/>
    <use transform="translate(2687.5 0.015625)" xlink:href="#DejaVuSans-110"/>
    <use transform="translate(2750.878906 0.015625)" xlink:href="#DejaVuSans-103"/>
    <use transform="translate(2814.355469 0.015625)" xlink:href="#DejaVuSans-32"/>
    <use transform="translate(2846.142578 0.015625)" xlink:href="#DejaVuSans-50"/>
    <use transform="translate(2909.765625 0.015625)" xlink:href="#DejaVuSans-48"/>
    <use transform="translate(2973.388672 0.015625)" xlink:href="#DejaVuSans-48"/>
    <use transform="translate(3037.011719 0.015625)" xlink:href="#DejaVuSans-48"/>
    <use transform="translate(3100.634766 0.015625)" xlink:href="#DejaVuSans-48"/>
    <use transform="translate(3164.257812 0.015625)" xlink:href="#DejaVuSans-32"/>
    <use transform="translate(3196.044922 0.015625)" xlink:href="#DejaVuSans-80"/>
    <use transform="translate(3256.347656 0.015625)" xlink:href="#DejaVuSans-71"/>
    <use transform="translate(3333.837891 0.015625)" xlink:href="#DejaVuSans-40"/>
    <use transform="translate(3372.851562 0.015625)" xlink:href="#DejaVuSans-104"/>
    <use transform="translate(3436.230469 0.015625)" xlink:href="#DejaVuSans-44"/>
    <use transform="translate(3468.017578 0.015625)" xlink:href="#DejaVuSans-32"/>
    <use transform="translate(3499.804688 0.015625)" xlink:href="#DejaVuSans-50"/>
    <use transform="translate(3563.427734 0.015625)" xlink:href="#DejaVuSans-46"/>
    <use transform="translate(3595.214844 0.015625)" xlink:href="#DejaVuSans-53"/>
    <use transform="translate(3658.837891 0.015625)" xlink:href="#DejaVuSans-41"/>
    <use transform="translate(3697.851562 0.015625)" xlink:href="#DejaVuSans-32"/>
    <use transform="translate(3729.638672 0.015625)" xlink:href="#DejaVuSans-115"/>
    <use transform="translate(3781.738281 0.015625)" xlink:href="#DejaVuSans-97"/>
    <use transform="translate(3843.017578 0.015625)" xlink:href="#DejaVuSans-109"/>
    <use transform="translate(3940.429688 0.015625)" xlink:href="#DejaVuSans-112"/>
    <use transform="translate(4003.90625 0.015625)" xlink:href="#DejaVuSans-108"/>
    <use transform="translate(4031.689453 0.015625)" xlink:href="#DejaVuSans-101"/>
    <use transform="translate(4093.212891 0.015625)" xlink:href="#DejaVuSans-115"/>
    <use transform="translate(4145.3125 0.015625)" xlink:href="#DejaVuSans-32"/>
    <use transform="translate(4177.099609 0.015625)" xlink:href="#DejaVuSans-112"/>
    <use transform="translate(4240.576172 0.015625)" xlink:href="#DejaVuSans-101"/>
    <use transform="translate(4302.099609 0.015625)" xlink:href="#DejaVuSans-114"/>
    <use transform="translate(4343.212891 0.015625)" xlink:href="#DejaVuSans-32"/>
    <use transform="translate(4375 0.015625)" xlink:href="#DejaVuSans-118"/>
    <use transform="translate(4434.179688 0.015625)" xlink:href="#DejaVuSans-97"/>
    <use transform="translate(4495.458984 0.015625)" xlink:href="#DejaVuSans-108"/>
    <use transform="translate(4523.242188 0.015625)" xlink:href="#DejaVuSans-117"/>
    <use transform="translate(4586.621094 0.015625)" xlink:href="#DejaVuSans-101"/>
    <use transform="translate(4648.144531 0.015625)" xlink:href="#DejaVuSans-32"/>
    <use transform="translate(4679.931641 0.015625)" xlink:href="#DejaVuSans-111"/>
    <use transform="translate(4741.113281 0.015625)" xlink:href="#DejaVuSans-102"/>
    <use transform="translate(4776.318359 0.015625)" xlink:href="#DejaVuSans-32"/>
    <use transform="translate(4808.105469 0.015625)" xlink:href="#DejaVuSans-Oblique-104"/>
    <use transform="translate(4871.484375 0.015625)" xlink:href="#DejaVuSans-46"/>
   </g>
  </g>
 </g>
 <defs>
  <clipPath id="p6042d2a80f">
   <rect height="266.112" width="357.12" x="104.12" y="47.837812"/>
  </clipPath>
 </defs>
</svg>
