<?xml version="1.0" encoding="utf-8" standalone="no"?>
<!DOCTYPE svg PUBLIC "-//W3C//DTD SVG 1.1//EN"
  "http://www.w3.org/Graphics/SVG/1.1/DTD/svg11.dtd">
<!-- Created with matplotlib (https://matplotlib.org/) -->
<svg height="359.248562pt" version="1.1" viewBox="0 0 472.450262 359.248562" width="472.450262pt" xmlns="http://www.w3.org/2000/svg" xmlns:xlink="http://www.w3.org/1999/xlink">
 <metadata>
  <rdf:RDF xmlns:cc="http://creativecommons.org/ns#" xmlns:dc="http://purl.org/dc/elements/1.1/" xmlns:rdf="http://www.w3.org/1999/02/22-rdf-syntax-ns#">
   <cc:Work>
    <dc:type rdf:resource="http://purl.org/dc/dcmitype/StillImage"/>
    <dc:date>2021-02-12T23:26:16.647840</dc:date>
    <dc:format>image/svg+xml</dc:format>
    <dc:creator>
     <cc:Agent>
      <dc:title>Matplotlib v3.3.3, https://matplotlib.org/</dc:title>
     </cc:Agent>
    </dc:creator>
   </cc:Work>
  </rdf:RDF>
 </metadata>
 <defs>
  <style type="text/css">*{stroke-linecap:butt;stroke-linejoin:round;}</style>
 </defs>
 <g id="figure_1">
  <g id="patch_1">
   <path d="M 0 359.248562 
L 472.450262 359.248562 
L 472.450262 0 
L 0 0 
z
" style="fill:none;"/>
  </g>
  <g id="axes_1">
   <g id="patch_2">
    <path d="M 40.9225 313.949812 
L 398.0425 313.949812 
L 398.0425 47.837812 
L 40.9225 47.837812 
z
" style="fill:none;"/>
   </g>
   <g id="matplotlib.axis_1">
    <g id="xtick_1">
     <g id="line2d_1">
      <defs>
       <path d="M 0 0 
L 0 3.5 
" id="m630ca62054" style="stroke:#969696;stroke-width:0.4;"/>
      </defs>
      <g>
       <use style="fill:#969696;stroke:#969696;stroke-width:0.4;" x="96.337672" xlink:href="#m630ca62054" y="313.949812"/>
      </g>
     </g>
     <g id="text_1">
      <!-- 10 -->
      <g style="fill:#969696;" transform="translate(87.430172 331.587625)scale(0.14 -0.14)">
       <defs>
        <path d="M 12.40625 8.296875 
L 28.515625 8.296875 
L 28.515625 63.921875 
L 10.984375 60.40625 
L 10.984375 69.390625 
L 28.421875 72.90625 
L 38.28125 72.90625 
L 38.28125 8.296875 
L 54.390625 8.296875 
L 54.390625 0 
L 12.40625 0 
z
" id="DejaVuSans-49"/>
        <path d="M 31.78125 66.40625 
Q 24.171875 66.40625 20.328125 58.90625 
Q 16.5 51.421875 16.5 36.375 
Q 16.5 21.390625 20.328125 13.890625 
Q 24.171875 6.390625 31.78125 6.390625 
Q 39.453125 6.390625 43.28125 13.890625 
Q 47.125 21.390625 47.125 36.375 
Q 47.125 51.421875 43.28125 58.90625 
Q 39.453125 66.40625 31.78125 66.40625 
z
M 31.78125 74.21875 
Q 44.046875 74.21875 50.515625 64.515625 
Q 56.984375 54.828125 56.984375 36.375 
Q 56.984375 17.96875 50.515625 8.265625 
Q 44.046875 -1.421875 31.78125 -1.421875 
Q 19.53125 -1.421875 13.0625 8.265625 
Q 6.59375 17.96875 6.59375 36.375 
Q 6.59375 54.828125 13.0625 64.515625 
Q 19.53125 74.21875 31.78125 74.21875 
z
" id="DejaVuSans-48"/>
       </defs>
       <use xlink:href="#DejaVuSans-49"/>
       <use x="63.623047" xlink:href="#DejaVuSans-48"/>
      </g>
     </g>
    </g>
    <g id="xtick_2">
     <g id="line2d_2">
      <g>
       <use style="fill:#969696;stroke:#969696;stroke-width:0.4;" x="157.910086" xlink:href="#m630ca62054" y="313.949812"/>
      </g>
     </g>
     <g id="text_2">
      <!-- 20 -->
      <g style="fill:#969696;" transform="translate(149.002586 331.587625)scale(0.14 -0.14)">
       <defs>
        <path d="M 19.1875 8.296875 
L 53.609375 8.296875 
L 53.609375 0 
L 7.328125 0 
L 7.328125 8.296875 
Q 12.9375 14.109375 22.625 23.890625 
Q 32.328125 33.6875 34.8125 36.53125 
Q 39.546875 41.84375 41.421875 45.53125 
Q 43.3125 49.21875 43.3125 52.78125 
Q 43.3125 58.59375 39.234375 62.25 
Q 35.15625 65.921875 28.609375 65.921875 
Q 23.96875 65.921875 18.8125 64.3125 
Q 13.671875 62.703125 7.8125 59.421875 
L 7.8125 69.390625 
Q 13.765625 71.78125 18.9375 73 
Q 24.125 74.21875 28.421875 74.21875 
Q 39.75 74.21875 46.484375 68.546875 
Q 53.21875 62.890625 53.21875 53.421875 
Q 53.21875 48.921875 51.53125 44.890625 
Q 49.859375 40.875 45.40625 35.40625 
Q 44.1875 33.984375 37.640625 27.21875 
Q 31.109375 20.453125 19.1875 8.296875 
z
" id="DejaVuSans-50"/>
       </defs>
       <use xlink:href="#DejaVuSans-50"/>
       <use x="63.623047" xlink:href="#DejaVuSans-48"/>
      </g>
     </g>
    </g>
    <g id="xtick_3">
     <g id="line2d_3">
      <g>
       <use style="fill:#969696;stroke:#969696;stroke-width:0.4;" x="219.4825" xlink:href="#m630ca62054" y="313.949812"/>
      </g>
     </g>
     <g id="text_3">
      <!-- 30 -->
      <g style="fill:#969696;" transform="translate(210.575 331.587625)scale(0.14 -0.14)">
       <defs>
        <path d="M 40.578125 39.3125 
Q 47.65625 37.796875 51.625 33 
Q 55.609375 28.21875 55.609375 21.1875 
Q 55.609375 10.40625 48.1875 4.484375 
Q 40.765625 -1.421875 27.09375 -1.421875 
Q 22.515625 -1.421875 17.65625 -0.515625 
Q 12.796875 0.390625 7.625 2.203125 
L 7.625 11.71875 
Q 11.71875 9.328125 16.59375 8.109375 
Q 21.484375 6.890625 26.8125 6.890625 
Q 36.078125 6.890625 40.9375 10.546875 
Q 45.796875 14.203125 45.796875 21.1875 
Q 45.796875 27.640625 41.28125 31.265625 
Q 36.765625 34.90625 28.71875 34.90625 
L 20.21875 34.90625 
L 20.21875 43.015625 
L 29.109375 43.015625 
Q 36.375 43.015625 40.234375 45.921875 
Q 44.09375 48.828125 44.09375 54.296875 
Q 44.09375 59.90625 40.109375 62.90625 
Q 36.140625 65.921875 28.71875 65.921875 
Q 24.65625 65.921875 20.015625 65.03125 
Q 15.375 64.15625 9.8125 62.3125 
L 9.8125 71.09375 
Q 15.4375 72.65625 20.34375 73.4375 
Q 25.25 74.21875 29.59375 74.21875 
Q 40.828125 74.21875 47.359375 69.109375 
Q 53.90625 64.015625 53.90625 55.328125 
Q 53.90625 49.265625 50.4375 45.09375 
Q 46.96875 40.921875 40.578125 39.3125 
z
" id="DejaVuSans-51"/>
       </defs>
       <use xlink:href="#DejaVuSans-51"/>
       <use x="63.623047" xlink:href="#DejaVuSans-48"/>
      </g>
     </g>
    </g>
    <g id="xtick_4">
     <g id="line2d_4">
      <g>
       <use style="fill:#969696;stroke:#969696;stroke-width:0.4;" x="281.054914" xlink:href="#m630ca62054" y="313.949812"/>
      </g>
     </g>
     <g id="text_4">
      <!-- 40 -->
      <g style="fill:#969696;" transform="translate(272.147414 331.587625)scale(0.14 -0.14)">
       <defs>
        <path d="M 37.796875 64.3125 
L 12.890625 25.390625 
L 37.796875 25.390625 
z
M 35.203125 72.90625 
L 47.609375 72.90625 
L 47.609375 25.390625 
L 58.015625 25.390625 
L 58.015625 17.1875 
L 47.609375 17.1875 
L 47.609375 0 
L 37.796875 0 
L 37.796875 17.1875 
L 4.890625 17.1875 
L 4.890625 26.703125 
z
" id="DejaVuSans-52"/>
       </defs>
       <use xlink:href="#DejaVuSans-52"/>
       <use x="63.623047" xlink:href="#DejaVuSans-48"/>
      </g>
     </g>
    </g>
    <g id="xtick_5">
     <g id="line2d_5">
      <g>
       <use style="fill:#969696;stroke:#969696;stroke-width:0.4;" x="342.627328" xlink:href="#m630ca62054" y="313.949812"/>
      </g>
     </g>
     <g id="text_5">
      <!-- 50 -->
      <g style="fill:#969696;" transform="translate(333.719828 331.587625)scale(0.14 -0.14)">
       <defs>
        <path d="M 10.796875 72.90625 
L 49.515625 72.90625 
L 49.515625 64.59375 
L 19.828125 64.59375 
L 19.828125 46.734375 
Q 21.96875 47.46875 24.109375 47.828125 
Q 26.265625 48.1875 28.421875 48.1875 
Q 40.625 48.1875 47.75 41.5 
Q 54.890625 34.8125 54.890625 23.390625 
Q 54.890625 11.625 47.5625 5.09375 
Q 40.234375 -1.421875 26.90625 -1.421875 
Q 22.3125 -1.421875 17.546875 -0.640625 
Q 12.796875 0.140625 7.71875 1.703125 
L 7.71875 11.625 
Q 12.109375 9.234375 16.796875 8.0625 
Q 21.484375 6.890625 26.703125 6.890625 
Q 35.15625 6.890625 40.078125 11.328125 
Q 45.015625 15.765625 45.015625 23.390625 
Q 45.015625 31 40.078125 35.4375 
Q 35.15625 39.890625 26.703125 39.890625 
Q 22.75 39.890625 18.8125 39.015625 
Q 14.890625 38.140625 10.796875 36.28125 
z
" id="DejaVuSans-53"/>
       </defs>
       <use xlink:href="#DejaVuSans-53"/>
       <use x="63.623047" xlink:href="#DejaVuSans-48"/>
      </g>
     </g>
    </g>
    <g id="text_6">
     <!-- value of $h$ -->
     <g style="fill:#969696;" transform="translate(184.6925 349.137)scale(0.14 -0.14)">
      <defs>
       <path d="M 2.984375 54.6875 
L 12.5 54.6875 
L 29.59375 8.796875 
L 46.6875 54.6875 
L 56.203125 54.6875 
L 35.6875 0 
L 23.484375 0 
z
" id="DejaVuSans-118"/>
       <path d="M 34.28125 27.484375 
Q 23.390625 27.484375 19.1875 25 
Q 14.984375 22.515625 14.984375 16.5 
Q 14.984375 11.71875 18.140625 8.90625 
Q 21.296875 6.109375 26.703125 6.109375 
Q 34.1875 6.109375 38.703125 11.40625 
Q 43.21875 16.703125 43.21875 25.484375 
L 43.21875 27.484375 
z
M 52.203125 31.203125 
L 52.203125 0 
L 43.21875 0 
L 43.21875 8.296875 
Q 40.140625 3.328125 35.546875 0.953125 
Q 30.953125 -1.421875 24.3125 -1.421875 
Q 15.921875 -1.421875 10.953125 3.296875 
Q 6 8.015625 6 15.921875 
Q 6 25.140625 12.171875 29.828125 
Q 18.359375 34.515625 30.609375 34.515625 
L 43.21875 34.515625 
L 43.21875 35.40625 
Q 43.21875 41.609375 39.140625 45 
Q 35.0625 48.390625 27.6875 48.390625 
Q 23 48.390625 18.546875 47.265625 
Q 14.109375 46.140625 10.015625 43.890625 
L 10.015625 52.203125 
Q 14.9375 54.109375 19.578125 55.046875 
Q 24.21875 56 28.609375 56 
Q 40.484375 56 46.34375 49.84375 
Q 52.203125 43.703125 52.203125 31.203125 
z
" id="DejaVuSans-97"/>
       <path d="M 9.421875 75.984375 
L 18.40625 75.984375 
L 18.40625 0 
L 9.421875 0 
z
" id="DejaVuSans-108"/>
       <path d="M 8.5 21.578125 
L 8.5 54.6875 
L 17.484375 54.6875 
L 17.484375 21.921875 
Q 17.484375 14.15625 20.5 10.265625 
Q 23.53125 6.390625 29.59375 6.390625 
Q 36.859375 6.390625 41.078125 11.03125 
Q 45.3125 15.671875 45.3125 23.6875 
L 45.3125 54.6875 
L 54.296875 54.6875 
L 54.296875 0 
L 45.3125 0 
L 45.3125 8.40625 
Q 42.046875 3.421875 37.71875 1 
Q 33.40625 -1.421875 27.6875 -1.421875 
Q 18.265625 -1.421875 13.375 4.4375 
Q 8.5 10.296875 8.5 21.578125 
z
M 31.109375 56 
z
" id="DejaVuSans-117"/>
       <path d="M 56.203125 29.59375 
L 56.203125 25.203125 
L 14.890625 25.203125 
Q 15.484375 15.921875 20.484375 11.0625 
Q 25.484375 6.203125 34.421875 6.203125 
Q 39.59375 6.203125 44.453125 7.46875 
Q 49.3125 8.734375 54.109375 11.28125 
L 54.109375 2.78125 
Q 49.265625 0.734375 44.1875 -0.34375 
Q 39.109375 -1.421875 33.890625 -1.421875 
Q 20.796875 -1.421875 13.15625 6.1875 
Q 5.515625 13.8125 5.515625 26.8125 
Q 5.515625 40.234375 12.765625 48.109375 
Q 20.015625 56 32.328125 56 
Q 43.359375 56 49.78125 48.890625 
Q 56.203125 41.796875 56.203125 29.59375 
z
M 47.21875 32.234375 
Q 47.125 39.59375 43.09375 43.984375 
Q 39.0625 48.390625 32.421875 48.390625 
Q 24.90625 48.390625 20.390625 44.140625 
Q 15.875 39.890625 15.1875 32.171875 
z
" id="DejaVuSans-101"/>
       <path id="DejaVuSans-32"/>
       <path d="M 30.609375 48.390625 
Q 23.390625 48.390625 19.1875 42.75 
Q 14.984375 37.109375 14.984375 27.296875 
Q 14.984375 17.484375 19.15625 11.84375 
Q 23.34375 6.203125 30.609375 6.203125 
Q 37.796875 6.203125 41.984375 11.859375 
Q 46.1875 17.53125 46.1875 27.296875 
Q 46.1875 37.015625 41.984375 42.703125 
Q 37.796875 48.390625 30.609375 48.390625 
z
M 30.609375 56 
Q 42.328125 56 49.015625 48.375 
Q 55.71875 40.765625 55.71875 27.296875 
Q 55.71875 13.875 49.015625 6.21875 
Q 42.328125 -1.421875 30.609375 -1.421875 
Q 18.84375 -1.421875 12.171875 6.21875 
Q 5.515625 13.875 5.515625 27.296875 
Q 5.515625 40.765625 12.171875 48.375 
Q 18.84375 56 30.609375 56 
z
" id="DejaVuSans-111"/>
       <path d="M 37.109375 75.984375 
L 37.109375 68.5 
L 28.515625 68.5 
Q 23.6875 68.5 21.796875 66.546875 
Q 19.921875 64.59375 19.921875 59.515625 
L 19.921875 54.6875 
L 34.71875 54.6875 
L 34.71875 47.703125 
L 19.921875 47.703125 
L 19.921875 0 
L 10.890625 0 
L 10.890625 47.703125 
L 2.296875 47.703125 
L 2.296875 54.6875 
L 10.890625 54.6875 
L 10.890625 58.5 
Q 10.890625 67.625 15.140625 71.796875 
Q 19.390625 75.984375 28.609375 75.984375 
z
" id="DejaVuSans-102"/>
       <path d="M 55.71875 33.015625 
L 49.3125 0 
L 40.28125 0 
L 46.6875 32.671875 
Q 47.125 34.96875 47.359375 36.71875 
Q 47.609375 38.484375 47.609375 39.5 
Q 47.609375 43.609375 45.015625 45.890625 
Q 42.4375 48.1875 37.796875 48.1875 
Q 30.5625 48.1875 25.265625 43.296875 
Q 19.96875 38.421875 18.40625 30.328125 
L 12.5 0 
L 3.515625 0 
L 18.3125 75.984375 
L 27.296875 75.984375 
L 21.484375 46.09375 
Q 24.90625 50.6875 30.21875 53.34375 
Q 35.546875 56 41.40625 56 
Q 48.640625 56 52.609375 52.09375 
Q 56.59375 48.1875 56.59375 41.109375 
Q 56.59375 39.359375 56.375 37.359375 
Q 56.15625 35.359375 55.71875 33.015625 
z
" id="DejaVuSans-Oblique-104"/>
      </defs>
      <use transform="translate(0 0.015625)" xlink:href="#DejaVuSans-118"/>
      <use transform="translate(59.179688 0.015625)" xlink:href="#DejaVuSans-97"/>
      <use transform="translate(120.458984 0.015625)" xlink:href="#DejaVuSans-108"/>
      <use transform="translate(148.242188 0.015625)" xlink:href="#DejaVuSans-117"/>
      <use transform="translate(211.621094 0.015625)" xlink:href="#DejaVuSans-101"/>
      <use transform="translate(273.144531 0.015625)" xlink:href="#DejaVuSans-32"/>
      <use transform="translate(304.931641 0.015625)" xlink:href="#DejaVuSans-111"/>
      <use transform="translate(366.113281 0.015625)" xlink:href="#DejaVuSans-102"/>
      <use transform="translate(401.318359 0.015625)" xlink:href="#DejaVuSans-32"/>
      <use transform="translate(433.105469 0.015625)" xlink:href="#DejaVuSans-Oblique-104"/>
     </g>
    </g>
   </g>
   <g id="matplotlib.axis_2">
    <g id="ytick_1">
     <g id="line2d_6">
      <path clip-path="url(#p6c99a0b280)" d="M 40.9225 284.929714 
L 398.0425 284.929714 
" style="fill:none;stroke:#969696;stroke-linecap:square;stroke-width:0.3;"/>
     </g>
     <g id="line2d_7">
      <defs>
       <path d="M 0 0 
L -3.5 0 
" id="m2a316dfed1" style="stroke:#969696;stroke-width:0.3;"/>
      </defs>
      <g>
       <use style="fill:#969696;stroke:#969696;stroke-width:0.3;" x="40.9225" xlink:href="#m2a316dfed1" y="284.929714"/>
      </g>
     </g>
     <g id="text_7">
      <!-- 20 -->
      <g style="fill:#969696;" transform="translate(16.1075 290.24862)scale(0.14 -0.14)">
       <use xlink:href="#DejaVuSans-50"/>
       <use x="63.623047" xlink:href="#DejaVuSans-48"/>
      </g>
     </g>
    </g>
    <g id="ytick_2">
     <g id="line2d_8">
      <path clip-path="url(#p6c99a0b280)" d="M 40.9225 251.85065 
L 398.0425 251.85065 
" style="fill:none;stroke:#969696;stroke-linecap:square;stroke-width:0.3;"/>
     </g>
     <g id="line2d_9">
      <g>
       <use style="fill:#969696;stroke:#969696;stroke-width:0.3;" x="40.9225" xlink:href="#m2a316dfed1" y="251.85065"/>
      </g>
     </g>
     <g id="text_8">
      <!-- 40 -->
      <g style="fill:#969696;" transform="translate(16.1075 257.169557)scale(0.14 -0.14)">
       <use xlink:href="#DejaVuSans-52"/>
       <use x="63.623047" xlink:href="#DejaVuSans-48"/>
      </g>
     </g>
    </g>
    <g id="ytick_3">
     <g id="line2d_10">
      <path clip-path="url(#p6c99a0b280)" d="M 40.9225 218.771587 
L 398.0425 218.771587 
" style="fill:none;stroke:#969696;stroke-linecap:square;stroke-width:0.3;"/>
     </g>
     <g id="line2d_11">
      <g>
       <use style="fill:#969696;stroke:#969696;stroke-width:0.3;" x="40.9225" xlink:href="#m2a316dfed1" y="218.771587"/>
      </g>
     </g>
     <g id="text_9">
      <!-- 60 -->
      <g style="fill:#969696;" transform="translate(16.1075 224.090493)scale(0.14 -0.14)">
       <defs>
        <path d="M 33.015625 40.375 
Q 26.375 40.375 22.484375 35.828125 
Q 18.609375 31.296875 18.609375 23.390625 
Q 18.609375 15.53125 22.484375 10.953125 
Q 26.375 6.390625 33.015625 6.390625 
Q 39.65625 6.390625 43.53125 10.953125 
Q 47.40625 15.53125 47.40625 23.390625 
Q 47.40625 31.296875 43.53125 35.828125 
Q 39.65625 40.375 33.015625 40.375 
z
M 52.59375 71.296875 
L 52.59375 62.3125 
Q 48.875 64.0625 45.09375 64.984375 
Q 41.3125 65.921875 37.59375 65.921875 
Q 27.828125 65.921875 22.671875 59.328125 
Q 17.53125 52.734375 16.796875 39.40625 
Q 19.671875 43.65625 24.015625 45.921875 
Q 28.375 48.1875 33.59375 48.1875 
Q 44.578125 48.1875 50.953125 41.515625 
Q 57.328125 34.859375 57.328125 23.390625 
Q 57.328125 12.15625 50.6875 5.359375 
Q 44.046875 -1.421875 33.015625 -1.421875 
Q 20.359375 -1.421875 13.671875 8.265625 
Q 6.984375 17.96875 6.984375 36.375 
Q 6.984375 53.65625 15.1875 63.9375 
Q 23.390625 74.21875 37.203125 74.21875 
Q 40.921875 74.21875 44.703125 73.484375 
Q 48.484375 72.75 52.59375 71.296875 
z
" id="DejaVuSans-54"/>
       </defs>
       <use xlink:href="#DejaVuSans-54"/>
       <use x="63.623047" xlink:href="#DejaVuSans-48"/>
      </g>
     </g>
    </g>
    <g id="ytick_4">
     <g id="line2d_12">
      <path clip-path="url(#p6c99a0b280)" d="M 40.9225 185.692524 
L 398.0425 185.692524 
" style="fill:none;stroke:#969696;stroke-linecap:square;stroke-width:0.3;"/>
     </g>
     <g id="line2d_13">
      <g>
       <use style="fill:#969696;stroke:#969696;stroke-width:0.3;" x="40.9225" xlink:href="#m2a316dfed1" y="185.692524"/>
      </g>
     </g>
     <g id="text_10">
      <!-- 80 -->
      <g style="fill:#969696;" transform="translate(16.1075 191.01143)scale(0.14 -0.14)">
       <defs>
        <path d="M 31.78125 34.625 
Q 24.75 34.625 20.71875 30.859375 
Q 16.703125 27.09375 16.703125 20.515625 
Q 16.703125 13.921875 20.71875 10.15625 
Q 24.75 6.390625 31.78125 6.390625 
Q 38.8125 6.390625 42.859375 10.171875 
Q 46.921875 13.96875 46.921875 20.515625 
Q 46.921875 27.09375 42.890625 30.859375 
Q 38.875 34.625 31.78125 34.625 
z
M 21.921875 38.8125 
Q 15.578125 40.375 12.03125 44.71875 
Q 8.5 49.078125 8.5 55.328125 
Q 8.5 64.0625 14.71875 69.140625 
Q 20.953125 74.21875 31.78125 74.21875 
Q 42.671875 74.21875 48.875 69.140625 
Q 55.078125 64.0625 55.078125 55.328125 
Q 55.078125 49.078125 51.53125 44.71875 
Q 48 40.375 41.703125 38.8125 
Q 48.828125 37.15625 52.796875 32.3125 
Q 56.78125 27.484375 56.78125 20.515625 
Q 56.78125 9.90625 50.3125 4.234375 
Q 43.84375 -1.421875 31.78125 -1.421875 
Q 19.734375 -1.421875 13.25 4.234375 
Q 6.78125 9.90625 6.78125 20.515625 
Q 6.78125 27.484375 10.78125 32.3125 
Q 14.796875 37.15625 21.921875 38.8125 
z
M 18.3125 54.390625 
Q 18.3125 48.734375 21.84375 45.5625 
Q 25.390625 42.390625 31.78125 42.390625 
Q 38.140625 42.390625 41.71875 45.5625 
Q 45.3125 48.734375 45.3125 54.390625 
Q 45.3125 60.0625 41.71875 63.234375 
Q 38.140625 66.40625 31.78125 66.40625 
Q 25.390625 66.40625 21.84375 63.234375 
Q 18.3125 60.0625 18.3125 54.390625 
z
" id="DejaVuSans-56"/>
       </defs>
       <use xlink:href="#DejaVuSans-56"/>
       <use x="63.623047" xlink:href="#DejaVuSans-48"/>
      </g>
     </g>
    </g>
    <g id="ytick_5">
     <g id="line2d_14">
      <path clip-path="url(#p6c99a0b280)" d="M 40.9225 152.61346 
L 398.0425 152.61346 
" style="fill:none;stroke:#969696;stroke-linecap:square;stroke-width:0.3;"/>
     </g>
     <g id="line2d_15">
      <g>
       <use style="fill:#969696;stroke:#969696;stroke-width:0.3;" x="40.9225" xlink:href="#m2a316dfed1" y="152.61346"/>
      </g>
     </g>
     <g id="text_11">
      <!-- 100 -->
      <g style="fill:#969696;" transform="translate(7.2 157.932366)scale(0.14 -0.14)">
       <use xlink:href="#DejaVuSans-49"/>
       <use x="63.623047" xlink:href="#DejaVuSans-48"/>
       <use x="127.246094" xlink:href="#DejaVuSans-48"/>
      </g>
     </g>
    </g>
    <g id="ytick_6">
     <g id="line2d_16">
      <path clip-path="url(#p6c99a0b280)" d="M 40.9225 119.534397 
L 398.0425 119.534397 
" style="fill:none;stroke:#969696;stroke-linecap:square;stroke-width:0.3;"/>
     </g>
     <g id="line2d_17">
      <g>
       <use style="fill:#969696;stroke:#969696;stroke-width:0.3;" x="40.9225" xlink:href="#m2a316dfed1" y="119.534397"/>
      </g>
     </g>
     <g id="text_12">
      <!-- 120 -->
      <g style="fill:#969696;" transform="translate(7.2 124.853303)scale(0.14 -0.14)">
       <use xlink:href="#DejaVuSans-49"/>
       <use x="63.623047" xlink:href="#DejaVuSans-50"/>
       <use x="127.246094" xlink:href="#DejaVuSans-48"/>
      </g>
     </g>
    </g>
    <g id="ytick_7">
     <g id="line2d_18">
      <path clip-path="url(#p6c99a0b280)" d="M 40.9225 86.455333 
L 398.0425 86.455333 
" style="fill:none;stroke:#969696;stroke-linecap:square;stroke-width:0.3;"/>
     </g>
     <g id="line2d_19">
      <g>
       <use style="fill:#969696;stroke:#969696;stroke-width:0.3;" x="40.9225" xlink:href="#m2a316dfed1" y="86.455333"/>
      </g>
     </g>
     <g id="text_13">
      <!-- 140 -->
      <g style="fill:#969696;" transform="translate(7.2 91.77424)scale(0.14 -0.14)">
       <use xlink:href="#DejaVuSans-49"/>
       <use x="63.623047" xlink:href="#DejaVuSans-52"/>
       <use x="127.246094" xlink:href="#DejaVuSans-48"/>
      </g>
     </g>
    </g>
    <g id="ytick_8">
     <g id="line2d_20">
      <path clip-path="url(#p6c99a0b280)" d="M 40.9225 53.37627 
L 398.0425 53.37627 
" style="fill:none;stroke:#969696;stroke-linecap:square;stroke-width:0.3;"/>
     </g>
     <g id="line2d_21">
      <g>
       <use style="fill:#969696;stroke:#969696;stroke-width:0.3;" x="40.9225" xlink:href="#m2a316dfed1" y="53.37627"/>
      </g>
     </g>
     <g id="text_14">
      <!-- 160 -->
      <g style="fill:#969696;" transform="translate(7.2 58.695176)scale(0.14 -0.14)">
       <use xlink:href="#DejaVuSans-49"/>
       <use x="63.623047" xlink:href="#DejaVuSans-54"/>
       <use x="127.246094" xlink:href="#DejaVuSans-48"/>
      </g>
     </g>
    </g>
   </g>
   <g id="line2d_22">
    <path clip-path="url(#p6c99a0b280)" d="M 40.9225 313.949812 
L 47.079741 310.40834 
L 53.236983 306.817553 
L 59.394224 303.156452 
L 65.551466 299.578739 
L 71.708707 296.016792 
L 77.865948 292.379827 
L 84.02319 288.832005 
L 90.180431 285.282039 
L 96.337672 281.682663 
L 102.494914 278.083721 
L 108.652155 274.585525 
L 114.809397 270.918561 
L 120.966638 267.284385 
L 127.123879 263.704152 
L 133.281121 260.104442 
L 139.438362 256.578282 
L 145.595603 253.033386 
L 151.752845 249.429342 
L 157.910086 245.933439 
L 164.067328 242.171207 
L 170.224569 238.824095 
L 176.38181 235.092842 
L 182.539052 231.557497 
L 188.696293 227.894783 
L 194.853534 224.461457 
L 201.010776 221.026332 
L 207.168017 217.1545 
L 213.325259 213.400316 
L 219.4825 209.649438 
L 225.639741 206.272081 
L 231.796983 202.651375 
L 237.954224 198.681124 
L 244.111466 195.807499 
L 250.268707 192.156814 
L 256.425948 188.231039 
L 262.58319 184.928827 
L 268.740431 181.35172 
L 274.897672 177.424656 
L 281.054914 173.913785 
L 287.212155 170.530098 
L 293.369397 166.331459 
L 299.526638 162.905673 
L 305.683879 159.955365 
L 311.841121 155.824628 
L 317.998362 152.475572 
L 324.155603 148.40251 
L 330.312845 142.663619 
L 336.470086 139.07497 
L 342.627328 137.283898 
L 348.784569 134.577329 
L 354.94181 130.731908 
L 361.099052 123.801622 
L 367.256293 123.849175 
L 373.413534 119.280257 
L 379.570776 116.638065 
L 385.728017 112.219422 
L 391.885259 108.98057 
L 398.0425 106.254807 
" style="fill:none;stroke:#1f77b4;stroke-linecap:square;stroke-width:1.5;"/>
   </g>
   <g id="line2d_23">
    <path clip-path="url(#p6c99a0b280)" d="M 40.9225 308.789819 
L 47.079741 304.758242 
L 53.236983 304.188588 
L 59.394224 304.148645 
L 65.551466 292.038899 
L 71.708707 291.444311 
L 77.865948 291.255501 
L 84.02319 283.535519 
L 90.180431 283.053445 
L 96.337672 282.873996 
L 102.494914 275.021266 
L 108.652155 274.471593 
L 114.809397 274.413228 
L 120.966638 266.673174 
L 127.123879 266.068366 
L 133.281121 266.187406 
L 139.438362 258.432162 
L 145.595603 257.868979 
L 151.752845 257.758937 
L 157.910086 250.111413 
L 164.067328 249.41206 
L 170.224569 249.541093 
L 176.38181 241.905984 
L 182.539052 241.057794 
L 188.696293 241.044683 
L 194.853534 232.858758 
L 201.010776 232.642439 
L 207.168017 232.218079 
L 213.325259 225.185326 
L 219.4825 224.580287 
L 225.639741 224.510578 
L 231.796983 216.07302 
L 237.954224 216.01708 
L 244.111466 216.106925 
L 250.268707 208.040568 
L 256.425948 207.213393 
L 262.58319 207.937392 
L 268.740431 199.253087 
L 274.897672 199.775975 
L 281.054914 199.628566 
L 287.212155 191.698549 
L 293.369397 190.714263 
L 299.526638 190.984654 
L 305.683879 183.751962 
L 311.841121 183.098118 
L 317.998362 182.906941 
L 324.155603 175.010102 
L 330.312845 174.341433 
L 336.470086 174.674853 
L 342.627328 166.889807 
L 348.784569 165.612001 
L 354.94181 166.295598 
L 361.099052 158.233757 
L 367.256293 157.719614 
L 373.413534 157.898593 
L 379.570776 149.92742 
L 385.728017 149.120845 
L 391.885259 148.573817 
L 398.0425 141.700447 
" style="fill:none;stroke:#ff7f0e;stroke-linecap:square;stroke-width:1.5;"/>
   </g>
   <g id="line2d_24">
    <path clip-path="url(#p6c99a0b280)" d="M 40.9225 245.480963 
L 47.079741 245.274761 
L 53.236983 245.29379 
L 59.394224 245.266893 
L 65.551466 245.05354 
L 71.708707 245.384127 
L 77.865948 245.157261 
L 84.02319 244.88522 
L 90.180431 245.044951 
L 96.337672 244.474957 
L 102.494914 244.521354 
L 108.652155 244.024075 
L 114.809397 243.956936 
L 120.966638 244.034971 
L 127.123879 243.89176 
L 133.281121 243.823604 
L 139.438362 243.567957 
L 145.595603 243.469208 
L 151.752845 243.267062 
L 157.910086 243.188057 
L 164.067328 243.030512 
L 170.224569 242.889635 
L 176.38181 242.743149 
L 182.539052 242.511908 
L 188.696293 242.536689 
L 194.853534 242.336167 
L 201.010776 241.87534 
L 207.168017 241.750349 
L 213.325259 241.587704 
L 219.4825 241.384709 
L 225.639741 241.47069 
L 231.796983 241.209423 
L 237.954224 241.588701 
L 244.111466 241.394177 
L 250.268707 241.68603 
L 256.425948 241.343877 
L 262.58319 241.443613 
L 268.740431 241.322008 
L 274.897672 241.216253 
L 281.054914 241.601948 
L 287.212155 241.428911 
L 293.369397 241.687131 
L 299.526638 241.33975 
L 305.683879 241.547359 
L 311.841121 241.42211 
L 317.998362 241.026435 
L 324.155603 241.132359 
L 330.312845 241.370133 
L 336.470086 241.384395 
L 342.627328 241.591738 
L 348.784569 241.451268 
L 354.94181 241.859539 
L 361.099052 241.8343 
L 367.256293 241.828612 
L 373.413534 241.42576 
L 379.570776 241.513655 
L 385.728017 241.602828 
L 391.885259 241.624546 
L 398.0425 241.815296 
" style="fill:none;stroke:#2ca02c;stroke-linecap:square;stroke-width:1.5;"/>
   </g>
   <g id="line2d_25">
    <path clip-path="url(#p6c99a0b280)" d="M 40.9225 231.483573 
L 47.079741 47.837812 
L 53.236983 49.660032 
L 59.394224 50.197853 
L 65.551466 50.289657 
L 71.708707 51.168108 
L 77.865948 51.717421 
L 84.02319 53.784499 
L 90.180431 50.963407 
L 96.337672 53.944489 
L 102.494914 54.410723 
L 108.652155 53.184709 
L 114.809397 52.806653 
L 120.966638 55.064146 
L 127.123879 54.16089 
L 133.281121 50.716333 
L 139.438362 54.133013 
L 145.595603 52.352074 
L 151.752845 54.730133 
L 157.910086 52.878893 
L 164.067328 54.704068 
L 170.224569 54.679947 
L 176.38181 54.984395 
L 182.539052 54.623038 
L 188.696293 50.743059 
L 194.853534 53.357645 
L 201.010776 53.648975 
L 207.168017 53.771881 
L 213.325259 52.597489 
L 219.4825 53.162809 
L 225.639741 54.318195 
L 231.796983 54.483889 
L 237.954224 50.783769 
L 244.111466 50.166918 
L 250.268707 53.994463 
L 256.425948 54.597107 
L 262.58319 54.649597 
L 268.740431 54.326648 
L 274.897672 53.568984 
L 281.054914 53.873761 
L 287.212155 50.724973 
L 293.369397 50.258189 
L 299.526638 54.358214 
L 305.683879 54.252361 
L 311.841121 53.765256 
L 317.998362 54.342407 
L 324.155603 49.684481 
L 330.312845 50.254132 
L 336.470086 52.345821 
L 342.627328 53.487832 
L 348.784569 50.756803 
L 354.94181 54.022286 
L 361.099052 53.930319 
L 367.256293 54.888924 
L 373.413534 52.687908 
L 379.570776 53.469892 
L 385.728017 54.953093 
L 391.885259 53.331833 
L 398.0425 54.718775 
" style="fill:none;stroke:#d62728;stroke-linecap:square;stroke-width:1.5;"/>
   </g>
   <g id="text_15">
    <!-- devroye -->
    <g style="fill:#1f77b4;" transform="translate(401.6137 110.117932)scale(0.14 -0.14)">
     <defs>
      <path d="M 45.40625 46.390625 
L 45.40625 75.984375 
L 54.390625 75.984375 
L 54.390625 0 
L 45.40625 0 
L 45.40625 8.203125 
Q 42.578125 3.328125 38.25 0.953125 
Q 33.9375 -1.421875 27.875 -1.421875 
Q 17.96875 -1.421875 11.734375 6.484375 
Q 5.515625 14.40625 5.515625 27.296875 
Q 5.515625 40.1875 11.734375 48.09375 
Q 17.96875 56 27.875 56 
Q 33.9375 56 38.25 53.625 
Q 42.578125 51.265625 45.40625 46.390625 
z
M 14.796875 27.296875 
Q 14.796875 17.390625 18.875 11.75 
Q 22.953125 6.109375 30.078125 6.109375 
Q 37.203125 6.109375 41.296875 11.75 
Q 45.40625 17.390625 45.40625 27.296875 
Q 45.40625 37.203125 41.296875 42.84375 
Q 37.203125 48.484375 30.078125 48.484375 
Q 22.953125 48.484375 18.875 42.84375 
Q 14.796875 37.203125 14.796875 27.296875 
z
" id="DejaVuSans-100"/>
      <path d="M 41.109375 46.296875 
Q 39.59375 47.171875 37.8125 47.578125 
Q 36.03125 48 33.890625 48 
Q 26.265625 48 22.1875 43.046875 
Q 18.109375 38.09375 18.109375 28.8125 
L 18.109375 0 
L 9.078125 0 
L 9.078125 54.6875 
L 18.109375 54.6875 
L 18.109375 46.1875 
Q 20.953125 51.171875 25.484375 53.578125 
Q 30.03125 56 36.53125 56 
Q 37.453125 56 38.578125 55.875 
Q 39.703125 55.765625 41.0625 55.515625 
z
" id="DejaVuSans-114"/>
      <path d="M 32.171875 -5.078125 
Q 28.375 -14.84375 24.75 -17.8125 
Q 21.140625 -20.796875 15.09375 -20.796875 
L 7.90625 -20.796875 
L 7.90625 -13.28125 
L 13.1875 -13.28125 
Q 16.890625 -13.28125 18.9375 -11.515625 
Q 21 -9.765625 23.484375 -3.21875 
L 25.09375 0.875 
L 2.984375 54.6875 
L 12.5 54.6875 
L 29.59375 11.921875 
L 46.6875 54.6875 
L 56.203125 54.6875 
z
" id="DejaVuSans-121"/>
     </defs>
     <use xlink:href="#DejaVuSans-100"/>
     <use x="63.476562" xlink:href="#DejaVuSans-101"/>
     <use x="125" xlink:href="#DejaVuSans-118"/>
     <use x="184.179688" xlink:href="#DejaVuSans-114"/>
     <use x="223.042969" xlink:href="#DejaVuSans-111"/>
     <use x="284.224609" xlink:href="#DejaVuSans-121"/>
     <use x="343.404297" xlink:href="#DejaVuSans-101"/>
    </g>
   </g>
   <g id="text_16">
    <!-- alternate -->
    <g style="fill:#ff7f0e;" transform="translate(401.6137 145.563572)scale(0.14 -0.14)">
     <defs>
      <path d="M 18.3125 70.21875 
L 18.3125 54.6875 
L 36.8125 54.6875 
L 36.8125 47.703125 
L 18.3125 47.703125 
L 18.3125 18.015625 
Q 18.3125 11.328125 20.140625 9.421875 
Q 21.96875 7.515625 27.59375 7.515625 
L 36.8125 7.515625 
L 36.8125 0 
L 27.59375 0 
Q 17.1875 0 13.234375 3.875 
Q 9.28125 7.765625 9.28125 18.015625 
L 9.28125 47.703125 
L 2.6875 47.703125 
L 2.6875 54.6875 
L 9.28125 54.6875 
L 9.28125 70.21875 
z
" id="DejaVuSans-116"/>
      <path d="M 54.890625 33.015625 
L 54.890625 0 
L 45.90625 0 
L 45.90625 32.71875 
Q 45.90625 40.484375 42.875 44.328125 
Q 39.84375 48.1875 33.796875 48.1875 
Q 26.515625 48.1875 22.3125 43.546875 
Q 18.109375 38.921875 18.109375 30.90625 
L 18.109375 0 
L 9.078125 0 
L 9.078125 54.6875 
L 18.109375 54.6875 
L 18.109375 46.1875 
Q 21.34375 51.125 25.703125 53.5625 
Q 30.078125 56 35.796875 56 
Q 45.21875 56 50.046875 50.171875 
Q 54.890625 44.34375 54.890625 33.015625 
z
" id="DejaVuSans-110"/>
     </defs>
     <use xlink:href="#DejaVuSans-97"/>
     <use x="61.279297" xlink:href="#DejaVuSans-108"/>
     <use x="89.0625" xlink:href="#DejaVuSans-116"/>
     <use x="128.271484" xlink:href="#DejaVuSans-101"/>
     <use x="189.794922" xlink:href="#DejaVuSans-114"/>
     <use x="229.158203" xlink:href="#DejaVuSans-110"/>
     <use x="292.537109" xlink:href="#DejaVuSans-97"/>
     <use x="353.816406" xlink:href="#DejaVuSans-116"/>
     <use x="393.025391" xlink:href="#DejaVuSans-101"/>
    </g>
   </g>
   <g id="text_17">
    <!-- saddle -->
    <g style="fill:#2ca02c;" transform="translate(401.6137 245.678421)scale(0.14 -0.14)">
     <defs>
      <path d="M 44.28125 53.078125 
L 44.28125 44.578125 
Q 40.484375 46.53125 36.375 47.5 
Q 32.28125 48.484375 27.875 48.484375 
Q 21.1875 48.484375 17.84375 46.4375 
Q 14.5 44.390625 14.5 40.28125 
Q 14.5 37.15625 16.890625 35.375 
Q 19.28125 33.59375 26.515625 31.984375 
L 29.59375 31.296875 
Q 39.15625 29.25 43.1875 25.515625 
Q 47.21875 21.78125 47.21875 15.09375 
Q 47.21875 7.46875 41.1875 3.015625 
Q 35.15625 -1.421875 24.609375 -1.421875 
Q 20.21875 -1.421875 15.453125 -0.5625 
Q 10.6875 0.296875 5.421875 2 
L 5.421875 11.28125 
Q 10.40625 8.6875 15.234375 7.390625 
Q 20.0625 6.109375 24.8125 6.109375 
Q 31.15625 6.109375 34.5625 8.28125 
Q 37.984375 10.453125 37.984375 14.40625 
Q 37.984375 18.0625 35.515625 20.015625 
Q 33.0625 21.96875 24.703125 23.78125 
L 21.578125 24.515625 
Q 13.234375 26.265625 9.515625 29.90625 
Q 5.8125 33.546875 5.8125 39.890625 
Q 5.8125 47.609375 11.28125 51.796875 
Q 16.75 56 26.8125 56 
Q 31.78125 56 36.171875 55.265625 
Q 40.578125 54.546875 44.28125 53.078125 
z
" id="DejaVuSans-115"/>
     </defs>
     <use xlink:href="#DejaVuSans-115"/>
     <use x="52.099609" xlink:href="#DejaVuSans-97"/>
     <use x="113.378906" xlink:href="#DejaVuSans-100"/>
     <use x="176.855469" xlink:href="#DejaVuSans-100"/>
     <use x="240.332031" xlink:href="#DejaVuSans-108"/>
     <use x="268.115234" xlink:href="#DejaVuSans-101"/>
    </g>
   </g>
   <g id="text_18">
    <!-- gamma -->
    <g style="fill:#d62728;" transform="translate(401.6137 58.5819)scale(0.14 -0.14)">
     <defs>
      <path d="M 45.40625 27.984375 
Q 45.40625 37.75 41.375 43.109375 
Q 37.359375 48.484375 30.078125 48.484375 
Q 22.859375 48.484375 18.828125 43.109375 
Q 14.796875 37.75 14.796875 27.984375 
Q 14.796875 18.265625 18.828125 12.890625 
Q 22.859375 7.515625 30.078125 7.515625 
Q 37.359375 7.515625 41.375 12.890625 
Q 45.40625 18.265625 45.40625 27.984375 
z
M 54.390625 6.78125 
Q 54.390625 -7.171875 48.1875 -13.984375 
Q 42 -20.796875 29.203125 -20.796875 
Q 24.46875 -20.796875 20.265625 -20.09375 
Q 16.0625 -19.390625 12.109375 -17.921875 
L 12.109375 -9.1875 
Q 16.0625 -11.328125 19.921875 -12.34375 
Q 23.78125 -13.375 27.78125 -13.375 
Q 36.625 -13.375 41.015625 -8.765625 
Q 45.40625 -4.15625 45.40625 5.171875 
L 45.40625 9.625 
Q 42.625 4.78125 38.28125 2.390625 
Q 33.9375 0 27.875 0 
Q 17.828125 0 11.671875 7.65625 
Q 5.515625 15.328125 5.515625 27.984375 
Q 5.515625 40.671875 11.671875 48.328125 
Q 17.828125 56 27.875 56 
Q 33.9375 56 38.28125 53.609375 
Q 42.625 51.21875 45.40625 46.390625 
L 45.40625 54.6875 
L 54.390625 54.6875 
z
" id="DejaVuSans-103"/>
      <path d="M 52 44.1875 
Q 55.375 50.25 60.0625 53.125 
Q 64.75 56 71.09375 56 
Q 79.640625 56 84.28125 50.015625 
Q 88.921875 44.046875 88.921875 33.015625 
L 88.921875 0 
L 79.890625 0 
L 79.890625 32.71875 
Q 79.890625 40.578125 77.09375 44.375 
Q 74.3125 48.1875 68.609375 48.1875 
Q 61.625 48.1875 57.5625 43.546875 
Q 53.515625 38.921875 53.515625 30.90625 
L 53.515625 0 
L 44.484375 0 
L 44.484375 32.71875 
Q 44.484375 40.625 41.703125 44.40625 
Q 38.921875 48.1875 33.109375 48.1875 
Q 26.21875 48.1875 22.15625 43.53125 
Q 18.109375 38.875 18.109375 30.90625 
L 18.109375 0 
L 9.078125 0 
L 9.078125 54.6875 
L 18.109375 54.6875 
L 18.109375 46.1875 
Q 21.1875 51.21875 25.484375 53.609375 
Q 29.78125 56 35.6875 56 
Q 41.65625 56 45.828125 52.96875 
Q 50 49.953125 52 44.1875 
z
" id="DejaVuSans-109"/>
     </defs>
     <use xlink:href="#DejaVuSans-103"/>
     <use x="63.476562" xlink:href="#DejaVuSans-97"/>
     <use x="124.755859" xlink:href="#DejaVuSans-109"/>
     <use x="222.167969" xlink:href="#DejaVuSans-109"/>
     <use x="319.580078" xlink:href="#DejaVuSans-97"/>
    </g>
   </g>
   <g id="text_19">
    <!-- Runtime [ms] -->
    <g style="fill:#969696;" transform="translate(172.094688 17.837812)scale(0.14 -0.14)">
     <defs>
      <path d="M 44.390625 34.1875 
Q 47.5625 33.109375 50.5625 29.59375 
Q 53.5625 26.078125 56.59375 19.921875 
L 66.609375 0 
L 56 0 
L 46.6875 18.703125 
Q 43.0625 26.03125 39.671875 28.421875 
Q 36.28125 30.8125 30.421875 30.8125 
L 19.671875 30.8125 
L 19.671875 0 
L 9.8125 0 
L 9.8125 72.90625 
L 32.078125 72.90625 
Q 44.578125 72.90625 50.734375 67.671875 
Q 56.890625 62.453125 56.890625 51.90625 
Q 56.890625 45.015625 53.6875 40.46875 
Q 50.484375 35.9375 44.390625 34.1875 
z
M 19.671875 64.796875 
L 19.671875 38.921875 
L 32.078125 38.921875 
Q 39.203125 38.921875 42.84375 42.21875 
Q 46.484375 45.515625 46.484375 51.90625 
Q 46.484375 58.296875 42.84375 61.546875 
Q 39.203125 64.796875 32.078125 64.796875 
z
" id="DejaVuSans-82"/>
      <path d="M 9.421875 54.6875 
L 18.40625 54.6875 
L 18.40625 0 
L 9.421875 0 
z
M 9.421875 75.984375 
L 18.40625 75.984375 
L 18.40625 64.59375 
L 9.421875 64.59375 
z
" id="DejaVuSans-105"/>
      <path d="M 8.59375 75.984375 
L 29.296875 75.984375 
L 29.296875 69 
L 17.578125 69 
L 17.578125 -6.203125 
L 29.296875 -6.203125 
L 29.296875 -13.1875 
L 8.59375 -13.1875 
z
" id="DejaVuSans-91"/>
      <path d="M 30.421875 75.984375 
L 30.421875 -13.1875 
L 9.71875 -13.1875 
L 9.71875 -6.203125 
L 21.390625 -6.203125 
L 21.390625 69 
L 9.71875 69 
L 9.71875 75.984375 
z
" id="DejaVuSans-93"/>
     </defs>
     <use xlink:href="#DejaVuSans-82"/>
     <use x="64.982422" xlink:href="#DejaVuSans-117"/>
     <use x="128.361328" xlink:href="#DejaVuSans-110"/>
     <use x="191.740234" xlink:href="#DejaVuSans-116"/>
     <use x="230.949219" xlink:href="#DejaVuSans-105"/>
     <use x="258.732422" xlink:href="#DejaVuSans-109"/>
     <use x="356.144531" xlink:href="#DejaVuSans-101"/>
     <use x="417.667969" xlink:href="#DejaVuSans-32"/>
     <use x="449.455078" xlink:href="#DejaVuSans-91"/>
     <use x="488.46875" xlink:href="#DejaVuSans-109"/>
     <use x="585.880859" xlink:href="#DejaVuSans-115"/>
     <use x="637.980469" xlink:href="#DejaVuSans-93"/>
    </g>
   </g>
  </g>
  <g id="text_20">
   <!-- Runtime comparison of methods, generating 20000 PG(h, 0) samples per value of $h$. -->
   <g style="fill:#969696;" transform="translate(22.9225 20.117812)scale(0.09 -0.09)">
    <defs>
     <path d="M 48.78125 52.59375 
L 48.78125 44.1875 
Q 44.96875 46.296875 41.140625 47.34375 
Q 37.3125 48.390625 33.40625 48.390625 
Q 24.65625 48.390625 19.8125 42.84375 
Q 14.984375 37.3125 14.984375 27.296875 
Q 14.984375 17.28125 19.8125 11.734375 
Q 24.65625 6.203125 33.40625 6.203125 
Q 37.3125 6.203125 41.140625 7.25 
Q 44.96875 8.296875 48.78125 10.40625 
L 48.78125 2.09375 
Q 45.015625 0.34375 40.984375 -0.53125 
Q 36.96875 -1.421875 32.421875 -1.421875 
Q 20.0625 -1.421875 12.78125 6.34375 
Q 5.515625 14.109375 5.515625 27.296875 
Q 5.515625 40.671875 12.859375 48.328125 
Q 20.21875 56 33.015625 56 
Q 37.15625 56 41.109375 55.140625 
Q 45.0625 54.296875 48.78125 52.59375 
z
" id="DejaVuSans-99"/>
     <path d="M 18.109375 8.203125 
L 18.109375 -20.796875 
L 9.078125 -20.796875 
L 9.078125 54.6875 
L 18.109375 54.6875 
L 18.109375 46.390625 
Q 20.953125 51.265625 25.265625 53.625 
Q 29.59375 56 35.59375 56 
Q 45.5625 56 51.78125 48.09375 
Q 58.015625 40.1875 58.015625 27.296875 
Q 58.015625 14.40625 51.78125 6.484375 
Q 45.5625 -1.421875 35.59375 -1.421875 
Q 29.59375 -1.421875 25.265625 0.953125 
Q 20.953125 3.328125 18.109375 8.203125 
z
M 48.6875 27.296875 
Q 48.6875 37.203125 44.609375 42.84375 
Q 40.53125 48.484375 33.40625 48.484375 
Q 26.265625 48.484375 22.1875 42.84375 
Q 18.109375 37.203125 18.109375 27.296875 
Q 18.109375 17.390625 22.1875 11.75 
Q 26.265625 6.109375 33.40625 6.109375 
Q 40.53125 6.109375 44.609375 11.75 
Q 48.6875 17.390625 48.6875 27.296875 
z
" id="DejaVuSans-112"/>
     <path d="M 54.890625 33.015625 
L 54.890625 0 
L 45.90625 0 
L 45.90625 32.71875 
Q 45.90625 40.484375 42.875 44.328125 
Q 39.84375 48.1875 33.796875 48.1875 
Q 26.515625 48.1875 22.3125 43.546875 
Q 18.109375 38.921875 18.109375 30.90625 
L 18.109375 0 
L 9.078125 0 
L 9.078125 75.984375 
L 18.109375 75.984375 
L 18.109375 46.1875 
Q 21.34375 51.125 25.703125 53.5625 
Q 30.078125 56 35.796875 56 
Q 45.21875 56 50.046875 50.171875 
Q 54.890625 44.34375 54.890625 33.015625 
z
" id="DejaVuSans-104"/>
     <path d="M 11.71875 12.40625 
L 22.015625 12.40625 
L 22.015625 4 
L 14.015625 -11.625 
L 7.71875 -11.625 
L 11.71875 4 
z
" id="DejaVuSans-44"/>
     <path d="M 19.671875 64.796875 
L 19.671875 37.40625 
L 32.078125 37.40625 
Q 38.96875 37.40625 42.71875 40.96875 
Q 46.484375 44.53125 46.484375 51.125 
Q 46.484375 57.671875 42.71875 61.234375 
Q 38.96875 64.796875 32.078125 64.796875 
z
M 9.8125 72.90625 
L 32.078125 72.90625 
Q 44.34375 72.90625 50.609375 67.359375 
Q 56.890625 61.8125 56.890625 51.125 
Q 56.890625 40.328125 50.609375 34.8125 
Q 44.34375 29.296875 32.078125 29.296875 
L 19.671875 29.296875 
L 19.671875 0 
L 9.8125 0 
z
" id="DejaVuSans-80"/>
     <path d="M 59.515625 10.40625 
L 59.515625 29.984375 
L 43.40625 29.984375 
L 43.40625 38.09375 
L 69.28125 38.09375 
L 69.28125 6.78125 
Q 63.578125 2.734375 56.6875 0.65625 
Q 49.8125 -1.421875 42 -1.421875 
Q 24.90625 -1.421875 15.25 8.5625 
Q 5.609375 18.5625 5.609375 36.375 
Q 5.609375 54.25 15.25 64.234375 
Q 24.90625 74.21875 42 74.21875 
Q 49.125 74.21875 55.546875 72.453125 
Q 61.96875 70.703125 67.390625 67.28125 
L 67.390625 56.78125 
Q 61.921875 61.421875 55.765625 63.765625 
Q 49.609375 66.109375 42.828125 66.109375 
Q 29.4375 66.109375 22.71875 58.640625 
Q 16.015625 51.171875 16.015625 36.375 
Q 16.015625 21.625 22.71875 14.15625 
Q 29.4375 6.6875 42.828125 6.6875 
Q 48.046875 6.6875 52.140625 7.59375 
Q 56.25 8.5 59.515625 10.40625 
z
" id="DejaVuSans-71"/>
     <path d="M 31 75.875 
Q 24.46875 64.65625 21.28125 53.65625 
Q 18.109375 42.671875 18.109375 31.390625 
Q 18.109375 20.125 21.3125 9.0625 
Q 24.515625 -2 31 -13.1875 
L 23.1875 -13.1875 
Q 15.875 -1.703125 12.234375 9.375 
Q 8.59375 20.453125 8.59375 31.390625 
Q 8.59375 42.28125 12.203125 53.3125 
Q 15.828125 64.359375 23.1875 75.875 
z
" id="DejaVuSans-40"/>
     <path d="M 8.015625 75.875 
L 15.828125 75.875 
Q 23.140625 64.359375 26.78125 53.3125 
Q 30.421875 42.28125 30.421875 31.390625 
Q 30.421875 20.453125 26.78125 9.375 
Q 23.140625 -1.703125 15.828125 -13.1875 
L 8.015625 -13.1875 
Q 14.5 -2 17.703125 9.0625 
Q 20.90625 20.125 20.90625 31.390625 
Q 20.90625 42.671875 17.703125 53.65625 
Q 14.5 64.65625 8.015625 75.875 
z
" id="DejaVuSans-41"/>
     <path d="M 10.6875 12.40625 
L 21 12.40625 
L 21 0 
L 10.6875 0 
z
" id="DejaVuSans-46"/>
    </defs>
    <use transform="translate(0 0.015625)" xlink:href="#DejaVuSans-82"/>
    <use transform="translate(69.482422 0.015625)" xlink:href="#DejaVuSans-117"/>
    <use transform="translate(132.861328 0.015625)" xlink:href="#DejaVuSans-110"/>
    <use transform="translate(196.240234 0.015625)" xlink:href="#DejaVuSans-116"/>
    <use transform="translate(235.449219 0.015625)" xlink:href="#DejaVuSans-105"/>
    <use transform="translate(263.232422 0.015625)" xlink:href="#DejaVuSans-109"/>
    <use transform="translate(360.644531 0.015625)" xlink:href="#DejaVuSans-101"/>
    <use transform="translate(422.167969 0.015625)" xlink:href="#DejaVuSans-32"/>
    <use transform="translate(453.955078 0.015625)" xlink:href="#DejaVuSans-99"/>
    <use transform="translate(508.935547 0.015625)" xlink:href="#DejaVuSans-111"/>
    <use transform="translate(570.117188 0.015625)" xlink:href="#DejaVuSans-109"/>
    <use transform="translate(667.529297 0.015625)" xlink:href="#DejaVuSans-112"/>
    <use transform="translate(731.005859 0.015625)" xlink:href="#DejaVuSans-97"/>
    <use transform="translate(792.285156 0.015625)" xlink:href="#DejaVuSans-114"/>
    <use transform="translate(833.398438 0.015625)" xlink:href="#DejaVuSans-105"/>
    <use transform="translate(861.181641 0.015625)" xlink:href="#DejaVuSans-115"/>
    <use transform="translate(913.28125 0.015625)" xlink:href="#DejaVuSans-111"/>
    <use transform="translate(974.462891 0.015625)" xlink:href="#DejaVuSans-110"/>
    <use transform="translate(1037.841797 0.015625)" xlink:href="#DejaVuSans-32"/>
    <use transform="translate(1069.628906 0.015625)" xlink:href="#DejaVuSans-111"/>
    <use transform="translate(1130.810547 0.015625)" xlink:href="#DejaVuSans-102"/>
    <use transform="translate(1166.015625 0.015625)" xlink:href="#DejaVuSans-32"/>
    <use transform="translate(1197.802734 0.015625)" xlink:href="#DejaVuSans-109"/>
    <use transform="translate(1295.214844 0.015625)" xlink:href="#DejaVuSans-101"/>
    <use transform="translate(1356.738281 0.015625)" xlink:href="#DejaVuSans-116"/>
    <use transform="translate(1395.947266 0.015625)" xlink:href="#DejaVuSans-104"/>
    <use transform="translate(1459.326172 0.015625)" xlink:href="#DejaVuSans-111"/>
    <use transform="translate(1520.507812 0.015625)" xlink:href="#DejaVuSans-100"/>
    <use transform="translate(1583.984375 0.015625)" xlink:href="#DejaVuSans-115"/>
    <use transform="translate(1636.083984 0.015625)" xlink:href="#DejaVuSans-44"/>
    <use transform="translate(1667.871094 0.015625)" xlink:href="#DejaVuSans-32"/>
    <use transform="translate(1699.658203 0.015625)" xlink:href="#DejaVuSans-103"/>
    <use transform="translate(1763.134766 0.015625)" xlink:href="#DejaVuSans-101"/>
    <use transform="translate(1824.658203 0.015625)" xlink:href="#DejaVuSans-110"/>
    <use transform="translate(1888.037109 0.015625)" xlink:href="#DejaVuSans-101"/>
    <use transform="translate(1949.560547 0.015625)" xlink:href="#DejaVuSans-114"/>
    <use transform="translate(1990.673828 0.015625)" xlink:href="#DejaVuSans-97"/>
    <use transform="translate(2051.953125 0.015625)" xlink:href="#DejaVuSans-116"/>
    <use transform="translate(2091.162109 0.015625)" xlink:href="#DejaVuSans-105"/>
    <use transform="translate(2118.945312 0.015625)" xlink:href="#DejaVuSans-110"/>
    <use transform="translate(2182.324219 0.015625)" xlink:href="#DejaVuSans-103"/>
    <use transform="translate(2245.800781 0.015625)" xlink:href="#DejaVuSans-32"/>
    <use transform="translate(2277.587891 0.015625)" xlink:href="#DejaVuSans-50"/>
    <use transform="translate(2341.210938 0.015625)" xlink:href="#DejaVuSans-48"/>
    <use transform="translate(2404.833984 0.015625)" xlink:href="#DejaVuSans-48"/>
    <use transform="translate(2468.457031 0.015625)" xlink:href="#DejaVuSans-48"/>
    <use transform="translate(2532.080078 0.015625)" xlink:href="#DejaVuSans-48"/>
    <use transform="translate(2595.703125 0.015625)" xlink:href="#DejaVuSans-32"/>
    <use transform="translate(2627.490234 0.015625)" xlink:href="#DejaVuSans-80"/>
    <use transform="translate(2687.792969 0.015625)" xlink:href="#DejaVuSans-71"/>
    <use transform="translate(2765.283203 0.015625)" xlink:href="#DejaVuSans-40"/>
    <use transform="translate(2804.296875 0.015625)" xlink:href="#DejaVuSans-104"/>
    <use transform="translate(2867.675781 0.015625)" xlink:href="#DejaVuSans-44"/>
    <use transform="translate(2899.462891 0.015625)" xlink:href="#DejaVuSans-32"/>
    <use transform="translate(2931.25 0.015625)" xlink:href="#DejaVuSans-48"/>
    <use transform="translate(2994.873047 0.015625)" xlink:href="#DejaVuSans-41"/>
    <use transform="translate(3033.886719 0.015625)" xlink:href="#DejaVuSans-32"/>
    <use transform="translate(3065.673828 0.015625)" xlink:href="#DejaVuSans-115"/>
    <use transform="translate(3117.773438 0.015625)" xlink:href="#DejaVuSans-97"/>
    <use transform="translate(3179.052734 0.015625)" xlink:href="#DejaVuSans-109"/>
    <use transform="translate(3276.464844 0.015625)" xlink:href="#DejaVuSans-112"/>
    <use transform="translate(3339.941406 0.015625)" xlink:href="#DejaVuSans-108"/>
    <use transform="translate(3367.724609 0.015625)" xlink:href="#DejaVuSans-101"/>
    <use transform="translate(3429.248047 0.015625)" xlink:href="#DejaVuSans-115"/>
    <use transform="translate(3481.347656 0.015625)" xlink:href="#DejaVuSans-32"/>
    <use transform="translate(3513.134766 0.015625)" xlink:href="#DejaVuSans-112"/>
    <use transform="translate(3576.611328 0.015625)" xlink:href="#DejaVuSans-101"/>
    <use transform="translate(3638.134766 0.015625)" xlink:href="#DejaVuSans-114"/>
    <use transform="translate(3679.248047 0.015625)" xlink:href="#DejaVuSans-32"/>
    <use transform="translate(3711.035156 0.015625)" xlink:href="#DejaVuSans-118"/>
    <use transform="translate(3770.214844 0.015625)" xlink:href="#DejaVuSans-97"/>
    <use transform="translate(3831.494141 0.015625)" xlink:href="#DejaVuSans-108"/>
    <use transform="translate(3859.277344 0.015625)" xlink:href="#DejaVuSans-117"/>
    <use transform="translate(3922.65625 0.015625)" xlink:href="#DejaVuSans-101"/>
    <use transform="translate(3984.179688 0.015625)" xlink:href="#DejaVuSans-32"/>
    <use transform="translate(4015.966797 0.015625)" xlink:href="#DejaVuSans-111"/>
    <use transform="translate(4077.148438 0.015625)" xlink:href="#DejaVuSans-102"/>
    <use transform="translate(4112.353516 0.015625)" xlink:href="#DejaVuSans-32"/>
    <use transform="translate(4144.140625 0.015625)" xlink:href="#DejaVuSans-Oblique-104"/>
    <use transform="translate(4207.519531 0.015625)" xlink:href="#DejaVuSans-46"/>
   </g>
  </g>
 </g>
 <defs>
  <clipPath id="p6c99a0b280">
   <rect height="266.112" width="357.12" x="40.9225" y="47.837812"/>
  </clipPath>
 </defs>
</svg>
